G04*
G04 #@! TF.GenerationSoftware,Altium Limited,Altium Designer,21.2.2 (38)*
G04*
G04 Layer_Color=16711935*
%FSLAX44Y44*%
%MOMM*%
G71*
G04*
G04 #@! TF.SameCoordinates,1FAA2A19-5D32-44EB-9D88-0ED73DB0A834*
G04*
G04*
G04 #@! TF.FilePolarity,Negative*
G04*
G01*
G75*
%ADD31C,0.2000*%
%ADD49C,0.1930*%
%ADD53C,1.6500*%
%ADD54R,1.6500X1.6500*%
%ADD66C,2.0320*%
%ADD115R,1.4032X1.1032*%
%ADD116R,5.7150X1.4986*%
%ADD117R,1.4986X5.7150*%
%ADD118R,1.1032X1.4032*%
%ADD131R,0.6032X0.8032*%
%ADD139R,2.3532X2.6532*%
%ADD144R,1.8032X1.8032*%
G04:AMPARAMS|DCode=145|XSize=1.7032mm|YSize=1.7032mm|CornerRadius=0.1541mm|HoleSize=0mm|Usage=FLASHONLY|Rotation=0.000|XOffset=0mm|YOffset=0mm|HoleType=Round|Shape=RoundedRectangle|*
%AMROUNDEDRECTD145*
21,1,1.7032,1.3950,0,0,0.0*
21,1,1.3950,1.7032,0,0,0.0*
1,1,0.3082,0.6975,-0.6975*
1,1,0.3082,-0.6975,-0.6975*
1,1,0.3082,-0.6975,0.6975*
1,1,0.3082,0.6975,0.6975*
%
%ADD145ROUNDEDRECTD145*%
%ADD146C,1.7032*%
%ADD148R,4.7752X2.1844*%
G04:AMPARAMS|DCode=149|XSize=2.3032mm|YSize=1.7032mm|CornerRadius=0.4766mm|HoleSize=0mm|Usage=FLASHONLY|Rotation=180.000|XOffset=0mm|YOffset=0mm|HoleType=Round|Shape=RoundedRectangle|*
%AMROUNDEDRECTD149*
21,1,2.3032,0.7500,0,0,180.0*
21,1,1.3500,1.7032,0,0,180.0*
1,1,0.9532,-0.6750,0.3750*
1,1,0.9532,0.6750,0.3750*
1,1,0.9532,0.6750,-0.3750*
1,1,0.9532,-0.6750,-0.3750*
%
%ADD149ROUNDEDRECTD149*%
G04:AMPARAMS|DCode=150|XSize=2.3032mm|YSize=1.7032mm|CornerRadius=0.4766mm|HoleSize=0mm|Usage=FLASHONLY|Rotation=90.000|XOffset=0mm|YOffset=0mm|HoleType=Round|Shape=RoundedRectangle|*
%AMROUNDEDRECTD150*
21,1,2.3032,0.7500,0,0,90.0*
21,1,1.3500,1.7032,0,0,90.0*
1,1,0.9532,0.3750,0.6750*
1,1,0.9532,0.3750,-0.6750*
1,1,0.9532,-0.3750,-0.6750*
1,1,0.9532,-0.3750,0.6750*
%
%ADD150ROUNDEDRECTD150*%
G04:AMPARAMS|DCode=151|XSize=1.7532mm|YSize=1.7532mm|CornerRadius=0.4891mm|HoleSize=0mm|Usage=FLASHONLY|Rotation=0.000|XOffset=0mm|YOffset=0mm|HoleType=Round|Shape=RoundedRectangle|*
%AMROUNDEDRECTD151*
21,1,1.7532,0.7750,0,0,0.0*
21,1,0.7750,1.7532,0,0,0.0*
1,1,0.9782,0.3875,-0.3875*
1,1,0.9782,-0.3875,-0.3875*
1,1,0.9782,-0.3875,0.3875*
1,1,0.9782,0.3875,0.3875*
%
%ADD151ROUNDEDRECTD151*%
%ADD152C,1.7532*%
%ADD153O,1.1032X1.8032*%
%ADD154C,1.5240*%
%ADD155C,1.7018*%
%ADD156C,2.4892*%
G04:AMPARAMS|DCode=157|XSize=0.8532mm|YSize=1.8532mm|CornerRadius=0.1504mm|HoleSize=0mm|Usage=FLASHONLY|Rotation=270.000|XOffset=0mm|YOffset=0mm|HoleType=Round|Shape=RoundedRectangle|*
%AMROUNDEDRECTD157*
21,1,0.8532,1.5525,0,0,270.0*
21,1,0.5525,1.8532,0,0,270.0*
1,1,0.3007,-0.7763,-0.2763*
1,1,0.3007,-0.7763,0.2763*
1,1,0.3007,0.7763,0.2763*
1,1,0.3007,0.7763,-0.2763*
%
%ADD157ROUNDEDRECTD157*%
%ADD158R,2.6532X2.7532*%
%ADD159R,5.9032X2.0032*%
%ADD160R,1.7532X0.8032*%
%ADD161R,0.9032X1.1032*%
%ADD162R,1.4532X1.8532*%
%ADD163R,1.6032X1.5032*%
%ADD164R,2.1032X2.0032*%
G04:AMPARAMS|DCode=165|XSize=1.8032mm|YSize=1.6032mm|CornerRadius=0.4516mm|HoleSize=0mm|Usage=FLASHONLY|Rotation=180.000|XOffset=0mm|YOffset=0mm|HoleType=Round|Shape=RoundedRectangle|*
%AMROUNDEDRECTD165*
21,1,1.8032,0.7000,0,0,180.0*
21,1,0.9000,1.6032,0,0,180.0*
1,1,0.9032,-0.4500,0.3500*
1,1,0.9032,0.4500,0.3500*
1,1,0.9032,0.4500,-0.3500*
1,1,0.9032,-0.4500,-0.3500*
%
%ADD165ROUNDEDRECTD165*%
%ADD166O,0.6032X1.5532*%
%ADD167R,1.2827X0.5532*%
%ADD168R,1.0032X1.1032*%
%ADD169R,0.6532X1.2532*%
%ADD170C,3.2512*%
D31*
X0Y0D02*
X600000D01*
X0D02*
Y600000D01*
X600000Y0D02*
Y600000D01*
X0D02*
X600000D01*
X1273049Y484950D02*
Y600000D01*
X673049D02*
X1273049D01*
Y401700D02*
Y484950D01*
X1057499Y50D02*
Y236700D01*
X786299Y50D02*
X1057499D01*
Y236700D02*
X1273049D01*
X673049Y0D02*
X786049D01*
X673049Y461750D02*
X673049Y0D01*
X1273049Y236700D02*
Y401700D01*
X673049Y461750D02*
Y600000D01*
D49*
X-25Y0D02*
Y600050D01*
Y0D02*
X1273073D01*
X-25Y600050D02*
X1273073D01*
X1273073Y0D01*
D53*
X87122Y511048D02*
D03*
Y485648D02*
D03*
X112522Y511048D02*
D03*
Y485648D02*
D03*
X137922Y511048D02*
D03*
D54*
Y485648D02*
D03*
D66*
X720919Y555090D02*
D03*
D115*
X300736Y318852D02*
D03*
Y339852D02*
D03*
X281432Y318852D02*
D03*
Y339852D02*
D03*
X262128Y318852D02*
D03*
Y339852D02*
D03*
X988649Y127800D02*
D03*
Y148800D02*
D03*
X722499Y162400D02*
D03*
Y183400D02*
D03*
X722099Y123400D02*
D03*
Y102400D02*
D03*
X787249Y128800D02*
D03*
Y107800D02*
D03*
X806349Y128800D02*
D03*
Y107800D02*
D03*
X825349Y128800D02*
D03*
Y107800D02*
D03*
X799649Y47950D02*
D03*
Y26950D02*
D03*
X768999Y276300D02*
D03*
Y255300D02*
D03*
X804999Y266950D02*
D03*
Y245950D02*
D03*
X972699Y460700D02*
D03*
Y439700D02*
D03*
X904349Y447300D02*
D03*
Y468300D02*
D03*
D116*
X80010Y164136D02*
D03*
Y199136D02*
D03*
X520954Y385012D02*
D03*
Y350012D02*
D03*
Y315012D02*
D03*
Y280012D02*
D03*
X80036Y286968D02*
D03*
Y251968D02*
D03*
X80010Y444904D02*
D03*
Y409904D02*
D03*
Y374904D02*
D03*
Y339904D02*
D03*
D117*
X261672Y80010D02*
D03*
X296672D02*
D03*
X331672D02*
D03*
X427026Y80600D02*
D03*
X462026D02*
D03*
X497026D02*
D03*
X532026D02*
D03*
D118*
X221488Y423418D02*
D03*
X200488D02*
D03*
X286938Y406146D02*
D03*
X265938D02*
D03*
X226822Y300482D02*
D03*
X247822D02*
D03*
X287020Y383286D02*
D03*
X266020D02*
D03*
X287020Y364236D02*
D03*
X266020D02*
D03*
X131908Y410972D02*
D03*
X152908D02*
D03*
X131908Y388366D02*
D03*
X152908D02*
D03*
X131908Y368808D02*
D03*
X152908D02*
D03*
X131908Y347218D02*
D03*
X152908D02*
D03*
X189738Y300482D02*
D03*
X210738D02*
D03*
X815499Y319550D02*
D03*
X794499D02*
D03*
X832399Y305050D02*
D03*
X853399D02*
D03*
X853299Y285450D02*
D03*
X832299D02*
D03*
X758524Y299375D02*
D03*
X779524D02*
D03*
X1044349Y447800D02*
D03*
X1023349D02*
D03*
X1044449Y428650D02*
D03*
X1023449D02*
D03*
X1044249Y409500D02*
D03*
X1023249D02*
D03*
X1041499Y325450D02*
D03*
X1020499D02*
D03*
X1041499Y306400D02*
D03*
X1020499D02*
D03*
X1041349Y286000D02*
D03*
X1020349D02*
D03*
X1041449Y266950D02*
D03*
X1020449D02*
D03*
D131*
X155504Y144526D02*
D03*
X162504D02*
D03*
X955399Y114150D02*
D03*
X962399D02*
D03*
X731099Y206500D02*
D03*
X738099D02*
D03*
D139*
X157000Y26500D02*
D03*
Y69500D02*
D03*
D144*
X254000Y443230D02*
D03*
X228600D02*
D03*
X254000Y519430D02*
D03*
X228600D02*
D03*
D145*
X165862Y444246D02*
D03*
D146*
X191262D02*
D03*
D148*
X387698Y192024D02*
D03*
Y166624D02*
D03*
Y141224D02*
D03*
Y115824D02*
D03*
Y90424D02*
D03*
Y65024D02*
D03*
X570898Y192024D02*
D03*
Y166624D02*
D03*
Y141224D02*
D03*
Y115824D02*
D03*
Y90424D02*
D03*
Y65024D02*
D03*
D149*
X75894Y33010D02*
D03*
D150*
X45894Y80010D02*
D03*
X105894D02*
D03*
D151*
X185700Y546300D02*
D03*
X858749Y571700D02*
D03*
D152*
X211100Y546300D02*
D03*
X236500D02*
D03*
X261900D02*
D03*
X287300D02*
D03*
X312700D02*
D03*
X338100D02*
D03*
X363500D02*
D03*
X388900D02*
D03*
X414300D02*
D03*
X185700Y571700D02*
D03*
X211100D02*
D03*
X236500D02*
D03*
X261900D02*
D03*
X287300D02*
D03*
X312700D02*
D03*
X338100D02*
D03*
X363500D02*
D03*
X388900D02*
D03*
X414300D02*
D03*
X1087349Y546300D02*
D03*
X1061949D02*
D03*
X1036549D02*
D03*
X1011149D02*
D03*
X985749D02*
D03*
X960349D02*
D03*
X934949D02*
D03*
X909549D02*
D03*
X884149D02*
D03*
X858749D02*
D03*
X1087349Y571700D02*
D03*
X1061949D02*
D03*
X1036549D02*
D03*
X1011149D02*
D03*
X985749D02*
D03*
X960349D02*
D03*
X934949D02*
D03*
X909549D02*
D03*
X884149D02*
D03*
D153*
X825049Y17150D02*
D03*
X891049D02*
D03*
D154*
X695899Y162850D02*
D03*
Y142850D02*
D03*
Y122850D02*
D03*
D155*
Y182850D02*
D03*
Y102850D02*
D03*
D156*
X695519Y529690D02*
D03*
X746319D02*
D03*
Y580490D02*
D03*
X695519D02*
D03*
D157*
X239324Y402336D02*
D03*
Y389636D02*
D03*
Y376936D02*
D03*
Y364236D02*
D03*
Y351536D02*
D03*
Y338836D02*
D03*
Y326136D02*
D03*
X182824Y402336D02*
D03*
Y389636D02*
D03*
Y376936D02*
D03*
Y364236D02*
D03*
Y351536D02*
D03*
Y338836D02*
D03*
Y326136D02*
D03*
D158*
X246500Y259750D02*
D03*
Y199250D02*
D03*
X207000Y18750D02*
D03*
Y79250D02*
D03*
X827449Y406250D02*
D03*
Y345750D02*
D03*
X1128899Y348950D02*
D03*
Y409450D02*
D03*
X775399Y406150D02*
D03*
Y345650D02*
D03*
X861399Y90050D02*
D03*
Y150550D02*
D03*
X913399Y90350D02*
D03*
Y150850D02*
D03*
D159*
X169000Y171000D02*
D03*
Y217000D02*
D03*
D160*
X186000Y112450D02*
D03*
Y125150D02*
D03*
Y137850D02*
D03*
Y150550D02*
D03*
X240000D02*
D03*
Y137850D02*
D03*
Y125150D02*
D03*
Y112450D02*
D03*
D161*
X144500Y118000D02*
D03*
X157500D02*
D03*
X151000Y99000D02*
D03*
D162*
X119750Y117000D02*
D03*
X85250D02*
D03*
D163*
X956049Y130950D02*
D03*
Y146950D02*
D03*
D164*
X846049Y17150D02*
D03*
X870049D02*
D03*
D165*
X826049Y41650D02*
D03*
X890049D02*
D03*
D166*
X858049Y43900D02*
D03*
X864549D02*
D03*
X871049D02*
D03*
X845049D02*
D03*
X851549D02*
D03*
D167*
X815199Y147550D02*
D03*
Y160550D02*
D03*
X790942D02*
D03*
Y154050D02*
D03*
Y147550D02*
D03*
D168*
X805199Y282350D02*
D03*
X814699Y302350D02*
D03*
X795699D02*
D03*
D169*
X962199Y361200D02*
D03*
X955699D02*
D03*
X949199D02*
D03*
X942699D02*
D03*
X936199D02*
D03*
X929699D02*
D03*
X923199D02*
D03*
X916699D02*
D03*
X910199D02*
D03*
X903699D02*
D03*
X962199Y416700D02*
D03*
X955699D02*
D03*
X949199D02*
D03*
X942699D02*
D03*
X936199D02*
D03*
X929699D02*
D03*
X923199D02*
D03*
X916699D02*
D03*
X910199D02*
D03*
X903699D02*
D03*
D170*
X30226Y569722D02*
D03*
X569722D02*
D03*
M02*
