G04*
G04 #@! TF.GenerationSoftware,Altium Limited,Altium Designer,21.2.2 (38)*
G04*
G04 Layer_Color=8388736*
%FSLAX44Y44*%
%MOMM*%
G71*
G04*
G04 #@! TF.SameCoordinates,1FAA2A19-5D32-44EB-9D88-0ED73DB0A834*
G04*
G04*
G04 #@! TF.FilePolarity,Positive*
G04*
G01*
G75*
%ADD30C,0.2540*%
%ADD31C,0.2000*%
%ADD49C,0.1930*%
%ADD100C,0.5080*%
%ADD101C,0.4000*%
%ADD105C,0.1270*%
%ADD111C,0.1000*%
%ADD180C,0.2032*%
%ADD181C,0.0762*%
%ADD182R,1.0160X1.0160*%
%ADD183R,4.6000X1.0222*%
%ADD184R,3.6000X0.6147*%
%ADD185R,4.6000X1.0222*%
%ADD186R,4.6000X1.0222*%
%ADD187R,4.6000X1.0222*%
D30*
X186082Y112400D02*
G03*
X186082Y112400I-2482J0D01*
G01*
X-29490Y139674D02*
X97510D01*
Y222286D01*
X-29490Y139674D02*
Y222286D01*
X97510D01*
X630454Y255550D02*
Y409474D01*
X503454Y255550D02*
X630454D01*
X503454D02*
Y409474D01*
X630454D01*
X237472Y-29490D02*
Y97510D01*
Y-29490D02*
X356134D01*
X237472Y97510D02*
X356134D01*
Y-29490D02*
Y97510D01*
X556488Y-28900D02*
Y98100D01*
X402564D02*
X556488D01*
X402564Y-28900D02*
Y98100D01*
Y-28900D02*
X556488D01*
X-29464Y310118D02*
X97536D01*
X-29464Y227506D02*
Y310118D01*
X97536Y227506D02*
Y310118D01*
X-29464Y227506D02*
X97536D01*
X-29490Y315442D02*
X97510D01*
Y469366D01*
X-29490D02*
X97510D01*
X-29490Y315442D02*
Y469366D01*
X503500Y409462D02*
X630500D01*
X503500Y255538D02*
Y409462D01*
Y255538D02*
X630500D01*
Y409462D01*
X237300Y-29500D02*
Y97500D01*
Y-29500D02*
X355962D01*
X237300Y97500D02*
X355962D01*
Y-29500D02*
Y97500D01*
X-29500Y222150D02*
X97500D01*
X-29500Y139538D02*
Y222150D01*
X97500Y139538D02*
Y222150D01*
X-29500Y139538D02*
X97500D01*
X-29500Y310150D02*
X97500D01*
X-29500Y227538D02*
Y310150D01*
X97500Y227538D02*
Y310150D01*
X-29500Y227538D02*
X97500D01*
X-29500Y315538D02*
Y469462D01*
X97500D01*
Y315538D02*
Y469462D01*
X-29500Y315538D02*
X97500D01*
X788357Y140080D02*
G03*
X788357Y140080I-1796J0D01*
G01*
X962462Y375750D02*
G03*
X962462Y375750I-2413J0D01*
G01*
D31*
X266700Y487680D02*
G03*
X266700Y474980I0J-6350D01*
G01*
X228488Y414918D02*
Y431918D01*
X193488Y414918D02*
X228488D01*
X193488D02*
Y431918D01*
X228488D01*
X293938Y397646D02*
Y414646D01*
X258938Y397646D02*
X293938D01*
X258938D02*
Y414646D01*
X293938D01*
X266700Y461580D02*
Y474980D01*
Y487680D02*
Y501080D01*
X215900D02*
X266700D01*
X215900Y461580D02*
Y501080D01*
Y461580D02*
X266700D01*
X219822Y291982D02*
Y308982D01*
X254822D01*
Y291982D02*
Y308982D01*
X219822Y291982D02*
X254822D01*
X259020Y374786D02*
X294020D01*
Y391786D01*
X259020D02*
X294020D01*
X259020Y374786D02*
Y391786D01*
Y355736D02*
X294020D01*
Y372736D01*
X259020D02*
X294020D01*
X259020Y355736D02*
Y372736D01*
X292236Y311852D02*
Y346852D01*
Y311852D02*
X309236D01*
Y346852D01*
X292236D02*
X309236D01*
X272932Y311852D02*
Y346852D01*
Y311852D02*
X289932D01*
Y346852D01*
X272932D02*
X289932D01*
X253628Y311852D02*
Y346852D01*
Y311852D02*
X270628D01*
Y346852D01*
X253628D02*
X270628D01*
X124908Y419472D02*
X159908D01*
X124908Y402472D02*
Y419472D01*
Y402472D02*
X159908D01*
Y419472D01*
X124908Y396866D02*
X159908D01*
X124908Y379866D02*
Y396866D01*
Y379866D02*
X159908D01*
Y396866D01*
X124908Y377308D02*
X159908D01*
X124908Y360308D02*
Y377308D01*
Y360308D02*
X159908D01*
Y377308D01*
X124908Y355718D02*
X159908D01*
X124908Y338718D02*
Y355718D01*
Y338718D02*
X159908D01*
Y355718D01*
X182738Y308982D02*
X217738D01*
X182738Y291982D02*
Y308982D01*
Y291982D02*
X217738D01*
Y308982D01*
X965449Y390575D02*
G03*
X965449Y387325I0J-1625D01*
G01*
X997149Y120800D02*
Y155800D01*
X980149D02*
X997149D01*
X980149Y120800D02*
Y155800D01*
Y120800D02*
X997149D01*
X713999Y155400D02*
X730999D01*
X713999D02*
Y190400D01*
X730999D01*
Y155400D02*
Y190400D01*
X730599Y95400D02*
Y130400D01*
X713599D02*
X730599D01*
X713599Y95400D02*
Y130400D01*
Y95400D02*
X730599D01*
X778749Y100800D02*
X795749D01*
X778749D02*
Y135800D01*
X795749D01*
Y100800D02*
Y135800D01*
X797849Y100800D02*
X814849D01*
X797849D02*
Y135800D01*
X814849D01*
Y100800D02*
Y135800D01*
X816849Y100800D02*
X833849D01*
X816849D02*
Y135800D01*
X833849D01*
Y100800D02*
Y135800D01*
X808149Y19950D02*
Y54950D01*
X791149D02*
X808149D01*
X791149Y19950D02*
Y54950D01*
Y19950D02*
X808149D01*
X787499Y311050D02*
X822499D01*
Y328050D01*
X787499D02*
X822499D01*
X787499Y311050D02*
Y328050D01*
X825399Y296550D02*
X860399D01*
Y313550D01*
X825399D02*
X860399D01*
X825399Y296550D02*
Y313550D01*
X825299Y276950D02*
X860299D01*
Y293950D01*
X825299D02*
X860299D01*
X825299Y276950D02*
Y293950D01*
X751524Y307875D02*
X786524D01*
X751524Y290875D02*
Y307875D01*
Y290875D02*
X786524D01*
Y307875D01*
X760499Y248300D02*
Y283300D01*
Y248300D02*
X777499D01*
Y283300D01*
X760499D02*
X777499D01*
X813499Y238950D02*
Y273950D01*
X796499D02*
X813499D01*
X796499Y238950D02*
Y273950D01*
Y238950D02*
X813499D01*
X1016349Y439300D02*
X1051349D01*
Y456300D01*
X1016349D02*
X1051349D01*
X1016349Y439300D02*
Y456300D01*
X1016449Y420150D02*
X1051449D01*
Y437150D01*
X1016449D02*
X1051449D01*
X1016449Y420150D02*
Y437150D01*
X1016249Y401000D02*
X1051249D01*
Y418000D01*
X1016249D02*
X1051249D01*
X1016249Y401000D02*
Y418000D01*
X1048499Y316950D02*
Y333950D01*
X1013499Y316950D02*
X1048499D01*
X1013499D02*
Y333950D01*
X1048499D01*
Y297900D02*
Y314900D01*
X1013499Y297900D02*
X1048499D01*
X1013499D02*
Y314900D01*
X1048499D01*
X1048349Y277500D02*
Y294500D01*
X1013349Y277500D02*
X1048349D01*
X1013349D02*
Y294500D01*
X1048349D01*
X1048449Y258450D02*
Y275450D01*
X1013449Y258450D02*
X1048449D01*
X1013449D02*
Y275450D01*
X1048449D01*
X900449Y370250D02*
X965449D01*
X900449D02*
Y407600D01*
X965449Y370250D02*
Y387325D01*
X900449Y407600D02*
X965449D01*
Y390575D02*
Y407600D01*
X964199Y432700D02*
Y467700D01*
Y432700D02*
X981199D01*
Y467700D01*
X964199D02*
X981199D01*
X895849Y440300D02*
Y475300D01*
Y440300D02*
X912849D01*
Y475300D01*
X895849D02*
X912849D01*
X0Y0D02*
X600000D01*
X0D02*
Y600000D01*
X600000Y0D02*
Y600000D01*
X0D02*
X600000D01*
X1273049Y484950D02*
Y600000D01*
X673049D02*
X1273049D01*
Y401700D02*
Y484950D01*
X1057499Y50D02*
Y236700D01*
X786299Y50D02*
X1057499D01*
Y236700D02*
X1273049D01*
X673049Y0D02*
X786049D01*
X673049Y461750D02*
X673049Y0D01*
X1273049Y236700D02*
Y401700D01*
X673049Y461750D02*
Y600000D01*
D49*
X-25Y0D02*
Y600050D01*
Y0D02*
X1273073D01*
X-25Y600050D02*
X1273073D01*
X1273073Y0D01*
D100*
X83820Y164136D02*
G03*
X83820Y164136I-3810J0D01*
G01*
X527584Y385852D02*
G03*
X527584Y385852I-3810J0D01*
G01*
X335482Y80010D02*
G03*
X335482Y80010I-3810J0D01*
G01*
X536676Y77780D02*
G03*
X536676Y77780I-3810J0D01*
G01*
X83846Y251968D02*
G03*
X83846Y251968I-3810J0D01*
G01*
X81000Y339064D02*
G03*
X81000Y339064I-3810J0D01*
G01*
X527630Y385840D02*
G03*
X527630Y385840I-3810J0D01*
G01*
X335310Y80000D02*
G03*
X335310Y80000I-3810J0D01*
G01*
X83810Y164000D02*
G03*
X83810Y164000I-3810J0D01*
G01*
Y252000D02*
G03*
X83810Y252000I-3810J0D01*
G01*
X80990Y339160D02*
G03*
X80990Y339160I-3810J0D01*
G01*
D101*
X685359Y590650D02*
X756479D01*
X685359Y519530D02*
Y590650D01*
Y519530D02*
X756479D01*
Y590650D01*
X604079Y578077D02*
X685359D01*
X604079Y532103D02*
Y578077D01*
Y532103D02*
X685359D01*
Y578077D01*
D105*
X150622Y472948D02*
Y523748D01*
X74422D02*
X150622D01*
X74422Y472948D02*
Y523748D01*
Y472948D02*
X150622D01*
D111*
X205074Y329236D02*
G03*
X205074Y329236I-5000J0D01*
G01*
X162954Y139801D02*
Y149176D01*
X166254Y139776D02*
Y149226D01*
X151804D02*
X166254D01*
X151804Y139776D02*
X166254D01*
X151804D02*
Y149226D01*
X191074Y407986D02*
X231074D01*
X191074Y320486D02*
X231074D01*
Y407986D01*
X191074Y320486D02*
Y407986D01*
X223500Y191500D02*
Y267500D01*
X269500Y191500D02*
Y267500D01*
X223500D02*
X269500D01*
X223500Y191500D02*
X269500D01*
X139000Y164000D02*
Y224000D01*
Y164000D02*
X199000D01*
Y224000D01*
X139000D02*
X199000D01*
X140000Y115250D02*
X162000D01*
X140000Y101750D02*
X162000D01*
X140000D02*
Y115250D01*
X162000Y101750D02*
Y115250D01*
X139000Y25150D02*
X175000D01*
X139000Y70850D02*
X175000D01*
Y25150D02*
Y70850D01*
X139000Y25150D02*
Y70850D01*
X230000Y11000D02*
Y87000D01*
X184000Y11000D02*
Y87000D01*
Y11000D02*
X230000D01*
X184000Y87000D02*
X230000D01*
X87000Y124750D02*
X118000D01*
X87000Y109250D02*
X118000D01*
Y124750D01*
X87000Y109250D02*
Y124750D01*
X806119Y143001D02*
G03*
X800023Y143001I-3048J0D01*
G01*
X804449Y414000D02*
X850449D01*
X804449Y338000D02*
X850449D01*
X804449D02*
Y414000D01*
X850449Y338000D02*
Y414000D01*
X1151899Y341200D02*
Y417200D01*
X1105899Y341200D02*
Y417200D01*
Y341200D02*
X1151899D01*
X1105899Y417200D02*
X1151899D01*
X966099Y109450D02*
Y118900D01*
X951649D02*
X966099D01*
X951649Y109450D02*
X966099D01*
X951649D02*
Y118900D01*
X954949Y109500D02*
Y118875D01*
X738549Y201775D02*
Y211150D01*
X741849Y201750D02*
Y211200D01*
X727399D02*
X741849D01*
X727399Y201750D02*
X741849D01*
X727399D02*
Y211200D01*
X752399Y413900D02*
X798399D01*
X752399Y337900D02*
X798399D01*
X752399D02*
Y413900D01*
X798399Y337900D02*
Y413900D01*
X1028849Y584400D02*
X1044249D01*
X851049D02*
X866449D01*
X1095049D02*
X1100049Y579400D01*
X866449Y533600D02*
X871449Y538600D01*
X942649Y584400D02*
X947649Y579400D01*
X896849D02*
X901849Y584400D01*
X871449Y579400D02*
X876449Y584400D01*
X901849D02*
X917249D01*
X1069649D02*
X1074649Y579400D01*
X1023849D02*
X1028849Y584400D01*
X947649Y538600D02*
X952649Y533600D01*
X927249D02*
X942649D01*
X876449Y584400D02*
X891849D01*
X1003449Y533600D02*
X1018849D01*
X973049Y538600D02*
X978049Y533600D01*
X998449Y538600D02*
X1003449Y533600D01*
X1044249D02*
X1049249Y538600D01*
X891849Y584400D02*
X896849Y579400D01*
X922249Y538600D02*
X927249Y533600D01*
X891849D02*
X896849Y538600D01*
X917249Y533600D02*
X922249Y538600D01*
X1023849D02*
X1028849Y533600D01*
X1079649Y584400D02*
X1095049D01*
X978049D02*
X993449D01*
X952649D02*
X968049D01*
X901849Y533600D02*
X917249D01*
X973049Y579400D02*
X978049Y584400D01*
X876449Y533600D02*
X891849D01*
X968049Y584400D02*
X973049Y579400D01*
X1079649Y533600D02*
X1095049D01*
X922249Y579400D02*
X927249Y584400D01*
X1054249Y533600D02*
X1069649D01*
X993449Y584400D02*
X998449Y579400D01*
X1028849Y533600D02*
X1044249D01*
X927249Y584400D02*
X942649D01*
X917249D02*
X922249Y579400D01*
X1049249D02*
X1054249Y584400D01*
X1100049Y538600D02*
Y579400D01*
X942649Y533600D02*
X947649Y538600D01*
X1074649D02*
X1079649Y533600D01*
X998449Y579400D02*
X1003449Y584400D01*
X1074649Y579400D02*
X1079649Y584400D01*
X968049Y533600D02*
X973049Y538600D01*
X1095049Y533600D02*
X1100049Y538600D01*
X1018849Y584400D02*
X1023849Y579400D01*
X1018849Y533600D02*
X1023849Y538600D01*
X993449Y533600D02*
X998449Y538600D01*
X866449Y584400D02*
X871449Y579400D01*
X1044249Y584400D02*
X1049249Y579400D01*
X1054249Y584400D02*
X1069649D01*
X896849Y538600D02*
X901849Y533600D01*
X846049Y579400D02*
X851049Y584400D01*
X846049Y538600D02*
X851049Y533600D01*
X1069649D02*
X1074649Y538600D01*
X978049Y533600D02*
X993449D01*
X952649D02*
X968049D01*
X1049249Y538600D02*
X1054249Y533600D01*
X851049D02*
X866449D01*
X846049Y538600D02*
Y579400D01*
X871449Y538600D02*
X876449Y533600D01*
X1003449Y584400D02*
X1018849D01*
X947649Y579400D02*
X952649Y584400D01*
X884399Y82300D02*
Y158300D01*
X838399Y82300D02*
Y158300D01*
Y82300D02*
X884399D01*
X838399Y158300D02*
X884399D01*
X936399Y82600D02*
Y158600D01*
X890399Y82600D02*
Y158600D01*
Y82600D02*
X936399D01*
X890399Y158600D02*
X936399D01*
X963049Y127950D02*
Y149950D01*
X949049Y127950D02*
Y149950D01*
Y127950D02*
X963049D01*
X949049Y149950D02*
X963049D01*
X796340Y143001D02*
Y165099D01*
Y143001D02*
X809802D01*
Y165099D01*
X796340D02*
X809802D01*
Y146026D02*
X815009D01*
Y149074D01*
X809802D02*
X815009D01*
X809802Y146026D02*
Y149074D01*
Y159026D02*
X815009D01*
Y162074D01*
X809802D02*
X815009D01*
X809802Y159026D02*
Y162074D01*
X791133D02*
X796340D01*
X791133Y159026D02*
Y162074D01*
Y159026D02*
X796340D01*
Y162074D01*
X791133Y155574D02*
X796340D01*
X791133Y152526D02*
Y155574D01*
Y152526D02*
X796340D01*
Y155574D01*
X791133Y149074D02*
X796340D01*
X791133Y146026D02*
Y149074D01*
Y146026D02*
X796340D01*
Y149074D01*
X790199Y285350D02*
Y299350D01*
X820199D01*
X790199Y285350D02*
X820199D01*
Y299350D01*
D180*
X216048Y106750D02*
G03*
X209952Y106750I-3048J0D01*
G01*
X193250Y156250D02*
X232750D01*
Y106750D02*
Y156250D01*
X193250Y106750D02*
X232750D01*
X193250D02*
Y156250D01*
D181*
X74422Y472948D02*
X150622D01*
X74422D02*
Y523748D01*
X150622D01*
Y472948D02*
Y523748D01*
D182*
X137923Y485648D02*
D03*
D183*
X246500Y196611D02*
D03*
D184*
X156999Y67777D02*
D03*
D185*
X207000Y81889D02*
D03*
X827449Y408889D02*
D03*
X913399Y153489D02*
D03*
D186*
X1128899Y412089D02*
D03*
X861399Y153189D02*
D03*
D187*
X775399Y408789D02*
D03*
M02*
