G04*
G04 #@! TF.GenerationSoftware,Altium Limited,Altium Designer,21.2.2 (38)*
G04*
G04 Layer_Color=32768*
%FSLAX44Y44*%
%MOMM*%
G71*
G04*
G04 #@! TF.SameCoordinates,1FAA2A19-5D32-44EB-9D88-0ED73DB0A834*
G04*
G04*
G04 #@! TF.FilePolarity,Negative*
G04*
G01*
G75*
%ADD31C,0.2000*%
%ADD66C,2.0320*%
%ADD67C,1.0160*%
%ADD68C,1.8160*%
G04:AMPARAMS|DCode=69|XSize=2.54mm|YSize=2.54mm|CornerRadius=0mm|HoleSize=0mm|Usage=FLASHONLY|Rotation=0.000|XOffset=0mm|YOffset=0mm|HoleType=Round|Shape=Relief|Width=0.254mm|Gap=0.254mm|Entries=4|*
%AMTHD69*
7,0,0,2.5400,2.0320,0.2540,45*
%
%ADD69THD69*%
G04:AMPARAMS|DCode=70|XSize=4.699mm|YSize=4.699mm|CornerRadius=0mm|HoleSize=0mm|Usage=FLASHONLY|Rotation=0.000|XOffset=0mm|YOffset=0mm|HoleType=Round|Shape=Relief|Width=0.254mm|Gap=0.254mm|Entries=4|*
%AMTHD70*
7,0,0,4.6990,4.1910,0.2540,45*
%
%ADD70THD70*%
%ADD71C,1.9160*%
G04:AMPARAMS|DCode=72|XSize=2.424mm|YSize=2.424mm|CornerRadius=0mm|HoleSize=0mm|Usage=FLASHONLY|Rotation=0.000|XOffset=0mm|YOffset=0mm|HoleType=Round|Shape=Relief|Width=0.254mm|Gap=0.254mm|Entries=4|*
%AMTHD72*
7,0,0,2.4240,1.9160,0.2540,45*
%
%ADD72THD72*%
%AMTHOVALD73*
21,1,0.6000,2.5240,0,0,180.0*
1,1,2.5240,0.3000,0.0000*
1,1,2.5240,-0.3000,0.0000*
21,0,0.6000,2.0160,0,0,180.0*
1,0,2.0160,0.3000,0.0000*
1,0,2.0160,-0.3000,0.0000*
4,0,4,0.2102,0.0898,1.1026,0.9822,1.2822,0.8026,0.3898,-0.0898,0.2102,0.0898,0.0*
4,0,4,-0.3898,0.0898,-1.2822,-0.8026,-1.1026,-0.9822,-0.2102,-0.0898,-0.3898,0.0898,0.0*
4,0,4,0.3898,0.0898,1.2822,-0.8026,1.1026,-0.9822,0.2102,-0.0898,0.3898,0.0898,0.0*
4,0,4,-0.2102,0.0898,-1.1026,0.9822,-1.2822,0.8026,-0.3898,-0.0898,-0.2102,0.0898,0.0*
%
%ADD73THOVALD73*%

%AMTHOVALD74*
21,1,0.6000,2.5240,0,0,90.0*
1,1,2.5240,0.0000,-0.3000*
1,1,2.5240,0.0000,0.3000*
21,0,0.6000,2.0160,0,0,90.0*
1,0,2.0160,0.0000,-0.3000*
1,0,2.0160,0.0000,0.3000*
4,0,4,0.0898,-0.2102,0.9822,-1.1026,0.8026,-1.2822,-0.0898,-0.3898,0.0898,-0.2102,0.0*
4,0,4,0.0898,0.3898,-0.8026,1.2822,-0.9822,1.1026,-0.0898,0.2102,0.0898,0.3898,0.0*
4,0,4,0.0898,-0.3898,-0.8026,-1.2822,-0.9822,-1.1026,-0.0898,-0.2102,0.0898,-0.3898,0.0*
4,0,4,0.0898,0.2102,0.9822,1.1026,0.8026,1.2822,-0.0898,0.3898,0.0898,0.2102,0.0*
%
%ADD74THOVALD74*%

%ADD75O,2.0160X2.6160*%
%ADD76C,1.3160*%
%AMTHOVALD77*
21,1,0.7000,2.0240,0,0,90.0*
1,1,2.0240,0.0000,-0.3500*
1,1,2.0240,0.0000,0.3500*
21,0,0.7000,1.5160,0,0,90.0*
1,0,1.5160,0.0000,-0.3500*
1,0,1.5160,0.0000,0.3500*
4,0,4,0.0898,-0.2602,0.8054,-0.9758,0.6258,-1.1554,-0.0898,-0.4398,0.0898,-0.2602,0.0*
4,0,4,0.0898,0.4398,-0.6258,1.1554,-0.8054,0.9758,-0.0898,0.2602,0.0898,0.4398,0.0*
4,0,4,0.0898,-0.4398,-0.6258,-1.1554,-0.8054,-0.9758,-0.0898,-0.2602,0.0898,-0.4398,0.0*
4,0,4,0.0898,0.2602,0.8054,0.9758,0.6258,1.1554,-0.0898,0.4398,0.0898,0.2602,0.0*
%
%ADD77THOVALD77*%

%ADD78C,1.8288*%
%ADD79C,2.0066*%
G04:AMPARAMS|DCode=80|XSize=3.302mm|YSize=3.302mm|CornerRadius=0mm|HoleSize=0mm|Usage=FLASHONLY|Rotation=0.000|XOffset=0mm|YOffset=0mm|HoleType=Round|Shape=Relief|Width=0.254mm|Gap=0.254mm|Entries=4|*
%AMTHD80*
7,0,0,3.3020,2.7940,0.2540,45*
%
%ADD80THD80*%
%ADD81C,2.5400*%
D31*
X0Y0D02*
X600000D01*
X0D02*
Y600000D01*
X600000Y0D02*
Y600000D01*
X0D02*
X600000D01*
X1273049Y484950D02*
Y600000D01*
X673049D02*
X1273049D01*
Y401700D02*
Y484950D01*
X1057499Y50D02*
Y236700D01*
X786299Y50D02*
X1057499D01*
Y236700D02*
X1273049D01*
X673049Y0D02*
X786049D01*
X673049Y461750D02*
X673049Y0D01*
X1273049Y236700D02*
Y401700D01*
X673049Y461750D02*
Y600000D01*
D66*
X165862Y444246D02*
D03*
X191262D02*
D03*
X87122Y485648D02*
D03*
X112522Y511048D02*
D03*
Y485648D02*
D03*
X137922D02*
D03*
X185700Y546300D02*
D03*
X211100D02*
D03*
X236500D02*
D03*
X261900D02*
D03*
X287300D02*
D03*
X312700D02*
D03*
X338100D02*
D03*
X363500D02*
D03*
X388900D02*
D03*
X414300D02*
D03*
X185700Y571700D02*
D03*
X211100D02*
D03*
X236500D02*
D03*
X261900D02*
D03*
X287300D02*
D03*
X1087349Y546300D02*
D03*
X1061949D02*
D03*
X1036549D02*
D03*
X1011149D02*
D03*
X985749D02*
D03*
X960349D02*
D03*
X934949D02*
D03*
X909549D02*
D03*
X884149D02*
D03*
X858749D02*
D03*
X960349Y571700D02*
D03*
X934949D02*
D03*
X909549D02*
D03*
X884149D02*
D03*
X858749D02*
D03*
D67*
X0Y0D02*
X600000D01*
Y600000D01*
X0D02*
X600000D01*
X0Y0D02*
Y600000D01*
X786299Y50D02*
X1057499D01*
Y236700D01*
X1273049D01*
Y600000D01*
X673049Y0D02*
X786049D01*
X786299Y50D01*
X673049Y600000D02*
X1273049D01*
X673049Y461750D02*
Y600000D01*
Y461750D02*
X673049Y0D01*
D68*
X254000Y443230D02*
D03*
X228600D02*
D03*
X254000Y519430D02*
D03*
X228600D02*
D03*
D69*
X87122Y511048D02*
D03*
X137922D02*
D03*
X312700Y571700D02*
D03*
X338100D02*
D03*
X363500D02*
D03*
X388900D02*
D03*
X414300D02*
D03*
X1087349Y571700D02*
D03*
X1061949D02*
D03*
X1036549D02*
D03*
X1011149D02*
D03*
X985749D02*
D03*
D70*
X30226Y569722D02*
D03*
X569722D02*
D03*
D71*
X377698Y192024D02*
D03*
Y166624D02*
D03*
Y141224D02*
D03*
Y115824D02*
D03*
Y90424D02*
D03*
X580898Y192024D02*
D03*
Y166624D02*
D03*
Y141224D02*
D03*
Y115824D02*
D03*
D72*
X377698Y65024D02*
D03*
X580898Y90424D02*
D03*
Y65024D02*
D03*
D73*
X75894Y33010D02*
D03*
D74*
X45894Y80010D02*
D03*
D75*
X105894D02*
D03*
D76*
X118618Y167894D02*
D03*
X171704Y314198D02*
D03*
X303530Y356866D02*
D03*
X240030Y415290D02*
D03*
X102362Y117094D02*
D03*
X140911Y368949D02*
D03*
X159001Y427245D02*
D03*
X117094Y445385D02*
D03*
X79756Y354838D02*
D03*
X117094Y409448D02*
D03*
X203734Y128624D02*
D03*
X214108Y260618D02*
D03*
X425704Y44958D02*
D03*
X510032Y171196D02*
D03*
X462788Y483870D02*
D03*
X540004Y398272D02*
D03*
X425450Y21590D02*
D03*
X251460Y361442D02*
D03*
X305562Y378460D02*
D03*
X299466Y393192D02*
D03*
X584200Y331470D02*
D03*
X467106Y547624D02*
D03*
X109728Y38608D02*
D03*
X132334Y66548D02*
D03*
X232156Y218694D02*
D03*
X443317Y347070D02*
D03*
X22606Y19050D02*
D03*
X172212Y69342D02*
D03*
X400304Y244602D02*
D03*
X377444Y231902D02*
D03*
X378460Y253492D02*
D03*
X308610Y208026D02*
D03*
X296926Y184150D02*
D03*
X272796D02*
D03*
X288036Y208026D02*
D03*
X400812Y258572D02*
D03*
X385572Y221996D02*
D03*
X275590Y241808D02*
D03*
X288077Y241767D02*
D03*
X300722Y241568D02*
D03*
X226836Y260618D02*
D03*
X204000Y216154D02*
D03*
X437896Y541020D02*
D03*
X297688Y484632D02*
D03*
X451000Y461500D02*
D03*
X443484Y487172D02*
D03*
X332538Y308974D02*
D03*
X341538Y316992D02*
D03*
X354584Y486918D02*
D03*
X430643Y487059D02*
D03*
X455930Y517034D02*
D03*
X441198Y552196D02*
D03*
X339090Y203454D02*
D03*
X313436Y241554D02*
D03*
X450850Y372618D02*
D03*
X144272Y245618D02*
D03*
Y271780D02*
D03*
X143764Y297180D02*
D03*
X113284Y323088D02*
D03*
X330454Y362458D02*
D03*
X339598Y351790D02*
D03*
X321056Y373126D02*
D03*
X400304Y485140D02*
D03*
X390398Y482346D02*
D03*
X398144Y475362D02*
D03*
X421386Y374904D02*
D03*
X522224Y140462D02*
D03*
X117856Y258318D02*
D03*
X775399Y383450D02*
D03*
X962219Y587570D02*
D03*
X942929Y587410D02*
D03*
X921519D02*
D03*
X847579Y587240D02*
D03*
X871739Y586760D02*
D03*
X896229Y586590D02*
D03*
X1160650Y466001D02*
D03*
X1038250Y480401D02*
D03*
X1178650Y415601D02*
D03*
X1175050Y408401D02*
D03*
X1167850Y451601D02*
D03*
Y437201D02*
D03*
Y422801D02*
D03*
X1164250Y415601D02*
D03*
Y401201D02*
D03*
X1146250Y466001D02*
D03*
X1149850Y401201D02*
D03*
X1074250Y480401D02*
D03*
X1052650D02*
D03*
X1016650D02*
D03*
X966250Y523601D02*
D03*
X951850D02*
D03*
X944650D02*
D03*
X930250D02*
D03*
X923050Y538001D02*
D03*
X851050Y523601D02*
D03*
X843850D02*
D03*
X1121050Y300401D02*
D03*
X1146250Y307601D02*
D03*
Y278801D02*
D03*
Y264401D02*
D03*
X1139050Y293201D02*
D03*
Y278801D02*
D03*
Y264401D02*
D03*
Y250001D02*
D03*
X1135450Y300401D02*
D03*
Y286001D02*
D03*
Y271601D02*
D03*
Y257201D02*
D03*
X1124650Y307601D02*
D03*
Y278801D02*
D03*
Y264401D02*
D03*
Y250001D02*
D03*
X1117450Y293201D02*
D03*
X1121050Y271601D02*
D03*
Y257201D02*
D03*
X1110250Y307601D02*
D03*
Y278801D02*
D03*
Y250001D02*
D03*
X1106650Y300401D02*
D03*
X683719Y19230D02*
D03*
X984299Y376870D02*
D03*
Y369870D02*
D03*
X1059208Y293379D02*
D03*
X1061829Y269300D02*
D03*
X825443Y128706D02*
D03*
X755599Y92100D02*
D03*
X827549Y141250D02*
D03*
X1040499Y117050D02*
D03*
X1051649Y175500D02*
D03*
X755249Y133200D02*
D03*
X1093899Y246550D02*
D03*
X724029Y19750D02*
D03*
X864449Y217800D02*
D03*
X985299Y398550D02*
D03*
X804349Y218050D02*
D03*
X696849Y348700D02*
D03*
X956249Y174800D02*
D03*
X844399Y218050D02*
D03*
X814749D02*
D03*
X695449Y236800D02*
D03*
X842099Y186350D02*
D03*
X834449Y218100D02*
D03*
X854399Y186280D02*
D03*
X764299Y219600D02*
D03*
X1105449Y410650D02*
D03*
X785517Y568790D02*
D03*
X803167Y568890D02*
D03*
X785999Y537450D02*
D03*
X1081249Y487700D02*
D03*
X1025799Y475500D02*
D03*
X1116649Y487850D02*
D03*
X1025799Y487950D02*
D03*
X1135399Y487600D02*
D03*
X1098299Y475400D02*
D03*
X1081249Y475250D02*
D03*
X1062899Y487930D02*
D03*
X1116649Y475400D02*
D03*
X1135399Y475150D02*
D03*
X1098299Y487850D02*
D03*
X1044149Y488010D02*
D03*
X1062929Y475490D02*
D03*
X769049Y265300D02*
D03*
X956499Y161650D02*
D03*
X934749Y157200D02*
D03*
X815349Y183450D02*
D03*
X830099Y174600D02*
D03*
X887578Y156926D02*
D03*
X850849Y174300D02*
D03*
X934249Y174650D02*
D03*
X917249Y174600D02*
D03*
X900499Y174450D02*
D03*
X883449D02*
D03*
X866899Y174300D02*
D03*
X955399Y100650D02*
D03*
X799699Y62150D02*
D03*
X722449Y173850D02*
D03*
X853399Y316600D02*
D03*
X1090598Y360150D02*
D03*
X1014249Y33700D02*
D03*
X871099Y33800D02*
D03*
X922999Y403600D02*
D03*
X799645Y15387D02*
D03*
X1032249Y447400D02*
D03*
X1032199Y409550D02*
D03*
X1032099Y428550D02*
D03*
X680849Y313000D02*
D03*
X679949Y348300D02*
D03*
X803649Y537550D02*
D03*
X820781Y537560D02*
D03*
X785999Y553250D02*
D03*
X803649Y553350D02*
D03*
X820781Y553360D02*
D03*
X820299Y568900D02*
D03*
X820163Y584420D02*
D03*
X803031Y584410D02*
D03*
X785381Y584310D02*
D03*
X923899Y442250D02*
D03*
X1024299Y528650D02*
D03*
X917899Y430700D02*
D03*
X681349Y81350D02*
D03*
D77*
X825049Y17150D02*
D03*
X891049D02*
D03*
D78*
X695899Y162850D02*
D03*
Y142850D02*
D03*
Y122850D02*
D03*
D79*
Y182850D02*
D03*
Y102850D02*
D03*
D80*
X695519Y529690D02*
D03*
X746319D02*
D03*
Y580490D02*
D03*
X695519D02*
D03*
D81*
X720919Y555090D02*
D03*
M02*
