G04*
G04 #@! TF.GenerationSoftware,Altium Limited,Altium Designer,21.2.2 (38)*
G04*
G04 Layer_Color=128*
%FSLAX44Y44*%
%MOMM*%
G71*
G04*
G04 #@! TF.SameCoordinates,1FAA2A19-5D32-44EB-9D88-0ED73DB0A834*
G04*
G04*
G04 #@! TF.FilePolarity,Negative*
G04*
G01*
G75*
%ADD31C,0.2000*%
%ADD66C,2.0320*%
%ADD67C,1.0160*%
%ADD68C,1.8160*%
G04:AMPARAMS|DCode=69|XSize=2.54mm|YSize=2.54mm|CornerRadius=0mm|HoleSize=0mm|Usage=FLASHONLY|Rotation=0.000|XOffset=0mm|YOffset=0mm|HoleType=Round|Shape=Relief|Width=0.254mm|Gap=0.254mm|Entries=4|*
%AMTHD69*
7,0,0,2.5400,2.0320,0.2540,45*
%
%ADD69THD69*%
%ADD71C,1.9160*%
G04:AMPARAMS|DCode=72|XSize=2.424mm|YSize=2.424mm|CornerRadius=0mm|HoleSize=0mm|Usage=FLASHONLY|Rotation=0.000|XOffset=0mm|YOffset=0mm|HoleType=Round|Shape=Relief|Width=0.254mm|Gap=0.254mm|Entries=4|*
%AMTHD72*
7,0,0,2.4240,1.9160,0.2540,45*
%
%ADD72THD72*%
%ADD75O,2.0160X2.6160*%
%ADD76C,1.3160*%
%ADD78C,1.8288*%
%ADD79C,2.0066*%
%ADD81C,2.5400*%
%ADD82C,1.0000*%
%ADD83C,4.1910*%
%ADD84O,2.6160X2.0160*%
%ADD85O,1.5160X2.2160*%
%ADD86C,2.7940*%
D31*
X0Y0D02*
X600000D01*
X0D02*
Y600000D01*
X600000Y0D02*
Y600000D01*
X0D02*
X600000D01*
X1273049Y484950D02*
Y600000D01*
X673049D02*
X1273049D01*
Y401700D02*
Y484950D01*
X1057499Y50D02*
Y236700D01*
X786299Y50D02*
X1057499D01*
Y236700D02*
X1273049D01*
X673049Y0D02*
X786049D01*
X673049Y461750D02*
X673049Y0D01*
X1273049Y236700D02*
Y401700D01*
X673049Y461750D02*
Y600000D01*
D66*
X191262Y444246D02*
D03*
X87122Y511048D02*
D03*
Y485648D02*
D03*
X112522D02*
D03*
X137922Y511048D02*
D03*
X185700Y546300D02*
D03*
X211100D02*
D03*
X236500D02*
D03*
X261900D02*
D03*
X287300D02*
D03*
X312700D02*
D03*
X338100D02*
D03*
X363500D02*
D03*
X388900D02*
D03*
X414300D02*
D03*
X312700Y571700D02*
D03*
X338100D02*
D03*
X363500D02*
D03*
X388900D02*
D03*
X414300D02*
D03*
X1087349Y546300D02*
D03*
X1061949D02*
D03*
X1036549D02*
D03*
X1011149D02*
D03*
X985749D02*
D03*
X960349D02*
D03*
X934949D02*
D03*
X909549D02*
D03*
X884149D02*
D03*
X858749D02*
D03*
X1087349Y571700D02*
D03*
X1061949D02*
D03*
X1036549D02*
D03*
X1011149D02*
D03*
X985749D02*
D03*
D67*
X0Y0D02*
X600000D01*
Y600000D01*
X0D02*
X600000D01*
X0Y0D02*
Y600000D01*
X786299Y50D02*
X1057499D01*
Y236700D01*
X1273049D01*
Y600000D01*
X673049Y0D02*
X786049D01*
X786299Y50D01*
X673049Y600000D02*
X1273049D01*
X673049Y461750D02*
Y600000D01*
Y461750D02*
X673049Y0D01*
D68*
X254000Y443230D02*
D03*
X228600D02*
D03*
X254000Y519430D02*
D03*
X228600D02*
D03*
D69*
X165862Y444246D02*
D03*
X112522Y511048D02*
D03*
X137922Y485648D02*
D03*
X185700Y571700D02*
D03*
X211100D02*
D03*
X236500D02*
D03*
X261900D02*
D03*
X287300D02*
D03*
X960349Y571700D02*
D03*
X934949D02*
D03*
X909549D02*
D03*
X884149D02*
D03*
X858749D02*
D03*
D71*
X377698Y192024D02*
D03*
Y166624D02*
D03*
Y141224D02*
D03*
Y65024D02*
D03*
X580898Y192024D02*
D03*
Y166624D02*
D03*
Y141224D02*
D03*
Y115824D02*
D03*
Y90424D02*
D03*
Y65024D02*
D03*
D72*
X377698Y115824D02*
D03*
Y90424D02*
D03*
D75*
X45894Y80010D02*
D03*
X105894D02*
D03*
D76*
X78740Y181356D02*
D03*
X118618Y167894D02*
D03*
X225296Y395492D02*
D03*
X272932Y329352D02*
D03*
X237501Y308500D02*
D03*
X171704Y314198D02*
D03*
X240030Y415290D02*
D03*
X119126Y377444D02*
D03*
X159001Y427245D02*
D03*
X117094Y445385D02*
D03*
Y409448D02*
D03*
X138802Y149736D02*
D03*
X214108Y260618D02*
D03*
X203734Y114300D02*
D03*
X157860Y129072D02*
D03*
X425704Y44958D02*
D03*
X510032Y171196D02*
D03*
X462788Y483870D02*
D03*
X520192Y398272D02*
D03*
X425450Y21590D02*
D03*
X299466Y393192D02*
D03*
X467106Y547624D02*
D03*
X109728Y38608D02*
D03*
X443317Y347070D02*
D03*
X249936Y242316D02*
D03*
X22606Y19050D02*
D03*
X73152Y7112D02*
D03*
X172212Y69342D02*
D03*
X377444Y231902D02*
D03*
X559308Y279908D02*
D03*
X385572Y221996D02*
D03*
X326136Y211836D02*
D03*
X266446Y211074D02*
D03*
X275590Y241808D02*
D03*
X288077Y241767D02*
D03*
X300722Y241568D02*
D03*
X226836Y260618D02*
D03*
X204000Y216154D02*
D03*
X282702Y502158D02*
D03*
X437896Y541020D02*
D03*
X297688Y484632D02*
D03*
X497586Y461010D02*
D03*
X451000Y461500D02*
D03*
X443484Y487172D02*
D03*
X346949Y436895D02*
D03*
X332538Y308974D02*
D03*
X341538Y316992D02*
D03*
X354584Y486918D02*
D03*
X430643Y487059D02*
D03*
X455930Y517034D02*
D03*
X441198Y552196D02*
D03*
X400812Y274320D02*
D03*
X274828Y114300D02*
D03*
X245872Y179578D02*
D03*
X339090Y203454D02*
D03*
X313436Y241554D02*
D03*
X135246Y86682D02*
D03*
X197998Y150622D02*
D03*
X560070Y314706D02*
D03*
X450850Y372618D02*
D03*
X80010Y391160D02*
D03*
Y268224D02*
D03*
X330454Y362458D02*
D03*
X339598Y351790D02*
D03*
X321056Y373126D02*
D03*
X120396Y217424D02*
D03*
X126492Y305054D02*
D03*
X326644Y117856D02*
D03*
X400304Y485140D02*
D03*
X390398Y482346D02*
D03*
X335788Y407162D02*
D03*
X398144Y475362D02*
D03*
X421386Y374904D02*
D03*
X171450Y364236D02*
D03*
X250190Y161500D02*
D03*
X446786Y80518D02*
D03*
X522224Y140462D02*
D03*
X230378Y7112D02*
D03*
X179070Y25654D02*
D03*
X166370Y6096D02*
D03*
X117856Y258318D02*
D03*
X1034890Y340612D02*
D03*
X1123399Y376700D02*
D03*
X775399Y383450D02*
D03*
X1016849Y207300D02*
D03*
X966250Y523601D02*
D03*
X951850D02*
D03*
X944650D02*
D03*
X930250D02*
D03*
X851050D02*
D03*
X843850D02*
D03*
X1146250Y307601D02*
D03*
Y278801D02*
D03*
Y264401D02*
D03*
X1139050Y293201D02*
D03*
Y278801D02*
D03*
Y264401D02*
D03*
Y250001D02*
D03*
X1135450Y300401D02*
D03*
Y286001D02*
D03*
Y271601D02*
D03*
Y257201D02*
D03*
X1124650Y278801D02*
D03*
Y264401D02*
D03*
Y250001D02*
D03*
X1121050Y271601D02*
D03*
Y257201D02*
D03*
X1110250Y278801D02*
D03*
Y250001D02*
D03*
X677269Y493490D02*
D03*
X682499Y448750D02*
D03*
X694229Y500560D02*
D03*
X686719Y515080D02*
D03*
X680329Y510150D02*
D03*
X677299Y502060D02*
D03*
X677289Y467330D02*
D03*
X677259Y485020D02*
D03*
X677279Y476370D02*
D03*
X692439Y481310D02*
D03*
Y491620D02*
D03*
X702999Y468920D02*
D03*
X692619Y470360D02*
D03*
X729539Y539250D02*
D03*
X728909Y514460D02*
D03*
X728769Y523210D02*
D03*
X728819Y531740D02*
D03*
X712919Y538860D02*
D03*
X713049Y531520D02*
D03*
X712789Y523270D02*
D03*
X707329Y516520D02*
D03*
X678349Y457900D02*
D03*
X724759Y505290D02*
D03*
X714839Y500860D02*
D03*
X704219Y500600D02*
D03*
X984299Y376870D02*
D03*
Y369870D02*
D03*
X1059208Y293379D02*
D03*
X1059699Y280450D02*
D03*
X1061829Y269300D02*
D03*
X1032649Y66500D02*
D03*
X825443Y128706D02*
D03*
X755599Y92100D02*
D03*
X827549Y141250D02*
D03*
X1040499Y117050D02*
D03*
X1051649Y175500D02*
D03*
X755249Y133200D02*
D03*
X1093899Y246550D02*
D03*
X724029Y19750D02*
D03*
X1235799Y496150D02*
D03*
X1213199Y473100D02*
D03*
X1203999Y496300D02*
D03*
X1247549Y473000D02*
D03*
X1187599Y496700D02*
D03*
X1251899Y496150D02*
D03*
X1220199Y496450D02*
D03*
X967049Y194450D02*
D03*
X682449Y260700D02*
D03*
X864449Y217800D02*
D03*
X985299Y398550D02*
D03*
X754149Y485000D02*
D03*
X794249Y184600D02*
D03*
X804349Y218050D02*
D03*
X999349Y247350D02*
D03*
X761949Y169900D02*
D03*
X682599Y432250D02*
D03*
X726999Y273100D02*
D03*
X696849Y348700D02*
D03*
X984299Y298650D02*
D03*
X984049Y348650D02*
D03*
X984899Y388550D02*
D03*
X956249Y174800D02*
D03*
X683199Y288750D02*
D03*
X1015410Y465061D02*
D03*
X844399Y218050D02*
D03*
X784249Y184650D02*
D03*
X682899Y278700D02*
D03*
X814749Y218050D02*
D03*
X695449Y236800D02*
D03*
X842099Y186350D02*
D03*
X834449Y218100D02*
D03*
X854399Y186280D02*
D03*
X764299Y219600D02*
D03*
X1234149Y281250D02*
D03*
X903649Y405400D02*
D03*
X745499Y398850D02*
D03*
X745249Y416950D02*
D03*
X782549Y276350D02*
D03*
X881499Y366450D02*
D03*
X785517Y568790D02*
D03*
X803167Y568890D02*
D03*
X785999Y537450D02*
D03*
X769049Y265300D02*
D03*
X857649Y336400D02*
D03*
X857749Y361550D02*
D03*
X801249Y359850D02*
D03*
X800949Y341600D02*
D03*
X776599Y142700D02*
D03*
X975649Y105200D02*
D03*
X975899Y90550D02*
D03*
X957549Y84950D02*
D03*
X939649Y90600D02*
D03*
X939999Y105450D02*
D03*
X887099Y105200D02*
D03*
X887499Y91350D02*
D03*
X981799Y458700D02*
D03*
X711399Y206600D02*
D03*
X1071299Y452500D02*
D03*
X956499Y161650D02*
D03*
X934749Y157200D02*
D03*
X815349Y183450D02*
D03*
X830099Y174600D02*
D03*
X887578Y156926D02*
D03*
X850849Y174300D02*
D03*
X934249Y174650D02*
D03*
X917249Y174600D02*
D03*
X900499Y174450D02*
D03*
X883449D02*
D03*
X866899Y174300D02*
D03*
X845099Y57700D02*
D03*
X806149Y93400D02*
D03*
X729149Y84450D02*
D03*
X799699Y62150D02*
D03*
X722449Y173850D02*
D03*
X853399Y316600D02*
D03*
X1105549Y450450D02*
D03*
X1139649Y451175D02*
D03*
X1151849Y417150D02*
D03*
X871099Y33800D02*
D03*
X927749Y468500D02*
D03*
X722149Y110550D02*
D03*
X1108499Y263900D02*
D03*
X922999Y403600D02*
D03*
X799645Y15387D02*
D03*
X1032249Y447400D02*
D03*
X1032199Y409550D02*
D03*
X1032099Y428550D02*
D03*
X680849Y313000D02*
D03*
X679949Y348300D02*
D03*
X803649Y537550D02*
D03*
X820781Y537560D02*
D03*
X785999Y553250D02*
D03*
X803649Y553350D02*
D03*
X820781Y553360D02*
D03*
X820299Y568900D02*
D03*
X820163Y584420D02*
D03*
X803031Y584410D02*
D03*
X785381Y584310D02*
D03*
X923899Y442250D02*
D03*
X1024299Y528650D02*
D03*
X917899Y430700D02*
D03*
X681349Y81350D02*
D03*
D78*
X695899Y162850D02*
D03*
Y142850D02*
D03*
Y122850D02*
D03*
D79*
Y182850D02*
D03*
Y102850D02*
D03*
D81*
X720919Y555090D02*
D03*
D82*
X124968Y464312D02*
Y533654D01*
X567690Y533654D01*
X265684Y350012D02*
Y464312D01*
X237236Y350012D02*
X265684D01*
X237236D02*
Y428244D01*
X31750D02*
X237236D01*
X567690Y314960D02*
Y533654D01*
Y314960D02*
X599694D01*
X31750Y232918D02*
Y428244D01*
X31242Y204470D02*
X46863D01*
X251714D01*
X31242Y129794D02*
Y204470D01*
Y129794D02*
X116332D01*
X251714Y204470D02*
Y232918D01*
X31750Y232918D02*
X251714Y232918D01*
X171704Y0D02*
X171958Y254D01*
Y75946D01*
X147828D02*
X171958D01*
X147828Y46482D02*
Y75946D01*
X116332Y129794D02*
X116586Y129540D01*
X147574Y129286D02*
X147828Y129032D01*
X116586Y46482D02*
X147828D01*
X116586D02*
Y129540D01*
X124968Y464312D02*
X265684D01*
X989349Y950D02*
Y278800D01*
X988899Y437850D02*
Y526800D01*
Y437850D02*
X989049Y437700D01*
X989349Y278800D02*
X989549Y279000D01*
X1136699D01*
X1136649Y279050D02*
X1136699Y279000D01*
X1136649Y279050D02*
Y437650D01*
X1136599Y437700D02*
X1136649Y437650D01*
X989049Y437700D02*
X1136599D01*
X836999Y526800D02*
X988899D01*
X836999D02*
Y599750D01*
D83*
X30226Y569722D02*
D03*
X569722D02*
D03*
D84*
X75894Y33010D02*
D03*
D85*
X825049Y17150D02*
D03*
X891049D02*
D03*
D86*
X695519Y529690D02*
D03*
X746319D02*
D03*
Y580490D02*
D03*
X695519D02*
D03*
M02*
