G04*
G04 #@! TF.GenerationSoftware,Altium Limited,Altium Designer,21.2.2 (38)*
G04*
G04 Layer_Color=65535*
%FSLAX44Y44*%
%MOMM*%
G71*
G04*
G04 #@! TF.SameCoordinates,1FAA2A19-5D32-44EB-9D88-0ED73DB0A834*
G04*
G04*
G04 #@! TF.FilePolarity,Positive*
G04*
G01*
G75*
%ADD28C,0.5000*%
%ADD30C,0.2540*%
%ADD31C,0.2000*%
%ADD48C,0.2500*%
%ADD49C,0.1930*%
%ADD82C,1.0000*%
%ADD100C,0.5080*%
%ADD101C,0.4000*%
%ADD102C,0.1500*%
%ADD103C,0.1778*%
%ADD104C,0.1524*%
%ADD105C,0.1270*%
%ADD106C,0.1800*%
%ADD107R,1.3970X0.2540*%
%ADD108R,0.8000X0.3600*%
%ADD109R,0.8050X0.6900*%
%ADD110C,1.2700*%
%ADD111C,0.1000*%
%ADD112C,0.3000*%
%ADD113R,0.5500X0.6750*%
G36*
X1134406Y506784D02*
Y506558D01*
Y506331D01*
Y506104D01*
Y505877D01*
Y505650D01*
Y505424D01*
Y505197D01*
Y504970D01*
Y504743D01*
Y504516D01*
Y504290D01*
Y504063D01*
Y503836D01*
Y503609D01*
Y503382D01*
Y503156D01*
Y502929D01*
Y502702D01*
Y502475D01*
Y502248D01*
Y502022D01*
Y501795D01*
Y501568D01*
Y501341D01*
Y501115D01*
Y500888D01*
X1128282D01*
Y501115D01*
Y501341D01*
Y501568D01*
Y501795D01*
Y502022D01*
Y502248D01*
Y502475D01*
Y502702D01*
Y502929D01*
Y503156D01*
Y503382D01*
Y503609D01*
Y503836D01*
Y504063D01*
Y504290D01*
Y504516D01*
Y504743D01*
Y504970D01*
Y505197D01*
Y505424D01*
Y505650D01*
Y505877D01*
Y506104D01*
Y506331D01*
Y506558D01*
Y506784D01*
Y507011D01*
X1134406D01*
Y506784D01*
D02*
G37*
G36*
X1117623D02*
Y506558D01*
Y506331D01*
Y506104D01*
Y505877D01*
Y505650D01*
Y505424D01*
Y505197D01*
Y504970D01*
Y504743D01*
Y504516D01*
Y504290D01*
Y504063D01*
Y503836D01*
Y503609D01*
Y503382D01*
Y503156D01*
Y502929D01*
Y502702D01*
Y502475D01*
Y502248D01*
Y502022D01*
Y501795D01*
Y501568D01*
Y501341D01*
Y501115D01*
Y500888D01*
X1111500D01*
Y501115D01*
Y501341D01*
Y501568D01*
Y501795D01*
Y502022D01*
Y502248D01*
Y502475D01*
Y502702D01*
Y502929D01*
Y503156D01*
Y503382D01*
Y503609D01*
Y503836D01*
Y504063D01*
Y504290D01*
Y504516D01*
Y504743D01*
Y504970D01*
Y505197D01*
Y505424D01*
Y505650D01*
Y505877D01*
Y506104D01*
Y506331D01*
Y506558D01*
Y506784D01*
Y507011D01*
X1117623D01*
Y506784D01*
D02*
G37*
G36*
X1149827D02*
Y506558D01*
Y506331D01*
Y506104D01*
Y505877D01*
Y505650D01*
Y505424D01*
Y505197D01*
Y504970D01*
Y504743D01*
Y504516D01*
Y504290D01*
Y504063D01*
Y503836D01*
Y503609D01*
Y503382D01*
Y503156D01*
Y502929D01*
Y502702D01*
Y502475D01*
Y502248D01*
Y502022D01*
Y501795D01*
Y501568D01*
Y501341D01*
Y501115D01*
Y500888D01*
X1147106D01*
Y500661D01*
X1146652D01*
Y500888D01*
X1143704D01*
Y501115D01*
Y501341D01*
Y501568D01*
Y501795D01*
Y502022D01*
Y502248D01*
Y502475D01*
Y502702D01*
Y502929D01*
Y503156D01*
Y503382D01*
Y503609D01*
Y503836D01*
Y504063D01*
Y504290D01*
Y504516D01*
Y504743D01*
Y504970D01*
Y505197D01*
Y505424D01*
Y505650D01*
Y505877D01*
Y506104D01*
Y506331D01*
Y506558D01*
Y506784D01*
Y507011D01*
X1149827D01*
Y506784D01*
D02*
G37*
G36*
X1109686Y507011D02*
Y506784D01*
Y506558D01*
Y506331D01*
Y506104D01*
Y505877D01*
Y505650D01*
Y505424D01*
Y505197D01*
Y504970D01*
Y504743D01*
Y504516D01*
Y504290D01*
Y504063D01*
Y503836D01*
Y503609D01*
Y503382D01*
Y503156D01*
Y502929D01*
Y502702D01*
Y502475D01*
Y502248D01*
Y502022D01*
Y501795D01*
Y501568D01*
Y501341D01*
Y501115D01*
Y500888D01*
Y500661D01*
Y500434D01*
Y500207D01*
Y499981D01*
Y499754D01*
Y499527D01*
Y499300D01*
Y499073D01*
X1116036D01*
Y498847D01*
Y498620D01*
Y498393D01*
Y498166D01*
Y497939D01*
Y497713D01*
Y497486D01*
Y497259D01*
Y497032D01*
Y496806D01*
Y496579D01*
Y496352D01*
Y496125D01*
Y495898D01*
Y495672D01*
Y495445D01*
Y495218D01*
Y494991D01*
Y494765D01*
Y494538D01*
Y494311D01*
Y494084D01*
Y493857D01*
Y493630D01*
Y493404D01*
Y493177D01*
Y492950D01*
X1116262D01*
Y492723D01*
X1119891D01*
Y492497D01*
X1120118D01*
Y492270D01*
Y492043D01*
Y491816D01*
X1120571D01*
Y491589D01*
Y491363D01*
X1120798D01*
Y491136D01*
Y490909D01*
Y490682D01*
X1121025D01*
Y490456D01*
Y490229D01*
X1121252D01*
Y490002D01*
X1121479D01*
Y489775D01*
Y489548D01*
X1121705D01*
Y489322D01*
Y489095D01*
X1121932D01*
Y488868D01*
X1122159D01*
Y488641D01*
X1121932D01*
Y488414D01*
X1122159D01*
Y488188D01*
X1122386D01*
Y487961D01*
Y487734D01*
X1122613D01*
Y487507D01*
Y487280D01*
X1123066D01*
Y487054D01*
Y486827D01*
Y486600D01*
Y486373D01*
X1123293D01*
Y486147D01*
X1123520D01*
Y485920D01*
Y485693D01*
Y485466D01*
X1123746D01*
Y485239D01*
X1123973D01*
Y485013D01*
Y484786D01*
X1124200D01*
Y484559D01*
Y484332D01*
X1124427D01*
Y484105D01*
Y483879D01*
X1124654D01*
Y483652D01*
X1124880D01*
Y483425D01*
Y483198D01*
X1125107D01*
Y482971D01*
Y482745D01*
X1125334D01*
Y482518D01*
Y482291D01*
X1125561D01*
Y482064D01*
X1125788D01*
Y481838D01*
Y481611D01*
Y481384D01*
X1126014D01*
Y481157D01*
Y480930D01*
Y480704D01*
X1126468D01*
Y480477D01*
Y480250D01*
X1126695D01*
Y480023D01*
Y479796D01*
X1126921D01*
Y479570D01*
Y479343D01*
Y479116D01*
X1127148D01*
Y478889D01*
X1127375D01*
Y478662D01*
Y478436D01*
X1127602D01*
Y478209D01*
Y477982D01*
Y477755D01*
X1128055D01*
Y477528D01*
Y477302D01*
Y477075D01*
X1128282D01*
Y476848D01*
X1128509D01*
Y476621D01*
Y476395D01*
Y476168D01*
X1128736D01*
Y475941D01*
Y475714D01*
X1128962D01*
Y475487D01*
X1129189D01*
Y475261D01*
Y475034D01*
X1129416D01*
Y474807D01*
Y474580D01*
X1129643D01*
Y474353D01*
X1129870D01*
Y474127D01*
Y473900D01*
Y473673D01*
X1130097D01*
Y473446D01*
Y473219D01*
X1130323D01*
Y472993D01*
X1130550D01*
Y472766D01*
Y472539D01*
Y472312D01*
X1130777D01*
Y472086D01*
X1131004D01*
Y471859D01*
Y471632D01*
X1131230D01*
Y471405D01*
X1131457D01*
Y471178D01*
Y470952D01*
Y470725D01*
X1131684D01*
Y470498D01*
X1131911D01*
Y470271D01*
Y470045D01*
X1132138D01*
Y469818D01*
Y469591D01*
Y469364D01*
X1132591D01*
Y469137D01*
Y468910D01*
Y468684D01*
X1132818D01*
Y468457D01*
Y468230D01*
Y468003D01*
X1133045D01*
Y467777D01*
X1133271D01*
Y467550D01*
X1133498D01*
Y467323D01*
X1133271D01*
Y467096D01*
X1133725D01*
Y466869D01*
Y466643D01*
Y466416D01*
X1133952D01*
Y466189D01*
Y465962D01*
Y465736D01*
X1134179D01*
Y465509D01*
X1133952D01*
Y465282D01*
Y465055D01*
X1133725D01*
Y464828D01*
X1133271D01*
Y464602D01*
X1127375D01*
Y464828D01*
X1126014D01*
Y465055D01*
X1125561D01*
Y465282D01*
X1124427D01*
Y465509D01*
X1123746D01*
Y465736D01*
X1123066D01*
Y465962D01*
X1122839D01*
Y466189D01*
X1122159D01*
Y466416D01*
X1121705D01*
Y466643D01*
X1121252D01*
Y466869D01*
X1120798D01*
Y467096D01*
X1120345D01*
Y467323D01*
X1120118D01*
Y467550D01*
X1119891D01*
Y467777D01*
X1119437D01*
Y468003D01*
X1118984D01*
Y468230D01*
X1118757D01*
Y468457D01*
X1118530D01*
Y468684D01*
X1118077D01*
Y468910D01*
X1117850D01*
Y469137D01*
X1117623D01*
Y469364D01*
X1117396D01*
Y469591D01*
X1117169D01*
Y469818D01*
X1116943D01*
Y470045D01*
X1116716D01*
Y470271D01*
X1116489D01*
Y470498D01*
X1116262D01*
Y470725D01*
X1116036D01*
Y470952D01*
X1115809D01*
Y471178D01*
X1115582D01*
Y471405D01*
X1115355D01*
Y471632D01*
Y471859D01*
Y472086D01*
X1114902D01*
Y472312D01*
Y472539D01*
X1114675D01*
Y472766D01*
X1114448D01*
Y472993D01*
Y473219D01*
Y473446D01*
Y473673D01*
X1114221D01*
Y473900D01*
X1113995D01*
Y474127D01*
Y474353D01*
X1113768D01*
Y474580D01*
Y474807D01*
X1113541D01*
Y475034D01*
X1113314D01*
Y475261D01*
Y475487D01*
Y475714D01*
X1113087D01*
Y475941D01*
X1112860D01*
Y476168D01*
Y476395D01*
Y476621D01*
X1112407D01*
Y476848D01*
Y477075D01*
Y477302D01*
X1112180D01*
Y477528D01*
Y477755D01*
X1111953D01*
Y477982D01*
Y478209D01*
X1111727D01*
Y478436D01*
X1111500D01*
Y478662D01*
Y478889D01*
Y479116D01*
X1111046D01*
Y479343D01*
Y479570D01*
Y479796D01*
Y480023D01*
X1110819D01*
Y480250D01*
X1110593D01*
Y480477D01*
Y480704D01*
Y480930D01*
X1110366D01*
Y481157D01*
X1110139D01*
Y481384D01*
X1109912D01*
Y481611D01*
Y481838D01*
Y482064D01*
X1109459D01*
Y482291D01*
X1109686D01*
Y482518D01*
X1109459D01*
Y482745D01*
X1109232D01*
Y482971D01*
Y483198D01*
X1109005D01*
Y483425D01*
Y483652D01*
X1108552D01*
Y483879D01*
Y484105D01*
Y484332D01*
Y484559D01*
Y484786D01*
X1108325D01*
Y485013D01*
X1108098D01*
Y485239D01*
Y485466D01*
X1107871D01*
Y485693D01*
X1107644D01*
Y485920D01*
Y486147D01*
Y486373D01*
X1107418D01*
Y486600D01*
X1107191D01*
Y486827D01*
X1106964D01*
Y487054D01*
X1107191D01*
Y487280D01*
X1106964D01*
Y487507D01*
X1106737D01*
Y487734D01*
X1106510D01*
Y487961D01*
Y488188D01*
Y488414D01*
X1106057D01*
Y488641D01*
Y488868D01*
Y489095D01*
Y489322D01*
X1105830D01*
Y489548D01*
X1105603D01*
Y489775D01*
Y490002D01*
Y490229D01*
X1105377D01*
Y490456D01*
X1105150D01*
Y490682D01*
Y490909D01*
Y491136D01*
X1104923D01*
Y491363D01*
X1104696D01*
Y491589D01*
Y491816D01*
Y492043D01*
X1104243D01*
Y492270D01*
Y492497D01*
X1104016D01*
Y492723D01*
Y492950D01*
Y493177D01*
X1103789D01*
Y493404D01*
X1103562D01*
Y493630D01*
Y493857D01*
X1102882D01*
Y493630D01*
Y493404D01*
Y493177D01*
X1102655D01*
Y492950D01*
Y492723D01*
X1102428D01*
Y492497D01*
X1102202D01*
Y492270D01*
X1102428D01*
Y492043D01*
X1102202D01*
Y491816D01*
X1101975D01*
Y491589D01*
X1101748D01*
Y491363D01*
Y491136D01*
Y490909D01*
X1101521D01*
Y490682D01*
Y490456D01*
X1101294D01*
Y490229D01*
Y490002D01*
X1101068D01*
Y489775D01*
Y489548D01*
X1100841D01*
Y489322D01*
Y489095D01*
X1100614D01*
Y488868D01*
Y488641D01*
X1100387D01*
Y488414D01*
Y488188D01*
X1100160D01*
Y487961D01*
Y487734D01*
Y487507D01*
Y487280D01*
Y487054D01*
X1100387D01*
Y486827D01*
Y486600D01*
Y486373D01*
X1100614D01*
Y486147D01*
X1100841D01*
Y485920D01*
Y485693D01*
X1101068D01*
Y485466D01*
Y485239D01*
X1101294D01*
Y485013D01*
Y484786D01*
X1101521D01*
Y484559D01*
Y484332D01*
X1101748D01*
Y484105D01*
X1101975D01*
Y483879D01*
Y483652D01*
X1102202D01*
Y483425D01*
Y483198D01*
X1102428D01*
Y482971D01*
Y482745D01*
X1102655D01*
Y482518D01*
Y482291D01*
X1102882D01*
Y482064D01*
X1103109D01*
Y481838D01*
Y481611D01*
Y481384D01*
X1103335D01*
Y481157D01*
Y480930D01*
X1103789D01*
Y480704D01*
Y480477D01*
Y480250D01*
Y480023D01*
X1104243D01*
Y479796D01*
Y479570D01*
Y479343D01*
Y479116D01*
X1104696D01*
Y478889D01*
Y478662D01*
X1104923D01*
Y478436D01*
X1104696D01*
Y478209D01*
X1104923D01*
Y477982D01*
X1105150D01*
Y477755D01*
X1105377D01*
Y477528D01*
Y477302D01*
X1105603D01*
Y477075D01*
Y476848D01*
X1105830D01*
Y476621D01*
Y476395D01*
X1106057D01*
Y476168D01*
Y475941D01*
X1106284D01*
Y475714D01*
Y475487D01*
Y475261D01*
X1106510D01*
Y475034D01*
X1106737D01*
Y474807D01*
Y474580D01*
Y474353D01*
X1107191D01*
Y474127D01*
Y473900D01*
Y473673D01*
X1107418D01*
Y473446D01*
Y473219D01*
X1107644D01*
Y472993D01*
X1107871D01*
Y472766D01*
Y472539D01*
Y472312D01*
X1108325D01*
Y472086D01*
Y471859D01*
Y471632D01*
X1108552D01*
Y471405D01*
X1108778D01*
Y471178D01*
Y470952D01*
Y470725D01*
X1109005D01*
Y470498D01*
X1109232D01*
Y470271D01*
Y470045D01*
X1109459D01*
Y469818D01*
Y469591D01*
X1109686D01*
Y469364D01*
Y469137D01*
Y468910D01*
X1109912D01*
Y468684D01*
X1110139D01*
Y468457D01*
Y468230D01*
Y468003D01*
X1110593D01*
Y467777D01*
Y467550D01*
X1110819D01*
Y467323D01*
Y467096D01*
Y466869D01*
X1111046D01*
Y466643D01*
X1111273D01*
Y466416D01*
X1111500D01*
Y466189D01*
Y465962D01*
Y465736D01*
Y465509D01*
Y465282D01*
X1111273D01*
Y465055D01*
X1111046D01*
Y464828D01*
X1110593D01*
Y464602D01*
X1104696D01*
Y464828D01*
X1103562D01*
Y465055D01*
X1102882D01*
Y465282D01*
X1101748D01*
Y465509D01*
X1101068D01*
Y465736D01*
X1100614D01*
Y465962D01*
X1100160D01*
Y466189D01*
X1099480D01*
Y466416D01*
X1099026D01*
Y466643D01*
X1098573D01*
Y466869D01*
X1098346D01*
Y467096D01*
X1097893D01*
Y467323D01*
X1097439D01*
Y467550D01*
X1097212D01*
Y467777D01*
X1096758D01*
Y468003D01*
X1096305D01*
Y468230D01*
X1096078D01*
Y468457D01*
X1095851D01*
Y468684D01*
X1095625D01*
Y468910D01*
X1095171D01*
Y469137D01*
X1094944D01*
Y469364D01*
X1094717D01*
Y469591D01*
Y469818D01*
X1094264D01*
Y470045D01*
X1094037D01*
Y470271D01*
X1093810D01*
Y470498D01*
X1093584D01*
Y470725D01*
X1093357D01*
Y470952D01*
Y471178D01*
X1093130D01*
Y471405D01*
X1092903D01*
Y471632D01*
X1092676D01*
Y471859D01*
Y472086D01*
X1092223D01*
Y472312D01*
Y472539D01*
Y472766D01*
X1091769D01*
Y472993D01*
Y473219D01*
Y473446D01*
Y473673D01*
X1091542D01*
Y473900D01*
X1091316D01*
Y474127D01*
Y474353D01*
X1091089D01*
Y474580D01*
Y474807D01*
X1090862D01*
Y475034D01*
Y475261D01*
X1090635D01*
Y475487D01*
Y475714D01*
X1090408D01*
Y475941D01*
X1090182D01*
Y476168D01*
Y476395D01*
X1089955D01*
Y476621D01*
Y476848D01*
X1089728D01*
Y477075D01*
Y477302D01*
Y477528D01*
X1089275D01*
Y477755D01*
Y477982D01*
X1089048D01*
Y478209D01*
Y478436D01*
Y478662D01*
X1088821D01*
Y478889D01*
Y479116D01*
X1088367D01*
Y479343D01*
Y479570D01*
Y479796D01*
X1088141D01*
Y480023D01*
Y480250D01*
X1087914D01*
Y480477D01*
Y480704D01*
X1087687D01*
Y480930D01*
Y481157D01*
X1087460D01*
Y481384D01*
X1087233D01*
Y481611D01*
Y481838D01*
Y482064D01*
X1087007D01*
Y482291D01*
X1086780D01*
Y482518D01*
Y482745D01*
X1086553D01*
Y482971D01*
Y483198D01*
X1086326D01*
Y483425D01*
Y483652D01*
X1086099D01*
Y483879D01*
X1085873D01*
Y484105D01*
Y484332D01*
Y484559D01*
X1085646D01*
Y484786D01*
Y485013D01*
X1085419D01*
Y485239D01*
Y485466D01*
Y485693D01*
X1084966D01*
Y485920D01*
Y486147D01*
Y486373D01*
X1084739D01*
Y486600D01*
X1084512D01*
Y486827D01*
Y487054D01*
X1084285D01*
Y487280D01*
Y487507D01*
X1084058D01*
Y487734D01*
X1083832D01*
Y487961D01*
X1084058D01*
Y488188D01*
X1083832D01*
Y488414D01*
X1083605D01*
Y488641D01*
X1083378D01*
Y488868D01*
Y489095D01*
X1083151D01*
Y489322D01*
Y489548D01*
X1082924D01*
Y489775D01*
Y490002D01*
Y490229D01*
X1082698D01*
Y490456D01*
Y490682D01*
X1082471D01*
Y490909D01*
Y491136D01*
X1082244D01*
Y491363D01*
X1081564D01*
Y491136D01*
Y490909D01*
X1081337D01*
Y490682D01*
Y490456D01*
X1081110D01*
Y490229D01*
Y490002D01*
X1080883D01*
Y489775D01*
X1080657D01*
Y489548D01*
Y489322D01*
Y489095D01*
X1080430D01*
Y488868D01*
X1080203D01*
Y488641D01*
Y488414D01*
Y488188D01*
X1079749D01*
Y487961D01*
Y487734D01*
Y487507D01*
X1079523D01*
Y487280D01*
Y487054D01*
X1079296D01*
Y486827D01*
Y486600D01*
X1079069D01*
Y486373D01*
Y486147D01*
Y485920D01*
X1078842D01*
Y485693D01*
X1078615D01*
Y485466D01*
Y485239D01*
X1078389D01*
Y485013D01*
X1078162D01*
Y484786D01*
Y484559D01*
X1077935D01*
Y484332D01*
Y484105D01*
X1077708D01*
Y483879D01*
Y483652D01*
X1077482D01*
Y483425D01*
Y483198D01*
X1077255D01*
Y482971D01*
Y482745D01*
Y482518D01*
X1076801D01*
Y482291D01*
Y482064D01*
Y481838D01*
X1076574D01*
Y481611D01*
X1076348D01*
Y481384D01*
Y481157D01*
Y480930D01*
X1076121D01*
Y480704D01*
X1075894D01*
Y480477D01*
Y480250D01*
X1075667D01*
Y480023D01*
Y479796D01*
X1075440D01*
Y479570D01*
X1075214D01*
Y479343D01*
Y479116D01*
Y478889D01*
X1074987D01*
Y478662D01*
Y478436D01*
X1074760D01*
Y478209D01*
X1074533D01*
Y477982D01*
Y477755D01*
X1074306D01*
Y477528D01*
Y477302D01*
X1074080D01*
Y477075D01*
Y476848D01*
X1073853D01*
Y476621D01*
Y476395D01*
Y476168D01*
X1073626D01*
Y475941D01*
Y475714D01*
X1073399D01*
Y475487D01*
Y475261D01*
X1072946D01*
Y475034D01*
Y474807D01*
X1072719D01*
Y474580D01*
Y474353D01*
Y474127D01*
X1072492D01*
Y473900D01*
X1072265D01*
Y473673D01*
Y473446D01*
Y473219D01*
X1072039D01*
Y472993D01*
X1071812D01*
Y472766D01*
Y472539D01*
Y472312D01*
X1071358D01*
Y472086D01*
Y471859D01*
Y471632D01*
X1071131D01*
Y471405D01*
Y471178D01*
X1070905D01*
Y470952D01*
Y470725D01*
X1070678D01*
Y470498D01*
Y470271D01*
X1070224D01*
Y470045D01*
Y469818D01*
Y469591D01*
X1069997D01*
Y469364D01*
Y469137D01*
Y468910D01*
X1069771D01*
Y468684D01*
X1069544D01*
Y468457D01*
Y468230D01*
X1069317D01*
Y468003D01*
Y467777D01*
X1069090D01*
Y467550D01*
X1068864D01*
Y467323D01*
Y467096D01*
Y466869D01*
X1068637D01*
Y466643D01*
X1068410D01*
Y466416D01*
Y466189D01*
X1068183D01*
Y465962D01*
Y465736D01*
Y465509D01*
X1067730D01*
Y465282D01*
Y465055D01*
Y464828D01*
X1067276D01*
Y464602D01*
X1053895D01*
Y464828D01*
X1053442D01*
Y465055D01*
X1053215D01*
Y465282D01*
X1052762D01*
Y465509D01*
X1052308D01*
Y465736D01*
Y465962D01*
X1052081D01*
Y466189D01*
X1051854D01*
Y466416D01*
Y466643D01*
Y466869D01*
X1051401D01*
Y467096D01*
Y467323D01*
X1051174D01*
Y467550D01*
Y467777D01*
X1050947D01*
Y468003D01*
Y468230D01*
Y468457D01*
X1050720D01*
Y468684D01*
X1050494D01*
Y468910D01*
Y469137D01*
X1050267D01*
Y469364D01*
Y469591D01*
Y469818D01*
X1049813D01*
Y470045D01*
X1050040D01*
Y470271D01*
X1049813D01*
Y470498D01*
X1049586D01*
Y470725D01*
X1049360D01*
Y470952D01*
Y471178D01*
Y471405D01*
X1048679D01*
Y471178D01*
X1048453D01*
Y470952D01*
Y470725D01*
X1048226D01*
Y470498D01*
Y470271D01*
X1047999D01*
Y470045D01*
X1047772D01*
Y469818D01*
X1047545D01*
Y469591D01*
Y469364D01*
Y469137D01*
X1047319D01*
Y468910D01*
Y468684D01*
X1047092D01*
Y468457D01*
Y468230D01*
X1046865D01*
Y468003D01*
Y467777D01*
X1046638D01*
Y467550D01*
Y467323D01*
X1046411D01*
Y467096D01*
X1046185D01*
Y466869D01*
Y466643D01*
X1045958D01*
Y466416D01*
Y466189D01*
Y465962D01*
X1045731D01*
Y465736D01*
X1045504D01*
Y465509D01*
Y465282D01*
X1045277D01*
Y465055D01*
Y464828D01*
X1044597D01*
Y464602D01*
X1031670D01*
Y464828D01*
X1030990D01*
Y465055D01*
X1030763D01*
Y465282D01*
X1030309D01*
Y465509D01*
X1030083D01*
Y465736D01*
X1029856D01*
Y465962D01*
X1029629D01*
Y466189D01*
X1029402D01*
Y466416D01*
Y466643D01*
X1029175D01*
Y466869D01*
Y467096D01*
Y467323D01*
X1028722D01*
Y467550D01*
Y467777D01*
Y468003D01*
X1028495D01*
Y468230D01*
X1028268D01*
Y468457D01*
Y468684D01*
Y468910D01*
X1028042D01*
Y469137D01*
Y469364D01*
X1027815D01*
Y469591D01*
X1027588D01*
Y469818D01*
X1027361D01*
Y470045D01*
Y470271D01*
X1027134D01*
Y470498D01*
Y470725D01*
X1026908D01*
Y470952D01*
Y471178D01*
X1026681D01*
Y471405D01*
Y471632D01*
X1026454D01*
Y471859D01*
X1026227D01*
Y472086D01*
Y472312D01*
Y472539D01*
Y472766D01*
X1026001D01*
Y472993D01*
X1025774D01*
Y473219D01*
Y473446D01*
Y473673D01*
X1025320D01*
Y473900D01*
Y474127D01*
Y474353D01*
X1025093D01*
Y474580D01*
Y474807D01*
X1024866D01*
Y475034D01*
X1024640D01*
Y475261D01*
Y475487D01*
X1024413D01*
Y475714D01*
X1024186D01*
Y475941D01*
Y476168D01*
Y476395D01*
Y476621D01*
X1023733D01*
Y476848D01*
Y477075D01*
X1023506D01*
Y477302D01*
Y477528D01*
Y477755D01*
X1023279D01*
Y477982D01*
Y478209D01*
X1023052D01*
Y478436D01*
X1022825D01*
Y478662D01*
Y478889D01*
X1022599D01*
Y479116D01*
Y479343D01*
X1022372D01*
Y479570D01*
Y479796D01*
Y480023D01*
X1021918D01*
Y480250D01*
Y480477D01*
Y480704D01*
X1021692D01*
Y480930D01*
Y481157D01*
X1021465D01*
Y481384D01*
X1021238D01*
Y481611D01*
Y481838D01*
X1021011D01*
Y482064D01*
Y482291D01*
X1020784D01*
Y482518D01*
Y482745D01*
Y482971D01*
X1020331D01*
Y483198D01*
Y483425D01*
X1020104D01*
Y483652D01*
Y483879D01*
Y484105D01*
X1019877D01*
Y484332D01*
Y484559D01*
X1019650D01*
Y484786D01*
Y485013D01*
X1019424D01*
Y485239D01*
X1019197D01*
Y485466D01*
Y485693D01*
X1018970D01*
Y485920D01*
X1018743D01*
Y486147D01*
X1018970D01*
Y486373D01*
X1018516D01*
Y486600D01*
Y486827D01*
Y487054D01*
X1018290D01*
Y487280D01*
Y487507D01*
X1018063D01*
Y487734D01*
Y487961D01*
X1017836D01*
Y488188D01*
X1017609D01*
Y488414D01*
X1017383D01*
Y488641D01*
Y488868D01*
Y489095D01*
Y489322D01*
X1016929D01*
Y489548D01*
Y489775D01*
Y490002D01*
X1016702D01*
Y490229D01*
Y490456D01*
Y490682D01*
X1016248D01*
Y490909D01*
Y491136D01*
Y491363D01*
X1016022D01*
Y491589D01*
X1015795D01*
Y491816D01*
Y492043D01*
Y492270D01*
X1015568D01*
Y492497D01*
X1015341D01*
Y492723D01*
X1015115D01*
Y492950D01*
Y493177D01*
X1014888D01*
Y493404D01*
Y493630D01*
Y493857D01*
Y494084D01*
X1014434D01*
Y494311D01*
Y494538D01*
Y494765D01*
X1014207D01*
Y494991D01*
X1013981D01*
Y495218D01*
Y495445D01*
X1013754D01*
Y495672D01*
Y495898D01*
Y496125D01*
X1013527D01*
Y496352D01*
X1013300D01*
Y496579D01*
Y496806D01*
Y497032D01*
X1012847D01*
Y497259D01*
Y497486D01*
X1012620D01*
Y497713D01*
Y497939D01*
X1012393D01*
Y498166D01*
Y498393D01*
Y498620D01*
X1012166D01*
Y498847D01*
Y499073D01*
X1011940D01*
Y499300D01*
X1011713D01*
Y499527D01*
Y499754D01*
Y499981D01*
X1011486D01*
Y500207D01*
Y500434D01*
X1011259D01*
Y500661D01*
X1011032D01*
Y500888D01*
Y501115D01*
Y501341D01*
X1010806D01*
Y501568D01*
X1010352D01*
Y501795D01*
X1010579D01*
Y502022D01*
X1010352D01*
Y502248D01*
Y502475D01*
X1010125D01*
Y502702D01*
X1009898D01*
Y502929D01*
Y503156D01*
Y503382D01*
X1009672D01*
Y503609D01*
X1009445D01*
Y503836D01*
Y504063D01*
X1009218D01*
Y504290D01*
Y504516D01*
X1008991D01*
Y504743D01*
X1008764D01*
Y504970D01*
Y505197D01*
Y505424D01*
X1008538D01*
Y505650D01*
X1008311D01*
Y505877D01*
Y506104D01*
Y506331D01*
Y506558D01*
X1008538D01*
Y506784D01*
X1008764D01*
Y507011D01*
X1009445D01*
Y507238D01*
X1014207D01*
Y507011D01*
X1016022D01*
Y506784D01*
X1016475D01*
Y506558D01*
X1017609D01*
Y506331D01*
X1018290D01*
Y506104D01*
X1018970D01*
Y505877D01*
X1019424D01*
Y505650D01*
X1020104D01*
Y505424D01*
X1020557D01*
Y505197D01*
X1021011D01*
Y504970D01*
X1021465D01*
Y504743D01*
X1021918D01*
Y504516D01*
X1022372D01*
Y504290D01*
X1022825D01*
Y504063D01*
X1023052D01*
Y503836D01*
X1023279D01*
Y503609D01*
X1023733D01*
Y503382D01*
X1023959D01*
Y503156D01*
X1024186D01*
Y502929D01*
X1024640D01*
Y502702D01*
Y502475D01*
X1025093D01*
Y502248D01*
X1025320D01*
Y502022D01*
X1025547D01*
Y501795D01*
Y501568D01*
X1026001D01*
Y501341D01*
X1026227D01*
Y501115D01*
X1026454D01*
Y500888D01*
X1026681D01*
Y500661D01*
X1026908D01*
Y500434D01*
Y500207D01*
X1027134D01*
Y499981D01*
X1027361D01*
Y499754D01*
Y499527D01*
X1027588D01*
Y499300D01*
Y499073D01*
X1027815D01*
Y498847D01*
Y498620D01*
X1028042D01*
Y498393D01*
X1028268D01*
Y498166D01*
X1028495D01*
Y497939D01*
Y497713D01*
Y497486D01*
X1028722D01*
Y497259D01*
X1028949D01*
Y497032D01*
Y496806D01*
Y496579D01*
X1029175D01*
Y496352D01*
X1029402D01*
Y496125D01*
Y495898D01*
Y495672D01*
X1029629D01*
Y495445D01*
X1029856D01*
Y495218D01*
Y494991D01*
X1030083D01*
Y494765D01*
X1030309D01*
Y494538D01*
Y494311D01*
Y494084D01*
X1030536D01*
Y493857D01*
Y493630D01*
X1030763D01*
Y493404D01*
Y493177D01*
X1030990D01*
Y492950D01*
Y492723D01*
X1031443D01*
Y492497D01*
X1031217D01*
Y492270D01*
X1031443D01*
Y492043D01*
X1031670D01*
Y491816D01*
Y491589D01*
X1031897D01*
Y491363D01*
Y491136D01*
X1032124D01*
Y490909D01*
Y490682D01*
X1032350D01*
Y490456D01*
X1032577D01*
Y490229D01*
Y490002D01*
X1032804D01*
Y489775D01*
Y489548D01*
Y489322D01*
X1033031D01*
Y489095D01*
X1033258D01*
Y488868D01*
Y488641D01*
X1033484D01*
Y488414D01*
Y488188D01*
X1033711D01*
Y487961D01*
Y487734D01*
X1033938D01*
Y487507D01*
Y487280D01*
X1034165D01*
Y487054D01*
X1034392D01*
Y486827D01*
Y486600D01*
Y486373D01*
X1034845D01*
Y486147D01*
Y485920D01*
Y485693D01*
X1035072D01*
Y485466D01*
Y485239D01*
X1035299D01*
Y485013D01*
Y484786D01*
X1035526D01*
Y484559D01*
Y484332D01*
X1035752D01*
Y484105D01*
Y483879D01*
X1035979D01*
Y483652D01*
Y483425D01*
X1036206D01*
Y483198D01*
Y482971D01*
X1036433D01*
Y482745D01*
X1036659D01*
Y482518D01*
Y482291D01*
X1036886D01*
Y482064D01*
Y481838D01*
X1037113D01*
Y481611D01*
X1037340D01*
Y481384D01*
X1037113D01*
Y481157D01*
X1037340D01*
Y480930D01*
X1037567D01*
Y480704D01*
Y480477D01*
X1037794D01*
Y480250D01*
Y480023D01*
X1038020D01*
Y479796D01*
X1038247D01*
Y479570D01*
Y479343D01*
X1038474D01*
Y479116D01*
Y478889D01*
X1038701D01*
Y478662D01*
Y478436D01*
X1038927D01*
Y478209D01*
Y477982D01*
X1039154D01*
Y477755D01*
X1039608D01*
Y477982D01*
Y478209D01*
X1039835D01*
Y478436D01*
Y478662D01*
X1040061D01*
Y478889D01*
Y479116D01*
Y479343D01*
X1040288D01*
Y479570D01*
Y479796D01*
X1040515D01*
Y480023D01*
Y480250D01*
X1040742D01*
Y480477D01*
Y480704D01*
X1040968D01*
Y480930D01*
Y481157D01*
X1041195D01*
Y481384D01*
Y481611D01*
X1041422D01*
Y481838D01*
Y482064D01*
Y482291D01*
X1041649D01*
Y482518D01*
X1041876D01*
Y482745D01*
X1042102D01*
Y482971D01*
Y483198D01*
Y483425D01*
X1042329D01*
Y483652D01*
Y483879D01*
Y484105D01*
Y484332D01*
Y484559D01*
X1041876D01*
Y484786D01*
Y485013D01*
X1041649D01*
Y485239D01*
Y485466D01*
Y485693D01*
X1041422D01*
Y485920D01*
X1041195D01*
Y486147D01*
Y486373D01*
Y486600D01*
X1040968D01*
Y486827D01*
Y487054D01*
X1040742D01*
Y487280D01*
Y487507D01*
X1040515D01*
Y487734D01*
Y487961D01*
Y488188D01*
X1040061D01*
Y488414D01*
Y488641D01*
Y488868D01*
X1039608D01*
Y489095D01*
Y489322D01*
Y489548D01*
X1039381D01*
Y489775D01*
Y490002D01*
X1039154D01*
Y490229D01*
Y490456D01*
X1038927D01*
Y490682D01*
Y490909D01*
X1038701D01*
Y491136D01*
X1038474D01*
Y491363D01*
Y491589D01*
Y491816D01*
X1038247D01*
Y492043D01*
X1038020D01*
Y492270D01*
Y492497D01*
X1037794D01*
Y492723D01*
Y492950D01*
X1037567D01*
Y493177D01*
Y493404D01*
Y493630D01*
X1037340D01*
Y493857D01*
X1037113D01*
Y494084D01*
Y494311D01*
X1036886D01*
Y494538D01*
Y494765D01*
X1036659D01*
Y494991D01*
Y495218D01*
X1036433D01*
Y495445D01*
X1036206D01*
Y495672D01*
X1035979D01*
Y495898D01*
Y496125D01*
Y496352D01*
Y496579D01*
X1035526D01*
Y496806D01*
Y497032D01*
Y497259D01*
X1035299D01*
Y497486D01*
X1035072D01*
Y497713D01*
Y497939D01*
Y498166D01*
X1034845D01*
Y498393D01*
Y498620D01*
X1034618D01*
Y498847D01*
X1034392D01*
Y499073D01*
Y499300D01*
X1034165D01*
Y499527D01*
X1033938D01*
Y499754D01*
Y499981D01*
Y500207D01*
X1033711D01*
Y500434D01*
Y500661D01*
X1033484D01*
Y500888D01*
Y501115D01*
X1033258D01*
Y501341D01*
Y501568D01*
X1033031D01*
Y501795D01*
X1032804D01*
Y502022D01*
Y502248D01*
X1032577D01*
Y502475D01*
Y502702D01*
Y502929D01*
X1032350D01*
Y503156D01*
X1032124D01*
Y503382D01*
Y503609D01*
X1031897D01*
Y503836D01*
Y504063D01*
X1031670D01*
Y504290D01*
Y504516D01*
X1031443D01*
Y504743D01*
X1031217D01*
Y504970D01*
Y505197D01*
X1030990D01*
Y505424D01*
Y505650D01*
Y505877D01*
X1030763D01*
Y506104D01*
X1030990D01*
Y506331D01*
Y506558D01*
Y506784D01*
X1031443D01*
Y507011D01*
X1031897D01*
Y507238D01*
X1036659D01*
Y507011D01*
X1038474D01*
Y506784D01*
X1038927D01*
Y506558D01*
X1040061D01*
Y506331D01*
X1040968D01*
Y506104D01*
X1041649D01*
Y505877D01*
X1041876D01*
Y505650D01*
X1042556D01*
Y505424D01*
X1043236D01*
Y505197D01*
X1043463D01*
Y504970D01*
X1043917D01*
Y504743D01*
X1044144D01*
Y504516D01*
X1044824D01*
Y504290D01*
X1045051D01*
Y504063D01*
X1045504D01*
Y503836D01*
X1045731D01*
Y503609D01*
X1046185D01*
Y503382D01*
X1046411D01*
Y503156D01*
X1046638D01*
Y502929D01*
X1046865D01*
Y502702D01*
X1047092D01*
Y502475D01*
X1047545D01*
Y502248D01*
X1047772D01*
Y502022D01*
X1047999D01*
Y501795D01*
X1048226D01*
Y501568D01*
X1048453D01*
Y501341D01*
X1048679D01*
Y501115D01*
X1048906D01*
Y500888D01*
X1049133D01*
Y500661D01*
Y500434D01*
X1049586D01*
Y500207D01*
Y499981D01*
X1049813D01*
Y499754D01*
X1050040D01*
Y499527D01*
Y499300D01*
X1050267D01*
Y499073D01*
Y498847D01*
X1050494D01*
Y498620D01*
Y498393D01*
Y498166D01*
X1050720D01*
Y497939D01*
X1050947D01*
Y497713D01*
Y497486D01*
Y497259D01*
X1051401D01*
Y497032D01*
Y496806D01*
X1051628D01*
Y496579D01*
Y496352D01*
Y496125D01*
X1052081D01*
Y495898D01*
Y495672D01*
Y495445D01*
Y495218D01*
X1052308D01*
Y494991D01*
X1052535D01*
Y494765D01*
Y494538D01*
X1052762D01*
Y494311D01*
Y494084D01*
X1052988D01*
Y493857D01*
Y493630D01*
X1053215D01*
Y493404D01*
Y493177D01*
X1053442D01*
Y492950D01*
X1053669D01*
Y492723D01*
X1053895D01*
Y492497D01*
Y492270D01*
Y492043D01*
X1054122D01*
Y491816D01*
X1054349D01*
Y491589D01*
Y491363D01*
X1054576D01*
Y491136D01*
Y490909D01*
X1054803D01*
Y490682D01*
Y490456D01*
X1055029D01*
Y490229D01*
Y490002D01*
X1055256D01*
Y489775D01*
Y489548D01*
X1055483D01*
Y489322D01*
Y489095D01*
Y488868D01*
X1055710D01*
Y488641D01*
X1055937D01*
Y488414D01*
Y488188D01*
Y487961D01*
X1056390D01*
Y487734D01*
Y487507D01*
Y487280D01*
X1056617D01*
Y487054D01*
X1056844D01*
Y486827D01*
Y486600D01*
X1057070D01*
Y486373D01*
Y486147D01*
X1057297D01*
Y485920D01*
Y485693D01*
X1057524D01*
Y485466D01*
Y485239D01*
X1057751D01*
Y485013D01*
Y484786D01*
X1057978D01*
Y484559D01*
Y484332D01*
X1058204D01*
Y484105D01*
Y483879D01*
X1058431D01*
Y483652D01*
Y483425D01*
Y483198D01*
X1058885D01*
Y482971D01*
Y482745D01*
Y482518D01*
X1059112D01*
Y482291D01*
X1059338D01*
Y482064D01*
Y481838D01*
X1059565D01*
Y481611D01*
Y481384D01*
Y481157D01*
X1060019D01*
Y480930D01*
Y480704D01*
X1060246D01*
Y480477D01*
Y480250D01*
X1060699D01*
Y480477D01*
Y480704D01*
X1060926D01*
Y480930D01*
X1061153D01*
Y481157D01*
Y481384D01*
X1061379D01*
Y481611D01*
Y481838D01*
X1061606D01*
Y482064D01*
Y482291D01*
X1061833D01*
Y482518D01*
Y482745D01*
Y482971D01*
X1062287D01*
Y483198D01*
Y483425D01*
Y483652D01*
X1062740D01*
Y483879D01*
Y484105D01*
Y484332D01*
Y484559D01*
X1062967D01*
Y484786D01*
X1063194D01*
Y485013D01*
Y485239D01*
X1063421D01*
Y485466D01*
Y485693D01*
X1063647D01*
Y485920D01*
Y486147D01*
X1063874D01*
Y486373D01*
Y486600D01*
Y486827D01*
X1064101D01*
Y487054D01*
Y487280D01*
X1064555D01*
Y487507D01*
Y487734D01*
Y487961D01*
X1064781D01*
Y488188D01*
X1065008D01*
Y488414D01*
Y488641D01*
Y488868D01*
X1065235D01*
Y489095D01*
X1065462D01*
Y489322D01*
Y489548D01*
X1065688D01*
Y489775D01*
Y490002D01*
Y490229D01*
X1066142D01*
Y490456D01*
Y490682D01*
Y490909D01*
X1066369D01*
Y491136D01*
X1066596D01*
Y491363D01*
Y491589D01*
Y491816D01*
X1066822D01*
Y492043D01*
Y492270D01*
X1067276D01*
Y492497D01*
X1067049D01*
Y492723D01*
X1067276D01*
Y492950D01*
X1067503D01*
Y493177D01*
X1067730D01*
Y493404D01*
Y493630D01*
Y493857D01*
Y494084D01*
X1068183D01*
Y494311D01*
Y494538D01*
Y494765D01*
X1068410D01*
Y494991D01*
Y495218D01*
X1068637D01*
Y495445D01*
Y495672D01*
X1068864D01*
Y495898D01*
X1069090D01*
Y496125D01*
Y496352D01*
X1069317D01*
Y496579D01*
Y496806D01*
X1069544D01*
Y497032D01*
Y497259D01*
X1069771D01*
Y497486D01*
Y497713D01*
X1069997D01*
Y497939D01*
Y498166D01*
X1070224D01*
Y498393D01*
Y498620D01*
X1070451D01*
Y498847D01*
X1070678D01*
Y499073D01*
Y499300D01*
Y499527D01*
X1071131D01*
Y499754D01*
Y499981D01*
Y500207D01*
Y500434D01*
Y500661D01*
X1071585D01*
Y500888D01*
Y501115D01*
X1071812D01*
Y501341D01*
Y501568D01*
X1072039D01*
Y501795D01*
Y502022D01*
Y502248D01*
X1072492D01*
Y502475D01*
Y502702D01*
Y502929D01*
X1072719D01*
Y503156D01*
X1072946D01*
Y503382D01*
Y503609D01*
Y503836D01*
X1073173D01*
Y504063D01*
X1073399D01*
Y504290D01*
Y504516D01*
X1073626D01*
Y504743D01*
Y504970D01*
Y505197D01*
X1074080D01*
Y505424D01*
Y505650D01*
X1073853D01*
Y505877D01*
X1074306D01*
Y506104D01*
X1074533D01*
Y506331D01*
Y506558D01*
Y506784D01*
X1074987D01*
Y507011D01*
X1075667D01*
Y507238D01*
X1087914D01*
Y507011D01*
X1088594D01*
Y506784D01*
X1088821D01*
Y506558D01*
X1089501D01*
Y506331D01*
X1089728D01*
Y506104D01*
X1089955D01*
Y505877D01*
X1090182D01*
Y505650D01*
X1090408D01*
Y505424D01*
X1090635D01*
Y505197D01*
Y504970D01*
Y504743D01*
X1090862D01*
Y504516D01*
X1091089D01*
Y504290D01*
Y504063D01*
Y503836D01*
X1091316D01*
Y503609D01*
X1091542D01*
Y503382D01*
Y503156D01*
X1091769D01*
Y502929D01*
X1091996D01*
Y502702D01*
Y502475D01*
X1092223D01*
Y502248D01*
Y502022D01*
X1092450D01*
Y501795D01*
Y501568D01*
Y501341D01*
X1092676D01*
Y501115D01*
X1092903D01*
Y500888D01*
Y500661D01*
Y500434D01*
X1093130D01*
Y500207D01*
X1093810D01*
Y500434D01*
X1094037D01*
Y500661D01*
Y500888D01*
X1094264D01*
Y501115D01*
Y501341D01*
X1094491D01*
Y501568D01*
X1094717D01*
Y501795D01*
Y502022D01*
Y502248D01*
X1094944D01*
Y502475D01*
X1095171D01*
Y502702D01*
Y502929D01*
Y503156D01*
X1095625D01*
Y503382D01*
Y503609D01*
Y503836D01*
X1095851D01*
Y504063D01*
X1096078D01*
Y504290D01*
Y504516D01*
Y504743D01*
X1096305D01*
Y504970D01*
Y505197D01*
X1096758D01*
Y505424D01*
Y505650D01*
Y505877D01*
Y506104D01*
X1097212D01*
Y506331D01*
Y506558D01*
X1097439D01*
Y506784D01*
X1097666D01*
Y507011D01*
X1098346D01*
Y507238D01*
X1109686D01*
Y507011D01*
D02*
G37*
G36*
X1142570Y501115D02*
Y500888D01*
Y500661D01*
Y500434D01*
Y500207D01*
Y499981D01*
Y499754D01*
Y499527D01*
Y499300D01*
Y499073D01*
Y498847D01*
Y498620D01*
Y498393D01*
Y498166D01*
Y497939D01*
Y497713D01*
Y497486D01*
Y497259D01*
Y497032D01*
Y496806D01*
Y496579D01*
Y496352D01*
Y496125D01*
Y495898D01*
Y495672D01*
Y495445D01*
Y495218D01*
X1142343D01*
Y495445D01*
X1136447D01*
Y495672D01*
Y495898D01*
X1136220D01*
Y496125D01*
Y496352D01*
Y496579D01*
Y496806D01*
Y497032D01*
Y497259D01*
Y497486D01*
Y497713D01*
Y497939D01*
Y498166D01*
Y498393D01*
Y498620D01*
Y498847D01*
Y499073D01*
Y499300D01*
Y499527D01*
Y499754D01*
Y499981D01*
Y500207D01*
Y500434D01*
Y500661D01*
X1136447D01*
Y500888D01*
Y501115D01*
Y501341D01*
X1142570D01*
Y501115D01*
D02*
G37*
G36*
X1123973Y500434D02*
Y500207D01*
Y499981D01*
Y499754D01*
Y499527D01*
Y499300D01*
Y499073D01*
Y498847D01*
Y498620D01*
Y498393D01*
Y498166D01*
Y497939D01*
Y497713D01*
Y497486D01*
Y497259D01*
Y497032D01*
Y496806D01*
Y496579D01*
Y496352D01*
Y496125D01*
Y495898D01*
Y495672D01*
Y495445D01*
Y495218D01*
Y494991D01*
Y494765D01*
Y494538D01*
X1117850D01*
Y494765D01*
Y494991D01*
Y495218D01*
Y495445D01*
Y495672D01*
Y495898D01*
Y496125D01*
Y496352D01*
Y496579D01*
Y496806D01*
Y497032D01*
Y497259D01*
Y497486D01*
Y497713D01*
Y497939D01*
Y498166D01*
Y498393D01*
Y498620D01*
Y498847D01*
Y499073D01*
Y499300D01*
Y499527D01*
Y499754D01*
Y499981D01*
Y500207D01*
Y500434D01*
Y500661D01*
X1123973D01*
Y500434D01*
D02*
G37*
G36*
X1132818Y494991D02*
Y494765D01*
Y494538D01*
Y494311D01*
Y494084D01*
Y493857D01*
Y493630D01*
Y493404D01*
Y493177D01*
Y492950D01*
Y492723D01*
Y492497D01*
Y492270D01*
Y492043D01*
Y491816D01*
Y491589D01*
Y491363D01*
Y491136D01*
Y490909D01*
Y490682D01*
Y490456D01*
Y490229D01*
Y490002D01*
Y489775D01*
Y489548D01*
Y489322D01*
Y489095D01*
X1132138D01*
Y488868D01*
X1131911D01*
Y489095D01*
X1130777D01*
Y488868D01*
X1130550D01*
Y489095D01*
X1129870D01*
Y488868D01*
X1129643D01*
Y489095D01*
X1127829D01*
Y488868D01*
X1127602D01*
Y489095D01*
X1126921D01*
Y488868D01*
X1126695D01*
Y489095D01*
Y489322D01*
Y489548D01*
Y489775D01*
Y490002D01*
Y490229D01*
Y490456D01*
Y490682D01*
Y490909D01*
Y491136D01*
Y491363D01*
Y491589D01*
Y491816D01*
Y492043D01*
Y492270D01*
Y492497D01*
Y492723D01*
Y492950D01*
Y493177D01*
Y493404D01*
Y493630D01*
Y493857D01*
Y494084D01*
Y494311D01*
Y494538D01*
Y494765D01*
Y494991D01*
Y495218D01*
X1132818D01*
Y494991D01*
D02*
G37*
G36*
X312511Y292790D02*
Y292563D01*
Y292336D01*
Y292109D01*
Y291882D01*
Y291656D01*
Y291429D01*
Y291202D01*
Y290975D01*
Y290749D01*
Y290522D01*
Y290295D01*
Y290068D01*
Y289841D01*
Y289615D01*
Y289388D01*
Y289161D01*
Y288934D01*
Y288707D01*
Y288481D01*
Y288254D01*
Y288027D01*
Y287800D01*
Y287574D01*
Y287347D01*
Y287120D01*
Y286893D01*
X306388D01*
Y287120D01*
Y287347D01*
Y287574D01*
Y287800D01*
Y288027D01*
Y288254D01*
Y288481D01*
Y288707D01*
Y288934D01*
Y289161D01*
Y289388D01*
Y289615D01*
Y289841D01*
Y290068D01*
Y290295D01*
Y290522D01*
Y290749D01*
Y290975D01*
Y291202D01*
Y291429D01*
Y291656D01*
Y291882D01*
Y292109D01*
Y292336D01*
Y292563D01*
Y292790D01*
Y293016D01*
X312511D01*
Y292790D01*
D02*
G37*
G36*
X295729D02*
Y292563D01*
Y292336D01*
Y292109D01*
Y291882D01*
Y291656D01*
Y291429D01*
Y291202D01*
Y290975D01*
Y290749D01*
Y290522D01*
Y290295D01*
Y290068D01*
Y289841D01*
Y289615D01*
Y289388D01*
Y289161D01*
Y288934D01*
Y288707D01*
Y288481D01*
Y288254D01*
Y288027D01*
Y287800D01*
Y287574D01*
Y287347D01*
Y287120D01*
Y286893D01*
X289606D01*
Y287120D01*
Y287347D01*
Y287574D01*
Y287800D01*
Y288027D01*
Y288254D01*
Y288481D01*
Y288707D01*
Y288934D01*
Y289161D01*
Y289388D01*
Y289615D01*
Y289841D01*
Y290068D01*
Y290295D01*
Y290522D01*
Y290749D01*
Y290975D01*
Y291202D01*
Y291429D01*
Y291656D01*
Y291882D01*
Y292109D01*
Y292336D01*
Y292563D01*
Y292790D01*
Y293016D01*
X295729D01*
Y292790D01*
D02*
G37*
G36*
X327933D02*
Y292563D01*
Y292336D01*
Y292109D01*
Y291882D01*
Y291656D01*
Y291429D01*
Y291202D01*
Y290975D01*
Y290749D01*
Y290522D01*
Y290295D01*
Y290068D01*
Y289841D01*
Y289615D01*
Y289388D01*
Y289161D01*
Y288934D01*
Y288707D01*
Y288481D01*
Y288254D01*
Y288027D01*
Y287800D01*
Y287574D01*
Y287347D01*
Y287120D01*
Y286893D01*
X325212D01*
Y286666D01*
X324758D01*
Y286893D01*
X321810D01*
Y287120D01*
Y287347D01*
Y287574D01*
Y287800D01*
Y288027D01*
Y288254D01*
Y288481D01*
Y288707D01*
Y288934D01*
Y289161D01*
Y289388D01*
Y289615D01*
Y289841D01*
Y290068D01*
Y290295D01*
Y290522D01*
Y290749D01*
Y290975D01*
Y291202D01*
Y291429D01*
Y291656D01*
Y291882D01*
Y292109D01*
Y292336D01*
Y292563D01*
Y292790D01*
Y293016D01*
X327933D01*
Y292790D01*
D02*
G37*
G36*
X287791Y293016D02*
Y292790D01*
Y292563D01*
Y292336D01*
Y292109D01*
Y291882D01*
Y291656D01*
Y291429D01*
Y291202D01*
Y290975D01*
Y290749D01*
Y290522D01*
Y290295D01*
Y290068D01*
Y289841D01*
Y289615D01*
Y289388D01*
Y289161D01*
Y288934D01*
Y288707D01*
Y288481D01*
Y288254D01*
Y288027D01*
Y287800D01*
Y287574D01*
Y287347D01*
Y287120D01*
Y286893D01*
Y286666D01*
Y286440D01*
Y286213D01*
Y285986D01*
Y285759D01*
Y285532D01*
Y285306D01*
Y285079D01*
X294142D01*
Y284852D01*
Y284625D01*
Y284398D01*
Y284172D01*
Y283945D01*
Y283718D01*
Y283491D01*
Y283265D01*
Y283038D01*
Y282811D01*
Y282584D01*
Y282357D01*
Y282131D01*
Y281904D01*
Y281677D01*
Y281450D01*
Y281223D01*
Y280997D01*
Y280770D01*
Y280543D01*
Y280316D01*
Y280089D01*
Y279863D01*
Y279636D01*
Y279409D01*
Y279182D01*
Y278955D01*
X294368D01*
Y278729D01*
X297997D01*
Y278502D01*
X298224D01*
Y278275D01*
Y278048D01*
Y277822D01*
X298677D01*
Y277595D01*
Y277368D01*
X298904D01*
Y277141D01*
Y276914D01*
Y276688D01*
X299131D01*
Y276461D01*
Y276234D01*
X299358D01*
Y276007D01*
X299584D01*
Y275781D01*
Y275554D01*
X299811D01*
Y275327D01*
Y275100D01*
X300038D01*
Y274873D01*
X300265D01*
Y274646D01*
X300038D01*
Y274420D01*
X300265D01*
Y274193D01*
X300492D01*
Y273966D01*
Y273739D01*
X300718D01*
Y273513D01*
Y273286D01*
X301172D01*
Y273059D01*
Y272832D01*
Y272605D01*
Y272379D01*
X301399D01*
Y272152D01*
X301626D01*
Y271925D01*
Y271698D01*
Y271472D01*
X301852D01*
Y271245D01*
X302079D01*
Y271018D01*
Y270791D01*
X302306D01*
Y270564D01*
Y270338D01*
X302533D01*
Y270111D01*
Y269884D01*
X302759D01*
Y269657D01*
X302986D01*
Y269430D01*
Y269204D01*
X303213D01*
Y268977D01*
Y268750D01*
X303440D01*
Y268523D01*
Y268297D01*
X303667D01*
Y268070D01*
X303893D01*
Y267843D01*
Y267616D01*
Y267389D01*
X304120D01*
Y267162D01*
Y266936D01*
Y266709D01*
X304574D01*
Y266482D01*
Y266255D01*
X304801D01*
Y266029D01*
Y265802D01*
X305027D01*
Y265575D01*
Y265348D01*
Y265121D01*
X305254D01*
Y264895D01*
X305481D01*
Y264668D01*
Y264441D01*
X305708D01*
Y264214D01*
Y263988D01*
Y263761D01*
X306161D01*
Y263534D01*
Y263307D01*
Y263080D01*
X306388D01*
Y262854D01*
X306615D01*
Y262627D01*
Y262400D01*
Y262173D01*
X306842D01*
Y261946D01*
Y261720D01*
X307069D01*
Y261493D01*
X307295D01*
Y261266D01*
Y261039D01*
X307522D01*
Y260812D01*
Y260586D01*
X307749D01*
Y260359D01*
X307976D01*
Y260132D01*
Y259905D01*
Y259678D01*
X308202D01*
Y259452D01*
Y259225D01*
X308429D01*
Y258998D01*
X308656D01*
Y258771D01*
Y258545D01*
Y258318D01*
X308883D01*
Y258091D01*
X309110D01*
Y257864D01*
Y257637D01*
X309336D01*
Y257411D01*
X309563D01*
Y257184D01*
Y256957D01*
Y256730D01*
X309790D01*
Y256503D01*
X310017D01*
Y256277D01*
Y256050D01*
X310243D01*
Y255823D01*
Y255596D01*
Y255369D01*
X310697D01*
Y255143D01*
Y254916D01*
Y254689D01*
X310924D01*
Y254462D01*
Y254236D01*
Y254009D01*
X311151D01*
Y253782D01*
X311378D01*
Y253555D01*
X311604D01*
Y253328D01*
X311378D01*
Y253102D01*
X311831D01*
Y252875D01*
Y252648D01*
Y252421D01*
X312058D01*
Y252194D01*
Y251968D01*
Y251741D01*
X312285D01*
Y251514D01*
X312058D01*
Y251287D01*
Y251061D01*
X311831D01*
Y250834D01*
X311378D01*
Y250607D01*
X305481D01*
Y250834D01*
X304120D01*
Y251061D01*
X303667D01*
Y251287D01*
X302533D01*
Y251514D01*
X301852D01*
Y251741D01*
X301172D01*
Y251968D01*
X300945D01*
Y252194D01*
X300265D01*
Y252421D01*
X299811D01*
Y252648D01*
X299358D01*
Y252875D01*
X298904D01*
Y253102D01*
X298451D01*
Y253328D01*
X298224D01*
Y253555D01*
X297997D01*
Y253782D01*
X297543D01*
Y254009D01*
X297090D01*
Y254236D01*
X296863D01*
Y254462D01*
X296636D01*
Y254689D01*
X296183D01*
Y254916D01*
X295956D01*
Y255143D01*
X295729D01*
Y255369D01*
X295502D01*
Y255596D01*
X295275D01*
Y255823D01*
X295049D01*
Y256050D01*
X294822D01*
Y256277D01*
X294595D01*
Y256503D01*
X294368D01*
Y256730D01*
X294142D01*
Y256957D01*
X293915D01*
Y257184D01*
X293688D01*
Y257411D01*
X293461D01*
Y257637D01*
Y257864D01*
Y258091D01*
X293008D01*
Y258318D01*
Y258545D01*
X292781D01*
Y258771D01*
X292554D01*
Y258998D01*
Y259225D01*
Y259452D01*
Y259678D01*
X292327D01*
Y259905D01*
X292100D01*
Y260132D01*
Y260359D01*
X291874D01*
Y260586D01*
Y260812D01*
X291647D01*
Y261039D01*
X291420D01*
Y261266D01*
Y261493D01*
Y261720D01*
X291193D01*
Y261946D01*
X290966D01*
Y262173D01*
Y262400D01*
Y262627D01*
X290513D01*
Y262854D01*
Y263080D01*
Y263307D01*
X290286D01*
Y263534D01*
Y263761D01*
X290059D01*
Y263988D01*
Y264214D01*
X289832D01*
Y264441D01*
X289606D01*
Y264668D01*
Y264895D01*
Y265121D01*
X289152D01*
Y265348D01*
Y265575D01*
Y265802D01*
Y266029D01*
X288925D01*
Y266255D01*
X288699D01*
Y266482D01*
Y266709D01*
Y266936D01*
X288472D01*
Y267162D01*
X288245D01*
Y267389D01*
X288018D01*
Y267616D01*
Y267843D01*
Y268070D01*
X287565D01*
Y268297D01*
X287791D01*
Y268523D01*
X287565D01*
Y268750D01*
X287338D01*
Y268977D01*
Y269204D01*
X287111D01*
Y269430D01*
Y269657D01*
X286658D01*
Y269884D01*
Y270111D01*
Y270338D01*
Y270564D01*
Y270791D01*
X286431D01*
Y271018D01*
X286204D01*
Y271245D01*
Y271472D01*
X285977D01*
Y271698D01*
X285750D01*
Y271925D01*
Y272152D01*
Y272379D01*
X285524D01*
Y272605D01*
X285297D01*
Y272832D01*
X285070D01*
Y273059D01*
X285297D01*
Y273286D01*
X285070D01*
Y273513D01*
X284843D01*
Y273739D01*
X284616D01*
Y273966D01*
Y274193D01*
Y274420D01*
X284163D01*
Y274646D01*
Y274873D01*
Y275100D01*
Y275327D01*
X283936D01*
Y275554D01*
X283709D01*
Y275781D01*
Y276007D01*
Y276234D01*
X283482D01*
Y276461D01*
X283256D01*
Y276688D01*
Y276914D01*
Y277141D01*
X283029D01*
Y277368D01*
X282802D01*
Y277595D01*
Y277822D01*
Y278048D01*
X282348D01*
Y278275D01*
Y278502D01*
X282122D01*
Y278729D01*
Y278955D01*
Y279182D01*
X281895D01*
Y279409D01*
X281668D01*
Y279636D01*
Y279863D01*
X280988D01*
Y279636D01*
Y279409D01*
Y279182D01*
X280761D01*
Y278955D01*
Y278729D01*
X280534D01*
Y278502D01*
X280307D01*
Y278275D01*
X280534D01*
Y278048D01*
X280307D01*
Y277822D01*
X280081D01*
Y277595D01*
X279854D01*
Y277368D01*
Y277141D01*
Y276914D01*
X279627D01*
Y276688D01*
Y276461D01*
X279400D01*
Y276234D01*
Y276007D01*
X279174D01*
Y275781D01*
Y275554D01*
X278947D01*
Y275327D01*
Y275100D01*
X278720D01*
Y274873D01*
Y274646D01*
X278493D01*
Y274420D01*
Y274193D01*
X278266D01*
Y273966D01*
Y273739D01*
Y273513D01*
Y273286D01*
Y273059D01*
X278493D01*
Y272832D01*
Y272605D01*
Y272379D01*
X278720D01*
Y272152D01*
X278947D01*
Y271925D01*
Y271698D01*
X279174D01*
Y271472D01*
Y271245D01*
X279400D01*
Y271018D01*
Y270791D01*
X279627D01*
Y270564D01*
Y270338D01*
X279854D01*
Y270111D01*
X280081D01*
Y269884D01*
Y269657D01*
X280307D01*
Y269430D01*
Y269204D01*
X280534D01*
Y268977D01*
Y268750D01*
X280761D01*
Y268523D01*
Y268297D01*
X280988D01*
Y268070D01*
X281215D01*
Y267843D01*
Y267616D01*
Y267389D01*
X281441D01*
Y267162D01*
Y266936D01*
X281895D01*
Y266709D01*
Y266482D01*
Y266255D01*
Y266029D01*
X282348D01*
Y265802D01*
Y265575D01*
Y265348D01*
Y265121D01*
X282802D01*
Y264895D01*
Y264668D01*
X283029D01*
Y264441D01*
X282802D01*
Y264214D01*
X283029D01*
Y263988D01*
X283256D01*
Y263761D01*
X283482D01*
Y263534D01*
Y263307D01*
X283709D01*
Y263080D01*
Y262854D01*
X283936D01*
Y262627D01*
Y262400D01*
X284163D01*
Y262173D01*
Y261946D01*
X284390D01*
Y261720D01*
Y261493D01*
Y261266D01*
X284616D01*
Y261039D01*
X284843D01*
Y260812D01*
Y260586D01*
Y260359D01*
X285297D01*
Y260132D01*
Y259905D01*
Y259678D01*
X285524D01*
Y259452D01*
Y259225D01*
X285750D01*
Y258998D01*
X285977D01*
Y258771D01*
Y258545D01*
Y258318D01*
X286431D01*
Y258091D01*
Y257864D01*
Y257637D01*
X286658D01*
Y257411D01*
X286884D01*
Y257184D01*
Y256957D01*
Y256730D01*
X287111D01*
Y256503D01*
X287338D01*
Y256277D01*
Y256050D01*
X287565D01*
Y255823D01*
Y255596D01*
X287791D01*
Y255369D01*
Y255143D01*
Y254916D01*
X288018D01*
Y254689D01*
X288245D01*
Y254462D01*
Y254236D01*
Y254009D01*
X288699D01*
Y253782D01*
Y253555D01*
X288925D01*
Y253328D01*
Y253102D01*
Y252875D01*
X289152D01*
Y252648D01*
X289379D01*
Y252421D01*
X289606D01*
Y252194D01*
Y251968D01*
Y251741D01*
Y251514D01*
Y251287D01*
X289379D01*
Y251061D01*
X289152D01*
Y250834D01*
X288699D01*
Y250607D01*
X282802D01*
Y250834D01*
X281668D01*
Y251061D01*
X280988D01*
Y251287D01*
X279854D01*
Y251514D01*
X279174D01*
Y251741D01*
X278720D01*
Y251968D01*
X278266D01*
Y252194D01*
X277586D01*
Y252421D01*
X277132D01*
Y252648D01*
X276679D01*
Y252875D01*
X276452D01*
Y253102D01*
X275998D01*
Y253328D01*
X275545D01*
Y253555D01*
X275318D01*
Y253782D01*
X274865D01*
Y254009D01*
X274411D01*
Y254236D01*
X274184D01*
Y254462D01*
X273957D01*
Y254689D01*
X273731D01*
Y254916D01*
X273277D01*
Y255143D01*
X273050D01*
Y255369D01*
X272823D01*
Y255596D01*
Y255823D01*
X272370D01*
Y256050D01*
X272143D01*
Y256277D01*
X271916D01*
Y256503D01*
X271689D01*
Y256730D01*
X271463D01*
Y256957D01*
Y257184D01*
X271236D01*
Y257411D01*
X271009D01*
Y257637D01*
X270782D01*
Y257864D01*
Y258091D01*
X270329D01*
Y258318D01*
Y258545D01*
Y258771D01*
X269875D01*
Y258998D01*
Y259225D01*
Y259452D01*
Y259678D01*
X269648D01*
Y259905D01*
X269422D01*
Y260132D01*
Y260359D01*
X269195D01*
Y260586D01*
Y260812D01*
X268968D01*
Y261039D01*
Y261266D01*
X268741D01*
Y261493D01*
Y261720D01*
X268514D01*
Y261946D01*
X268288D01*
Y262173D01*
Y262400D01*
X268061D01*
Y262627D01*
Y262854D01*
X267834D01*
Y263080D01*
Y263307D01*
Y263534D01*
X267380D01*
Y263761D01*
Y263988D01*
X267154D01*
Y264214D01*
Y264441D01*
Y264668D01*
X266927D01*
Y264895D01*
Y265121D01*
X266473D01*
Y265348D01*
Y265575D01*
Y265802D01*
X266246D01*
Y266029D01*
Y266255D01*
X266020D01*
Y266482D01*
Y266709D01*
X265793D01*
Y266936D01*
Y267162D01*
X265566D01*
Y267389D01*
X265339D01*
Y267616D01*
Y267843D01*
Y268070D01*
X265113D01*
Y268297D01*
X264886D01*
Y268523D01*
Y268750D01*
X264659D01*
Y268977D01*
Y269204D01*
X264432D01*
Y269430D01*
Y269657D01*
X264205D01*
Y269884D01*
X263979D01*
Y270111D01*
Y270338D01*
Y270564D01*
X263752D01*
Y270791D01*
Y271018D01*
X263525D01*
Y271245D01*
Y271472D01*
Y271698D01*
X263071D01*
Y271925D01*
Y272152D01*
Y272379D01*
X262845D01*
Y272605D01*
X262618D01*
Y272832D01*
Y273059D01*
X262391D01*
Y273286D01*
Y273513D01*
X262164D01*
Y273739D01*
X261938D01*
Y273966D01*
X262164D01*
Y274193D01*
X261938D01*
Y274420D01*
X261711D01*
Y274646D01*
X261484D01*
Y274873D01*
Y275100D01*
X261257D01*
Y275327D01*
Y275554D01*
X261030D01*
Y275781D01*
Y276007D01*
Y276234D01*
X260804D01*
Y276461D01*
Y276688D01*
X260577D01*
Y276914D01*
Y277141D01*
X260350D01*
Y277368D01*
X259670D01*
Y277141D01*
Y276914D01*
X259443D01*
Y276688D01*
Y276461D01*
X259216D01*
Y276234D01*
Y276007D01*
X258989D01*
Y275781D01*
X258762D01*
Y275554D01*
Y275327D01*
Y275100D01*
X258536D01*
Y274873D01*
X258309D01*
Y274646D01*
Y274420D01*
Y274193D01*
X257855D01*
Y273966D01*
Y273739D01*
Y273513D01*
X257628D01*
Y273286D01*
Y273059D01*
X257402D01*
Y272832D01*
Y272605D01*
X257175D01*
Y272379D01*
Y272152D01*
Y271925D01*
X256948D01*
Y271698D01*
X256721D01*
Y271472D01*
Y271245D01*
X256495D01*
Y271018D01*
X256268D01*
Y270791D01*
Y270564D01*
X256041D01*
Y270338D01*
Y270111D01*
X255814D01*
Y269884D01*
Y269657D01*
X255587D01*
Y269430D01*
Y269204D01*
X255361D01*
Y268977D01*
Y268750D01*
Y268523D01*
X254907D01*
Y268297D01*
Y268070D01*
Y267843D01*
X254680D01*
Y267616D01*
X254454D01*
Y267389D01*
Y267162D01*
Y266936D01*
X254227D01*
Y266709D01*
X254000D01*
Y266482D01*
Y266255D01*
X253773D01*
Y266029D01*
Y265802D01*
X253546D01*
Y265575D01*
X253319D01*
Y265348D01*
Y265121D01*
Y264895D01*
X253093D01*
Y264668D01*
Y264441D01*
X252866D01*
Y264214D01*
X252639D01*
Y263988D01*
Y263761D01*
X252412D01*
Y263534D01*
Y263307D01*
X252186D01*
Y263080D01*
Y262854D01*
X251959D01*
Y262627D01*
Y262400D01*
Y262173D01*
X251732D01*
Y261946D01*
Y261720D01*
X251505D01*
Y261493D01*
Y261266D01*
X251052D01*
Y261039D01*
Y260812D01*
X250825D01*
Y260586D01*
Y260359D01*
Y260132D01*
X250598D01*
Y259905D01*
X250371D01*
Y259678D01*
Y259452D01*
Y259225D01*
X250145D01*
Y258998D01*
X249918D01*
Y258771D01*
Y258545D01*
Y258318D01*
X249464D01*
Y258091D01*
Y257864D01*
Y257637D01*
X249237D01*
Y257411D01*
Y257184D01*
X249011D01*
Y256957D01*
Y256730D01*
X248784D01*
Y256503D01*
Y256277D01*
X248330D01*
Y256050D01*
Y255823D01*
Y255596D01*
X248103D01*
Y255369D01*
Y255143D01*
Y254916D01*
X247877D01*
Y254689D01*
X247650D01*
Y254462D01*
Y254236D01*
X247423D01*
Y254009D01*
Y253782D01*
X247196D01*
Y253555D01*
X246970D01*
Y253328D01*
Y253102D01*
Y252875D01*
X246743D01*
Y252648D01*
X246516D01*
Y252421D01*
Y252194D01*
X246289D01*
Y251968D01*
Y251741D01*
Y251514D01*
X245835D01*
Y251287D01*
Y251061D01*
Y250834D01*
X245382D01*
Y250607D01*
X232001D01*
Y250834D01*
X231548D01*
Y251061D01*
X231321D01*
Y251287D01*
X230868D01*
Y251514D01*
X230414D01*
Y251741D01*
Y251968D01*
X230187D01*
Y252194D01*
X229960D01*
Y252421D01*
Y252648D01*
Y252875D01*
X229507D01*
Y253102D01*
Y253328D01*
X229280D01*
Y253555D01*
Y253782D01*
X229053D01*
Y254009D01*
Y254236D01*
Y254462D01*
X228826D01*
Y254689D01*
X228600D01*
Y254916D01*
Y255143D01*
X228373D01*
Y255369D01*
Y255596D01*
Y255823D01*
X227919D01*
Y256050D01*
X228146D01*
Y256277D01*
X227919D01*
Y256503D01*
X227692D01*
Y256730D01*
X227466D01*
Y256957D01*
Y257184D01*
Y257411D01*
X226785D01*
Y257184D01*
X226558D01*
Y256957D01*
Y256730D01*
X226332D01*
Y256503D01*
Y256277D01*
X226105D01*
Y256050D01*
X225878D01*
Y255823D01*
X225651D01*
Y255596D01*
Y255369D01*
Y255143D01*
X225424D01*
Y254916D01*
Y254689D01*
X225198D01*
Y254462D01*
Y254236D01*
X224971D01*
Y254009D01*
Y253782D01*
X224744D01*
Y253555D01*
Y253328D01*
X224517D01*
Y253102D01*
X224291D01*
Y252875D01*
Y252648D01*
X224064D01*
Y252421D01*
Y252194D01*
Y251968D01*
X223837D01*
Y251741D01*
X223610D01*
Y251514D01*
Y251287D01*
X223383D01*
Y251061D01*
Y250834D01*
X222703D01*
Y250607D01*
X209776D01*
Y250834D01*
X209096D01*
Y251061D01*
X208869D01*
Y251287D01*
X208415D01*
Y251514D01*
X208189D01*
Y251741D01*
X207962D01*
Y251968D01*
X207735D01*
Y252194D01*
X207508D01*
Y252421D01*
Y252648D01*
X207281D01*
Y252875D01*
Y253102D01*
Y253328D01*
X206828D01*
Y253555D01*
Y253782D01*
Y254009D01*
X206601D01*
Y254236D01*
X206374D01*
Y254462D01*
Y254689D01*
Y254916D01*
X206147D01*
Y255143D01*
Y255369D01*
X205921D01*
Y255596D01*
X205694D01*
Y255823D01*
X205467D01*
Y256050D01*
Y256277D01*
X205240D01*
Y256503D01*
Y256730D01*
X205014D01*
Y256957D01*
Y257184D01*
X204787D01*
Y257411D01*
Y257637D01*
X204560D01*
Y257864D01*
X204333D01*
Y258091D01*
Y258318D01*
Y258545D01*
Y258771D01*
X204106D01*
Y258998D01*
X203880D01*
Y259225D01*
Y259452D01*
Y259678D01*
X203426D01*
Y259905D01*
Y260132D01*
Y260359D01*
X203199D01*
Y260586D01*
Y260812D01*
X202972D01*
Y261039D01*
X202746D01*
Y261266D01*
Y261493D01*
X202519D01*
Y261720D01*
X202292D01*
Y261946D01*
Y262173D01*
Y262400D01*
Y262627D01*
X201838D01*
Y262854D01*
Y263080D01*
X201612D01*
Y263307D01*
Y263534D01*
Y263761D01*
X201385D01*
Y263988D01*
Y264214D01*
X201158D01*
Y264441D01*
X200931D01*
Y264668D01*
Y264895D01*
X200705D01*
Y265121D01*
Y265348D01*
X200478D01*
Y265575D01*
Y265802D01*
Y266029D01*
X200024D01*
Y266255D01*
Y266482D01*
Y266709D01*
X199797D01*
Y266936D01*
Y267162D01*
X199571D01*
Y267389D01*
X199344D01*
Y267616D01*
Y267843D01*
X199117D01*
Y268070D01*
Y268297D01*
X198890D01*
Y268523D01*
Y268750D01*
Y268977D01*
X198437D01*
Y269204D01*
Y269430D01*
X198210D01*
Y269657D01*
Y269884D01*
Y270111D01*
X197983D01*
Y270338D01*
Y270564D01*
X197756D01*
Y270791D01*
Y271018D01*
X197530D01*
Y271245D01*
X197303D01*
Y271472D01*
Y271698D01*
X197076D01*
Y271925D01*
X196849D01*
Y272152D01*
X197076D01*
Y272379D01*
X196622D01*
Y272605D01*
Y272832D01*
Y273059D01*
X196396D01*
Y273286D01*
Y273513D01*
X196169D01*
Y273739D01*
Y273966D01*
X195942D01*
Y274193D01*
X195715D01*
Y274420D01*
X195488D01*
Y274646D01*
Y274873D01*
Y275100D01*
Y275327D01*
X195035D01*
Y275554D01*
Y275781D01*
Y276007D01*
X194808D01*
Y276234D01*
Y276461D01*
Y276688D01*
X194354D01*
Y276914D01*
Y277141D01*
Y277368D01*
X194128D01*
Y277595D01*
X193901D01*
Y277822D01*
Y278048D01*
Y278275D01*
X193674D01*
Y278502D01*
X193447D01*
Y278729D01*
X193221D01*
Y278955D01*
Y279182D01*
X192994D01*
Y279409D01*
Y279636D01*
Y279863D01*
Y280089D01*
X192540D01*
Y280316D01*
Y280543D01*
Y280770D01*
X192313D01*
Y280997D01*
X192087D01*
Y281223D01*
Y281450D01*
X191860D01*
Y281677D01*
Y281904D01*
Y282131D01*
X191633D01*
Y282357D01*
X191406D01*
Y282584D01*
Y282811D01*
Y283038D01*
X190953D01*
Y283265D01*
Y283491D01*
X190726D01*
Y283718D01*
Y283945D01*
X190499D01*
Y284172D01*
Y284398D01*
Y284625D01*
X190272D01*
Y284852D01*
Y285079D01*
X190046D01*
Y285306D01*
X189819D01*
Y285532D01*
Y285759D01*
Y285986D01*
X189592D01*
Y286213D01*
Y286440D01*
X189365D01*
Y286666D01*
X189138D01*
Y286893D01*
Y287120D01*
Y287347D01*
X188911D01*
Y287574D01*
X188458D01*
Y287800D01*
X188685D01*
Y288027D01*
X188458D01*
Y288254D01*
Y288481D01*
X188231D01*
Y288707D01*
X188004D01*
Y288934D01*
Y289161D01*
Y289388D01*
X187778D01*
Y289615D01*
X187551D01*
Y289841D01*
Y290068D01*
X187324D01*
Y290295D01*
Y290522D01*
X187097D01*
Y290749D01*
X186870D01*
Y290975D01*
Y291202D01*
Y291429D01*
X186644D01*
Y291656D01*
X186417D01*
Y291882D01*
Y292109D01*
Y292336D01*
Y292563D01*
X186644D01*
Y292790D01*
X186870D01*
Y293016D01*
X187551D01*
Y293243D01*
X192313D01*
Y293016D01*
X194128D01*
Y292790D01*
X194581D01*
Y292563D01*
X195715D01*
Y292336D01*
X196396D01*
Y292109D01*
X197076D01*
Y291882D01*
X197530D01*
Y291656D01*
X198210D01*
Y291429D01*
X198664D01*
Y291202D01*
X199117D01*
Y290975D01*
X199571D01*
Y290749D01*
X200024D01*
Y290522D01*
X200478D01*
Y290295D01*
X200931D01*
Y290068D01*
X201158D01*
Y289841D01*
X201385D01*
Y289615D01*
X201838D01*
Y289388D01*
X202065D01*
Y289161D01*
X202292D01*
Y288934D01*
X202746D01*
Y288707D01*
Y288481D01*
X203199D01*
Y288254D01*
X203426D01*
Y288027D01*
X203653D01*
Y287800D01*
Y287574D01*
X204106D01*
Y287347D01*
X204333D01*
Y287120D01*
X204560D01*
Y286893D01*
X204787D01*
Y286666D01*
X205014D01*
Y286440D01*
Y286213D01*
X205240D01*
Y285986D01*
X205467D01*
Y285759D01*
Y285532D01*
X205694D01*
Y285306D01*
Y285079D01*
X205921D01*
Y284852D01*
Y284625D01*
X206147D01*
Y284398D01*
X206374D01*
Y284172D01*
X206601D01*
Y283945D01*
Y283718D01*
Y283491D01*
X206828D01*
Y283265D01*
X207055D01*
Y283038D01*
Y282811D01*
Y282584D01*
X207281D01*
Y282357D01*
X207508D01*
Y282131D01*
Y281904D01*
Y281677D01*
X207735D01*
Y281450D01*
X207962D01*
Y281223D01*
Y280997D01*
X208189D01*
Y280770D01*
X208415D01*
Y280543D01*
Y280316D01*
Y280089D01*
X208642D01*
Y279863D01*
Y279636D01*
X208869D01*
Y279409D01*
Y279182D01*
X209096D01*
Y278955D01*
Y278729D01*
X209549D01*
Y278502D01*
X209322D01*
Y278275D01*
X209549D01*
Y278048D01*
X209776D01*
Y277822D01*
Y277595D01*
X210003D01*
Y277368D01*
Y277141D01*
X210230D01*
Y276914D01*
Y276688D01*
X210457D01*
Y276461D01*
X210683D01*
Y276234D01*
Y276007D01*
X210910D01*
Y275781D01*
Y275554D01*
Y275327D01*
X211137D01*
Y275100D01*
X211364D01*
Y274873D01*
Y274646D01*
X211590D01*
Y274420D01*
Y274193D01*
X211817D01*
Y273966D01*
Y273739D01*
X212044D01*
Y273513D01*
Y273286D01*
X212271D01*
Y273059D01*
X212498D01*
Y272832D01*
Y272605D01*
Y272379D01*
X212951D01*
Y272152D01*
Y271925D01*
Y271698D01*
X213178D01*
Y271472D01*
Y271245D01*
X213405D01*
Y271018D01*
Y270791D01*
X213631D01*
Y270564D01*
Y270338D01*
X213858D01*
Y270111D01*
Y269884D01*
X214085D01*
Y269657D01*
Y269430D01*
X214312D01*
Y269204D01*
Y268977D01*
X214539D01*
Y268750D01*
X214765D01*
Y268523D01*
Y268297D01*
X214992D01*
Y268070D01*
Y267843D01*
X215219D01*
Y267616D01*
X215446D01*
Y267389D01*
X215219D01*
Y267162D01*
X215446D01*
Y266936D01*
X215673D01*
Y266709D01*
Y266482D01*
X215899D01*
Y266255D01*
Y266029D01*
X216126D01*
Y265802D01*
X216353D01*
Y265575D01*
Y265348D01*
X216580D01*
Y265121D01*
Y264895D01*
X216807D01*
Y264668D01*
Y264441D01*
X217033D01*
Y264214D01*
Y263988D01*
X217260D01*
Y263761D01*
X217714D01*
Y263988D01*
Y264214D01*
X217941D01*
Y264441D01*
Y264668D01*
X218167D01*
Y264895D01*
Y265121D01*
Y265348D01*
X218394D01*
Y265575D01*
Y265802D01*
X218621D01*
Y266029D01*
Y266255D01*
X218848D01*
Y266482D01*
Y266709D01*
X219074D01*
Y266936D01*
Y267162D01*
X219301D01*
Y267389D01*
Y267616D01*
X219528D01*
Y267843D01*
Y268070D01*
Y268297D01*
X219755D01*
Y268523D01*
X219982D01*
Y268750D01*
X220208D01*
Y268977D01*
Y269204D01*
Y269430D01*
X220435D01*
Y269657D01*
Y269884D01*
Y270111D01*
Y270338D01*
Y270564D01*
X219982D01*
Y270791D01*
Y271018D01*
X219755D01*
Y271245D01*
Y271472D01*
Y271698D01*
X219528D01*
Y271925D01*
X219301D01*
Y272152D01*
Y272379D01*
Y272605D01*
X219074D01*
Y272832D01*
Y273059D01*
X218848D01*
Y273286D01*
Y273513D01*
X218621D01*
Y273739D01*
Y273966D01*
Y274193D01*
X218167D01*
Y274420D01*
Y274646D01*
Y274873D01*
X217714D01*
Y275100D01*
Y275327D01*
Y275554D01*
X217487D01*
Y275781D01*
Y276007D01*
X217260D01*
Y276234D01*
Y276461D01*
X217033D01*
Y276688D01*
Y276914D01*
X216807D01*
Y277141D01*
X216580D01*
Y277368D01*
Y277595D01*
Y277822D01*
X216353D01*
Y278048D01*
X216126D01*
Y278275D01*
Y278502D01*
X215899D01*
Y278729D01*
Y278955D01*
X215673D01*
Y279182D01*
Y279409D01*
Y279636D01*
X215446D01*
Y279863D01*
X215219D01*
Y280089D01*
Y280316D01*
X214992D01*
Y280543D01*
Y280770D01*
X214765D01*
Y280997D01*
Y281223D01*
X214539D01*
Y281450D01*
X214312D01*
Y281677D01*
X214085D01*
Y281904D01*
Y282131D01*
Y282357D01*
Y282584D01*
X213631D01*
Y282811D01*
Y283038D01*
Y283265D01*
X213405D01*
Y283491D01*
X213178D01*
Y283718D01*
Y283945D01*
Y284172D01*
X212951D01*
Y284398D01*
Y284625D01*
X212724D01*
Y284852D01*
X212498D01*
Y285079D01*
Y285306D01*
X212271D01*
Y285532D01*
X212044D01*
Y285759D01*
Y285986D01*
Y286213D01*
X211817D01*
Y286440D01*
Y286666D01*
X211590D01*
Y286893D01*
Y287120D01*
X211364D01*
Y287347D01*
Y287574D01*
X211137D01*
Y287800D01*
X210910D01*
Y288027D01*
Y288254D01*
X210683D01*
Y288481D01*
Y288707D01*
Y288934D01*
X210457D01*
Y289161D01*
X210230D01*
Y289388D01*
Y289615D01*
X210003D01*
Y289841D01*
Y290068D01*
X209776D01*
Y290295D01*
Y290522D01*
X209549D01*
Y290749D01*
X209322D01*
Y290975D01*
Y291202D01*
X209096D01*
Y291429D01*
Y291656D01*
Y291882D01*
X208869D01*
Y292109D01*
X209096D01*
Y292336D01*
Y292563D01*
Y292790D01*
X209549D01*
Y293016D01*
X210003D01*
Y293243D01*
X214765D01*
Y293016D01*
X216580D01*
Y292790D01*
X217033D01*
Y292563D01*
X218167D01*
Y292336D01*
X219074D01*
Y292109D01*
X219755D01*
Y291882D01*
X219982D01*
Y291656D01*
X220662D01*
Y291429D01*
X221342D01*
Y291202D01*
X221569D01*
Y290975D01*
X222023D01*
Y290749D01*
X222250D01*
Y290522D01*
X222930D01*
Y290295D01*
X223157D01*
Y290068D01*
X223610D01*
Y289841D01*
X223837D01*
Y289615D01*
X224291D01*
Y289388D01*
X224517D01*
Y289161D01*
X224744D01*
Y288934D01*
X224971D01*
Y288707D01*
X225198D01*
Y288481D01*
X225651D01*
Y288254D01*
X225878D01*
Y288027D01*
X226105D01*
Y287800D01*
X226332D01*
Y287574D01*
X226558D01*
Y287347D01*
X226785D01*
Y287120D01*
X227012D01*
Y286893D01*
X227239D01*
Y286666D01*
Y286440D01*
X227692D01*
Y286213D01*
Y285986D01*
X227919D01*
Y285759D01*
X228146D01*
Y285532D01*
Y285306D01*
X228373D01*
Y285079D01*
Y284852D01*
X228600D01*
Y284625D01*
Y284398D01*
Y284172D01*
X228826D01*
Y283945D01*
X229053D01*
Y283718D01*
Y283491D01*
Y283265D01*
X229507D01*
Y283038D01*
Y282811D01*
X229734D01*
Y282584D01*
Y282357D01*
Y282131D01*
X230187D01*
Y281904D01*
Y281677D01*
Y281450D01*
Y281223D01*
X230414D01*
Y280997D01*
X230641D01*
Y280770D01*
Y280543D01*
X230868D01*
Y280316D01*
Y280089D01*
X231094D01*
Y279863D01*
Y279636D01*
X231321D01*
Y279409D01*
Y279182D01*
X231548D01*
Y278955D01*
X231775D01*
Y278729D01*
X232001D01*
Y278502D01*
Y278275D01*
Y278048D01*
X232228D01*
Y277822D01*
X232455D01*
Y277595D01*
Y277368D01*
X232682D01*
Y277141D01*
Y276914D01*
X232909D01*
Y276688D01*
Y276461D01*
X233135D01*
Y276234D01*
Y276007D01*
X233362D01*
Y275781D01*
Y275554D01*
X233589D01*
Y275327D01*
Y275100D01*
Y274873D01*
X233816D01*
Y274646D01*
X234042D01*
Y274420D01*
Y274193D01*
Y273966D01*
X234496D01*
Y273739D01*
Y273513D01*
Y273286D01*
X234723D01*
Y273059D01*
X234950D01*
Y272832D01*
Y272605D01*
X235176D01*
Y272379D01*
Y272152D01*
X235403D01*
Y271925D01*
Y271698D01*
X235630D01*
Y271472D01*
Y271245D01*
X235857D01*
Y271018D01*
Y270791D01*
X236084D01*
Y270564D01*
Y270338D01*
X236310D01*
Y270111D01*
Y269884D01*
X236537D01*
Y269657D01*
Y269430D01*
Y269204D01*
X236991D01*
Y268977D01*
Y268750D01*
Y268523D01*
X237218D01*
Y268297D01*
X237444D01*
Y268070D01*
Y267843D01*
X237671D01*
Y267616D01*
Y267389D01*
Y267162D01*
X238125D01*
Y266936D01*
Y266709D01*
X238351D01*
Y266482D01*
Y266255D01*
X238805D01*
Y266482D01*
Y266709D01*
X239032D01*
Y266936D01*
X239259D01*
Y267162D01*
Y267389D01*
X239485D01*
Y267616D01*
Y267843D01*
X239712D01*
Y268070D01*
Y268297D01*
X239939D01*
Y268523D01*
Y268750D01*
Y268977D01*
X240393D01*
Y269204D01*
Y269430D01*
Y269657D01*
X240846D01*
Y269884D01*
Y270111D01*
Y270338D01*
Y270564D01*
X241073D01*
Y270791D01*
X241300D01*
Y271018D01*
Y271245D01*
X241527D01*
Y271472D01*
Y271698D01*
X241753D01*
Y271925D01*
Y272152D01*
X241980D01*
Y272379D01*
Y272605D01*
Y272832D01*
X242207D01*
Y273059D01*
Y273286D01*
X242661D01*
Y273513D01*
Y273739D01*
Y273966D01*
X242887D01*
Y274193D01*
X243114D01*
Y274420D01*
Y274646D01*
Y274873D01*
X243341D01*
Y275100D01*
X243568D01*
Y275327D01*
Y275554D01*
X243794D01*
Y275781D01*
Y276007D01*
Y276234D01*
X244248D01*
Y276461D01*
Y276688D01*
Y276914D01*
X244475D01*
Y277141D01*
X244702D01*
Y277368D01*
Y277595D01*
Y277822D01*
X244928D01*
Y278048D01*
Y278275D01*
X245382D01*
Y278502D01*
X245155D01*
Y278729D01*
X245382D01*
Y278955D01*
X245609D01*
Y279182D01*
X245835D01*
Y279409D01*
Y279636D01*
Y279863D01*
Y280089D01*
X246289D01*
Y280316D01*
Y280543D01*
Y280770D01*
X246516D01*
Y280997D01*
Y281223D01*
X246743D01*
Y281450D01*
Y281677D01*
X246970D01*
Y281904D01*
X247196D01*
Y282131D01*
Y282357D01*
X247423D01*
Y282584D01*
Y282811D01*
X247650D01*
Y283038D01*
Y283265D01*
X247877D01*
Y283491D01*
Y283718D01*
X248103D01*
Y283945D01*
Y284172D01*
X248330D01*
Y284398D01*
Y284625D01*
X248557D01*
Y284852D01*
X248784D01*
Y285079D01*
Y285306D01*
Y285532D01*
X249237D01*
Y285759D01*
Y285986D01*
Y286213D01*
Y286440D01*
Y286666D01*
X249691D01*
Y286893D01*
Y287120D01*
X249918D01*
Y287347D01*
Y287574D01*
X250145D01*
Y287800D01*
Y288027D01*
Y288254D01*
X250598D01*
Y288481D01*
Y288707D01*
Y288934D01*
X250825D01*
Y289161D01*
X251052D01*
Y289388D01*
Y289615D01*
Y289841D01*
X251278D01*
Y290068D01*
X251505D01*
Y290295D01*
Y290522D01*
X251732D01*
Y290749D01*
Y290975D01*
Y291202D01*
X252186D01*
Y291429D01*
Y291656D01*
X251959D01*
Y291882D01*
X252412D01*
Y292109D01*
X252639D01*
Y292336D01*
Y292563D01*
Y292790D01*
X253093D01*
Y293016D01*
X253773D01*
Y293243D01*
X266020D01*
Y293016D01*
X266700D01*
Y292790D01*
X266927D01*
Y292563D01*
X267607D01*
Y292336D01*
X267834D01*
Y292109D01*
X268061D01*
Y291882D01*
X268288D01*
Y291656D01*
X268514D01*
Y291429D01*
X268741D01*
Y291202D01*
Y290975D01*
Y290749D01*
X268968D01*
Y290522D01*
X269195D01*
Y290295D01*
Y290068D01*
Y289841D01*
X269422D01*
Y289615D01*
X269648D01*
Y289388D01*
Y289161D01*
X269875D01*
Y288934D01*
X270102D01*
Y288707D01*
Y288481D01*
X270329D01*
Y288254D01*
Y288027D01*
X270555D01*
Y287800D01*
Y287574D01*
Y287347D01*
X270782D01*
Y287120D01*
X271009D01*
Y286893D01*
Y286666D01*
Y286440D01*
X271236D01*
Y286213D01*
X271916D01*
Y286440D01*
X272143D01*
Y286666D01*
Y286893D01*
X272370D01*
Y287120D01*
Y287347D01*
X272597D01*
Y287574D01*
X272823D01*
Y287800D01*
Y288027D01*
Y288254D01*
X273050D01*
Y288481D01*
X273277D01*
Y288707D01*
Y288934D01*
Y289161D01*
X273731D01*
Y289388D01*
Y289615D01*
Y289841D01*
X273957D01*
Y290068D01*
X274184D01*
Y290295D01*
Y290522D01*
Y290749D01*
X274411D01*
Y290975D01*
Y291202D01*
X274865D01*
Y291429D01*
Y291656D01*
Y291882D01*
Y292109D01*
X275318D01*
Y292336D01*
Y292563D01*
X275545D01*
Y292790D01*
X275772D01*
Y293016D01*
X276452D01*
Y293243D01*
X287791D01*
Y293016D01*
D02*
G37*
G36*
X320676Y287120D02*
Y286893D01*
Y286666D01*
Y286440D01*
Y286213D01*
Y285986D01*
Y285759D01*
Y285532D01*
Y285306D01*
Y285079D01*
Y284852D01*
Y284625D01*
Y284398D01*
Y284172D01*
Y283945D01*
Y283718D01*
Y283491D01*
Y283265D01*
Y283038D01*
Y282811D01*
Y282584D01*
Y282357D01*
Y282131D01*
Y281904D01*
Y281677D01*
Y281450D01*
Y281223D01*
X320449D01*
Y281450D01*
X314552D01*
Y281677D01*
Y281904D01*
X314326D01*
Y282131D01*
Y282357D01*
Y282584D01*
Y282811D01*
Y283038D01*
Y283265D01*
Y283491D01*
Y283718D01*
Y283945D01*
Y284172D01*
Y284398D01*
Y284625D01*
Y284852D01*
Y285079D01*
Y285306D01*
Y285532D01*
Y285759D01*
Y285986D01*
Y286213D01*
Y286440D01*
Y286666D01*
X314552D01*
Y286893D01*
Y287120D01*
Y287347D01*
X320676D01*
Y287120D01*
D02*
G37*
G36*
X302079Y286440D02*
Y286213D01*
Y285986D01*
Y285759D01*
Y285532D01*
Y285306D01*
Y285079D01*
Y284852D01*
Y284625D01*
Y284398D01*
Y284172D01*
Y283945D01*
Y283718D01*
Y283491D01*
Y283265D01*
Y283038D01*
Y282811D01*
Y282584D01*
Y282357D01*
Y282131D01*
Y281904D01*
Y281677D01*
Y281450D01*
Y281223D01*
Y280997D01*
Y280770D01*
Y280543D01*
X295956D01*
Y280770D01*
Y280997D01*
Y281223D01*
Y281450D01*
Y281677D01*
Y281904D01*
Y282131D01*
Y282357D01*
Y282584D01*
Y282811D01*
Y283038D01*
Y283265D01*
Y283491D01*
Y283718D01*
Y283945D01*
Y284172D01*
Y284398D01*
Y284625D01*
Y284852D01*
Y285079D01*
Y285306D01*
Y285532D01*
Y285759D01*
Y285986D01*
Y286213D01*
Y286440D01*
Y286666D01*
X302079D01*
Y286440D01*
D02*
G37*
G36*
X310924Y280997D02*
Y280770D01*
Y280543D01*
Y280316D01*
Y280089D01*
Y279863D01*
Y279636D01*
Y279409D01*
Y279182D01*
Y278955D01*
Y278729D01*
Y278502D01*
Y278275D01*
Y278048D01*
Y277822D01*
Y277595D01*
Y277368D01*
Y277141D01*
Y276914D01*
Y276688D01*
Y276461D01*
Y276234D01*
Y276007D01*
Y275781D01*
Y275554D01*
Y275327D01*
Y275100D01*
X310243D01*
Y274873D01*
X310017D01*
Y275100D01*
X308883D01*
Y274873D01*
X308656D01*
Y275100D01*
X307976D01*
Y274873D01*
X307749D01*
Y275100D01*
X305935D01*
Y274873D01*
X305708D01*
Y275100D01*
X305027D01*
Y274873D01*
X304801D01*
Y275100D01*
Y275327D01*
Y275554D01*
Y275781D01*
Y276007D01*
Y276234D01*
Y276461D01*
Y276688D01*
Y276914D01*
Y277141D01*
Y277368D01*
Y277595D01*
Y277822D01*
Y278048D01*
Y278275D01*
Y278502D01*
Y278729D01*
Y278955D01*
Y279182D01*
Y279409D01*
Y279636D01*
Y279863D01*
Y280089D01*
Y280316D01*
Y280543D01*
Y280770D01*
Y280997D01*
Y281223D01*
X310924D01*
Y280997D01*
D02*
G37*
G36*
X450093Y255293D02*
X439093D01*
Y258293D01*
X450093D01*
Y255293D01*
D02*
G37*
G36*
X468898Y255242D02*
X457898D01*
Y258242D01*
X468898D01*
Y255242D01*
D02*
G37*
D28*
X292865Y314300D02*
G03*
X292865Y314300I-2115J0D01*
G01*
X279100Y327150D02*
Y507150D01*
Y327150D02*
Y507150D01*
X467600Y327150D02*
X471100D01*
X467600D02*
X471100D01*
Y349650D01*
Y327150D02*
Y349650D01*
Y484650D02*
Y507150D01*
Y484650D02*
Y507150D01*
X467600D02*
X471100D01*
X467600D02*
X471100D01*
X738762Y66500D02*
G03*
X738762Y66500I-4813J0D01*
G01*
X1181249Y418550D02*
G03*
X1181249Y418550I-2650J0D01*
G01*
X757769Y5400D02*
Y51900D01*
Y5400D02*
X1033779D01*
Y178400D01*
X757769D02*
X1033779D01*
X757769Y131900D02*
Y178400D01*
X985549Y489850D02*
X985549Y231400D01*
X713249Y489850D02*
X985549D01*
X713249Y217550D02*
Y489850D01*
Y217550D02*
X971699D01*
X985549Y231400D01*
D30*
X1021799Y375150D02*
Y385450D01*
X1040399Y362100D02*
Y372400D01*
X1021749Y348950D02*
Y359250D01*
D31*
X138526Y305054D02*
X141526D01*
X148526D02*
X150526D01*
X141526Y300054D02*
Y309054D01*
Y300054D02*
X148526Y305054D01*
X141526Y309054D02*
X148526Y305054D01*
Y300054D02*
Y310054D01*
X148500Y211802D02*
Y221802D01*
X141500Y220802D02*
X148500Y216802D01*
X141500Y211802D02*
X148500Y216802D01*
X141500Y211802D02*
Y220802D01*
X148500Y216802D02*
X150500D01*
X138500D02*
X141500D01*
X138500Y160930D02*
X141500D01*
X148500D02*
X150500D01*
X141500Y155930D02*
Y164930D01*
Y155930D02*
X148500Y160930D01*
X141500Y164930D02*
X148500Y160930D01*
Y155930D02*
Y165930D01*
X148500Y234500D02*
Y244500D01*
X141500Y243500D02*
X148500Y239500D01*
X141500Y234500D02*
X148500Y239500D01*
X141500Y234500D02*
Y243500D01*
X148500Y239500D02*
X150500D01*
X138500D02*
X141500D01*
X131454Y416164D02*
X148454D01*
Y451164D01*
X131454D02*
X148454D01*
X131454Y416164D02*
Y451164D01*
Y379162D02*
Y414162D01*
X148454D01*
Y379162D02*
Y414162D01*
X131454Y379162D02*
X148454D01*
X144662Y14688D02*
Y30688D01*
Y-6812D02*
Y-812D01*
Y-6812D02*
X225162D01*
Y14688D02*
Y30688D01*
Y-6812D02*
Y-812D01*
X214162Y30688D02*
X225162D01*
X172162D02*
X197662D01*
X144662D02*
X155662D01*
X243814Y376818D02*
Y393818D01*
X208814D02*
X243814D01*
X208814Y376818D02*
Y393818D01*
Y376818D02*
X243814D01*
X208474Y374514D02*
X243474D01*
Y357514D02*
Y374514D01*
X208474Y357514D02*
X243474D01*
X208474D02*
Y374514D01*
X115452Y31690D02*
X132452D01*
Y66690D01*
X115452D02*
X132452D01*
X115452Y31690D02*
Y66690D01*
X439093Y255293D02*
Y258293D01*
Y255293D02*
X450093D01*
Y258293D01*
X439093D02*
X450093D01*
X439093D02*
Y312293D01*
X447093D01*
X468898Y255242D02*
Y258242D01*
X457898Y255242D02*
X468898D01*
X457898D02*
Y258242D01*
X468898D01*
Y312242D01*
X460898D02*
X468898D01*
X215500Y312500D02*
Y347500D01*
X232500D01*
Y312500D02*
Y347500D01*
X215500Y312500D02*
X232500D01*
X-31106Y30760D02*
Y124760D01*
Y30760D02*
X61644D01*
X91144D02*
X112894D01*
Y66010D01*
X-31106Y124760D02*
X106144D01*
X112894D01*
Y95010D02*
Y124760D01*
X140090Y111953D02*
Y146954D01*
X157090D01*
Y111953D02*
Y146954D01*
X140090Y111953D02*
X157090D01*
X167014Y111954D02*
Y146954D01*
X184014D01*
Y111954D02*
Y146954D01*
X167014Y111954D02*
X184014D01*
X173000Y538600D02*
Y579400D01*
Y538600D02*
X178000Y533600D01*
X173000Y579400D02*
X178000Y584400D01*
X193400D01*
X178000Y533600D02*
X193400D01*
Y584400D02*
X198400Y579400D01*
X193400Y533600D02*
X198400Y538600D01*
X203400Y533600D01*
X198400Y579400D02*
X203400Y584400D01*
X218800D01*
X203400Y533600D02*
X218800D01*
Y584400D02*
X223800Y579400D01*
X218800Y533600D02*
X223800Y538600D01*
X228800Y533600D01*
X223800Y579400D02*
X228800Y584400D01*
X244200D01*
X228800Y533600D02*
X244200D01*
X249200Y538600D01*
X244200Y584400D02*
X249200Y579400D01*
X254200Y584400D01*
X249200Y538600D02*
X254200Y533600D01*
Y584400D02*
X269600D01*
X254200Y533600D02*
X269600D01*
Y584400D02*
X274600Y579400D01*
X269600Y533600D02*
X274600Y538600D01*
Y579400D02*
X279600Y584400D01*
X274600Y538600D02*
X279600Y533600D01*
Y584400D02*
X295000D01*
X279600Y533600D02*
X295000D01*
X300000Y538600D01*
X295000Y584400D02*
X300000Y579400D01*
X305000Y584400D01*
X300000Y538600D02*
X305000Y533600D01*
X320400D01*
X305000Y584400D02*
X320400D01*
X325400Y579400D01*
X320400Y533600D02*
X325400Y538600D01*
Y579400D02*
X330400Y584400D01*
X325400Y538600D02*
X330400Y533600D01*
Y584400D02*
X345800D01*
X330400Y533600D02*
X345800D01*
Y584400D02*
X350800Y579400D01*
X345800Y533600D02*
X350800Y538600D01*
X355800Y533600D01*
X350800Y579400D02*
X355800Y584400D01*
Y533600D02*
X371200D01*
X355800Y584400D02*
X371200D01*
X376200Y579400D01*
X371200Y533600D02*
X376200Y538600D01*
Y579400D02*
X381200Y584400D01*
X376200Y538600D02*
X381200Y533600D01*
X396600D01*
X381200Y584400D02*
X396600D01*
X401600Y579400D01*
X396600Y533600D02*
X401600Y538600D01*
Y579400D02*
X406600Y584400D01*
X401600Y538600D02*
X406600Y533600D01*
X422000D01*
X406600Y584400D02*
X422000D01*
X427000Y579400D01*
X422000Y533600D02*
X427000Y538600D01*
Y579400D01*
X2892Y-1134D02*
Y15866D01*
Y-1134D02*
X46892D01*
Y15866D01*
X2892D02*
X46892D01*
X161940Y278012D02*
Y295012D01*
X126940D02*
X161940D01*
X126940Y278012D02*
Y295012D01*
Y278012D02*
X161940D01*
X127000Y249500D02*
X162000D01*
X127000D02*
Y266500D01*
X162000D01*
Y249500D02*
Y266500D01*
X127000Y189802D02*
X162000D01*
X127000D02*
Y206802D01*
X162000D01*
Y189802D02*
Y206802D01*
Y170930D02*
Y187930D01*
X127000D02*
X162000D01*
X127000Y170930D02*
Y187930D01*
Y170930D02*
X162000D01*
X136032Y128152D02*
Y145152D01*
X101032D02*
X136032D01*
X101032Y128152D02*
Y145152D01*
Y128152D02*
X136032D01*
X134746Y78682D02*
Y113682D01*
X117746Y78682D02*
X134746D01*
X117746D02*
Y113682D01*
X134746D01*
X256930Y358080D02*
X273930D01*
Y393080D01*
X256930D02*
X273930D01*
X256930Y358080D02*
Y393080D01*
X218370Y135000D02*
X221630D01*
X218370Y149000D02*
X221630D01*
X198000Y56500D02*
X233000D01*
X198000D02*
Y73500D01*
X233000D01*
Y56500D02*
Y73500D01*
X198000Y37000D02*
X233000D01*
X198000D02*
Y54000D01*
X233000D01*
Y37000D02*
Y54000D01*
X321500Y266500D02*
X356500D01*
Y249500D02*
Y266500D01*
X321500Y249500D02*
X356500D01*
X321500D02*
Y266500D01*
X405266Y302402D02*
X422266D01*
X405266Y267402D02*
Y302402D01*
Y267402D02*
X422266D01*
Y302402D01*
X220000Y110500D02*
X226000D01*
Y103500D02*
Y110500D01*
X196000D02*
X202000D01*
X196000Y103500D02*
Y110500D01*
X222500Y153000D02*
Y188000D01*
X239500D01*
Y153000D02*
Y188000D01*
X222500Y153000D02*
X239500D01*
X203000D02*
Y188000D01*
X220000D01*
Y153000D02*
Y188000D01*
X203000Y153000D02*
X220000D01*
X204000Y207500D02*
X239000D01*
Y190500D02*
Y207500D01*
X204000Y190500D02*
X239000D01*
X204000D02*
Y207500D01*
X270500Y312500D02*
Y347500D01*
X253500Y312500D02*
X270500D01*
X253500D02*
Y347500D01*
X270500D01*
X234500D02*
X251500D01*
X234500Y312500D02*
Y347500D01*
Y312500D02*
X251500D01*
Y347500D01*
X487586Y477934D02*
Y497934D01*
X507586Y477934D02*
Y497934D01*
X47342Y-1134D02*
Y15866D01*
Y-1134D02*
X91342D01*
Y15866D01*
X47342D02*
X91342D01*
X91792Y-1134D02*
Y15866D01*
Y-1134D02*
X135792D01*
Y15866D01*
X91792D02*
X135792D01*
X1006899Y202050D02*
Y222050D01*
X1026899Y202050D02*
Y222050D01*
X675939Y-1130D02*
Y15870D01*
Y-1130D02*
X719939D01*
Y15870D01*
X675939D02*
X719939D01*
X1123599Y441900D02*
Y458900D01*
Y441900D02*
X1158599D01*
Y458900D01*
X1123599D02*
X1158599D01*
X1158799Y421700D02*
Y438700D01*
X1123799D02*
X1158799D01*
X1123799Y421700D02*
Y438700D01*
Y421700D02*
X1158799D01*
X1121599Y421550D02*
Y438550D01*
X1086599D02*
X1121599D01*
X1086599Y421550D02*
Y438550D01*
Y421550D02*
X1121599D01*
X1086549Y402150D02*
Y419150D01*
Y402150D02*
X1121549D01*
Y419150D01*
X1086549D02*
X1121549D01*
X1086749Y382850D02*
Y399850D01*
Y382850D02*
X1121749D01*
Y399850D01*
X1086749D02*
X1121749D01*
X1025299Y455850D02*
X1060299D01*
Y438850D02*
Y455850D01*
X1025299Y438850D02*
X1060299D01*
X1025299D02*
Y455850D01*
X1025399Y419700D02*
X1060399D01*
X1025399D02*
Y436700D01*
X1060399D01*
Y419700D02*
Y436700D01*
X1025199Y400550D02*
X1060199D01*
X1025199D02*
Y417550D01*
X1060199D01*
Y400550D02*
Y417550D01*
X1025549Y374850D02*
Y385750D01*
Y374850D02*
X1044399D01*
Y385750D01*
X1025549D02*
X1044399D01*
X1044149Y372700D02*
X1062999D01*
Y361800D02*
Y372700D01*
X1044149Y361800D02*
X1062999D01*
X1044149D02*
Y372700D01*
X1025499Y359550D02*
X1044349D01*
Y348650D02*
Y359550D01*
X1025499Y348650D02*
X1044349D01*
X1025499D02*
Y359550D01*
X1046599Y304350D02*
Y309350D01*
X1032599Y292350D02*
X1040599D01*
X1032599D02*
Y299600D01*
Y321350D02*
X1040599D01*
X1032599Y314100D02*
Y321350D01*
Y282100D02*
Y289350D01*
X1040599D01*
X1032599Y260350D02*
Y267600D01*
Y260350D02*
X1040599D01*
X1046599Y272350D02*
Y277350D01*
X689199Y51100D02*
Y71100D01*
X709199Y51100D02*
Y71100D01*
X1166399Y287750D02*
X1242399D01*
X1166399Y241750D02*
X1242399D01*
X1166399Y281000D02*
Y287750D01*
X1242399Y281000D02*
Y287750D01*
X1166399Y241750D02*
Y248500D01*
X1242399Y241750D02*
Y248500D01*
X1166399D02*
X1171899D01*
Y241750D02*
Y248500D01*
Y281000D02*
Y287750D01*
X1166399Y281000D02*
X1171899D01*
X1121399Y441950D02*
Y458950D01*
X1086399D02*
X1121399D01*
X1086399Y441950D02*
Y458950D01*
Y441950D02*
X1121399D01*
X1131749Y554750D02*
Y557750D01*
Y545750D02*
Y547750D01*
X1126749Y554750D02*
X1135749D01*
X1126749D02*
X1131749Y547750D01*
X1135749Y554750D01*
X1126749Y547750D02*
X1136749D01*
X1149749Y513750D02*
Y587750D01*
X1146499D02*
X1149749D01*
X1136749Y513750D02*
X1149749D01*
X1113749Y587750D02*
X1116999D01*
X1136749Y513750D02*
Y515250D01*
X1149749D01*
X1113749D02*
X1126749D01*
Y513750D02*
Y515250D01*
X1113749Y513750D02*
Y587750D01*
Y513750D02*
X1126749D01*
X0Y0D02*
X600000D01*
X0D02*
Y600000D01*
X600000Y0D02*
Y600000D01*
X0D02*
X600000D01*
X1273049Y484950D02*
Y600000D01*
X673049D02*
X1273049D01*
Y401700D02*
Y484950D01*
X1057499Y50D02*
Y236700D01*
X786299Y50D02*
X1057499D01*
Y236700D02*
X1273049D01*
X673049Y0D02*
X786049D01*
X673049Y461750D02*
X673049Y0D01*
X1273049Y236700D02*
Y401700D01*
X673049Y461750D02*
Y600000D01*
D48*
X165162Y37888D02*
G03*
X165162Y37888I-1250J0D01*
G01*
X239750Y138000D02*
G03*
X239750Y138000I-1250J0D01*
G01*
X202600Y80600D02*
G03*
X202600Y80600I-1250J0D01*
G01*
X1161149Y282500D02*
G03*
X1161149Y282500I-1250J0D01*
G01*
D49*
X-25Y0D02*
Y600050D01*
Y0D02*
X1273073D01*
X-25Y600050D02*
X1273073D01*
X1273073Y0D01*
D82*
X353522Y192825D02*
G03*
X353498Y192324I-704J-218D01*
G01*
X1021849Y257850D02*
G03*
X1021849Y257850I-1250J0D01*
G01*
D100*
X488914Y279862D02*
G03*
X488914Y279862I-3810J0D01*
G01*
X265232Y116460D02*
G03*
X265232Y116460I-3810J0D01*
G01*
X120120Y199484D02*
G03*
X120120Y199484I-3810J0D01*
G01*
X120146Y287368D02*
G03*
X120146Y287368I-3810J0D01*
G01*
X119670Y445054D02*
G03*
X119670Y445054I-3810J0D01*
G01*
X430686Y116450D02*
G03*
X430686Y116450I-3810J0D01*
G01*
D101*
X504698Y-30226D02*
G03*
X453898Y-30226I-25400J0D01*
G01*
X361198D02*
Y251968D01*
X597498Y-30226D02*
Y251968D01*
X485648Y-30226D02*
X597498D01*
X361198D02*
X485648D01*
X361198Y251968D02*
X597498D01*
D102*
X162306Y307594D02*
Y313054D01*
X161036Y307594D02*
X162306D01*
X161036D02*
Y311784D01*
X126746Y310304D02*
Y313054D01*
X162306D01*
X161036Y311784D02*
X162306Y313054D01*
Y297054D02*
Y302514D01*
X161036D02*
X162306D01*
X161036Y298324D02*
Y302514D01*
X126746Y297054D02*
Y299804D01*
Y297054D02*
X162306D01*
X161036Y298324D02*
X162306Y297054D01*
X161010Y210072D02*
X162280Y208802D01*
X126720D02*
X162280D01*
X126720D02*
Y211552D01*
X161010Y210072D02*
Y214262D01*
X162280D01*
Y208802D02*
Y214262D01*
X161010Y223532D02*
X162280Y224802D01*
X126720D02*
X162280D01*
X126720Y222052D02*
Y224802D01*
X161010Y219342D02*
Y223532D01*
Y219342D02*
X162280D01*
Y224802D01*
X162280Y163470D02*
Y168930D01*
X161010Y163470D02*
X162280D01*
X161010D02*
Y167660D01*
X126720Y166180D02*
Y168930D01*
X162280D01*
X161010Y167660D02*
X162280Y168930D01*
Y152930D02*
Y158390D01*
X161010D02*
X162280D01*
X161010Y154200D02*
Y158390D01*
X126720Y152930D02*
Y155680D01*
Y152930D02*
X162280D01*
X161010Y154200D02*
X162280Y152930D01*
X161010Y232770D02*
X162280Y231500D01*
X126720D02*
X162280D01*
X126720D02*
Y234250D01*
X161010Y232770D02*
Y236960D01*
X162280D01*
Y231500D02*
Y236960D01*
X161010Y246230D02*
X162280Y247500D01*
X126720D02*
X162280D01*
X126720Y244750D02*
Y247500D01*
X161010Y242040D02*
Y246230D01*
Y242040D02*
X162280D01*
Y247500D01*
X1093799Y330350D02*
Y353627D01*
X1066799Y330350D02*
Y337350D01*
Y330350D02*
X1120799D01*
Y337350D01*
Y347350D02*
Y354350D01*
X1066799D02*
X1120799D01*
X1066799Y347350D02*
Y354350D01*
D103*
X153162Y431546D02*
Y456946D01*
Y431546D02*
X203962D01*
Y456946D01*
X153162D02*
X203962D01*
D104*
X502184Y359816D02*
Y375208D01*
X631724Y254280D02*
Y410744D01*
X502184D02*
X631724D01*
X502184Y394816D02*
Y410744D01*
Y254280D02*
X631724D01*
X502184D02*
Y270208D01*
Y289816D02*
Y305208D01*
Y324816D02*
Y340208D01*
X306476Y98780D02*
X321868D01*
X271476D02*
X286868D01*
X235940D02*
X251868D01*
X235940Y-30760D02*
Y98780D01*
X341472D02*
X356872D01*
Y-30760D02*
Y98780D01*
X235940Y-30760D02*
X356872D01*
X98780Y139484D02*
Y154280D01*
Y173888D02*
Y189280D01*
Y208888D02*
Y224816D01*
X-30760D02*
X98780D01*
X-30760Y139484D02*
X98780D01*
X-30760D02*
Y224816D01*
X98806Y227368D02*
Y242164D01*
Y261772D02*
Y277164D01*
Y296772D02*
Y312700D01*
X-30734D02*
X98806D01*
X-30734Y227368D02*
X98806D01*
X-30734D02*
Y312700D01*
X98780Y384708D02*
Y400100D01*
Y419708D02*
Y435100D01*
Y454708D02*
Y470636D01*
X-30760D02*
X98780D01*
Y314172D02*
Y330100D01*
X-30760Y314172D02*
X98780D01*
X-30760D02*
Y470636D01*
X98780Y349708D02*
Y365100D01*
X506830Y99370D02*
X522222D01*
X401294Y-30170D02*
X557758D01*
Y99370D01*
X541830D02*
X557758D01*
X401294Y-30170D02*
Y99370D01*
X417222D01*
X436830D02*
X452222D01*
X471830D02*
X487222D01*
X705818Y98527D02*
X719775D01*
X674309D02*
Y187173D01*
Y98527D02*
X685980D01*
X719775D02*
Y187173D01*
X705818D02*
X719775D01*
X674309D02*
X685980D01*
D105*
X346000Y144000D02*
Y219000D01*
X243000Y144000D02*
Y219000D01*
X1264049Y481300D02*
Y504150D01*
X1162449Y481300D02*
X1264049D01*
X1162449D02*
Y504150D01*
D106*
X360620Y264603D02*
Y257938D01*
X361952Y256605D01*
X364618D01*
X365951Y257938D01*
Y264603D01*
X373949D02*
X371283Y263270D01*
X368617Y260604D01*
Y257938D01*
X369950Y256605D01*
X372616D01*
X373949Y257938D01*
Y259271D01*
X372616Y260604D01*
X368617D01*
X145607Y40258D02*
X144274Y41591D01*
X141609D01*
X140276Y40258D01*
Y38925D01*
X141609Y37592D01*
X144274D01*
X145607Y36259D01*
Y34926D01*
X144274Y33593D01*
X141609D01*
X140276Y34926D01*
X148273Y41591D02*
Y33593D01*
X150939Y36259D01*
X153605Y33593D01*
Y41591D01*
X156271Y33593D02*
X158936D01*
X157603D01*
Y41591D01*
X156271Y40258D01*
X12607Y135571D02*
X9941D01*
X11274D01*
Y128906D01*
X9941Y127573D01*
X8608D01*
X7275Y128906D01*
X15273Y127573D02*
X17938D01*
X16606D01*
Y135571D01*
X15273Y134238D01*
X21937D02*
X23270Y135571D01*
X25936D01*
X27269Y134238D01*
Y132905D01*
X25936Y131572D01*
X24603D01*
X25936D01*
X27269Y130239D01*
Y128906D01*
X25936Y127573D01*
X23270D01*
X21937Y128906D01*
X485364Y335977D02*
X482698D01*
X484031D01*
Y329312D01*
X482698Y327979D01*
X481365D01*
X480032Y329312D01*
X488030Y327979D02*
X490695D01*
X489362D01*
Y335977D01*
X488030Y334644D01*
X494694Y327979D02*
X497360D01*
X496027D01*
Y335977D01*
X494694Y334644D01*
X183579Y526477D02*
X180913D01*
X182246D01*
Y519812D01*
X180913Y518479D01*
X179580D01*
X178248Y519812D01*
X186245Y526477D02*
X191576D01*
Y525144D01*
X186245Y519812D01*
Y518479D01*
X110427Y186371D02*
X107761D01*
X109094D01*
Y179706D01*
X107761Y178373D01*
X106428D01*
X105096Y179706D01*
X118425Y186371D02*
X115759Y185038D01*
X113093Y182372D01*
Y179706D01*
X114426Y178373D01*
X117092D01*
X118425Y179706D01*
Y181039D01*
X117092Y182372D01*
X113093D01*
X108903Y273747D02*
X106237D01*
X107570D01*
Y267082D01*
X106237Y265749D01*
X104904D01*
X103572Y267082D01*
X116901Y273747D02*
X111569D01*
Y269748D01*
X114235Y271081D01*
X115568D01*
X116901Y269748D01*
Y267082D01*
X115568Y265749D01*
X112902D01*
X111569Y267082D01*
X240983Y109663D02*
X238317D01*
X239650D01*
Y102998D01*
X238317Y101665D01*
X236984D01*
X235651Y102998D01*
X247648Y101665D02*
Y109663D01*
X243649Y105664D01*
X248981D01*
X109157Y395159D02*
X106491D01*
X107824D01*
Y388494D01*
X106491Y387161D01*
X105158D01*
X103826Y388494D01*
X111823Y393826D02*
X113156Y395159D01*
X115822D01*
X117155Y393826D01*
Y392493D01*
X115822Y391160D01*
X114489D01*
X115822D01*
X117155Y389827D01*
Y388494D01*
X115822Y387161D01*
X113156D01*
X111823Y388494D01*
X444500Y120077D02*
X441834D01*
X443167D01*
Y113412D01*
X441834Y112079D01*
X440501D01*
X439168Y113412D01*
X447166Y112079D02*
X449832D01*
X448499D01*
Y120077D01*
X447166Y118744D01*
X158244Y468565D02*
X155579D01*
X156911D01*
Y461900D01*
X155579Y460567D01*
X154246D01*
X152913Y461900D01*
X160910Y460567D02*
Y468565D01*
X164909D01*
X166242Y467232D01*
Y464566D01*
X164909Y463233D01*
X160910D01*
X174239Y460567D02*
X168908D01*
X174239Y465899D01*
Y467232D01*
X172906Y468565D01*
X170240D01*
X168908Y467232D01*
X380751Y293689D02*
Y301687D01*
X384749D01*
X386082Y300354D01*
Y297688D01*
X384749Y296355D01*
X380751D01*
X383417D02*
X386082Y293689D01*
X394080D02*
X388748D01*
X394080Y299021D01*
Y300354D01*
X392747Y301687D01*
X390081D01*
X388748Y300354D01*
X402077Y293689D02*
X396746D01*
X402077Y299021D01*
Y300354D01*
X400744Y301687D01*
X398078D01*
X396746Y300354D01*
X186884Y122617D02*
Y115952D01*
X188216Y114619D01*
X190882D01*
X192215Y115952D01*
Y122617D01*
X194881Y121284D02*
X196214Y122617D01*
X198880D01*
X200212Y121284D01*
Y119951D01*
X198880Y118618D01*
X197547D01*
X198880D01*
X200212Y117285D01*
Y115952D01*
X198880Y114619D01*
X196214D01*
X194881Y115952D01*
X181803Y45277D02*
Y53275D01*
X185802D01*
X187135Y51942D01*
Y49276D01*
X185802Y47943D01*
X181803D01*
X184469D02*
X187135Y45277D01*
X195133Y53275D02*
X192467Y51942D01*
X189801Y49276D01*
Y46610D01*
X191134Y45277D01*
X193800D01*
X195133Y46610D01*
Y47943D01*
X193800Y49276D01*
X189801D01*
X181803Y55945D02*
Y63943D01*
X185802D01*
X187135Y62610D01*
Y59944D01*
X185802Y58611D01*
X181803D01*
X184469D02*
X187135Y55945D01*
X195133Y63943D02*
X189801D01*
Y59944D01*
X192467Y61277D01*
X193800D01*
X195133Y59944D01*
Y57278D01*
X193800Y55945D01*
X191134D01*
X189801Y57278D01*
X192280Y145731D02*
Y137733D01*
X197612D01*
X200278D02*
X202944D01*
X201611D01*
Y145731D01*
X200278Y144398D01*
X191961Y178180D02*
X190628Y179513D01*
X187962D01*
X186630Y178180D01*
Y172848D01*
X187962Y171515D01*
X190628D01*
X191961Y172848D01*
X194627Y178180D02*
X195960Y179513D01*
X198626D01*
X199958Y178180D01*
Y176847D01*
X198626Y175514D01*
X199958Y174181D01*
Y172848D01*
X198626Y171515D01*
X195960D01*
X194627Y172848D01*
Y174181D01*
X195960Y175514D01*
X194627Y176847D01*
Y178180D01*
X195960Y175514D02*
X198626D01*
X192215Y166750D02*
X190882Y168083D01*
X188216D01*
X186884Y166750D01*
Y161418D01*
X188216Y160085D01*
X190882D01*
X192215Y161418D01*
X194881Y168083D02*
X200212D01*
Y166750D01*
X194881Y161418D01*
Y160085D01*
X192977Y201548D02*
X191644Y202881D01*
X188978D01*
X187645Y201548D01*
Y196216D01*
X188978Y194883D01*
X191644D01*
X192977Y196216D01*
X200975Y202881D02*
X198309Y201548D01*
X195643Y198882D01*
Y196216D01*
X196976Y194883D01*
X199642D01*
X200975Y196216D01*
Y197549D01*
X199642Y198882D01*
X195643D01*
X326581Y275970D02*
X325248Y277303D01*
X322582D01*
X321250Y275970D01*
Y270638D01*
X322582Y269305D01*
X325248D01*
X326581Y270638D01*
X334579Y277303D02*
X329247D01*
Y273304D01*
X331913Y274637D01*
X333246D01*
X334579Y273304D01*
Y270638D01*
X333246Y269305D01*
X330580D01*
X329247Y270638D01*
X424912Y311784D02*
X423579Y313117D01*
X420913D01*
X419580Y311784D01*
Y306452D01*
X420913Y305119D01*
X423579D01*
X424912Y306452D01*
X427578Y305119D02*
X430243D01*
X428910D01*
Y313117D01*
X427578Y311784D01*
X434242Y305119D02*
X436908D01*
X435575D01*
Y313117D01*
X434242Y311784D01*
X497840Y520826D02*
X496507Y522159D01*
X493841D01*
X492508Y520826D01*
Y519493D01*
X493841Y518160D01*
X496507D01*
X497840Y516827D01*
Y515494D01*
X496507Y514161D01*
X493841D01*
X492508Y515494D01*
X500506Y514161D02*
X503172D01*
X501839D01*
Y522159D01*
X500506Y520826D01*
X167041Y100395D02*
Y108393D01*
X171040D01*
X172373Y107060D01*
Y104394D01*
X171040Y103061D01*
X167041D01*
X169707D02*
X172373Y100395D01*
X175039D02*
X177704D01*
X176372D01*
Y108393D01*
X175039Y107060D01*
X181703D02*
X183036Y108393D01*
X185702D01*
X187035Y107060D01*
Y101728D01*
X185702Y100395D01*
X183036D01*
X181703Y101728D01*
Y107060D01*
X140401Y101157D02*
Y109155D01*
X144400D01*
X145733Y107822D01*
Y105156D01*
X144400Y103823D01*
X140401D01*
X143067D02*
X145733Y101157D01*
X148399Y102490D02*
X149732Y101157D01*
X152398D01*
X153730Y102490D01*
Y107822D01*
X152398Y109155D01*
X149732D01*
X148399Y107822D01*
Y106489D01*
X149732Y105156D01*
X153730D01*
X92649Y26859D02*
Y18861D01*
X96648D01*
X97981Y20194D01*
Y25526D01*
X96648Y26859D01*
X92649D01*
X104646Y18861D02*
Y26859D01*
X100647Y22860D01*
X105978D01*
X47438Y27113D02*
Y19115D01*
X51436D01*
X52769Y20448D01*
Y25780D01*
X51436Y27113D01*
X47438D01*
X55435Y25780D02*
X56768Y27113D01*
X59434D01*
X60767Y25780D01*
Y24447D01*
X59434Y23114D01*
X58101D01*
X59434D01*
X60767Y21781D01*
Y20448D01*
X59434Y19115D01*
X56768D01*
X55435Y20448D01*
X227778Y230821D02*
Y224156D01*
X229110Y222823D01*
X231776D01*
X233109Y224156D01*
Y230821D01*
X241106Y222823D02*
X235775D01*
X241106Y228155D01*
Y229488D01*
X239774Y230821D01*
X237108D01*
X235775Y229488D01*
X300992Y317943D02*
Y311278D01*
X302325Y309945D01*
X304991D01*
X306324Y311278D01*
Y317943D01*
X308990Y309945D02*
X311656D01*
X310323D01*
Y317943D01*
X308990Y316610D01*
X121386Y327849D02*
X126718D01*
X124052D01*
Y319851D01*
X129384D02*
Y327849D01*
X133383D01*
X134716Y326516D01*
Y323850D01*
X133383Y322517D01*
X129384D01*
X137381Y319851D02*
X140047D01*
X138714D01*
Y327849D01*
X137381Y326516D01*
X144046D02*
X145379Y327849D01*
X148045D01*
X149377Y326516D01*
Y321184D01*
X148045Y319851D01*
X145379D01*
X144046Y321184D01*
Y326516D01*
X153167Y66737D02*
X158498D01*
X155833D01*
Y58739D01*
X161164D02*
Y66737D01*
X165163D01*
X166496Y65404D01*
Y62738D01*
X165163Y61405D01*
X161164D01*
X169162Y60072D02*
X170494Y58739D01*
X173160D01*
X174493Y60072D01*
Y65404D01*
X173160Y66737D01*
X170494D01*
X169162Y65404D01*
Y64071D01*
X170494Y62738D01*
X174493D01*
X115829Y20385D02*
Y28383D01*
X119827D01*
X121160Y27050D01*
Y24384D01*
X119827Y23051D01*
X115829D01*
X118495D02*
X121160Y20385D01*
X129158D02*
X123826D01*
X129158Y25717D01*
Y27050D01*
X127825Y28383D01*
X125159D01*
X123826Y27050D01*
X131824D02*
X133156Y28383D01*
X135822D01*
X137155Y27050D01*
Y25717D01*
X135822Y24384D01*
X137155Y23051D01*
Y21718D01*
X135822Y20385D01*
X133156D01*
X131824Y21718D01*
Y23051D01*
X133156Y24384D01*
X131824Y25717D01*
Y27050D01*
X133156Y24384D02*
X135822D01*
X115829Y117159D02*
Y125157D01*
X119827D01*
X121160Y123824D01*
Y121158D01*
X119827Y119825D01*
X115829D01*
X118495D02*
X121160Y117159D01*
X129158D02*
X123826D01*
X129158Y122491D01*
Y123824D01*
X127825Y125157D01*
X125159D01*
X123826Y123824D01*
X131824Y125157D02*
X137155D01*
Y123824D01*
X131824Y118492D01*
Y117159D01*
X165359Y253557D02*
Y261555D01*
X169357D01*
X170690Y260222D01*
Y257556D01*
X169357Y256223D01*
X165359D01*
X168025D02*
X170690Y253557D01*
X178688D02*
X173356D01*
X178688Y258889D01*
Y260222D01*
X177355Y261555D01*
X174689D01*
X173356Y260222D01*
X181354D02*
X182687Y261555D01*
X185352D01*
X186685Y260222D01*
Y254890D01*
X185352Y253557D01*
X182687D01*
X181354Y254890D01*
Y260222D01*
X165072Y175325D02*
Y183323D01*
X169071D01*
X170404Y181990D01*
Y179324D01*
X169071Y177991D01*
X165072D01*
X167738D02*
X170404Y175325D01*
X173070D02*
X175735D01*
X174403D01*
Y183323D01*
X173070Y181990D01*
X179734Y175325D02*
X182400D01*
X181067D01*
Y183323D01*
X179734Y181990D01*
X133289Y454979D02*
Y462977D01*
X137288D01*
X138621Y461644D01*
Y458978D01*
X137288Y457645D01*
X133289D01*
X135955D02*
X138621Y454979D01*
X145286D02*
Y462977D01*
X141287Y458978D01*
X146618D01*
X133289Y367349D02*
Y375347D01*
X137288D01*
X138621Y374014D01*
Y371348D01*
X137288Y370015D01*
X133289D01*
X135955D02*
X138621Y367349D01*
X141287Y374014D02*
X142620Y375347D01*
X145286D01*
X146618Y374014D01*
Y372681D01*
X145286Y371348D01*
X143953D01*
X145286D01*
X146618Y370015D01*
Y368682D01*
X145286Y367349D01*
X142620D01*
X141287Y368682D01*
X165294Y194375D02*
Y202373D01*
X169292D01*
X170625Y201040D01*
Y198374D01*
X169292Y197041D01*
X165294D01*
X167959D02*
X170625Y194375D01*
X173291Y201040D02*
X174624Y202373D01*
X177290D01*
X178622Y201040D01*
Y199707D01*
X177290Y198374D01*
X178622Y197041D01*
Y195708D01*
X177290Y194375D01*
X174624D01*
X173291Y195708D01*
Y197041D01*
X174624Y198374D01*
X173291Y199707D01*
Y201040D01*
X174624Y198374D02*
X177290D01*
X165294Y282005D02*
Y290003D01*
X169292D01*
X170625Y288670D01*
Y286004D01*
X169292Y284671D01*
X165294D01*
X167959D02*
X170625Y282005D01*
X173291Y290003D02*
X178622D01*
Y288670D01*
X173291Y283338D01*
Y282005D01*
X190947Y361507D02*
Y369505D01*
X194946D01*
X196279Y368172D01*
Y365506D01*
X194946Y364173D01*
X190947D01*
X193613D02*
X196279Y361507D01*
X204277D02*
X198945D01*
X204277Y366839D01*
Y368172D01*
X202944Y369505D01*
X200278D01*
X198945Y368172D01*
X259082Y395797D02*
Y403795D01*
X263081D01*
X264414Y402462D01*
Y399796D01*
X263081Y398463D01*
X259082D01*
X261748D02*
X264414Y395797D01*
X267080D02*
X269746D01*
X268413D01*
Y403795D01*
X267080Y402462D01*
X5497Y26859D02*
Y18861D01*
X9496D01*
X10829Y20194D01*
Y25526D01*
X9496Y26859D01*
X5497D01*
X13495Y18861D02*
X16160D01*
X14828D01*
Y26859D01*
X13495Y25526D01*
X20159D02*
X21492Y26859D01*
X24158D01*
X25491Y25526D01*
Y20194D01*
X24158Y18861D01*
X21492D01*
X20159Y20194D01*
Y25526D01*
X137607Y87311D02*
Y79313D01*
X141606D01*
X142939Y80646D01*
Y85978D01*
X141606Y87311D01*
X137607D01*
X145605Y80646D02*
X146938Y79313D01*
X149604D01*
X150936Y80646D01*
Y85978D01*
X149604Y87311D01*
X146938D01*
X145605Y85978D01*
Y84645D01*
X146938Y83312D01*
X150936D01*
X165548Y243267D02*
Y235269D01*
X169546D01*
X170879Y236602D01*
Y241934D01*
X169546Y243267D01*
X165548D01*
X178876D02*
X176211Y241934D01*
X173545Y239268D01*
Y236602D01*
X174878Y235269D01*
X177544D01*
X178876Y236602D01*
Y237935D01*
X177544Y239268D01*
X173545D01*
X165040Y165035D02*
Y157037D01*
X169038D01*
X170371Y158370D01*
Y163702D01*
X169038Y165035D01*
X165040D01*
X178368D02*
X173037D01*
Y161036D01*
X175703Y162369D01*
X177036D01*
X178368Y161036D01*
Y158370D01*
X177036Y157037D01*
X174370D01*
X173037Y158370D01*
X165548Y220407D02*
Y212409D01*
X169546D01*
X170879Y213742D01*
Y219074D01*
X169546Y220407D01*
X165548D01*
X178876Y212409D02*
X173545D01*
X178876Y217741D01*
Y219074D01*
X177544Y220407D01*
X174878D01*
X173545Y219074D01*
X165102Y309307D02*
Y301309D01*
X169101D01*
X170434Y302642D01*
Y307974D01*
X169101Y309307D01*
X165102D01*
X173100Y301309D02*
X175766D01*
X174433D01*
Y309307D01*
X173100Y307974D01*
X196787Y387984D02*
X195454Y389317D01*
X192788D01*
X191455Y387984D01*
Y382652D01*
X192788Y381319D01*
X195454D01*
X196787Y382652D01*
X203452Y381319D02*
Y389317D01*
X199453Y385318D01*
X204785D01*
X222187Y307720D02*
X220854Y309053D01*
X218188D01*
X216856Y307720D01*
Y302388D01*
X218188Y301055D01*
X220854D01*
X222187Y302388D01*
X224853Y307720D02*
X226186Y309053D01*
X228852D01*
X230184Y307720D01*
Y306387D01*
X228852Y305054D01*
X227519D01*
X228852D01*
X230184Y303721D01*
Y302388D01*
X228852Y301055D01*
X226186D01*
X224853Y302388D01*
X241491Y307466D02*
X240158Y308799D01*
X237492D01*
X236159Y307466D01*
Y302134D01*
X237492Y300801D01*
X240158D01*
X241491Y302134D01*
X249489Y300801D02*
X244157D01*
X249489Y306133D01*
Y307466D01*
X248156Y308799D01*
X245490D01*
X244157Y307466D01*
X262890D02*
X261557Y308799D01*
X258891D01*
X257558Y307466D01*
Y302134D01*
X258891Y300801D01*
X261557D01*
X262890Y302134D01*
X265556Y300801D02*
X268222D01*
X266889D01*
Y308799D01*
X265556Y307466D01*
X1145635Y489409D02*
Y482744D01*
X1146967Y481411D01*
X1149633D01*
X1150966Y482744D01*
Y489409D01*
X1153632Y488076D02*
X1154965Y489409D01*
X1157631D01*
X1158964Y488076D01*
Y486743D01*
X1157631Y485410D01*
X1156298D01*
X1157631D01*
X1158964Y484077D01*
Y482744D01*
X1157631Y481411D01*
X1154965D01*
X1153632Y482744D01*
X713378Y503389D02*
Y496724D01*
X714710Y495391D01*
X717376D01*
X718709Y496724D01*
Y503389D01*
X721375Y495391D02*
X724041D01*
X722708D01*
Y503389D01*
X721375Y502056D01*
X1096254Y364999D02*
X1101585D01*
X1098919D01*
Y357001D01*
X1104251D02*
Y364999D01*
X1108250D01*
X1109583Y363666D01*
Y361000D01*
X1108250Y359667D01*
X1104251D01*
X1112249Y357001D02*
X1114914D01*
X1113581D01*
Y364999D01*
X1112249Y363666D01*
X1118913D02*
X1120246Y364999D01*
X1122912D01*
X1124245Y363666D01*
Y362333D01*
X1122912Y361000D01*
X1121579D01*
X1122912D01*
X1124245Y359667D01*
Y358334D01*
X1122912Y357001D01*
X1120246D01*
X1118913Y358334D01*
X1070384Y380139D02*
X1075715D01*
X1073049D01*
Y372141D01*
X1078381D02*
Y380139D01*
X1082380D01*
X1083713Y378806D01*
Y376140D01*
X1082380Y374807D01*
X1078381D01*
X1086378Y372141D02*
X1089044D01*
X1087711D01*
Y380139D01*
X1086378Y378806D01*
X1098375Y372141D02*
X1093043D01*
X1098375Y377473D01*
Y378806D01*
X1097042Y380139D01*
X1094376D01*
X1093043Y378806D01*
X1054586Y397489D02*
X1059918D01*
X1057252D01*
Y389491D01*
X1062584D02*
Y397489D01*
X1066583D01*
X1067916Y396156D01*
Y393490D01*
X1066583Y392157D01*
X1062584D01*
X1070581Y389491D02*
X1073247D01*
X1071914D01*
Y397489D01*
X1070581Y396156D01*
X1077246Y389491D02*
X1079912D01*
X1078579D01*
Y397489D01*
X1077246Y396156D01*
X1093884Y280799D02*
X1099215D01*
X1096549D01*
Y272801D01*
X1101881D02*
Y280799D01*
X1105880D01*
X1107213Y279466D01*
Y276800D01*
X1105880Y275467D01*
X1101881D01*
X1109878Y272801D02*
X1112544D01*
X1111211D01*
Y280799D01*
X1109878Y279466D01*
X1116543D02*
X1117876Y280799D01*
X1120542D01*
X1121875Y279466D01*
Y274134D01*
X1120542Y272801D01*
X1117876D01*
X1116543Y274134D01*
Y279466D01*
X676530Y426737D02*
Y432068D01*
Y429403D01*
X684528D01*
Y434734D02*
X676530D01*
Y438733D01*
X677863Y440066D01*
X680529D01*
X681862Y438733D01*
Y434734D01*
X683195Y442732D02*
X684528Y444064D01*
Y446730D01*
X683195Y448063D01*
X677863D01*
X676530Y446730D01*
Y444064D01*
X677863Y442732D01*
X679196D01*
X680529Y444064D01*
Y448063D01*
X676310Y283317D02*
Y288648D01*
Y285983D01*
X684308D01*
Y291314D02*
X676310D01*
Y295313D01*
X677643Y296646D01*
X680309D01*
X681642Y295313D01*
Y291314D01*
X677643Y299312D02*
X676310Y300644D01*
Y303310D01*
X677643Y304643D01*
X678976D01*
X680309Y303310D01*
X681642Y304643D01*
X682975D01*
X684308Y303310D01*
Y300644D01*
X682975Y299312D01*
X681642D01*
X680309Y300644D01*
X678976Y299312D01*
X677643D01*
X680309Y300644D02*
Y303310D01*
X676520Y219397D02*
Y224728D01*
Y222063D01*
X684518D01*
Y227394D02*
X676520D01*
Y231393D01*
X677853Y232726D01*
X680519D01*
X681852Y231393D01*
Y227394D01*
X676520Y235392D02*
Y240723D01*
X677853D01*
X683185Y235392D01*
X684518D01*
X676790Y258237D02*
Y263568D01*
Y260903D01*
X684788D01*
Y266234D02*
X676790D01*
Y270233D01*
X678123Y271566D01*
X680789D01*
X682122Y270233D01*
Y266234D01*
X676790Y279563D02*
X678123Y276897D01*
X680789Y274232D01*
X683455D01*
X684788Y275564D01*
Y278230D01*
X683455Y279563D01*
X682122D01*
X680789Y278230D01*
Y274232D01*
X1014310Y395947D02*
Y401278D01*
Y398613D01*
X1022308D01*
Y403944D02*
X1014310D01*
Y407943D01*
X1015643Y409276D01*
X1018309D01*
X1019642Y407943D01*
Y403944D01*
X1014310Y417273D02*
Y411942D01*
X1018309D01*
X1016976Y414607D01*
Y415940D01*
X1018309Y417273D01*
X1020975D01*
X1022308Y415940D01*
Y413274D01*
X1020975Y411942D01*
X676760Y454847D02*
Y460178D01*
Y457513D01*
X684758D01*
Y462844D02*
X676760D01*
Y466843D01*
X678093Y468176D01*
X680759D01*
X682092Y466843D01*
Y462844D01*
X684758Y474840D02*
X676760D01*
X680759Y470842D01*
Y476173D01*
X1015380Y311137D02*
Y316468D01*
Y313803D01*
X1023378D01*
Y319134D02*
X1015380D01*
Y323133D01*
X1016713Y324466D01*
X1019379D01*
X1020712Y323133D01*
Y319134D01*
X1016713Y327132D02*
X1015380Y328465D01*
Y331130D01*
X1016713Y332463D01*
X1018046D01*
X1019379Y331130D01*
Y329797D01*
Y331130D01*
X1020712Y332463D01*
X1022045D01*
X1023378Y331130D01*
Y328465D01*
X1022045Y327132D01*
X676530Y376087D02*
Y381418D01*
Y378753D01*
X684528D01*
Y384084D02*
X676530D01*
Y388083D01*
X677863Y389416D01*
X680529D01*
X681862Y388083D01*
Y384084D01*
X684528Y397413D02*
Y392082D01*
X679196Y397413D01*
X677863D01*
X676530Y396080D01*
Y393415D01*
X677863Y392082D01*
X1023759Y244939D02*
X1029090D01*
X1026425D01*
Y236941D01*
X1031756D02*
Y244939D01*
X1035755D01*
X1037088Y243606D01*
Y240940D01*
X1035755Y239607D01*
X1031756D01*
X1039754Y236941D02*
X1042420D01*
X1041087D01*
Y244939D01*
X1039754Y243606D01*
X691580Y202466D02*
X690247Y203799D01*
X687582D01*
X686249Y202466D01*
Y201133D01*
X687582Y199800D01*
X690247D01*
X691580Y198467D01*
Y197134D01*
X690247Y195801D01*
X687582D01*
X686249Y197134D01*
X694246Y203799D02*
Y195801D01*
X696912Y198467D01*
X699578Y195801D01*
Y203799D01*
X702244Y195801D02*
X704910D01*
X703577D01*
Y203799D01*
X702244Y202466D01*
X717506Y51266D02*
X716173Y52599D01*
X713508D01*
X712175Y51266D01*
Y49933D01*
X713508Y48600D01*
X716173D01*
X717506Y47267D01*
Y45934D01*
X716173Y44601D01*
X713508D01*
X712175Y45934D01*
X725504Y44601D02*
X720172D01*
X725504Y49933D01*
Y51266D01*
X724171Y52599D01*
X721505D01*
X720172Y51266D01*
X1035979Y214716D02*
X1034646Y216049D01*
X1031980D01*
X1030648Y214716D01*
Y213383D01*
X1031980Y212050D01*
X1034646D01*
X1035979Y210717D01*
Y209384D01*
X1034646Y208051D01*
X1031980D01*
X1030648Y209384D01*
X1038645Y208051D02*
X1041311D01*
X1039978D01*
Y216049D01*
X1038645Y214716D01*
X1170168Y419013D02*
X1162170D01*
Y423012D01*
X1163503Y424345D01*
X1166169D01*
X1167502Y423012D01*
Y419013D01*
Y421679D02*
X1170168Y424345D01*
Y427011D02*
Y429676D01*
Y428344D01*
X1162170D01*
X1163503Y427011D01*
Y433675D02*
X1162170Y435008D01*
Y437674D01*
X1163503Y439007D01*
X1164836D01*
X1166169Y437674D01*
X1167502Y439007D01*
X1168835D01*
X1170168Y437674D01*
Y435008D01*
X1168835Y433675D01*
X1167502D01*
X1166169Y435008D01*
X1164836Y433675D01*
X1163503D01*
X1166169Y435008D02*
Y437674D01*
X1132788Y398973D02*
X1124790D01*
Y402972D01*
X1126123Y404305D01*
X1128789D01*
X1130122Y402972D01*
Y398973D01*
Y401639D02*
X1132788Y404305D01*
Y406971D02*
Y409636D01*
Y408304D01*
X1124790D01*
X1126123Y406971D01*
X1124790Y413635D02*
Y418967D01*
X1126123D01*
X1131455Y413635D01*
X1132788D01*
X1064112Y430541D02*
Y438539D01*
X1068111D01*
X1069444Y437206D01*
Y434540D01*
X1068111Y433207D01*
X1064112D01*
X1066778D02*
X1069444Y430541D01*
X1072110D02*
X1074776D01*
X1073443D01*
Y438539D01*
X1072110Y437206D01*
X1084106Y438539D02*
X1081440Y437206D01*
X1078774Y434540D01*
Y431874D01*
X1080107Y430541D01*
X1082773D01*
X1084106Y431874D01*
Y433207D01*
X1082773Y434540D01*
X1078774D01*
X1062666Y303524D02*
Y308856D01*
X1061333Y310189D01*
X1058668D01*
X1057335Y308856D01*
Y303524D01*
X1058668Y302191D01*
X1061333D01*
X1060000Y304857D02*
X1062666Y302191D01*
X1061333D02*
X1062666Y303524D01*
X1065332Y308856D02*
X1066665Y310189D01*
X1069331D01*
X1070664Y308856D01*
Y307523D01*
X1069331Y306190D01*
X1067998D01*
X1069331D01*
X1070664Y304857D01*
Y303524D01*
X1069331Y302191D01*
X1066665D01*
X1065332Y303524D01*
X1063219Y271974D02*
Y277306D01*
X1061886Y278639D01*
X1059220D01*
X1057887Y277306D01*
Y271974D01*
X1059220Y270641D01*
X1061886D01*
X1060553Y273307D02*
X1063219Y270641D01*
X1061886D02*
X1063219Y271974D01*
X1065885Y270641D02*
X1068551D01*
X1067218D01*
Y278639D01*
X1065885Y277306D01*
X1121588Y301479D02*
Y293481D01*
X1126919D01*
X1129585D02*
X1132251D01*
X1130918D01*
Y301479D01*
X1129585Y300146D01*
X740886Y13199D02*
X738220D01*
X739553D01*
Y6534D01*
X738220Y5201D01*
X736888D01*
X735555Y6534D01*
X743552Y11866D02*
X744885Y13199D01*
X747551D01*
X748884Y11866D01*
Y10533D01*
X747551Y9200D01*
X746218D01*
X747551D01*
X748884Y7867D01*
Y6534D01*
X747551Y5201D01*
X744885D01*
X743552Y6534D01*
X1073388Y326899D02*
X1068056D01*
Y322900D01*
X1070722D01*
X1068056D01*
Y318901D01*
X1076053Y326899D02*
Y318901D01*
X1080052D01*
X1081385Y320234D01*
Y321567D01*
X1080052Y322900D01*
X1076053D01*
X1080052D01*
X1081385Y324233D01*
Y325566D01*
X1080052Y326899D01*
X1076053D01*
X1089382Y318901D02*
X1084051D01*
X1089382Y324233D01*
Y325566D01*
X1088049Y326899D01*
X1085384D01*
X1084051Y325566D01*
X1092735Y524359D02*
Y516361D01*
X1096734D01*
X1098067Y517694D01*
Y523026D01*
X1096734Y524359D01*
X1092735D01*
X1100733Y516361D02*
X1103399D01*
X1102066D01*
Y524359D01*
X1100733Y523026D01*
X1107397Y516361D02*
X1110063D01*
X1108730D01*
Y524359D01*
X1107397Y523026D01*
X1104232Y380309D02*
Y372311D01*
X1108231D01*
X1109564Y373644D01*
Y378976D01*
X1108231Y380309D01*
X1104232D01*
X1112230Y372311D02*
X1114896D01*
X1113563D01*
Y380309D01*
X1112230Y378976D01*
X1118894D02*
X1120227Y380309D01*
X1122893D01*
X1124226Y378976D01*
Y373644D01*
X1122893Y372311D01*
X1120227D01*
X1118894Y373644D01*
Y378976D01*
X1021975Y371369D02*
Y363371D01*
X1025973D01*
X1027306Y364704D01*
Y370036D01*
X1025973Y371369D01*
X1021975D01*
X1029972Y364704D02*
X1031305Y363371D01*
X1033971D01*
X1035304Y364704D01*
Y370036D01*
X1033971Y371369D01*
X1031305D01*
X1029972Y370036D01*
Y368703D01*
X1031305Y367370D01*
X1035304D01*
X1065535Y369939D02*
Y361941D01*
X1069533D01*
X1070866Y363274D01*
Y368606D01*
X1069533Y369939D01*
X1065535D01*
X1073532Y368606D02*
X1074865Y369939D01*
X1077531D01*
X1078864Y368606D01*
Y367273D01*
X1077531Y365940D01*
X1078864Y364607D01*
Y363274D01*
X1077531Y361941D01*
X1074865D01*
X1073532Y363274D01*
Y364607D01*
X1074865Y365940D01*
X1073532Y367273D01*
Y368606D01*
X1074865Y365940D02*
X1077531D01*
X1046665Y358159D02*
Y350161D01*
X1050663D01*
X1051996Y351494D01*
Y356826D01*
X1050663Y358159D01*
X1046665D01*
X1054662D02*
X1059994D01*
Y356826D01*
X1054662Y351494D01*
Y350161D01*
X727455Y86089D02*
Y78091D01*
X731453D01*
X732786Y79424D01*
Y84756D01*
X731453Y86089D01*
X727455D01*
X740784D02*
X738118Y84756D01*
X735452Y82090D01*
Y79424D01*
X736785Y78091D01*
X739451D01*
X740784Y79424D01*
Y80757D01*
X739451Y82090D01*
X735452D01*
X1044565Y336009D02*
Y328011D01*
X1048563D01*
X1049896Y329344D01*
Y334676D01*
X1048563Y336009D01*
X1044565D01*
X1056561Y328011D02*
Y336009D01*
X1052562Y332010D01*
X1057894D01*
X960725Y198319D02*
Y190321D01*
X964723D01*
X966056Y191654D01*
Y196986D01*
X964723Y198319D01*
X960725D01*
X968722Y196986D02*
X970055Y198319D01*
X972721D01*
X974054Y196986D01*
Y195653D01*
X972721Y194320D01*
X971388D01*
X972721D01*
X974054Y192987D01*
Y191654D01*
X972721Y190321D01*
X970055D01*
X968722Y191654D01*
X689575Y26629D02*
Y18631D01*
X693573D01*
X694906Y19964D01*
Y25296D01*
X693573Y26629D01*
X689575D01*
X702904Y18631D02*
X697572D01*
X702904Y23963D01*
Y25296D01*
X701571Y26629D01*
X698905D01*
X697572Y25296D01*
X1069124Y455716D02*
X1067791Y457049D01*
X1065125D01*
X1063792Y455716D01*
Y450384D01*
X1065125Y449051D01*
X1067791D01*
X1069124Y450384D01*
X1071790Y449051D02*
X1074456D01*
X1073123D01*
Y457049D01*
X1071790Y455716D01*
X1078454D02*
X1079787Y457049D01*
X1082453D01*
X1083786Y455716D01*
Y454383D01*
X1082453Y453050D01*
X1083786Y451717D01*
Y450384D01*
X1082453Y449051D01*
X1079787D01*
X1078454Y450384D01*
Y451717D01*
X1079787Y453050D01*
X1078454Y454383D01*
Y455716D01*
X1079787Y453050D02*
X1082453D01*
X1163043Y448125D02*
X1161710Y446792D01*
Y444126D01*
X1163043Y442793D01*
X1168375D01*
X1169708Y444126D01*
Y446792D01*
X1168375Y448125D01*
X1169708Y450791D02*
Y453456D01*
Y452124D01*
X1161710D01*
X1163043Y450791D01*
X1161710Y457455D02*
Y462787D01*
X1163043D01*
X1168375Y457455D01*
X1169708D01*
X1141814Y267276D02*
X1140481Y268609D01*
X1137815D01*
X1136482Y267276D01*
Y261944D01*
X1137815Y260611D01*
X1140481D01*
X1141814Y261944D01*
X1144480Y260611D02*
X1147146D01*
X1145813D01*
Y268609D01*
X1144480Y267276D01*
X1156476Y268609D02*
X1153810Y267276D01*
X1151144Y264610D01*
Y261944D01*
X1152477Y260611D01*
X1155143D01*
X1156476Y261944D01*
Y263277D01*
X1155143Y264610D01*
X1151144D01*
X1068347Y425886D02*
X1067014Y427219D01*
X1064348D01*
X1063015Y425886D01*
Y420554D01*
X1064348Y419221D01*
X1067014D01*
X1068347Y420554D01*
X1071013Y419221D02*
X1073679D01*
X1072346D01*
Y427219D01*
X1071013Y425886D01*
X1077677Y419221D02*
X1080343D01*
X1079010D01*
Y427219D01*
X1077677Y425886D01*
X1016153Y443995D02*
X1014820Y442662D01*
Y439996D01*
X1016153Y438663D01*
X1021485D01*
X1022818Y439996D01*
Y442662D01*
X1021485Y443995D01*
X1022818Y446661D02*
Y449327D01*
Y447994D01*
X1014820D01*
X1016153Y446661D01*
Y453325D02*
X1014820Y454658D01*
Y457324D01*
X1016153Y458657D01*
X1021485D01*
X1022818Y457324D01*
Y454658D01*
X1021485Y453325D01*
X1016153D01*
X1068086Y411296D02*
X1066753Y412629D01*
X1064088D01*
X1062755Y411296D01*
Y405964D01*
X1064088Y404631D01*
X1066753D01*
X1068086Y405964D01*
X1070752D02*
X1072085Y404631D01*
X1074751D01*
X1076084Y405964D01*
Y411296D01*
X1074751Y412629D01*
X1072085D01*
X1070752Y411296D01*
Y409963D01*
X1072085Y408630D01*
X1076084D01*
D107*
X165227Y430276D02*
D03*
D108*
X186003Y531800D02*
D03*
D109*
X338976Y243101D02*
D03*
D110*
X732729Y164120D02*
G03*
X732729Y164120I-1270J0D01*
G01*
D111*
X1026549Y327450D02*
Y336900D01*
X1040999Y327450D02*
Y336900D01*
X1026549D02*
X1040999D01*
X1026549Y327450D02*
X1040999D01*
X977149Y199250D02*
X991599D01*
X977149Y189800D02*
X991599D01*
X977149D02*
Y199250D01*
X991599Y189800D02*
Y199250D01*
X715199Y73650D02*
X724649D01*
X715199Y88100D02*
X724649D01*
X715199Y73650D02*
Y88100D01*
X724649Y73650D02*
Y88100D01*
D112*
X1138949Y411800D02*
X1258949D01*
X1138949Y291800D02*
X1258949D01*
D113*
X1169153Y245131D02*
D03*
X1169146Y284369D02*
D03*
M02*
