G04*
G04 #@! TF.GenerationSoftware,Altium Limited,Altium Designer,21.2.2 (38)*
G04*
G04 Layer_Physical_Order=2*
G04 Layer_Color=16711680*
%FSLAX44Y44*%
%MOMM*%
G71*
G04*
G04 #@! TF.SameCoordinates,1FAA2A19-5D32-44EB-9D88-0ED73DB0A834*
G04*
G04*
G04 #@! TF.FilePolarity,Positive*
G04*
G01*
G75*
%ADD11R,1.2000X0.9000*%
%ADD12R,5.5118X1.2954*%
%ADD13R,1.2954X5.5118*%
%ADD16R,0.9000X1.2000*%
%ADD28C,0.5000*%
%ADD29C,0.3500*%
%ADD30C,0.2540*%
%ADD31C,0.2000*%
%ADD33R,0.4000X0.6000*%
%ADD43R,2.1500X2.4500*%
%ADD48C,0.2500*%
%ADD49C,0.1930*%
%ADD50R,1.6000X1.6000*%
G04:AMPARAMS|DCode=51|XSize=1.5mm|YSize=1.5mm|CornerRadius=0.0525mm|HoleSize=0mm|Usage=FLASHONLY|Rotation=0.000|XOffset=0mm|YOffset=0mm|HoleType=Round|Shape=RoundedRectangle|*
%AMROUNDEDRECTD51*
21,1,1.5000,1.3950,0,0,0.0*
21,1,1.3950,1.5000,0,0,0.0*
1,1,0.1050,0.6975,-0.6975*
1,1,0.1050,-0.6975,-0.6975*
1,1,0.1050,-0.6975,0.6975*
1,1,0.1050,0.6975,0.6975*
%
%ADD51ROUNDEDRECTD51*%
%ADD52C,1.5000*%
%ADD53C,1.6500*%
%ADD54R,1.6500X1.6500*%
%ADD55C,3.0480*%
%ADD56R,4.5720X1.9812*%
G04:AMPARAMS|DCode=57|XSize=2.1mm|YSize=1.5mm|CornerRadius=0.375mm|HoleSize=0mm|Usage=FLASHONLY|Rotation=180.000|XOffset=0mm|YOffset=0mm|HoleType=Round|Shape=RoundedRectangle|*
%AMROUNDEDRECTD57*
21,1,2.1000,0.7500,0,0,180.0*
21,1,1.3500,1.5000,0,0,180.0*
1,1,0.7500,-0.6750,0.3750*
1,1,0.7500,0.6750,0.3750*
1,1,0.7500,0.6750,-0.3750*
1,1,0.7500,-0.6750,-0.3750*
%
%ADD57ROUNDEDRECTD57*%
G04:AMPARAMS|DCode=58|XSize=2.1mm|YSize=1.5mm|CornerRadius=0.375mm|HoleSize=0mm|Usage=FLASHONLY|Rotation=90.000|XOffset=0mm|YOffset=0mm|HoleType=Round|Shape=RoundedRectangle|*
%AMROUNDEDRECTD58*
21,1,2.1000,0.7500,0,0,90.0*
21,1,1.3500,1.5000,0,0,90.0*
1,1,0.7500,0.3750,0.6750*
1,1,0.7500,0.3750,-0.6750*
1,1,0.7500,-0.3750,-0.6750*
1,1,0.7500,-0.3750,0.6750*
%
%ADD58ROUNDEDRECTD58*%
G04:AMPARAMS|DCode=59|XSize=1.55mm|YSize=1.55mm|CornerRadius=0.3875mm|HoleSize=0mm|Usage=FLASHONLY|Rotation=0.000|XOffset=0mm|YOffset=0mm|HoleType=Round|Shape=RoundedRectangle|*
%AMROUNDEDRECTD59*
21,1,1.5500,0.7750,0,0,0.0*
21,1,0.7750,1.5500,0,0,0.0*
1,1,0.7750,0.3875,-0.3875*
1,1,0.7750,-0.3875,-0.3875*
1,1,0.7750,-0.3875,0.3875*
1,1,0.7750,0.3875,0.3875*
%
%ADD59ROUNDEDRECTD59*%
%ADD60C,1.5500*%
%ADD61C,0.6000*%
%ADD62O,0.9000X1.6000*%
%ADD63C,1.3208*%
%ADD64C,1.4986*%
%ADD65C,2.2860*%
%ADD66C,2.0320*%
G04:AMPARAMS|DCode=87|XSize=0.65mm|YSize=1.65mm|CornerRadius=0.0488mm|HoleSize=0mm|Usage=FLASHONLY|Rotation=270.000|XOffset=0mm|YOffset=0mm|HoleType=Round|Shape=RoundedRectangle|*
%AMROUNDEDRECTD87*
21,1,0.6500,1.5525,0,0,270.0*
21,1,0.5525,1.6500,0,0,270.0*
1,1,0.0975,-0.7763,-0.2763*
1,1,0.0975,-0.7763,0.2763*
1,1,0.0975,0.7763,0.2763*
1,1,0.0975,0.7763,-0.2763*
%
%ADD87ROUNDEDRECTD87*%
%ADD88R,2.4500X2.5500*%
%ADD89R,5.7000X1.8000*%
%ADD90R,1.5500X0.6000*%
%ADD91R,0.7000X0.9000*%
%ADD92R,1.2500X1.6500*%
%ADD93R,1.4000X1.3000*%
%ADD94R,1.9000X1.8000*%
G04:AMPARAMS|DCode=95|XSize=1.6mm|YSize=1.4mm|CornerRadius=0.35mm|HoleSize=0mm|Usage=FLASHONLY|Rotation=180.000|XOffset=0mm|YOffset=0mm|HoleType=Round|Shape=RoundedRectangle|*
%AMROUNDEDRECTD95*
21,1,1.6000,0.7000,0,0,180.0*
21,1,0.9000,1.4000,0,0,180.0*
1,1,0.7000,-0.4500,0.3500*
1,1,0.7000,0.4500,0.3500*
1,1,0.7000,0.4500,-0.3500*
1,1,0.7000,-0.4500,-0.3500*
%
%ADD95ROUNDEDRECTD95*%
%ADD96O,0.4000X1.3500*%
%ADD97R,1.0795X0.3500*%
%ADD98R,0.8000X0.9000*%
%ADD99R,0.4500X1.0500*%
G36*
X764950Y508978D02*
X764051Y508081D01*
X754428Y508108D01*
X754426Y508107D01*
X754423Y508108D01*
X753736Y507972D01*
X753062Y507840D01*
X753060Y507839D01*
X753057Y507838D01*
X752481Y507454D01*
X751902Y507070D01*
X751901Y507068D01*
X751898Y507066D01*
X750999Y506170D01*
X750998Y506167D01*
X750996Y506166D01*
X750609Y505588D01*
X750224Y505013D01*
X750224Y505010D01*
X750222Y505008D01*
X750087Y504327D01*
X749950Y503648D01*
X749951Y503645D01*
X749950Y503643D01*
Y491500D01*
X750222Y490134D01*
X750996Y488977D01*
X752153Y488203D01*
X752239Y488186D01*
Y481814D01*
X752153Y481797D01*
X750996Y481023D01*
X750222Y479866D01*
X749950Y478500D01*
X749950Y378819D01*
X750222Y377453D01*
X750996Y376295D01*
X752153Y375522D01*
X752239Y375505D01*
Y375250D01*
X869699D01*
Y375812D01*
X870423Y376295D01*
X871196Y377453D01*
X871468Y378819D01*
Y393344D01*
X872641Y393830D01*
X888210Y378261D01*
X889788Y377207D01*
X891649Y376837D01*
X891649Y376837D01*
X903565D01*
X903950Y375567D01*
X903460Y375239D01*
X903460Y375239D01*
X900810Y372589D01*
X899756Y371011D01*
X899386Y369150D01*
X899386Y369150D01*
Y365345D01*
X899280Y365239D01*
X898226Y363661D01*
X897856Y361800D01*
X898013Y361010D01*
X897856Y360220D01*
X897856Y360220D01*
Y357584D01*
X873110Y332839D01*
X872056Y331261D01*
X871686Y329400D01*
X871686Y329400D01*
Y312215D01*
X869385Y309914D01*
X861399D01*
Y314550D01*
X860622D01*
X859849Y315558D01*
X859899Y315744D01*
Y317456D01*
X859456Y319109D01*
X858600Y320591D01*
X857390Y321801D01*
X855908Y322657D01*
X854839Y322944D01*
X854255Y323100D01*
X852543D01*
X850890Y322657D01*
X849408Y321801D01*
X848198Y320591D01*
X847712Y319750D01*
X844649D01*
X843349Y318450D01*
Y276350D01*
X845699Y274000D01*
X871199D01*
X873049Y272150D01*
Y238800D01*
X872499Y238250D01*
X820449D01*
X818599Y240100D01*
Y283250D01*
X812699Y289150D01*
Y290350D01*
X811499D01*
X807562Y294287D01*
X808335Y295310D01*
X809356Y295310D01*
X812199D01*
Y299850D01*
X808159D01*
Y296567D01*
X808159Y295486D01*
X807137Y294713D01*
X805449Y296400D01*
Y328550D01*
X802499D01*
Y329050D01*
X786499D01*
Y328550D01*
X758749D01*
X752239Y335060D01*
Y334139D01*
X751066Y333653D01*
X721434Y363285D01*
X719698Y364445D01*
X717649Y364853D01*
X691149D01*
X689101Y364445D01*
X687364Y363285D01*
X678801Y354721D01*
X677440Y354357D01*
X675958Y353501D01*
X675039Y352582D01*
X673828Y352975D01*
X673769Y353019D01*
Y594098D01*
X673770Y594099D01*
X688610D01*
X688951Y592829D01*
X686941Y591669D01*
X684340Y589068D01*
X682501Y585882D01*
X681726Y582990D01*
X695519D01*
X709312D01*
X708537Y585882D01*
X706698Y589068D01*
X704097Y591669D01*
X702088Y592829D01*
X702428Y594099D01*
X739410D01*
X739751Y592829D01*
X737741Y591669D01*
X735140Y589068D01*
X733301Y585882D01*
X732526Y582990D01*
X746319D01*
X760112D01*
X759337Y585882D01*
X757498Y589068D01*
X754897Y591669D01*
X752888Y592829D01*
X753228Y594099D01*
X764950D01*
X764950Y508978D01*
D02*
G37*
G36*
X298196Y552467D02*
X296926Y552127D01*
X296302Y553208D01*
X294208Y555302D01*
X291642Y556783D01*
X288781Y557550D01*
X285819D01*
X282958Y556783D01*
X280392Y555302D01*
X278298Y553208D01*
X276817Y550642D01*
X276050Y547781D01*
Y544819D01*
X276817Y541958D01*
X278298Y539392D01*
X280392Y537298D01*
X282958Y535817D01*
X285819Y535050D01*
X288781D01*
X291642Y535817D01*
X294208Y537298D01*
X296302Y539392D01*
X296926Y540473D01*
X298196Y540132D01*
Y535178D01*
X310741D01*
X311219Y535050D01*
X314181D01*
X314659Y535178D01*
X315170D01*
X344642Y505706D01*
X346627Y504380D01*
X348968Y503914D01*
X383167D01*
X394378Y492703D01*
Y489020D01*
X393108Y488287D01*
X392907Y488403D01*
X391254Y488846D01*
X389542D01*
X387889Y488403D01*
X386407Y487547D01*
X385197Y486337D01*
X384458Y485057D01*
X379207Y479806D01*
X358336D01*
X358172Y480018D01*
X358498Y481672D01*
X358575Y481717D01*
X359785Y482927D01*
X360641Y484409D01*
X361084Y486062D01*
Y487774D01*
X360641Y489427D01*
X359785Y490909D01*
X358575Y492119D01*
X357093Y492975D01*
X355440Y493418D01*
X353728D01*
X352075Y492975D01*
X350593Y492119D01*
X349383Y490909D01*
X348644Y489629D01*
X338820Y479806D01*
X303729D01*
X303141Y481076D01*
X303745Y482123D01*
X304188Y483776D01*
Y485488D01*
X303745Y487141D01*
X302889Y488623D01*
X301679Y489833D01*
X300197Y490689D01*
X298544Y491132D01*
X296832D01*
X295405Y490750D01*
X174492D01*
X164613Y500628D01*
Y574554D01*
X175508Y585448D01*
X298196D01*
Y552467D01*
D02*
G37*
G36*
X594360Y205430D02*
X544538D01*
Y198118D01*
X497096D01*
X483130Y212084D01*
Y376936D01*
X482664Y379277D01*
X481338Y381262D01*
X460523Y402076D01*
Y447173D01*
X477782Y464431D01*
X479108Y466416D01*
X479574Y468757D01*
Y515665D01*
X479108Y518006D01*
X478237Y519310D01*
X478227Y531114D01*
X466659D01*
X466143Y531630D01*
X464158Y532956D01*
X461817Y533422D01*
X448460D01*
X446118Y532956D01*
X444908Y532147D01*
X443765Y532910D01*
X444013Y534162D01*
Y538737D01*
X444396Y540164D01*
Y541876D01*
X443953Y543529D01*
X443272Y544708D01*
X443594Y546109D01*
X443707Y546139D01*
X445189Y546995D01*
X446399Y548205D01*
X447255Y549687D01*
X447698Y551340D01*
Y553052D01*
X447255Y554705D01*
X446399Y556187D01*
X445189Y557397D01*
X443707Y558253D01*
X442054Y558696D01*
X440342D01*
X438915Y558313D01*
X435356D01*
X433015Y557848D01*
X431030Y556522D01*
X425848Y551339D01*
X424260Y551548D01*
X423302Y553208D01*
X421208Y555302D01*
X418642Y556783D01*
X415781Y557550D01*
X412819D01*
X409958Y556783D01*
X407392Y555302D01*
X405298Y553208D01*
X403817Y550642D01*
X403050Y547781D01*
Y544819D01*
X403817Y541958D01*
X405298Y539392D01*
X406047Y538643D01*
X405923Y537379D01*
X405170Y536876D01*
X402596Y534301D01*
X392495D01*
X392328Y535572D01*
X393242Y535817D01*
X395808Y537298D01*
X397902Y539392D01*
X399383Y541958D01*
X400150Y544819D01*
Y547781D01*
X399383Y550642D01*
X397902Y553208D01*
X395808Y555302D01*
X393242Y556783D01*
X390381Y557550D01*
X387419D01*
X384558Y556783D01*
X381992Y555302D01*
X379898Y553208D01*
X378417Y550642D01*
X377650Y547781D01*
Y544819D01*
X378417Y541958D01*
X378590Y541658D01*
X377574Y540878D01*
X374514Y543938D01*
X374750Y544819D01*
Y547781D01*
X373983Y550642D01*
X372502Y553208D01*
X370408Y555302D01*
X367842Y556783D01*
X364981Y557550D01*
X362019D01*
X359158Y556783D01*
X356592Y555302D01*
X354498Y553208D01*
X353017Y550642D01*
X352250Y547781D01*
Y544819D01*
X353017Y541958D01*
X353190Y541658D01*
X352174Y540878D01*
X349114Y543938D01*
X349350Y544819D01*
Y547781D01*
X348583Y550642D01*
X347102Y553208D01*
X345008Y555302D01*
X342442Y556783D01*
X339581Y557550D01*
X336619D01*
X333758Y556783D01*
X331192Y555302D01*
X329098Y553208D01*
X327617Y550642D01*
X326850Y547781D01*
Y544819D01*
X327617Y541958D01*
X327790Y541658D01*
X326773Y540878D01*
X323714Y543938D01*
X323950Y544819D01*
Y547781D01*
X323183Y550642D01*
X321702Y553208D01*
X319608Y555302D01*
X317042Y556783D01*
X314181Y557550D01*
X311219D01*
X308358Y556783D01*
X305792Y555302D01*
X303698Y553208D01*
X303022Y552037D01*
X301752Y552378D01*
Y552404D01*
X301765Y552467D01*
Y585448D01*
X447046D01*
X460989Y571506D01*
Y549907D01*
X460606Y548480D01*
Y546768D01*
X461049Y545115D01*
X461905Y543633D01*
X463115Y542423D01*
X464597Y541567D01*
X466250Y541124D01*
X467962D01*
X469615Y541567D01*
X471097Y542423D01*
X472307Y543633D01*
X473163Y545115D01*
X473606Y546768D01*
Y548480D01*
X473223Y549907D01*
Y574040D01*
X472758Y576381D01*
X471432Y578366D01*
X456611Y593187D01*
X457097Y594360D01*
X594360D01*
X594360Y205430D01*
D02*
G37*
G36*
X145542Y521683D02*
X144272Y520950D01*
X142457Y521997D01*
X139469Y522798D01*
X136375D01*
X133387Y521997D01*
X130707Y520450D01*
X128520Y518263D01*
X126973Y515583D01*
X126172Y512595D01*
Y509501D01*
X126973Y506513D01*
X128520Y503833D01*
X130707Y501646D01*
X133387Y500099D01*
X136375Y499298D01*
X139469D01*
X142457Y500099D01*
X144272Y501147D01*
X145542Y500413D01*
Y497398D01*
X126172D01*
Y473898D01*
X135259D01*
X135644Y472628D01*
X135374Y472448D01*
X114560Y451633D01*
X111069D01*
Y454881D01*
X48951D01*
Y434927D01*
X111069D01*
Y439398D01*
X114463D01*
X114585Y439328D01*
X115062Y439200D01*
X115442Y437783D01*
X112768Y435110D01*
X111442Y433125D01*
X110976Y430784D01*
Y419881D01*
X48951D01*
Y399927D01*
X111069D01*
Y403268D01*
X115045D01*
X116238Y402948D01*
X117950D01*
X119603Y403391D01*
X121085Y404247D01*
X122295Y405457D01*
X122638Y406050D01*
X123908Y405710D01*
Y401472D01*
X124714D01*
Y397866D01*
X123908D01*
Y394483D01*
X123444D01*
X121103Y394018D01*
X119118Y392692D01*
X114992Y388565D01*
X113665Y386580D01*
X113200Y384239D01*
Y380179D01*
X113069Y379953D01*
X112626Y378300D01*
Y376588D01*
X113069Y374935D01*
X113925Y373453D01*
X115135Y372243D01*
X116617Y371387D01*
X118270Y370944D01*
X119982D01*
X121635Y371387D01*
X122638Y371966D01*
X123908Y371346D01*
Y359308D01*
X124714D01*
Y356718D01*
X123908D01*
Y337718D01*
X124714D01*
Y316954D01*
X123602Y316733D01*
X122445Y315959D01*
X121671Y314802D01*
X121399Y313436D01*
Y312067D01*
X121445Y311836D01*
X121430Y311601D01*
X121580Y311159D01*
X121671Y310701D01*
X121802Y310505D01*
X121878Y310282D01*
X122182Y309936D01*
X121291Y309045D01*
X120435Y307563D01*
X119992Y305910D01*
Y304198D01*
X120435Y302545D01*
X121291Y301063D01*
X122182Y300172D01*
X121878Y299825D01*
X121802Y299603D01*
X121671Y299407D01*
X121580Y298949D01*
X121430Y298507D01*
X121445Y298272D01*
X121399Y298041D01*
Y265060D01*
X120129Y264438D01*
X118712Y264818D01*
X117000D01*
X115347Y264375D01*
X113865Y263519D01*
X112655Y262309D01*
X112365Y261807D01*
X111095Y261945D01*
Y261945D01*
X84653D01*
X84362Y262425D01*
X84193Y263215D01*
X85211Y264233D01*
X86067Y265715D01*
X86510Y267368D01*
Y269080D01*
X86128Y270507D01*
Y276991D01*
X111095D01*
Y296945D01*
X48977D01*
Y276991D01*
X73892D01*
Y270507D01*
X73510Y269080D01*
Y267368D01*
X73953Y265715D01*
X74809Y264233D01*
X75827Y263215D01*
X75658Y262425D01*
X75367Y261945D01*
X48977D01*
Y241991D01*
X111095D01*
Y246474D01*
X112130D01*
X114471Y246940D01*
X116456Y248266D01*
X120129Y251940D01*
X121399Y251414D01*
Y224037D01*
X121252Y223924D01*
X119540D01*
X117887Y223481D01*
X116405Y222625D01*
X115195Y221415D01*
X114339Y219933D01*
X113896Y218280D01*
Y216568D01*
X114339Y214915D01*
X115195Y213433D01*
X116405Y212223D01*
X117887Y211367D01*
X119540Y210924D01*
X121252D01*
X121399Y210811D01*
Y195261D01*
X121454Y194989D01*
X121442Y194712D01*
X121588Y194312D01*
X121671Y193895D01*
X121825Y193665D01*
X121920Y193405D01*
X122208Y193091D01*
X122445Y192737D01*
X122675Y192583D01*
X122862Y192379D01*
X123204Y192129D01*
X123698Y191900D01*
X124171Y191629D01*
X124714Y191446D01*
Y172786D01*
X123444Y172260D01*
X122609Y173095D01*
X121127Y173951D01*
X119474Y174394D01*
X117762D01*
X116109Y173951D01*
X114627Y173095D01*
X113417Y171885D01*
X112678Y170605D01*
X112339Y170266D01*
X111069Y170477D01*
Y174113D01*
X82188D01*
X82058Y174300D01*
X82437Y175985D01*
X82731Y176155D01*
X83941Y177365D01*
X84797Y178847D01*
X85240Y180500D01*
Y182212D01*
X84858Y183639D01*
Y189159D01*
X111069D01*
Y209113D01*
X48951D01*
Y189159D01*
X72622D01*
Y183639D01*
X72240Y182212D01*
Y180500D01*
X72683Y178847D01*
X73539Y177365D01*
X74749Y176155D01*
X75043Y175985D01*
X75422Y174300D01*
X75292Y174113D01*
X48951D01*
Y157746D01*
X6246D01*
X5349Y158645D01*
X5601Y594360D01*
X145542D01*
Y521683D01*
D02*
G37*
G36*
X829181Y514750D02*
X829452Y513384D01*
X830226Y512227D01*
X831384Y511453D01*
X832599Y511211D01*
Y511018D01*
X867899Y510919D01*
X867899Y378819D01*
X753519D01*
X753519Y478500D01*
X755005D01*
X756658Y478943D01*
X758140Y479799D01*
X759350Y481009D01*
X760206Y482491D01*
X760649Y484144D01*
Y485856D01*
X760206Y487509D01*
X759350Y488991D01*
X758140Y490201D01*
X756658Y491057D01*
X755005Y491500D01*
X753519D01*
Y503643D01*
X754418Y504539D01*
X768519Y504500D01*
X768519Y594099D01*
X829181Y594099D01*
X829181Y514750D01*
D02*
G37*
G36*
X1016542Y467793D02*
X1017210Y467407D01*
X1017756Y466861D01*
X1018142Y466192D01*
X1018341Y465447D01*
Y464300D01*
X1018613Y462934D01*
X1019387Y461777D01*
X1020544Y461003D01*
X1021910Y460731D01*
X1045418D01*
X1047676Y458473D01*
X1047190Y457300D01*
X1036349D01*
Y454005D01*
X1035079Y453272D01*
X1034758Y453457D01*
X1033105Y453900D01*
X1031393D01*
X1031349Y453934D01*
Y457300D01*
X1015349D01*
Y438300D01*
X1015349D01*
X1015449Y438150D01*
Y419150D01*
X1015249Y419000D01*
X1015249D01*
Y400000D01*
X1031249D01*
Y402978D01*
X1031343Y403050D01*
X1033055D01*
X1034708Y403493D01*
X1034979Y403649D01*
X1036249Y402916D01*
Y400000D01*
X1038132D01*
Y353300D01*
X1038597Y350959D01*
X1039923Y348974D01*
X1066507Y322391D01*
Y297686D01*
X1065237Y297077D01*
X1065134Y297160D01*
Y300233D01*
X1064669Y302574D01*
X1063342Y304558D01*
X1057175Y310726D01*
X1055190Y312052D01*
X1052849Y312518D01*
X1049499D01*
Y315900D01*
X1049499D01*
Y315950D01*
X1049499D01*
Y334950D01*
X1033499D01*
Y315950D01*
X1033499D01*
Y315900D01*
X1033499D01*
Y296900D01*
X1049499D01*
Y299302D01*
X1050769Y299828D01*
X1052899Y297699D01*
Y294948D01*
X1052708Y294235D01*
Y292524D01*
X1053151Y290870D01*
X1054007Y289388D01*
X1055217Y288178D01*
X1056699Y287322D01*
X1058352Y286879D01*
X1060064D01*
X1061717Y287322D01*
X1063199Y288178D01*
X1064409Y289388D01*
X1065265Y290870D01*
X1066507Y290598D01*
Y275533D01*
X1065237Y274838D01*
X1064337Y275357D01*
X1062684Y275800D01*
X1060973D01*
X1059320Y275357D01*
X1059093Y275226D01*
X1049449D01*
Y276450D01*
X1049349Y276500D01*
Y295500D01*
X1033349D01*
Y276500D01*
X1033449Y276450D01*
Y257450D01*
X1034688D01*
X1035174Y256277D01*
X1028723Y249826D01*
X1027397Y247841D01*
X1026932Y245500D01*
Y124500D01*
X1027397Y122159D01*
X1028723Y120174D01*
X1034559Y114339D01*
X1035298Y113059D01*
X1036508Y111849D01*
X1037990Y110993D01*
X1039643Y110550D01*
X1041355D01*
X1043008Y110993D01*
X1044490Y111849D01*
X1045700Y113059D01*
X1046556Y114541D01*
X1046999Y116194D01*
Y117906D01*
X1046556Y119559D01*
X1045700Y121041D01*
X1044490Y122251D01*
X1043211Y122990D01*
X1039167Y127034D01*
Y177672D01*
X1040340Y178158D01*
X1045709Y172789D01*
X1046448Y171509D01*
X1047658Y170299D01*
X1049140Y169443D01*
X1050499Y169079D01*
Y77350D01*
Y5400D01*
X892049D01*
X891966Y6670D01*
X892887Y6791D01*
X894600Y7501D01*
X896070Y8629D01*
X897199Y10100D01*
X897908Y11812D01*
X898150Y13650D01*
Y14650D01*
X891049D01*
X883948D01*
Y13650D01*
X884190Y11812D01*
X884900Y10100D01*
X886028Y8629D01*
X887499Y7501D01*
X889211Y6791D01*
X890132Y6670D01*
X890049Y5400D01*
X883272D01*
X882089Y5610D01*
Y14650D01*
X870049D01*
Y19650D01*
X882089D01*
Y28690D01*
X876770D01*
X876388Y29960D01*
X877156Y31291D01*
X877599Y32944D01*
Y34656D01*
X877156Y36309D01*
X876402Y37615D01*
Y43900D01*
X875994Y45948D01*
X875637Y46483D01*
Y48650D01*
X876224Y49365D01*
X879754D01*
X880353Y48245D01*
X879860Y47507D01*
X879391Y45150D01*
Y44150D01*
X900707D01*
Y45150D01*
X900239Y47507D01*
X899746Y48245D01*
X900344Y49365D01*
X1012964D01*
X1025749Y62150D01*
Y77350D01*
X1024783D01*
Y169664D01*
X1024609Y170542D01*
X1024111Y171286D01*
X1007693Y187704D01*
X1007693Y187704D01*
X986023Y209374D01*
X986023Y209374D01*
X976393Y219004D01*
Y366719D01*
X978499Y368826D01*
X979598D01*
X980206Y368420D01*
X980603Y368341D01*
X980908Y367604D01*
X982033Y366479D01*
X983503Y365870D01*
X985095D01*
X986565Y366479D01*
X987690Y367604D01*
X988112Y368621D01*
X989382Y368369D01*
Y291550D01*
X989847Y289209D01*
X991173Y287224D01*
X1012449Y265949D01*
Y257450D01*
X1028449D01*
Y276450D01*
X1028017D01*
X1027389Y277460D01*
Y283500D01*
X1020349D01*
Y286000D01*
X1017849D01*
Y294540D01*
X1013309D01*
Y284051D01*
X1012136Y283565D01*
X1001617Y294084D01*
Y314972D01*
X1002790Y315458D01*
X1012499Y305749D01*
Y296900D01*
X1028499D01*
Y315900D01*
X1028167D01*
X1027539Y316910D01*
Y322950D01*
X1020499D01*
Y325450D01*
X1017999D01*
Y333990D01*
X1013459D01*
Y324725D01*
X1012189Y324089D01*
X1011767Y324405D01*
Y466573D01*
X1011869Y466767D01*
X1012571Y467616D01*
X1013042Y467647D01*
X1013513Y467617D01*
X1013730Y467692D01*
X1013960Y467707D01*
X1015024Y467992D01*
X1015796D01*
X1016542Y467793D01*
D02*
G37*
G36*
X182214Y450574D02*
X181012Y448492D01*
X180262Y445694D01*
Y442798D01*
X181012Y440000D01*
X182460Y437492D01*
X184508Y435444D01*
X187016Y433996D01*
X189814Y433246D01*
X191354D01*
X192488Y432918D01*
Y429027D01*
X188976D01*
X186635Y428562D01*
X184650Y427236D01*
X178498Y421084D01*
X177172Y419099D01*
X176707Y416758D01*
Y409370D01*
X176500Y409164D01*
X175061D01*
X173935Y408940D01*
X170958D01*
X164600Y415298D01*
X162615Y416624D01*
X160908Y416963D01*
X160908Y420171D01*
X161335Y420894D01*
X161810Y421362D01*
X162992Y422044D01*
X164202Y423254D01*
X165058Y424736D01*
X165501Y426390D01*
Y428101D01*
X165058Y429754D01*
X164202Y431236D01*
X162992Y432447D01*
X161510Y433302D01*
X159857Y433745D01*
X158145D01*
X156492Y433302D01*
X155010Y432447D01*
X153799Y431236D01*
X152944Y429754D01*
X152501Y428101D01*
Y426390D01*
X152944Y424736D01*
X153799Y423254D01*
X155010Y422044D01*
X155533Y421742D01*
X155193Y420472D01*
X144908D01*
Y408940D01*
X141091D01*
X139908Y410123D01*
Y420472D01*
X123908D01*
X123211Y421454D01*
Y428250D01*
X146806Y451844D01*
X156311D01*
X156822Y451221D01*
Y446746D01*
X174902D01*
Y451221D01*
X175413Y451844D01*
X181633D01*
X182214Y450574D01*
D02*
G37*
G36*
X1267949Y388380D02*
X1073167D01*
Y437650D01*
X1072701Y439991D01*
X1071375Y441976D01*
X1067806Y445545D01*
X1068586Y446561D01*
X1068790Y446443D01*
X1070443Y446000D01*
X1072155D01*
X1073808Y446443D01*
X1075290Y447299D01*
X1076500Y448509D01*
X1077356Y449991D01*
X1077799Y451644D01*
Y453356D01*
X1077356Y455009D01*
X1076500Y456491D01*
X1075290Y457701D01*
X1073808Y458557D01*
X1072155Y459000D01*
X1070443D01*
X1068790Y458557D01*
X1067308Y457701D01*
X1066098Y456491D01*
X1065519Y455489D01*
X1064249Y455829D01*
Y464300D01*
X1021910D01*
Y465917D01*
X1021467Y467570D01*
X1020611Y469052D01*
X1019401Y470262D01*
X1017919Y471118D01*
X1016266Y471561D01*
X1014554D01*
X1013037Y471154D01*
X1012542Y471285D01*
X1011767Y471733D01*
Y510116D01*
X1012533Y510882D01*
X1031199D01*
X1033540Y511348D01*
X1035525Y512674D01*
X1040875Y518024D01*
X1042201Y520009D01*
X1042667Y522350D01*
Y536842D01*
X1043457Y537298D01*
X1045551Y539392D01*
X1047032Y541958D01*
X1047799Y544819D01*
Y547781D01*
X1047032Y550642D01*
X1045551Y553208D01*
X1043457Y555302D01*
X1040891Y556783D01*
X1038030Y557550D01*
X1035068D01*
X1032207Y556783D01*
X1029641Y555302D01*
X1027547Y553208D01*
X1026066Y550642D01*
X1025299Y547781D01*
Y544819D01*
X1026066Y541958D01*
X1027547Y539392D01*
X1029641Y537298D01*
X1030432Y536842D01*
Y533459D01*
X1029162Y532980D01*
X1028290Y533851D01*
X1026808Y534707D01*
X1025155Y535150D01*
X1023443D01*
X1022016Y534767D01*
X1016214D01*
X1015874Y536037D01*
X1018057Y537298D01*
X1020151Y539392D01*
X1021632Y541958D01*
X1022399Y544819D01*
Y547781D01*
X1021632Y550642D01*
X1020151Y553208D01*
X1018057Y555302D01*
X1015491Y556783D01*
X1012630Y557550D01*
X1009668D01*
X1006807Y556783D01*
X1004241Y555302D01*
X1002147Y553208D01*
X1000666Y550642D01*
X999899Y547781D01*
Y544819D01*
X1000666Y541958D01*
X1002147Y539392D01*
X1004241Y537298D01*
X1006424Y536037D01*
X1006084Y534767D01*
X1004849D01*
X1002508Y534302D01*
X1000523Y532976D01*
X991173Y523626D01*
X989847Y521641D01*
X989382Y519300D01*
Y514750D01*
X929727D01*
X914413Y530065D01*
Y536118D01*
X916457Y537298D01*
X918551Y539392D01*
X920032Y541958D01*
X920799Y544819D01*
Y547781D01*
X920032Y550642D01*
X918996Y552438D01*
X919590Y553600D01*
X920660Y553711D01*
X924310Y550061D01*
X923699Y547781D01*
Y544819D01*
X924466Y541958D01*
X925947Y539392D01*
X928042Y537298D01*
X930607Y535817D01*
X933468Y535050D01*
X936430D01*
X939292Y535817D01*
X941857Y537298D01*
X943951Y539392D01*
X945432Y541958D01*
X946199Y544819D01*
Y547781D01*
X945432Y550642D01*
X943951Y553208D01*
X941857Y555302D01*
X939292Y556783D01*
X936430Y557550D01*
X933468D01*
X931188Y556939D01*
X925868Y562259D01*
X924290Y563313D01*
X922429Y563684D01*
X922429Y563683D01*
X917744D01*
X917258Y564857D01*
X917783Y565382D01*
X919138Y567728D01*
X919532Y569200D01*
X899566D01*
X899960Y567728D01*
X901315Y565382D01*
X902087Y564610D01*
X901718Y563395D01*
X901308Y563313D01*
X899730Y562259D01*
X899730Y562259D01*
X893460Y555989D01*
X892942Y555213D01*
X891332Y555027D01*
X891057Y555302D01*
X888492Y556783D01*
X885630Y557550D01*
X882668D01*
X880388Y556939D01*
X875068Y562259D01*
X873490Y563313D01*
X871629Y563684D01*
X871629Y563683D01*
X868919D01*
X868320Y564804D01*
X868667Y565322D01*
X869165Y567825D01*
Y569200D01*
X848334D01*
Y567825D01*
X848831Y565322D01*
X849178Y564804D01*
X848579Y563683D01*
X847769D01*
X847769Y563684D01*
X845908Y563313D01*
X844330Y562259D01*
X844330Y562259D01*
X839910Y557839D01*
X838856Y556261D01*
X838486Y554400D01*
X838486Y554400D01*
Y537450D01*
X838486Y537450D01*
X838856Y535589D01*
X839910Y534011D01*
X845210Y528711D01*
X845210Y528711D01*
X846788Y527657D01*
X848649Y527286D01*
X848649Y527287D01*
X857835D01*
X869101Y516020D01*
X869052Y514750D01*
X832749D01*
X832749Y594150D01*
X1267949Y594150D01*
Y388380D01*
D02*
G37*
G36*
X944336Y474585D02*
Y423950D01*
X934563D01*
Y436450D01*
X934563Y436450D01*
X934192Y438311D01*
X933138Y439889D01*
X933138Y439889D01*
X930399Y442628D01*
Y443106D01*
X929956Y444759D01*
X929100Y446241D01*
X927890Y447451D01*
X926408Y448307D01*
X924755Y448750D01*
X923043D01*
X921390Y448307D01*
X919908Y447451D01*
X918698Y446241D01*
X917842Y444759D01*
X917399Y443106D01*
Y441394D01*
X917842Y439741D01*
X918576Y438470D01*
X918326Y437725D01*
X917961Y437200D01*
X917043D01*
X915390Y436757D01*
X913908Y435901D01*
X912698Y434691D01*
X911842Y433209D01*
X911636Y432438D01*
X910219Y432058D01*
X909213Y433064D01*
Y439300D01*
X913849D01*
Y455300D01*
X894849D01*
Y439300D01*
X899486D01*
Y431050D01*
X899486Y431050D01*
X899856Y429189D01*
X900910Y427611D01*
X902858Y425663D01*
X902372Y424490D01*
X898909D01*
Y419200D01*
X903699D01*
Y416700D01*
X905335D01*
X905705Y414839D01*
X905948Y414475D01*
Y409450D01*
X906199D01*
Y408910D01*
X908489D01*
Y409450D01*
X910893D01*
X912125Y409182D01*
X912496Y407321D01*
X913550Y405743D01*
X916499Y402794D01*
Y402744D01*
X916942Y401091D01*
X917798Y399609D01*
X919008Y398399D01*
X920490Y397543D01*
X921380Y397305D01*
X921759Y395888D01*
X919085Y393213D01*
X896464D01*
X885963Y403714D01*
Y514100D01*
X904821D01*
X944336Y474585D01*
D02*
G37*
G36*
X989382Y405165D02*
X988112Y404432D01*
X987808Y404607D01*
X986155Y405050D01*
X984443D01*
X982790Y404607D01*
X981571Y403903D01*
X975939D01*
X975453Y405076D01*
X975663Y405286D01*
X975663Y405286D01*
X976717Y406864D01*
X977088Y408725D01*
X977088Y408725D01*
Y431700D01*
X982199D01*
Y447700D01*
X963363D01*
Y452720D01*
X964159Y453660D01*
X964633Y453660D01*
X970199D01*
Y460700D01*
Y467740D01*
X964633D01*
X964159Y467740D01*
X963363Y468680D01*
Y479100D01*
X963363Y479100D01*
X962992Y480961D01*
X961938Y482539D01*
X961938Y482539D01*
X934469Y510008D01*
X934955Y511181D01*
X989382D01*
Y405165D01*
D02*
G37*
G36*
X425682Y453980D02*
Y381995D01*
X424373Y380685D01*
X423895Y380961D01*
X422242Y381404D01*
X420530D01*
X418877Y380961D01*
X417625Y380238D01*
X416814D01*
Y379524D01*
X416185Y378895D01*
X415329Y377413D01*
X414886Y375760D01*
Y374048D01*
X415269Y372621D01*
Y205574D01*
X414058Y205430D01*
Y205430D01*
X361338D01*
Y191320D01*
X359701D01*
X357360Y190855D01*
X355375Y189529D01*
X349242Y183396D01*
X347916Y181411D01*
X347450Y179070D01*
Y48768D01*
X347916Y46427D01*
X349242Y44443D01*
X365499Y28186D01*
X367483Y26860D01*
X369824Y26395D01*
X419381D01*
X419985Y25124D01*
X419393Y24099D01*
X418950Y22446D01*
Y20734D01*
X419393Y19081D01*
X420249Y17599D01*
X421459Y16389D01*
X422941Y15533D01*
X424594Y15090D01*
X426306D01*
X427733Y15473D01*
X489712D01*
X492053Y15938D01*
X494038Y17264D01*
X518930Y42156D01*
X520256Y44141D01*
X520722Y46482D01*
Y53340D01*
X522049D01*
Y49541D01*
X542003D01*
Y53340D01*
X544538D01*
Y51618D01*
X593852D01*
Y5588D01*
X271793Y5588D01*
Y20552D01*
X322834D01*
X325175Y21018D01*
X327160Y22344D01*
X336050Y31234D01*
X337376Y33219D01*
X337841Y35560D01*
Y48951D01*
X341649D01*
Y111069D01*
X330429D01*
X330088Y112339D01*
X330635Y112655D01*
X331845Y113865D01*
X332701Y115347D01*
X333144Y117000D01*
Y118712D01*
X332701Y120365D01*
X331845Y121847D01*
X330635Y123057D01*
X329153Y123913D01*
X327500Y124356D01*
X325788D01*
X324135Y123913D01*
X322653Y123057D01*
X321443Y121847D01*
X320587Y120365D01*
X320144Y118712D01*
Y117000D01*
X320587Y115347D01*
X321443Y113865D01*
X322653Y112655D01*
X323200Y112339D01*
X322859Y111069D01*
X321695D01*
Y48951D01*
X325606D01*
Y38094D01*
X320300Y32787D01*
X297352D01*
X296866Y33961D01*
X300872Y37966D01*
X302198Y39951D01*
X302663Y42292D01*
Y48951D01*
X306649D01*
Y111069D01*
X286695D01*
Y48951D01*
X290428D01*
Y44826D01*
X287280Y41677D01*
X267970D01*
X267970Y48951D01*
X271649D01*
Y107278D01*
X272919Y108082D01*
X273972Y107800D01*
X275684D01*
X277337Y108243D01*
X278819Y109099D01*
X280029Y110309D01*
X280885Y111791D01*
X281328Y113444D01*
Y115156D01*
X280885Y116809D01*
X280029Y118291D01*
X278819Y119501D01*
X277337Y120357D01*
X275684Y120800D01*
X273972D01*
X272319Y120357D01*
X270837Y119501D01*
X269627Y118291D01*
X269240Y117621D01*
X267970Y117962D01*
X267970Y123682D01*
X341801Y197514D01*
X343081Y198253D01*
X344291Y199463D01*
X345147Y200945D01*
X345590Y202598D01*
Y204310D01*
X345147Y205963D01*
X344291Y207445D01*
X343081Y208655D01*
X341599Y209511D01*
X339946Y209954D01*
X338234D01*
X336581Y209511D01*
X335099Y208655D01*
X333889Y207445D01*
X333150Y206165D01*
X269143Y142159D01*
X267970Y142645D01*
Y158500D01*
X257366D01*
X257342Y158511D01*
X256456Y159770D01*
X256690Y160644D01*
Y162356D01*
X256247Y164009D01*
X255391Y165491D01*
X254181Y166701D01*
X252699Y167557D01*
X251046Y168000D01*
X249334D01*
X247681Y167557D01*
X246199Y166701D01*
X244989Y165491D01*
X244133Y164009D01*
X243690Y162356D01*
Y160644D01*
X243881Y159931D01*
Y158500D01*
X232500D01*
X231050Y157050D01*
X228750D01*
X228113Y158056D01*
Y162814D01*
Y212056D01*
X229384Y212789D01*
X229647Y212637D01*
X231300Y212194D01*
X232750D01*
Y201750D01*
X260250D01*
Y206367D01*
X260374Y206456D01*
X261520Y206808D01*
X262455Y205873D01*
X263937Y205017D01*
X265590Y204574D01*
X267302D01*
X268955Y205017D01*
X270437Y205873D01*
X271647Y207083D01*
X272503Y208565D01*
X272946Y210218D01*
Y211930D01*
X272503Y213583D01*
X271911Y214608D01*
X272515Y215879D01*
X319498D01*
X320231Y214608D01*
X320079Y214345D01*
X319636Y212692D01*
Y210980D01*
X320079Y209327D01*
X320935Y207845D01*
X322145Y206635D01*
X323627Y205779D01*
X325280Y205336D01*
X326992D01*
X328645Y205779D01*
X330127Y206635D01*
X331337Y207845D01*
X332193Y209327D01*
X332636Y210980D01*
Y212692D01*
X332193Y214345D01*
X332041Y214608D01*
X332774Y215879D01*
X383289D01*
X384716Y215496D01*
X386428D01*
X388081Y215939D01*
X389563Y216795D01*
X390773Y218005D01*
X391629Y219487D01*
X392072Y221140D01*
Y222852D01*
X391629Y224505D01*
X390773Y225987D01*
X389563Y227197D01*
X388081Y228053D01*
X386428Y228496D01*
X384716D01*
X384401Y228412D01*
X383725Y229149D01*
X383528Y229492D01*
X383944Y231046D01*
Y232758D01*
X383501Y234411D01*
X382645Y235893D01*
X381435Y237103D01*
X379953Y237959D01*
X378300Y238402D01*
X376588D01*
X375161Y238020D01*
X351708D01*
X351222Y239193D01*
X381752Y269722D01*
X383078Y271707D01*
X383544Y274048D01*
Y413500D01*
X424509Y454466D01*
X425682Y453980D01*
D02*
G37*
G36*
X982790Y392493D02*
X984443Y392050D01*
X986155D01*
X987808Y392493D01*
X988112Y392668D01*
X989382Y391935D01*
Y378371D01*
X988112Y378118D01*
X987690Y379136D01*
X986565Y380261D01*
X985095Y380870D01*
X983503D01*
X982033Y380261D01*
X980908Y379136D01*
X980603Y378399D01*
X980206Y378320D01*
X979598Y377914D01*
X975685D01*
X974807Y377739D01*
X974063Y377242D01*
X967977Y371156D01*
X967480Y370411D01*
X967305Y369534D01*
Y369366D01*
X966449Y368450D01*
X961052D01*
Y378333D01*
X975916Y393197D01*
X981571D01*
X982790Y392493D01*
D02*
G37*
G36*
X733346Y299083D02*
Y212500D01*
X733099D01*
Y212040D01*
X726559D01*
Y209000D01*
X731099D01*
Y204000D01*
X726559D01*
Y200960D01*
X733099D01*
Y200500D01*
X733346D01*
Y157846D01*
X733269Y157794D01*
X731999Y158473D01*
Y170400D01*
X729263D01*
X728594Y171670D01*
X728949Y172994D01*
Y174706D01*
X729482Y175400D01*
X731999D01*
Y191400D01*
X712999D01*
Y175400D01*
X715416D01*
X715949Y174706D01*
Y172994D01*
X716304Y171670D01*
X715635Y170400D01*
X712999D01*
Y168743D01*
X704164D01*
X703984Y169054D01*
X702103Y170935D01*
X700946Y171604D01*
Y173070D01*
X702649Y174053D01*
X704696Y176100D01*
X706143Y178607D01*
X706892Y181403D01*
Y184297D01*
X706143Y187093D01*
X704696Y189600D01*
X702649Y191647D01*
X700142Y193094D01*
X697346Y193843D01*
X694452D01*
X693957Y193710D01*
X693300Y194849D01*
X699775Y201324D01*
X701101Y203309D01*
X701567Y205650D01*
Y234517D01*
X701949Y235944D01*
Y237656D01*
X701506Y239309D01*
X700650Y240791D01*
X699440Y242001D01*
X697958Y242857D01*
X696305Y243300D01*
X694593D01*
X692940Y242857D01*
X691458Y242001D01*
X690248Y240791D01*
X689392Y239309D01*
X688949Y237656D01*
Y235944D01*
X689332Y234517D01*
Y208184D01*
X679672Y198525D01*
X678499Y199011D01*
Y305857D01*
X679507Y306630D01*
X679993Y306500D01*
X681705D01*
X683358Y306943D01*
X684491Y307597D01*
X724832D01*
X733346Y299083D01*
D02*
G37*
G36*
X1267919Y242250D02*
X1267911Y242230D01*
X1100029D01*
X1099999Y242242D01*
Y244202D01*
X1100399Y245694D01*
Y247406D01*
X1100017Y248833D01*
Y332400D01*
X1099551Y334741D01*
X1098225Y336726D01*
X1073412Y361539D01*
X1073265Y383910D01*
X1074160Y384811D01*
X1267919D01*
Y242250D01*
D02*
G37*
G36*
X165204Y313342D02*
X165647Y311689D01*
X166503Y310207D01*
X167713Y308997D01*
X168993Y308258D01*
X172444Y304806D01*
Y253423D01*
X172910Y251082D01*
X174236Y249097D01*
X194660Y228673D01*
X194174Y227500D01*
X171500D01*
Y217000D01*
Y206500D01*
X199000D01*
Y210340D01*
X200270Y210802D01*
X201491Y210097D01*
X203144Y209654D01*
X204855D01*
X205718Y209885D01*
X206989Y208986D01*
Y195569D01*
X128500Y195569D01*
X127134Y195297D01*
X126238Y194698D01*
X125310Y195011D01*
X124968Y195261D01*
Y212804D01*
X125597Y213433D01*
X126453Y214915D01*
X126896Y216568D01*
Y218280D01*
X126453Y219933D01*
X125597Y221415D01*
X124968Y222044D01*
Y298041D01*
X125636Y298554D01*
X127348D01*
X129001Y298997D01*
X130483Y299853D01*
X131693Y301063D01*
X132549Y302545D01*
X132992Y304198D01*
Y305910D01*
X132549Y307563D01*
X131693Y309045D01*
X130483Y310255D01*
X129001Y311111D01*
X127348Y311554D01*
X125636D01*
X124968Y312067D01*
Y313436D01*
X165204D01*
Y313342D01*
D02*
G37*
G36*
X760459Y278800D02*
X768999D01*
Y273800D01*
X760459D01*
Y269260D01*
X762560D01*
X763195Y268160D01*
X762992Y267809D01*
X762549Y266156D01*
Y264444D01*
X762586Y264307D01*
X761813Y263300D01*
X759499D01*
Y247300D01*
X762882D01*
Y227104D01*
X760947Y225170D01*
X760308Y224801D01*
X759098Y223591D01*
X758242Y222109D01*
X757799Y220456D01*
Y218744D01*
X758242Y217091D01*
X758928Y215903D01*
X758789Y215695D01*
X758405Y215122D01*
X758404Y215119D01*
X758402Y215116D01*
X758267Y214436D01*
X758130Y213757D01*
X758131Y213754D01*
X758130Y213750D01*
Y183450D01*
X758402Y182084D01*
X759176Y180927D01*
X768026Y172077D01*
X768567Y171715D01*
X768646Y170417D01*
X757190Y158961D01*
X756017Y159447D01*
Y278166D01*
X758933Y281082D01*
X760459D01*
Y278800D01*
D02*
G37*
G36*
X206989Y156000D02*
X201683D01*
X200507Y156679D01*
X198854Y157122D01*
X197142D01*
X196873Y157050D01*
X174750D01*
Y156000D01*
X171000D01*
X170000Y155000D01*
Y132500D01*
X171000Y131500D01*
X174750D01*
Y131350D01*
X185909D01*
X186500Y131232D01*
X191678D01*
X191894Y130920D01*
X191228Y129650D01*
X188500D01*
Y125150D01*
X186000D01*
Y122650D01*
X175814D01*
X175480Y122423D01*
X174750Y122569D01*
X171500D01*
X170134Y122297D01*
X168977Y121523D01*
X168294Y120502D01*
X167945Y120322D01*
X166863Y120137D01*
X166000Y121000D01*
Y124500D01*
X165398Y125102D01*
X164500Y126000D01*
X164106Y127270D01*
X164360Y128216D01*
Y129927D01*
X163917Y131580D01*
X163061Y133063D01*
X161851Y134273D01*
X160368Y135129D01*
X158715Y135572D01*
X157004D01*
X155351Y135129D01*
X155270Y135082D01*
X154000Y135460D01*
Y138526D01*
X160504D01*
Y140026D01*
X160504D01*
Y144526D01*
Y149026D01*
X160504D01*
Y150526D01*
X150504D01*
Y149389D01*
X146026D01*
X145302Y150114D01*
Y150592D01*
X144859Y152245D01*
X144003Y153727D01*
X142793Y154937D01*
X141311Y155793D01*
X139657Y156236D01*
X137946D01*
X136293Y155793D01*
X134811Y154937D01*
X133600Y153727D01*
X132745Y152245D01*
X132302Y150592D01*
Y148880D01*
X132745Y147227D01*
X133600Y145745D01*
X133049Y144500D01*
X128500D01*
X128500Y144500D01*
Y153500D01*
X128500Y192000D01*
X206989Y192000D01*
Y156000D01*
D02*
G37*
G36*
X470900Y171196D02*
X457700Y157996D01*
X456374Y156011D01*
X455909Y153670D01*
Y111659D01*
X452049D01*
Y49541D01*
X472003D01*
Y111659D01*
X468144D01*
Y151136D01*
X482086Y165079D01*
X507749D01*
X509176Y164696D01*
X510888D01*
X512541Y165139D01*
X514023Y165995D01*
X515233Y167205D01*
X516089Y168687D01*
X516532Y170340D01*
Y172052D01*
X516089Y173705D01*
X515233Y175187D01*
X515182Y175238D01*
X515708Y176509D01*
X518166D01*
X528074Y166600D01*
X527700Y166226D01*
X526374Y164241D01*
X525909Y161900D01*
Y147110D01*
X524943Y146553D01*
X524638Y146544D01*
X523080Y146962D01*
X521368D01*
X519715Y146519D01*
X518233Y145663D01*
X517023Y144453D01*
X516284Y143173D01*
X510278Y137168D01*
X508952Y135183D01*
X508487Y132842D01*
Y49016D01*
X504260Y44790D01*
X503144Y45469D01*
Y49541D01*
X507003D01*
Y111659D01*
X487049D01*
Y49541D01*
X490909D01*
Y47694D01*
X482076Y38862D01*
X432562D01*
X432528Y48641D01*
X433424Y49541D01*
X437003D01*
Y111659D01*
X433144D01*
Y150680D01*
X447810Y165346D01*
X449136Y167331D01*
X449602Y169672D01*
Y187960D01*
X454137D01*
X470900Y171196D01*
D02*
G37*
G36*
X254393Y156500D02*
X254423Y156457D01*
X254619Y156270D01*
X254765Y156042D01*
X254829Y155997D01*
X254842Y155977D01*
X255126Y155787D01*
X255431Y155497D01*
X255684Y155399D01*
X255906Y155244D01*
X255930Y155233D01*
X255968Y155225D01*
X256000Y155203D01*
X256393Y155125D01*
X256730Y154995D01*
X256979Y155001D01*
X257289Y154932D01*
X257328Y154939D01*
X257366Y154931D01*
X261620D01*
Y134635D01*
X257346Y130362D01*
X256020Y128377D01*
X255555Y126036D01*
Y111069D01*
X251695D01*
Y48951D01*
X251777D01*
Y48941D01*
X251795Y43133D01*
X250526Y42606D01*
X247925Y45206D01*
Y89948D01*
X247460Y92289D01*
X246134Y94274D01*
X238254Y102154D01*
Y105500D01*
X237254Y106500D01*
X234891D01*
X234771Y106680D01*
X235450Y107950D01*
X237500D01*
Y112450D01*
Y116950D01*
X230750D01*
Y111418D01*
X229636Y110941D01*
X228754Y111667D01*
Y151293D01*
X229586Y151955D01*
X230750Y151446D01*
Y146050D01*
X237500D01*
Y150550D01*
X240000D01*
Y153050D01*
X249250D01*
Y155050D01*
X248474D01*
X247804Y156320D01*
X247927Y156500D01*
X254393D01*
D02*
G37*
G36*
X798892Y214502D02*
X799148Y214059D01*
X799349Y213858D01*
Y204100D01*
X801799Y201650D01*
X817749D01*
X836703Y182696D01*
X836898Y182359D01*
X838108Y181149D01*
X839590Y180293D01*
X841243Y179850D01*
X842955D01*
X844608Y180293D01*
X846090Y181149D01*
X846441Y181500D01*
X849987D01*
X850408Y181079D01*
X851890Y180223D01*
X853543Y179780D01*
X855255D01*
X856908Y180223D01*
X858390Y181079D01*
X858811Y181500D01*
X950449D01*
Y177754D01*
X950192Y177309D01*
X949749Y175656D01*
Y173944D01*
X950192Y172291D01*
X950449Y171846D01*
Y169300D01*
X952775D01*
X953740Y168743D01*
X955393Y168300D01*
X957105D01*
X958532Y168682D01*
X991765D01*
X998882Y161566D01*
Y138800D01*
X966049D01*
Y140450D01*
X965589D01*
Y144450D01*
X956049D01*
X946509D01*
Y140450D01*
X946049D01*
Y138242D01*
X944499Y136800D01*
Y120150D01*
X854699Y120150D01*
X836999Y137850D01*
Y152050D01*
X814449Y174600D01*
X813163D01*
X811898Y175445D01*
X809849Y175853D01*
X776299D01*
X774251Y175445D01*
X772986Y174600D01*
X770549D01*
X761699Y183450D01*
Y213750D01*
X762599Y214646D01*
X798892Y214502D01*
D02*
G37*
G36*
X206989Y145820D02*
Y121500D01*
X205000D01*
X203500Y123000D01*
Y132000D01*
X202500Y133000D01*
X196375D01*
X195250Y133350D01*
Y135350D01*
X176750D01*
Y134918D01*
X175504D01*
X174750Y135069D01*
X173569D01*
Y143837D01*
X174750Y144050D01*
Y144050D01*
X197250D01*
Y144122D01*
X198854D01*
X200507Y144565D01*
X201260Y145000D01*
X204500D01*
X205718Y146219D01*
X206989Y145820D01*
D02*
G37*
G36*
X436512Y176431D02*
X437366Y176172D01*
Y172206D01*
X422700Y157540D01*
X421374Y155555D01*
X420909Y153214D01*
Y111659D01*
X417049D01*
Y49541D01*
X419778D01*
Y47693D01*
X419647Y47467D01*
X419204Y45814D01*
Y44102D01*
X419647Y42449D01*
X420503Y40967D01*
X421570Y39899D01*
X421475Y39300D01*
X421125Y38630D01*
X372358D01*
X359686Y51302D01*
Y175839D01*
X360068Y176121D01*
X361338Y175479D01*
Y153218D01*
Y127818D01*
X362312D01*
X363338Y127230D01*
X363338Y126548D01*
Y118324D01*
X412058D01*
Y126548D01*
X412058Y127230D01*
X413084Y127818D01*
X414058D01*
Y153218D01*
Y160483D01*
X417600D01*
X419941Y160948D01*
X421926Y162274D01*
X436096Y176445D01*
X436512Y176431D01*
D02*
G37*
G36*
X735831Y142265D02*
X735647Y141991D01*
X735182Y139650D01*
Y40054D01*
X720135Y25007D01*
X720038Y24951D01*
X718828Y23741D01*
X717972Y22259D01*
X717961Y22216D01*
X717877Y22091D01*
X717734Y21368D01*
X717529Y20606D01*
Y20341D01*
X717412Y19750D01*
X717529Y19159D01*
Y18894D01*
X717734Y18132D01*
X717877Y17409D01*
X717961Y17284D01*
X717972Y17241D01*
X718828Y15759D01*
X720038Y14549D01*
X721520Y13693D01*
X723173Y13250D01*
X724885D01*
X726538Y13693D01*
X728020Y14549D01*
X729230Y15759D01*
X730086Y17241D01*
X730238Y17807D01*
X745625Y33194D01*
X746951Y35179D01*
X747417Y37520D01*
Y137116D01*
X751923Y141622D01*
X753096Y141136D01*
Y139352D01*
X752740Y139257D01*
X751258Y138401D01*
X750048Y137191D01*
X749192Y135709D01*
X748749Y134056D01*
Y132344D01*
X749192Y130691D01*
X750048Y129209D01*
X751258Y127999D01*
X752740Y127143D01*
X754393Y126700D01*
X756105D01*
X757758Y127143D01*
X759240Y127999D01*
X759376Y128135D01*
X760646Y127609D01*
Y104717D01*
X754451Y98521D01*
X753090Y98157D01*
X751608Y97301D01*
X750398Y96091D01*
X749542Y94609D01*
X749099Y92956D01*
Y91244D01*
X749542Y89591D01*
X750398Y88109D01*
X751608Y86899D01*
X752143Y86590D01*
X752352Y85003D01*
X748699Y81350D01*
Y4950D01*
X748649Y4900D01*
X678499D01*
Y13462D01*
X679728Y14029D01*
X681210Y13173D01*
X682863Y12730D01*
X684575D01*
X686228Y13173D01*
X687710Y14029D01*
X688920Y15239D01*
X689776Y16721D01*
X690219Y18374D01*
Y20086D01*
X689776Y21739D01*
X688920Y23221D01*
X687710Y24431D01*
X686228Y25287D01*
X684575Y25730D01*
X682863D01*
X681210Y25287D01*
X679728Y24431D01*
X678499Y24998D01*
Y74076D01*
X679769Y75044D01*
X680493Y74850D01*
X682205D01*
X683858Y75293D01*
X685340Y76149D01*
X686550Y77359D01*
X687406Y78841D01*
X687849Y80494D01*
Y82206D01*
X687467Y83633D01*
Y94077D01*
X688640Y94563D01*
X689149Y94053D01*
X691656Y92606D01*
X694452Y91857D01*
X697346D01*
X700142Y92606D01*
X702649Y94053D01*
X704696Y96100D01*
X706143Y98607D01*
X706892Y101403D01*
Y104297D01*
X706143Y107093D01*
X704696Y109600D01*
X702649Y111647D01*
X700946Y112630D01*
Y114096D01*
X702103Y114765D01*
X703984Y116646D01*
X704150Y116932D01*
X712599D01*
Y115400D01*
X731599D01*
Y131400D01*
X712599D01*
Y129167D01*
X703871D01*
X702103Y130935D01*
X699971Y132166D01*
X699878Y132850D01*
X699971Y133534D01*
X702103Y134765D01*
X703984Y136646D01*
X704476Y137497D01*
X727049D01*
X729098Y137905D01*
X730834Y139065D01*
X734844Y143075D01*
X735831Y142265D01*
D02*
G37*
G36*
X980109Y134840D02*
X980109Y133961D01*
Y130300D01*
X988649D01*
X997189D01*
Y133752D01*
X998459Y134449D01*
X998882Y134179D01*
Y75118D01*
X928189D01*
Y87850D01*
X913399D01*
X898609D01*
Y75118D01*
X876189D01*
Y87550D01*
X861399D01*
Y90050D01*
X858899D01*
Y105340D01*
X846609D01*
X846299Y106482D01*
Y118600D01*
X851181Y118621D01*
X852176Y117627D01*
X853334Y116853D01*
X854699Y116581D01*
X944499Y116581D01*
X945865Y116853D01*
X947022Y117627D01*
X947796Y118784D01*
X947846Y119035D01*
X949146Y119040D01*
X950046Y118144D01*
Y114150D01*
X950046Y114150D01*
Y104379D01*
X949342Y103159D01*
X948899Y101506D01*
Y99794D01*
X949342Y98141D01*
X950198Y96659D01*
X951408Y95449D01*
X952890Y94593D01*
X954543Y94150D01*
X956255D01*
X957908Y94593D01*
X959390Y95449D01*
X960600Y96659D01*
X961456Y98141D01*
X961899Y99794D01*
Y101506D01*
X961456Y103159D01*
X960752Y104379D01*
Y108610D01*
X966939D01*
Y111650D01*
X962399D01*
Y116650D01*
X966939D01*
Y119690D01*
X960752D01*
Y121200D01*
X965249D01*
X965499Y121450D01*
X966049D01*
Y135231D01*
X979001D01*
X980109Y134840D01*
D02*
G37*
G36*
X967305Y352495D02*
Y216190D01*
X967480Y215312D01*
X967977Y214568D01*
X975243Y207302D01*
X975244Y207301D01*
X979597Y202948D01*
X979597Y202948D01*
X996913Y185632D01*
X996914Y185631D01*
X1001267Y181278D01*
X1001267Y181278D01*
X1015695Y166850D01*
Y77350D01*
X1011117D01*
Y164100D01*
X1010651Y166441D01*
X1009325Y168426D01*
X998625Y179126D01*
X996640Y180452D01*
X994299Y180917D01*
X958532D01*
X957105Y181300D01*
X955393D01*
X955240Y181259D01*
X953774Y182725D01*
X953746Y182866D01*
X952972Y184023D01*
X951815Y184797D01*
X950449Y185069D01*
X905855D01*
X905369Y186242D01*
X938238Y219111D01*
X938238Y219111D01*
X939292Y220689D01*
X939663Y222550D01*
Y304286D01*
X959638Y324261D01*
X959638Y324261D01*
X960692Y325839D01*
X961063Y327700D01*
Y346836D01*
X964909Y350682D01*
X964909Y350682D01*
X965963Y352260D01*
X966035Y352621D01*
X967305Y352495D01*
D02*
G37*
G36*
X833832Y114840D02*
X827849D01*
Y107800D01*
Y100760D01*
X833832D01*
Y74500D01*
X834297Y72159D01*
X834849Y71333D01*
Y69750D01*
X840099Y64500D01*
X841384D01*
X843108Y63348D01*
X845449Y62882D01*
X853217D01*
X854699Y61400D01*
Y53304D01*
X853579Y52706D01*
X853305Y52889D01*
X851549Y53238D01*
X849793Y52889D01*
X848330Y51911D01*
X848322Y51923D01*
X847549Y52440D01*
Y50764D01*
X847310Y50406D01*
X846961Y48650D01*
Y43900D01*
Y39150D01*
X847310Y37394D01*
X847549Y37036D01*
Y35360D01*
X848322Y35877D01*
X848330Y35889D01*
X849793Y34911D01*
X851549Y34562D01*
X853305Y34911D01*
X854793Y35906D01*
X855516Y36987D01*
X855886D01*
X856879Y36324D01*
X858049Y36091D01*
X859220Y36324D01*
X860212Y36987D01*
X860594Y37558D01*
X860647Y37578D01*
X861952D01*
X862005Y37558D01*
X862386Y36987D01*
X863379Y36324D01*
X863714Y36258D01*
X864670Y34919D01*
X864599Y34656D01*
Y32944D01*
X865042Y31291D01*
X865811Y29960D01*
X865429Y28690D01*
X848549D01*
Y17150D01*
X846049D01*
Y14650D01*
X834009D01*
Y5610D01*
X832826Y5400D01*
X826049D01*
X825966Y6670D01*
X826887Y6791D01*
X828599Y7501D01*
X830070Y8629D01*
X831199Y10100D01*
X831908Y11812D01*
X832150Y13650D01*
Y14650D01*
X825049D01*
X817948D01*
Y13650D01*
X818190Y11812D01*
X818900Y10100D01*
X820028Y8629D01*
X821499Y7501D01*
X823211Y6791D01*
X824132Y6670D01*
X824049Y5400D01*
X750999D01*
Y81850D01*
X758299Y81850D01*
X771499Y95050D01*
Y114850D01*
X775249Y118600D01*
X833832D01*
Y114840D01*
D02*
G37*
G36*
X48951Y154159D02*
X101500D01*
X101500Y123592D01*
X99853Y123151D01*
X98371Y122295D01*
X97161Y121085D01*
X96305Y119603D01*
X95862Y117950D01*
Y116238D01*
X96305Y114585D01*
X97161Y113103D01*
X98371Y111893D01*
X99853Y111037D01*
X101500Y110596D01*
X101500Y96000D01*
X119000Y96000D01*
X119000Y49000D01*
X76500Y49000D01*
X74500Y51000D01*
Y95000D01*
X71500Y98000D01*
X5334Y98000D01*
X5334Y154178D01*
X48951D01*
Y154159D01*
D02*
G37*
G36*
X124931Y144500D02*
X125203Y143134D01*
X125977Y141977D01*
X125977Y141977D01*
X127134Y141203D01*
X128500Y140931D01*
X131572D01*
Y136500D01*
X135500D01*
Y116652D01*
X131572Y112724D01*
X130920Y112072D01*
X129594Y110087D01*
X129128Y107746D01*
Y88965D01*
X128746Y87538D01*
Y85826D01*
X129189Y84173D01*
X130044Y82691D01*
X131255Y81481D01*
X131770Y81183D01*
X132737Y80625D01*
X134390Y80182D01*
X136102D01*
X137755Y80625D01*
X139237Y81481D01*
X140447Y82691D01*
X141303Y84173D01*
X141746Y85826D01*
Y87538D01*
X141642Y87924D01*
X141363Y88965D01*
D01*
Y105212D01*
X146152Y110000D01*
X164500D01*
Y115968D01*
X164514Y115991D01*
X164863Y116293D01*
X165770Y116786D01*
X165794Y116781D01*
X166070Y116658D01*
X166470Y116647D01*
X166863Y116569D01*
X167160Y116628D01*
X167462Y116619D01*
X168544Y116804D01*
X169055Y116999D01*
X169580Y117150D01*
X169930Y117330D01*
X170089Y117457D01*
X170277Y117535D01*
X170629Y117887D01*
X171019Y118198D01*
X171118Y118376D01*
X171261Y118519D01*
X171500Y118877D01*
Y119000D01*
X174750D01*
Y118650D01*
X197250D01*
Y118650D01*
X198234Y117959D01*
X198281Y117856D01*
X198209Y117730D01*
D01*
X197677Y116809D01*
X197234Y115156D01*
Y113444D01*
X197677Y111791D01*
X198533Y110309D01*
X199743Y109099D01*
X201225Y108243D01*
X202878Y107800D01*
X204590D01*
X205718Y108103D01*
X206989Y107336D01*
Y106629D01*
X207454Y104288D01*
X208780Y102303D01*
X216410Y94673D01*
X215924Y93500D01*
X209500D01*
Y81750D01*
X220750D01*
Y88674D01*
X221923Y89160D01*
X225275Y85809D01*
Y48000D01*
X130500Y48000D01*
Y48082D01*
X129983Y48428D01*
X129944Y48467D01*
X129619Y48602D01*
X129327Y48797D01*
X128982Y48865D01*
X128657Y49000D01*
X128306Y49000D01*
X127961Y49069D01*
X123190D01*
X123190Y99822D01*
X120512Y102500D01*
X105500D01*
Y103160D01*
X105069Y103591D01*
Y110596D01*
X105023Y110827D01*
X105038Y111061D01*
X104888Y111503D01*
X104797Y111961D01*
X104666Y112157D01*
X104591Y112380D01*
X104283Y112731D01*
X104023Y113119D01*
X103828Y113250D01*
X103672Y113427D01*
X103254Y113633D01*
X102866Y113893D01*
X102635Y113939D01*
X102424Y114043D01*
X101230Y114362D01*
X100562Y114748D01*
X100016Y115294D01*
X99630Y115962D01*
X99568Y116195D01*
Y117993D01*
X99630Y118225D01*
X100016Y118894D01*
X100562Y119440D01*
X101230Y119826D01*
X102424Y120145D01*
X102635Y120250D01*
X102866Y120295D01*
X103254Y120555D01*
X103672Y120761D01*
X103828Y120938D01*
X104023Y121069D01*
X104283Y121457D01*
X104591Y121808D01*
X104666Y122031D01*
X104797Y122227D01*
X104888Y122684D01*
X105038Y123127D01*
X105023Y123362D01*
X105069Y123592D01*
X105069Y154159D01*
X111069D01*
Y154432D01*
X124931D01*
Y144500D01*
D02*
G37*
G36*
X70931Y92323D02*
Y51000D01*
X71203Y49634D01*
X71977Y48477D01*
X73977Y46477D01*
X75134Y45703D01*
X75654Y45600D01*
X75754Y45500D01*
X76155D01*
X76500Y45431D01*
X106006Y45431D01*
X106347Y44161D01*
X105737Y43809D01*
X104527Y42599D01*
X103788Y41319D01*
X88376Y25907D01*
X88272Y25947D01*
X87589Y27212D01*
X87997Y29260D01*
Y30510D01*
X75894D01*
X63791D01*
Y29260D01*
X64199Y27212D01*
X64716Y26437D01*
X64037Y25168D01*
X24889D01*
X23462Y25550D01*
X21750D01*
X20097Y25107D01*
X18615Y24251D01*
X17405Y23041D01*
X16549Y21559D01*
X16106Y19906D01*
Y18194D01*
X16549Y16541D01*
X17405Y15059D01*
X18615Y13849D01*
X20097Y12993D01*
X21750Y12550D01*
X23462D01*
X24889Y12932D01*
X90170D01*
X92511Y13398D01*
X94496Y14724D01*
X112439Y32668D01*
X113719Y33407D01*
X114929Y34617D01*
X115785Y36099D01*
X116228Y37752D01*
Y39464D01*
X115785Y41117D01*
X114929Y42599D01*
X113719Y43809D01*
X113109Y44161D01*
X113449Y45431D01*
X119000D01*
X119345Y45500D01*
X127961D01*
X127977Y45477D01*
X129134Y44703D01*
X130500Y44431D01*
X225275Y44431D01*
Y37340D01*
X225740Y34999D01*
X227066Y33014D01*
X237736Y22344D01*
X239721Y21018D01*
X242062Y20552D01*
X268224D01*
Y4826D01*
X220750D01*
Y16250D01*
X207000D01*
X193250D01*
Y4826D01*
X5334D01*
Y94431D01*
X5334Y94431D01*
X68823Y94431D01*
X70931Y92323D01*
D02*
G37*
%LPC*%
G36*
X760112Y577990D02*
X748819D01*
Y566697D01*
X751711Y567472D01*
X754897Y569311D01*
X757498Y571912D01*
X759337Y575098D01*
X760112Y577990D01*
D02*
G37*
G36*
X709312D02*
X698019D01*
Y566697D01*
X700911Y567472D01*
X704097Y569311D01*
X706698Y571912D01*
X708537Y575098D01*
X709312Y577990D01*
D02*
G37*
G36*
X743819D02*
X732526D01*
X733301Y575098D01*
X735140Y571912D01*
X737741Y569311D01*
X740927Y567472D01*
X743819Y566697D01*
Y577990D01*
D02*
G37*
G36*
X693019D02*
X681726D01*
X682501Y575098D01*
X684340Y571912D01*
X686941Y569311D01*
X690127Y567472D01*
X693019Y566697D01*
Y577990D01*
D02*
G37*
G36*
X722718Y568750D02*
X719121D01*
X715647Y567819D01*
X712532Y566021D01*
X709988Y563477D01*
X708190Y560363D01*
X707259Y556888D01*
Y553292D01*
X708190Y549817D01*
X709988Y546703D01*
X712532Y544159D01*
X715647Y542361D01*
X719121Y541430D01*
X722718D01*
X726192Y542361D01*
X729307Y544159D01*
X731850Y546703D01*
X733648Y549817D01*
X734579Y553292D01*
Y556888D01*
X733648Y560363D01*
X731850Y563477D01*
X729307Y566021D01*
X726192Y567819D01*
X722718Y568750D01*
D02*
G37*
G36*
X748819Y543483D02*
Y532190D01*
X760112D01*
X759337Y535082D01*
X757498Y538268D01*
X754897Y540869D01*
X751711Y542708D01*
X748819Y543483D01*
D02*
G37*
G36*
X698019D02*
Y532190D01*
X709312D01*
X708537Y535082D01*
X706698Y538268D01*
X704097Y540869D01*
X700911Y542708D01*
X698019Y543483D01*
D02*
G37*
G36*
X743819D02*
X740927Y542708D01*
X737741Y540869D01*
X735140Y538268D01*
X733301Y535082D01*
X732526Y532190D01*
X743819D01*
Y543483D01*
D02*
G37*
G36*
X693019D02*
X690127Y542708D01*
X686941Y540869D01*
X684340Y538268D01*
X682501Y535082D01*
X681726Y532190D01*
X693019D01*
Y543483D01*
D02*
G37*
G36*
X760112Y527190D02*
X748819D01*
Y515897D01*
X751711Y516672D01*
X754897Y518511D01*
X757498Y521112D01*
X759337Y524298D01*
X760112Y527190D01*
D02*
G37*
G36*
X709312D02*
X698019D01*
Y515897D01*
X700911Y516672D01*
X704097Y518511D01*
X706698Y521112D01*
X708537Y524298D01*
X709312Y527190D01*
D02*
G37*
G36*
X743819D02*
X732526D01*
X733301Y524298D01*
X735140Y521112D01*
X737741Y518511D01*
X740927Y516672D01*
X743819Y515897D01*
Y527190D01*
D02*
G37*
G36*
X693019D02*
X681726D01*
X682501Y524298D01*
X684340Y521112D01*
X686941Y518511D01*
X690127Y516672D01*
X693019Y515897D01*
Y527190D01*
D02*
G37*
G36*
X842239Y361040D02*
X829949D01*
Y348250D01*
X842239D01*
Y361040D01*
D02*
G37*
G36*
X824949D02*
X812659D01*
Y348250D01*
X824949D01*
Y361040D01*
D02*
G37*
G36*
X790189Y360940D02*
X777899D01*
Y348150D01*
X790189D01*
Y360940D01*
D02*
G37*
G36*
X772899D02*
X760609D01*
Y348150D01*
X772899D01*
Y360940D01*
D02*
G37*
G36*
X842239Y343250D02*
X829949D01*
Y330460D01*
X842239D01*
Y343250D01*
D02*
G37*
G36*
X824949D02*
X812659D01*
Y330460D01*
X824949D01*
Y343250D01*
D02*
G37*
G36*
X790189Y343150D02*
X777899D01*
Y330360D01*
X790189D01*
Y343150D01*
D02*
G37*
G36*
X772899D02*
X760609D01*
Y330360D01*
X772899D01*
Y343150D01*
D02*
G37*
G36*
X822539Y328090D02*
X817999D01*
Y322050D01*
X822539D01*
Y328090D01*
D02*
G37*
G36*
X812999D02*
X808459D01*
Y322050D01*
X812999D01*
Y328090D01*
D02*
G37*
G36*
X822539Y317050D02*
X817999D01*
Y311010D01*
X822539D01*
Y317050D01*
D02*
G37*
G36*
X812999D02*
X808459D01*
Y311010D01*
X812999D01*
Y317050D01*
D02*
G37*
G36*
X839439Y313590D02*
X834899D01*
Y307550D01*
X839439D01*
Y313590D01*
D02*
G37*
G36*
X829899D02*
X825359D01*
Y307550D01*
X829899D01*
Y313590D01*
D02*
G37*
G36*
X821239Y309390D02*
X817199D01*
Y304850D01*
X821239D01*
Y309390D01*
D02*
G37*
G36*
X812199D02*
X808159D01*
Y304850D01*
X812199D01*
Y309390D01*
D02*
G37*
G36*
X839439Y302550D02*
X834899D01*
Y296510D01*
X839439D01*
Y302550D01*
D02*
G37*
G36*
X829899D02*
X825359D01*
Y296510D01*
X829899D01*
Y302550D01*
D02*
G37*
G36*
X821239Y299850D02*
X817199D01*
Y295310D01*
X821239D01*
Y299850D01*
D02*
G37*
G36*
X839339Y293990D02*
X834799D01*
Y287950D01*
X839339D01*
Y293990D01*
D02*
G37*
G36*
X829799D02*
X825259D01*
Y287950D01*
X829799D01*
Y293990D01*
D02*
G37*
G36*
X839339Y282950D02*
X834799D01*
Y276910D01*
X839339D01*
Y282950D01*
D02*
G37*
G36*
X829799D02*
X825259D01*
Y276910D01*
X829799D01*
Y282950D01*
D02*
G37*
G36*
X289800Y580606D02*
Y574200D01*
X296206D01*
X295919Y575270D01*
X294702Y577379D01*
X292980Y579102D01*
X290870Y580320D01*
X289800Y580606D01*
D02*
G37*
G36*
X284800D02*
X283730Y580320D01*
X281620Y579102D01*
X279898Y577379D01*
X278680Y575270D01*
X278393Y574200D01*
X284800D01*
Y580606D01*
D02*
G37*
G36*
X264400D02*
Y574200D01*
X270806D01*
X270520Y575270D01*
X269302Y577379D01*
X267579Y579102D01*
X265470Y580320D01*
X264400Y580606D01*
D02*
G37*
G36*
X259400D02*
X258330Y580320D01*
X256220Y579102D01*
X254498Y577379D01*
X253280Y575270D01*
X252994Y574200D01*
X259400D01*
Y580606D01*
D02*
G37*
G36*
X239000D02*
Y574200D01*
X245406D01*
X245119Y575270D01*
X243902Y577379D01*
X242180Y579102D01*
X240070Y580320D01*
X239000Y580606D01*
D02*
G37*
G36*
X234000D02*
X232930Y580320D01*
X230820Y579102D01*
X229098Y577379D01*
X227880Y575270D01*
X227593Y574200D01*
X234000D01*
Y580606D01*
D02*
G37*
G36*
X213600D02*
Y574200D01*
X220006D01*
X219720Y575270D01*
X218502Y577379D01*
X216779Y579102D01*
X214670Y580320D01*
X213600Y580606D01*
D02*
G37*
G36*
X208600D02*
X207530Y580320D01*
X205420Y579102D01*
X203698Y577379D01*
X202480Y575270D01*
X202194Y574200D01*
X208600D01*
Y580606D01*
D02*
G37*
G36*
X188200D02*
Y574200D01*
X194606D01*
X194319Y575270D01*
X193102Y577379D01*
X191380Y579102D01*
X189270Y580320D01*
X188200Y580606D01*
D02*
G37*
G36*
X183200D02*
X182130Y580320D01*
X180020Y579102D01*
X178298Y577379D01*
X177080Y575270D01*
X176793Y574200D01*
X183200D01*
Y580606D01*
D02*
G37*
G36*
X296206Y569200D02*
X289800D01*
Y562794D01*
X290870Y563080D01*
X292980Y564298D01*
X294702Y566020D01*
X295919Y568130D01*
X296206Y569200D01*
D02*
G37*
G36*
X284800D02*
X278393D01*
X278680Y568130D01*
X279898Y566020D01*
X281620Y564298D01*
X283730Y563080D01*
X284800Y562794D01*
Y569200D01*
D02*
G37*
G36*
X270806D02*
X264400D01*
Y562794D01*
X265470Y563080D01*
X267579Y564298D01*
X269302Y566020D01*
X270520Y568130D01*
X270806Y569200D01*
D02*
G37*
G36*
X259400D02*
X252994D01*
X253280Y568130D01*
X254498Y566020D01*
X256220Y564298D01*
X258330Y563080D01*
X259400Y562794D01*
Y569200D01*
D02*
G37*
G36*
X245406D02*
X239000D01*
Y562794D01*
X240070Y563080D01*
X242180Y564298D01*
X243902Y566020D01*
X245119Y568130D01*
X245406Y569200D01*
D02*
G37*
G36*
X234000D02*
X227593D01*
X227880Y568130D01*
X229098Y566020D01*
X230820Y564298D01*
X232930Y563080D01*
X234000Y562794D01*
Y569200D01*
D02*
G37*
G36*
X220006D02*
X213600D01*
Y562794D01*
X214670Y563080D01*
X216779Y564298D01*
X218502Y566020D01*
X219720Y568130D01*
X220006Y569200D01*
D02*
G37*
G36*
X208600D02*
X202194D01*
X202480Y568130D01*
X203698Y566020D01*
X205420Y564298D01*
X207530Y563080D01*
X208600Y562794D01*
Y569200D01*
D02*
G37*
G36*
X194606D02*
X188200D01*
Y562794D01*
X189270Y563080D01*
X191380Y564298D01*
X193102Y566020D01*
X194319Y568130D01*
X194606Y569200D01*
D02*
G37*
G36*
X183200D02*
X176793D01*
X177080Y568130D01*
X178298Y566020D01*
X180020Y564298D01*
X182130Y563080D01*
X183200Y562794D01*
Y569200D01*
D02*
G37*
G36*
X263381Y557550D02*
X260419D01*
X257558Y556783D01*
X254992Y555302D01*
X252898Y553208D01*
X251417Y550642D01*
X250650Y547781D01*
Y544819D01*
X251417Y541958D01*
X252898Y539392D01*
X254992Y537298D01*
X257558Y535817D01*
X260419Y535050D01*
X263381D01*
X266242Y535817D01*
X268808Y537298D01*
X270902Y539392D01*
X272383Y541958D01*
X273150Y544819D01*
Y547781D01*
X272383Y550642D01*
X270902Y553208D01*
X268808Y555302D01*
X266242Y556783D01*
X263381Y557550D01*
D02*
G37*
G36*
X237981D02*
X235019D01*
X232158Y556783D01*
X229592Y555302D01*
X227498Y553208D01*
X226017Y550642D01*
X225250Y547781D01*
Y544819D01*
X226017Y541958D01*
X227498Y539392D01*
X229592Y537298D01*
X232158Y535817D01*
X235019Y535050D01*
X237981D01*
X240842Y535817D01*
X243408Y537298D01*
X245502Y539392D01*
X246983Y541958D01*
X247750Y544819D01*
Y547781D01*
X246983Y550642D01*
X245502Y553208D01*
X243408Y555302D01*
X240842Y556783D01*
X237981Y557550D01*
D02*
G37*
G36*
X212581D02*
X209619D01*
X206758Y556783D01*
X204192Y555302D01*
X202098Y553208D01*
X200617Y550642D01*
X199850Y547781D01*
Y544819D01*
X200617Y541958D01*
X202098Y539392D01*
X204192Y537298D01*
X206758Y535817D01*
X209619Y535050D01*
X212581D01*
X215442Y535817D01*
X218008Y537298D01*
X220102Y539392D01*
X221583Y541958D01*
X222350Y544819D01*
Y547781D01*
X221583Y550642D01*
X220102Y553208D01*
X218008Y555302D01*
X215442Y556783D01*
X212581Y557550D01*
D02*
G37*
G36*
X189575Y557613D02*
X181825D01*
X179900Y557360D01*
X178106Y556617D01*
X176565Y555435D01*
X175383Y553894D01*
X174640Y552100D01*
X174386Y550175D01*
Y542425D01*
X174640Y540500D01*
X175383Y538706D01*
X176565Y537165D01*
X178106Y535983D01*
X179900Y535240D01*
X181825Y534986D01*
X189575D01*
X191500Y535240D01*
X193294Y535983D01*
X194835Y537165D01*
X196017Y538706D01*
X196760Y540500D01*
X197013Y542425D01*
Y550175D01*
X196760Y552100D01*
X196017Y553894D01*
X194835Y555435D01*
X193294Y556617D01*
X191500Y557360D01*
X189575Y557613D01*
D02*
G37*
G36*
X265500Y530930D02*
X242500D01*
Y507930D01*
X265500D01*
Y530930D01*
D02*
G37*
G36*
X240100D02*
X217100D01*
Y507930D01*
X240100D01*
Y530930D01*
D02*
G37*
G36*
X283558Y508658D02*
X281846D01*
X280193Y508215D01*
X278711Y507359D01*
X277501Y506149D01*
X276645Y504667D01*
X276202Y503014D01*
Y501302D01*
X276645Y499649D01*
X277501Y498167D01*
X278711Y496957D01*
X280193Y496101D01*
X281846Y495658D01*
X283558D01*
X285211Y496101D01*
X286693Y496957D01*
X287903Y498167D01*
X288759Y499649D01*
X289202Y501302D01*
Y503014D01*
X288759Y504667D01*
X287903Y506149D01*
X286693Y507359D01*
X285211Y508215D01*
X283558Y508658D01*
D02*
G37*
G36*
X416800Y580606D02*
Y574200D01*
X423206D01*
X422920Y575270D01*
X421702Y577379D01*
X419980Y579102D01*
X417870Y580320D01*
X416800Y580606D01*
D02*
G37*
G36*
X411800D02*
X410730Y580320D01*
X408620Y579102D01*
X406898Y577379D01*
X405680Y575270D01*
X405393Y574200D01*
X411800D01*
Y580606D01*
D02*
G37*
G36*
X391400D02*
Y574200D01*
X397806D01*
X397519Y575270D01*
X396302Y577379D01*
X394580Y579102D01*
X392470Y580320D01*
X391400Y580606D01*
D02*
G37*
G36*
X386400D02*
X385330Y580320D01*
X383220Y579102D01*
X381498Y577379D01*
X380280Y575270D01*
X379994Y574200D01*
X386400D01*
Y580606D01*
D02*
G37*
G36*
X366000D02*
Y574200D01*
X372406D01*
X372119Y575270D01*
X370902Y577379D01*
X369179Y579102D01*
X367070Y580320D01*
X366000Y580606D01*
D02*
G37*
G36*
X361000D02*
X359930Y580320D01*
X357820Y579102D01*
X356098Y577379D01*
X354880Y575270D01*
X354594Y574200D01*
X361000D01*
Y580606D01*
D02*
G37*
G36*
X340600D02*
Y574200D01*
X347006D01*
X346720Y575270D01*
X345502Y577379D01*
X343779Y579102D01*
X341670Y580320D01*
X340600Y580606D01*
D02*
G37*
G36*
X335600D02*
X334530Y580320D01*
X332420Y579102D01*
X330698Y577379D01*
X329480Y575270D01*
X329193Y574200D01*
X335600D01*
Y580606D01*
D02*
G37*
G36*
X315200D02*
Y574200D01*
X321606D01*
X321320Y575270D01*
X320102Y577379D01*
X318379Y579102D01*
X316270Y580320D01*
X315200Y580606D01*
D02*
G37*
G36*
X310200D02*
X309130Y580320D01*
X307020Y579102D01*
X305298Y577379D01*
X304080Y575270D01*
X303794Y574200D01*
X310200D01*
Y580606D01*
D02*
G37*
G36*
X423206Y569200D02*
X416800D01*
Y562794D01*
X417870Y563080D01*
X419980Y564298D01*
X421702Y566020D01*
X422920Y568130D01*
X423206Y569200D01*
D02*
G37*
G36*
X411800D02*
X405393D01*
X405680Y568130D01*
X406898Y566020D01*
X408620Y564298D01*
X410730Y563080D01*
X411800Y562794D01*
Y569200D01*
D02*
G37*
G36*
X397806D02*
X391400D01*
Y562794D01*
X392470Y563080D01*
X394580Y564298D01*
X396302Y566020D01*
X397519Y568130D01*
X397806Y569200D01*
D02*
G37*
G36*
X386400D02*
X379994D01*
X380280Y568130D01*
X381498Y566020D01*
X383220Y564298D01*
X385330Y563080D01*
X386400Y562794D01*
Y569200D01*
D02*
G37*
G36*
X372406D02*
X366000D01*
Y562794D01*
X367070Y563080D01*
X369179Y564298D01*
X370902Y566020D01*
X372119Y568130D01*
X372406Y569200D01*
D02*
G37*
G36*
X361000D02*
X354594D01*
X354880Y568130D01*
X356098Y566020D01*
X357820Y564298D01*
X359930Y563080D01*
X361000Y562794D01*
Y569200D01*
D02*
G37*
G36*
X347006D02*
X340600D01*
Y562794D01*
X341670Y563080D01*
X343779Y564298D01*
X345502Y566020D01*
X346720Y568130D01*
X347006Y569200D01*
D02*
G37*
G36*
X335600D02*
X329193D01*
X329480Y568130D01*
X330698Y566020D01*
X332420Y564298D01*
X334530Y563080D01*
X335600Y562794D01*
Y569200D01*
D02*
G37*
G36*
X321606D02*
X315200D01*
Y562794D01*
X316270Y563080D01*
X318379Y564298D01*
X320102Y566020D01*
X321320Y568130D01*
X321606Y569200D01*
D02*
G37*
G36*
X310200D02*
X303794D01*
X304080Y568130D01*
X305298Y566020D01*
X307020Y564298D01*
X309130Y563080D01*
X310200Y562794D01*
Y569200D01*
D02*
G37*
G36*
X540860Y404772D02*
X539148D01*
X537495Y404329D01*
X536013Y403473D01*
X534803Y402263D01*
X533947Y400781D01*
X533504Y399128D01*
Y397416D01*
X533633Y396937D01*
Y394989D01*
X489895D01*
Y375035D01*
X552013D01*
Y394989D01*
X547081D01*
X546836Y395175D01*
X546194Y396259D01*
X546504Y397416D01*
Y399128D01*
X546061Y400781D01*
X545205Y402263D01*
X543995Y403473D01*
X542513Y404329D01*
X540860Y404772D01*
D02*
G37*
G36*
X552013Y359989D02*
X489895D01*
Y340035D01*
X552013D01*
Y343895D01*
X563124D01*
X578260Y328759D01*
X578999Y327479D01*
X580209Y326269D01*
X581691Y325413D01*
X583344Y324970D01*
X585056D01*
X586709Y325413D01*
X588191Y326269D01*
X589401Y327479D01*
X590257Y328961D01*
X590700Y330614D01*
Y332326D01*
X590257Y333979D01*
X589401Y335461D01*
X588191Y336671D01*
X586911Y337410D01*
X569984Y354338D01*
X567999Y355664D01*
X565658Y356129D01*
X552013D01*
Y359989D01*
D02*
G37*
G36*
X550013Y322989D02*
X523454D01*
Y317512D01*
X550013D01*
Y322989D01*
D02*
G37*
G36*
X518454D02*
X491895D01*
Y317512D01*
X518454D01*
Y322989D01*
D02*
G37*
G36*
X550013Y312512D02*
X523454D01*
Y307035D01*
X550013D01*
Y312512D01*
D02*
G37*
G36*
X518454D02*
X491895D01*
Y307035D01*
X518454D01*
Y312512D01*
D02*
G37*
G36*
X550013Y287989D02*
X523454D01*
Y282512D01*
X550013D01*
Y287989D01*
D02*
G37*
G36*
X518454D02*
X491895D01*
Y282512D01*
X518454D01*
Y287989D01*
D02*
G37*
G36*
X550013Y277512D02*
X523454D01*
Y272035D01*
X550013D01*
Y277512D01*
D02*
G37*
G36*
X518454D02*
X491895D01*
Y272035D01*
X518454D01*
Y277512D01*
D02*
G37*
G36*
X32134Y589097D02*
X28318D01*
X24574Y588352D01*
X21049Y586892D01*
X17875Y584772D01*
X15176Y582073D01*
X13056Y578899D01*
X11596Y575373D01*
X10851Y571630D01*
Y567814D01*
X11596Y564071D01*
X13056Y560545D01*
X15176Y557371D01*
X17875Y554672D01*
X21049Y552552D01*
X24574Y551092D01*
X28318Y550347D01*
X32134D01*
X35877Y551092D01*
X39404Y552552D01*
X42577Y554672D01*
X45276Y557371D01*
X47396Y560545D01*
X48856Y564071D01*
X49601Y567814D01*
Y571630D01*
X48856Y575373D01*
X47396Y578899D01*
X45276Y582073D01*
X42577Y584772D01*
X39404Y586892D01*
X35877Y588352D01*
X32134Y589097D01*
D02*
G37*
G36*
X115022Y520472D02*
Y513548D01*
X121946D01*
X121608Y514811D01*
X120324Y517035D01*
X118509Y518850D01*
X116285Y520134D01*
X115022Y520472D01*
D02*
G37*
G36*
X110022D02*
X108759Y520134D01*
X106535Y518850D01*
X104720Y517035D01*
X103436Y514811D01*
X103098Y513548D01*
X110022D01*
Y520472D01*
D02*
G37*
G36*
X121946Y508548D02*
X115022D01*
Y501624D01*
X116285Y501963D01*
X118509Y503246D01*
X120324Y505061D01*
X121608Y507285D01*
X121946Y508548D01*
D02*
G37*
G36*
X110022D02*
X103098D01*
X103436Y507285D01*
X104720Y505061D01*
X106535Y503246D01*
X108759Y501963D01*
X110022Y501624D01*
Y508548D01*
D02*
G37*
G36*
X88669Y522798D02*
X85575D01*
X82587Y521997D01*
X79907Y520450D01*
X77720Y518263D01*
X76173Y515583D01*
X75372Y512595D01*
Y509501D01*
X76173Y506513D01*
X77720Y503833D01*
X79907Y501646D01*
X82587Y500099D01*
X85575Y499298D01*
X88669D01*
X91657Y500099D01*
X94337Y501646D01*
X96524Y503833D01*
X98071Y506513D01*
X98872Y509501D01*
Y512595D01*
X98071Y515583D01*
X96524Y518263D01*
X94337Y520450D01*
X91657Y521997D01*
X88669Y522798D01*
D02*
G37*
G36*
X114069Y497398D02*
X110975D01*
X107987Y496597D01*
X105307Y495050D01*
X103120Y492863D01*
X101573Y490183D01*
X100772Y487195D01*
Y484101D01*
X101573Y481113D01*
X103120Y478433D01*
X105307Y476246D01*
X107987Y474699D01*
X110975Y473898D01*
X114069D01*
X117057Y474699D01*
X119737Y476246D01*
X121924Y478433D01*
X123471Y481113D01*
X124272Y484101D01*
Y487195D01*
X123471Y490183D01*
X121924Y492863D01*
X119737Y495050D01*
X117057Y496597D01*
X114069Y497398D01*
D02*
G37*
G36*
X88669D02*
X85575D01*
X82587Y496597D01*
X79907Y495050D01*
X77720Y492863D01*
X76173Y490183D01*
X75372Y487195D01*
Y484101D01*
X76173Y481113D01*
X77720Y478433D01*
X79907Y476246D01*
X82587Y474699D01*
X85575Y473898D01*
X88669D01*
X91657Y474699D01*
X94337Y476246D01*
X96524Y478433D01*
X98071Y481113D01*
X98872Y484101D01*
Y487195D01*
X98071Y490183D01*
X96524Y492863D01*
X94337Y495050D01*
X91657Y496597D01*
X88669Y497398D01*
D02*
G37*
G36*
X80866Y397660D02*
X79154D01*
X77501Y397217D01*
X76019Y396361D01*
X74809Y395151D01*
X73953Y393669D01*
X73510Y392016D01*
Y390304D01*
X73892Y388877D01*
Y384881D01*
X48951D01*
Y364927D01*
X111069D01*
Y384881D01*
X86128D01*
Y388877D01*
X86510Y390304D01*
Y392016D01*
X86067Y393669D01*
X85211Y395151D01*
X84001Y396361D01*
X82519Y397217D01*
X80866Y397660D01*
D02*
G37*
G36*
X80612Y361338D02*
X78900D01*
X77247Y360895D01*
X75765Y360039D01*
X74555Y358829D01*
X73699Y357347D01*
X73256Y355694D01*
Y353982D01*
X73639Y352555D01*
Y349881D01*
X48951D01*
Y329927D01*
X109590D01*
X109930Y328657D01*
X109293Y328289D01*
X108083Y327079D01*
X107227Y325597D01*
X106784Y323944D01*
Y322232D01*
X107227Y320579D01*
X108083Y319097D01*
X109293Y317887D01*
X110775Y317031D01*
X112428Y316588D01*
X114140D01*
X115793Y317031D01*
X117275Y317887D01*
X118485Y319097D01*
X119341Y320579D01*
X119784Y322232D01*
Y323944D01*
X119341Y325597D01*
X118485Y327079D01*
X117275Y328289D01*
X115793Y329145D01*
X114140Y329588D01*
X112428D01*
X112170Y329519D01*
X111069Y330539D01*
Y349881D01*
X85873D01*
Y352555D01*
X86256Y353982D01*
Y355694D01*
X85813Y357347D01*
X84957Y358829D01*
X83747Y360039D01*
X82265Y360895D01*
X80612Y361338D01*
D02*
G37*
G36*
X842239Y421540D02*
X829949D01*
Y408750D01*
X842239D01*
Y421540D01*
D02*
G37*
G36*
X824949D02*
X812659D01*
Y408750D01*
X824949D01*
Y421540D01*
D02*
G37*
G36*
X790189Y421440D02*
X777899D01*
Y408650D01*
X790189D01*
Y421440D01*
D02*
G37*
G36*
X772899D02*
X760609D01*
Y408650D01*
X772899D01*
Y421440D01*
D02*
G37*
G36*
X842239Y403750D02*
X829949D01*
Y390960D01*
X842239D01*
Y403750D01*
D02*
G37*
G36*
X824949D02*
X812659D01*
Y390960D01*
X824949D01*
Y403750D01*
D02*
G37*
G36*
X790189Y403650D02*
X777899D01*
Y390860D01*
X790189D01*
Y403650D01*
D02*
G37*
G36*
X772899D02*
X760609D01*
Y390860D01*
X772899D01*
Y403650D01*
D02*
G37*
G36*
X1027539Y333990D02*
X1022999D01*
Y327950D01*
X1027539D01*
Y333990D01*
D02*
G37*
G36*
X1027389Y294540D02*
X1022849D01*
Y288500D01*
X1027389D01*
Y294540D01*
D02*
G37*
G36*
X900707Y39150D02*
X892549D01*
Y31992D01*
X894549D01*
X896906Y32460D01*
X898904Y33795D01*
X900239Y35793D01*
X900707Y38150D01*
Y39150D01*
D02*
G37*
G36*
X887549D02*
X879391D01*
Y38150D01*
X879860Y35793D01*
X881195Y33795D01*
X883193Y32460D01*
X885549Y31992D01*
X887549D01*
Y39150D01*
D02*
G37*
G36*
X1015105Y40200D02*
X1013393D01*
X1011740Y39757D01*
X1010258Y38901D01*
X1009048Y37691D01*
X1008192Y36209D01*
X1007749Y34556D01*
Y32844D01*
X1008192Y31191D01*
X1009048Y29709D01*
X1010258Y28499D01*
X1011740Y27643D01*
X1013393Y27200D01*
X1015105D01*
X1016758Y27643D01*
X1018240Y28499D01*
X1019450Y29709D01*
X1020306Y31191D01*
X1020749Y32844D01*
Y34556D01*
X1020306Y36209D01*
X1019450Y37691D01*
X1018240Y38901D01*
X1016758Y39757D01*
X1015105Y40200D01*
D02*
G37*
G36*
X893549Y27234D02*
Y19650D01*
X898150D01*
Y20650D01*
X897908Y22488D01*
X897199Y24200D01*
X896070Y25671D01*
X894600Y26799D01*
X893549Y27234D01*
D02*
G37*
G36*
X888549D02*
X887499Y26799D01*
X886028Y25671D01*
X884900Y24200D01*
X884190Y22488D01*
X883948Y20650D01*
Y19650D01*
X888549D01*
Y27234D01*
D02*
G37*
G36*
X174902Y441746D02*
X168362D01*
Y435206D01*
X172837D01*
X173627Y435364D01*
X174297Y435811D01*
X174744Y436481D01*
X174902Y437271D01*
Y441746D01*
D02*
G37*
G36*
X163362D02*
X156822D01*
Y437271D01*
X156980Y436481D01*
X157427Y435811D01*
X158097Y435364D01*
X158887Y435206D01*
X163362D01*
Y441746D01*
D02*
G37*
G36*
X962849Y581683D02*
Y574200D01*
X970332D01*
X969938Y575672D01*
X968583Y578018D01*
X966667Y579934D01*
X964321Y581289D01*
X962849Y581683D01*
D02*
G37*
G36*
X957849D02*
X956377Y581289D01*
X954031Y579934D01*
X952115Y578018D01*
X950760Y575672D01*
X950366Y574200D01*
X957849D01*
Y581683D01*
D02*
G37*
G36*
X937449D02*
Y574200D01*
X944932D01*
X944538Y575672D01*
X943183Y578018D01*
X941267Y579934D01*
X938921Y581289D01*
X937449Y581683D01*
D02*
G37*
G36*
X932449D02*
X930977Y581289D01*
X928631Y579934D01*
X926715Y578018D01*
X925360Y575672D01*
X924966Y574200D01*
X932449D01*
Y581683D01*
D02*
G37*
G36*
X912049D02*
Y574200D01*
X919532D01*
X919138Y575672D01*
X917783Y578018D01*
X915867Y579934D01*
X913521Y581289D01*
X912049Y581683D01*
D02*
G37*
G36*
X907049D02*
X905577Y581289D01*
X903231Y579934D01*
X901315Y578018D01*
X899960Y575672D01*
X899566Y574200D01*
X907049D01*
Y581683D01*
D02*
G37*
G36*
X886649D02*
Y574200D01*
X894132D01*
X893738Y575672D01*
X892383Y578018D01*
X890467Y579934D01*
X888121Y581289D01*
X886649Y581683D01*
D02*
G37*
G36*
X881649D02*
X880177Y581289D01*
X877831Y579934D01*
X875915Y578018D01*
X874560Y575672D01*
X874166Y574200D01*
X881649D01*
Y581683D01*
D02*
G37*
G36*
X862624Y582116D02*
X861249D01*
Y574200D01*
X869165D01*
Y575575D01*
X868667Y578078D01*
X867249Y580200D01*
X865127Y581618D01*
X862624Y582116D01*
D02*
G37*
G36*
X856249D02*
X854874D01*
X852371Y581618D01*
X850249Y580200D01*
X848831Y578078D01*
X848334Y575575D01*
Y574200D01*
X856249D01*
Y582116D01*
D02*
G37*
G36*
X970332Y569200D02*
X962849D01*
Y561717D01*
X964321Y562111D01*
X966667Y563466D01*
X968583Y565382D01*
X969938Y567728D01*
X970332Y569200D01*
D02*
G37*
G36*
X957849D02*
X950366D01*
X950760Y567728D01*
X952115Y565382D01*
X954031Y563466D01*
X956377Y562111D01*
X957849Y561717D01*
Y569200D01*
D02*
G37*
G36*
X944932D02*
X937449D01*
Y561717D01*
X938921Y562111D01*
X941267Y563466D01*
X943183Y565382D01*
X944538Y567728D01*
X944932Y569200D01*
D02*
G37*
G36*
X932449D02*
X924966D01*
X925360Y567728D01*
X926715Y565382D01*
X928631Y563466D01*
X930977Y562111D01*
X932449Y561717D01*
Y569200D01*
D02*
G37*
G36*
X894132D02*
X886649D01*
Y561717D01*
X888121Y562111D01*
X890467Y563466D01*
X892383Y565382D01*
X893738Y567728D01*
X894132Y569200D01*
D02*
G37*
G36*
X881649D02*
X874166D01*
X874560Y567728D01*
X875915Y565382D01*
X877831Y563466D01*
X880177Y562111D01*
X881649Y561717D01*
Y569200D01*
D02*
G37*
G36*
X1088830Y582950D02*
X1085868D01*
X1083007Y582183D01*
X1080442Y580702D01*
X1078347Y578608D01*
X1076866Y576042D01*
X1076099Y573181D01*
Y570219D01*
X1076866Y567358D01*
X1078347Y564792D01*
X1080442Y562698D01*
X1083007Y561217D01*
X1085868Y560450D01*
X1088830D01*
X1091692Y561217D01*
X1094257Y562698D01*
X1096351Y564792D01*
X1097832Y567358D01*
X1098599Y570219D01*
Y573181D01*
X1097832Y576042D01*
X1096351Y578608D01*
X1094257Y580702D01*
X1091692Y582183D01*
X1088830Y582950D01*
D02*
G37*
G36*
X1063430D02*
X1060468D01*
X1057607Y582183D01*
X1055042Y580702D01*
X1052947Y578608D01*
X1051466Y576042D01*
X1050699Y573181D01*
Y570219D01*
X1051466Y567358D01*
X1052947Y564792D01*
X1055042Y562698D01*
X1057607Y561217D01*
X1060468Y560450D01*
X1063430D01*
X1066292Y561217D01*
X1068857Y562698D01*
X1070951Y564792D01*
X1072432Y567358D01*
X1073199Y570219D01*
Y573181D01*
X1072432Y576042D01*
X1070951Y578608D01*
X1068857Y580702D01*
X1066292Y582183D01*
X1063430Y582950D01*
D02*
G37*
G36*
X1038030D02*
X1035068D01*
X1032207Y582183D01*
X1029641Y580702D01*
X1027547Y578608D01*
X1026066Y576042D01*
X1025299Y573181D01*
Y570219D01*
X1026066Y567358D01*
X1027547Y564792D01*
X1029641Y562698D01*
X1032207Y561217D01*
X1035068Y560450D01*
X1038030D01*
X1040891Y561217D01*
X1043457Y562698D01*
X1045551Y564792D01*
X1047032Y567358D01*
X1047799Y570219D01*
Y573181D01*
X1047032Y576042D01*
X1045551Y578608D01*
X1043457Y580702D01*
X1040891Y582183D01*
X1038030Y582950D01*
D02*
G37*
G36*
X1012630D02*
X1009668D01*
X1006807Y582183D01*
X1004241Y580702D01*
X1002147Y578608D01*
X1000666Y576042D01*
X999899Y573181D01*
Y570219D01*
X1000666Y567358D01*
X1002147Y564792D01*
X1004241Y562698D01*
X1006807Y561217D01*
X1009668Y560450D01*
X1012630D01*
X1015491Y561217D01*
X1018057Y562698D01*
X1020151Y564792D01*
X1021632Y567358D01*
X1022399Y570219D01*
Y573181D01*
X1021632Y576042D01*
X1020151Y578608D01*
X1018057Y580702D01*
X1015491Y582183D01*
X1012630Y582950D01*
D02*
G37*
G36*
X987230D02*
X984268D01*
X981407Y582183D01*
X978841Y580702D01*
X976747Y578608D01*
X975266Y576042D01*
X974499Y573181D01*
Y570219D01*
X975266Y567358D01*
X976747Y564792D01*
X978841Y562698D01*
X981407Y561217D01*
X984268Y560450D01*
X987230D01*
X990091Y561217D01*
X992657Y562698D01*
X994751Y564792D01*
X996232Y567358D01*
X996999Y570219D01*
Y573181D01*
X996232Y576042D01*
X994751Y578608D01*
X992657Y580702D01*
X990091Y582183D01*
X987230Y582950D01*
D02*
G37*
G36*
X1088830Y557550D02*
X1085868D01*
X1083007Y556783D01*
X1080442Y555302D01*
X1078347Y553208D01*
X1076866Y550642D01*
X1076099Y547781D01*
Y544819D01*
X1076866Y541958D01*
X1078347Y539392D01*
X1080442Y537298D01*
X1083007Y535817D01*
X1085868Y535050D01*
X1088830D01*
X1091692Y535817D01*
X1094257Y537298D01*
X1096351Y539392D01*
X1097832Y541958D01*
X1098599Y544819D01*
Y547781D01*
X1097832Y550642D01*
X1096351Y553208D01*
X1094257Y555302D01*
X1091692Y556783D01*
X1088830Y557550D01*
D02*
G37*
G36*
X1063430D02*
X1060468D01*
X1057607Y556783D01*
X1055042Y555302D01*
X1052947Y553208D01*
X1051466Y550642D01*
X1050699Y547781D01*
Y544819D01*
X1051466Y541958D01*
X1052947Y539392D01*
X1055042Y537298D01*
X1057607Y535817D01*
X1060468Y535050D01*
X1063430D01*
X1066292Y535817D01*
X1068857Y537298D01*
X1070951Y539392D01*
X1072432Y541958D01*
X1073199Y544819D01*
Y547781D01*
X1072432Y550642D01*
X1070951Y553208D01*
X1068857Y555302D01*
X1066292Y556783D01*
X1063430Y557550D01*
D02*
G37*
G36*
X987230D02*
X984268D01*
X981407Y556783D01*
X978841Y555302D01*
X976747Y553208D01*
X975266Y550642D01*
X974499Y547781D01*
Y544819D01*
X975266Y541958D01*
X976747Y539392D01*
X978841Y537298D01*
X981407Y535817D01*
X984268Y535050D01*
X987230D01*
X990091Y535817D01*
X992657Y537298D01*
X994751Y539392D01*
X996232Y541958D01*
X996999Y544819D01*
Y547781D01*
X996232Y550642D01*
X994751Y553208D01*
X992657Y555302D01*
X990091Y556783D01*
X987230Y557550D01*
D02*
G37*
G36*
X961830D02*
X958868D01*
X956007Y556783D01*
X953441Y555302D01*
X951347Y553208D01*
X949866Y550642D01*
X949099Y547781D01*
Y544819D01*
X949866Y541958D01*
X951347Y539392D01*
X953441Y537298D01*
X956007Y535817D01*
X958868Y535050D01*
X961830D01*
X964691Y535817D01*
X967257Y537298D01*
X969351Y539392D01*
X970832Y541958D01*
X971599Y544819D01*
Y547781D01*
X970832Y550642D01*
X969351Y553208D01*
X967257Y555302D01*
X964691Y556783D01*
X961830Y557550D01*
D02*
G37*
G36*
X1188455Y503200D02*
X1186743D01*
X1185090Y502757D01*
X1183608Y501901D01*
X1182398Y500691D01*
X1181542Y499209D01*
X1181099Y497556D01*
Y495844D01*
X1181542Y494191D01*
X1182398Y492709D01*
X1183608Y491499D01*
X1185090Y490643D01*
X1186743Y490200D01*
X1188455D01*
X1190108Y490643D01*
X1191590Y491499D01*
X1192800Y492709D01*
X1193656Y494191D01*
X1194099Y495844D01*
Y497556D01*
X1193656Y499209D01*
X1192800Y500691D01*
X1191590Y501901D01*
X1190108Y502757D01*
X1188455Y503200D01*
D02*
G37*
G36*
X1221055Y502950D02*
X1219343D01*
X1217690Y502507D01*
X1216208Y501651D01*
X1214998Y500441D01*
X1214142Y498959D01*
X1213699Y497306D01*
Y495594D01*
X1214142Y493941D01*
X1214998Y492459D01*
X1216208Y491249D01*
X1217690Y490393D01*
X1219343Y489950D01*
X1221055D01*
X1222708Y490393D01*
X1224190Y491249D01*
X1225400Y492459D01*
X1226256Y493941D01*
X1226699Y495594D01*
Y497306D01*
X1226256Y498959D01*
X1225400Y500441D01*
X1224190Y501651D01*
X1222708Y502507D01*
X1221055Y502950D01*
D02*
G37*
G36*
X1204855Y502800D02*
X1203143D01*
X1201490Y502357D01*
X1200008Y501501D01*
X1198798Y500291D01*
X1197942Y498809D01*
X1197499Y497156D01*
Y495444D01*
X1197942Y493791D01*
X1198798Y492309D01*
X1200008Y491099D01*
X1201490Y490243D01*
X1203143Y489800D01*
X1204855D01*
X1206508Y490243D01*
X1207990Y491099D01*
X1209200Y492309D01*
X1210056Y493791D01*
X1210499Y495444D01*
Y497156D01*
X1210056Y498809D01*
X1209200Y500291D01*
X1207990Y501501D01*
X1206508Y502357D01*
X1204855Y502800D01*
D02*
G37*
G36*
X1252755Y502650D02*
X1251043D01*
X1249390Y502207D01*
X1247908Y501351D01*
X1246698Y500141D01*
X1245842Y498659D01*
X1245399Y497006D01*
Y495294D01*
X1245842Y493641D01*
X1246698Y492159D01*
X1247908Y490949D01*
X1249390Y490093D01*
X1251043Y489650D01*
X1252755D01*
X1254408Y490093D01*
X1255890Y490949D01*
X1257100Y492159D01*
X1257956Y493641D01*
X1258399Y495294D01*
Y497006D01*
X1257956Y498659D01*
X1257100Y500141D01*
X1255890Y501351D01*
X1254408Y502207D01*
X1252755Y502650D01*
D02*
G37*
G36*
X1236655D02*
X1234943D01*
X1233290Y502207D01*
X1231808Y501351D01*
X1230598Y500141D01*
X1229742Y498659D01*
X1229299Y497006D01*
Y495294D01*
X1229742Y493641D01*
X1230598Y492159D01*
X1231808Y490949D01*
X1233290Y490093D01*
X1234943Y489650D01*
X1236655D01*
X1238308Y490093D01*
X1239790Y490949D01*
X1241000Y492159D01*
X1241856Y493641D01*
X1242299Y495294D01*
Y497006D01*
X1241856Y498659D01*
X1241000Y500141D01*
X1239790Y501351D01*
X1238308Y502207D01*
X1236655Y502650D01*
D02*
G37*
G36*
X1214055Y479600D02*
X1212343D01*
X1210690Y479157D01*
X1209208Y478301D01*
X1207998Y477091D01*
X1207142Y475609D01*
X1206699Y473956D01*
Y472244D01*
X1207142Y470591D01*
X1207998Y469109D01*
X1209208Y467899D01*
X1210690Y467043D01*
X1212343Y466600D01*
X1214055D01*
X1215708Y467043D01*
X1217190Y467899D01*
X1218400Y469109D01*
X1219256Y470591D01*
X1219699Y472244D01*
Y473956D01*
X1219256Y475609D01*
X1218400Y477091D01*
X1217190Y478301D01*
X1215708Y479157D01*
X1214055Y479600D01*
D02*
G37*
G36*
X1248405Y479500D02*
X1246693D01*
X1245040Y479057D01*
X1243558Y478201D01*
X1242348Y476991D01*
X1241492Y475509D01*
X1241049Y473856D01*
Y472144D01*
X1241492Y470491D01*
X1242348Y469009D01*
X1243558Y467799D01*
X1245040Y466943D01*
X1246693Y466500D01*
X1248405D01*
X1250058Y466943D01*
X1251540Y467799D01*
X1252750Y469009D01*
X1253606Y470491D01*
X1254049Y472144D01*
Y473856D01*
X1253606Y475509D01*
X1252750Y476991D01*
X1251540Y478201D01*
X1250058Y479057D01*
X1248405Y479500D01*
D02*
G37*
G36*
X1140505Y457675D02*
X1138793D01*
X1137140Y457232D01*
X1135658Y456376D01*
X1134448Y455166D01*
X1133592Y453684D01*
X1133149Y452031D01*
Y450319D01*
X1133592Y448666D01*
X1134448Y447184D01*
X1135658Y445974D01*
X1137140Y445118D01*
X1138793Y444675D01*
X1140505D01*
X1142158Y445118D01*
X1143640Y445974D01*
X1144850Y447184D01*
X1145706Y448666D01*
X1146149Y450319D01*
Y452031D01*
X1145706Y453684D01*
X1144850Y455166D01*
X1143640Y456376D01*
X1142158Y457232D01*
X1140505Y457675D01*
D02*
G37*
G36*
X1106405Y456950D02*
X1104693D01*
X1103040Y456507D01*
X1101558Y455651D01*
X1100348Y454441D01*
X1099492Y452959D01*
X1099049Y451306D01*
Y449594D01*
X1099492Y447941D01*
X1100348Y446459D01*
X1101558Y445249D01*
X1103040Y444393D01*
X1104693Y443950D01*
X1106405D01*
X1108058Y444393D01*
X1109540Y445249D01*
X1110750Y446459D01*
X1111606Y447941D01*
X1112049Y449594D01*
Y451306D01*
X1111606Y452959D01*
X1110750Y454441D01*
X1109540Y455651D01*
X1108058Y456507D01*
X1106405Y456950D01*
D02*
G37*
G36*
X1143689Y424740D02*
X1131399D01*
Y411950D01*
X1143689D01*
Y424740D01*
D02*
G37*
G36*
X1126399D02*
X1114109D01*
Y411950D01*
X1126399D01*
Y424740D01*
D02*
G37*
G36*
X1152705Y423650D02*
X1150993D01*
X1149340Y423207D01*
X1147858Y422351D01*
X1146648Y421141D01*
X1145792Y419659D01*
X1145349Y418006D01*
Y416294D01*
X1145792Y414641D01*
X1146648Y413159D01*
X1147858Y411949D01*
X1149340Y411093D01*
X1150993Y410650D01*
X1152705D01*
X1154358Y411093D01*
X1155840Y411949D01*
X1157050Y413159D01*
X1157906Y414641D01*
X1158349Y416294D01*
Y418006D01*
X1157906Y419659D01*
X1157050Y421141D01*
X1155840Y422351D01*
X1154358Y423207D01*
X1152705Y423650D01*
D02*
G37*
G36*
X1106305Y417150D02*
X1104593D01*
X1102940Y416707D01*
X1101458Y415851D01*
X1100248Y414641D01*
X1099392Y413159D01*
X1098949Y411506D01*
Y409794D01*
X1099392Y408141D01*
X1100248Y406659D01*
X1101458Y405449D01*
X1102940Y404593D01*
X1104593Y404150D01*
X1106305D01*
X1107958Y404593D01*
X1109440Y405449D01*
X1110650Y406659D01*
X1111506Y408141D01*
X1111949Y409794D01*
Y411506D01*
X1111506Y413159D01*
X1110650Y414641D01*
X1109440Y415851D01*
X1107958Y416707D01*
X1106305Y417150D01*
D02*
G37*
G36*
X1143689Y406950D02*
X1131399D01*
Y394160D01*
X1143689D01*
Y406950D01*
D02*
G37*
G36*
X1126399D02*
X1114109D01*
Y394160D01*
X1126399D01*
Y406950D01*
D02*
G37*
G36*
X912889Y475340D02*
X906849D01*
Y470800D01*
X912889D01*
Y475340D01*
D02*
G37*
G36*
X901849D02*
X895809D01*
Y470800D01*
X901849D01*
Y475340D01*
D02*
G37*
G36*
X912889Y465800D02*
X906849D01*
Y461260D01*
X912889D01*
Y465800D01*
D02*
G37*
G36*
X901849D02*
X895809D01*
Y461260D01*
X901849D01*
Y465800D01*
D02*
G37*
G36*
X901199Y414200D02*
X898909D01*
Y408910D01*
X901199D01*
Y414200D01*
D02*
G37*
G36*
X975199Y467740D02*
Y463200D01*
X981239D01*
Y467740D01*
X975199D01*
D02*
G37*
G36*
X981239Y458200D02*
X975199D01*
Y453660D01*
X981239D01*
Y458200D01*
D02*
G37*
G36*
X401668Y280820D02*
X399956D01*
X398303Y280377D01*
X396821Y279521D01*
X395611Y278311D01*
X394755Y276829D01*
X394312Y275176D01*
Y273464D01*
X394755Y271811D01*
X395611Y270329D01*
X396821Y269119D01*
X398303Y268263D01*
X399956Y267820D01*
X401668D01*
X403321Y268263D01*
X404803Y269119D01*
X406013Y270329D01*
X406869Y271811D01*
X407312Y273464D01*
Y275176D01*
X406869Y276829D01*
X406013Y278311D01*
X404803Y279521D01*
X403321Y280377D01*
X401668Y280820D01*
D02*
G37*
G36*
X260250Y196750D02*
X232750D01*
Y185000D01*
X240306D01*
X240832Y183730D01*
X240671Y183569D01*
X239815Y182087D01*
X239372Y180434D01*
Y178722D01*
X239815Y177069D01*
X240671Y175587D01*
X241881Y174377D01*
X243363Y173521D01*
X245016Y173078D01*
X246728D01*
X248381Y173521D01*
X249863Y174377D01*
X251073Y175587D01*
X251929Y177069D01*
X252372Y178722D01*
Y180434D01*
X251929Y182087D01*
X251073Y183569D01*
X250912Y183730D01*
X251438Y185000D01*
X260250D01*
Y196750D01*
D02*
G37*
G36*
X1124255Y383200D02*
X1122543D01*
X1120890Y382757D01*
X1119408Y381901D01*
X1118198Y380691D01*
X1117342Y379209D01*
X1116899Y377556D01*
Y375844D01*
X1117282Y374417D01*
Y365200D01*
X1113149D01*
Y332700D01*
X1144649D01*
Y365200D01*
X1129517D01*
Y374417D01*
X1129899Y375844D01*
Y377556D01*
X1129456Y379209D01*
X1128600Y380691D01*
X1127390Y381901D01*
X1125908Y382757D01*
X1124255Y383200D01*
D02*
G37*
G36*
X1235005Y287750D02*
X1233293D01*
X1231640Y287307D01*
X1230158Y286451D01*
X1228948Y285241D01*
X1228092Y283759D01*
X1227649Y282106D01*
Y280394D01*
X1228092Y278741D01*
X1228948Y277259D01*
X1230158Y276049D01*
X1231640Y275193D01*
X1233293Y274750D01*
X1235005D01*
X1236658Y275193D01*
X1238140Y276049D01*
X1239350Y277259D01*
X1240206Y278741D01*
X1240649Y280394D01*
Y282106D01*
X1240206Y283759D01*
X1239350Y285241D01*
X1238140Y286451D01*
X1236658Y287307D01*
X1235005Y287750D01*
D02*
G37*
G36*
X1109355Y270400D02*
X1107643D01*
X1105990Y269957D01*
X1104508Y269101D01*
X1103298Y267891D01*
X1102442Y266409D01*
X1101999Y264756D01*
Y263044D01*
X1102442Y261391D01*
X1103298Y259909D01*
X1104508Y258699D01*
X1105990Y257843D01*
X1107643Y257400D01*
X1109355D01*
X1111008Y257843D01*
X1112490Y258699D01*
X1113700Y259909D01*
X1114556Y261391D01*
X1114999Y263044D01*
Y264756D01*
X1114556Y266409D01*
X1113700Y267891D01*
X1112490Y269101D01*
X1111008Y269957D01*
X1109355Y270400D01*
D02*
G37*
G36*
X166500Y227500D02*
X139000D01*
Y219500D01*
X166500D01*
Y227500D01*
D02*
G37*
G36*
Y214500D02*
X139000D01*
Y206500D01*
X166500D01*
Y214500D01*
D02*
G37*
G36*
X199000Y181500D02*
X171500D01*
Y173500D01*
X199000D01*
Y181500D01*
D02*
G37*
G36*
X166500D02*
X139000D01*
Y173500D01*
X166500D01*
Y181500D01*
D02*
G37*
G36*
X199000Y168500D02*
X171500D01*
Y160500D01*
X199000D01*
Y168500D01*
D02*
G37*
G36*
X166500D02*
X139000D01*
Y160500D01*
X166500D01*
Y168500D01*
D02*
G37*
G36*
X166004Y149026D02*
X165004D01*
Y147026D01*
X166004D01*
Y149026D01*
D02*
G37*
G36*
Y142026D02*
X165004D01*
Y140026D01*
X166004D01*
Y142026D01*
D02*
G37*
G36*
X183500Y129650D02*
X176750D01*
Y127650D01*
X183500D01*
Y129650D01*
D02*
G37*
G36*
X249250Y148050D02*
X242500D01*
Y146050D01*
X249250D01*
Y148050D01*
D02*
G37*
G36*
Y142350D02*
X242500D01*
Y140350D01*
X249250D01*
Y142350D01*
D02*
G37*
G36*
X237500D02*
X230750D01*
Y140350D01*
X237500D01*
Y142350D01*
D02*
G37*
G36*
X249250Y135350D02*
X242500D01*
Y133350D01*
X249250D01*
Y135350D01*
D02*
G37*
G36*
X237500D02*
X230750D01*
Y133350D01*
X237500D01*
Y135350D01*
D02*
G37*
G36*
X249250Y129650D02*
X242500D01*
Y127650D01*
X249250D01*
Y129650D01*
D02*
G37*
G36*
X237500D02*
X230750D01*
Y127650D01*
X237500D01*
Y129650D01*
D02*
G37*
G36*
X249250Y122650D02*
X242500D01*
Y120650D01*
X249250D01*
Y122650D01*
D02*
G37*
G36*
X237500D02*
X230750D01*
Y120650D01*
X237500D01*
Y122650D01*
D02*
G37*
G36*
X249250Y116950D02*
X242500D01*
Y114950D01*
X249250D01*
Y116950D01*
D02*
G37*
G36*
Y109950D02*
X242500D01*
Y107950D01*
X249250D01*
Y109950D01*
D02*
G37*
G36*
X785105Y191150D02*
X783393D01*
X781740Y190707D01*
X780258Y189851D01*
X779048Y188641D01*
X778192Y187159D01*
X777749Y185506D01*
Y183794D01*
X778192Y182141D01*
X779048Y180659D01*
X780258Y179449D01*
X781740Y178593D01*
X783393Y178150D01*
X785105D01*
X786758Y178593D01*
X788240Y179449D01*
X789224Y180433D01*
X790258Y179399D01*
X791740Y178543D01*
X793393Y178100D01*
X795105D01*
X796758Y178543D01*
X798240Y179399D01*
X799450Y180609D01*
X800306Y182091D01*
X800749Y183744D01*
Y185456D01*
X800306Y187109D01*
X799450Y188591D01*
X798240Y189801D01*
X796758Y190657D01*
X795105Y191100D01*
X793393D01*
X791740Y190657D01*
X790258Y189801D01*
X789274Y188817D01*
X788240Y189851D01*
X786758Y190707D01*
X785105Y191150D01*
D02*
G37*
G36*
X928189Y166140D02*
X915899D01*
Y153350D01*
X928189D01*
Y166140D01*
D02*
G37*
G36*
X910899D02*
X898609D01*
Y153350D01*
X910899D01*
Y166140D01*
D02*
G37*
G36*
X876189Y165840D02*
X863899D01*
Y153050D01*
X876189D01*
Y165840D01*
D02*
G37*
G36*
X858899D02*
X846609D01*
Y153050D01*
X858899D01*
Y165840D01*
D02*
G37*
G36*
X997189Y155840D02*
X991149D01*
Y151300D01*
X997189D01*
Y155840D01*
D02*
G37*
G36*
X986149D02*
X980109D01*
Y151300D01*
X986149D01*
Y155840D01*
D02*
G37*
G36*
X965589Y155990D02*
X958549D01*
Y149450D01*
X965589D01*
Y155990D01*
D02*
G37*
G36*
X953549D02*
X946509D01*
Y149450D01*
X953549D01*
Y155990D01*
D02*
G37*
G36*
X997189Y146300D02*
X991149D01*
Y141760D01*
X997189D01*
Y146300D01*
D02*
G37*
G36*
X986149D02*
X980109D01*
Y141760D01*
X986149D01*
Y146300D01*
D02*
G37*
G36*
X928189Y148350D02*
X915899D01*
Y135560D01*
X928189D01*
Y148350D01*
D02*
G37*
G36*
X910899D02*
X898609D01*
Y135560D01*
X910899D01*
Y148350D01*
D02*
G37*
G36*
X876189Y148050D02*
X863899D01*
Y135260D01*
X876189D01*
Y148050D01*
D02*
G37*
G36*
X858899D02*
X846609D01*
Y135260D01*
X858899D01*
Y148050D01*
D02*
G37*
G36*
X195250Y142350D02*
X188500D01*
Y140350D01*
X195250D01*
Y142350D01*
D02*
G37*
G36*
X183500D02*
X176750D01*
Y140350D01*
X183500D01*
Y142350D01*
D02*
G37*
G36*
X412058Y113324D02*
X390198D01*
Y104418D01*
X412058D01*
Y113324D01*
D02*
G37*
G36*
X385198D02*
X363338D01*
Y104418D01*
X385198D01*
Y113324D01*
D02*
G37*
G36*
X412058Y101830D02*
X390198D01*
Y92924D01*
X412058D01*
Y101830D01*
D02*
G37*
G36*
X385198D02*
X363338D01*
Y92924D01*
X385198D01*
Y101830D01*
D02*
G37*
G36*
X412058Y87924D02*
X363338D01*
Y79700D01*
X363338Y79018D01*
X362312Y78430D01*
X361338D01*
Y51618D01*
X414058D01*
Y78430D01*
X413084D01*
X412058Y79018D01*
X412058Y79700D01*
Y87924D01*
D02*
G37*
G36*
X730639Y109440D02*
X724599D01*
Y104900D01*
X730639D01*
Y109440D01*
D02*
G37*
G36*
X719599D02*
X713559D01*
Y104900D01*
X719599D01*
Y109440D01*
D02*
G37*
G36*
X730639Y99900D02*
X724599D01*
Y95360D01*
X730639D01*
Y99900D01*
D02*
G37*
G36*
X719599D02*
X713559D01*
Y95360D01*
X719599D01*
Y99900D01*
D02*
G37*
G36*
X997189Y125300D02*
X991149D01*
Y120760D01*
X997189D01*
Y125300D01*
D02*
G37*
G36*
X986149D02*
X980109D01*
Y120760D01*
X986149D01*
Y125300D01*
D02*
G37*
G36*
X928189Y105640D02*
X915899D01*
Y92850D01*
X928189D01*
Y105640D01*
D02*
G37*
G36*
X910899D02*
X898609D01*
Y92850D01*
X910899D01*
Y105640D01*
D02*
G37*
G36*
X863899Y105340D02*
Y92550D01*
X876189D01*
Y105340D01*
X863899D01*
D02*
G37*
G36*
X814889Y114840D02*
X808849D01*
Y110300D01*
X814889D01*
Y114840D01*
D02*
G37*
G36*
X795789D02*
X789749D01*
Y110300D01*
X795789D01*
Y114840D01*
D02*
G37*
G36*
X822849D02*
X816809D01*
Y110300D01*
X822849D01*
Y114840D01*
D02*
G37*
G36*
X803849D02*
X797809D01*
Y110300D01*
X803849D01*
Y114840D01*
D02*
G37*
G36*
X784749D02*
X778709D01*
Y110300D01*
X784749D01*
Y114840D01*
D02*
G37*
G36*
X822849Y105300D02*
X816809D01*
Y100760D01*
X822849D01*
Y105300D01*
D02*
G37*
G36*
X814889D02*
X808849D01*
Y100760D01*
X814889D01*
Y105300D01*
D02*
G37*
G36*
X803849D02*
X797809D01*
Y100760D01*
X803849D01*
Y105300D01*
D02*
G37*
G36*
X795789D02*
X789749D01*
Y100760D01*
X795789D01*
Y105300D01*
D02*
G37*
G36*
X784749D02*
X778709D01*
Y100760D01*
X784749D01*
Y105300D01*
D02*
G37*
G36*
X842549Y52440D02*
X841776Y51923D01*
X840772Y50421D01*
X840420Y48650D01*
Y46400D01*
X842549D01*
Y52440D01*
D02*
G37*
G36*
X830549Y51308D02*
X828549D01*
Y44150D01*
X836707D01*
Y45150D01*
X836239Y47507D01*
X834904Y49505D01*
X832906Y50840D01*
X830549Y51308D01*
D02*
G37*
G36*
X823549D02*
X821549D01*
X819192Y50840D01*
X817195Y49505D01*
X815860Y47507D01*
X815391Y45150D01*
Y44150D01*
X823549D01*
Y51308D01*
D02*
G37*
G36*
X800555Y68650D02*
X798843D01*
X797190Y68207D01*
X795708Y67351D01*
X794498Y66141D01*
X793642Y64659D01*
X793199Y63006D01*
Y61294D01*
X793532Y60054D01*
Y55950D01*
X790149D01*
Y39950D01*
X809149D01*
Y55950D01*
X805767D01*
Y59680D01*
X806199Y61294D01*
Y63006D01*
X805756Y64659D01*
X804900Y66141D01*
X803690Y67351D01*
X802208Y68207D01*
X800555Y68650D01*
D02*
G37*
G36*
X842549Y41400D02*
X840420D01*
Y39150D01*
X840772Y37379D01*
X841776Y35877D01*
X842549Y35360D01*
Y41400D01*
D02*
G37*
G36*
X836707Y39150D02*
X828549D01*
Y31992D01*
X830549D01*
X832906Y32460D01*
X834904Y33795D01*
X836239Y35793D01*
X836707Y38150D01*
Y39150D01*
D02*
G37*
G36*
X823549D02*
X815391D01*
Y38150D01*
X815860Y35793D01*
X817195Y33795D01*
X819192Y32460D01*
X821549Y31992D01*
X823549D01*
Y39150D01*
D02*
G37*
G36*
X827549Y27234D02*
Y19650D01*
X832150D01*
Y20650D01*
X831908Y22488D01*
X831199Y24200D01*
X830070Y25671D01*
X828599Y26799D01*
X827549Y27234D01*
D02*
G37*
G36*
X822549D02*
X821499Y26799D01*
X820028Y25671D01*
X818900Y24200D01*
X818190Y22488D01*
X817948Y20650D01*
Y19650D01*
X822549D01*
Y27234D01*
D02*
G37*
G36*
X843549Y28690D02*
X834009D01*
Y19650D01*
X843549D01*
Y28690D01*
D02*
G37*
G36*
X809149Y34950D02*
X790149D01*
Y18950D01*
X793530D01*
Y17678D01*
X793145Y16243D01*
Y14531D01*
X793588Y12878D01*
X794444Y11396D01*
X795654Y10186D01*
X797136Y9330D01*
X798789Y8887D01*
X800501D01*
X802154Y9330D01*
X803636Y10186D01*
X804846Y11396D01*
X805702Y12878D01*
X806145Y14531D01*
Y16243D01*
X805765Y17663D01*
Y18950D01*
X809149D01*
Y34950D01*
D02*
G37*
G36*
X93000Y126750D02*
X87750D01*
Y119500D01*
X93000D01*
Y126750D01*
D02*
G37*
G36*
X82750D02*
X77500D01*
Y119500D01*
X82750D01*
Y126750D01*
D02*
G37*
G36*
X93000Y114500D02*
X87750D01*
Y107250D01*
X93000D01*
Y114500D01*
D02*
G37*
G36*
X82750D02*
X77500D01*
Y107250D01*
X82750D01*
Y114500D01*
D02*
G37*
G36*
X109644Y92113D02*
X108394D01*
Y82510D01*
X114997D01*
Y86760D01*
X114589Y88808D01*
X113429Y90545D01*
X111692Y91705D01*
X109644Y92113D01*
D02*
G37*
G36*
X103394D02*
X102144D01*
X100096Y91705D01*
X98359Y90545D01*
X97199Y88808D01*
X96791Y86760D01*
Y82510D01*
X103394D01*
Y92113D01*
D02*
G37*
G36*
X114997Y77510D02*
X108394D01*
Y67907D01*
X109644D01*
X111692Y68315D01*
X113429Y69475D01*
X114589Y71212D01*
X114997Y73260D01*
Y77510D01*
D02*
G37*
G36*
X103394D02*
X96791D01*
Y73260D01*
X97199Y71212D01*
X98359Y69475D01*
X100096Y68315D01*
X102144Y67907D01*
X103394D01*
Y77510D01*
D02*
G37*
G36*
X127500Y126750D02*
X122250D01*
Y119500D01*
X127500D01*
Y126750D01*
D02*
G37*
G36*
X117250D02*
X112000D01*
Y119500D01*
X117250D01*
Y126750D01*
D02*
G37*
G36*
X195250Y116950D02*
X188500D01*
Y114950D01*
X195250D01*
Y116950D01*
D02*
G37*
G36*
X183500D02*
X176750D01*
Y114950D01*
X183500D01*
Y116950D01*
D02*
G37*
G36*
X195250Y109950D02*
X188500D01*
Y107950D01*
X195250D01*
Y109950D01*
D02*
G37*
G36*
X183500D02*
X176750D01*
Y107950D01*
X183500D01*
Y109950D01*
D02*
G37*
G36*
X127500Y114500D02*
X122250D01*
Y107250D01*
X127500D01*
Y114500D01*
D02*
G37*
G36*
X117250D02*
X112000D01*
Y107250D01*
X117250D01*
Y114500D01*
D02*
G37*
G36*
X156000Y105000D02*
X153500D01*
Y101500D01*
X156000D01*
Y105000D01*
D02*
G37*
G36*
X148500D02*
X146000D01*
Y101500D01*
X148500D01*
Y105000D01*
D02*
G37*
G36*
X156000Y96500D02*
X153500D01*
Y93000D01*
X156000D01*
Y96500D01*
D02*
G37*
G36*
X148500D02*
X146000D01*
Y93000D01*
X148500D01*
Y96500D01*
D02*
G37*
G36*
X204500Y93500D02*
X193250D01*
Y81750D01*
X204500D01*
Y93500D01*
D02*
G37*
G36*
X169250Y83250D02*
X159500D01*
Y72000D01*
X169250D01*
Y83250D01*
D02*
G37*
G36*
X154500D02*
X144750D01*
Y72000D01*
X154500D01*
Y83250D01*
D02*
G37*
G36*
X220750Y76750D02*
X209500D01*
Y65000D01*
X220750D01*
Y76750D01*
D02*
G37*
G36*
X204500D02*
X193250D01*
Y65000D01*
X204500D01*
Y76750D01*
D02*
G37*
G36*
X133190Y73048D02*
X131478D01*
X129825Y72605D01*
X128343Y71749D01*
X127133Y70539D01*
X126277Y69057D01*
X125834Y67404D01*
Y65692D01*
X126277Y64039D01*
X127133Y62557D01*
X128343Y61347D01*
X129825Y60491D01*
X131478Y60048D01*
X133190D01*
X134843Y60491D01*
X136325Y61347D01*
X137535Y62557D01*
X138391Y64039D01*
X138834Y65692D01*
Y67404D01*
X138391Y69057D01*
X137535Y70539D01*
X136325Y71749D01*
X134843Y72605D01*
X133190Y73048D01*
D02*
G37*
G36*
X169250Y67000D02*
X159500D01*
Y55750D01*
X169250D01*
Y67000D01*
D02*
G37*
G36*
X154500D02*
X144750D01*
Y55750D01*
X154500D01*
Y67000D01*
D02*
G37*
G36*
X49644Y92113D02*
X48394D01*
Y82510D01*
X54997D01*
Y86760D01*
X54589Y88808D01*
X53429Y90545D01*
X51692Y91705D01*
X49644Y92113D01*
D02*
G37*
G36*
X43394D02*
X42144D01*
X40096Y91705D01*
X38359Y90545D01*
X37199Y88808D01*
X36791Y86760D01*
Y82510D01*
X43394D01*
Y92113D01*
D02*
G37*
G36*
X54997Y77510D02*
X48394D01*
Y67907D01*
X49644D01*
X51692Y68315D01*
X53429Y69475D01*
X54589Y71212D01*
X54997Y73260D01*
Y77510D01*
D02*
G37*
G36*
X43394D02*
X36791D01*
Y73260D01*
X37199Y71212D01*
X38359Y69475D01*
X40096Y68315D01*
X42144Y67907D01*
X43394D01*
Y77510D01*
D02*
G37*
G36*
X82644Y42113D02*
X78394D01*
Y35510D01*
X87997D01*
Y36760D01*
X87589Y38808D01*
X86429Y40545D01*
X84692Y41705D01*
X82644Y42113D01*
D02*
G37*
G36*
X73394D02*
X69144D01*
X67095Y41705D01*
X65359Y40545D01*
X64199Y38808D01*
X63791Y36760D01*
Y35510D01*
X73394D01*
Y42113D01*
D02*
G37*
G36*
X169250Y40250D02*
X159500D01*
Y29000D01*
X169250D01*
Y40250D01*
D02*
G37*
G36*
X154500D02*
X144750D01*
Y29000D01*
X154500D01*
Y40250D01*
D02*
G37*
G36*
X220750Y33000D02*
X209500D01*
Y21250D01*
X220750D01*
Y33000D01*
D02*
G37*
G36*
X204500D02*
X193250D01*
Y21250D01*
X204500D01*
Y33000D01*
D02*
G37*
G36*
X169250Y24000D02*
X159500D01*
Y12750D01*
X169250D01*
Y24000D01*
D02*
G37*
G36*
X154500D02*
X144750D01*
Y12750D01*
X154500D01*
Y24000D01*
D02*
G37*
%LPD*%
D11*
X300736Y318852D02*
D03*
Y339852D02*
D03*
X281432Y318852D02*
D03*
Y339852D02*
D03*
X262128Y318852D02*
D03*
Y339852D02*
D03*
X988649Y127800D02*
D03*
Y148800D02*
D03*
X722499Y162400D02*
D03*
Y183400D02*
D03*
X722099Y123400D02*
D03*
Y102400D02*
D03*
X787249Y128800D02*
D03*
Y107800D02*
D03*
X806349Y128800D02*
D03*
Y107800D02*
D03*
X825349Y128800D02*
D03*
Y107800D02*
D03*
X799649Y47950D02*
D03*
Y26950D02*
D03*
X768999Y276300D02*
D03*
Y255300D02*
D03*
X804999Y266950D02*
D03*
Y245950D02*
D03*
X972699Y460700D02*
D03*
Y439700D02*
D03*
X904349Y447300D02*
D03*
Y468300D02*
D03*
D12*
X80010Y164136D02*
D03*
Y199136D02*
D03*
X520954Y385012D02*
D03*
Y350012D02*
D03*
Y315012D02*
D03*
Y280012D02*
D03*
X80036Y286968D02*
D03*
Y251968D02*
D03*
X80010Y444904D02*
D03*
Y409904D02*
D03*
Y374904D02*
D03*
Y339904D02*
D03*
D13*
X261672Y80010D02*
D03*
X296672D02*
D03*
X331672D02*
D03*
X427026Y80600D02*
D03*
X462026D02*
D03*
X497026D02*
D03*
X532026D02*
D03*
D16*
X221488Y423418D02*
D03*
X200488D02*
D03*
X286938Y406146D02*
D03*
X265938D02*
D03*
X226822Y300482D02*
D03*
X247822D02*
D03*
X287020Y383286D02*
D03*
X266020D02*
D03*
X287020Y364236D02*
D03*
X266020D02*
D03*
X131908Y410972D02*
D03*
X152908D02*
D03*
X131908Y388366D02*
D03*
X152908D02*
D03*
X131908Y368808D02*
D03*
X152908D02*
D03*
X131908Y347218D02*
D03*
X152908D02*
D03*
X189738Y300482D02*
D03*
X210738D02*
D03*
X815499Y319550D02*
D03*
X794499D02*
D03*
X832399Y305050D02*
D03*
X853399D02*
D03*
X853299Y285450D02*
D03*
X832299D02*
D03*
X758524Y299375D02*
D03*
X779524D02*
D03*
X1044349Y447800D02*
D03*
X1023349D02*
D03*
X1044449Y428650D02*
D03*
X1023449D02*
D03*
X1044249Y409500D02*
D03*
X1023249D02*
D03*
X1041499Y325450D02*
D03*
X1020499D02*
D03*
X1041499Y306400D02*
D03*
X1020499D02*
D03*
X1041349Y286000D02*
D03*
X1020349D02*
D03*
X1041449Y266950D02*
D03*
X1020449D02*
D03*
D28*
X78740Y181356D02*
Y197740D01*
X80000Y199000D01*
X114724Y164000D02*
X118618Y167894D01*
X80000Y164000D02*
X114724D01*
X216296Y399220D02*
X232175Y415099D01*
X239839D01*
X216296Y399220D02*
Y399220D01*
X211496Y394420D02*
X216296Y399220D01*
X211496Y320225D02*
Y394420D01*
X239839Y415099D02*
X240030Y415290D01*
X219488Y419918D02*
X221488Y421918D01*
X199136Y354608D02*
Y402336D01*
X216718Y419918D02*
X219488D01*
X221488Y421918D02*
Y423418D01*
X199136Y402336D02*
X216718Y419918D01*
X182824Y416758D02*
X188976Y422910D01*
X182824Y402336D02*
Y416758D01*
X188976Y422910D02*
X198488D01*
X198996Y423418D01*
X200488D01*
X272932Y329352D02*
X293202D01*
X297236Y320852D02*
Y325318D01*
X293202Y329352D02*
X297236Y325318D01*
Y320852D02*
X299236Y318852D01*
X300736D01*
X151948Y391866D02*
X154178Y389636D01*
X131908Y409472D02*
X149514Y391866D01*
X151948D01*
X131908Y409472D02*
Y410972D01*
X152908D02*
X160274D01*
X237322Y303698D02*
X241046Y299974D01*
X237322Y303698D02*
Y308321D01*
X247314Y299974D02*
X247822Y300482D01*
X237322Y308321D02*
X237501Y308500D01*
X241046Y299974D02*
X247314D01*
X210738Y300482D02*
X226822D01*
X178562Y253423D02*
X204000Y227985D01*
X171704Y314198D02*
X178562Y307340D01*
Y253423D02*
Y307340D01*
X200238Y308967D02*
X211496Y320225D01*
X200238Y256214D02*
Y308967D01*
X189738Y254268D02*
Y300482D01*
Y311404D01*
X199136Y320802D01*
Y346964D01*
X226822Y300482D02*
Y312674D01*
X221996Y317500D02*
X226822Y312674D01*
X195314Y350786D02*
X199136Y346964D01*
X281432Y318852D02*
X282480D01*
X284480Y316852D01*
Y310134D02*
Y316852D01*
Y310134D02*
X287782Y306832D01*
X300736Y339852D02*
Y346144D01*
X295344Y351536D02*
X300736Y346144D01*
X265628Y315016D02*
Y316852D01*
X283718Y296926D02*
X313700D01*
X265628Y315016D02*
X283718Y296926D01*
X311585Y306832D02*
X314514Y309761D01*
X287782Y306832D02*
X311585D01*
X314514Y309761D02*
Y366313D01*
X323538Y306764D02*
Y355271D01*
X313700Y296926D02*
X323538Y306764D01*
X266020Y384786D02*
X283880Y402646D01*
X284938D01*
X266020Y383286D02*
Y384786D01*
X284938Y402646D02*
X286938Y404646D01*
X240074Y403086D02*
X254242D01*
X256867Y405711D02*
X265503D01*
X254242Y403086D02*
X256867Y405711D01*
X265503D02*
X265938Y406146D01*
X239324Y402336D02*
X240074Y403086D01*
X295656Y423164D02*
X339598Y379222D01*
X273304Y423164D02*
X295656D01*
X265938Y415798D02*
X273304Y423164D01*
X265938Y406146D02*
Y415798D01*
X286938Y404646D02*
Y406146D01*
X265159Y384147D02*
X266020Y383286D01*
X335788Y468122D02*
X354584Y486918D01*
X144272Y457962D02*
X366014D01*
X390398Y482346D01*
X117094Y430784D02*
X144272Y457962D01*
X139700Y468122D02*
X335788D01*
X117094Y445516D02*
X139700Y468122D01*
X139479Y350718D02*
X142408Y353647D01*
X131908Y347218D02*
Y348718D01*
X142408Y353647D02*
Y356808D01*
X131908Y348718D02*
X133908Y350718D01*
X139479D01*
X142408Y356808D02*
X152908Y367308D01*
X140841Y368879D02*
X140911Y368949D01*
X131979Y368879D02*
X140841D01*
X131908Y368808D02*
X131979Y368879D01*
X152908Y367308D02*
Y368808D01*
X153162Y341376D02*
X167386D01*
X152908Y341122D02*
X153162Y341376D01*
X167386D02*
X169926Y338836D01*
X182824D01*
X152908Y368808D02*
X161290D01*
X169418Y376936D02*
X182824D01*
X161290Y368808D02*
X169418Y376936D01*
X154178Y389636D02*
X182824D01*
X168910Y402336D02*
X182824D01*
X160274Y410972D02*
X168910Y402336D01*
X119317Y384239D02*
X123444Y388366D01*
X119126Y377444D02*
X119317Y377635D01*
Y384239D01*
X123444Y388366D02*
X131908D01*
X80000Y445000D02*
X80516Y445516D01*
X117094D01*
X79756Y340244D02*
Y354838D01*
X80615Y409385D02*
X117031D01*
X117094Y409448D02*
Y430784D01*
X117031Y409385D02*
X117094Y409448D01*
X158496Y498094D02*
X171958Y484632D01*
X158496Y577088D02*
X172974Y591566D01*
X158496Y498094D02*
Y577088D01*
X172974Y591566D02*
X449580D01*
X171958Y484632D02*
X297688D01*
X195008Y137350D02*
X203734Y128624D01*
X186500Y137350D02*
X195008D01*
X163068Y136591D02*
Y144526D01*
Y165068D01*
X214299Y256363D02*
X248666Y221996D01*
X214108Y260618D02*
X214299Y260427D01*
Y256363D02*
Y260427D01*
X231392Y37340D02*
Y88343D01*
X213106Y106629D02*
X231392Y88343D01*
X200238Y256214D02*
X221996Y234456D01*
Y109760D02*
Y234456D01*
X213106Y106629D02*
Y230900D01*
X221996Y109760D02*
X241808Y89948D01*
X150470Y128880D02*
X157668D01*
X144500Y118000D02*
X145500Y119000D01*
Y123910D02*
X150470Y128880D01*
X145500Y119000D02*
Y123910D01*
X144500Y117000D02*
Y119000D01*
X157668Y128880D02*
X157860Y129072D01*
X174509Y125150D02*
X186000D01*
X163068Y136591D02*
X174509Y125150D01*
X462026Y153670D02*
X479552Y171196D01*
X425895Y79469D02*
X427026Y80600D01*
X479552Y171196D02*
X510032D01*
X462026Y80600D02*
Y153670D01*
X425895Y45149D02*
Y79469D01*
X425704Y44958D02*
X425895Y45149D01*
X514604Y46482D02*
Y132842D01*
X425450Y21590D02*
X489712D01*
X514604Y46482D01*
X454914Y195834D02*
X479552Y171196D01*
X450850Y372618D02*
X454914Y368554D01*
Y195834D02*
Y368554D01*
X454406Y399542D02*
Y449707D01*
X477012Y209550D02*
Y376936D01*
X454406Y399542D02*
X477012Y376936D01*
X473456Y468757D02*
Y515665D01*
X454406Y449707D02*
X473456Y468757D01*
X461817Y527304D02*
X473456Y515665D01*
X448108Y498550D02*
X462788Y483870D01*
X466090Y201422D02*
Y373634D01*
X444500Y395224D02*
Y454729D01*
X451000Y461229D02*
Y461500D01*
X444500Y454729D02*
X451000Y461229D01*
X444500Y395224D02*
X466090Y373634D01*
X540004Y397764D02*
Y398272D01*
X539750Y397510D02*
X540004Y397764D01*
X535773Y385012D02*
X539750Y388989D01*
Y397510D01*
X520954Y385012D02*
X535773D01*
X477012Y209550D02*
X494562Y192000D01*
X581000D01*
X520700Y182626D02*
X536726Y166600D01*
X484886Y182626D02*
X520700D01*
X466090Y201422D02*
X484886Y182626D01*
X296546Y42292D02*
Y79884D01*
X248920Y35560D02*
X289814D01*
X296546Y42292D01*
X242062Y26670D02*
X322834D01*
X331724Y35560D02*
Y79958D01*
X322834Y26670D02*
X331724Y35560D01*
X241808Y42672D02*
Y89948D01*
Y42672D02*
X248920Y35560D01*
X231392Y37340D02*
X242062Y26670D01*
X359701Y185203D02*
X371003D01*
X353568Y48768D02*
Y179070D01*
X359701Y185203D01*
X353568Y48768D02*
X369824Y32512D01*
X484378D02*
X497026Y45160D01*
X369824Y32512D02*
X484378D01*
X295235Y393001D02*
X299275D01*
X289020Y386786D02*
X295235Y393001D01*
X299275D02*
X299466Y393192D01*
X287020Y384786D02*
X289020Y386786D01*
X289020D01*
X287020Y364236D02*
Y384786D01*
X520954Y350012D02*
X565658D01*
X584200Y331470D01*
X189738Y254268D02*
X213106Y230900D01*
X227924Y376515D02*
X238902D01*
X221996Y370586D02*
X227924Y376515D01*
X238902D02*
X239324Y376936D01*
X221996Y317500D02*
Y370586D01*
X467106Y547624D02*
Y574040D01*
X449580Y591566D02*
X467106Y574040D01*
X443317Y347070D02*
X443484Y346902D01*
Y169672D02*
Y346902D01*
X249936Y242316D02*
Y256314D01*
X246500Y259750D02*
X249936Y256314D01*
X248666Y221996D02*
X385572D01*
X90170Y19050D02*
X109728Y38608D01*
X22606Y19050D02*
X90170D01*
X157158Y69342D02*
X158860Y67641D01*
X157000Y69500D02*
X157158Y69342D01*
X172212D01*
X272625Y231902D02*
X377190D01*
X377444Y232156D01*
X265684Y238843D02*
Y245193D01*
Y238843D02*
X272625Y231902D01*
X521046Y279954D02*
X559262D01*
X559308Y279908D01*
X521000Y280000D02*
X521046Y279954D01*
X226836Y273571D02*
X232157Y278892D01*
X226836Y260618D02*
Y273571D01*
X213931Y260795D02*
Y276317D01*
X225650Y288036D01*
X275590Y241808D02*
Y242079D01*
X276035Y242524D01*
Y243523D01*
X279077Y246565D01*
Y246565D01*
X288544Y268053D02*
Y272034D01*
X265684Y245193D02*
X288544Y268053D01*
X288269Y242803D02*
X305816Y260350D01*
X288269Y241958D02*
Y242803D01*
X288077Y241767D02*
X288269Y241958D01*
X300722Y241568D02*
X310360Y251206D01*
X305816Y260350D02*
X338074D01*
X310360Y251206D02*
X341884D01*
X232157Y278892D02*
X281686D01*
X288544Y272034D01*
X225650Y288036D02*
X323850D01*
X295148Y278638D02*
X328930D01*
X288544Y272034D02*
X295148Y278638D01*
X328930D02*
X341538Y291246D01*
X279077Y246565D02*
X301752Y269240D01*
X333502D02*
X351536Y287274D01*
X301752Y269240D02*
X333502D01*
X204000Y216154D02*
Y227985D01*
X338074Y260350D02*
X360036Y282312D01*
X323850Y288036D02*
X332538Y296724D01*
X260628Y318852D02*
X263628D01*
X265628Y316852D01*
X579960Y116332D02*
X580492Y115800D01*
X437896Y534162D02*
Y541020D01*
X427784Y524050D02*
X437896Y534162D01*
X431800Y180800D02*
Y456018D01*
X443484Y467702D02*
Y487172D01*
X360036Y282312D02*
Y424526D01*
X411362Y475852D01*
X341884Y251206D02*
X368628Y277950D01*
X377426Y274048D02*
Y416034D01*
X368628Y420444D02*
X419862Y471678D01*
X344932Y241554D02*
X377426Y274048D01*
Y416034D02*
X430643Y469251D01*
X351536Y428754D02*
X398144Y475362D01*
X368628Y277950D02*
Y420444D01*
X351536Y287274D02*
Y428754D01*
X332538Y296724D02*
Y308974D01*
X341538Y291246D02*
Y316992D01*
X330454Y362187D02*
Y362458D01*
X323538Y355271D02*
X330454Y362187D01*
X400495Y495237D02*
X420808Y515550D01*
X400495Y485331D02*
Y495237D01*
X385701Y510032D02*
X400495Y495237D01*
X348968Y510032D02*
X385701D01*
X411988Y519684D02*
X416354Y524050D01*
X364716Y519684D02*
X411988D01*
X416354Y524050D02*
X427784D01*
X338100Y546300D02*
X364716Y519684D01*
X363500Y546300D02*
X381616Y528184D01*
X405130D01*
X312700Y546300D02*
X348968Y510032D01*
X405130Y528184D02*
X409496Y532550D01*
X422568D02*
X428498Y538480D01*
Y545338D01*
X409496Y532550D02*
X422568D01*
X419862Y471678D02*
Y489966D01*
X411362Y493487D02*
X424925Y507050D01*
X411362Y475852D02*
Y493487D01*
X419862Y489966D02*
X428446Y498550D01*
X424925Y507050D02*
X445946D01*
X428446Y498550D02*
X448108D01*
X435356Y552196D02*
X441198D01*
X428498Y545338D02*
X435356Y552196D01*
X445946Y507050D02*
X455930Y517034D01*
X430643Y469251D02*
Y487059D01*
X420808Y515550D02*
X436706D01*
X448460Y527304D01*
X461817D01*
X514604Y132842D02*
X522224Y140462D01*
X255074Y326136D02*
X258628Y322582D01*
X239324Y326136D02*
X255074D01*
X258628Y320852D02*
Y322582D01*
Y320852D02*
X260628Y318852D01*
X261672Y126036D02*
X339090Y203454D01*
X261672Y80010D02*
Y126036D01*
X296546Y79884D02*
X296672Y80010D01*
X331672D02*
X331724Y79958D01*
X339090Y203454D02*
X339090D01*
X186000Y137850D02*
X186500Y137350D01*
X195314Y350786D02*
X199136Y354608D01*
X182824Y351536D02*
X183574Y350786D01*
X195314D01*
X313436Y241554D02*
X344932D01*
X135246Y86682D02*
Y107746D01*
X197962Y150586D02*
X197998Y150622D01*
X186036Y150586D02*
X197962D01*
X186000Y150550D02*
X186036Y150586D01*
X377800Y166600D02*
X417600D01*
X521294Y314706D02*
X560070D01*
X521000Y315000D02*
X521294Y314706D01*
X80000Y375000D02*
X80010Y375010D01*
Y391160D01*
Y268224D02*
Y286990D01*
X80000Y287000D02*
X80010Y286990D01*
X79756Y340244D02*
X80000Y340000D01*
X314514Y366313D02*
X321056Y372855D01*
Y373126D01*
X339598Y351790D02*
Y379222D01*
X421386Y200914D02*
Y374904D01*
X415231Y194759D02*
X421386Y200914D01*
X371003Y185203D02*
X380559Y194759D01*
X239324Y351536D02*
X239578Y351790D01*
X255074D01*
X266020Y362736D01*
X239324Y338836D02*
X261112D01*
X262382Y340106D01*
X171450Y364236D02*
X182824D01*
X240000Y150550D02*
X244750D01*
X238942D02*
X240000D01*
X244750D02*
X249999Y155799D01*
Y161309D01*
X250190Y161500D01*
X380559Y194759D02*
X415231D01*
X532026Y161900D02*
X536726Y166600D01*
X532026Y80600D02*
Y161900D01*
X536726Y166600D02*
X581000D01*
X427026Y80600D02*
Y153214D01*
X443484Y169672D01*
X497026Y45160D02*
Y80600D01*
X163068Y165068D02*
X169000Y171000D01*
X135246Y107746D02*
X144500Y117000D01*
X431800Y456018D02*
X443484Y467702D01*
X417600Y166600D02*
X431800Y180800D01*
X400304Y485140D02*
X400495Y485331D01*
X390398Y482346D02*
X390398D01*
X262382Y340106D02*
X281178D01*
X281432Y340360D01*
X277220Y351536D02*
X295344D01*
X266020Y362736D02*
X277220Y351536D01*
X239324Y389636D02*
X239832Y389128D01*
X251968D02*
X256949Y384147D01*
X265159D01*
X239832Y389128D02*
X251968D01*
X182570Y325882D02*
X182824Y326136D01*
Y338836D01*
X80000Y410000D02*
X80615Y409385D01*
X117856Y258318D02*
Y258318D01*
X80000Y252000D02*
X80592Y252592D01*
X112130D02*
X117856Y258318D01*
X80592Y252592D02*
X112130D01*
X1123399Y354450D02*
Y376700D01*
Y354450D02*
X1128899Y348950D01*
X775399Y383450D02*
Y406150D01*
X1024020Y340612D02*
X1034890D01*
X1020499Y325450D02*
Y337091D01*
X1024020Y340612D01*
X741299Y37520D02*
Y139650D01*
X723529Y19750D02*
X741299Y37520D01*
X1052849Y306400D02*
X1059017Y300233D01*
Y293571D02*
X1059208Y293379D01*
X1059017Y293571D02*
Y300233D01*
X1043449Y269109D02*
X1061637D01*
X1043349Y269009D02*
X1043449Y269109D01*
X1061637D02*
X1061829Y269300D01*
X1043349Y268850D02*
Y269009D01*
X1041399Y267000D02*
Y285950D01*
X1041449Y266950D02*
X1043349Y268850D01*
X1093899Y246550D02*
Y332400D01*
X1082999Y264400D02*
Y329700D01*
X1046128Y246450D02*
X1065049D01*
X1082999Y264400D01*
X1043199Y243521D02*
X1046128Y246450D01*
X1043199Y183950D02*
Y243521D01*
X1072624Y267368D02*
Y324925D01*
X1042499Y254950D02*
X1060206D01*
X1072624Y267368D01*
X1033049Y245500D02*
X1042499Y254950D01*
X1041399Y267000D02*
X1041449Y266950D01*
X1033049Y124500D02*
Y245500D01*
X1041499Y306400D02*
Y325450D01*
X1005649Y321250D02*
X1020499Y306400D01*
X995499Y291550D02*
X1020099Y266950D01*
X1041349Y286000D02*
X1041399Y285950D01*
X1041499Y306400D02*
X1052849D01*
X1043199Y183950D02*
X1051649Y175500D01*
X1033049Y124500D02*
X1040499Y117050D01*
X768999Y224571D02*
Y255300D01*
X764299Y219871D02*
X768999Y224571D01*
X764299Y219600D02*
Y219871D01*
X786399Y287200D02*
X792249Y281350D01*
Y257200D02*
Y281350D01*
X756399Y287200D02*
X786399D01*
X792249Y257200D02*
X803499Y245950D01*
X769024Y276325D02*
X782524D01*
X782549Y276350D01*
X768999Y276300D02*
X769024Y276325D01*
X803499Y245950D02*
X804999D01*
X749899Y280700D02*
X756399Y287200D01*
X749899Y148250D02*
Y280700D01*
X956049Y146950D02*
X956308Y147209D01*
Y161459D01*
X956499Y161650D01*
X768999Y255300D02*
X769024Y255325D01*
Y265275D01*
X769049Y265300D01*
X981608Y458891D02*
X981799Y458700D01*
X974508Y458891D02*
X981608D01*
X972699Y460700D02*
X974508Y458891D01*
X695449Y205650D02*
Y236800D01*
X681349Y81350D02*
Y191550D01*
X695449Y205650D01*
X1044349Y447800D02*
X1056899D01*
X1067049Y437650D01*
Y359250D02*
Y437650D01*
X1004999Y71929D02*
Y164100D01*
X956249Y174800D02*
X994299D01*
X1004999Y164100D01*
X741299Y139650D02*
X749899Y148250D01*
X845449Y69000D02*
X1002070D01*
X1004999Y71929D01*
X839949Y74500D02*
X845449Y69000D01*
X839949Y74500D02*
Y123950D01*
X834899Y129000D02*
X839949Y123950D01*
X825825Y129089D02*
X825914Y129000D01*
X825443Y128706D02*
X825825Y129089D01*
X825349Y128800D02*
X825443Y128706D01*
X825914Y129000D02*
X834899D01*
X806249Y107700D02*
X806349Y107800D01*
X806249Y93500D02*
Y107700D01*
X806149Y93400D02*
X806249Y93500D01*
X806349Y107800D02*
X825349D01*
X787249D02*
X806349D01*
X799649Y62100D02*
X799699Y62150D01*
X799649Y47950D02*
Y62100D01*
X722449Y173850D02*
X722474Y173875D01*
Y183375D02*
X722499Y183400D01*
X722474Y173875D02*
Y183375D01*
X853399Y305050D02*
Y316600D01*
X1067049Y359250D02*
X1093899Y332400D01*
X1005649Y321250D02*
Y512650D01*
X1057649Y355050D02*
X1082999Y329700D01*
X1044249Y353300D02*
X1072624Y324925D01*
X1057649Y355050D02*
Y424771D01*
X1044249Y353300D02*
Y409500D01*
X1045399Y427700D02*
X1054720D01*
X1057649Y424771D01*
X1044449Y428650D02*
X1045399Y427700D01*
X995499Y519300D02*
X1004849Y528650D01*
X995499Y291550D02*
Y519300D01*
X1005649Y512650D02*
X1009999Y517000D01*
X1031199D01*
X1004849Y528650D02*
X1023931Y528650D01*
X799647Y26948D02*
X799649Y26950D01*
X799645Y15387D02*
X799647Y15389D01*
Y26948D01*
X788192Y128800D02*
X806349D01*
X825349D01*
X1023558Y447591D02*
X1032058D01*
X1023349Y447800D02*
X1023558Y447591D01*
X1032058D02*
X1032249Y447400D01*
X1023299Y409550D02*
X1032199D01*
X1023249Y409500D02*
X1023299Y409550D01*
X1023449Y428650D02*
X1023549Y428550D01*
X1032099D01*
X1023931Y528650D02*
X1024299D01*
X696099Y123050D02*
X720249D01*
X695899Y122850D02*
X696099Y123050D01*
X720249D02*
X722099Y124900D01*
X1031199Y517000D02*
X1036549Y522350D01*
Y546300D01*
X695899Y162850D02*
X696124Y162625D01*
X722274D01*
X722499Y162400D01*
X722862Y162037D01*
D29*
X250784Y361442D02*
X251460D01*
X249489Y362736D02*
X250784Y361442D01*
X240824Y362736D02*
X249489D01*
X239324Y364236D02*
X240824Y362736D01*
X955399Y128600D02*
X956899Y130100D01*
X1020499Y325450D02*
X1021449Y324500D01*
X1028399D01*
X1030949Y321950D01*
Y288700D02*
Y321950D01*
X1027949Y285700D02*
X1030949Y288700D01*
X1020649Y285700D02*
X1027949D01*
X1020349Y286000D02*
X1020649Y285700D01*
X755599Y92100D02*
X765999Y102500D01*
Y147200D02*
X779349Y160550D01*
X765999Y102500D02*
Y147200D01*
X758449Y136500D02*
Y152650D01*
X776299Y170500D01*
X755249Y133200D02*
Y133300D01*
X758449Y136500D01*
X731049Y206550D02*
X731099Y206500D01*
X711449Y206550D02*
X731049D01*
X711399Y206600D02*
X711449Y206550D01*
X955699Y369300D02*
Y380550D01*
X973699Y398550D02*
X985299D01*
X955699Y380550D02*
X973699Y398550D01*
X955699Y365250D02*
Y369300D01*
X955399Y114150D02*
X955399Y114150D01*
Y100650D02*
Y114150D01*
X955399Y114150D02*
Y128600D01*
X738699Y154500D02*
Y301300D01*
X727049Y142850D02*
X738699Y154500D01*
X695899Y142850D02*
X727049D01*
X871049Y33850D02*
X871099Y33800D01*
X871049Y33850D02*
Y43900D01*
X870049Y17150D02*
X891049D01*
X825049D02*
X846049D01*
X870049D01*
X890549Y17650D02*
X891049Y17150D01*
X890049Y41650D02*
X890549Y41150D01*
Y17650D02*
Y41150D01*
X825549Y17650D02*
Y41150D01*
X825049Y17150D02*
X825549Y17650D01*
Y41150D02*
X826049Y41650D01*
X717649Y359500D02*
X757599Y319550D01*
X691149Y359500D02*
X717649D01*
X757599Y319550D02*
X794499D01*
X755774Y303625D02*
X758524Y300875D01*
X710249Y348700D02*
X755324Y303625D01*
X696849Y348700D02*
X710249D01*
X758524Y299375D02*
Y300875D01*
X755324Y303625D02*
X755774D01*
X679949Y348300D02*
X691149Y359500D01*
X680899Y312950D02*
X727049D01*
X904349Y468300D02*
X927549D01*
X927749Y468500D01*
X722149Y102450D02*
Y110550D01*
X722099Y102400D02*
X722149Y102450D01*
X727049Y312950D02*
X738699Y301300D01*
X815849Y143750D02*
Y147550D01*
X818349Y141250D02*
X827549D01*
X815849Y143750D02*
X818349Y141250D01*
X815199Y147550D02*
X815849D01*
X776299Y170500D02*
X809849D01*
X790942Y160550D02*
Y160550D01*
X809849Y170500D02*
X814849Y165500D01*
X779349Y160550D02*
X790942D01*
X814849Y160550D02*
Y165500D01*
Y160550D02*
X815199D01*
X794499Y319550D02*
X795099Y318950D01*
Y302950D02*
Y318950D01*
Y302950D02*
X795699Y302350D01*
X780399D02*
X795699D01*
X779524Y301475D02*
X780399Y302350D01*
X779524Y299375D02*
Y301475D01*
X805199Y267150D02*
Y282350D01*
X804999Y266950D02*
X805199Y267150D01*
X789749Y146357D02*
X790942Y147550D01*
X789749Y130357D02*
Y146357D01*
X788192Y128800D02*
X789749Y130357D01*
X787249Y128800D02*
X788192D01*
X680849Y313000D02*
X680899Y312950D01*
D30*
X144012Y144526D02*
X155504D01*
X138802Y149736D02*
X144012Y144526D01*
X903699Y405450D02*
Y416700D01*
X903649Y405400D02*
X903699Y405450D01*
X904349Y431050D02*
X910199Y425200D01*
Y416700D02*
Y425200D01*
X783129Y154030D02*
X785399D01*
X777261Y143362D02*
Y148162D01*
X783129Y154030D01*
X776599Y142700D02*
X777261Y143362D01*
X905349Y235900D02*
Y316950D01*
X895949Y194050D02*
X927249Y225350D01*
X889499Y208150D02*
X913299Y231950D01*
X892699Y201050D02*
X920249Y228600D01*
X898649Y186400D02*
X934799Y222550D01*
X886699Y217250D02*
X905349Y235900D01*
X845049Y57650D02*
X845099Y57700D01*
X845049Y43900D02*
Y57650D01*
X853399Y305050D02*
X871399D01*
X876549Y310200D01*
X968649Y405150D02*
X972224Y408725D01*
X975454Y439700D02*
X975799D01*
X972224Y436470D02*
X975454Y439700D01*
X972224Y408725D02*
Y436470D01*
X959349Y405150D02*
X968649D01*
X955699Y408800D02*
X959349Y405150D01*
X955699Y408800D02*
Y416700D01*
X902719Y361800D02*
X904249Y363330D01*
X955699Y361200D02*
Y365250D01*
X901099Y524700D02*
X949199Y476600D01*
X901099Y524700D02*
Y532400D01*
X896899Y536600D02*
Y552550D01*
Y536600D02*
X901099Y532400D01*
X843349Y537450D02*
X848649Y532150D01*
X859849D01*
X843349Y537450D02*
Y554400D01*
X847769Y558820D01*
X871629D01*
X859849Y532150D02*
X873999Y518000D01*
Y399350D02*
X891649Y381700D01*
X873999Y399350D02*
Y518000D01*
X891649Y381700D02*
X923699D01*
X942699Y400700D01*
Y416700D01*
X881099Y401700D02*
X894449Y388350D01*
X916989Y409182D02*
X922571Y403600D01*
X922999D01*
X894449Y388350D02*
X921099D01*
X936199Y403450D01*
Y416700D01*
X842099Y186350D02*
X842524Y186775D01*
Y190475D01*
X853299Y285450D02*
X875949D01*
X883599Y293100D01*
Y326400D01*
X961470Y357220D02*
X962199Y357949D01*
X956199Y348850D02*
X961470Y354121D01*
Y357220D01*
X962199Y357949D02*
Y361200D01*
X842524Y190475D02*
X846099Y194050D01*
X895949D01*
X876549Y310200D02*
Y329400D01*
X902719Y355570D01*
Y360220D01*
X903699Y361200D01*
X883599Y326400D02*
X910199Y353000D01*
Y361200D01*
X906899Y371800D02*
X953199D01*
X904249Y369150D02*
X906899Y371800D01*
X904249Y363330D02*
Y369150D01*
X953199Y371800D02*
X953943Y371056D01*
X956199Y327700D02*
Y348850D01*
X890549Y243038D02*
Y323450D01*
X916395Y349296D01*
X880261Y232750D02*
X890549Y243038D01*
X815411Y217388D02*
X821211D01*
X814749Y218050D02*
X815411Y217388D01*
X821211D02*
X830449Y208150D01*
X804349Y218050D02*
X804525Y217875D01*
X953943Y371056D02*
X953943D01*
X955699Y369300D01*
X904349Y431050D02*
Y447300D01*
X916989Y409182D02*
Y416410D01*
X916699Y416700D02*
X916989Y416410D01*
X854399Y186280D02*
X854519Y186400D01*
X898649D01*
X934799Y306300D02*
X956199Y327700D01*
X934799Y222550D02*
Y306300D01*
X927249Y225350D02*
Y309100D01*
X949199Y331050D01*
X920249Y312350D02*
X942699Y334800D01*
X920249Y228600D02*
Y312350D01*
X913299Y231950D02*
Y314150D01*
X936149Y337000D01*
X905349Y316950D02*
X929699Y341300D01*
X827299Y201050D02*
X892699D01*
X818899Y209450D02*
X827299Y201050D01*
X949199Y331050D02*
Y361200D01*
X808149Y209450D02*
X818899D01*
X804525Y213075D02*
X808149Y209450D01*
X804525Y213075D02*
Y217875D01*
X830449Y208150D02*
X889499D01*
X854699Y232750D02*
X880261D01*
X847769Y225820D02*
X854699Y232750D01*
X836629Y221268D02*
X841181Y225820D01*
X847769D01*
X844399Y218050D02*
X850949D01*
X858469Y225570D02*
X884069D01*
X850949Y218050D02*
X858469Y225570D01*
X884069D02*
X897799Y239300D01*
X864999Y217250D02*
X886699D01*
X864449Y217800D02*
X864999Y217250D01*
X834230Y218319D02*
Y218817D01*
X836629Y221216D02*
Y221268D01*
X834230Y218817D02*
X836629Y221216D01*
X942699Y334800D02*
Y361200D01*
X936149Y337000D02*
Y361150D01*
X916395Y349296D02*
Y360896D01*
X936149Y361150D02*
X936199Y361200D01*
X929699Y341300D02*
Y361200D01*
X923199Y345300D02*
Y361200D01*
X897799Y319900D02*
X923199Y345300D01*
X897799Y239300D02*
Y319900D01*
X916395Y360896D02*
X916699Y361200D01*
X929699Y416700D02*
Y436450D01*
X923899Y442250D02*
X929699Y436450D01*
X917899Y430700D02*
X918163D01*
X923199Y425664D01*
Y416700D02*
Y425664D01*
X909549Y528050D02*
X958499Y479100D01*
Y428760D02*
Y479100D01*
X909549Y528050D02*
Y546300D01*
X903169Y558820D02*
X922429D01*
X896899Y552550D02*
X903169Y558820D01*
X962199Y416700D02*
X962199Y416700D01*
X962199Y416700D02*
Y425060D01*
X958499Y428760D02*
X962199Y425060D01*
X949199Y416700D02*
Y476600D01*
X922429Y558820D02*
X934949Y546300D01*
X881099Y401700D02*
Y523950D01*
X871629Y558820D02*
X884149Y546300D01*
X858749D02*
X881099Y523950D01*
D31*
X0Y0D02*
X600000D01*
X0D02*
Y600000D01*
X600000Y0D02*
Y600000D01*
X0D02*
X600000D01*
X1273049Y484950D02*
Y600000D01*
X673049D02*
X1273049D01*
Y401700D02*
Y484950D01*
X1057499Y50D02*
Y236700D01*
X786299Y50D02*
X1057499D01*
Y236700D02*
X1273049D01*
X673049Y0D02*
X786049D01*
X673049Y461750D02*
X673049Y0D01*
X1273049Y236700D02*
Y401700D01*
X673049Y461750D02*
Y600000D01*
D33*
X155504Y144526D02*
D03*
X162504D02*
D03*
X955399Y114150D02*
D03*
X962399D02*
D03*
X731099Y206500D02*
D03*
X738099D02*
D03*
D43*
X157000Y26500D02*
D03*
Y69500D02*
D03*
D48*
X1002889Y182900D02*
X1002889D01*
X1017989Y167800D01*
X998536Y187253D02*
X1002889Y182900D01*
X1017989Y66210D02*
Y167800D01*
X1011829Y60050D02*
X1017989Y66210D01*
X975685Y375620D02*
X980503D01*
X981084Y376200D01*
X969599Y369534D02*
X975685Y375620D01*
X969599Y216190D02*
X976866Y208924D01*
Y208924D02*
Y208924D01*
X969599Y216190D02*
Y369534D01*
X981219Y204570D02*
X981219D01*
X998536Y187254D01*
X976866Y208924D02*
X981219Y204570D01*
X998536Y187253D02*
Y187254D01*
X863150Y60050D02*
X1011829D01*
X859049Y55950D02*
X863150Y60050D01*
X859049Y51282D02*
Y55950D01*
X858336Y44187D02*
Y50569D01*
X859049Y51282D01*
X858049Y43900D02*
X858336Y44187D01*
X1006071Y186082D02*
X1022489Y169664D01*
X1006071Y186082D02*
Y186082D01*
X1022489Y64346D02*
Y169664D01*
X1013693Y55550D02*
X1022489Y64346D01*
X977549Y371120D02*
X980503D01*
X981084Y370539D01*
X974099Y367670D02*
X977549Y371120D01*
X974099Y218054D02*
Y367670D01*
X984401Y207752D02*
Y207752D01*
Y207752D02*
X1006071Y186082D01*
X974099Y218054D02*
X984401Y207752D01*
X865014Y55550D02*
X1013693D01*
X863549Y51282D02*
Y54085D01*
Y51282D02*
X864262Y50569D01*
X863549Y54085D02*
X865014Y55550D01*
X864262Y44187D02*
X864549Y43900D01*
X864262Y44187D02*
Y50569D01*
D49*
X-25Y0D02*
Y600050D01*
Y0D02*
X1273073D01*
X-25Y600050D02*
X1273073D01*
X1273073Y0D01*
D50*
X254000Y443230D02*
D03*
X228600D02*
D03*
X254000Y519430D02*
D03*
X228600D02*
D03*
D51*
X165862Y444246D02*
D03*
D52*
X191262D02*
D03*
D53*
X87122Y511048D02*
D03*
Y485648D02*
D03*
X112522Y511048D02*
D03*
Y485648D02*
D03*
X137922Y511048D02*
D03*
D54*
Y485648D02*
D03*
D55*
X30226Y569722D02*
D03*
X569722D02*
D03*
D56*
X387698Y192024D02*
D03*
Y166624D02*
D03*
Y141224D02*
D03*
Y115824D02*
D03*
Y90424D02*
D03*
Y65024D02*
D03*
X570898Y192024D02*
D03*
Y166624D02*
D03*
Y141224D02*
D03*
Y115824D02*
D03*
Y90424D02*
D03*
Y65024D02*
D03*
D57*
X75894Y33010D02*
D03*
D58*
X45894Y80010D02*
D03*
X105894D02*
D03*
D59*
X185700Y546300D02*
D03*
X858749Y571700D02*
D03*
D60*
X211100Y546300D02*
D03*
X236500D02*
D03*
X261900D02*
D03*
X287300D02*
D03*
X312700D02*
D03*
X338100D02*
D03*
X363500D02*
D03*
X388900D02*
D03*
X414300D02*
D03*
X185700Y571700D02*
D03*
X211100D02*
D03*
X236500D02*
D03*
X261900D02*
D03*
X287300D02*
D03*
X312700D02*
D03*
X338100D02*
D03*
X363500D02*
D03*
X388900D02*
D03*
X414300D02*
D03*
X1087349Y546300D02*
D03*
X1061949D02*
D03*
X1036549D02*
D03*
X1011149D02*
D03*
X985749D02*
D03*
X960349D02*
D03*
X934949D02*
D03*
X909549D02*
D03*
X884149D02*
D03*
X858749D02*
D03*
X1087349Y571700D02*
D03*
X1061949D02*
D03*
X1036549D02*
D03*
X1011149D02*
D03*
X985749D02*
D03*
X960349D02*
D03*
X934949D02*
D03*
X909549D02*
D03*
X884149D02*
D03*
D61*
X78740Y181356D02*
D03*
X118618Y167894D02*
D03*
X225296Y395492D02*
D03*
X272932Y329352D02*
D03*
X237501Y308500D02*
D03*
X171704Y314198D02*
D03*
X303530Y356866D02*
D03*
X240030Y415290D02*
D03*
X102362Y117094D02*
D03*
X140911Y368949D02*
D03*
X119126Y377444D02*
D03*
X159001Y427245D02*
D03*
X117094Y445385D02*
D03*
X79756Y354838D02*
D03*
X117094Y409448D02*
D03*
X138802Y149736D02*
D03*
X203734Y128624D02*
D03*
X214108Y260618D02*
D03*
X203734Y114300D02*
D03*
X157860Y129072D02*
D03*
X425704Y44958D02*
D03*
X510032Y171196D02*
D03*
X462788Y483870D02*
D03*
X520192Y398272D02*
D03*
X540004D02*
D03*
X425450Y21590D02*
D03*
X251460Y361442D02*
D03*
X305562Y378460D02*
D03*
X299466Y393192D02*
D03*
X584200Y331470D02*
D03*
X467106Y547624D02*
D03*
X109728Y38608D02*
D03*
X132334Y66548D02*
D03*
X232156Y218694D02*
D03*
X443317Y347070D02*
D03*
X249936Y242316D02*
D03*
X22606Y19050D02*
D03*
X73152Y7112D02*
D03*
X172212Y69342D02*
D03*
X400304Y244602D02*
D03*
X377444Y231902D02*
D03*
X378460Y253492D02*
D03*
X308610Y208026D02*
D03*
X296926Y184150D02*
D03*
X272796D02*
D03*
X288036Y208026D02*
D03*
X400812Y258572D02*
D03*
X559308Y279908D02*
D03*
X385572Y221996D02*
D03*
X326136Y211836D02*
D03*
X266446Y211074D02*
D03*
X275590Y241808D02*
D03*
X288077Y241767D02*
D03*
X300722Y241568D02*
D03*
X226836Y260618D02*
D03*
X204000Y216154D02*
D03*
X282702Y502158D02*
D03*
X437896Y541020D02*
D03*
X297688Y484632D02*
D03*
X497586Y461010D02*
D03*
X451000Y461500D02*
D03*
X443484Y487172D02*
D03*
X346949Y436895D02*
D03*
X332538Y308974D02*
D03*
X341538Y316992D02*
D03*
X354584Y486918D02*
D03*
X430643Y487059D02*
D03*
X455930Y517034D02*
D03*
X441198Y552196D02*
D03*
X400812Y274320D02*
D03*
X274828Y114300D02*
D03*
X245872Y179578D02*
D03*
X339090Y203454D02*
D03*
X313436Y241554D02*
D03*
X135246Y86682D02*
D03*
X197998Y150622D02*
D03*
X560070Y314706D02*
D03*
X450850Y372618D02*
D03*
X144272Y245618D02*
D03*
Y271780D02*
D03*
X143764Y297180D02*
D03*
X80010Y391160D02*
D03*
Y268224D02*
D03*
X113284Y323088D02*
D03*
X330454Y362458D02*
D03*
X339598Y351790D02*
D03*
X321056Y373126D02*
D03*
X120396Y217424D02*
D03*
X126492Y305054D02*
D03*
X326644Y117856D02*
D03*
X400304Y485140D02*
D03*
X390398Y482346D02*
D03*
X335788Y407162D02*
D03*
X398144Y475362D02*
D03*
X421386Y374904D02*
D03*
X171450Y364236D02*
D03*
X250190Y161500D02*
D03*
X446786Y80518D02*
D03*
X522224Y140462D02*
D03*
X230378Y7112D02*
D03*
X179070Y25654D02*
D03*
X166370Y6096D02*
D03*
X117856Y258318D02*
D03*
X1034890Y340612D02*
D03*
X1123399Y376700D02*
D03*
X775399Y383450D02*
D03*
X1016849Y207300D02*
D03*
X962219Y587570D02*
D03*
X942929Y587410D02*
D03*
X921519D02*
D03*
X847579Y587240D02*
D03*
X871739Y586760D02*
D03*
X896229Y586590D02*
D03*
X1160650Y466001D02*
D03*
X1038250Y480401D02*
D03*
X1178650Y415601D02*
D03*
X1175050Y408401D02*
D03*
X1167850Y451601D02*
D03*
Y437201D02*
D03*
Y422801D02*
D03*
X1164250Y415601D02*
D03*
Y401201D02*
D03*
X1146250Y466001D02*
D03*
X1149850Y401201D02*
D03*
X1074250Y480401D02*
D03*
X1052650D02*
D03*
X1016650D02*
D03*
X966250Y523601D02*
D03*
X951850D02*
D03*
X944650D02*
D03*
X930250D02*
D03*
X923050Y538001D02*
D03*
X851050Y523601D02*
D03*
X843850D02*
D03*
X1121050Y300401D02*
D03*
X1146250Y307601D02*
D03*
Y278801D02*
D03*
Y264401D02*
D03*
X1139050Y293201D02*
D03*
Y278801D02*
D03*
Y264401D02*
D03*
Y250001D02*
D03*
X1135450Y300401D02*
D03*
Y286001D02*
D03*
Y271601D02*
D03*
Y257201D02*
D03*
X1124650Y307601D02*
D03*
Y278801D02*
D03*
Y264401D02*
D03*
Y250001D02*
D03*
X1117450Y293201D02*
D03*
X1121050Y271601D02*
D03*
Y257201D02*
D03*
X1110250Y307601D02*
D03*
Y278801D02*
D03*
Y250001D02*
D03*
X1106650Y300401D02*
D03*
X677269Y493490D02*
D03*
X682499Y448750D02*
D03*
X694229Y500560D02*
D03*
X686719Y515080D02*
D03*
X680329Y510150D02*
D03*
X677299Y502060D02*
D03*
X683719Y19230D02*
D03*
X677289Y467330D02*
D03*
X677259Y485020D02*
D03*
X677279Y476370D02*
D03*
X692439Y481310D02*
D03*
Y491620D02*
D03*
X702999Y468920D02*
D03*
X692619Y470360D02*
D03*
X729539Y539250D02*
D03*
X728909Y514460D02*
D03*
X728769Y523210D02*
D03*
X728819Y531740D02*
D03*
X712919Y538860D02*
D03*
X713049Y531520D02*
D03*
X712789Y523270D02*
D03*
X707329Y516520D02*
D03*
X678349Y457900D02*
D03*
X724759Y505290D02*
D03*
X714839Y500860D02*
D03*
X704219Y500600D02*
D03*
X984299Y376870D02*
D03*
Y369870D02*
D03*
X1059208Y293379D02*
D03*
X1059699Y280450D02*
D03*
X1061829Y269300D02*
D03*
X1032649Y66500D02*
D03*
X825443Y128706D02*
D03*
X755599Y92100D02*
D03*
X827549Y141250D02*
D03*
X1040499Y117050D02*
D03*
X1051649Y175500D02*
D03*
X755249Y133200D02*
D03*
X1093899Y246550D02*
D03*
X724029Y19750D02*
D03*
X1235799Y496150D02*
D03*
X1213199Y473100D02*
D03*
X1203999Y496300D02*
D03*
X1247549Y473000D02*
D03*
X1187599Y496700D02*
D03*
X1251899Y496150D02*
D03*
X1220199Y496450D02*
D03*
X967049Y194450D02*
D03*
X682449Y260700D02*
D03*
X864449Y217800D02*
D03*
X985299Y398550D02*
D03*
X754149Y485000D02*
D03*
X794249Y184600D02*
D03*
X804349Y218050D02*
D03*
X999349Y247350D02*
D03*
X761949Y169900D02*
D03*
X682599Y432250D02*
D03*
X726999Y273100D02*
D03*
X696849Y348700D02*
D03*
X984299Y298650D02*
D03*
X984049Y348650D02*
D03*
X984899Y388550D02*
D03*
X956249Y174800D02*
D03*
X683199Y288750D02*
D03*
X1015410Y465061D02*
D03*
X844399Y218050D02*
D03*
X784249Y184650D02*
D03*
X682899Y278700D02*
D03*
X814749Y218050D02*
D03*
X695449Y236800D02*
D03*
X842099Y186350D02*
D03*
X834449Y218100D02*
D03*
X854399Y186280D02*
D03*
X764299Y219600D02*
D03*
X1234149Y281250D02*
D03*
X903649Y405400D02*
D03*
X745499Y398850D02*
D03*
X745249Y416950D02*
D03*
X1105449Y410650D02*
D03*
X782549Y276350D02*
D03*
X881499Y366450D02*
D03*
X785517Y568790D02*
D03*
X803167Y568890D02*
D03*
X785999Y537450D02*
D03*
X1081249Y487700D02*
D03*
X1025799Y475500D02*
D03*
X1116649Y487850D02*
D03*
X1025799Y487950D02*
D03*
X1135399Y487600D02*
D03*
X1098299Y475400D02*
D03*
X1081249Y475250D02*
D03*
X1062899Y487930D02*
D03*
X1116649Y475400D02*
D03*
X1135399Y475150D02*
D03*
X1098299Y487850D02*
D03*
X1044149Y488010D02*
D03*
X1062929Y475490D02*
D03*
X769049Y265300D02*
D03*
X857649Y336400D02*
D03*
X857749Y361550D02*
D03*
X801249Y359850D02*
D03*
X800949Y341600D02*
D03*
X776599Y142700D02*
D03*
X975649Y105200D02*
D03*
X975899Y90550D02*
D03*
X957549Y84950D02*
D03*
X939649Y90600D02*
D03*
X939999Y105450D02*
D03*
X887099Y105200D02*
D03*
X887499Y91350D02*
D03*
X981799Y458700D02*
D03*
X711399Y206600D02*
D03*
X1071299Y452500D02*
D03*
X956499Y161650D02*
D03*
X934749Y157200D02*
D03*
X815349Y183450D02*
D03*
X830099Y174600D02*
D03*
X887578Y156926D02*
D03*
X850849Y174300D02*
D03*
X934249Y174650D02*
D03*
X917249Y174600D02*
D03*
X900499Y174450D02*
D03*
X883449D02*
D03*
X866899Y174300D02*
D03*
X955399Y100650D02*
D03*
X845099Y57700D02*
D03*
X806149Y93400D02*
D03*
X729149Y84450D02*
D03*
X799699Y62150D02*
D03*
X722449Y173850D02*
D03*
X853399Y316600D02*
D03*
X1090598Y360150D02*
D03*
X1105549Y450450D02*
D03*
X1139649Y451175D02*
D03*
X1151849Y417150D02*
D03*
X1014249Y33700D02*
D03*
X871099Y33800D02*
D03*
X927749Y468500D02*
D03*
X722149Y110550D02*
D03*
X1108499Y263900D02*
D03*
X922999Y403600D02*
D03*
X799645Y15387D02*
D03*
X1032249Y447400D02*
D03*
X1032199Y409550D02*
D03*
X1032099Y428550D02*
D03*
X680849Y313000D02*
D03*
X679949Y348300D02*
D03*
X803649Y537550D02*
D03*
X820781Y537560D02*
D03*
X785999Y553250D02*
D03*
X803649Y553350D02*
D03*
X820781Y553360D02*
D03*
X820299Y568900D02*
D03*
X820163Y584420D02*
D03*
X803031Y584410D02*
D03*
X785381Y584310D02*
D03*
X923899Y442250D02*
D03*
X1024299Y528650D02*
D03*
X917899Y430700D02*
D03*
X681349Y81350D02*
D03*
D62*
X825049Y17150D02*
D03*
X891049D02*
D03*
D63*
X695899Y162850D02*
D03*
Y142850D02*
D03*
Y122850D02*
D03*
D64*
Y182850D02*
D03*
Y102850D02*
D03*
D65*
X695519Y529690D02*
D03*
X746319D02*
D03*
Y580490D02*
D03*
X695519D02*
D03*
D66*
X720919Y555090D02*
D03*
D87*
X239324Y402336D02*
D03*
Y389636D02*
D03*
Y376936D02*
D03*
Y364236D02*
D03*
Y351536D02*
D03*
Y338836D02*
D03*
Y326136D02*
D03*
X182824Y402336D02*
D03*
Y389636D02*
D03*
Y376936D02*
D03*
Y364236D02*
D03*
Y351536D02*
D03*
Y338836D02*
D03*
Y326136D02*
D03*
D88*
X246500Y259750D02*
D03*
Y199250D02*
D03*
X207000Y18750D02*
D03*
Y79250D02*
D03*
X827449Y406250D02*
D03*
Y345750D02*
D03*
X1128899Y348950D02*
D03*
Y409450D02*
D03*
X775399Y406150D02*
D03*
Y345650D02*
D03*
X861399Y90050D02*
D03*
Y150550D02*
D03*
X913399Y90350D02*
D03*
Y150850D02*
D03*
D89*
X169000Y171000D02*
D03*
Y217000D02*
D03*
D90*
X186000Y112450D02*
D03*
Y125150D02*
D03*
Y137850D02*
D03*
Y150550D02*
D03*
X240000D02*
D03*
Y137850D02*
D03*
Y125150D02*
D03*
Y112450D02*
D03*
D91*
X144500Y118000D02*
D03*
X157500D02*
D03*
X151000Y99000D02*
D03*
D92*
X119750Y117000D02*
D03*
X85250D02*
D03*
D93*
X956049Y130950D02*
D03*
Y146950D02*
D03*
D94*
X846049Y17150D02*
D03*
X870049D02*
D03*
D95*
X826049Y41650D02*
D03*
X890049D02*
D03*
D96*
X858049Y43900D02*
D03*
X864549D02*
D03*
X871049D02*
D03*
X845049D02*
D03*
X851549D02*
D03*
D97*
X815199Y147550D02*
D03*
Y160550D02*
D03*
X790942D02*
D03*
Y154050D02*
D03*
Y147550D02*
D03*
D98*
X805199Y282350D02*
D03*
X814699Y302350D02*
D03*
X795699D02*
D03*
D99*
X962199Y361200D02*
D03*
X955699D02*
D03*
X949199D02*
D03*
X942699D02*
D03*
X936199D02*
D03*
X929699D02*
D03*
X923199D02*
D03*
X916699D02*
D03*
X910199D02*
D03*
X903699D02*
D03*
X962199Y416700D02*
D03*
X955699D02*
D03*
X949199D02*
D03*
X942699D02*
D03*
X936199D02*
D03*
X929699D02*
D03*
X923199D02*
D03*
X916699D02*
D03*
X910199D02*
D03*
X903699D02*
D03*
M02*
