G04*
G04 #@! TF.GenerationSoftware,Altium Limited,Altium Designer,21.2.2 (38)*
G04*
G04 Layer_Color=8421504*
%FSLAX44Y44*%
%MOMM*%
G71*
G04*
G04 #@! TF.SameCoordinates,1FAA2A19-5D32-44EB-9D88-0ED73DB0A834*
G04*
G04*
G04 #@! TF.FilePolarity,Positive*
G04*
G01*
G75*
%ADD10R,0.6250X0.8300*%
%ADD11R,1.2000X0.9000*%
%ADD12R,5.5118X1.2954*%
%ADD13R,1.2954X5.5118*%
%ADD14R,1.4500X0.8000*%
%ADD15R,0.9000X1.2700*%
%ADD16R,0.9000X1.2000*%
%ADD17R,2.2300X1.8000*%
%ADD18R,1.0000X1.0000*%
%ADD19R,0.9000X2.0000*%
%ADD20R,2.0000X0.9000*%
%ADD21R,1.3300X1.3300*%
%ADD22R,1.2000X1.0500*%
%ADD23C,1.0000*%
%ADD24R,0.7500X0.4000*%
%ADD25R,1.0000X1.4000*%
%ADD26R,2.0000X0.5500*%
%ADD27R,0.6000X2.0600*%
%ADD31C,0.2000*%
%ADD32R,1.7000X1.3000*%
%ADD33R,0.4000X0.6000*%
%ADD34R,0.6000X0.4000*%
%ADD35R,1.0500X1.2000*%
%ADD36R,0.5500X0.6000*%
%ADD37R,0.9000X0.8000*%
%ADD38R,1.4000X2.0000*%
%ADD39R,3.2000X5.4000*%
%ADD40R,2.5500X2.4500*%
%ADD43R,2.1500X2.4500*%
%ADD44R,2.0000X0.6000*%
%ADD45R,1.1000X1.6000*%
%ADD46R,1.6000X1.1000*%
%ADD47R,0.6000X2.0000*%
%ADD49C,0.1930*%
G36*
X1266249Y507850D02*
X1160249D01*
Y592850D01*
X1266249D01*
Y507850D01*
D02*
G37*
G36*
X1251749Y427850D02*
X1242749D01*
Y460850D01*
X1251749D01*
Y427850D01*
D02*
G37*
G36*
X1234749D02*
X1225749D01*
Y460850D01*
X1234749D01*
Y427850D01*
D02*
G37*
G36*
X1217749D02*
X1208749D01*
Y460850D01*
X1217749D01*
Y427850D01*
D02*
G37*
G36*
X1200749D02*
X1191749D01*
Y460850D01*
X1200749D01*
Y427850D01*
D02*
G37*
G36*
X1183749D02*
X1174749D01*
Y460850D01*
X1183749D01*
Y427850D01*
D02*
G37*
D10*
X155651Y305054D02*
D03*
X133401D02*
D03*
X133375Y216802D02*
D03*
X155625D02*
D03*
X155625Y160930D02*
D03*
X133375D02*
D03*
X133375Y239500D02*
D03*
X155625D02*
D03*
D11*
X139954Y444164D02*
D03*
Y423164D02*
D03*
Y386162D02*
D03*
Y407162D02*
D03*
X123952Y59690D02*
D03*
Y38690D02*
D03*
X224000Y340500D02*
D03*
Y319500D02*
D03*
X148590Y118954D02*
D03*
Y139954D02*
D03*
X175514Y118954D02*
D03*
Y139954D02*
D03*
X265430Y386080D02*
D03*
Y365080D02*
D03*
X413766Y274402D02*
D03*
Y295402D02*
D03*
X231000Y181000D02*
D03*
Y160000D02*
D03*
X211500Y181000D02*
D03*
Y160000D02*
D03*
X262000Y319499D02*
D03*
Y340500D02*
D03*
X243000D02*
D03*
Y319499D02*
D03*
D12*
X520954Y280012D02*
D03*
Y315012D02*
D03*
Y350012D02*
D03*
Y385012D02*
D03*
X80010Y164084D02*
D03*
Y199084D02*
D03*
X80036Y251968D02*
D03*
Y286968D02*
D03*
X80010Y339904D02*
D03*
Y374904D02*
D03*
Y409904D02*
D03*
Y444904D02*
D03*
D13*
X331672Y80010D02*
D03*
X296672D02*
D03*
X261672D02*
D03*
X427026Y80600D02*
D03*
X462026D02*
D03*
X497026D02*
D03*
X532026D02*
D03*
D14*
X218662Y6938D02*
D03*
X151162D02*
D03*
D15*
X205912Y25788D02*
D03*
X163912D02*
D03*
D16*
X236814Y385318D02*
D03*
X215814D02*
D03*
X215474Y366014D02*
D03*
X236474D02*
D03*
X133940Y286512D02*
D03*
X154940D02*
D03*
X155000Y258000D02*
D03*
X134000D02*
D03*
X155000Y198302D02*
D03*
X134000D02*
D03*
Y179430D02*
D03*
X155000D02*
D03*
X108032Y136652D02*
D03*
X129032D02*
D03*
X226000Y65000D02*
D03*
X205000D02*
D03*
X226000Y45500D02*
D03*
X205000D02*
D03*
X349500Y258000D02*
D03*
X328500D02*
D03*
X232000Y199000D02*
D03*
X211000D02*
D03*
X1130599Y450400D02*
D03*
X1151599D02*
D03*
X1130799Y430200D02*
D03*
X1151799D02*
D03*
X1093599Y430050D02*
D03*
X1114599D02*
D03*
X1114549Y410650D02*
D03*
X1093549D02*
D03*
X1053299Y447350D02*
D03*
X1032299D02*
D03*
X1032399Y428200D02*
D03*
X1053399D02*
D03*
X1032199Y409050D02*
D03*
X1053199D02*
D03*
X1114399Y450450D02*
D03*
X1093399D02*
D03*
D17*
X453898Y270642D02*
D03*
Y299842D02*
D03*
D18*
X10892Y7366D02*
D03*
X38892D02*
D03*
X55342D02*
D03*
X83342D02*
D03*
X99792D02*
D03*
X127792D02*
D03*
X683939Y7370D02*
D03*
X711939D02*
D03*
D19*
X291000Y332150D02*
D03*
X303700D02*
D03*
X316400D02*
D03*
X329100D02*
D03*
X341800D02*
D03*
X354500D02*
D03*
X367200D02*
D03*
X379900D02*
D03*
X392600D02*
D03*
X405300D02*
D03*
X418000D02*
D03*
X430700D02*
D03*
X443400D02*
D03*
X456100D02*
D03*
Y502150D02*
D03*
X443400D02*
D03*
X430700D02*
D03*
X418000D02*
D03*
X405300D02*
D03*
X392600D02*
D03*
X379900D02*
D03*
X367200D02*
D03*
X354500D02*
D03*
X341800D02*
D03*
X329100D02*
D03*
X316400D02*
D03*
X303700D02*
D03*
X291000D02*
D03*
D20*
X466100Y360000D02*
D03*
Y372700D02*
D03*
Y385400D02*
D03*
Y398100D02*
D03*
Y410800D02*
D03*
Y423500D02*
D03*
Y436200D02*
D03*
Y448900D02*
D03*
Y461600D02*
D03*
Y474300D02*
D03*
D21*
X366000Y407150D02*
D03*
Y425500D02*
D03*
X347650D02*
D03*
Y407150D02*
D03*
Y388800D02*
D03*
X366000D02*
D03*
X384350D02*
D03*
Y407150D02*
D03*
Y425500D02*
D03*
D22*
X126246Y86682D02*
D03*
Y105682D02*
D03*
D23*
X113284Y323088D02*
D03*
X163068Y48514D02*
D03*
X680449Y418600D02*
D03*
X1047849Y393100D02*
D03*
X1027349Y393200D02*
D03*
X1062999Y380250D02*
D03*
X1018899Y341050D02*
D03*
X1016899Y240750D02*
D03*
X1090598Y360150D02*
D03*
X1108499Y263900D02*
D03*
X680849Y368800D02*
D03*
X680099Y348400D02*
D03*
X681299Y329250D02*
D03*
X679999Y248650D02*
D03*
X680999Y313050D02*
D03*
D24*
X210750Y138000D02*
D03*
X229250Y146000D02*
D03*
X210750D02*
D03*
X229250Y138000D02*
D03*
D25*
X211000Y114500D02*
D03*
X220500Y92500D02*
D03*
X201500D02*
D03*
D26*
X497586Y504184D02*
D03*
Y471684D02*
D03*
X1016899Y228300D02*
D03*
Y195800D02*
D03*
X699199Y77350D02*
D03*
Y44850D02*
D03*
D27*
X338950Y227900D02*
D03*
X326250D02*
D03*
X313550D02*
D03*
X300850D02*
D03*
X288150D02*
D03*
X275450D02*
D03*
X262750D02*
D03*
X250050D02*
D03*
Y135100D02*
D03*
X262750D02*
D03*
X275450D02*
D03*
X288150D02*
D03*
X300850D02*
D03*
X313550D02*
D03*
X326250D02*
D03*
X338950D02*
D03*
D31*
X0Y0D02*
X600000D01*
X0D02*
Y600000D01*
X600000Y0D02*
Y600000D01*
X0D02*
X600000D01*
X1273049Y484950D02*
Y600000D01*
X673049D02*
X1273049D01*
Y401700D02*
Y484950D01*
X1057499Y50D02*
Y236700D01*
X786299Y50D02*
X1057499D01*
Y236700D02*
X1273049D01*
X673049Y0D02*
X786049D01*
X673049Y461750D02*
X673049Y0D01*
X1273049Y236700D02*
Y401700D01*
X673049Y461750D02*
Y600000D01*
D32*
X1012279Y117300D02*
D03*
Y91900D02*
D03*
Y66500D02*
D03*
X755269Y117300D02*
D03*
Y91900D02*
D03*
Y66500D02*
D03*
D33*
X1030299Y332200D02*
D03*
X1037299D02*
D03*
X980849Y194500D02*
D03*
X987849D02*
D03*
D34*
X719899Y77400D02*
D03*
Y84400D02*
D03*
D35*
X1094749Y391350D02*
D03*
X1113749D02*
D03*
D36*
X1039199Y380300D02*
D03*
X1030699D02*
D03*
X1057799Y367250D02*
D03*
X1049299D02*
D03*
X1039149Y354100D02*
D03*
X1030649D02*
D03*
D37*
X1049599Y297350D02*
D03*
Y316350D02*
D03*
X1029599Y306850D02*
D03*
Y274850D02*
D03*
X1049599Y284350D02*
D03*
Y265350D02*
D03*
D38*
X1075799Y342352D02*
D03*
X1111799D02*
D03*
D39*
X1148449Y351800D02*
D03*
X1249449D02*
D03*
D40*
X1174149Y264750D02*
D03*
X1234649D02*
D03*
D43*
X1131749Y573250D02*
D03*
Y530250D02*
D03*
D44*
X999399Y368700D02*
D03*
Y378700D02*
D03*
X699399Y458700D02*
D03*
Y448700D02*
D03*
Y438700D02*
D03*
Y428700D02*
D03*
Y418700D02*
D03*
X999399Y258700D02*
D03*
X999399Y268700D02*
D03*
Y278700D02*
D03*
Y288700D02*
D03*
Y298700D02*
D03*
Y308700D02*
D03*
Y318700D02*
D03*
Y328700D02*
D03*
Y338700D02*
D03*
Y348700D02*
D03*
Y358700D02*
D03*
Y388700D02*
D03*
Y398700D02*
D03*
Y408700D02*
D03*
Y418700D02*
D03*
X999399Y428700D02*
D03*
X999399Y438700D02*
D03*
Y448700D02*
D03*
Y458700D02*
D03*
X699399Y408700D02*
D03*
Y398700D02*
D03*
Y388700D02*
D03*
Y378700D02*
D03*
Y368700D02*
D03*
Y358700D02*
D03*
Y348700D02*
D03*
Y338700D02*
D03*
Y328700D02*
D03*
Y318700D02*
D03*
Y308700D02*
D03*
Y298700D02*
D03*
Y288700D02*
D03*
Y278700D02*
D03*
Y268700D02*
D03*
Y258700D02*
D03*
Y248700D02*
D03*
D45*
X912399Y233700D02*
D03*
X894399Y233700D02*
D03*
X876399D02*
D03*
X858399D02*
D03*
X840399Y233700D02*
D03*
X822399D02*
D03*
X804399D02*
D03*
X786399Y473700D02*
D03*
X804399D02*
D03*
X822399D02*
D03*
X840399D02*
D03*
X858399D02*
D03*
X876399D02*
D03*
X894399D02*
D03*
X786399Y233700D02*
D03*
X912399Y473700D02*
D03*
D46*
X729399Y290700D02*
D03*
Y308700D02*
D03*
Y326700D02*
D03*
Y344700D02*
D03*
X729399Y362700D02*
D03*
Y380700D02*
D03*
X729399Y398700D02*
D03*
Y416700D02*
D03*
X969399Y308700D02*
D03*
Y326700D02*
D03*
Y344700D02*
D03*
Y362700D02*
D03*
Y380700D02*
D03*
Y398700D02*
D03*
Y416700D02*
D03*
Y290700D02*
D03*
D47*
X954399Y503700D02*
D03*
X944399D02*
D03*
X934399D02*
D03*
X924399D02*
D03*
X914399D02*
D03*
X904399D02*
D03*
X894399D02*
D03*
X884399D02*
D03*
X874399D02*
D03*
X864399D02*
D03*
X854399D02*
D03*
X844399D02*
D03*
X834399D02*
D03*
X824399D02*
D03*
X814399D02*
D03*
X804399D02*
D03*
X794399D02*
D03*
X784399D02*
D03*
X774399Y503700D02*
D03*
X764399Y503700D02*
D03*
X754399D02*
D03*
X744399D02*
D03*
X814399Y203700D02*
D03*
X824399D02*
D03*
X834399D02*
D03*
X844399D02*
D03*
X854399D02*
D03*
X864399D02*
D03*
X874399D02*
D03*
X884399D02*
D03*
X894399D02*
D03*
X904399D02*
D03*
X914399D02*
D03*
X924399D02*
D03*
X934399D02*
D03*
X944399D02*
D03*
X954399D02*
D03*
X744399D02*
D03*
X754399D02*
D03*
X764399D02*
D03*
X774399D02*
D03*
X784399D02*
D03*
X794399D02*
D03*
X804399D02*
D03*
D49*
X-25Y0D02*
Y600050D01*
Y0D02*
X1273073D01*
X-25Y600050D02*
X1273073D01*
X1273073Y0D01*
M02*
