G04*
G04 #@! TF.GenerationSoftware,Altium Limited,Altium Designer,21.2.2 (38)*
G04*
G04 Layer_Color=2752767*
%FSLAX44Y44*%
%MOMM*%
G71*
G04*
G04 #@! TF.SameCoordinates,1FAA2A19-5D32-44EB-9D88-0ED73DB0A834*
G04*
G04*
G04 #@! TF.FilePolarity,Positive*
G04*
G01*
G75*
%ADD31C,0.2000*%
%ADD49C,0.1930*%
%ADD188C,0.0508*%
%ADD189C,0.0677*%
%ADD190C,0.0339*%
D31*
X0Y0D02*
X600000D01*
X0D02*
Y600000D01*
X600000Y0D02*
Y600000D01*
X0D02*
X600000D01*
X1273049Y484950D02*
Y600000D01*
X673049D02*
X1273049D01*
Y401700D02*
Y484950D01*
X1057499Y50D02*
Y236700D01*
X786299Y50D02*
X1057499D01*
Y236700D02*
X1273049D01*
X673049Y0D02*
X786049D01*
X673049Y461750D02*
X673049Y0D01*
X1273049Y236700D02*
Y401700D01*
X673049Y461750D02*
Y600000D01*
D49*
X-25Y0D02*
Y600050D01*
Y0D02*
X1273073D01*
X-25Y600050D02*
X1273073D01*
X1273073Y0D01*
D188*
X251968Y441198D02*
Y445262D01*
X256032D01*
Y441198D01*
X251968D01*
X226568D02*
Y445262D01*
X230632D01*
Y441198D01*
X226568D01*
X251968Y517398D02*
Y521462D01*
X256032D01*
Y517398D01*
X251968D01*
X226568D02*
Y521462D01*
X230632D01*
Y517398D01*
X226568D01*
X30226Y567690D02*
X28194Y571754D01*
X32258D01*
X30226Y567690D01*
X569722D02*
X567690Y571754D01*
X571754D01*
X569722Y567690D01*
X377698Y189992D02*
X378714Y191008D01*
X379730D01*
X378714Y192024D01*
X379730Y193040D01*
X378714D01*
X377698Y194056D01*
X376682Y193040D01*
X375666D01*
X376682Y192024D01*
X375666Y191008D01*
X376682D01*
X377698Y189992D01*
Y164592D02*
X378714Y165608D01*
X379730D01*
X378714Y166624D01*
X379730Y167640D01*
X378714D01*
X377698Y168656D01*
X376682Y167640D01*
X375666D01*
X376682Y166624D01*
X375666Y165608D01*
X376682D01*
X377698Y164592D01*
Y139192D02*
X378714Y140208D01*
X379730D01*
X378714Y141224D01*
X379730Y142240D01*
X378714D01*
X377698Y143256D01*
X376682Y142240D01*
X375666D01*
X376682Y141224D01*
X375666Y140208D01*
X376682D01*
X377698Y139192D01*
Y113792D02*
X378714Y114808D01*
X379730D01*
X378714Y115824D01*
X379730Y116840D01*
X378714D01*
X377698Y117856D01*
X376682Y116840D01*
X375666D01*
X376682Y115824D01*
X375666Y114808D01*
X376682D01*
X377698Y113792D01*
Y88392D02*
X378714Y89408D01*
X379730D01*
X378714Y90424D01*
X379730Y91440D01*
X378714D01*
X377698Y92456D01*
X376682Y91440D01*
X375666D01*
X376682Y90424D01*
X375666Y89408D01*
X376682D01*
X377698Y88392D01*
Y62992D02*
X378714Y64008D01*
X379730D01*
X378714Y65024D01*
X379730Y66040D01*
X378714D01*
X377698Y67056D01*
X376682Y66040D01*
X375666D01*
X376682Y65024D01*
X375666Y64008D01*
X376682D01*
X377698Y62992D01*
X580898Y189992D02*
X581914Y191008D01*
X582930D01*
X581914Y192024D01*
X582930Y193040D01*
X581914D01*
X580898Y194056D01*
X579882Y193040D01*
X578866D01*
X579882Y192024D01*
X578866Y191008D01*
X579882D01*
X580898Y189992D01*
Y164592D02*
X581914Y165608D01*
X582930D01*
X581914Y166624D01*
X582930Y167640D01*
X581914D01*
X580898Y168656D01*
X579882Y167640D01*
X578866D01*
X579882Y166624D01*
X578866Y165608D01*
X579882D01*
X580898Y164592D01*
Y139192D02*
X581914Y140208D01*
X582930D01*
X581914Y141224D01*
X582930Y142240D01*
X581914D01*
X580898Y143256D01*
X579882Y142240D01*
X578866D01*
X579882Y141224D01*
X578866Y140208D01*
X579882D01*
X580898Y139192D01*
Y113792D02*
X581914Y114808D01*
X582930D01*
X581914Y115824D01*
X582930Y116840D01*
X581914D01*
X580898Y117856D01*
X579882Y116840D01*
X578866D01*
X579882Y115824D01*
X578866Y114808D01*
X579882D01*
X580898Y113792D01*
Y88392D02*
X581914Y89408D01*
X582930D01*
X581914Y90424D01*
X582930Y91440D01*
X581914D01*
X580898Y92456D01*
X579882Y91440D01*
X578866D01*
X579882Y90424D01*
X578866Y89408D01*
X579882D01*
X580898Y88392D01*
Y62992D02*
X581914Y64008D01*
X582930D01*
X581914Y65024D01*
X582930Y66040D01*
X581914D01*
X580898Y67056D01*
X579882Y66040D01*
X578866D01*
X579882Y65024D01*
X578866Y64008D01*
X579882D01*
X580898Y62992D01*
X73862Y30978D02*
X74878Y33010D01*
X73862Y35042D01*
X75894Y34026D01*
X77926Y35042D01*
X76910Y33010D01*
X77926Y30978D01*
X75894Y31994D01*
X73862Y30978D01*
X43862Y77978D02*
X44878Y80010D01*
X43862Y82042D01*
X45894Y81026D01*
X47926Y82042D01*
X46910Y80010D01*
X47926Y77978D01*
X45894Y78994D01*
X43862Y77978D01*
X103862D02*
X104878Y80010D01*
X103862Y82042D01*
X105894Y81026D01*
X107926Y82042D01*
X106910Y80010D01*
X107926Y77978D01*
X105894Y78994D01*
X103862Y77978D01*
X77724Y180340D02*
Y179324D01*
X79756D01*
Y180340D01*
X80772D01*
Y182372D01*
X79756D01*
Y183388D01*
X77724D01*
Y182372D01*
X76708D01*
Y180340D01*
X77724D01*
X117602Y166878D02*
Y165862D01*
X119634D01*
Y166878D01*
X120650D01*
Y168910D01*
X119634D01*
Y169926D01*
X117602D01*
Y168910D01*
X116586D01*
Y166878D01*
X117602D01*
X224280Y394476D02*
Y393460D01*
X226312D01*
Y394476D01*
X227328D01*
Y396508D01*
X226312D01*
Y397524D01*
X224280D01*
Y396508D01*
X223264D01*
Y394476D01*
X224280D01*
X271916Y328336D02*
Y327320D01*
X273948D01*
Y328336D01*
X274964D01*
Y330368D01*
X273948D01*
Y331384D01*
X271916D01*
Y330368D01*
X270900D01*
Y328336D01*
X271916D01*
X236485Y307484D02*
Y306467D01*
X238517D01*
Y307484D01*
X239533D01*
Y309515D01*
X238517D01*
Y310532D01*
X236485D01*
Y309515D01*
X235469D01*
Y307484D01*
X236485D01*
X170688Y313182D02*
Y312166D01*
X172720D01*
Y313182D01*
X173736D01*
Y315214D01*
X172720D01*
Y316230D01*
X170688D01*
Y315214D01*
X169672D01*
Y313182D01*
X170688D01*
X302514Y355850D02*
Y354834D01*
X304546D01*
Y355850D01*
X305562D01*
Y357882D01*
X304546D01*
Y358898D01*
X302514D01*
Y357882D01*
X301498D01*
Y355850D01*
X302514D01*
X239014Y414274D02*
Y413258D01*
X241046D01*
Y414274D01*
X242062D01*
Y416306D01*
X241046D01*
Y417322D01*
X239014D01*
Y416306D01*
X237998D01*
Y414274D01*
X239014D01*
X101346Y116078D02*
Y115062D01*
X103378D01*
Y116078D01*
X104394D01*
Y118110D01*
X103378D01*
Y119126D01*
X101346D01*
Y118110D01*
X100330D01*
Y116078D01*
X101346D01*
X139895Y367933D02*
Y366917D01*
X141927D01*
Y367933D01*
X142943D01*
Y369965D01*
X141927D01*
Y370981D01*
X139895D01*
Y369965D01*
X138879D01*
Y367933D01*
X139895D01*
X118110Y376428D02*
Y375412D01*
X120142D01*
Y376428D01*
X121158D01*
Y378460D01*
X120142D01*
Y379476D01*
X118110D01*
Y378460D01*
X117094D01*
Y376428D01*
X118110D01*
X157985Y426229D02*
Y425213D01*
X160017D01*
Y426229D01*
X161033D01*
Y428261D01*
X160017D01*
Y429277D01*
X157985D01*
Y428261D01*
X156969D01*
Y426229D01*
X157985D01*
X116078Y444369D02*
Y443353D01*
X118110D01*
Y444369D01*
X119126D01*
Y446401D01*
X118110D01*
Y447417D01*
X116078D01*
Y446401D01*
X115062D01*
Y444369D01*
X116078D01*
X78740Y353822D02*
Y352806D01*
X80772D01*
Y353822D01*
X81788D01*
Y355854D01*
X80772D01*
Y356870D01*
X78740D01*
Y355854D01*
X77724D01*
Y353822D01*
X78740D01*
X116078Y408432D02*
Y407416D01*
X118110D01*
Y408432D01*
X119126D01*
Y410464D01*
X118110D01*
Y411480D01*
X116078D01*
Y410464D01*
X115062D01*
Y408432D01*
X116078D01*
X137786Y148720D02*
Y147704D01*
X139818D01*
Y148720D01*
X140834D01*
Y150752D01*
X139818D01*
Y151768D01*
X137786D01*
Y150752D01*
X136770D01*
Y148720D01*
X137786D01*
X202718Y127608D02*
Y126592D01*
X204750D01*
Y127608D01*
X205766D01*
Y129640D01*
X204750D01*
Y130656D01*
X202718D01*
Y129640D01*
X201702D01*
Y127608D01*
X202718D01*
X213092Y259602D02*
Y258586D01*
X215124D01*
Y259602D01*
X216140D01*
Y261634D01*
X215124D01*
Y262650D01*
X213092D01*
Y261634D01*
X212076D01*
Y259602D01*
X213092D01*
X202718Y113284D02*
Y112268D01*
X204750D01*
Y113284D01*
X205766D01*
Y115316D01*
X204750D01*
Y116332D01*
X202718D01*
Y115316D01*
X201702D01*
Y113284D01*
X202718D01*
X156844Y128056D02*
Y127040D01*
X158876D01*
Y128056D01*
X159892D01*
Y130088D01*
X158876D01*
Y131104D01*
X156844D01*
Y130088D01*
X155828D01*
Y128056D01*
X156844D01*
X424688Y43942D02*
Y42926D01*
X426720D01*
Y43942D01*
X427736D01*
Y45974D01*
X426720D01*
Y46990D01*
X424688D01*
Y45974D01*
X423672D01*
Y43942D01*
X424688D01*
X509016Y170180D02*
Y169164D01*
X511048D01*
Y170180D01*
X512064D01*
Y172212D01*
X511048D01*
Y173228D01*
X509016D01*
Y172212D01*
X508000D01*
Y170180D01*
X509016D01*
X461772Y482854D02*
Y481838D01*
X463804D01*
Y482854D01*
X464820D01*
Y484886D01*
X463804D01*
Y485902D01*
X461772D01*
Y484886D01*
X460756D01*
Y482854D01*
X461772D01*
X519176Y397256D02*
Y396240D01*
X521208D01*
Y397256D01*
X522224D01*
Y399288D01*
X521208D01*
Y400304D01*
X519176D01*
Y399288D01*
X518160D01*
Y397256D01*
X519176D01*
X538988D02*
Y396240D01*
X541020D01*
Y397256D01*
X542036D01*
Y399288D01*
X541020D01*
Y400304D01*
X538988D01*
Y399288D01*
X537972D01*
Y397256D01*
X538988D01*
X424434Y20574D02*
Y19558D01*
X426466D01*
Y20574D01*
X427482D01*
Y22606D01*
X426466D01*
Y23622D01*
X424434D01*
Y22606D01*
X423418D01*
Y20574D01*
X424434D01*
X250444Y360426D02*
Y359410D01*
X252476D01*
Y360426D01*
X253492D01*
Y362458D01*
X252476D01*
Y363474D01*
X250444D01*
Y362458D01*
X249428D01*
Y360426D01*
X250444D01*
X304546Y377444D02*
Y376428D01*
X306578D01*
Y377444D01*
X307594D01*
Y379476D01*
X306578D01*
Y380492D01*
X304546D01*
Y379476D01*
X303530D01*
Y377444D01*
X304546D01*
X298450Y392176D02*
Y391160D01*
X300482D01*
Y392176D01*
X301498D01*
Y394208D01*
X300482D01*
Y395224D01*
X298450D01*
Y394208D01*
X297434D01*
Y392176D01*
X298450D01*
X583184Y330454D02*
Y329438D01*
X585216D01*
Y330454D01*
X586232D01*
Y332486D01*
X585216D01*
Y333502D01*
X583184D01*
Y332486D01*
X582168D01*
Y330454D01*
X583184D01*
X466090Y546608D02*
Y545592D01*
X468122D01*
Y546608D01*
X469138D01*
Y548640D01*
X468122D01*
Y549656D01*
X466090D01*
Y548640D01*
X465074D01*
Y546608D01*
X466090D01*
X108712Y37592D02*
Y36576D01*
X110744D01*
Y37592D01*
X111760D01*
Y39624D01*
X110744D01*
Y40640D01*
X108712D01*
Y39624D01*
X107696D01*
Y37592D01*
X108712D01*
X131318Y65532D02*
Y64516D01*
X133350D01*
Y65532D01*
X134366D01*
Y67564D01*
X133350D01*
Y68580D01*
X131318D01*
Y67564D01*
X130302D01*
Y65532D01*
X131318D01*
X231140Y217678D02*
Y216662D01*
X233172D01*
Y217678D01*
X234188D01*
Y219710D01*
X233172D01*
Y220726D01*
X231140D01*
Y219710D01*
X230124D01*
Y217678D01*
X231140D01*
X442301Y346054D02*
Y345038D01*
X444333D01*
Y346054D01*
X445349D01*
Y348086D01*
X444333D01*
Y349102D01*
X442301D01*
Y348086D01*
X441285D01*
Y346054D01*
X442301D01*
X248920Y241300D02*
Y240284D01*
X250952D01*
Y241300D01*
X251968D01*
Y243332D01*
X250952D01*
Y244348D01*
X248920D01*
Y243332D01*
X247904D01*
Y241300D01*
X248920D01*
X21590Y18034D02*
Y17018D01*
X23622D01*
Y18034D01*
X24638D01*
Y20066D01*
X23622D01*
Y21082D01*
X21590D01*
Y20066D01*
X20574D01*
Y18034D01*
X21590D01*
X72136Y6096D02*
Y5080D01*
X74168D01*
Y6096D01*
X75184D01*
Y8128D01*
X74168D01*
Y9144D01*
X72136D01*
Y8128D01*
X71120D01*
Y6096D01*
X72136D01*
X171196Y68326D02*
Y67310D01*
X173228D01*
Y68326D01*
X174244D01*
Y70358D01*
X173228D01*
Y71374D01*
X171196D01*
Y70358D01*
X170180D01*
Y68326D01*
X171196D01*
X399288Y243586D02*
Y242570D01*
X401320D01*
Y243586D01*
X402336D01*
Y245618D01*
X401320D01*
Y246634D01*
X399288D01*
Y245618D01*
X398272D01*
Y243586D01*
X399288D01*
X376428Y230886D02*
Y229870D01*
X378460D01*
Y230886D01*
X379476D01*
Y232918D01*
X378460D01*
Y233934D01*
X376428D01*
Y232918D01*
X375412D01*
Y230886D01*
X376428D01*
X377444Y252476D02*
Y251460D01*
X379476D01*
Y252476D01*
X380492D01*
Y254508D01*
X379476D01*
Y255524D01*
X377444D01*
Y254508D01*
X376428D01*
Y252476D01*
X377444D01*
X307594Y207010D02*
Y205994D01*
X309626D01*
Y207010D01*
X310642D01*
Y209042D01*
X309626D01*
Y210058D01*
X307594D01*
Y209042D01*
X306578D01*
Y207010D01*
X307594D01*
X295910Y183134D02*
Y182118D01*
X297942D01*
Y183134D01*
X298958D01*
Y185166D01*
X297942D01*
Y186182D01*
X295910D01*
Y185166D01*
X294894D01*
Y183134D01*
X295910D01*
X271780D02*
Y182118D01*
X273812D01*
Y183134D01*
X274828D01*
Y185166D01*
X273812D01*
Y186182D01*
X271780D01*
Y185166D01*
X270764D01*
Y183134D01*
X271780D01*
X287020Y207010D02*
Y205994D01*
X289052D01*
Y207010D01*
X290068D01*
Y209042D01*
X289052D01*
Y210058D01*
X287020D01*
Y209042D01*
X286004D01*
Y207010D01*
X287020D01*
X399796Y257556D02*
Y256540D01*
X401828D01*
Y257556D01*
X402844D01*
Y259588D01*
X401828D01*
Y260604D01*
X399796D01*
Y259588D01*
X398780D01*
Y257556D01*
X399796D01*
X558292Y278892D02*
Y277876D01*
X560324D01*
Y278892D01*
X561340D01*
Y280924D01*
X560324D01*
Y281940D01*
X558292D01*
Y280924D01*
X557276D01*
Y278892D01*
X558292D01*
X384556Y220980D02*
Y219964D01*
X386588D01*
Y220980D01*
X387604D01*
Y223012D01*
X386588D01*
Y224028D01*
X384556D01*
Y223012D01*
X383540D01*
Y220980D01*
X384556D01*
X325120Y210820D02*
Y209804D01*
X327152D01*
Y210820D01*
X328168D01*
Y212852D01*
X327152D01*
Y213868D01*
X325120D01*
Y212852D01*
X324104D01*
Y210820D01*
X325120D01*
X265430Y210058D02*
Y209042D01*
X267462D01*
Y210058D01*
X268478D01*
Y212090D01*
X267462D01*
Y213106D01*
X265430D01*
Y212090D01*
X264414D01*
Y210058D01*
X265430D01*
X274574Y240792D02*
Y239776D01*
X276606D01*
Y240792D01*
X277622D01*
Y242824D01*
X276606D01*
Y243840D01*
X274574D01*
Y242824D01*
X273558D01*
Y240792D01*
X274574D01*
X287061Y240751D02*
Y239735D01*
X289093D01*
Y240751D01*
X290109D01*
Y242783D01*
X289093D01*
Y243799D01*
X287061D01*
Y242783D01*
X286045D01*
Y240751D01*
X287061D01*
X299706Y240552D02*
Y239536D01*
X301738D01*
Y240552D01*
X302754D01*
Y242584D01*
X301738D01*
Y243600D01*
X299706D01*
Y242584D01*
X298690D01*
Y240552D01*
X299706D01*
X225820Y259602D02*
Y258586D01*
X227852D01*
Y259602D01*
X228868D01*
Y261634D01*
X227852D01*
Y262650D01*
X225820D01*
Y261634D01*
X224804D01*
Y259602D01*
X225820D01*
X202984Y215138D02*
Y214122D01*
X205016D01*
Y215138D01*
X206032D01*
Y217170D01*
X205016D01*
Y218186D01*
X202984D01*
Y217170D01*
X201968D01*
Y215138D01*
X202984D01*
X281686Y501142D02*
Y500126D01*
X283718D01*
Y501142D01*
X284734D01*
Y503174D01*
X283718D01*
Y504190D01*
X281686D01*
Y503174D01*
X280670D01*
Y501142D01*
X281686D01*
X436880Y540004D02*
Y538988D01*
X438912D01*
Y540004D01*
X439928D01*
Y542036D01*
X438912D01*
Y543052D01*
X436880D01*
Y542036D01*
X435864D01*
Y540004D01*
X436880D01*
X296672Y483616D02*
Y482600D01*
X298704D01*
Y483616D01*
X299720D01*
Y485648D01*
X298704D01*
Y486664D01*
X296672D01*
Y485648D01*
X295656D01*
Y483616D01*
X296672D01*
X496570Y459994D02*
Y458978D01*
X498602D01*
Y459994D01*
X499618D01*
Y462026D01*
X498602D01*
Y463042D01*
X496570D01*
Y462026D01*
X495554D01*
Y459994D01*
X496570D01*
X449984Y460484D02*
Y459468D01*
X452016D01*
Y460484D01*
X453032D01*
Y462516D01*
X452016D01*
Y463532D01*
X449984D01*
Y462516D01*
X448968D01*
Y460484D01*
X449984D01*
X442468Y486156D02*
Y485140D01*
X444500D01*
Y486156D01*
X445516D01*
Y488188D01*
X444500D01*
Y489204D01*
X442468D01*
Y488188D01*
X441452D01*
Y486156D01*
X442468D01*
X345933Y435879D02*
Y434863D01*
X347965D01*
Y435879D01*
X348981D01*
Y437911D01*
X347965D01*
Y438927D01*
X345933D01*
Y437911D01*
X344917D01*
Y435879D01*
X345933D01*
X331522Y307958D02*
Y306942D01*
X333554D01*
Y307958D01*
X334570D01*
Y309990D01*
X333554D01*
Y311006D01*
X331522D01*
Y309990D01*
X330506D01*
Y307958D01*
X331522D01*
X340522Y315976D02*
Y314960D01*
X342554D01*
Y315976D01*
X343570D01*
Y318008D01*
X342554D01*
Y319024D01*
X340522D01*
Y318008D01*
X339506D01*
Y315976D01*
X340522D01*
X353568Y485902D02*
Y484886D01*
X355600D01*
Y485902D01*
X356616D01*
Y487934D01*
X355600D01*
Y488950D01*
X353568D01*
Y487934D01*
X352552D01*
Y485902D01*
X353568D01*
X429627Y486043D02*
Y485027D01*
X431659D01*
Y486043D01*
X432675D01*
Y488075D01*
X431659D01*
Y489091D01*
X429627D01*
Y488075D01*
X428611D01*
Y486043D01*
X429627D01*
X454914Y516018D02*
Y515002D01*
X456946D01*
Y516018D01*
X457962D01*
Y518050D01*
X456946D01*
Y519066D01*
X454914D01*
Y518050D01*
X453898D01*
Y516018D01*
X454914D01*
X440182Y551180D02*
Y550164D01*
X442214D01*
Y551180D01*
X443230D01*
Y553212D01*
X442214D01*
Y554228D01*
X440182D01*
Y553212D01*
X439166D01*
Y551180D01*
X440182D01*
X399796Y273304D02*
Y272288D01*
X401828D01*
Y273304D01*
X402844D01*
Y275336D01*
X401828D01*
Y276352D01*
X399796D01*
Y275336D01*
X398780D01*
Y273304D01*
X399796D01*
X273812Y113284D02*
Y112268D01*
X275844D01*
Y113284D01*
X276860D01*
Y115316D01*
X275844D01*
Y116332D01*
X273812D01*
Y115316D01*
X272796D01*
Y113284D01*
X273812D01*
X244856Y178562D02*
Y177546D01*
X246888D01*
Y178562D01*
X247904D01*
Y180594D01*
X246888D01*
Y181610D01*
X244856D01*
Y180594D01*
X243840D01*
Y178562D01*
X244856D01*
X338074Y202438D02*
Y201422D01*
X340106D01*
Y202438D01*
X341122D01*
Y204470D01*
X340106D01*
Y205486D01*
X338074D01*
Y204470D01*
X337058D01*
Y202438D01*
X338074D01*
X312420Y240538D02*
Y239522D01*
X314452D01*
Y240538D01*
X315468D01*
Y242570D01*
X314452D01*
Y243586D01*
X312420D01*
Y242570D01*
X311404D01*
Y240538D01*
X312420D01*
X134230Y85666D02*
Y84650D01*
X136262D01*
Y85666D01*
X137278D01*
Y87698D01*
X136262D01*
Y88714D01*
X134230D01*
Y87698D01*
X133214D01*
Y85666D01*
X134230D01*
X196982Y149606D02*
Y148590D01*
X199014D01*
Y149606D01*
X200030D01*
Y151638D01*
X199014D01*
Y152654D01*
X196982D01*
Y151638D01*
X195966D01*
Y149606D01*
X196982D01*
X559054Y313690D02*
Y312674D01*
X561086D01*
Y313690D01*
X562102D01*
Y315722D01*
X561086D01*
Y316738D01*
X559054D01*
Y315722D01*
X558038D01*
Y313690D01*
X559054D01*
X449834Y371602D02*
Y370586D01*
X451866D01*
Y371602D01*
X452882D01*
Y373634D01*
X451866D01*
Y374650D01*
X449834D01*
Y373634D01*
X448818D01*
Y371602D01*
X449834D01*
X143256Y244602D02*
Y243586D01*
X145288D01*
Y244602D01*
X146304D01*
Y246634D01*
X145288D01*
Y247650D01*
X143256D01*
Y246634D01*
X142240D01*
Y244602D01*
X143256D01*
Y270764D02*
Y269748D01*
X145288D01*
Y270764D01*
X146304D01*
Y272796D01*
X145288D01*
Y273812D01*
X143256D01*
Y272796D01*
X142240D01*
Y270764D01*
X143256D01*
X142748Y296164D02*
Y295148D01*
X144780D01*
Y296164D01*
X145796D01*
Y298196D01*
X144780D01*
Y299212D01*
X142748D01*
Y298196D01*
X141732D01*
Y296164D01*
X142748D01*
X78994Y390144D02*
Y389128D01*
X81026D01*
Y390144D01*
X82042D01*
Y392176D01*
X81026D01*
Y393192D01*
X78994D01*
Y392176D01*
X77978D01*
Y390144D01*
X78994D01*
Y267208D02*
Y266192D01*
X81026D01*
Y267208D01*
X82042D01*
Y269240D01*
X81026D01*
Y270256D01*
X78994D01*
Y269240D01*
X77978D01*
Y267208D01*
X78994D01*
X112268Y322072D02*
Y321056D01*
X114300D01*
Y322072D01*
X115316D01*
Y324104D01*
X114300D01*
Y325120D01*
X112268D01*
Y324104D01*
X111252D01*
Y322072D01*
X112268D01*
X329438Y361442D02*
Y360426D01*
X331470D01*
Y361442D01*
X332486D01*
Y363474D01*
X331470D01*
Y364490D01*
X329438D01*
Y363474D01*
X328422D01*
Y361442D01*
X329438D01*
X338582Y350774D02*
Y349758D01*
X340614D01*
Y350774D01*
X341630D01*
Y352806D01*
X340614D01*
Y353822D01*
X338582D01*
Y352806D01*
X337566D01*
Y350774D01*
X338582D01*
X320040Y372110D02*
Y371094D01*
X322072D01*
Y372110D01*
X323088D01*
Y374142D01*
X322072D01*
Y375158D01*
X320040D01*
Y374142D01*
X319024D01*
Y372110D01*
X320040D01*
X119380Y216408D02*
Y215392D01*
X121412D01*
Y216408D01*
X122428D01*
Y218440D01*
X121412D01*
Y219456D01*
X119380D01*
Y218440D01*
X118364D01*
Y216408D01*
X119380D01*
X125476Y304038D02*
Y303022D01*
X127508D01*
Y304038D01*
X128524D01*
Y306070D01*
X127508D01*
Y307086D01*
X125476D01*
Y306070D01*
X124460D01*
Y304038D01*
X125476D01*
X325628Y116840D02*
Y115824D01*
X327660D01*
Y116840D01*
X328676D01*
Y118872D01*
X327660D01*
Y119888D01*
X325628D01*
Y118872D01*
X324612D01*
Y116840D01*
X325628D01*
X399288Y484124D02*
Y483108D01*
X401320D01*
Y484124D01*
X402336D01*
Y486156D01*
X401320D01*
Y487172D01*
X399288D01*
Y486156D01*
X398272D01*
Y484124D01*
X399288D01*
X389382Y481330D02*
Y480314D01*
X391414D01*
Y481330D01*
X392430D01*
Y483362D01*
X391414D01*
Y484378D01*
X389382D01*
Y483362D01*
X388366D01*
Y481330D01*
X389382D01*
X334772Y406146D02*
Y405130D01*
X336804D01*
Y406146D01*
X337820D01*
Y408178D01*
X336804D01*
Y409194D01*
X334772D01*
Y408178D01*
X333756D01*
Y406146D01*
X334772D01*
X397128Y474346D02*
Y473330D01*
X399160D01*
Y474346D01*
X400176D01*
Y476378D01*
X399160D01*
Y477394D01*
X397128D01*
Y476378D01*
X396112D01*
Y474346D01*
X397128D01*
X420370Y373888D02*
Y372872D01*
X422402D01*
Y373888D01*
X423418D01*
Y375920D01*
X422402D01*
Y376936D01*
X420370D01*
Y375920D01*
X419354D01*
Y373888D01*
X420370D01*
X170434Y363220D02*
Y362204D01*
X172466D01*
Y363220D01*
X173482D01*
Y365252D01*
X172466D01*
Y366268D01*
X170434D01*
Y365252D01*
X169418D01*
Y363220D01*
X170434D01*
X249174Y160484D02*
Y159468D01*
X251206D01*
Y160484D01*
X252222D01*
Y162516D01*
X251206D01*
Y163532D01*
X249174D01*
Y162516D01*
X248158D01*
Y160484D01*
X249174D01*
X445770Y79502D02*
Y78486D01*
X447802D01*
Y79502D01*
X448818D01*
Y81534D01*
X447802D01*
Y82550D01*
X445770D01*
Y81534D01*
X444754D01*
Y79502D01*
X445770D01*
X521208Y139446D02*
Y138430D01*
X523240D01*
Y139446D01*
X524256D01*
Y141478D01*
X523240D01*
Y142494D01*
X521208D01*
Y141478D01*
X520192D01*
Y139446D01*
X521208D01*
X229362Y6096D02*
Y5080D01*
X231394D01*
Y6096D01*
X232410D01*
Y8128D01*
X231394D01*
Y9144D01*
X229362D01*
Y8128D01*
X228346D01*
Y6096D01*
X229362D01*
X178054Y24638D02*
Y23622D01*
X180086D01*
Y24638D01*
X181102D01*
Y26670D01*
X180086D01*
Y27686D01*
X178054D01*
Y26670D01*
X177038D01*
Y24638D01*
X178054D01*
X165354Y5080D02*
Y4064D01*
X167386D01*
Y5080D01*
X168402D01*
Y7112D01*
X167386D01*
Y8128D01*
X165354D01*
Y7112D01*
X164338D01*
Y5080D01*
X165354D01*
X116840Y257302D02*
Y256286D01*
X118872D01*
Y257302D01*
X119888D01*
Y259334D01*
X118872D01*
Y260350D01*
X116840D01*
Y259334D01*
X115824D01*
Y257302D01*
X116840D01*
X823017Y15118D02*
X824033D01*
X825049Y16134D01*
X826065Y15118D01*
X827081D01*
Y16134D01*
X826065Y17150D01*
X827081Y18166D01*
Y19182D01*
X826065D01*
X825049Y18166D01*
X824033Y19182D01*
X823017D01*
Y18166D01*
X824033Y17150D01*
X823017Y16134D01*
Y15118D01*
X889017D02*
X890033D01*
X891049Y16134D01*
X892065Y15118D01*
X893081D01*
Y16134D01*
X892065Y17150D01*
X893081Y18166D01*
Y19182D01*
X892065D01*
X891049Y18166D01*
X890033Y19182D01*
X889017D01*
Y18166D01*
X890033Y17150D01*
X889017Y16134D01*
Y15118D01*
X693867Y162850D02*
X695899Y164882D01*
X697931Y162850D01*
X695899Y160818D01*
X693867Y162850D01*
Y142850D02*
X695899Y144882D01*
X697931Y142850D01*
X695899Y140818D01*
X693867Y142850D01*
Y122850D02*
X695899Y124882D01*
X697931Y122850D01*
X695899Y120818D01*
X693867Y122850D01*
Y180818D02*
Y184882D01*
X697931D01*
Y180818D01*
X693867D01*
X694883Y181834D02*
Y183866D01*
X696915D01*
Y181834D01*
X694883D01*
X693867Y100818D02*
Y104882D01*
X697931D01*
Y100818D01*
X693867D01*
X694883Y101834D02*
Y103866D01*
X696915D01*
Y101834D01*
X694883D01*
X720919Y553058D02*
X718887Y557122D01*
X722951D01*
X720919Y553058D01*
Y554074D02*
X719903Y556106D01*
X721935D01*
X720919Y554074D01*
X1033874Y339596D02*
Y338580D01*
X1035906D01*
Y339596D01*
X1036922D01*
Y341628D01*
X1035906D01*
Y342644D01*
X1033874D01*
Y341628D01*
X1032858D01*
Y339596D01*
X1033874D01*
X1122383Y375684D02*
Y374668D01*
X1124415D01*
Y375684D01*
X1125431D01*
Y377716D01*
X1124415D01*
Y378732D01*
X1122383D01*
Y377716D01*
X1121367D01*
Y375684D01*
X1122383D01*
X774383Y382434D02*
Y381418D01*
X776415D01*
Y382434D01*
X777431D01*
Y384466D01*
X776415D01*
Y385482D01*
X774383D01*
Y384466D01*
X773367D01*
Y382434D01*
X774383D01*
X1015833Y206284D02*
Y205268D01*
X1017865D01*
Y206284D01*
X1018881D01*
Y208316D01*
X1017865D01*
Y209332D01*
X1015833D01*
Y208316D01*
X1014817D01*
Y206284D01*
X1015833D01*
X961203Y586554D02*
Y585538D01*
X963235D01*
Y586554D01*
X964251D01*
Y588586D01*
X963235D01*
Y589602D01*
X961203D01*
Y588586D01*
X960187D01*
Y586554D01*
X961203D01*
X941913Y586394D02*
Y585378D01*
X943945D01*
Y586394D01*
X944961D01*
Y588426D01*
X943945D01*
Y589442D01*
X941913D01*
Y588426D01*
X940897D01*
Y586394D01*
X941913D01*
X920503D02*
Y585378D01*
X922535D01*
Y586394D01*
X923551D01*
Y588426D01*
X922535D01*
Y589442D01*
X920503D01*
Y588426D01*
X919487D01*
Y586394D01*
X920503D01*
X846563Y586224D02*
Y585208D01*
X848595D01*
Y586224D01*
X849611D01*
Y588256D01*
X848595D01*
Y589272D01*
X846563D01*
Y588256D01*
X845547D01*
Y586224D01*
X846563D01*
X870723Y585744D02*
Y584728D01*
X872755D01*
Y585744D01*
X873771D01*
Y587776D01*
X872755D01*
Y588792D01*
X870723D01*
Y587776D01*
X869707D01*
Y585744D01*
X870723D01*
X895213Y585574D02*
Y584558D01*
X897245D01*
Y585574D01*
X898261D01*
Y587606D01*
X897245D01*
Y588622D01*
X895213D01*
Y587606D01*
X894197D01*
Y585574D01*
X895213D01*
X1159634Y464985D02*
Y463969D01*
X1161666D01*
Y464985D01*
X1162682D01*
Y467017D01*
X1161666D01*
Y468033D01*
X1159634D01*
Y467017D01*
X1158618D01*
Y464985D01*
X1159634D01*
X1037234Y479385D02*
Y478369D01*
X1039266D01*
Y479385D01*
X1040282D01*
Y481417D01*
X1039266D01*
Y482433D01*
X1037234D01*
Y481417D01*
X1036218D01*
Y479385D01*
X1037234D01*
X1177634Y414585D02*
Y413569D01*
X1179666D01*
Y414585D01*
X1180682D01*
Y416617D01*
X1179666D01*
Y417633D01*
X1177634D01*
Y416617D01*
X1176618D01*
Y414585D01*
X1177634D01*
X1174034Y407385D02*
Y406369D01*
X1176066D01*
Y407385D01*
X1177082D01*
Y409417D01*
X1176066D01*
Y410433D01*
X1174034D01*
Y409417D01*
X1173018D01*
Y407385D01*
X1174034D01*
X1166834Y450585D02*
Y449569D01*
X1168866D01*
Y450585D01*
X1169882D01*
Y452617D01*
X1168866D01*
Y453633D01*
X1166834D01*
Y452617D01*
X1165818D01*
Y450585D01*
X1166834D01*
Y436185D02*
Y435169D01*
X1168866D01*
Y436185D01*
X1169882D01*
Y438217D01*
X1168866D01*
Y439233D01*
X1166834D01*
Y438217D01*
X1165818D01*
Y436185D01*
X1166834D01*
Y421785D02*
Y420769D01*
X1168866D01*
Y421785D01*
X1169882D01*
Y423817D01*
X1168866D01*
Y424833D01*
X1166834D01*
Y423817D01*
X1165818D01*
Y421785D01*
X1166834D01*
X1163234Y414585D02*
Y413569D01*
X1165266D01*
Y414585D01*
X1166282D01*
Y416617D01*
X1165266D01*
Y417633D01*
X1163234D01*
Y416617D01*
X1162218D01*
Y414585D01*
X1163234D01*
Y400185D02*
Y399169D01*
X1165266D01*
Y400185D01*
X1166282D01*
Y402217D01*
X1165266D01*
Y403233D01*
X1163234D01*
Y402217D01*
X1162218D01*
Y400185D01*
X1163234D01*
X1145234Y464985D02*
Y463969D01*
X1147266D01*
Y464985D01*
X1148282D01*
Y467017D01*
X1147266D01*
Y468033D01*
X1145234D01*
Y467017D01*
X1144218D01*
Y464985D01*
X1145234D01*
X1148834Y400185D02*
Y399169D01*
X1150866D01*
Y400185D01*
X1151882D01*
Y402217D01*
X1150866D01*
Y403233D01*
X1148834D01*
Y402217D01*
X1147818D01*
Y400185D01*
X1148834D01*
X1073234Y479385D02*
Y478369D01*
X1075266D01*
Y479385D01*
X1076282D01*
Y481417D01*
X1075266D01*
Y482433D01*
X1073234D01*
Y481417D01*
X1072218D01*
Y479385D01*
X1073234D01*
X1051634D02*
Y478369D01*
X1053666D01*
Y479385D01*
X1054682D01*
Y481417D01*
X1053666D01*
Y482433D01*
X1051634D01*
Y481417D01*
X1050618D01*
Y479385D01*
X1051634D01*
X1015634D02*
Y478369D01*
X1017666D01*
Y479385D01*
X1018682D01*
Y481417D01*
X1017666D01*
Y482433D01*
X1015634D01*
Y481417D01*
X1014618D01*
Y479385D01*
X1015634D01*
X965234Y522585D02*
Y521569D01*
X967266D01*
Y522585D01*
X968282D01*
Y524617D01*
X967266D01*
Y525633D01*
X965234D01*
Y524617D01*
X964218D01*
Y522585D01*
X965234D01*
X950834D02*
Y521569D01*
X952866D01*
Y522585D01*
X953882D01*
Y524617D01*
X952866D01*
Y525633D01*
X950834D01*
Y524617D01*
X949818D01*
Y522585D01*
X950834D01*
X943634D02*
Y521569D01*
X945666D01*
Y522585D01*
X946682D01*
Y524617D01*
X945666D01*
Y525633D01*
X943634D01*
Y524617D01*
X942618D01*
Y522585D01*
X943634D01*
X929234D02*
Y521569D01*
X931266D01*
Y522585D01*
X932282D01*
Y524617D01*
X931266D01*
Y525633D01*
X929234D01*
Y524617D01*
X928218D01*
Y522585D01*
X929234D01*
X922034Y536985D02*
Y535969D01*
X924066D01*
Y536985D01*
X925082D01*
Y539017D01*
X924066D01*
Y540033D01*
X922034D01*
Y539017D01*
X921018D01*
Y536985D01*
X922034D01*
X850034Y522585D02*
Y521569D01*
X852066D01*
Y522585D01*
X853082D01*
Y524617D01*
X852066D01*
Y525633D01*
X850034D01*
Y524617D01*
X849018D01*
Y522585D01*
X850034D01*
X842834D02*
Y521569D01*
X844866D01*
Y522585D01*
X845882D01*
Y524617D01*
X844866D01*
Y525633D01*
X842834D01*
Y524617D01*
X841818D01*
Y522585D01*
X842834D01*
X1120034Y299385D02*
Y298369D01*
X1122066D01*
Y299385D01*
X1123082D01*
Y301417D01*
X1122066D01*
Y302433D01*
X1120034D01*
Y301417D01*
X1119018D01*
Y299385D01*
X1120034D01*
X1145234Y306585D02*
Y305569D01*
X1147266D01*
Y306585D01*
X1148282D01*
Y308617D01*
X1147266D01*
Y309633D01*
X1145234D01*
Y308617D01*
X1144218D01*
Y306585D01*
X1145234D01*
Y277785D02*
Y276769D01*
X1147266D01*
Y277785D01*
X1148282D01*
Y279817D01*
X1147266D01*
Y280833D01*
X1145234D01*
Y279817D01*
X1144218D01*
Y277785D01*
X1145234D01*
Y263385D02*
Y262369D01*
X1147266D01*
Y263385D01*
X1148282D01*
Y265417D01*
X1147266D01*
Y266433D01*
X1145234D01*
Y265417D01*
X1144218D01*
Y263385D01*
X1145234D01*
X1138034Y292185D02*
Y291169D01*
X1140066D01*
Y292185D01*
X1141082D01*
Y294217D01*
X1140066D01*
Y295233D01*
X1138034D01*
Y294217D01*
X1137018D01*
Y292185D01*
X1138034D01*
Y277785D02*
Y276769D01*
X1140066D01*
Y277785D01*
X1141082D01*
Y279817D01*
X1140066D01*
Y280833D01*
X1138034D01*
Y279817D01*
X1137018D01*
Y277785D01*
X1138034D01*
Y263385D02*
Y262369D01*
X1140066D01*
Y263385D01*
X1141082D01*
Y265417D01*
X1140066D01*
Y266433D01*
X1138034D01*
Y265417D01*
X1137018D01*
Y263385D01*
X1138034D01*
Y248985D02*
Y247969D01*
X1140066D01*
Y248985D01*
X1141082D01*
Y251017D01*
X1140066D01*
Y252033D01*
X1138034D01*
Y251017D01*
X1137018D01*
Y248985D01*
X1138034D01*
X1134434Y299385D02*
Y298369D01*
X1136466D01*
Y299385D01*
X1137482D01*
Y301417D01*
X1136466D01*
Y302433D01*
X1134434D01*
Y301417D01*
X1133418D01*
Y299385D01*
X1134434D01*
Y284985D02*
Y283969D01*
X1136466D01*
Y284985D01*
X1137482D01*
Y287017D01*
X1136466D01*
Y288033D01*
X1134434D01*
Y287017D01*
X1133418D01*
Y284985D01*
X1134434D01*
Y270585D02*
Y269569D01*
X1136466D01*
Y270585D01*
X1137482D01*
Y272617D01*
X1136466D01*
Y273633D01*
X1134434D01*
Y272617D01*
X1133418D01*
Y270585D01*
X1134434D01*
Y256185D02*
Y255169D01*
X1136466D01*
Y256185D01*
X1137482D01*
Y258217D01*
X1136466D01*
Y259233D01*
X1134434D01*
Y258217D01*
X1133418D01*
Y256185D01*
X1134434D01*
X1123634Y306585D02*
Y305569D01*
X1125666D01*
Y306585D01*
X1126682D01*
Y308617D01*
X1125666D01*
Y309633D01*
X1123634D01*
Y308617D01*
X1122618D01*
Y306585D01*
X1123634D01*
Y277785D02*
Y276769D01*
X1125666D01*
Y277785D01*
X1126682D01*
Y279817D01*
X1125666D01*
Y280833D01*
X1123634D01*
Y279817D01*
X1122618D01*
Y277785D01*
X1123634D01*
Y263385D02*
Y262369D01*
X1125666D01*
Y263385D01*
X1126682D01*
Y265417D01*
X1125666D01*
Y266433D01*
X1123634D01*
Y265417D01*
X1122618D01*
Y263385D01*
X1123634D01*
Y248985D02*
Y247969D01*
X1125666D01*
Y248985D01*
X1126682D01*
Y251017D01*
X1125666D01*
Y252033D01*
X1123634D01*
Y251017D01*
X1122618D01*
Y248985D01*
X1123634D01*
X1116434Y292185D02*
Y291169D01*
X1118466D01*
Y292185D01*
X1119482D01*
Y294217D01*
X1118466D01*
Y295233D01*
X1116434D01*
Y294217D01*
X1115418D01*
Y292185D01*
X1116434D01*
X1120034Y270585D02*
Y269569D01*
X1122066D01*
Y270585D01*
X1123082D01*
Y272617D01*
X1122066D01*
Y273633D01*
X1120034D01*
Y272617D01*
X1119018D01*
Y270585D01*
X1120034D01*
Y256185D02*
Y255169D01*
X1122066D01*
Y256185D01*
X1123082D01*
Y258217D01*
X1122066D01*
Y259233D01*
X1120034D01*
Y258217D01*
X1119018D01*
Y256185D01*
X1120034D01*
X1109234Y306585D02*
Y305569D01*
X1111266D01*
Y306585D01*
X1112282D01*
Y308617D01*
X1111266D01*
Y309633D01*
X1109234D01*
Y308617D01*
X1108218D01*
Y306585D01*
X1109234D01*
Y277785D02*
Y276769D01*
X1111266D01*
Y277785D01*
X1112282D01*
Y279817D01*
X1111266D01*
Y280833D01*
X1109234D01*
Y279817D01*
X1108218D01*
Y277785D01*
X1109234D01*
Y248985D02*
Y247969D01*
X1111266D01*
Y248985D01*
X1112282D01*
Y251017D01*
X1111266D01*
Y252033D01*
X1109234D01*
Y251017D01*
X1108218D01*
Y248985D01*
X1109234D01*
X1105634Y299385D02*
Y298369D01*
X1107666D01*
Y299385D01*
X1108682D01*
Y301417D01*
X1107666D01*
Y302433D01*
X1105634D01*
Y301417D01*
X1104618D01*
Y299385D01*
X1105634D01*
X676253Y492474D02*
Y491458D01*
X678285D01*
Y492474D01*
X679301D01*
Y494506D01*
X678285D01*
Y495522D01*
X676253D01*
Y494506D01*
X675237D01*
Y492474D01*
X676253D01*
X681483Y447734D02*
Y446718D01*
X683515D01*
Y447734D01*
X684531D01*
Y449766D01*
X683515D01*
Y450782D01*
X681483D01*
Y449766D01*
X680467D01*
Y447734D01*
X681483D01*
X693213Y499544D02*
Y498528D01*
X695245D01*
Y499544D01*
X696261D01*
Y501576D01*
X695245D01*
Y502592D01*
X693213D01*
Y501576D01*
X692197D01*
Y499544D01*
X693213D01*
X685703Y514064D02*
Y513048D01*
X687735D01*
Y514064D01*
X688751D01*
Y516096D01*
X687735D01*
Y517112D01*
X685703D01*
Y516096D01*
X684687D01*
Y514064D01*
X685703D01*
X679313Y509134D02*
Y508118D01*
X681345D01*
Y509134D01*
X682361D01*
Y511166D01*
X681345D01*
Y512182D01*
X679313D01*
Y511166D01*
X678297D01*
Y509134D01*
X679313D01*
X676283Y501044D02*
Y500028D01*
X678315D01*
Y501044D01*
X679331D01*
Y503076D01*
X678315D01*
Y504092D01*
X676283D01*
Y503076D01*
X675267D01*
Y501044D01*
X676283D01*
X682703Y18214D02*
Y17198D01*
X684735D01*
Y18214D01*
X685751D01*
Y20246D01*
X684735D01*
Y21262D01*
X682703D01*
Y20246D01*
X681687D01*
Y18214D01*
X682703D01*
X676273Y466314D02*
Y465298D01*
X678305D01*
Y466314D01*
X679321D01*
Y468346D01*
X678305D01*
Y469362D01*
X676273D01*
Y468346D01*
X675257D01*
Y466314D01*
X676273D01*
X676243Y484004D02*
Y482988D01*
X678275D01*
Y484004D01*
X679291D01*
Y486036D01*
X678275D01*
Y487052D01*
X676243D01*
Y486036D01*
X675227D01*
Y484004D01*
X676243D01*
X676263Y475354D02*
Y474338D01*
X678295D01*
Y475354D01*
X679311D01*
Y477386D01*
X678295D01*
Y478402D01*
X676263D01*
Y477386D01*
X675247D01*
Y475354D01*
X676263D01*
X691423Y480294D02*
Y479278D01*
X693455D01*
Y480294D01*
X694471D01*
Y482326D01*
X693455D01*
Y483342D01*
X691423D01*
Y482326D01*
X690407D01*
Y480294D01*
X691423D01*
Y490604D02*
Y489588D01*
X693455D01*
Y490604D01*
X694471D01*
Y492636D01*
X693455D01*
Y493652D01*
X691423D01*
Y492636D01*
X690407D01*
Y490604D01*
X691423D01*
X701983Y467904D02*
Y466888D01*
X704015D01*
Y467904D01*
X705031D01*
Y469936D01*
X704015D01*
Y470952D01*
X701983D01*
Y469936D01*
X700967D01*
Y467904D01*
X701983D01*
X691603Y469344D02*
Y468328D01*
X693635D01*
Y469344D01*
X694651D01*
Y471376D01*
X693635D01*
Y472392D01*
X691603D01*
Y471376D01*
X690587D01*
Y469344D01*
X691603D01*
X728523Y538234D02*
Y537218D01*
X730555D01*
Y538234D01*
X731571D01*
Y540266D01*
X730555D01*
Y541282D01*
X728523D01*
Y540266D01*
X727507D01*
Y538234D01*
X728523D01*
X727893Y513444D02*
Y512428D01*
X729925D01*
Y513444D01*
X730941D01*
Y515476D01*
X729925D01*
Y516492D01*
X727893D01*
Y515476D01*
X726877D01*
Y513444D01*
X727893D01*
X727753Y522194D02*
Y521178D01*
X729785D01*
Y522194D01*
X730801D01*
Y524226D01*
X729785D01*
Y525242D01*
X727753D01*
Y524226D01*
X726737D01*
Y522194D01*
X727753D01*
X727803Y530724D02*
Y529708D01*
X729835D01*
Y530724D01*
X730851D01*
Y532756D01*
X729835D01*
Y533772D01*
X727803D01*
Y532756D01*
X726787D01*
Y530724D01*
X727803D01*
X711903Y537844D02*
Y536828D01*
X713935D01*
Y537844D01*
X714951D01*
Y539876D01*
X713935D01*
Y540892D01*
X711903D01*
Y539876D01*
X710887D01*
Y537844D01*
X711903D01*
X712033Y530504D02*
Y529488D01*
X714065D01*
Y530504D01*
X715081D01*
Y532536D01*
X714065D01*
Y533552D01*
X712033D01*
Y532536D01*
X711017D01*
Y530504D01*
X712033D01*
X711773Y522254D02*
Y521238D01*
X713805D01*
Y522254D01*
X714821D01*
Y524286D01*
X713805D01*
Y525302D01*
X711773D01*
Y524286D01*
X710757D01*
Y522254D01*
X711773D01*
X706313Y515504D02*
Y514488D01*
X708345D01*
Y515504D01*
X709361D01*
Y517536D01*
X708345D01*
Y518552D01*
X706313D01*
Y517536D01*
X705297D01*
Y515504D01*
X706313D01*
X677333Y456884D02*
Y455868D01*
X679365D01*
Y456884D01*
X680381D01*
Y458916D01*
X679365D01*
Y459932D01*
X677333D01*
Y458916D01*
X676317D01*
Y456884D01*
X677333D01*
X723743Y504274D02*
Y503258D01*
X725775D01*
Y504274D01*
X726791D01*
Y506306D01*
X725775D01*
Y507322D01*
X723743D01*
Y506306D01*
X722727D01*
Y504274D01*
X723743D01*
X713823Y499844D02*
Y498828D01*
X715855D01*
Y499844D01*
X716871D01*
Y501876D01*
X715855D01*
Y502892D01*
X713823D01*
Y501876D01*
X712807D01*
Y499844D01*
X713823D01*
X703203Y499584D02*
Y498568D01*
X705235D01*
Y499584D01*
X706251D01*
Y501616D01*
X705235D01*
Y502632D01*
X703203D01*
Y501616D01*
X702187D01*
Y499584D01*
X703203D01*
X983283Y375854D02*
Y374838D01*
X985315D01*
Y375854D01*
X986331D01*
Y377886D01*
X985315D01*
Y378902D01*
X983283D01*
Y377886D01*
X982267D01*
Y375854D01*
X983283D01*
Y368854D02*
Y367838D01*
X985315D01*
Y368854D01*
X986331D01*
Y370886D01*
X985315D01*
Y371902D01*
X983283D01*
Y370886D01*
X982267D01*
Y368854D01*
X983283D01*
X1058192Y292363D02*
Y291347D01*
X1060224D01*
Y292363D01*
X1061240D01*
Y294395D01*
X1060224D01*
Y295411D01*
X1058192D01*
Y294395D01*
X1057176D01*
Y292363D01*
X1058192D01*
X1058683Y279434D02*
Y278418D01*
X1060715D01*
Y279434D01*
X1061731D01*
Y281466D01*
X1060715D01*
Y282482D01*
X1058683D01*
Y281466D01*
X1057667D01*
Y279434D01*
X1058683D01*
X1060813Y268284D02*
Y267268D01*
X1062844D01*
Y268284D01*
X1063860D01*
Y270316D01*
X1062844D01*
Y271332D01*
X1060813D01*
Y270316D01*
X1059797D01*
Y268284D01*
X1060813D01*
X1031633Y65484D02*
Y64468D01*
X1033665D01*
Y65484D01*
X1034681D01*
Y67516D01*
X1033665D01*
Y68532D01*
X1031633D01*
Y67516D01*
X1030617D01*
Y65484D01*
X1031633D01*
X824427Y127690D02*
Y126674D01*
X826459D01*
Y127690D01*
X827475D01*
Y129722D01*
X826459D01*
Y130738D01*
X824427D01*
Y129722D01*
X823411D01*
Y127690D01*
X824427D01*
X754583Y91084D02*
Y90068D01*
X756615D01*
Y91084D01*
X757631D01*
Y93116D01*
X756615D01*
Y94132D01*
X754583D01*
Y93116D01*
X753567D01*
Y91084D01*
X754583D01*
X826533Y140234D02*
Y139218D01*
X828565D01*
Y140234D01*
X829581D01*
Y142266D01*
X828565D01*
Y143282D01*
X826533D01*
Y142266D01*
X825517D01*
Y140234D01*
X826533D01*
X1039483Y116034D02*
Y115018D01*
X1041515D01*
Y116034D01*
X1042531D01*
Y118066D01*
X1041515D01*
Y119082D01*
X1039483D01*
Y118066D01*
X1038467D01*
Y116034D01*
X1039483D01*
X1050633Y174484D02*
Y173468D01*
X1052665D01*
Y174484D01*
X1053681D01*
Y176516D01*
X1052665D01*
Y177532D01*
X1050633D01*
Y176516D01*
X1049617D01*
Y174484D01*
X1050633D01*
X754233Y132184D02*
Y131168D01*
X756265D01*
Y132184D01*
X757281D01*
Y134216D01*
X756265D01*
Y135232D01*
X754233D01*
Y134216D01*
X753217D01*
Y132184D01*
X754233D01*
X1092883Y245534D02*
Y244518D01*
X1094915D01*
Y245534D01*
X1095931D01*
Y247566D01*
X1094915D01*
Y248582D01*
X1092883D01*
Y247566D01*
X1091867D01*
Y245534D01*
X1092883D01*
X723013Y18734D02*
Y17718D01*
X725045D01*
Y18734D01*
X726061D01*
Y20766D01*
X725045D01*
Y21782D01*
X723013D01*
Y20766D01*
X721997D01*
Y18734D01*
X723013D01*
X1234783Y495134D02*
Y494118D01*
X1236815D01*
Y495134D01*
X1237831D01*
Y497166D01*
X1236815D01*
Y498182D01*
X1234783D01*
Y497166D01*
X1233767D01*
Y495134D01*
X1234783D01*
X1212183Y472084D02*
Y471068D01*
X1214215D01*
Y472084D01*
X1215231D01*
Y474116D01*
X1214215D01*
Y475132D01*
X1212183D01*
Y474116D01*
X1211167D01*
Y472084D01*
X1212183D01*
X1202983Y495284D02*
Y494268D01*
X1205015D01*
Y495284D01*
X1206031D01*
Y497316D01*
X1205015D01*
Y498332D01*
X1202983D01*
Y497316D01*
X1201967D01*
Y495284D01*
X1202983D01*
X1246533Y471984D02*
Y470968D01*
X1248565D01*
Y471984D01*
X1249581D01*
Y474016D01*
X1248565D01*
Y475032D01*
X1246533D01*
Y474016D01*
X1245517D01*
Y471984D01*
X1246533D01*
X1186583Y495684D02*
Y494668D01*
X1188615D01*
Y495684D01*
X1189631D01*
Y497716D01*
X1188615D01*
Y498732D01*
X1186583D01*
Y497716D01*
X1185567D01*
Y495684D01*
X1186583D01*
X1250883Y495134D02*
Y494118D01*
X1252915D01*
Y495134D01*
X1253931D01*
Y497166D01*
X1252915D01*
Y498182D01*
X1250883D01*
Y497166D01*
X1249867D01*
Y495134D01*
X1250883D01*
X1219183Y495434D02*
Y494418D01*
X1221215D01*
Y495434D01*
X1222231D01*
Y497466D01*
X1221215D01*
Y498482D01*
X1219183D01*
Y497466D01*
X1218167D01*
Y495434D01*
X1219183D01*
X966033Y193434D02*
Y192418D01*
X968065D01*
Y193434D01*
X969081D01*
Y195466D01*
X968065D01*
Y196482D01*
X966033D01*
Y195466D01*
X965017D01*
Y193434D01*
X966033D01*
X681433Y259684D02*
Y258668D01*
X683465D01*
Y259684D01*
X684481D01*
Y261716D01*
X683465D01*
Y262732D01*
X681433D01*
Y261716D01*
X680417D01*
Y259684D01*
X681433D01*
X863433Y216784D02*
Y215768D01*
X865465D01*
Y216784D01*
X866481D01*
Y218816D01*
X865465D01*
Y219832D01*
X863433D01*
Y218816D01*
X862417D01*
Y216784D01*
X863433D01*
X984283Y397534D02*
Y396518D01*
X986315D01*
Y397534D01*
X987331D01*
Y399566D01*
X986315D01*
Y400582D01*
X984283D01*
Y399566D01*
X983267D01*
Y397534D01*
X984283D01*
X753133Y483984D02*
Y482968D01*
X755165D01*
Y483984D01*
X756181D01*
Y486016D01*
X755165D01*
Y487032D01*
X753133D01*
Y486016D01*
X752117D01*
Y483984D01*
X753133D01*
X793233Y183584D02*
Y182568D01*
X795265D01*
Y183584D01*
X796281D01*
Y185616D01*
X795265D01*
Y186632D01*
X793233D01*
Y185616D01*
X792217D01*
Y183584D01*
X793233D01*
X803333Y217034D02*
Y216018D01*
X805365D01*
Y217034D01*
X806381D01*
Y219066D01*
X805365D01*
Y220082D01*
X803333D01*
Y219066D01*
X802317D01*
Y217034D01*
X803333D01*
X998333Y246334D02*
Y245318D01*
X1000365D01*
Y246334D01*
X1001381D01*
Y248366D01*
X1000365D01*
Y249382D01*
X998333D01*
Y248366D01*
X997317D01*
Y246334D01*
X998333D01*
X760933Y168884D02*
Y167868D01*
X762965D01*
Y168884D01*
X763981D01*
Y170916D01*
X762965D01*
Y171932D01*
X760933D01*
Y170916D01*
X759917D01*
Y168884D01*
X760933D01*
X681583Y431234D02*
Y430218D01*
X683615D01*
Y431234D01*
X684631D01*
Y433266D01*
X683615D01*
Y434282D01*
X681583D01*
Y433266D01*
X680567D01*
Y431234D01*
X681583D01*
X725983Y272084D02*
Y271068D01*
X728015D01*
Y272084D01*
X729031D01*
Y274116D01*
X728015D01*
Y275132D01*
X725983D01*
Y274116D01*
X724967D01*
Y272084D01*
X725983D01*
X695833Y347684D02*
Y346668D01*
X697865D01*
Y347684D01*
X698881D01*
Y349716D01*
X697865D01*
Y350732D01*
X695833D01*
Y349716D01*
X694817D01*
Y347684D01*
X695833D01*
X983283Y297634D02*
Y296618D01*
X985315D01*
Y297634D01*
X986331D01*
Y299666D01*
X985315D01*
Y300682D01*
X983283D01*
Y299666D01*
X982267D01*
Y297634D01*
X983283D01*
X983033Y347634D02*
Y346618D01*
X985065D01*
Y347634D01*
X986081D01*
Y349666D01*
X985065D01*
Y350682D01*
X983033D01*
Y349666D01*
X982017D01*
Y347634D01*
X983033D01*
X983883Y387534D02*
Y386518D01*
X985915D01*
Y387534D01*
X986931D01*
Y389566D01*
X985915D01*
Y390582D01*
X983883D01*
Y389566D01*
X982867D01*
Y387534D01*
X983883D01*
X955233Y173784D02*
Y172768D01*
X957265D01*
Y173784D01*
X958281D01*
Y175816D01*
X957265D01*
Y176832D01*
X955233D01*
Y175816D01*
X954217D01*
Y173784D01*
X955233D01*
X682183Y287734D02*
Y286718D01*
X684215D01*
Y287734D01*
X685231D01*
Y289766D01*
X684215D01*
Y290782D01*
X682183D01*
Y289766D01*
X681167D01*
Y287734D01*
X682183D01*
X1014394Y464045D02*
Y463029D01*
X1016426D01*
Y464045D01*
X1017442D01*
Y466077D01*
X1016426D01*
Y467093D01*
X1014394D01*
Y466077D01*
X1013378D01*
Y464045D01*
X1014394D01*
X843383Y217034D02*
Y216018D01*
X845415D01*
Y217034D01*
X846431D01*
Y219066D01*
X845415D01*
Y220082D01*
X843383D01*
Y219066D01*
X842367D01*
Y217034D01*
X843383D01*
X783233Y183634D02*
Y182618D01*
X785265D01*
Y183634D01*
X786281D01*
Y185666D01*
X785265D01*
Y186682D01*
X783233D01*
Y185666D01*
X782217D01*
Y183634D01*
X783233D01*
X681883Y277684D02*
Y276668D01*
X683915D01*
Y277684D01*
X684931D01*
Y279716D01*
X683915D01*
Y280732D01*
X681883D01*
Y279716D01*
X680867D01*
Y277684D01*
X681883D01*
X813733Y217034D02*
Y216018D01*
X815765D01*
Y217034D01*
X816781D01*
Y219066D01*
X815765D01*
Y220082D01*
X813733D01*
Y219066D01*
X812717D01*
Y217034D01*
X813733D01*
X694433Y235784D02*
Y234768D01*
X696465D01*
Y235784D01*
X697481D01*
Y237816D01*
X696465D01*
Y238832D01*
X694433D01*
Y237816D01*
X693417D01*
Y235784D01*
X694433D01*
X841083Y185334D02*
Y184318D01*
X843115D01*
Y185334D01*
X844131D01*
Y187366D01*
X843115D01*
Y188382D01*
X841083D01*
Y187366D01*
X840067D01*
Y185334D01*
X841083D01*
X833433Y217084D02*
Y216068D01*
X835465D01*
Y217084D01*
X836481D01*
Y219116D01*
X835465D01*
Y220132D01*
X833433D01*
Y219116D01*
X832417D01*
Y217084D01*
X833433D01*
X853383Y185264D02*
Y184248D01*
X855415D01*
Y185264D01*
X856431D01*
Y187296D01*
X855415D01*
Y188312D01*
X853383D01*
Y187296D01*
X852367D01*
Y185264D01*
X853383D01*
X763283Y218584D02*
Y217568D01*
X765315D01*
Y218584D01*
X766331D01*
Y220616D01*
X765315D01*
Y221632D01*
X763283D01*
Y220616D01*
X762267D01*
Y218584D01*
X763283D01*
X1233133Y280234D02*
Y279218D01*
X1235165D01*
Y280234D01*
X1236181D01*
Y282266D01*
X1235165D01*
Y283282D01*
X1233133D01*
Y282266D01*
X1232117D01*
Y280234D01*
X1233133D01*
X902633Y404384D02*
Y403368D01*
X904665D01*
Y404384D01*
X905681D01*
Y406416D01*
X904665D01*
Y407432D01*
X902633D01*
Y406416D01*
X901617D01*
Y404384D01*
X902633D01*
X744483Y397834D02*
Y396818D01*
X746515D01*
Y397834D01*
X747531D01*
Y399866D01*
X746515D01*
Y400882D01*
X744483D01*
Y399866D01*
X743467D01*
Y397834D01*
X744483D01*
X744233Y415934D02*
Y414918D01*
X746265D01*
Y415934D01*
X747281D01*
Y417966D01*
X746265D01*
Y418982D01*
X744233D01*
Y417966D01*
X743217D01*
Y415934D01*
X744233D01*
X1104433Y409634D02*
Y408618D01*
X1106465D01*
Y409634D01*
X1107481D01*
Y411666D01*
X1106465D01*
Y412682D01*
X1104433D01*
Y411666D01*
X1103417D01*
Y409634D01*
X1104433D01*
X781533Y275334D02*
Y274318D01*
X783565D01*
Y275334D01*
X784581D01*
Y277366D01*
X783565D01*
Y278382D01*
X781533D01*
Y277366D01*
X780517D01*
Y275334D01*
X781533D01*
X880483Y365434D02*
Y364418D01*
X882515D01*
Y365434D01*
X883531D01*
Y367466D01*
X882515D01*
Y368482D01*
X880483D01*
Y367466D01*
X879467D01*
Y365434D01*
X880483D01*
X784501Y567774D02*
Y566758D01*
X786533D01*
Y567774D01*
X787549D01*
Y569806D01*
X786533D01*
Y570822D01*
X784501D01*
Y569806D01*
X783485D01*
Y567774D01*
X784501D01*
X802151Y567874D02*
Y566858D01*
X804183D01*
Y567874D01*
X805199D01*
Y569906D01*
X804183D01*
Y570922D01*
X802151D01*
Y569906D01*
X801135D01*
Y567874D01*
X802151D01*
X784983Y536434D02*
Y535418D01*
X787015D01*
Y536434D01*
X788031D01*
Y538466D01*
X787015D01*
Y539482D01*
X784983D01*
Y538466D01*
X783967D01*
Y536434D01*
X784983D01*
X1080233Y486684D02*
Y485668D01*
X1082265D01*
Y486684D01*
X1083281D01*
Y488716D01*
X1082265D01*
Y489732D01*
X1080233D01*
Y488716D01*
X1079217D01*
Y486684D01*
X1080233D01*
X1024783Y474484D02*
Y473468D01*
X1026815D01*
Y474484D01*
X1027831D01*
Y476516D01*
X1026815D01*
Y477532D01*
X1024783D01*
Y476516D01*
X1023767D01*
Y474484D01*
X1024783D01*
X1115633Y486834D02*
Y485818D01*
X1117665D01*
Y486834D01*
X1118681D01*
Y488866D01*
X1117665D01*
Y489882D01*
X1115633D01*
Y488866D01*
X1114617D01*
Y486834D01*
X1115633D01*
X1024783Y486934D02*
Y485918D01*
X1026815D01*
Y486934D01*
X1027831D01*
Y488966D01*
X1026815D01*
Y489982D01*
X1024783D01*
Y488966D01*
X1023767D01*
Y486934D01*
X1024783D01*
X1134383Y486584D02*
Y485568D01*
X1136415D01*
Y486584D01*
X1137431D01*
Y488616D01*
X1136415D01*
Y489632D01*
X1134383D01*
Y488616D01*
X1133367D01*
Y486584D01*
X1134383D01*
X1097283Y474384D02*
Y473368D01*
X1099315D01*
Y474384D01*
X1100331D01*
Y476416D01*
X1099315D01*
Y477432D01*
X1097283D01*
Y476416D01*
X1096267D01*
Y474384D01*
X1097283D01*
X1080233Y474234D02*
Y473218D01*
X1082265D01*
Y474234D01*
X1083281D01*
Y476266D01*
X1082265D01*
Y477282D01*
X1080233D01*
Y476266D01*
X1079217D01*
Y474234D01*
X1080233D01*
X1061883Y486914D02*
Y485898D01*
X1063915D01*
Y486914D01*
X1064931D01*
Y488946D01*
X1063915D01*
Y489962D01*
X1061883D01*
Y488946D01*
X1060867D01*
Y486914D01*
X1061883D01*
X1115633Y474384D02*
Y473368D01*
X1117665D01*
Y474384D01*
X1118681D01*
Y476416D01*
X1117665D01*
Y477432D01*
X1115633D01*
Y476416D01*
X1114617D01*
Y474384D01*
X1115633D01*
X1134383Y474134D02*
Y473118D01*
X1136415D01*
Y474134D01*
X1137431D01*
Y476166D01*
X1136415D01*
Y477182D01*
X1134383D01*
Y476166D01*
X1133367D01*
Y474134D01*
X1134383D01*
X1097283Y486834D02*
Y485818D01*
X1099315D01*
Y486834D01*
X1100331D01*
Y488866D01*
X1099315D01*
Y489882D01*
X1097283D01*
Y488866D01*
X1096267D01*
Y486834D01*
X1097283D01*
X1043133Y486994D02*
Y485978D01*
X1045165D01*
Y486994D01*
X1046181D01*
Y489026D01*
X1045165D01*
Y490042D01*
X1043133D01*
Y489026D01*
X1042117D01*
Y486994D01*
X1043133D01*
X1061913Y474474D02*
Y473458D01*
X1063945D01*
Y474474D01*
X1064961D01*
Y476506D01*
X1063945D01*
Y477522D01*
X1061913D01*
Y476506D01*
X1060897D01*
Y474474D01*
X1061913D01*
X768033Y264284D02*
Y263268D01*
X770065D01*
Y264284D01*
X771081D01*
Y266316D01*
X770065D01*
Y267332D01*
X768033D01*
Y266316D01*
X767017D01*
Y264284D01*
X768033D01*
X856633Y335384D02*
Y334368D01*
X858665D01*
Y335384D01*
X859681D01*
Y337416D01*
X858665D01*
Y338432D01*
X856633D01*
Y337416D01*
X855617D01*
Y335384D01*
X856633D01*
X856733Y360534D02*
Y359518D01*
X858765D01*
Y360534D01*
X859781D01*
Y362566D01*
X858765D01*
Y363582D01*
X856733D01*
Y362566D01*
X855717D01*
Y360534D01*
X856733D01*
X800233Y358834D02*
Y357818D01*
X802265D01*
Y358834D01*
X803281D01*
Y360866D01*
X802265D01*
Y361882D01*
X800233D01*
Y360866D01*
X799217D01*
Y358834D01*
X800233D01*
X799933Y340584D02*
Y339568D01*
X801965D01*
Y340584D01*
X802981D01*
Y342616D01*
X801965D01*
Y343632D01*
X799933D01*
Y342616D01*
X798917D01*
Y340584D01*
X799933D01*
X775583Y141684D02*
Y140668D01*
X777615D01*
Y141684D01*
X778631D01*
Y143716D01*
X777615D01*
Y144732D01*
X775583D01*
Y143716D01*
X774567D01*
Y141684D01*
X775583D01*
X974633Y104184D02*
Y103168D01*
X976665D01*
Y104184D01*
X977681D01*
Y106216D01*
X976665D01*
Y107232D01*
X974633D01*
Y106216D01*
X973617D01*
Y104184D01*
X974633D01*
X974883Y89534D02*
Y88518D01*
X976915D01*
Y89534D01*
X977931D01*
Y91566D01*
X976915D01*
Y92582D01*
X974883D01*
Y91566D01*
X973867D01*
Y89534D01*
X974883D01*
X956533Y83934D02*
Y82918D01*
X958565D01*
Y83934D01*
X959581D01*
Y85966D01*
X958565D01*
Y86982D01*
X956533D01*
Y85966D01*
X955517D01*
Y83934D01*
X956533D01*
X938633Y89584D02*
Y88568D01*
X940665D01*
Y89584D01*
X941681D01*
Y91616D01*
X940665D01*
Y92632D01*
X938633D01*
Y91616D01*
X937617D01*
Y89584D01*
X938633D01*
X938983Y104434D02*
Y103418D01*
X941015D01*
Y104434D01*
X942031D01*
Y106466D01*
X941015D01*
Y107482D01*
X938983D01*
Y106466D01*
X937967D01*
Y104434D01*
X938983D01*
X886083Y104184D02*
Y103168D01*
X888115D01*
Y104184D01*
X889131D01*
Y106216D01*
X888115D01*
Y107232D01*
X886083D01*
Y106216D01*
X885067D01*
Y104184D01*
X886083D01*
X886483Y90334D02*
Y89318D01*
X888515D01*
Y90334D01*
X889531D01*
Y92366D01*
X888515D01*
Y93382D01*
X886483D01*
Y92366D01*
X885467D01*
Y90334D01*
X886483D01*
X980783Y457684D02*
Y456668D01*
X982815D01*
Y457684D01*
X983831D01*
Y459716D01*
X982815D01*
Y460732D01*
X980783D01*
Y459716D01*
X979767D01*
Y457684D01*
X980783D01*
X710383Y205584D02*
Y204568D01*
X712415D01*
Y205584D01*
X713431D01*
Y207616D01*
X712415D01*
Y208632D01*
X710383D01*
Y207616D01*
X709367D01*
Y205584D01*
X710383D01*
X1070283Y451484D02*
Y450468D01*
X1072315D01*
Y451484D01*
X1073331D01*
Y453516D01*
X1072315D01*
Y454532D01*
X1070283D01*
Y453516D01*
X1069267D01*
Y451484D01*
X1070283D01*
X955483Y160634D02*
Y159618D01*
X957515D01*
Y160634D01*
X958531D01*
Y162666D01*
X957515D01*
Y163682D01*
X955483D01*
Y162666D01*
X954467D01*
Y160634D01*
X955483D01*
X933733Y156184D02*
Y155168D01*
X935765D01*
Y156184D01*
X936781D01*
Y158216D01*
X935765D01*
Y159232D01*
X933733D01*
Y158216D01*
X932717D01*
Y156184D01*
X933733D01*
X814333Y182434D02*
Y181418D01*
X816365D01*
Y182434D01*
X817381D01*
Y184466D01*
X816365D01*
Y185482D01*
X814333D01*
Y184466D01*
X813317D01*
Y182434D01*
X814333D01*
X829083Y173584D02*
Y172568D01*
X831115D01*
Y173584D01*
X832131D01*
Y175616D01*
X831115D01*
Y176632D01*
X829083D01*
Y175616D01*
X828067D01*
Y173584D01*
X829083D01*
X886562Y155910D02*
Y154894D01*
X888594D01*
Y155910D01*
X889610D01*
Y157942D01*
X888594D01*
Y158958D01*
X886562D01*
Y157942D01*
X885546D01*
Y155910D01*
X886562D01*
X849833Y173284D02*
Y172268D01*
X851865D01*
Y173284D01*
X852881D01*
Y175316D01*
X851865D01*
Y176332D01*
X849833D01*
Y175316D01*
X848817D01*
Y173284D01*
X849833D01*
X933233Y173634D02*
Y172618D01*
X935265D01*
Y173634D01*
X936281D01*
Y175666D01*
X935265D01*
Y176682D01*
X933233D01*
Y175666D01*
X932217D01*
Y173634D01*
X933233D01*
X916233Y173584D02*
Y172568D01*
X918265D01*
Y173584D01*
X919281D01*
Y175616D01*
X918265D01*
Y176632D01*
X916233D01*
Y175616D01*
X915217D01*
Y173584D01*
X916233D01*
X899483Y173434D02*
Y172418D01*
X901515D01*
Y173434D01*
X902531D01*
Y175466D01*
X901515D01*
Y176482D01*
X899483D01*
Y175466D01*
X898467D01*
Y173434D01*
X899483D01*
X882433D02*
Y172418D01*
X884465D01*
Y173434D01*
X885481D01*
Y175466D01*
X884465D01*
Y176482D01*
X882433D01*
Y175466D01*
X881417D01*
Y173434D01*
X882433D01*
X865883Y173284D02*
Y172268D01*
X867915D01*
Y173284D01*
X868931D01*
Y175316D01*
X867915D01*
Y176332D01*
X865883D01*
Y175316D01*
X864867D01*
Y173284D01*
X865883D01*
X954383Y99634D02*
Y98618D01*
X956415D01*
Y99634D01*
X957431D01*
Y101666D01*
X956415D01*
Y102682D01*
X954383D01*
Y101666D01*
X953367D01*
Y99634D01*
X954383D01*
X844083Y56684D02*
Y55668D01*
X846115D01*
Y56684D01*
X847131D01*
Y58716D01*
X846115D01*
Y59732D01*
X844083D01*
Y58716D01*
X843067D01*
Y56684D01*
X844083D01*
X805133Y92384D02*
Y91368D01*
X807165D01*
Y92384D01*
X808181D01*
Y94416D01*
X807165D01*
Y95432D01*
X805133D01*
Y94416D01*
X804117D01*
Y92384D01*
X805133D01*
X728133Y83434D02*
Y82418D01*
X730165D01*
Y83434D01*
X731181D01*
Y85466D01*
X730165D01*
Y86482D01*
X728133D01*
Y85466D01*
X727117D01*
Y83434D01*
X728133D01*
X798683Y61134D02*
Y60118D01*
X800715D01*
Y61134D01*
X801731D01*
Y63166D01*
X800715D01*
Y64182D01*
X798683D01*
Y63166D01*
X797667D01*
Y61134D01*
X798683D01*
X721433Y172834D02*
Y171818D01*
X723465D01*
Y172834D01*
X724481D01*
Y174866D01*
X723465D01*
Y175882D01*
X721433D01*
Y174866D01*
X720417D01*
Y172834D01*
X721433D01*
X852383Y315584D02*
Y314568D01*
X854415D01*
Y315584D01*
X855431D01*
Y317616D01*
X854415D01*
Y318632D01*
X852383D01*
Y317616D01*
X851367D01*
Y315584D01*
X852383D01*
X1089582Y359134D02*
Y358118D01*
X1091613D01*
Y359134D01*
X1092629D01*
Y361166D01*
X1091613D01*
Y362182D01*
X1089582D01*
Y361166D01*
X1088566D01*
Y359134D01*
X1089582D01*
X1104533Y449434D02*
Y448418D01*
X1106565D01*
Y449434D01*
X1107581D01*
Y451466D01*
X1106565D01*
Y452482D01*
X1104533D01*
Y451466D01*
X1103517D01*
Y449434D01*
X1104533D01*
X1138633Y450159D02*
Y449143D01*
X1140665D01*
Y450159D01*
X1141681D01*
Y452191D01*
X1140665D01*
Y453207D01*
X1138633D01*
Y452191D01*
X1137617D01*
Y450159D01*
X1138633D01*
X1150833Y416134D02*
Y415118D01*
X1152865D01*
Y416134D01*
X1153881D01*
Y418166D01*
X1152865D01*
Y419182D01*
X1150833D01*
Y418166D01*
X1149817D01*
Y416134D01*
X1150833D01*
X1013233Y32684D02*
Y31668D01*
X1015265D01*
Y32684D01*
X1016281D01*
Y34716D01*
X1015265D01*
Y35732D01*
X1013233D01*
Y34716D01*
X1012217D01*
Y32684D01*
X1013233D01*
X870083Y32784D02*
Y31768D01*
X872115D01*
Y32784D01*
X873131D01*
Y34816D01*
X872115D01*
Y35832D01*
X870083D01*
Y34816D01*
X869067D01*
Y32784D01*
X870083D01*
X926733Y467484D02*
Y466468D01*
X928765D01*
Y467484D01*
X929781D01*
Y469516D01*
X928765D01*
Y470532D01*
X926733D01*
Y469516D01*
X925717D01*
Y467484D01*
X926733D01*
X721133Y109534D02*
Y108518D01*
X723165D01*
Y109534D01*
X724181D01*
Y111566D01*
X723165D01*
Y112582D01*
X721133D01*
Y111566D01*
X720117D01*
Y109534D01*
X721133D01*
X1107483Y262884D02*
Y261868D01*
X1109515D01*
Y262884D01*
X1110531D01*
Y264916D01*
X1109515D01*
Y265932D01*
X1107483D01*
Y264916D01*
X1106467D01*
Y262884D01*
X1107483D01*
X921983Y402584D02*
Y401568D01*
X924015D01*
Y402584D01*
X925031D01*
Y404616D01*
X924015D01*
Y405632D01*
X921983D01*
Y404616D01*
X920967D01*
Y402584D01*
X921983D01*
X798629Y14371D02*
Y13355D01*
X800661D01*
Y14371D01*
X801677D01*
Y16403D01*
X800661D01*
Y17419D01*
X798629D01*
Y16403D01*
X797613D01*
Y14371D01*
X798629D01*
X1031233Y446384D02*
Y445368D01*
X1033265D01*
Y446384D01*
X1034281D01*
Y448416D01*
X1033265D01*
Y449432D01*
X1031233D01*
Y448416D01*
X1030217D01*
Y446384D01*
X1031233D01*
X1031183Y408534D02*
Y407518D01*
X1033215D01*
Y408534D01*
X1034231D01*
Y410566D01*
X1033215D01*
Y411582D01*
X1031183D01*
Y410566D01*
X1030167D01*
Y408534D01*
X1031183D01*
X1031083Y427534D02*
Y426518D01*
X1033115D01*
Y427534D01*
X1034131D01*
Y429566D01*
X1033115D01*
Y430582D01*
X1031083D01*
Y429566D01*
X1030067D01*
Y427534D01*
X1031083D01*
X679833Y311984D02*
Y310968D01*
X681865D01*
Y311984D01*
X682881D01*
Y314016D01*
X681865D01*
Y315032D01*
X679833D01*
Y314016D01*
X678817D01*
Y311984D01*
X679833D01*
X678933Y347284D02*
Y346268D01*
X680965D01*
Y347284D01*
X681981D01*
Y349316D01*
X680965D01*
Y350332D01*
X678933D01*
Y349316D01*
X677917D01*
Y347284D01*
X678933D01*
X802633Y536534D02*
Y535518D01*
X804665D01*
Y536534D01*
X805681D01*
Y538566D01*
X804665D01*
Y539582D01*
X802633D01*
Y538566D01*
X801617D01*
Y536534D01*
X802633D01*
X819765Y536544D02*
Y535528D01*
X821797D01*
Y536544D01*
X822813D01*
Y538576D01*
X821797D01*
Y539592D01*
X819765D01*
Y538576D01*
X818749D01*
Y536544D01*
X819765D01*
X784983Y552234D02*
Y551218D01*
X787015D01*
Y552234D01*
X788031D01*
Y554266D01*
X787015D01*
Y555282D01*
X784983D01*
Y554266D01*
X783967D01*
Y552234D01*
X784983D01*
X802633Y552334D02*
Y551318D01*
X804665D01*
Y552334D01*
X805681D01*
Y554366D01*
X804665D01*
Y555382D01*
X802633D01*
Y554366D01*
X801617D01*
Y552334D01*
X802633D01*
X819765Y552344D02*
Y551328D01*
X821797D01*
Y552344D01*
X822813D01*
Y554376D01*
X821797D01*
Y555392D01*
X819765D01*
Y554376D01*
X818749D01*
Y552344D01*
X819765D01*
X819283Y567884D02*
Y566868D01*
X821315D01*
Y567884D01*
X822331D01*
Y569916D01*
X821315D01*
Y570932D01*
X819283D01*
Y569916D01*
X818267D01*
Y567884D01*
X819283D01*
X819146Y583404D02*
Y582388D01*
X821179D01*
Y583404D01*
X822195D01*
Y585436D01*
X821179D01*
Y586452D01*
X819146D01*
Y585436D01*
X818130D01*
Y583404D01*
X819146D01*
X802015Y583394D02*
Y582378D01*
X804047D01*
Y583394D01*
X805063D01*
Y585426D01*
X804047D01*
Y586442D01*
X802015D01*
Y585426D01*
X800999D01*
Y583394D01*
X802015D01*
X784365Y583294D02*
Y582278D01*
X786397D01*
Y583294D01*
X787413D01*
Y585326D01*
X786397D01*
Y586342D01*
X784365D01*
Y585326D01*
X783349D01*
Y583294D01*
X784365D01*
X922883Y441234D02*
Y440218D01*
X924915D01*
Y441234D01*
X925931D01*
Y443266D01*
X924915D01*
Y444282D01*
X922883D01*
Y443266D01*
X921867D01*
Y441234D01*
X922883D01*
X1023283Y527634D02*
Y526618D01*
X1025315D01*
Y527634D01*
X1026331D01*
Y529666D01*
X1025315D01*
Y530682D01*
X1023283D01*
Y529666D01*
X1022267D01*
Y527634D01*
X1023283D01*
X916883Y429684D02*
Y428668D01*
X918915D01*
Y429684D01*
X919931D01*
Y431716D01*
X918915D01*
Y432732D01*
X916883D01*
Y431716D01*
X915867D01*
Y429684D01*
X916883D01*
X680333Y80334D02*
Y79318D01*
X682365D01*
Y80334D01*
X683381D01*
Y82366D01*
X682365D01*
Y83382D01*
X680333D01*
Y82366D01*
X679317D01*
Y80334D01*
X680333D01*
D189*
X167894Y444246D02*
G03*
X167894Y444246I-2032J0D01*
G01*
X193294D02*
G03*
X193294Y444246I-2032J0D01*
G01*
X89154Y511048D02*
G03*
X89154Y511048I-2032J0D01*
G01*
Y485648D02*
G03*
X89154Y485648I-2032J0D01*
G01*
X114554Y511048D02*
G03*
X114554Y511048I-2032J0D01*
G01*
Y485648D02*
G03*
X114554Y485648I-2032J0D01*
G01*
X139954Y511048D02*
G03*
X139954Y511048I-2032J0D01*
G01*
Y485648D02*
G03*
X139954Y485648I-2032J0D01*
G01*
X187732Y546300D02*
G03*
X187732Y546300I-2032J0D01*
G01*
X213132D02*
G03*
X213132Y546300I-2032J0D01*
G01*
X238532D02*
G03*
X238532Y546300I-2032J0D01*
G01*
X263932D02*
G03*
X263932Y546300I-2032J0D01*
G01*
X289332D02*
G03*
X289332Y546300I-2032J0D01*
G01*
X314732D02*
G03*
X314732Y546300I-2032J0D01*
G01*
X340132D02*
G03*
X340132Y546300I-2032J0D01*
G01*
X365532D02*
G03*
X365532Y546300I-2032J0D01*
G01*
X390932D02*
G03*
X390932Y546300I-2032J0D01*
G01*
X416332D02*
G03*
X416332Y546300I-2032J0D01*
G01*
X187732Y571700D02*
G03*
X187732Y571700I-2032J0D01*
G01*
X213132D02*
G03*
X213132Y571700I-2032J0D01*
G01*
X238532D02*
G03*
X238532Y571700I-2032J0D01*
G01*
X263932D02*
G03*
X263932Y571700I-2032J0D01*
G01*
X289332D02*
G03*
X289332Y571700I-2032J0D01*
G01*
X314732D02*
G03*
X314732Y571700I-2032J0D01*
G01*
X340132D02*
G03*
X340132Y571700I-2032J0D01*
G01*
X365532D02*
G03*
X365532Y571700I-2032J0D01*
G01*
X390932D02*
G03*
X390932Y571700I-2032J0D01*
G01*
X416332D02*
G03*
X416332Y571700I-2032J0D01*
G01*
X1089381Y546300D02*
G03*
X1089381Y546300I-2032J0D01*
G01*
X1063981D02*
G03*
X1063981Y546300I-2032J0D01*
G01*
X1038581D02*
G03*
X1038581Y546300I-2032J0D01*
G01*
X1013181D02*
G03*
X1013181Y546300I-2032J0D01*
G01*
X987781D02*
G03*
X987781Y546300I-2032J0D01*
G01*
X962381D02*
G03*
X962381Y546300I-2032J0D01*
G01*
X936981D02*
G03*
X936981Y546300I-2032J0D01*
G01*
X911581D02*
G03*
X911581Y546300I-2032J0D01*
G01*
X886181D02*
G03*
X886181Y546300I-2032J0D01*
G01*
X860781D02*
G03*
X860781Y546300I-2032J0D01*
G01*
X1089381Y571700D02*
G03*
X1089381Y571700I-2032J0D01*
G01*
X1063981D02*
G03*
X1063981Y571700I-2032J0D01*
G01*
X1038581D02*
G03*
X1038581Y571700I-2032J0D01*
G01*
X1013181D02*
G03*
X1013181Y571700I-2032J0D01*
G01*
X987781D02*
G03*
X987781Y571700I-2032J0D01*
G01*
X962381D02*
G03*
X962381Y571700I-2032J0D01*
G01*
X936981D02*
G03*
X936981Y571700I-2032J0D01*
G01*
X911581D02*
G03*
X911581Y571700I-2032J0D01*
G01*
X886181D02*
G03*
X886181Y571700I-2032J0D01*
G01*
X860781D02*
G03*
X860781Y571700I-2032J0D01*
G01*
X697551Y529690D02*
G03*
X697551Y529690I-2032J0D01*
G01*
X748351D02*
G03*
X748351Y529690I-2032J0D01*
G01*
Y580490D02*
G03*
X748351Y580490I-2032J0D01*
G01*
X697551D02*
G03*
X697551Y580490I-2032J0D01*
G01*
D190*
X696535Y529690D02*
G03*
X696535Y529690I-1016J0D01*
G01*
X747335D02*
G03*
X747335Y529690I-1016J0D01*
G01*
Y580490D02*
G03*
X747335Y580490I-1016J0D01*
G01*
X696535D02*
G03*
X696535Y580490I-1016J0D01*
G01*
M02*
