G04*
G04 #@! TF.GenerationSoftware,Altium Limited,Altium Designer,21.2.2 (38)*
G04*
G04 Layer_Physical_Order=1*
G04 Layer_Color=255*
%FSLAX44Y44*%
%MOMM*%
G71*
G04*
G04 #@! TF.SameCoordinates,1FAA2A19-5D32-44EB-9D88-0ED73DB0A834*
G04*
G04*
G04 #@! TF.FilePolarity,Positive*
G04*
G01*
G75*
%ADD10R,0.6250X0.8300*%
%ADD11R,1.2000X0.9000*%
%ADD12R,5.5118X1.2954*%
%ADD13R,1.2954X5.5118*%
%ADD14R,1.4500X0.8000*%
%ADD15R,0.9000X1.2700*%
%ADD16R,0.9000X1.2000*%
%ADD17R,2.2300X1.8000*%
%ADD18R,1.0000X1.0000*%
%ADD19R,0.9000X2.0000*%
%ADD20R,2.0000X0.9000*%
%ADD21R,1.3300X1.3300*%
%ADD22R,1.2000X1.0500*%
%ADD23C,1.0000*%
%ADD24R,0.7500X0.4000*%
%ADD25R,1.0000X1.4000*%
%ADD26R,2.0000X0.5500*%
%ADD27R,0.6000X2.0600*%
%ADD28C,0.5000*%
%ADD29C,0.3500*%
%ADD30C,0.2540*%
%ADD31C,0.2000*%
%ADD32R,1.7000X1.3000*%
%ADD33R,0.4000X0.6000*%
%ADD34R,0.6000X0.4000*%
%ADD35R,1.0500X1.2000*%
%ADD36R,0.5500X0.6000*%
%ADD37R,0.9000X0.8000*%
%ADD38R,1.4000X2.0000*%
%ADD39R,3.2000X5.4000*%
%ADD40R,2.5500X2.4500*%
%ADD41R,10.7000X8.6000*%
%ADD42R,1.0000X3.4000*%
%ADD43R,2.1500X2.4500*%
%ADD44R,2.0000X0.6000*%
%ADD45R,1.1000X1.6000*%
%ADD46R,1.6000X1.1000*%
%ADD47R,0.6000X2.0000*%
%ADD48C,0.2500*%
%ADD49C,0.1930*%
%ADD50R,1.6000X1.6000*%
G04:AMPARAMS|DCode=51|XSize=1.5mm|YSize=1.5mm|CornerRadius=0.0525mm|HoleSize=0mm|Usage=FLASHONLY|Rotation=0.000|XOffset=0mm|YOffset=0mm|HoleType=Round|Shape=RoundedRectangle|*
%AMROUNDEDRECTD51*
21,1,1.5000,1.3950,0,0,0.0*
21,1,1.3950,1.5000,0,0,0.0*
1,1,0.1050,0.6975,-0.6975*
1,1,0.1050,-0.6975,-0.6975*
1,1,0.1050,-0.6975,0.6975*
1,1,0.1050,0.6975,0.6975*
%
%ADD51ROUNDEDRECTD51*%
%ADD52C,1.5000*%
%ADD53C,1.6500*%
%ADD54R,1.6500X1.6500*%
%ADD55C,3.0480*%
%ADD56R,4.5720X1.9812*%
G04:AMPARAMS|DCode=57|XSize=2.1mm|YSize=1.5mm|CornerRadius=0.375mm|HoleSize=0mm|Usage=FLASHONLY|Rotation=180.000|XOffset=0mm|YOffset=0mm|HoleType=Round|Shape=RoundedRectangle|*
%AMROUNDEDRECTD57*
21,1,2.1000,0.7500,0,0,180.0*
21,1,1.3500,1.5000,0,0,180.0*
1,1,0.7500,-0.6750,0.3750*
1,1,0.7500,0.6750,0.3750*
1,1,0.7500,0.6750,-0.3750*
1,1,0.7500,-0.6750,-0.3750*
%
%ADD57ROUNDEDRECTD57*%
G04:AMPARAMS|DCode=58|XSize=2.1mm|YSize=1.5mm|CornerRadius=0.375mm|HoleSize=0mm|Usage=FLASHONLY|Rotation=90.000|XOffset=0mm|YOffset=0mm|HoleType=Round|Shape=RoundedRectangle|*
%AMROUNDEDRECTD58*
21,1,2.1000,0.7500,0,0,90.0*
21,1,1.3500,1.5000,0,0,90.0*
1,1,0.7500,0.3750,0.6750*
1,1,0.7500,0.3750,-0.6750*
1,1,0.7500,-0.3750,-0.6750*
1,1,0.7500,-0.3750,0.6750*
%
%ADD58ROUNDEDRECTD58*%
G04:AMPARAMS|DCode=59|XSize=1.55mm|YSize=1.55mm|CornerRadius=0.3875mm|HoleSize=0mm|Usage=FLASHONLY|Rotation=0.000|XOffset=0mm|YOffset=0mm|HoleType=Round|Shape=RoundedRectangle|*
%AMROUNDEDRECTD59*
21,1,1.5500,0.7750,0,0,0.0*
21,1,0.7750,1.5500,0,0,0.0*
1,1,0.7750,0.3875,-0.3875*
1,1,0.7750,-0.3875,-0.3875*
1,1,0.7750,-0.3875,0.3875*
1,1,0.7750,0.3875,0.3875*
%
%ADD59ROUNDEDRECTD59*%
%ADD60C,1.5500*%
%ADD61C,0.6000*%
%ADD62O,0.9000X1.6000*%
%ADD63C,1.3208*%
%ADD64C,1.4986*%
%ADD65C,2.2860*%
%ADD66C,2.0320*%
G36*
X970049Y578019D02*
X968779Y577679D01*
X968583Y578018D01*
X966667Y579934D01*
X964321Y581289D01*
X962849Y581683D01*
Y571700D01*
Y561717D01*
X964321Y562111D01*
X966667Y563466D01*
X968583Y565382D01*
X968779Y565721D01*
X970049Y565381D01*
Y554306D01*
X968779Y553780D01*
X967257Y555302D01*
X964691Y556783D01*
X961830Y557550D01*
X958868D01*
X956007Y556783D01*
X953441Y555302D01*
X951347Y553208D01*
X949866Y550642D01*
X949099Y547781D01*
Y544819D01*
X949866Y541958D01*
X951347Y539392D01*
X953441Y537298D01*
X956007Y535817D01*
X958868Y535050D01*
X961830D01*
X963992Y535629D01*
X970049Y529572D01*
Y515050D01*
X960899D01*
Y517200D01*
X840549D01*
Y594100D01*
X970049D01*
Y578019D01*
D02*
G37*
G36*
X1157209Y594150D02*
Y553000D01*
X1106049D01*
Y525000D01*
X1064610D01*
X1064124Y526173D01*
X1065775Y527824D01*
X1067101Y529809D01*
X1067567Y532150D01*
Y536553D01*
X1068857Y537298D01*
X1070951Y539392D01*
X1072432Y541958D01*
X1073199Y544819D01*
Y547781D01*
X1072432Y550642D01*
X1070951Y553208D01*
X1068857Y555302D01*
X1066292Y556783D01*
X1063430Y557550D01*
X1060468D01*
X1057607Y556783D01*
X1055042Y555302D01*
X1052947Y553208D01*
X1051466Y550642D01*
X1050699Y547781D01*
Y544819D01*
X1051466Y541958D01*
X1052947Y539392D01*
X1055042Y537298D01*
X1055332Y537130D01*
Y534767D01*
X1041614D01*
X1041274Y536037D01*
X1043457Y537298D01*
X1045551Y539392D01*
X1047032Y541958D01*
X1047799Y544819D01*
Y547781D01*
X1047032Y550642D01*
X1045551Y553208D01*
X1043457Y555302D01*
X1040891Y556783D01*
X1038030Y557550D01*
X1035068D01*
X1032207Y556783D01*
X1029641Y555302D01*
X1027547Y553208D01*
X1026066Y550642D01*
X1025299Y547781D01*
Y544819D01*
X1026066Y541958D01*
X1027547Y539392D01*
X1029641Y537298D01*
X1031824Y536037D01*
X1031484Y534767D01*
X1026582D01*
X1025155Y535150D01*
X1023443D01*
X1021790Y534707D01*
X1020308Y533851D01*
X1019098Y532641D01*
X1018242Y531159D01*
X1017799Y529506D01*
Y527794D01*
X1018208Y526270D01*
X1018107Y525824D01*
X1017631Y525000D01*
X999363D01*
Y527635D01*
X1007388Y535661D01*
X1009668Y535050D01*
X1012630D01*
X1015491Y535817D01*
X1018057Y537298D01*
X1020151Y539392D01*
X1021632Y541958D01*
X1022399Y544819D01*
Y547781D01*
X1021632Y550642D01*
X1020151Y553208D01*
X1018057Y555302D01*
X1015491Y556783D01*
X1012630Y557550D01*
X1009668D01*
X1006807Y556783D01*
X1004241Y555302D01*
X1002147Y553208D01*
X1000666Y550642D01*
X999899Y547781D01*
Y544819D01*
X1000510Y542539D01*
X991883Y533911D01*
X990613Y534437D01*
Y536118D01*
X992657Y537298D01*
X994751Y539392D01*
X996232Y541958D01*
X996999Y544819D01*
Y547781D01*
X996232Y550642D01*
X994751Y553208D01*
X992657Y555302D01*
X990091Y556783D01*
X987230Y557550D01*
X984268D01*
X981407Y556783D01*
X978841Y555302D01*
X977319Y553780D01*
X976049Y554306D01*
Y565381D01*
X977319Y565721D01*
X977515Y565382D01*
X979431Y563466D01*
X981777Y562111D01*
X983249Y561717D01*
Y571700D01*
Y581683D01*
X981777Y581289D01*
X979431Y579934D01*
X977515Y578018D01*
X977319Y577679D01*
X976049Y578019D01*
Y594150D01*
X1157209Y594150D01*
D02*
G37*
G36*
X298196Y552467D02*
X296926Y552127D01*
X296302Y553208D01*
X294208Y555302D01*
X291642Y556783D01*
X288781Y557550D01*
X285819D01*
X282958Y556783D01*
X280392Y555302D01*
X278298Y553208D01*
X276817Y550642D01*
X276050Y547781D01*
Y544819D01*
X276817Y541958D01*
X278298Y539392D01*
X280392Y537298D01*
X282958Y535817D01*
X285819Y535050D01*
X288781D01*
X289662Y535286D01*
X297115Y527834D01*
X296589Y526563D01*
X282702D01*
X280361Y526098D01*
X278376Y524772D01*
X266673Y513069D01*
X265500Y513555D01*
Y530930D01*
X260117D01*
Y534819D01*
X260419Y535050D01*
X263381D01*
X266242Y535817D01*
X268808Y537298D01*
X270902Y539392D01*
X272383Y541958D01*
X273150Y544819D01*
Y547781D01*
X272383Y550642D01*
X270902Y553208D01*
X268808Y555302D01*
X266242Y556783D01*
X263381Y557550D01*
X260419D01*
X257558Y556783D01*
X254992Y555302D01*
X252898Y553208D01*
X251417Y550642D01*
X250650Y547781D01*
Y544819D01*
X250945Y543717D01*
X249674Y542447D01*
X248348Y540462D01*
X247882Y538121D01*
Y530930D01*
X242500D01*
Y507930D01*
X241317Y507720D01*
X241283D01*
X240100Y507930D01*
Y530930D01*
X234718D01*
Y534819D01*
X235019Y535050D01*
X237981D01*
X240842Y535817D01*
X243408Y537298D01*
X245502Y539392D01*
X246983Y541958D01*
X247750Y544819D01*
Y547781D01*
X246983Y550642D01*
X245502Y553208D01*
X243408Y555302D01*
X240842Y556783D01*
X237981Y557550D01*
X235019D01*
X232158Y556783D01*
X229592Y555302D01*
X227498Y553208D01*
X226017Y550642D01*
X225250Y547781D01*
Y544819D01*
X225545Y543717D01*
X224274Y542447D01*
X222948Y540462D01*
X222482Y538121D01*
Y530930D01*
X217217D01*
Y536842D01*
X218008Y537298D01*
X220102Y539392D01*
X221583Y541958D01*
X222350Y544819D01*
Y547781D01*
X221583Y550642D01*
X220102Y553208D01*
X218008Y555302D01*
X215442Y556783D01*
X212581Y557550D01*
X209619D01*
X206758Y556783D01*
X204192Y555302D01*
X202098Y553208D01*
X200617Y550642D01*
X199850Y547781D01*
Y544819D01*
X200617Y541958D01*
X202098Y539392D01*
X204192Y537298D01*
X204982Y536842D01*
Y507720D01*
X202225D01*
X191817Y518128D01*
Y535371D01*
X193294Y535983D01*
X194835Y537165D01*
X196017Y538706D01*
X196760Y540500D01*
X197013Y542425D01*
Y550175D01*
X196760Y552100D01*
X196017Y553894D01*
X194835Y555435D01*
X193294Y556617D01*
X191500Y557360D01*
X189575Y557613D01*
X181825D01*
X179900Y557360D01*
X178106Y556617D01*
X176565Y555435D01*
X175383Y553894D01*
X174640Y552100D01*
X174386Y550175D01*
Y542425D01*
X174640Y540500D01*
X175383Y538706D01*
X176565Y537165D01*
X178106Y535983D01*
X179582Y535371D01*
Y515594D01*
X180048Y513253D01*
X181374Y511268D01*
X183749Y508893D01*
X183263Y507720D01*
X150238D01*
X149465Y508728D01*
X149672Y509501D01*
Y512595D01*
X148871Y515583D01*
X147324Y518263D01*
X145137Y520450D01*
X142457Y521997D01*
X139469Y522798D01*
X136375D01*
X133387Y521997D01*
X130707Y520450D01*
X128520Y518263D01*
X126973Y515583D01*
X126238Y512841D01*
X124968Y513008D01*
Y594360D01*
X298196D01*
Y552467D01*
D02*
G37*
G36*
X765011Y548671D02*
Y525799D01*
X760782D01*
X760009Y526806D01*
X760112Y527190D01*
X746319D01*
X732526D01*
X733301Y524298D01*
X735140Y521112D01*
X737741Y518511D01*
X738182Y518257D01*
X737899Y517200D01*
X737899D01*
Y491569D01*
X723449D01*
X722084Y491297D01*
X720926Y490523D01*
X720626Y490223D01*
X711819Y490220D01*
X711817Y465200D01*
X689467D01*
Y501145D01*
X689458Y501191D01*
X689667Y502241D01*
X690335Y503234D01*
X690950Y503645D01*
X691676Y503789D01*
Y503792D01*
X713175D01*
Y503767D01*
X716596Y504217D01*
X719784Y505538D01*
X722521Y507638D01*
X722503Y507656D01*
X722507Y507661D01*
X724133Y509780D01*
X725157Y512253D01*
X725506Y514901D01*
X725507Y514908D01*
Y542178D01*
X726192Y542361D01*
X729307Y544159D01*
X731850Y546703D01*
X733648Y549817D01*
X734579Y553292D01*
Y556888D01*
X733648Y560363D01*
X731850Y563477D01*
X729307Y566021D01*
X726192Y567819D01*
X722718Y568750D01*
X719121D01*
X715647Y567819D01*
X712532Y566021D01*
X709988Y563477D01*
X708190Y560363D01*
X707259Y556888D01*
Y553292D01*
X708190Y549817D01*
X709988Y546703D01*
X712532Y544159D01*
X715647Y542361D01*
X716331Y542178D01*
Y514908D01*
X716346Y514831D01*
X716080Y514188D01*
X716015Y514144D01*
X715959Y514061D01*
X714727Y513238D01*
X713273Y512949D01*
X713175Y512968D01*
X691676D01*
Y512975D01*
X688808Y512597D01*
X686135Y511490D01*
X683840Y509729D01*
X683834Y509735D01*
X681903Y507219D01*
X680689Y504289D01*
X680275Y501145D01*
X680291D01*
Y463112D01*
X680327Y462930D01*
X680606Y460814D01*
X681493Y458673D01*
X682792Y456980D01*
X682895Y456826D01*
X683008Y456750D01*
X684818Y455361D01*
X685899Y454913D01*
Y452200D01*
X686859D01*
Y451200D01*
X699399D01*
Y446200D01*
X686859D01*
Y445200D01*
X685899D01*
Y432200D01*
X686859D01*
Y431200D01*
X699399D01*
Y426200D01*
X686859D01*
Y425919D01*
X686047Y425566D01*
X685589Y425447D01*
X684897Y425847D01*
X683730Y426521D01*
X681568Y427100D01*
X679330D01*
X677168Y426521D01*
X675566Y425596D01*
X674296Y426112D01*
X674304Y598880D01*
X764909Y598880D01*
X765011Y548671D01*
D02*
G37*
G36*
X835899Y517200D02*
X777899D01*
Y516240D01*
X776899D01*
Y503700D01*
Y491160D01*
X777449D01*
Y485200D01*
X777399D01*
Y462200D01*
X777449D01*
Y434450D01*
X721949D01*
Y486500D01*
X723449Y488000D01*
X746990D01*
X747883Y486730D01*
X747649Y485856D01*
Y484144D01*
X748092Y482491D01*
X748948Y481009D01*
X750158Y479799D01*
X751640Y478943D01*
X753293Y478500D01*
X755005D01*
X756658Y478943D01*
X758140Y479799D01*
X759350Y481009D01*
X760206Y482491D01*
X760649Y484144D01*
Y485856D01*
X760206Y487509D01*
X759752Y488296D01*
Y490200D01*
X760899D01*
Y491160D01*
X761899D01*
Y503700D01*
Y516240D01*
X760899D01*
Y517200D01*
X759449D01*
Y522230D01*
X768539D01*
X768579Y522190D01*
Y593720D01*
X768609Y593900D01*
X835899D01*
X835899Y517200D01*
D02*
G37*
G36*
X1156249Y503850D02*
X1181482D01*
Y498916D01*
X1181266Y498397D01*
X1181043Y496700D01*
X1181266Y495003D01*
X1181921Y493422D01*
X1182963Y492064D01*
X1184321Y491022D01*
X1185902Y490367D01*
X1187599Y490144D01*
X1189296Y490367D01*
X1190877Y491022D01*
X1192235Y492064D01*
X1193277Y493422D01*
X1193932Y495003D01*
X1194155Y496700D01*
X1193932Y498397D01*
X1193717Y498916D01*
Y503850D01*
X1197882D01*
Y498516D01*
X1197666Y497997D01*
X1197443Y496300D01*
X1197666Y494603D01*
X1198321Y493022D01*
X1199363Y491664D01*
X1200721Y490622D01*
X1202302Y489967D01*
X1203999Y489744D01*
X1205696Y489967D01*
X1207277Y490622D01*
X1208635Y491664D01*
X1209677Y493022D01*
X1210332Y494603D01*
X1210555Y496300D01*
X1210332Y497997D01*
X1210117Y498516D01*
Y503850D01*
X1214082D01*
Y498666D01*
X1213867Y498147D01*
X1213643Y496450D01*
X1213867Y494753D01*
X1214521Y493172D01*
X1215563Y491814D01*
X1216921Y490772D01*
X1218502Y490117D01*
X1220199Y489894D01*
X1221896Y490117D01*
X1223477Y490772D01*
X1224835Y491814D01*
X1225877Y493172D01*
X1226532Y494753D01*
X1226755Y496450D01*
X1226532Y498147D01*
X1226317Y498666D01*
Y503850D01*
X1229682D01*
Y498366D01*
X1229466Y497847D01*
X1229243Y496150D01*
X1229466Y494453D01*
X1230121Y492872D01*
X1231163Y491514D01*
X1232521Y490472D01*
X1234102Y489817D01*
X1235799Y489594D01*
X1237496Y489817D01*
X1239077Y490472D01*
X1240435Y491514D01*
X1241477Y492872D01*
X1242132Y494453D01*
X1242355Y496150D01*
X1242132Y497847D01*
X1241917Y498366D01*
Y503850D01*
X1245782D01*
Y498366D01*
X1245566Y497847D01*
X1245343Y496150D01*
X1245566Y494453D01*
X1246221Y492872D01*
X1247263Y491514D01*
X1248621Y490472D01*
X1250202Y489817D01*
X1251899Y489594D01*
X1253596Y489817D01*
X1255177Y490472D01*
X1256535Y491514D01*
X1257577Y492872D01*
X1258232Y494453D01*
X1258455Y496150D01*
X1258232Y497847D01*
X1258017Y498366D01*
Y503850D01*
X1267899D01*
X1267899Y381340D01*
X1251949D01*
Y351800D01*
Y322260D01*
X1267899D01*
Y306650D01*
X1188799Y306650D01*
X1188799Y318100D01*
X1188699Y318200D01*
Y400149D01*
X1190333Y401782D01*
X1222099D01*
X1224440Y402248D01*
X1226425Y403574D01*
X1234575Y411724D01*
X1235901Y413709D01*
X1236367Y416050D01*
Y420100D01*
X1253799D01*
Y423850D01*
X1255749D01*
Y464850D01*
X1253799D01*
Y464950D01*
X1253367D01*
Y470060D01*
X1253882Y471303D01*
X1254105Y473000D01*
X1253882Y474697D01*
X1253227Y476278D01*
X1252185Y477636D01*
X1250827Y478678D01*
X1249246Y479333D01*
X1247549Y479556D01*
X1245852Y479333D01*
X1244271Y478678D01*
X1242913Y477636D01*
X1241871Y476278D01*
X1241216Y474697D01*
X1240993Y473000D01*
X1241132Y471948D01*
Y464950D01*
X1219342D01*
Y470944D01*
X1219532Y471403D01*
X1219755Y473100D01*
X1219532Y474797D01*
X1218877Y476378D01*
X1217835Y477736D01*
X1216477Y478778D01*
X1214896Y479433D01*
X1213199Y479656D01*
X1211502Y479433D01*
X1209921Y478778D01*
X1208563Y477736D01*
X1207521Y476378D01*
X1206866Y474797D01*
X1206643Y473100D01*
X1206866Y471403D01*
X1207107Y470823D01*
Y464850D01*
X1204749D01*
Y464638D01*
X1203789Y463890D01*
X1198749D01*
Y444350D01*
Y424810D01*
X1203789D01*
X1204749Y424062D01*
Y423850D01*
X1205699D01*
X1209449Y420100D01*
X1224132D01*
Y418584D01*
X1219565Y414017D01*
X1193335D01*
X1192212Y414856D01*
X1192208Y414860D01*
X1192204Y423540D01*
X1192590Y424192D01*
X1193293Y424810D01*
X1193749D01*
Y444350D01*
Y463890D01*
X1193016D01*
X1193013Y463891D01*
X1192094Y464996D01*
X1192072Y465160D01*
X1192182Y465716D01*
X1192182Y465717D01*
X1192182Y465717D01*
X1192180Y469752D01*
X1192045Y470431D01*
X1191909Y471116D01*
X1191908Y471116D01*
X1191908Y471117D01*
X1191519Y471699D01*
X1191135Y472273D01*
X1191134Y472274D01*
X1191134Y472275D01*
X1190558Y472659D01*
X1189977Y473047D01*
X1189977Y473047D01*
X1189976Y473048D01*
X1189289Y473184D01*
X1188612Y473319D01*
X1153768D01*
Y495395D01*
X1153632Y496079D01*
X1153498Y496757D01*
X1153496Y496759D01*
X1153496Y496761D01*
X1153110Y497339D01*
X1152726Y497916D01*
X1152724Y497917D01*
X1152722Y497919D01*
X1152143Y498306D01*
X1151569Y498691D01*
X1151567Y498691D01*
X1151565Y498692D01*
X1150880Y498828D01*
X1150203Y498964D01*
X1000265Y499141D01*
X1000258Y499148D01*
X999363Y500257D01*
Y521431D01*
X1017631D01*
X1018089Y521522D01*
X1018555Y521553D01*
X1018766Y521657D01*
X1018997Y521703D01*
X1019385Y521962D01*
X1019803Y522169D01*
X1019958Y522346D01*
X1020154Y522477D01*
X1020414Y522865D01*
X1020451Y522907D01*
X1021177Y522908D01*
X1022602Y522317D01*
X1024299Y522094D01*
X1025996Y522317D01*
X1026515Y522533D01*
X1057949D01*
X1059930Y522927D01*
X1061785Y522928D01*
X1062087Y522477D01*
X1063244Y521703D01*
X1064610Y521431D01*
X1106049D01*
X1107415Y521703D01*
X1108572Y522477D01*
X1109346Y523634D01*
X1109618Y525000D01*
Y549431D01*
X1156249D01*
Y503850D01*
D02*
G37*
G36*
X121399Y520648D02*
X120129Y520021D01*
X118448Y521312D01*
X115589Y522496D01*
X112522Y522899D01*
X109455Y522496D01*
X106596Y521312D01*
X104142Y519428D01*
X102258Y516974D01*
X101074Y514115D01*
X100671Y511048D01*
X101074Y507981D01*
X102258Y505122D01*
X104142Y502668D01*
X106596Y500784D01*
X109455Y499600D01*
X112522Y499197D01*
X115589Y499600D01*
X118448Y500784D01*
X120902Y502668D01*
X122786Y505122D01*
X123970Y507981D01*
X124136Y509242D01*
X124502Y509470D01*
X125772Y509303D01*
X126238Y509334D01*
X126704Y509303D01*
X126927Y509379D01*
X127162Y509394D01*
X128162Y508867D01*
X128418Y508544D01*
X128423Y508503D01*
X129405Y506131D01*
X130968Y504094D01*
X133005Y502531D01*
X135377Y501549D01*
X135422Y501543D01*
Y511048D01*
X140422D01*
Y501543D01*
X140467Y501549D01*
X142839Y502531D01*
X144876Y504094D01*
X145899Y505427D01*
X147336Y505542D01*
X147480Y505484D01*
X147584Y505392D01*
X147715Y505197D01*
X148103Y504937D01*
X148454Y504630D01*
X148677Y504554D01*
X148872Y504423D01*
X149330Y504332D01*
X149772Y504182D01*
X150007Y504197D01*
X150238Y504151D01*
X183263D01*
X184629Y504423D01*
X185786Y505197D01*
X187286Y505357D01*
X210685Y481957D01*
X212670Y480631D01*
X213452Y480476D01*
X216662Y477266D01*
Y475001D01*
X149672D01*
Y497398D01*
X126172D01*
Y475001D01*
X120035D01*
X119604Y476272D01*
X120902Y477268D01*
X122786Y479722D01*
X123970Y482581D01*
X124373Y485648D01*
X123970Y488715D01*
X122786Y491574D01*
X120902Y494028D01*
X118448Y495912D01*
X115589Y497096D01*
X112522Y497499D01*
X109455Y497096D01*
X106596Y495912D01*
X104142Y494028D01*
X102258Y491574D01*
X101074Y488715D01*
X100671Y485648D01*
X101074Y482581D01*
X102258Y479722D01*
X104142Y477268D01*
X106318Y475598D01*
Y473288D01*
X106784Y470947D01*
X108110Y468962D01*
X110550Y466523D01*
X110064Y465350D01*
X96260D01*
X93239Y468370D01*
Y475532D01*
X95502Y477268D01*
X97386Y479722D01*
X98570Y482581D01*
X98973Y485648D01*
X98570Y488715D01*
X97386Y491574D01*
X95502Y494028D01*
X93048Y495912D01*
X90189Y497096D01*
X87122Y497499D01*
X84055Y497096D01*
X81196Y495912D01*
X78742Y494028D01*
X76858Y491574D01*
X75674Y488715D01*
X75271Y485648D01*
X75674Y482581D01*
X76858Y479722D01*
X78742Y477268D01*
X81004Y475532D01*
Y465836D01*
X81470Y463495D01*
X82796Y461510D01*
X88156Y456151D01*
X87630Y454881D01*
X48951D01*
Y434927D01*
X111069D01*
X111069Y434927D01*
Y434927D01*
X112310Y434858D01*
X112960Y433887D01*
X126265Y420581D01*
X128250Y419255D01*
X130454Y418817D01*
Y416432D01*
X130454Y415164D01*
X130454D01*
Y415162D01*
X130454D01*
Y400186D01*
X129184Y399660D01*
X123403Y405441D01*
Y407694D01*
X123427Y407751D01*
X123650Y409448D01*
X123427Y411145D01*
X122772Y412726D01*
X121730Y414084D01*
X120372Y415126D01*
X118791Y415781D01*
X117094Y416004D01*
X115397Y415781D01*
X115340Y415757D01*
X111069D01*
Y419881D01*
X48951D01*
Y399927D01*
X111069D01*
X111069Y399927D01*
Y399927D01*
X112264Y399622D01*
X112960Y398581D01*
X127704Y383836D01*
X129689Y382510D01*
X130454Y382358D01*
Y378162D01*
X149274D01*
X150045Y377137D01*
X148166Y375258D01*
X142665D01*
X142608Y375282D01*
X140911Y375505D01*
X139214Y375282D01*
X137633Y374627D01*
X136275Y373585D01*
X135233Y372227D01*
X134578Y370646D01*
X134355Y368949D01*
X134578Y367252D01*
X135233Y365671D01*
X136275Y364313D01*
X137633Y363271D01*
X139214Y362616D01*
X140911Y362393D01*
X142608Y362616D01*
X143589Y363023D01*
X150700D01*
X153041Y363488D01*
X155026Y364814D01*
X163330Y373118D01*
X164656Y375103D01*
X165121Y377444D01*
Y400441D01*
X164656Y402783D01*
X163330Y404767D01*
X160660Y407437D01*
X163135Y409912D01*
X164461Y411897D01*
X164927Y414238D01*
Y424567D01*
X165333Y425549D01*
X165557Y427245D01*
X165333Y428942D01*
X164678Y430523D01*
X163637Y431881D01*
X163616Y431897D01*
X164047Y433167D01*
X172837D01*
X174407Y433480D01*
X175739Y434369D01*
X176628Y435701D01*
X176941Y437271D01*
Y451221D01*
X176817Y451844D01*
X177824Y453115D01*
X182842D01*
X183227Y451844D01*
X181653Y449794D01*
X180545Y447118D01*
X180167Y444246D01*
X180545Y441374D01*
X181653Y438699D01*
X183417Y436401D01*
X185714Y434637D01*
X188390Y433529D01*
X191262Y433151D01*
X193421Y433435D01*
X215892Y410964D01*
X216662Y410450D01*
Y394818D01*
X207814D01*
Y375818D01*
X207474Y375514D01*
X207474D01*
Y365165D01*
X204716Y362408D01*
X203390Y360423D01*
X202924Y358082D01*
Y324098D01*
X199137Y320311D01*
X173932D01*
X173401Y320531D01*
X171704Y320754D01*
X170007Y320531D01*
X168426Y319876D01*
X167068Y318834D01*
X166026Y317476D01*
X165371Y315895D01*
X165148Y314198D01*
X165371Y312501D01*
X165548Y312074D01*
X164635Y310961D01*
X163576Y311171D01*
X162276D01*
Y312704D01*
X149026D01*
Y302936D01*
X147756Y302310D01*
X147042Y302858D01*
X145461Y303513D01*
X143764Y303736D01*
X142067Y303513D01*
X140486Y302858D01*
X139296Y301945D01*
X138639Y302104D01*
X138026Y302466D01*
Y302554D01*
X135901D01*
Y299404D01*
X136381D01*
X137333Y298134D01*
X137208Y297180D01*
X137236Y296966D01*
X136399Y296012D01*
X125940D01*
Y292873D01*
X111095D01*
Y296945D01*
X48977D01*
Y276991D01*
X111095D01*
Y280638D01*
X125940D01*
Y277012D01*
X138493D01*
X139119Y275742D01*
X138594Y275058D01*
X137939Y273477D01*
X137716Y271780D01*
X137939Y270083D01*
X138483Y268770D01*
X137937Y267500D01*
X126000D01*
Y264277D01*
X120456D01*
X119553Y264651D01*
X117856Y264874D01*
X116159Y264651D01*
X114578Y263996D01*
X113220Y262954D01*
X112178Y261596D01*
X111523Y260015D01*
X111300Y258318D01*
X111523Y256621D01*
X112178Y255040D01*
X113220Y253682D01*
X114578Y252640D01*
X116159Y251985D01*
X117856Y251762D01*
X119553Y251985D01*
X119688Y252041D01*
X126000D01*
Y248500D01*
X137287D01*
X137901Y247582D01*
X137928Y247230D01*
X137716Y245618D01*
X137305Y245150D01*
X135875D01*
Y239500D01*
Y233850D01*
X138000D01*
Y241028D01*
X139270Y241459D01*
X139636Y240982D01*
X140994Y239940D01*
X142575Y239285D01*
X144272Y239062D01*
X145969Y239285D01*
X147550Y239940D01*
X147730Y240078D01*
X149000Y239452D01*
Y231850D01*
X154483D01*
X154969Y230677D01*
X151924Y227632D01*
X150598Y225647D01*
X150360Y224452D01*
X149000D01*
Y209152D01*
X149585D01*
Y207802D01*
X147000D01*
Y188802D01*
Y169930D01*
X149507D01*
Y168580D01*
X149000D01*
Y153280D01*
X153290D01*
X153675Y152010D01*
X153130Y151646D01*
X149438Y147954D01*
X139090D01*
Y131954D01*
X158090D01*
Y139303D01*
X159990Y141202D01*
X160782D01*
X163123Y141668D01*
X164744Y142751D01*
X166014Y142239D01*
Y131954D01*
X181616D01*
Y126954D01*
X166014D01*
Y119606D01*
X159263Y112855D01*
X158090Y113341D01*
Y126954D01*
X139090D01*
Y110954D01*
X142472D01*
Y87370D01*
X137660Y82558D01*
X136334Y80573D01*
X135869Y78232D01*
Y73494D01*
X134598Y72646D01*
X134031Y72881D01*
X132334Y73104D01*
X130637Y72881D01*
X129056Y72226D01*
X127698Y71184D01*
X126656Y69826D01*
X126458Y69348D01*
X124801Y67690D01*
X116109D01*
X115483Y68960D01*
X115977Y69604D01*
X116707Y71367D01*
X116957Y73260D01*
Y86760D01*
X116707Y88653D01*
X115977Y90416D01*
X114815Y91931D01*
X113300Y93093D01*
X111537Y93823D01*
X109644Y94073D01*
X102144D01*
X100251Y93823D01*
X98488Y93093D01*
X96973Y91931D01*
X95811Y90416D01*
X95081Y88653D01*
X94831Y86760D01*
Y73260D01*
X95081Y71367D01*
X95811Y69604D01*
X96973Y68089D01*
X98488Y66927D01*
X100251Y66197D01*
X102144Y65947D01*
X109644D01*
X111537Y66197D01*
X113182Y66878D01*
X113651Y66709D01*
X114452Y66210D01*
Y51690D01*
X133452D01*
Y59039D01*
X134599Y60185D01*
X135802Y59686D01*
X135869Y59602D01*
Y37586D01*
X134625Y36343D01*
X133452Y36829D01*
Y46690D01*
X114452D01*
Y44807D01*
X111747D01*
X111425Y44941D01*
X109728Y45164D01*
X108031Y44941D01*
X106450Y44286D01*
X105092Y43244D01*
X104050Y41886D01*
X103395Y40305D01*
X103172Y38608D01*
X103395Y36911D01*
X104050Y35330D01*
X105092Y33972D01*
X106450Y32930D01*
X107544Y32477D01*
X107966Y31102D01*
X101347Y24483D01*
X87057D01*
X86615Y25754D01*
X87589Y27212D01*
X87997Y29260D01*
Y30510D01*
X75894D01*
X63791D01*
Y29260D01*
X64199Y27212D01*
X65295Y25570D01*
X65212Y25003D01*
X64966Y24210D01*
X64001Y24018D01*
X62016Y22692D01*
X55191Y15866D01*
X46842D01*
Y5588D01*
X45392D01*
Y13866D01*
X41392D01*
Y7366D01*
X36392D01*
Y13866D01*
X32392D01*
Y5588D01*
X19392D01*
Y7214D01*
X25313Y13136D01*
X25884Y13372D01*
X27242Y14414D01*
X28284Y15772D01*
X28939Y17353D01*
X29162Y19050D01*
X28939Y20747D01*
X28284Y22328D01*
X27242Y23686D01*
X25884Y24728D01*
X24303Y25383D01*
X22606Y25606D01*
X20909Y25383D01*
X19328Y24728D01*
X17970Y23686D01*
X16928Y22328D01*
X16734Y21860D01*
X10740Y15866D01*
X5044D01*
X4147Y16765D01*
X5629Y594360D01*
X121399Y594360D01*
Y520648D01*
D02*
G37*
G36*
X513820Y512324D02*
Y431286D01*
X481576Y399042D01*
X480870Y397984D01*
X479600Y398369D01*
Y402800D01*
Y415500D01*
Y428200D01*
Y440900D01*
Y453600D01*
Y466300D01*
Y482300D01*
X470100D01*
X469263Y483255D01*
X469344Y483870D01*
X469121Y485567D01*
X468466Y487148D01*
X467424Y488506D01*
X466066Y489548D01*
X464485Y490203D01*
X464100Y490253D01*
Y498073D01*
X484086D01*
Y497934D01*
X511086D01*
Y510434D01*
X484086D01*
Y510308D01*
X464100D01*
Y515650D01*
X463267D01*
X462430Y516605D01*
X462486Y517034D01*
X462263Y518731D01*
X461608Y520312D01*
X461327Y520678D01*
X461953Y521949D01*
X504196D01*
X513820Y512324D01*
D02*
G37*
G36*
X452628Y482300D02*
X452600D01*
Y468571D01*
X451856Y468000D01*
X450144D01*
X448491Y467557D01*
X447009Y466701D01*
X445799Y465491D01*
X444943Y464009D01*
X444500Y462356D01*
Y460644D01*
X444943Y458991D01*
X445799Y457509D01*
X447009Y456299D01*
X448491Y455443D01*
X450144Y455000D01*
X451856D01*
X452600Y454429D01*
Y440900D01*
Y428200D01*
Y415500D01*
Y402800D01*
Y390100D01*
Y382750D01*
X448592Y378742D01*
X448341Y378675D01*
X446859Y377819D01*
X445722Y376682D01*
X435084D01*
X432536Y379230D01*
X430551Y380556D01*
X428210Y381021D01*
X423669D01*
X422242Y381404D01*
X420530D01*
X418877Y380961D01*
X417395Y380105D01*
X416185Y378895D01*
X415329Y377413D01*
X415133Y376682D01*
X413782D01*
X413012Y377452D01*
X411027Y378778D01*
X408686Y379244D01*
X324845D01*
X303784Y400304D01*
X301005D01*
X299728Y401582D01*
X297743Y402908D01*
X295402Y403373D01*
X260598D01*
X245970Y418001D01*
X245231Y419281D01*
X245180Y419333D01*
X245706Y420602D01*
X262636D01*
X264977Y421068D01*
X266962Y422394D01*
X286252Y441684D01*
X312928D01*
X315269Y442150D01*
X317254Y443476D01*
X346125Y472348D01*
X347452Y474333D01*
X347917Y476674D01*
Y482925D01*
X349187Y483265D01*
X349383Y482927D01*
X350593Y481717D01*
X352075Y480861D01*
X353728Y480418D01*
X355440D01*
X357093Y480861D01*
X358575Y481717D01*
X359785Y482927D01*
X360641Y484409D01*
X361084Y486062D01*
Y486918D01*
X384534D01*
Y485190D01*
X384341Y484855D01*
X383898Y483202D01*
Y481490D01*
X384341Y479837D01*
X385197Y478355D01*
X386407Y477145D01*
X387889Y476289D01*
X389542Y475846D01*
X391254D01*
X391644Y475546D01*
Y474506D01*
X392087Y472853D01*
X392943Y471371D01*
X394153Y470161D01*
X395635Y469305D01*
X397288Y468862D01*
X399000D01*
X400427Y469244D01*
X408306D01*
X410647Y469710D01*
X412632Y471036D01*
X421801Y480205D01*
X423127Y482190D01*
X423480Y483964D01*
X424813Y484157D01*
X425442Y483068D01*
X426652Y481858D01*
X428134Y481002D01*
X429787Y480559D01*
X431499D01*
X433152Y481002D01*
X434634Y481858D01*
X435844Y483068D01*
X436363Y483966D01*
X437811Y483998D01*
X438283Y483181D01*
X439493Y481971D01*
X440975Y481115D01*
X442628Y480672D01*
X444340D01*
X445993Y481115D01*
X447475Y481971D01*
X448685Y483181D01*
X449541Y484663D01*
X449984Y486316D01*
Y486918D01*
X452628D01*
Y482300D01*
D02*
G37*
G36*
X1150199Y495395D02*
Y469750D01*
X1188612D01*
X1188614Y465715D01*
X1187749Y464850D01*
X1187749Y464850D01*
X1186862Y463947D01*
X1186789Y463890D01*
X1186479Y463890D01*
X1181749D01*
Y444350D01*
Y424810D01*
X1186479D01*
X1186789Y424810D01*
X1187749Y424062D01*
Y423850D01*
X1188635D01*
X1188639Y414858D01*
X1187799Y414017D01*
X1185458Y413552D01*
X1183473Y412226D01*
X1167265Y396017D01*
X1139483D01*
X1136917Y398584D01*
Y420700D01*
X1138799D01*
Y422376D01*
X1142900Y422385D01*
X1143799Y421488D01*
Y420700D01*
X1145682D01*
Y419246D01*
X1145349Y418006D01*
Y416294D01*
X1145792Y414641D01*
X1146648Y413159D01*
X1147858Y411949D01*
X1149340Y411093D01*
X1150993Y410650D01*
X1152705D01*
X1154358Y411093D01*
X1155840Y411949D01*
X1157050Y413159D01*
X1157906Y414641D01*
X1158349Y416294D01*
Y418006D01*
X1157968Y419430D01*
X1158567Y420700D01*
X1159799D01*
Y439700D01*
X1143799D01*
Y438150D01*
X1139649D01*
Y444675D01*
X1140505D01*
X1142158Y445118D01*
X1143289Y445771D01*
X1144559Y445244D01*
Y441860D01*
X1149099D01*
Y450400D01*
Y458940D01*
X1144559D01*
Y457106D01*
X1143289Y456579D01*
X1142158Y457232D01*
X1140505Y457675D01*
X1139649D01*
Y464200D01*
X1081351Y464200D01*
X1078975Y466576D01*
X1076990Y467902D01*
X1074649Y468368D01*
X1025899D01*
X1023558Y467902D01*
X1022684Y467318D01*
X1021274Y467903D01*
X1020611Y469052D01*
X1019401Y470262D01*
X1017919Y471118D01*
X1016266Y471561D01*
X1014554D01*
X1012901Y471118D01*
X1011419Y470262D01*
X1010797Y469640D01*
X1010233Y469528D01*
X1008497Y468368D01*
X1005329Y465200D01*
X988499D01*
Y474222D01*
X997938Y483661D01*
X998992Y485239D01*
X999363Y487100D01*
X999363Y487100D01*
Y494675D01*
X1000261Y495573D01*
X1150199Y495395D01*
D02*
G37*
G36*
X963248Y488477D02*
X923521Y448750D01*
X923043D01*
X921390Y448307D01*
X919908Y447451D01*
X918698Y446241D01*
X917842Y444759D01*
X917399Y443106D01*
Y441394D01*
X917842Y439741D01*
X918576Y438470D01*
X918326Y437725D01*
X917961Y437200D01*
X917043D01*
X915390Y436757D01*
X913908Y435901D01*
X912698Y434691D01*
X911842Y433209D01*
X911399Y431556D01*
Y429844D01*
X911842Y428191D01*
X912698Y426709D01*
X913908Y425499D01*
X915390Y424643D01*
X917043Y424200D01*
X918755D01*
X920408Y424643D01*
X921890Y425499D01*
X922228Y425837D01*
X924562D01*
X925088Y424567D01*
X919560Y419039D01*
X918506Y417461D01*
X918136Y415600D01*
X918136Y415600D01*
Y407929D01*
X917798Y407591D01*
X916942Y406109D01*
X916499Y404456D01*
Y402744D01*
X916942Y401091D01*
X917798Y399609D01*
X919008Y398399D01*
X920490Y397543D01*
X922143Y397100D01*
X923855D01*
X925508Y397543D01*
X926990Y398399D01*
X928200Y399609D01*
X929056Y401091D01*
X929499Y402744D01*
Y404456D01*
X929056Y406109D01*
X928200Y407591D01*
X927863Y407929D01*
Y413586D01*
X983757Y469480D01*
X984930Y468994D01*
Y465200D01*
X985202Y463834D01*
X985594Y463248D01*
X985584Y405050D01*
X984443D01*
X982790Y404607D01*
X981308Y403751D01*
X981209Y403652D01*
X979939Y404178D01*
Y406740D01*
X971899D01*
Y398700D01*
Y390660D01*
X979939D01*
Y392922D01*
X981209Y393448D01*
X981308Y393349D01*
X982790Y392493D01*
X984443Y392050D01*
X984683D01*
X985581Y391152D01*
X985579Y381193D01*
X985095Y380870D01*
X983503D01*
X982033Y380261D01*
X981209Y379436D01*
X979939Y379862D01*
Y388740D01*
X971899D01*
Y380700D01*
Y372660D01*
X979773D01*
X980736Y371720D01*
X980722Y371686D01*
X979939Y370740D01*
X979060Y370740D01*
X971899D01*
Y365200D01*
X979939D01*
Y366877D01*
X981209Y367303D01*
X982033Y366479D01*
X983503Y365870D01*
X984306D01*
X985576Y364799D01*
X985551Y228522D01*
X984064Y227035D01*
X982904Y225298D01*
X982496Y223250D01*
Y217850D01*
X870949D01*
Y218656D01*
X870506Y220309D01*
X870147Y220930D01*
X870881Y222200D01*
X885399D01*
Y222412D01*
X886359Y223160D01*
X886669Y223160D01*
X891899D01*
Y233700D01*
Y244240D01*
X886669D01*
X886359Y244240D01*
X885399Y244988D01*
Y245200D01*
X867399D01*
Y245200D01*
X866129Y245200D01*
X849399D01*
X849399Y245200D01*
X848199Y245200D01*
X832669D01*
X831399Y245200D01*
Y245200D01*
X831399D01*
Y245200D01*
X814669D01*
X813399Y245200D01*
Y245200D01*
X813399D01*
Y245200D01*
X796669D01*
X795399Y245200D01*
X794129Y245200D01*
X777399D01*
Y222200D01*
X794129D01*
X795399Y222200D01*
X797773Y222200D01*
X798506Y220930D01*
X798292Y220559D01*
X797849Y218906D01*
Y217850D01*
X771485D01*
X770799Y218744D01*
Y220456D01*
X770356Y222109D01*
X769500Y223591D01*
X768290Y224801D01*
X766808Y225657D01*
X765155Y226100D01*
X763443D01*
X761790Y225657D01*
X760308Y224801D01*
X759098Y223591D01*
X758242Y222109D01*
X757799Y220456D01*
Y218744D01*
X757113Y217850D01*
X728567D01*
Y223516D01*
X755183Y250133D01*
X819299D01*
X821640Y250598D01*
X823625Y251924D01*
X857725Y286024D01*
X859051Y288009D01*
X859517Y290350D01*
Y314317D01*
X859899Y315744D01*
Y317456D01*
X859456Y319109D01*
X858600Y320591D01*
X857390Y321801D01*
X855908Y322657D01*
X854255Y323100D01*
X852543D01*
X850890Y322657D01*
X849408Y321801D01*
X848198Y320591D01*
X847342Y319109D01*
X846899Y317456D01*
Y315744D01*
X847282Y314317D01*
Y292884D01*
X816765Y262367D01*
X776260D01*
X775333Y263638D01*
X775549Y264444D01*
Y266156D01*
X775167Y267583D01*
Y318731D01*
X779775Y323339D01*
X781101Y325324D01*
X781567Y327665D01*
Y381353D01*
X781899Y382594D01*
Y384306D01*
X781567Y385546D01*
Y423950D01*
X781101Y426291D01*
X779775Y428276D01*
X778296Y429755D01*
X778714Y431133D01*
X778815Y431153D01*
X779973Y431927D01*
X780746Y433084D01*
X781018Y434450D01*
Y462200D01*
X781905Y463160D01*
X783899D01*
Y473700D01*
Y484240D01*
X781905D01*
X781018Y485200D01*
Y489650D01*
X962762Y489650D01*
X963248Y488477D01*
D02*
G37*
G36*
X523266Y422041D02*
X523483Y421849D01*
X524756Y419943D01*
X538871Y405828D01*
X538463Y404625D01*
X538307Y404605D01*
X536726Y403950D01*
X535368Y402908D01*
X534326Y401550D01*
X533671Y399969D01*
X533448Y398272D01*
X533671Y396575D01*
X534326Y394994D01*
X534890Y394259D01*
X534264Y392989D01*
X523454D01*
Y387512D01*
X550013D01*
Y391686D01*
X551283Y392499D01*
X551431Y392431D01*
Y375932D01*
X548646Y373148D01*
X495451D01*
X493110Y372682D01*
X491125Y371356D01*
X479798Y360029D01*
X478870Y358639D01*
X477600Y359025D01*
Y364700D01*
X479600D01*
Y368689D01*
X481403Y369048D01*
X483388Y370374D01*
X490228Y377214D01*
X490625Y377808D01*
X491895Y377423D01*
Y377035D01*
X518454D01*
Y385012D01*
Y392989D01*
X494486D01*
X494000Y394162D01*
X522201Y422364D01*
X523266Y422041D01*
D02*
G37*
G36*
X296974Y356866D02*
X297197Y355169D01*
X297582Y354240D01*
Y345650D01*
X295700D01*
Y343650D01*
X293500D01*
Y332150D01*
Y320650D01*
X295700D01*
Y318650D01*
X295700D01*
X296080Y317731D01*
X295108Y316759D01*
X274892D01*
X271500Y320151D01*
Y327500D01*
X253770D01*
X252500Y327500D01*
Y327500D01*
X252500D01*
Y327500D01*
X233500D01*
Y311500D01*
X251230D01*
X252500Y311500D01*
Y311500D01*
X252500D01*
Y311500D01*
X262849D01*
X267461Y306887D01*
X266935Y305617D01*
X171664D01*
X170802Y306480D01*
X171395Y307683D01*
X171704Y307642D01*
X173401Y307865D01*
X173909Y308076D01*
X201671D01*
X204012Y308541D01*
X205997Y309867D01*
X213368Y317238D01*
X214694Y319223D01*
X215159Y321564D01*
Y332500D01*
X233500D01*
Y346006D01*
X234397Y346904D01*
X235500Y346210D01*
X235500Y345350D01*
Y343000D01*
X240500D01*
Y346500D01*
X236733D01*
X235789Y346500D01*
X235096Y347602D01*
X239437Y351944D01*
X240764Y353929D01*
X241229Y356270D01*
Y356514D01*
X244474D01*
Y357632D01*
X246191D01*
X246824Y356806D01*
X248182Y355764D01*
X249763Y355109D01*
X251460Y354886D01*
X253157Y355109D01*
X254738Y355764D01*
X256096Y356806D01*
X256306Y357080D01*
X274930D01*
Y357632D01*
X296302D01*
X296974Y356866D01*
D02*
G37*
G36*
X1185130Y318200D02*
X1185149Y318107D01*
Y305150D01*
X1185592D01*
X1186276Y304127D01*
X1187433Y303353D01*
X1188799Y303081D01*
X1267899Y303081D01*
X1267999Y302999D01*
Y242300D01*
X1153499Y242300D01*
X1153397Y317560D01*
X1098921Y317560D01*
X1098023Y318458D01*
X1098045Y356050D01*
X1098518Y356869D01*
X1099098Y359031D01*
Y361269D01*
X1098518Y363431D01*
X1098050Y364242D01*
X1098060Y381850D01*
X1103499D01*
Y382000D01*
X1104999D01*
Y381850D01*
X1113848D01*
X1117090Y378607D01*
Y378269D01*
X1116899Y377556D01*
Y375844D01*
X1117342Y374191D01*
X1118198Y372709D01*
X1119408Y371499D01*
X1120890Y370643D01*
X1122543Y370200D01*
X1124255D01*
X1125908Y370643D01*
X1127390Y371499D01*
X1128600Y372709D01*
X1128639Y372776D01*
X1129909Y372436D01*
Y354300D01*
X1148449D01*
X1166989D01*
Y380730D01*
X1166989Y381340D01*
X1167986Y382000D01*
X1185130D01*
Y318200D01*
D02*
G37*
G36*
X468600Y354000D02*
X477600D01*
X478007Y352898D01*
Y344164D01*
X472110Y338267D01*
X464100D01*
Y345650D01*
X462217D01*
Y347015D01*
X461752Y349356D01*
X460425Y351340D01*
X458939Y352826D01*
X459425Y354000D01*
X463600D01*
Y360000D01*
X468600D01*
Y354000D01*
D02*
G37*
G36*
X1093098Y353014D02*
X1093205Y353043D01*
X1094474Y352387D01*
X1094454Y318460D01*
X1094454Y318460D01*
X1094454Y318459D01*
X1094589Y317782D01*
X1094725Y317095D01*
X1094725Y317094D01*
X1094725Y317094D01*
X1095100Y316533D01*
X1095498Y315936D01*
X1095498Y315936D01*
X1095499Y315936D01*
X1096396Y315037D01*
X1096397Y315037D01*
X1096397Y315037D01*
X1097011Y314627D01*
X1097554Y314263D01*
X1097554Y314263D01*
X1097555Y314263D01*
X1098240Y314127D01*
X1098920Y313991D01*
X1098920Y313992D01*
X1098921Y313991D01*
X1149833Y313991D01*
X1149929Y243199D01*
X1149032Y242300D01*
X1100417D01*
X1099684Y243570D01*
X1099956Y244041D01*
X1100399Y245694D01*
Y247406D01*
X1099956Y249059D01*
X1099100Y250541D01*
X1097890Y251751D01*
X1096408Y252607D01*
X1094755Y253050D01*
X1093043D01*
X1091616Y252668D01*
X1069597D01*
X1069111Y253841D01*
X1076035Y260764D01*
X1077361Y262749D01*
X1077827Y265090D01*
Y295750D01*
X1077361Y298091D01*
X1076035Y300076D01*
X1066507Y309604D01*
Y329812D01*
X1073299D01*
Y342352D01*
X1075799D01*
Y344852D01*
X1085339D01*
Y353013D01*
X1086609Y353746D01*
X1087687Y353124D01*
X1088098Y353014D01*
Y360150D01*
X1093098D01*
Y353014D01*
D02*
G37*
G36*
X489895Y319056D02*
Y313687D01*
X469638Y293430D01*
X468312Y291445D01*
X467846Y289104D01*
Y283142D01*
X439248D01*
Y266544D01*
X437394Y264690D01*
X403028D01*
X402509Y264905D01*
X400812Y265128D01*
X399115Y264905D01*
X397534Y264250D01*
X396261Y263273D01*
X395884Y263342D01*
X394991Y263750D01*
Y279152D01*
X403542Y287702D01*
X404266Y287402D01*
Y287402D01*
X423266D01*
Y294750D01*
X435025Y306510D01*
X436352Y308495D01*
X436817Y310836D01*
Y318650D01*
X439524D01*
X439748Y317523D01*
X441074Y315539D01*
X445001Y311612D01*
X444475Y310342D01*
X441248D01*
Y302342D01*
X453898D01*
X466548D01*
Y309097D01*
X475742D01*
X478083Y309562D01*
X480068Y310888D01*
X488722Y319542D01*
X489895Y319056D01*
D02*
G37*
G36*
X341500Y248500D02*
X341802D01*
X342328Y247230D01*
X336799Y241700D01*
X332450D01*
Y214100D01*
X345450D01*
Y227809D01*
X345568Y228400D01*
Y233166D01*
X353826Y241424D01*
X355152Y243409D01*
X355618Y245750D01*
Y248500D01*
X357500D01*
Y251882D01*
X371164D01*
X372747Y250300D01*
X372782Y250214D01*
X373174Y249704D01*
X372548Y248433D01*
X369824D01*
X367483Y247968D01*
X365498Y246642D01*
X355338Y236482D01*
X354012Y234497D01*
X353546Y232156D01*
Y215640D01*
X347478Y209571D01*
X341306D01*
X340787Y209787D01*
X339090Y210010D01*
X337393Y209787D01*
X335812Y209132D01*
X334454Y208090D01*
X333412Y206732D01*
X332757Y205151D01*
X332534Y203454D01*
X332757Y201757D01*
X333412Y200176D01*
X334454Y198818D01*
X335812Y197776D01*
X337393Y197121D01*
X339090Y196898D01*
X340787Y197121D01*
X341306Y197337D01*
X350012D01*
X352353Y197802D01*
X354338Y199128D01*
X360068Y204858D01*
X361338Y204333D01*
Y178618D01*
Y153218D01*
Y127818D01*
Y102418D01*
Y77018D01*
X362312D01*
X363338Y76430D01*
X363338Y75748D01*
Y67524D01*
X412058D01*
Y75748D01*
X412058Y76430D01*
X413084Y77018D01*
X414058D01*
Y83545D01*
X417049D01*
Y49541D01*
X419592D01*
X420154Y48402D01*
X420026Y48236D01*
X419371Y46655D01*
X419148Y44958D01*
X419371Y43261D01*
X419459Y43048D01*
Y24113D01*
X419117Y23287D01*
X418894Y21590D01*
X419117Y19893D01*
X419772Y18312D01*
X420814Y16954D01*
X422172Y15912D01*
X423753Y15257D01*
X425450Y15034D01*
X427147Y15257D01*
X428728Y15912D01*
X430086Y16954D01*
X431128Y18312D01*
X431783Y19893D01*
X432006Y21590D01*
X431783Y23287D01*
X431694Y23500D01*
Y42435D01*
X432037Y43261D01*
X432260Y44958D01*
X432037Y46655D01*
X431382Y48236D01*
X431254Y48402D01*
X431816Y49541D01*
X437003D01*
Y111659D01*
X417049D01*
Y95779D01*
X414058D01*
Y102418D01*
Y127818D01*
Y153218D01*
Y160483D01*
X466374D01*
X474705Y152152D01*
Y90424D01*
X475170Y88083D01*
X476496Y86098D01*
X481652Y80942D01*
X483637Y79616D01*
X485978Y79151D01*
X487049D01*
Y49541D01*
X507003D01*
Y91385D01*
X508273Y91771D01*
X509008Y90670D01*
X515866Y83812D01*
X517851Y82486D01*
X520192Y82021D01*
X522049D01*
Y49541D01*
X542003D01*
Y109683D01*
X544538D01*
Y102418D01*
X545512D01*
X546538Y101830D01*
Y92924D01*
X570898D01*
Y90424D01*
X573398D01*
Y79018D01*
X594360D01*
Y76430D01*
X573398D01*
Y65024D01*
Y53618D01*
X594360D01*
Y5588D01*
X227412Y5588D01*
Y12438D01*
X221162D01*
Y6938D01*
X216162D01*
Y12438D01*
X209912D01*
Y5588D01*
X159912Y5588D01*
Y12438D01*
X149263D01*
X149137Y13708D01*
X150796Y14038D01*
X152781Y15364D01*
X155710Y18293D01*
X156642Y19688D01*
X157912Y19303D01*
Y17938D01*
X161412D01*
Y25788D01*
Y33638D01*
X157912D01*
X157501Y34738D01*
Y40636D01*
X158641Y41197D01*
X158781Y41089D01*
X160849Y40233D01*
X163068Y39941D01*
X165287Y40233D01*
X167355Y41089D01*
X169130Y42452D01*
X170493Y44227D01*
X171349Y46295D01*
X171641Y48514D01*
X171349Y50733D01*
X170493Y52801D01*
X170142Y53257D01*
Y58621D01*
X174971Y63449D01*
X175238Y63560D01*
X176509Y63023D01*
Y40894D01*
X176974Y38553D01*
X178300Y36568D01*
X192603Y22265D01*
X194588Y20939D01*
X196929Y20473D01*
X197912D01*
Y15938D01*
X213912D01*
Y35638D01*
X213000Y36000D01*
Y54230D01*
X213000Y55000D01*
X213000D01*
Y55500D01*
X213000D01*
Y65848D01*
X216827Y69675D01*
X218000Y69189D01*
Y55500D01*
X218000D01*
Y55000D01*
X218000D01*
Y36000D01*
X234000D01*
Y39383D01*
X283082D01*
X285423Y39848D01*
X287408Y41174D01*
X295184Y48951D01*
X306649D01*
Y111069D01*
X286695D01*
Y57765D01*
X280548Y51617D01*
X271649D01*
Y111069D01*
X251695D01*
Y71118D01*
X234000D01*
Y74500D01*
X223311D01*
X222825Y75673D01*
X223773Y76621D01*
X225099Y78606D01*
X225564Y80947D01*
Y82000D01*
X229000D01*
Y94348D01*
X231148Y96496D01*
X232474Y98481D01*
X232939Y100822D01*
Y122678D01*
X232474Y125019D01*
X231148Y127004D01*
X226825Y131327D01*
X227311Y132500D01*
X236500D01*
Y132647D01*
X236552D01*
X238600Y133055D01*
X240337Y134215D01*
X243053Y136931D01*
X244213Y138668D01*
X244280Y139003D01*
X245550Y138877D01*
Y137600D01*
X250050D01*
X254550D01*
Y146098D01*
X258250D01*
Y137600D01*
X262750D01*
X267250D01*
Y146098D01*
X268950D01*
Y121300D01*
X320050D01*
Y148900D01*
X306968D01*
Y159398D01*
X306502Y161739D01*
X305176Y163724D01*
X294074Y174826D01*
X292089Y176152D01*
X289748Y176618D01*
X274761D01*
X274493Y177817D01*
X276074Y178472D01*
X277432Y179514D01*
X278474Y180872D01*
X279129Y182453D01*
X279352Y184150D01*
X279129Y185847D01*
X278474Y187428D01*
X277432Y188786D01*
X276074Y189828D01*
X274493Y190483D01*
X272796Y190706D01*
X271099Y190483D01*
X269518Y189828D01*
X268160Y188786D01*
X267118Y187428D01*
X266463Y185847D01*
X266240Y184150D01*
X266463Y182453D01*
X267118Y180872D01*
X268160Y179514D01*
X269518Y178472D01*
X271099Y177817D01*
X270831Y176618D01*
X238500D01*
Y178500D01*
X231000D01*
X223500D01*
Y176618D01*
X219000D01*
Y178500D01*
X211500D01*
Y181000D01*
X209000D01*
Y187000D01*
X204237D01*
Y190546D01*
X205000Y191500D01*
X205508Y191500D01*
X208500D01*
Y199000D01*
Y206500D01*
X205508D01*
X205000Y206500D01*
X204237Y207454D01*
Y207470D01*
X207220Y210452D01*
X207278Y210476D01*
X208636Y211518D01*
X209550Y212710D01*
Y212767D01*
X209842Y213273D01*
X210168Y214060D01*
X210389Y214883D01*
X210500Y215728D01*
Y216580D01*
X210389Y217425D01*
X210168Y218248D01*
X209842Y219035D01*
X209416Y219773D01*
X208897Y220449D01*
X208295Y221051D01*
X207619Y221570D01*
X206881Y221996D01*
X206094Y222322D01*
X205271Y222543D01*
X204426Y222654D01*
X204216D01*
Y222682D01*
X204000Y222710D01*
X203414Y222633D01*
X202460Y223470D01*
Y232162D01*
X204216Y233918D01*
X215132Y244834D01*
X217170D01*
X219511Y245300D01*
X221496Y246626D01*
X229547Y254678D01*
D01*
X229595Y254725D01*
X229717Y254776D01*
X230455Y255202D01*
X231131Y255721D01*
X231733Y256323D01*
X232252Y256999D01*
X232678Y257737D01*
X233004Y258524D01*
X233225Y259347D01*
X233336Y260192D01*
Y261044D01*
X233225Y261889D01*
X233004Y262712D01*
X232514Y263896D01*
X232328Y264139D01*
X232954Y265408D01*
X322500D01*
Y260500D01*
X334500D01*
Y265408D01*
X341500D01*
Y248500D01*
D02*
G37*
G36*
X718996Y488380D02*
X718652Y487866D01*
X718381Y486500D01*
Y434450D01*
X718652Y433084D01*
X719426Y431927D01*
X720583Y431153D01*
X721949Y430881D01*
X759866D01*
X769332Y421416D01*
Y385920D01*
X768899Y384306D01*
Y382594D01*
X769332Y380980D01*
Y330199D01*
X764723Y325590D01*
X763397Y323606D01*
X762932Y321265D01*
Y267583D01*
X762549Y266156D01*
Y264444D01*
X762765Y263638D01*
X761838Y262367D01*
X752649D01*
X750308Y261902D01*
X748323Y260576D01*
X718123Y230376D01*
X716797Y228391D01*
X716332Y226050D01*
Y217850D01*
Y176133D01*
X715949Y174706D01*
Y172994D01*
X716392Y171341D01*
X717248Y169859D01*
X718458Y168649D01*
X719738Y167910D01*
X733182Y154466D01*
Y78384D01*
X731973Y77176D01*
X730647Y75191D01*
X730182Y72850D01*
Y53350D01*
X730647Y51009D01*
X731973Y49024D01*
X740823Y40174D01*
X742808Y38848D01*
X745149Y38382D01*
X782049D01*
X784390Y38848D01*
X786375Y40174D01*
X802411Y56210D01*
X803690Y56949D01*
X804900Y58159D01*
X805756Y59641D01*
X806199Y61294D01*
Y63006D01*
X805756Y64659D01*
X804900Y66141D01*
X803690Y67351D01*
X802208Y68207D01*
X800555Y68650D01*
X798843D01*
X797190Y68207D01*
X795708Y67351D01*
X794498Y66141D01*
X793759Y64861D01*
X779515Y50618D01*
X747683D01*
X742930Y55370D01*
X743597Y56500D01*
X767269D01*
Y62971D01*
X768287D01*
X770629Y63436D01*
X772613Y64763D01*
X791325Y83474D01*
X792651Y85459D01*
X793117Y87800D01*
Y116566D01*
X799139Y122589D01*
X823160D01*
X824587Y122206D01*
X826299D01*
X827952Y122649D01*
X829434Y123505D01*
X830644Y124715D01*
X831500Y126197D01*
X831638Y126713D01*
X833055Y127093D01*
X847973Y112174D01*
X849958Y110848D01*
X852299Y110382D01*
X1000279D01*
Y107300D01*
X1024279D01*
Y111058D01*
X1037878D01*
X1037990Y110993D01*
X1039643Y110550D01*
X1041355D01*
X1043008Y110993D01*
X1044490Y111849D01*
X1045700Y113059D01*
X1046556Y114541D01*
X1046999Y116194D01*
Y117906D01*
X1046556Y119559D01*
X1045700Y121041D01*
X1044490Y122251D01*
X1043008Y123107D01*
X1041355Y123550D01*
X1039643D01*
X1038683Y123293D01*
X1024279D01*
Y127300D01*
X1003416D01*
X1002737Y128570D01*
X1002812Y128682D01*
X1010949D01*
X1013290Y129148D01*
X1015275Y130474D01*
X1018301Y133500D01*
X1052099D01*
Y5450D01*
X892429D01*
X892346Y6720D01*
X892887Y6791D01*
X894600Y7501D01*
X896070Y8629D01*
X897199Y10100D01*
X897908Y11812D01*
X898150Y13650D01*
Y14650D01*
X891049D01*
X883948D01*
Y13650D01*
X884190Y11812D01*
X884900Y10100D01*
X886028Y8629D01*
X887499Y7501D01*
X889211Y6791D01*
X889752Y6720D01*
X889669Y5450D01*
X826429D01*
X826346Y6720D01*
X826887Y6791D01*
X828599Y7501D01*
X830070Y8629D01*
X831199Y10100D01*
X831908Y11812D01*
X832150Y13650D01*
Y14650D01*
X825049D01*
X817948D01*
Y13650D01*
X818190Y11812D01*
X818900Y10100D01*
X820028Y8629D01*
X821499Y7501D01*
X823211Y6791D01*
X823752Y6720D01*
X823669Y5450D01*
X720439D01*
Y7218D01*
X727427Y14206D01*
X728020Y14549D01*
X729230Y15759D01*
X730086Y17241D01*
X730529Y18894D01*
Y20606D01*
X730086Y22259D01*
X729230Y23741D01*
X728020Y24951D01*
X726538Y25807D01*
X724885Y26250D01*
X723173D01*
X721520Y25807D01*
X720038Y24951D01*
X718828Y23741D01*
X717972Y22259D01*
X717897Y21980D01*
X711788Y15870D01*
X703439D01*
Y5450D01*
X692439D01*
Y15870D01*
X690602D01*
X689888Y17140D01*
X690219Y18374D01*
Y20086D01*
X689776Y21739D01*
X688920Y23221D01*
X687710Y24431D01*
X686228Y25287D01*
X684575Y25730D01*
X682863D01*
X681210Y25287D01*
X679728Y24431D01*
X679719Y24422D01*
X678449Y24948D01*
Y74114D01*
X679719Y75058D01*
X680493Y74850D01*
X680956D01*
X681241Y74565D01*
X682977Y73405D01*
X685026Y72997D01*
X685699D01*
Y71100D01*
X712699D01*
Y71997D01*
X718846D01*
X720871Y72400D01*
X725899D01*
Y82400D01*
X725439D01*
Y82401D01*
X720368D01*
X719899Y82494D01*
Y84400D01*
X717399D01*
Y88940D01*
X714359D01*
Y82703D01*
X712699D01*
Y83600D01*
X698716D01*
X698199Y83703D01*
X687448D01*
X687406Y83859D01*
X686550Y85341D01*
X685340Y86551D01*
X683858Y87407D01*
X682205Y87850D01*
X680493D01*
X679719Y87642D01*
X678449Y88586D01*
Y239819D01*
X678880Y240150D01*
X681118D01*
X683280Y240729D01*
X683766Y241010D01*
X689332D01*
Y239083D01*
X688949Y237656D01*
Y235944D01*
X689392Y234291D01*
X690248Y232809D01*
X691458Y231599D01*
X692940Y230743D01*
X694593Y230300D01*
X696305D01*
X697958Y230743D01*
X699440Y231599D01*
X700650Y232809D01*
X701506Y234291D01*
X701949Y235944D01*
Y237656D01*
X701567Y239083D01*
Y241010D01*
X712449D01*
Y242200D01*
X712899D01*
Y255200D01*
X712449D01*
Y262200D01*
X712899D01*
Y275200D01*
X712449D01*
X712449Y292200D01*
X712899D01*
Y302200D01*
Y312200D01*
Y322200D01*
Y332200D01*
Y342200D01*
Y352200D01*
Y362200D01*
Y372200D01*
Y382200D01*
Y392200D01*
Y402200D01*
Y412200D01*
Y425200D01*
X712449D01*
Y432200D01*
X712899D01*
Y445200D01*
X712449D01*
Y452200D01*
X712899D01*
Y465200D01*
X712449D01*
Y489650D01*
X718317D01*
X718996Y488380D01*
D02*
G37*
G36*
X594360Y594360D02*
X594360Y560000D01*
X594360Y205430D01*
X544538D01*
Y198118D01*
X505944D01*
X503603Y197652D01*
X501618Y196326D01*
X491990Y186698D01*
X490664Y184713D01*
X490199Y182372D01*
Y130302D01*
X490664Y127961D01*
X491990Y125976D01*
X505134Y112832D01*
X504648Y111659D01*
X487049D01*
X486940Y112884D01*
Y154686D01*
X486474Y157027D01*
X485148Y159012D01*
X473234Y170926D01*
X471249Y172252D01*
X468908Y172718D01*
X414058D01*
Y178618D01*
Y205430D01*
X362435D01*
X361909Y206700D01*
X363990Y208780D01*
X365316Y210765D01*
X365782Y213106D01*
Y229622D01*
X369841Y233682D01*
X371044Y233089D01*
X370888Y231902D01*
X371111Y230205D01*
X371766Y228624D01*
X372808Y227266D01*
X374166Y226224D01*
X375747Y225569D01*
X377444Y225346D01*
X378613Y225500D01*
X379487Y224528D01*
X379531Y224396D01*
X379239Y223693D01*
X379016Y221996D01*
X379239Y220299D01*
X379894Y218718D01*
X380936Y217360D01*
X382294Y216318D01*
X383875Y215663D01*
X385572Y215440D01*
X387269Y215663D01*
X387788Y215879D01*
X468630D01*
X470971Y216344D01*
X472956Y217670D01*
X489720Y234434D01*
X491046Y236419D01*
X491511Y238760D01*
Y262642D01*
X498904Y270035D01*
X552013D01*
Y289989D01*
X489895D01*
Y278328D01*
X481352Y269785D01*
X480081Y270186D01*
Y286570D01*
X498546Y305035D01*
X552013D01*
Y324989D01*
X497237D01*
X496558Y326259D01*
X496631Y326368D01*
X553974D01*
X556315Y326834D01*
X558300Y328160D01*
X578874Y348734D01*
X580200Y350719D01*
X580666Y353060D01*
Y402844D01*
X580200Y405185D01*
X578874Y407170D01*
X555011Y431032D01*
Y526117D01*
X554546Y528458D01*
X553220Y530443D01*
X521298Y562364D01*
X519314Y563690D01*
X516973Y564156D01*
X463550D01*
X461209Y563690D01*
X459224Y562364D01*
X455174Y558313D01*
X443414D01*
X442895Y558529D01*
X441198Y558752D01*
X439501Y558529D01*
X437920Y557874D01*
X436562Y556832D01*
X435520Y555474D01*
X434865Y553893D01*
X434642Y552196D01*
X434865Y550499D01*
X435520Y548918D01*
X435821Y548526D01*
X435381Y547014D01*
X434618Y546698D01*
X433260Y545656D01*
X432218Y544298D01*
X431563Y542717D01*
X431340Y541020D01*
X431563Y539323D01*
X432218Y537742D01*
X433260Y536384D01*
X434473Y535453D01*
X434448Y534948D01*
X434117Y534184D01*
X417765D01*
X417512Y535453D01*
X419973Y536473D01*
X422323Y538276D01*
X424127Y540626D01*
X425260Y543363D01*
X425647Y546300D01*
X425260Y549237D01*
X424127Y551973D01*
X422323Y554324D01*
X419973Y556127D01*
X417237Y557260D01*
X414300Y557647D01*
X411363Y557260D01*
X408626Y556127D01*
X406276Y554324D01*
X404473Y551973D01*
X403340Y549237D01*
X402953Y546300D01*
X403340Y543363D01*
X404086Y541562D01*
X403009Y540842D01*
X399933Y543918D01*
X400247Y546300D01*
X399860Y549237D01*
X398727Y551973D01*
X396923Y554324D01*
X394574Y556127D01*
X391837Y557260D01*
X388900Y557647D01*
X385963Y557260D01*
X383226Y556127D01*
X380876Y554324D01*
X379073Y551973D01*
X377939Y549237D01*
X377553Y546300D01*
X377939Y543363D01*
X379073Y540626D01*
X380876Y538276D01*
X381002Y538180D01*
X380593Y536978D01*
X371806D01*
X371398Y538180D01*
X371524Y538276D01*
X373327Y540626D01*
X374460Y543363D01*
X374847Y546300D01*
X374460Y549237D01*
X373327Y551973D01*
X371524Y554324D01*
X369174Y556127D01*
X366437Y557260D01*
X363500Y557647D01*
X360563Y557260D01*
X357826Y556127D01*
X355476Y554324D01*
X353673Y551973D01*
X352539Y549237D01*
X352153Y546300D01*
X352539Y543363D01*
X353673Y540626D01*
X355476Y538276D01*
X355602Y538180D01*
X355193Y536978D01*
X346406D01*
X345998Y538180D01*
X346124Y538276D01*
X347927Y540626D01*
X349060Y543363D01*
X349447Y546300D01*
X349060Y549237D01*
X347927Y551973D01*
X346124Y554324D01*
X343773Y556127D01*
X341037Y557260D01*
X338100Y557647D01*
X335163Y557260D01*
X332426Y556127D01*
X330076Y554324D01*
X328273Y551973D01*
X327140Y549237D01*
X326753Y546300D01*
X327140Y543363D01*
X328273Y540626D01*
X330076Y538276D01*
X330202Y538180D01*
X329793Y536978D01*
X321006D01*
X320598Y538180D01*
X320723Y538276D01*
X322527Y540626D01*
X323660Y543363D01*
X324047Y546300D01*
X323660Y549237D01*
X322527Y551973D01*
X320723Y554324D01*
X318374Y556127D01*
X315637Y557260D01*
X312700Y557647D01*
X309763Y557260D01*
X307026Y556127D01*
X304676Y554324D01*
X303022Y552168D01*
X302217Y552266D01*
X301765Y552467D01*
Y594360D01*
X594360Y594360D01*
D02*
G37*
G36*
X776899Y191160D02*
X777899D01*
Y190200D01*
X778281D01*
Y187314D01*
X778192Y187159D01*
X777749Y185506D01*
Y183794D01*
X778192Y182141D01*
X779048Y180659D01*
X780258Y179449D01*
X781740Y178593D01*
X783393Y178150D01*
X785105D01*
X786758Y178593D01*
X788240Y179449D01*
X789224Y180433D01*
X790258Y179399D01*
X791740Y178543D01*
X793393Y178100D01*
X795105D01*
X796758Y178543D01*
X798240Y179399D01*
X799450Y180609D01*
X800306Y182091D01*
X800749Y183744D01*
Y185456D01*
X800367Y186883D01*
Y189450D01*
X818349D01*
X825049Y182750D01*
X825251D01*
X826588Y181857D01*
X828449Y181487D01*
X837770D01*
X838108Y181149D01*
X839590Y180293D01*
X841243Y179850D01*
X842955D01*
X844608Y180293D01*
X846090Y181149D01*
X847300Y182359D01*
X847526Y182750D01*
X848932D01*
X849198Y182289D01*
X850408Y181079D01*
X851890Y180223D01*
X853543Y179780D01*
X855255D01*
X856908Y180223D01*
X858390Y181079D01*
X859600Y182289D01*
X859867Y182750D01*
X971747D01*
X972003Y181945D01*
X971133Y180868D01*
X958719D01*
X957105Y181300D01*
X955393D01*
X953740Y180857D01*
X952258Y180001D01*
X951048Y178791D01*
X950192Y177309D01*
X949749Y175656D01*
Y173944D01*
X950192Y172291D01*
X951048Y170809D01*
X952258Y169599D01*
X953740Y168743D01*
X955393Y168300D01*
X957105D01*
X958345Y168633D01*
X972451D01*
X972476Y145066D01*
X971578Y144167D01*
X867883D01*
X846575Y165476D01*
X844590Y166802D01*
X842249Y167267D01*
X779199D01*
X776858Y166802D01*
X774873Y165476D01*
X754648Y145250D01*
X745417D01*
Y157000D01*
X744951Y159341D01*
X743625Y161326D01*
X740833Y164118D01*
X740933Y190200D01*
X748281D01*
Y177450D01*
X748747Y175109D01*
X750073Y173124D01*
X756009Y167189D01*
X756748Y165909D01*
X757958Y164699D01*
X759440Y163843D01*
X761093Y163400D01*
X762805D01*
X764458Y163843D01*
X765940Y164699D01*
X767150Y165909D01*
X768006Y167391D01*
X768449Y169044D01*
Y170756D01*
X768006Y172409D01*
X767150Y173891D01*
X765940Y175101D01*
X764660Y175840D01*
X760517Y179984D01*
Y190200D01*
X760899D01*
Y191160D01*
X761899D01*
Y203700D01*
X766899D01*
Y191160D01*
X771899D01*
Y203700D01*
X776899D01*
Y191160D01*
D02*
G37*
G36*
X294732Y156864D02*
Y152351D01*
X293463Y151966D01*
X292362Y153613D01*
X289433Y156542D01*
X287448Y157868D01*
X285107Y158334D01*
X248844D01*
X244852Y162326D01*
X243674Y163112D01*
X244060Y164382D01*
X287214D01*
X294732Y156864D01*
D02*
G37*
G36*
X203734Y122068D02*
X204500Y121396D01*
Y117000D01*
X211000D01*
X217500D01*
Y121552D01*
X218770Y122079D01*
X220704Y120144D01*
Y103356D01*
X220348Y103000D01*
X212000D01*
Y82151D01*
X204349Y74500D01*
X198904D01*
Y79252D01*
X201651Y82000D01*
X210000D01*
Y103000D01*
X200837D01*
Y121646D01*
X201772Y122270D01*
X202107Y122282D01*
X203734Y122068D01*
D02*
G37*
%LPC*%
G36*
X957849Y581683D02*
X956377Y581289D01*
X954031Y579934D01*
X952115Y578018D01*
X950760Y575672D01*
X950366Y574200D01*
X957849D01*
Y581683D01*
D02*
G37*
G36*
X937449D02*
Y574200D01*
X944932D01*
X944538Y575672D01*
X943183Y578018D01*
X941267Y579934D01*
X938921Y581289D01*
X937449Y581683D01*
D02*
G37*
G36*
X932449D02*
X930977Y581289D01*
X928631Y579934D01*
X926715Y578018D01*
X925360Y575672D01*
X924966Y574200D01*
X932449D01*
Y581683D01*
D02*
G37*
G36*
X912049D02*
Y574200D01*
X919532D01*
X919138Y575672D01*
X917783Y578018D01*
X915867Y579934D01*
X913521Y581289D01*
X912049Y581683D01*
D02*
G37*
G36*
X907049D02*
X905577Y581289D01*
X903231Y579934D01*
X901315Y578018D01*
X899960Y575672D01*
X899566Y574200D01*
X907049D01*
Y581683D01*
D02*
G37*
G36*
X886649D02*
Y574200D01*
X894132D01*
X893738Y575672D01*
X892383Y578018D01*
X890467Y579934D01*
X888121Y581289D01*
X886649Y581683D01*
D02*
G37*
G36*
X881649D02*
X880177Y581289D01*
X877831Y579934D01*
X875915Y578018D01*
X874560Y575672D01*
X874166Y574200D01*
X881649D01*
Y581683D01*
D02*
G37*
G36*
X862624Y582116D02*
X861249D01*
Y574200D01*
X869165D01*
Y575575D01*
X868667Y578078D01*
X867249Y580200D01*
X865127Y581618D01*
X862624Y582116D01*
D02*
G37*
G36*
X856249D02*
X854874D01*
X852371Y581618D01*
X850249Y580200D01*
X848831Y578078D01*
X848334Y575575D01*
Y574200D01*
X856249D01*
Y582116D01*
D02*
G37*
G36*
X957849Y569200D02*
X950366D01*
X950760Y567728D01*
X952115Y565382D01*
X954031Y563466D01*
X956377Y562111D01*
X957849Y561717D01*
Y569200D01*
D02*
G37*
G36*
X944932D02*
X937449D01*
Y561717D01*
X938921Y562111D01*
X941267Y563466D01*
X943183Y565382D01*
X944538Y567728D01*
X944932Y569200D01*
D02*
G37*
G36*
X932449D02*
X924966D01*
X925360Y567728D01*
X926715Y565382D01*
X928631Y563466D01*
X930977Y562111D01*
X932449Y561717D01*
Y569200D01*
D02*
G37*
G36*
X919532D02*
X912049D01*
Y561717D01*
X913521Y562111D01*
X915867Y563466D01*
X917783Y565382D01*
X919138Y567728D01*
X919532Y569200D01*
D02*
G37*
G36*
X907049D02*
X899566D01*
X899960Y567728D01*
X901315Y565382D01*
X903231Y563466D01*
X905577Y562111D01*
X907049Y561717D01*
Y569200D01*
D02*
G37*
G36*
X894132D02*
X886649D01*
Y561717D01*
X888121Y562111D01*
X890467Y563466D01*
X892383Y565382D01*
X893738Y567728D01*
X894132Y569200D01*
D02*
G37*
G36*
X881649D02*
X874166D01*
X874560Y567728D01*
X875915Y565382D01*
X877831Y563466D01*
X880177Y562111D01*
X881649Y561717D01*
Y569200D01*
D02*
G37*
G36*
X869165D02*
X861249D01*
Y561284D01*
X862624D01*
X865127Y561782D01*
X867249Y563200D01*
X868667Y565322D01*
X869165Y567825D01*
Y569200D01*
D02*
G37*
G36*
X856249D02*
X848334D01*
Y567825D01*
X848831Y565322D01*
X850249Y563200D01*
X852371Y561782D01*
X854874Y561284D01*
X856249D01*
Y569200D01*
D02*
G37*
G36*
X936430Y557550D02*
X933468D01*
X930607Y556783D01*
X928042Y555302D01*
X925947Y553208D01*
X924466Y550642D01*
X923699Y547781D01*
Y544819D01*
X924466Y541958D01*
X925947Y539392D01*
X928042Y537298D01*
X930607Y535817D01*
X933468Y535050D01*
X936430D01*
X939292Y535817D01*
X941857Y537298D01*
X943951Y539392D01*
X945432Y541958D01*
X946199Y544819D01*
Y547781D01*
X945432Y550642D01*
X943951Y553208D01*
X941857Y555302D01*
X939292Y556783D01*
X936430Y557550D01*
D02*
G37*
G36*
X911030D02*
X908068D01*
X905207Y556783D01*
X902642Y555302D01*
X900547Y553208D01*
X899066Y550642D01*
X898299Y547781D01*
Y544819D01*
X899066Y541958D01*
X900547Y539392D01*
X902642Y537298D01*
X905207Y535817D01*
X908068Y535050D01*
X911030D01*
X913892Y535817D01*
X916457Y537298D01*
X918551Y539392D01*
X920032Y541958D01*
X920799Y544819D01*
Y547781D01*
X920032Y550642D01*
X918551Y553208D01*
X916457Y555302D01*
X913892Y556783D01*
X911030Y557550D01*
D02*
G37*
G36*
X885630D02*
X882668D01*
X879807Y556783D01*
X877242Y555302D01*
X875147Y553208D01*
X873666Y550642D01*
X872899Y547781D01*
Y544819D01*
X873666Y541958D01*
X875147Y539392D01*
X877242Y537298D01*
X879807Y535817D01*
X882668Y535050D01*
X885630D01*
X888492Y535817D01*
X891057Y537298D01*
X893151Y539392D01*
X894632Y541958D01*
X895399Y544819D01*
Y547781D01*
X894632Y550642D01*
X893151Y553208D01*
X891057Y555302D01*
X888492Y556783D01*
X885630Y557550D01*
D02*
G37*
G36*
X860230D02*
X857268D01*
X854407Y556783D01*
X851842Y555302D01*
X849747Y553208D01*
X848266Y550642D01*
X847499Y547781D01*
Y544819D01*
X848266Y541958D01*
X849747Y539392D01*
X851842Y537298D01*
X854407Y535817D01*
X857268Y535050D01*
X860230D01*
X863092Y535817D01*
X865657Y537298D01*
X867751Y539392D01*
X869232Y541958D01*
X869999Y544819D01*
Y547781D01*
X869232Y550642D01*
X867751Y553208D01*
X865657Y555302D01*
X863092Y556783D01*
X860230Y557550D01*
D02*
G37*
G36*
X1145039Y588040D02*
X1134249D01*
Y575750D01*
X1145039D01*
Y588040D01*
D02*
G37*
G36*
X1129249D02*
X1118459D01*
Y575750D01*
X1129249D01*
Y588040D01*
D02*
G37*
G36*
X1089849Y581683D02*
Y574200D01*
X1097332D01*
X1096938Y575672D01*
X1095583Y578018D01*
X1093667Y579934D01*
X1091321Y581289D01*
X1089849Y581683D01*
D02*
G37*
G36*
X1084849D02*
X1083377Y581289D01*
X1081031Y579934D01*
X1079115Y578018D01*
X1077760Y575672D01*
X1077366Y574200D01*
X1084849D01*
Y581683D01*
D02*
G37*
G36*
X1064449D02*
Y574200D01*
X1071932D01*
X1071538Y575672D01*
X1070183Y578018D01*
X1068267Y579934D01*
X1065921Y581289D01*
X1064449Y581683D01*
D02*
G37*
G36*
X1059449D02*
X1057977Y581289D01*
X1055631Y579934D01*
X1053715Y578018D01*
X1052360Y575672D01*
X1051966Y574200D01*
X1059449D01*
Y581683D01*
D02*
G37*
G36*
X1039049D02*
Y574200D01*
X1046532D01*
X1046138Y575672D01*
X1044783Y578018D01*
X1042867Y579934D01*
X1040521Y581289D01*
X1039049Y581683D01*
D02*
G37*
G36*
X1034049D02*
X1032577Y581289D01*
X1030231Y579934D01*
X1028315Y578018D01*
X1026960Y575672D01*
X1026566Y574200D01*
X1034049D01*
Y581683D01*
D02*
G37*
G36*
X1013649D02*
Y574200D01*
X1021132D01*
X1020738Y575672D01*
X1019383Y578018D01*
X1017467Y579934D01*
X1015121Y581289D01*
X1013649Y581683D01*
D02*
G37*
G36*
X1008649D02*
X1007177Y581289D01*
X1004831Y579934D01*
X1002915Y578018D01*
X1001560Y575672D01*
X1001166Y574200D01*
X1008649D01*
Y581683D01*
D02*
G37*
G36*
X988249D02*
Y574200D01*
X995732D01*
X995338Y575672D01*
X993983Y578018D01*
X992067Y579934D01*
X989721Y581289D01*
X988249Y581683D01*
D02*
G37*
G36*
X1097332Y569200D02*
X1089849D01*
Y561717D01*
X1091321Y562111D01*
X1093667Y563466D01*
X1095583Y565382D01*
X1096938Y567728D01*
X1097332Y569200D01*
D02*
G37*
G36*
X1084849D02*
X1077366D01*
X1077760Y567728D01*
X1079115Y565382D01*
X1081031Y563466D01*
X1083377Y562111D01*
X1084849Y561717D01*
Y569200D01*
D02*
G37*
G36*
X1071932D02*
X1064449D01*
Y561717D01*
X1065921Y562111D01*
X1068267Y563466D01*
X1070183Y565382D01*
X1071538Y567728D01*
X1071932Y569200D01*
D02*
G37*
G36*
X1059449D02*
X1051966D01*
X1052360Y567728D01*
X1053715Y565382D01*
X1055631Y563466D01*
X1057977Y562111D01*
X1059449Y561717D01*
Y569200D01*
D02*
G37*
G36*
X1046532D02*
X1039049D01*
Y561717D01*
X1040521Y562111D01*
X1042867Y563466D01*
X1044783Y565382D01*
X1046138Y567728D01*
X1046532Y569200D01*
D02*
G37*
G36*
X1034049D02*
X1026566D01*
X1026960Y567728D01*
X1028315Y565382D01*
X1030231Y563466D01*
X1032577Y562111D01*
X1034049Y561717D01*
Y569200D01*
D02*
G37*
G36*
X1021132D02*
X1013649D01*
Y561717D01*
X1015121Y562111D01*
X1017467Y563466D01*
X1019383Y565382D01*
X1020738Y567728D01*
X1021132Y569200D01*
D02*
G37*
G36*
X1008649D02*
X1001166D01*
X1001560Y567728D01*
X1002915Y565382D01*
X1004831Y563466D01*
X1007177Y562111D01*
X1008649Y561717D01*
Y569200D01*
D02*
G37*
G36*
X995732D02*
X988249D01*
Y561717D01*
X989721Y562111D01*
X992067Y563466D01*
X993983Y565382D01*
X995338Y567728D01*
X995732Y569200D01*
D02*
G37*
G36*
X1145039Y570750D02*
X1134249D01*
Y558460D01*
X1145039D01*
Y570750D01*
D02*
G37*
G36*
X1129249D02*
X1118459D01*
Y558460D01*
X1129249D01*
Y570750D01*
D02*
G37*
G36*
X1088830Y557550D02*
X1085868D01*
X1083007Y556783D01*
X1080442Y555302D01*
X1078347Y553208D01*
X1076866Y550642D01*
X1076099Y547781D01*
Y544819D01*
X1076866Y541958D01*
X1078347Y539392D01*
X1080442Y537298D01*
X1083007Y535817D01*
X1085868Y535050D01*
X1088830D01*
X1091692Y535817D01*
X1094257Y537298D01*
X1096351Y539392D01*
X1097832Y541958D01*
X1098599Y544819D01*
Y547781D01*
X1097832Y550642D01*
X1096351Y553208D01*
X1094257Y555302D01*
X1091692Y556783D01*
X1088830Y557550D01*
D02*
G37*
G36*
X289800Y580606D02*
Y574200D01*
X296206D01*
X295919Y575270D01*
X294702Y577379D01*
X292980Y579102D01*
X290870Y580320D01*
X289800Y580606D01*
D02*
G37*
G36*
X284800D02*
X283730Y580320D01*
X281620Y579102D01*
X279898Y577379D01*
X278680Y575270D01*
X278393Y574200D01*
X284800D01*
Y580606D01*
D02*
G37*
G36*
X264400D02*
Y574200D01*
X270806D01*
X270520Y575270D01*
X269302Y577379D01*
X267579Y579102D01*
X265470Y580320D01*
X264400Y580606D01*
D02*
G37*
G36*
X259400D02*
X258330Y580320D01*
X256220Y579102D01*
X254498Y577379D01*
X253280Y575270D01*
X252994Y574200D01*
X259400D01*
Y580606D01*
D02*
G37*
G36*
X239000D02*
Y574200D01*
X245406D01*
X245119Y575270D01*
X243902Y577379D01*
X242180Y579102D01*
X240070Y580320D01*
X239000Y580606D01*
D02*
G37*
G36*
X234000D02*
X232930Y580320D01*
X230820Y579102D01*
X229098Y577379D01*
X227880Y575270D01*
X227593Y574200D01*
X234000D01*
Y580606D01*
D02*
G37*
G36*
X213600D02*
Y574200D01*
X220006D01*
X219720Y575270D01*
X218502Y577379D01*
X216779Y579102D01*
X214670Y580320D01*
X213600Y580606D01*
D02*
G37*
G36*
X208600D02*
X207530Y580320D01*
X205420Y579102D01*
X203698Y577379D01*
X202480Y575270D01*
X202194Y574200D01*
X208600D01*
Y580606D01*
D02*
G37*
G36*
X188200D02*
Y574200D01*
X194606D01*
X194319Y575270D01*
X193102Y577379D01*
X191380Y579102D01*
X189270Y580320D01*
X188200Y580606D01*
D02*
G37*
G36*
X183200D02*
X182130Y580320D01*
X180020Y579102D01*
X178298Y577379D01*
X177080Y575270D01*
X176793Y574200D01*
X183200D01*
Y580606D01*
D02*
G37*
G36*
X296206Y569200D02*
X289800D01*
Y562794D01*
X290870Y563080D01*
X292980Y564298D01*
X294702Y566020D01*
X295919Y568130D01*
X296206Y569200D01*
D02*
G37*
G36*
X284800D02*
X278393D01*
X278680Y568130D01*
X279898Y566020D01*
X281620Y564298D01*
X283730Y563080D01*
X284800Y562794D01*
Y569200D01*
D02*
G37*
G36*
X270806D02*
X264400D01*
Y562794D01*
X265470Y563080D01*
X267579Y564298D01*
X269302Y566020D01*
X270520Y568130D01*
X270806Y569200D01*
D02*
G37*
G36*
X259400D02*
X252994D01*
X253280Y568130D01*
X254498Y566020D01*
X256220Y564298D01*
X258330Y563080D01*
X259400Y562794D01*
Y569200D01*
D02*
G37*
G36*
X245406D02*
X239000D01*
Y562794D01*
X240070Y563080D01*
X242180Y564298D01*
X243902Y566020D01*
X245119Y568130D01*
X245406Y569200D01*
D02*
G37*
G36*
X234000D02*
X227593D01*
X227880Y568130D01*
X229098Y566020D01*
X230820Y564298D01*
X232930Y563080D01*
X234000Y562794D01*
Y569200D01*
D02*
G37*
G36*
X220006D02*
X213600D01*
Y562794D01*
X214670Y563080D01*
X216779Y564298D01*
X218502Y566020D01*
X219720Y568130D01*
X220006Y569200D01*
D02*
G37*
G36*
X208600D02*
X202194D01*
X202480Y568130D01*
X203698Y566020D01*
X205420Y564298D01*
X207530Y563080D01*
X208600Y562794D01*
Y569200D01*
D02*
G37*
G36*
X194606D02*
X188200D01*
Y562794D01*
X189270Y563080D01*
X191380Y564298D01*
X193102Y566020D01*
X194319Y568130D01*
X194606Y569200D01*
D02*
G37*
G36*
X183200D02*
X176793D01*
X177080Y568130D01*
X178298Y566020D01*
X180020Y564298D01*
X182130Y563080D01*
X183200Y562794D01*
Y569200D01*
D02*
G37*
G36*
X748819Y594283D02*
Y582990D01*
X760112D01*
X759337Y585882D01*
X757498Y589068D01*
X754897Y591669D01*
X751711Y593508D01*
X748819Y594283D01*
D02*
G37*
G36*
X698019D02*
Y582990D01*
X709312D01*
X708537Y585882D01*
X706698Y589068D01*
X704097Y591669D01*
X700911Y593508D01*
X698019Y594283D01*
D02*
G37*
G36*
X743819D02*
X740927Y593508D01*
X737741Y591669D01*
X735140Y589068D01*
X733301Y585882D01*
X732526Y582990D01*
X743819D01*
Y594283D01*
D02*
G37*
G36*
X693019D02*
X690127Y593508D01*
X686941Y591669D01*
X684340Y589068D01*
X682501Y585882D01*
X681726Y582990D01*
X693019D01*
Y594283D01*
D02*
G37*
G36*
X760112Y577990D02*
X748819D01*
Y566697D01*
X751711Y567472D01*
X754897Y569311D01*
X757498Y571912D01*
X759337Y575098D01*
X760112Y577990D01*
D02*
G37*
G36*
X709312D02*
X698019D01*
Y566697D01*
X700911Y567472D01*
X704097Y569311D01*
X706698Y571912D01*
X708537Y575098D01*
X709312Y577990D01*
D02*
G37*
G36*
X743819D02*
X732526D01*
X733301Y575098D01*
X735140Y571912D01*
X737741Y569311D01*
X740927Y567472D01*
X743819Y566697D01*
Y577990D01*
D02*
G37*
G36*
X693019D02*
X681726D01*
X682501Y575098D01*
X684340Y571912D01*
X686941Y569311D01*
X690127Y567472D01*
X693019Y566697D01*
Y577990D01*
D02*
G37*
G36*
X748819Y543483D02*
Y532190D01*
X760112D01*
X759337Y535082D01*
X757498Y538268D01*
X754897Y540869D01*
X751711Y542708D01*
X748819Y543483D01*
D02*
G37*
G36*
X698019D02*
Y532190D01*
X709312D01*
X708537Y535082D01*
X706698Y538268D01*
X704097Y540869D01*
X700911Y542708D01*
X698019Y543483D01*
D02*
G37*
G36*
X743819D02*
X740927Y542708D01*
X737741Y540869D01*
X735140Y538268D01*
X733301Y535082D01*
X732526Y532190D01*
X743819D01*
Y543483D01*
D02*
G37*
G36*
X693019D02*
X690127Y542708D01*
X686941Y540869D01*
X684340Y538268D01*
X682501Y535082D01*
X681726Y532190D01*
X693019D01*
Y543483D01*
D02*
G37*
G36*
X709312Y527190D02*
X698019D01*
Y515897D01*
X700911Y516672D01*
X704097Y518511D01*
X706698Y521112D01*
X708537Y524298D01*
X709312Y527190D01*
D02*
G37*
G36*
X693019D02*
X681726D01*
X682501Y524298D01*
X684340Y521112D01*
X686941Y518511D01*
X690127Y516672D01*
X693019Y515897D01*
Y527190D01*
D02*
G37*
G36*
X769939Y516240D02*
X766899D01*
Y503700D01*
Y491160D01*
X768859D01*
Y491160D01*
X771899D01*
Y503700D01*
Y516240D01*
X769939D01*
Y516240D01*
D02*
G37*
G36*
X1145039Y545040D02*
X1134249D01*
Y532750D01*
X1145039D01*
Y545040D01*
D02*
G37*
G36*
X1129249D02*
X1118459D01*
Y532750D01*
X1129249D01*
Y545040D01*
D02*
G37*
G36*
X1145039Y527750D02*
X1134249D01*
Y515460D01*
X1145039D01*
Y527750D01*
D02*
G37*
G36*
X1129249D02*
X1118459D01*
Y515460D01*
X1129249D01*
Y527750D01*
D02*
G37*
G36*
X1246949Y381340D02*
X1230909D01*
Y354300D01*
X1246949D01*
Y381340D01*
D02*
G37*
G36*
Y349300D02*
X1230909D01*
Y322260D01*
X1246949D01*
Y349300D01*
D02*
G37*
G36*
X89622Y520553D02*
Y513548D01*
X96627D01*
X96621Y513593D01*
X95639Y515965D01*
X94076Y518002D01*
X92039Y519565D01*
X89667Y520547D01*
X89622Y520553D01*
D02*
G37*
G36*
X84622D02*
X84577Y520547D01*
X82205Y519565D01*
X80168Y518002D01*
X78605Y515965D01*
X77623Y513593D01*
X77617Y513548D01*
X84622D01*
Y520553D01*
D02*
G37*
G36*
X96627Y508548D02*
X89622D01*
Y501543D01*
X89667Y501549D01*
X92039Y502531D01*
X94076Y504094D01*
X95639Y506131D01*
X96621Y508503D01*
X96627Y508548D01*
D02*
G37*
G36*
X84622D02*
X77617D01*
X77623Y508503D01*
X78605Y506131D01*
X80168Y504094D01*
X82205Y502531D01*
X84577Y501549D01*
X84622Y501543D01*
Y508548D01*
D02*
G37*
G36*
X109069Y382881D02*
X82510D01*
Y377404D01*
X109069D01*
Y382881D01*
D02*
G37*
G36*
X77510D02*
X50951D01*
Y377404D01*
X77510D01*
Y382881D01*
D02*
G37*
G36*
X109069Y372404D02*
X82510D01*
Y366927D01*
X109069D01*
Y372404D01*
D02*
G37*
G36*
X77510D02*
X50951D01*
Y366927D01*
X77510D01*
Y372404D01*
D02*
G37*
G36*
X79756Y361394D02*
X78059Y361171D01*
X76478Y360516D01*
X75120Y359474D01*
X74078Y358116D01*
X73423Y356535D01*
X73200Y354838D01*
X73423Y353141D01*
X73639Y352622D01*
Y349881D01*
X48951D01*
Y329927D01*
X102503D01*
X105624Y326806D01*
X105003Y325307D01*
X104711Y323088D01*
X105003Y320869D01*
X105859Y318801D01*
X107222Y317026D01*
X108997Y315663D01*
X111065Y314807D01*
X113284Y314515D01*
X115503Y314807D01*
X117571Y315663D01*
X119346Y317026D01*
X120709Y318801D01*
X121565Y320869D01*
X121857Y323088D01*
X121565Y325307D01*
X120709Y327375D01*
X119346Y329150D01*
X118190Y330038D01*
X117979Y331096D01*
X116653Y333080D01*
X111069Y338664D01*
Y349881D01*
X85873D01*
Y352622D01*
X86089Y353141D01*
X86312Y354838D01*
X86089Y356535D01*
X85434Y358116D01*
X84392Y359474D01*
X83034Y360516D01*
X81453Y361171D01*
X79756Y361394D01*
D02*
G37*
G36*
X138026Y310704D02*
X135901D01*
Y307554D01*
X138026D01*
Y310704D01*
D02*
G37*
G36*
X130901D02*
X128776D01*
Y307554D01*
X130901D01*
Y310704D01*
D02*
G37*
G36*
Y302554D02*
X128776D01*
Y299404D01*
X130901D01*
Y302554D01*
D02*
G37*
G36*
X109095Y259945D02*
X82536D01*
Y254468D01*
X109095D01*
Y259945D01*
D02*
G37*
G36*
X77536D02*
X50977D01*
Y254468D01*
X77536D01*
Y259945D01*
D02*
G37*
G36*
X109095Y249468D02*
X82536D01*
Y243991D01*
X109095D01*
Y249468D01*
D02*
G37*
G36*
X77536D02*
X50977D01*
Y243991D01*
X77536D01*
Y249468D01*
D02*
G37*
G36*
X130875Y245150D02*
X128750D01*
Y242000D01*
X130875D01*
Y245150D01*
D02*
G37*
G36*
Y237000D02*
X128750D01*
Y233850D01*
X130875D01*
Y237000D01*
D02*
G37*
G36*
X138000Y222452D02*
X135875D01*
Y219302D01*
X138000D01*
Y222452D01*
D02*
G37*
G36*
X130875D02*
X128750D01*
Y219302D01*
X130875D01*
Y222452D01*
D02*
G37*
G36*
X138000Y214302D02*
X135875D01*
Y211152D01*
X138000D01*
Y214302D01*
D02*
G37*
G36*
X130875D02*
X128750D01*
Y211152D01*
X130875D01*
Y214302D01*
D02*
G37*
G36*
X109069Y172061D02*
X82510D01*
Y166584D01*
X109069D01*
Y172061D01*
D02*
G37*
G36*
X77510D02*
X50951D01*
Y166584D01*
X77510D01*
Y172061D01*
D02*
G37*
G36*
X138000Y166580D02*
X135875D01*
Y163430D01*
X138000D01*
Y166580D01*
D02*
G37*
G36*
X130875D02*
X128750D01*
Y163430D01*
X130875D01*
Y166580D01*
D02*
G37*
G36*
X111069Y209061D02*
X48951D01*
Y189107D01*
X111069D01*
Y192533D01*
X126000D01*
Y181917D01*
X124313Y181582D01*
X122328Y180256D01*
X115859Y173787D01*
X115340Y173572D01*
X113982Y172530D01*
X112940Y171172D01*
X112285Y169591D01*
X112062Y167894D01*
X112285Y166197D01*
X112940Y164616D01*
X113982Y163258D01*
X115340Y162216D01*
X116921Y161561D01*
X118618Y161338D01*
X120315Y161561D01*
X121896Y162216D01*
X123254Y163258D01*
X124296Y164616D01*
X124511Y165135D01*
X129188Y169812D01*
X132000D01*
X132591Y169930D01*
X142000D01*
Y188802D01*
Y207802D01*
X126000D01*
Y204768D01*
X111069D01*
Y209061D01*
D02*
G37*
G36*
X109069Y161584D02*
X82510D01*
Y156107D01*
X109069D01*
Y161584D01*
D02*
G37*
G36*
X77510D02*
X50951D01*
Y156107D01*
X77510D01*
Y161584D01*
D02*
G37*
G36*
X138000Y158430D02*
X135875D01*
Y155280D01*
X138000D01*
Y158430D01*
D02*
G37*
G36*
X130875D02*
X128750D01*
Y155280D01*
X130875D01*
Y158430D01*
D02*
G37*
G36*
X116032Y146152D02*
X100032D01*
Y127152D01*
X101915D01*
Y125298D01*
X99603Y122987D01*
X99084Y122772D01*
X97726Y121730D01*
X96684Y120372D01*
X96029Y118791D01*
X95806Y117094D01*
X96029Y115397D01*
X96684Y113816D01*
X97726Y112458D01*
X99084Y111416D01*
X100665Y110761D01*
X102362Y110538D01*
X104059Y110761D01*
X105640Y111416D01*
X106998Y112458D01*
X108040Y113816D01*
X108255Y114335D01*
X112358Y118438D01*
X113684Y120423D01*
X114150Y122764D01*
Y127152D01*
X116032D01*
Y146152D01*
D02*
G37*
G36*
X137032D02*
X121032D01*
Y127152D01*
X122915D01*
Y114432D01*
X116746D01*
Y96932D01*
X135746D01*
Y114432D01*
X135150D01*
Y127152D01*
X137032D01*
Y146152D01*
D02*
G37*
G36*
X133746Y93432D02*
X128746D01*
Y89182D01*
X133746D01*
Y93432D01*
D02*
G37*
G36*
X123746D02*
X118746D01*
Y89182D01*
X123746D01*
Y93432D01*
D02*
G37*
G36*
X49644Y92113D02*
X48394D01*
Y82510D01*
X54997D01*
Y86760D01*
X54589Y88808D01*
X53429Y90545D01*
X51692Y91705D01*
X49644Y92113D01*
D02*
G37*
G36*
X43394D02*
X42144D01*
X40096Y91705D01*
X38359Y90545D01*
X37199Y88808D01*
X36791Y86760D01*
Y82510D01*
X43394D01*
Y92113D01*
D02*
G37*
G36*
X133746Y84182D02*
X128746D01*
Y79932D01*
X133746D01*
Y84182D01*
D02*
G37*
G36*
X123746D02*
X118746D01*
Y79932D01*
X123746D01*
Y84182D01*
D02*
G37*
G36*
X54997Y77510D02*
X48394D01*
Y67907D01*
X49644D01*
X51692Y68315D01*
X53429Y69475D01*
X54589Y71212D01*
X54997Y73260D01*
Y77510D01*
D02*
G37*
G36*
X43394D02*
X36791D01*
Y73260D01*
X37199Y71212D01*
X38359Y69475D01*
X40096Y68315D01*
X42144Y67907D01*
X43394D01*
Y77510D01*
D02*
G37*
G36*
X82644Y42113D02*
X78394D01*
Y35510D01*
X87997D01*
Y36760D01*
X87589Y38808D01*
X86429Y40545D01*
X84692Y41705D01*
X82644Y42113D01*
D02*
G37*
G36*
X73394D02*
X69144D01*
X67095Y41705D01*
X65359Y40545D01*
X64199Y38808D01*
X63791Y36760D01*
Y35510D01*
X73394D01*
Y42113D01*
D02*
G37*
G36*
X509086Y475934D02*
X500086D01*
Y474184D01*
X509086D01*
Y475934D01*
D02*
G37*
G36*
X495086D02*
X486086D01*
Y474184D01*
X495086D01*
Y475934D01*
D02*
G37*
G36*
X509086Y469184D02*
X500086D01*
Y467434D01*
X509086D01*
Y469184D01*
D02*
G37*
G36*
X495086D02*
X486086D01*
Y467434D01*
X495086D01*
Y469184D01*
D02*
G37*
G36*
X392500Y433650D02*
X386850D01*
Y428000D01*
X392500D01*
Y433650D01*
D02*
G37*
G36*
X374150D02*
X368500D01*
Y428000D01*
X374150D01*
Y433650D01*
D02*
G37*
G36*
X355800D02*
X350150D01*
Y428000D01*
X355800D01*
Y433650D01*
D02*
G37*
G36*
X363500D02*
X357850D01*
Y428000D01*
X363500D01*
Y433650D01*
D02*
G37*
G36*
X381850D02*
X376200D01*
Y428000D01*
X381850D01*
Y433650D01*
D02*
G37*
G36*
X345150D02*
X339500D01*
Y428000D01*
X345150D01*
Y433650D01*
D02*
G37*
G36*
X392500Y423000D02*
X386850D01*
Y417350D01*
X392500D01*
Y423000D01*
D02*
G37*
G36*
X381850D02*
X376200D01*
Y417350D01*
X381850D01*
Y423000D01*
D02*
G37*
G36*
X374150D02*
X368500D01*
Y417350D01*
X374150D01*
Y423000D01*
D02*
G37*
G36*
X363500D02*
X357850D01*
Y417350D01*
X363500D01*
Y423000D01*
D02*
G37*
G36*
X355800D02*
X350150D01*
Y417350D01*
X355800D01*
Y423000D01*
D02*
G37*
G36*
X345150D02*
X339500D01*
Y417350D01*
X345150D01*
Y423000D01*
D02*
G37*
G36*
X392500Y415300D02*
X386850D01*
Y409650D01*
X392500D01*
Y415300D01*
D02*
G37*
G36*
X374150D02*
X368500D01*
Y409650D01*
X374150D01*
Y415300D01*
D02*
G37*
G36*
X355800D02*
X350150D01*
Y409650D01*
X355800D01*
Y415300D01*
D02*
G37*
G36*
X363500D02*
X357850D01*
Y409650D01*
X363500D01*
Y415300D01*
D02*
G37*
G36*
X381850D02*
X376200D01*
Y409650D01*
X381850D01*
Y415300D01*
D02*
G37*
G36*
X345150D02*
X339500D01*
Y409650D01*
X345150D01*
Y415300D01*
D02*
G37*
G36*
X392500Y404650D02*
X386850D01*
Y399000D01*
X392500D01*
Y404650D01*
D02*
G37*
G36*
X381850D02*
X376200D01*
Y399000D01*
X381850D01*
Y404650D01*
D02*
G37*
G36*
X374150D02*
X368500D01*
Y399000D01*
X374150D01*
Y404650D01*
D02*
G37*
G36*
X363500D02*
X357850D01*
Y399000D01*
X363500D01*
Y404650D01*
D02*
G37*
G36*
X355800D02*
X350150D01*
Y399000D01*
X355800D01*
Y404650D01*
D02*
G37*
G36*
X345150D02*
X339500D01*
Y399000D01*
X345150D01*
Y404650D01*
D02*
G37*
G36*
X392500Y396950D02*
X386850D01*
Y391300D01*
X392500D01*
Y396950D01*
D02*
G37*
G36*
X374150D02*
X368500D01*
Y391300D01*
X374150D01*
Y396950D01*
D02*
G37*
G36*
X355800D02*
X350150D01*
Y391300D01*
X355800D01*
Y396950D01*
D02*
G37*
G36*
X363500D02*
X357850D01*
Y391300D01*
X363500D01*
Y396950D01*
D02*
G37*
G36*
X381850D02*
X376200D01*
Y391300D01*
X381850D01*
Y396950D01*
D02*
G37*
G36*
X345150D02*
X339500D01*
Y391300D01*
X345150D01*
Y396950D01*
D02*
G37*
G36*
X392500Y386300D02*
X386850D01*
Y380650D01*
X392500D01*
Y386300D01*
D02*
G37*
G36*
X381850D02*
X376200D01*
Y380650D01*
X381850D01*
Y386300D01*
D02*
G37*
G36*
X374150D02*
X368500D01*
Y380650D01*
X374150D01*
Y386300D01*
D02*
G37*
G36*
X363500D02*
X357850D01*
Y380650D01*
X363500D01*
Y386300D01*
D02*
G37*
G36*
X355800D02*
X350150D01*
Y380650D01*
X355800D01*
Y386300D01*
D02*
G37*
G36*
X345150D02*
X339500D01*
Y380650D01*
X345150D01*
Y386300D01*
D02*
G37*
G36*
X1158639Y458940D02*
X1154099D01*
Y452900D01*
X1158639D01*
Y458940D01*
D02*
G37*
G36*
X1176749Y463890D02*
X1171709D01*
Y446850D01*
X1176749D01*
Y463890D01*
D02*
G37*
G36*
X1158639Y447900D02*
X1154099D01*
Y441860D01*
X1158639D01*
Y447900D01*
D02*
G37*
G36*
X1176749Y441850D02*
X1171709D01*
Y424810D01*
X1176749D01*
Y441850D01*
D02*
G37*
G36*
X884439Y484240D02*
X878899D01*
Y476200D01*
X884439D01*
Y484240D01*
D02*
G37*
G36*
X920439D02*
X914899D01*
Y476200D01*
X920439D01*
Y484240D01*
D02*
G37*
G36*
X866439D02*
X860899D01*
Y476200D01*
X866439D01*
Y484240D01*
D02*
G37*
G36*
X848439D02*
X842899D01*
Y476200D01*
X848439D01*
Y484240D01*
D02*
G37*
G36*
X830439D02*
X824899D01*
Y476200D01*
X830439D01*
Y484240D01*
D02*
G37*
G36*
X812439D02*
X806899D01*
Y476200D01*
X812439D01*
Y484240D01*
D02*
G37*
G36*
X794439D02*
X788899D01*
Y476200D01*
X794439D01*
Y484240D01*
D02*
G37*
G36*
X902439D02*
X896899D01*
Y476200D01*
X902439D01*
Y484240D01*
D02*
G37*
G36*
X891899D02*
X886359D01*
Y476200D01*
X891899D01*
Y484240D01*
D02*
G37*
G36*
X909899D02*
X904359D01*
Y476200D01*
X909899D01*
Y484240D01*
D02*
G37*
G36*
X855899D02*
X850359D01*
Y476200D01*
X855899D01*
Y484240D01*
D02*
G37*
G36*
X837899D02*
X832359D01*
Y476200D01*
X837899D01*
Y484240D01*
D02*
G37*
G36*
X819899D02*
X814359D01*
Y476200D01*
X819899D01*
Y484240D01*
D02*
G37*
G36*
X801899D02*
X796359D01*
Y476200D01*
X801899D01*
Y484240D01*
D02*
G37*
G36*
X873899D02*
X868359D01*
Y476200D01*
X873899D01*
Y484240D01*
D02*
G37*
G36*
X920439Y471200D02*
X914899D01*
Y463160D01*
X920439D01*
Y471200D01*
D02*
G37*
G36*
X909899D02*
X904359D01*
Y463160D01*
X909899D01*
Y471200D01*
D02*
G37*
G36*
X902439D02*
X896899D01*
Y463160D01*
X902439D01*
Y471200D01*
D02*
G37*
G36*
X891899D02*
X886359D01*
Y463160D01*
X891899D01*
Y471200D01*
D02*
G37*
G36*
X884439D02*
X878899D01*
Y463160D01*
X884439D01*
Y471200D01*
D02*
G37*
G36*
X873899D02*
X868359D01*
Y463160D01*
X873899D01*
Y471200D01*
D02*
G37*
G36*
X866439D02*
X860899D01*
Y463160D01*
X866439D01*
Y471200D01*
D02*
G37*
G36*
X855899D02*
X850359D01*
Y463160D01*
X855899D01*
Y471200D01*
D02*
G37*
G36*
X848439D02*
X842899D01*
Y463160D01*
X848439D01*
Y471200D01*
D02*
G37*
G36*
X837899D02*
X832359D01*
Y463160D01*
X837899D01*
Y471200D01*
D02*
G37*
G36*
X830439D02*
X824899D01*
Y463160D01*
X830439D01*
Y471200D01*
D02*
G37*
G36*
X819899D02*
X814359D01*
Y463160D01*
X819899D01*
Y471200D01*
D02*
G37*
G36*
X812439D02*
X806899D01*
Y463160D01*
X812439D01*
Y471200D01*
D02*
G37*
G36*
X801899D02*
X796359D01*
Y463160D01*
X801899D01*
Y471200D01*
D02*
G37*
G36*
X794439D02*
X788899D01*
Y463160D01*
X794439D01*
Y471200D01*
D02*
G37*
G36*
X979939Y424740D02*
X971899D01*
Y419200D01*
X979939D01*
Y424740D01*
D02*
G37*
G36*
X966899D02*
X958859D01*
Y419200D01*
X966899D01*
Y424740D01*
D02*
G37*
G36*
X979939Y414200D02*
X971899D01*
Y408660D01*
X979939D01*
Y414200D01*
D02*
G37*
G36*
X966899D02*
X958859D01*
Y408660D01*
X966899D01*
Y414200D01*
D02*
G37*
G36*
X966899Y406740D02*
X958859D01*
Y401200D01*
X966899D01*
Y406740D01*
D02*
G37*
G36*
Y396200D02*
X958859D01*
Y390660D01*
X966899D01*
Y396200D01*
D02*
G37*
G36*
X966899Y388740D02*
X958859D01*
Y383200D01*
X966899D01*
Y388740D01*
D02*
G37*
G36*
Y378200D02*
X958859D01*
Y372660D01*
X966899D01*
Y378200D01*
D02*
G37*
G36*
X966899Y370740D02*
X958859D01*
Y365200D01*
X966899D01*
Y370740D01*
D02*
G37*
G36*
X979939Y360200D02*
X971899D01*
Y354660D01*
X979939D01*
Y360200D01*
D02*
G37*
G36*
X966899D02*
X958859D01*
Y354660D01*
X966899D01*
Y360200D01*
D02*
G37*
G36*
X979939Y352740D02*
X971899D01*
Y347200D01*
X979939D01*
Y352740D01*
D02*
G37*
G36*
X966899D02*
X958859D01*
Y347200D01*
X966899D01*
Y352740D01*
D02*
G37*
G36*
X979939Y342200D02*
X971899D01*
Y336660D01*
X979939D01*
Y342200D01*
D02*
G37*
G36*
X966899D02*
X958859D01*
Y336660D01*
X966899D01*
Y342200D01*
D02*
G37*
G36*
X979939Y334740D02*
X971899D01*
Y329200D01*
X979939D01*
Y334740D01*
D02*
G37*
G36*
X966899D02*
X958859D01*
Y329200D01*
X966899D01*
Y334740D01*
D02*
G37*
G36*
X979939Y324200D02*
X971899D01*
Y318660D01*
X979939D01*
Y324200D01*
D02*
G37*
G36*
X966899D02*
X958859D01*
Y318660D01*
X966899D01*
Y324200D01*
D02*
G37*
G36*
X979939Y316740D02*
X971899D01*
Y311200D01*
X979939D01*
Y316740D01*
D02*
G37*
G36*
X966899D02*
X958859D01*
Y311200D01*
X966899D01*
Y316740D01*
D02*
G37*
G36*
X979939Y306200D02*
X971899D01*
Y300660D01*
X979939D01*
Y306200D01*
D02*
G37*
G36*
X966899D02*
X958859D01*
Y300660D01*
X966899D01*
Y306200D01*
D02*
G37*
G36*
X979939Y298740D02*
X971899D01*
Y293200D01*
X979939D01*
Y298740D01*
D02*
G37*
G36*
X966899D02*
X958859D01*
Y293200D01*
X966899D01*
Y298740D01*
D02*
G37*
G36*
X979939Y288200D02*
X971899D01*
Y282660D01*
X979939D01*
Y288200D01*
D02*
G37*
G36*
X966899D02*
X958859D01*
Y282660D01*
X966899D01*
Y288200D01*
D02*
G37*
G36*
X921399Y245200D02*
X903399D01*
Y244988D01*
X902439Y244240D01*
X902129Y244240D01*
X896899D01*
Y233700D01*
Y223160D01*
X902129D01*
X902439Y223160D01*
X903399Y222412D01*
Y222200D01*
X921399D01*
Y245200D01*
D02*
G37*
G36*
X550013Y382512D02*
X523454D01*
Y377035D01*
X550013D01*
Y382512D01*
D02*
G37*
G36*
X269500Y346500D02*
X264500D01*
Y343000D01*
X269500D01*
Y346500D01*
D02*
G37*
G36*
X245500D02*
Y343000D01*
X250500D01*
Y346500D01*
X245500D01*
D02*
G37*
G36*
X259500D02*
X254500D01*
Y343000D01*
X259500D01*
Y346500D01*
D02*
G37*
G36*
X288500Y343650D02*
X285000D01*
Y334650D01*
X288500D01*
Y343650D01*
D02*
G37*
G36*
X269500Y338000D02*
X264500D01*
Y334500D01*
X269500D01*
Y338000D01*
D02*
G37*
G36*
X259500D02*
X254500D01*
Y334500D01*
X259500D01*
Y338000D01*
D02*
G37*
G36*
X250500D02*
X245500D01*
Y334500D01*
X250500D01*
Y338000D01*
D02*
G37*
G36*
X240500D02*
X235500D01*
Y334500D01*
X240500D01*
Y338000D01*
D02*
G37*
G36*
X231500Y325500D02*
X226500D01*
Y322000D01*
X231500D01*
Y325500D01*
D02*
G37*
G36*
X221500D02*
X216500D01*
Y322000D01*
X221500D01*
Y325500D01*
D02*
G37*
G36*
X288500Y329650D02*
X285000D01*
Y320650D01*
X288500D01*
Y329650D01*
D02*
G37*
G36*
X231500Y317000D02*
X226500D01*
Y313500D01*
X231500D01*
Y317000D01*
D02*
G37*
G36*
X221500D02*
X216500D01*
Y313500D01*
X221500D01*
Y317000D01*
D02*
G37*
G36*
X1121339Y354892D02*
X1114299D01*
Y344852D01*
X1121339D01*
Y354892D01*
D02*
G37*
G36*
X1109299D02*
X1102259D01*
Y344852D01*
X1109299D01*
Y354892D01*
D02*
G37*
G36*
X1121339Y339852D02*
X1114299D01*
Y329812D01*
X1121339D01*
Y339852D01*
D02*
G37*
G36*
X1109299D02*
X1102259D01*
Y329812D01*
X1109299D01*
Y339852D01*
D02*
G37*
G36*
X1166989Y349300D02*
X1150949D01*
Y322260D01*
X1166989D01*
Y349300D01*
D02*
G37*
G36*
X1145949D02*
X1129909D01*
Y322260D01*
X1145949D01*
Y349300D01*
D02*
G37*
G36*
X1189439Y279540D02*
X1176649D01*
Y267250D01*
X1189439D01*
Y279540D01*
D02*
G37*
G36*
X1171649D02*
X1158859D01*
Y267250D01*
X1171649D01*
Y279540D01*
D02*
G37*
G36*
X1189439Y262250D02*
X1176649D01*
Y249960D01*
X1189439D01*
Y262250D01*
D02*
G37*
G36*
X1171649D02*
X1158859D01*
Y249960D01*
X1171649D01*
Y262250D01*
D02*
G37*
G36*
X1235005Y287750D02*
X1233293D01*
X1231640Y287307D01*
X1230158Y286451D01*
X1228948Y285241D01*
X1228092Y283759D01*
X1227649Y282106D01*
Y280500D01*
X1218399D01*
Y249000D01*
X1250899D01*
Y280500D01*
X1240649D01*
Y282106D01*
X1240206Y283759D01*
X1239350Y285241D01*
X1238140Y286451D01*
X1236658Y287307D01*
X1235005Y287750D01*
D02*
G37*
G36*
X1085339Y339852D02*
X1078299D01*
Y329812D01*
X1085339D01*
Y339852D01*
D02*
G37*
G36*
X1109618Y272400D02*
X1107380D01*
X1105218Y271821D01*
X1103280Y270702D01*
X1101697Y269119D01*
X1100578Y267181D01*
X1099999Y265019D01*
Y262781D01*
X1100578Y260619D01*
X1101697Y258681D01*
X1103280Y257098D01*
X1105218Y255979D01*
X1107380Y255400D01*
X1109618D01*
X1111780Y255979D01*
X1113718Y257098D01*
X1115301Y258681D01*
X1116420Y260619D01*
X1116999Y262781D01*
Y265019D01*
X1116420Y267181D01*
X1115301Y269119D01*
X1113718Y270702D01*
X1111780Y271821D01*
X1109618Y272400D01*
D02*
G37*
G36*
X466548Y297342D02*
X456398D01*
Y289342D01*
X466548D01*
Y297342D01*
D02*
G37*
G36*
X451398D02*
X441248D01*
Y289342D01*
X451398D01*
Y297342D01*
D02*
G37*
G36*
X421266Y280402D02*
X416266D01*
Y276902D01*
X421266D01*
Y280402D01*
D02*
G37*
G36*
X411266D02*
X406266D01*
Y276902D01*
X411266D01*
Y280402D01*
D02*
G37*
G36*
X421266Y271902D02*
X416266D01*
Y268402D01*
X421266D01*
Y271902D01*
D02*
G37*
G36*
X411266D02*
X406266D01*
Y268402D01*
X411266D01*
Y271902D01*
D02*
G37*
G36*
X334500Y255500D02*
X331000D01*
Y250500D01*
X334500D01*
Y255500D01*
D02*
G37*
G36*
X326000D02*
X322500D01*
Y250500D01*
X326000D01*
Y255500D01*
D02*
G37*
G36*
X330750Y239700D02*
X328750D01*
Y230400D01*
X330750D01*
Y239700D01*
D02*
G37*
G36*
X267250D02*
X265250D01*
Y230400D01*
X267250D01*
Y239700D01*
D02*
G37*
G36*
X254550D02*
X252550D01*
Y230400D01*
X254550D01*
Y239700D01*
D02*
G37*
G36*
X323750D02*
X321750D01*
Y230400D01*
X323750D01*
Y239700D01*
D02*
G37*
G36*
X260250D02*
X258250D01*
Y230400D01*
X260250D01*
Y239700D01*
D02*
G37*
G36*
X247550D02*
X245550D01*
Y230400D01*
X247550D01*
Y239700D01*
D02*
G37*
G36*
X330750Y225400D02*
X328750D01*
Y216100D01*
X330750D01*
Y225400D01*
D02*
G37*
G36*
X323750D02*
X321750D01*
Y216100D01*
X323750D01*
Y225400D01*
D02*
G37*
G36*
X267250D02*
X265250D01*
Y216100D01*
X267250D01*
Y225400D01*
D02*
G37*
G36*
X260250D02*
X258250D01*
Y216100D01*
X260250D01*
Y225400D01*
D02*
G37*
G36*
X254550D02*
X252550D01*
Y216100D01*
X254550D01*
Y225400D01*
D02*
G37*
G36*
X247550D02*
X245550D01*
Y216100D01*
X247550D01*
Y225400D01*
D02*
G37*
G36*
X276016Y248308D02*
X275164D01*
X274319Y248197D01*
X273496Y247976D01*
X272709Y247650D01*
X271971Y247224D01*
X271295Y246705D01*
X270693Y246103D01*
X270174Y245427D01*
X269748Y244689D01*
X269422Y243902D01*
X269201Y243079D01*
X269182Y242930D01*
X269090Y242444D01*
Y241700D01*
X268950D01*
Y241700D01*
Y214100D01*
X283188D01*
X283491Y213209D01*
X283648Y212830D01*
X283139Y212321D01*
X282620Y211645D01*
X282194Y210907D01*
X281868Y210120D01*
X281647Y209297D01*
X281536Y208452D01*
Y207600D01*
X281647Y206755D01*
X281845Y206016D01*
X281092Y204746D01*
X240000D01*
Y208500D01*
X238195D01*
Y216155D01*
Y216290D01*
X238324Y216600D01*
X238545Y217423D01*
X238656Y218268D01*
Y219120D01*
X238545Y219965D01*
X238324Y220788D01*
X237998Y221575D01*
X237572Y222313D01*
X237053Y222989D01*
X236451Y223591D01*
X235775Y224110D01*
X235037Y224536D01*
X234250Y224862D01*
X233427Y225083D01*
X232582Y225194D01*
X231730D01*
X230885Y225083D01*
X230062Y224862D01*
X229275Y224536D01*
X228537Y224110D01*
X227861Y223591D01*
X227259Y222989D01*
X226740Y222313D01*
X226314Y221575D01*
X225988Y220788D01*
X225767Y219965D01*
X225656Y219120D01*
Y218268D01*
X225767Y217423D01*
X225961Y216702D01*
Y216666D01*
Y208500D01*
X224000D01*
Y206502D01*
Y189500D01*
X240000D01*
Y192511D01*
X317252D01*
X332832Y176930D01*
Y148900D01*
X332450D01*
Y121300D01*
X345450D01*
Y148900D01*
X345067D01*
Y179464D01*
X344602Y181805D01*
X343276Y183790D01*
X324112Y202954D01*
X322603Y203962D01*
X322127Y204280D01*
X319786Y204746D01*
X315554D01*
X314801Y206016D01*
X314999Y206755D01*
X315110Y207600D01*
Y208452D01*
X314999Y209297D01*
X314778Y210120D01*
X314452Y210907D01*
X314026Y211645D01*
X313507Y212321D01*
X312998Y212830D01*
X313155Y213209D01*
X313458Y214100D01*
X320050D01*
Y241700D01*
X319936D01*
Y241980D01*
X319825Y242825D01*
X319604Y243648D01*
X319278Y244435D01*
X318852Y245173D01*
X318333Y245849D01*
X317731Y246451D01*
X317055Y246970D01*
X316317Y247396D01*
X315530Y247722D01*
X314707Y247943D01*
X313862Y248054D01*
X313010D01*
X312165Y247943D01*
X311342Y247722D01*
X310555Y247396D01*
X309817Y246970D01*
X309141Y246451D01*
X308539Y245849D01*
X308020Y245173D01*
X307816Y244820D01*
X306350D01*
X306138Y245187D01*
X305619Y245863D01*
X305017Y246465D01*
X304341Y246984D01*
X303603Y247410D01*
X302816Y247736D01*
X301993Y247957D01*
X301148Y248068D01*
X300296D01*
X299451Y247957D01*
X298628Y247736D01*
X297841Y247410D01*
X297103Y246984D01*
X296427Y246465D01*
X295825Y245863D01*
X295306Y245187D01*
X295190Y244987D01*
X295140D01*
X294526Y244926D01*
X294132Y244987D01*
X293724D01*
X293494Y245385D01*
X292975Y246062D01*
X292372Y246664D01*
X291696Y247183D01*
X290958Y247609D01*
X290171Y247935D01*
X289348Y248155D01*
X288503Y248267D01*
X287651D01*
X286807Y248155D01*
X285984Y247935D01*
X285196Y247609D01*
X284459Y247183D01*
X283782Y246664D01*
X283180Y246062D01*
X282661Y245385D01*
X282579Y245243D01*
X282411D01*
X281783Y245157D01*
X281308Y245243D01*
X281112D01*
X281006Y245427D01*
X280487Y246103D01*
X279885Y246705D01*
X279209Y247224D01*
X278471Y247650D01*
X277684Y247976D01*
X276861Y248197D01*
X276016Y248308D01*
D02*
G37*
G36*
X213500Y206500D02*
Y201500D01*
X217000D01*
Y206500D01*
X213500D01*
D02*
G37*
G36*
X217000Y196500D02*
X213500D01*
Y191500D01*
X217000D01*
Y196500D01*
D02*
G37*
G36*
X238500Y187000D02*
X233500D01*
Y183500D01*
X238500D01*
Y187000D01*
D02*
G37*
G36*
X219000D02*
X214000D01*
Y183500D01*
X219000D01*
Y187000D01*
D02*
G37*
G36*
X228500D02*
X223500D01*
Y183500D01*
X228500D01*
Y187000D01*
D02*
G37*
G36*
X296926Y190706D02*
X295229Y190483D01*
X293648Y189828D01*
X292290Y188786D01*
X291248Y187428D01*
X290593Y185847D01*
X290370Y184150D01*
X290593Y182453D01*
X291248Y180872D01*
X292290Y179514D01*
X293648Y178472D01*
X295229Y177817D01*
X296926Y177594D01*
X298623Y177817D01*
X300204Y178472D01*
X301562Y179514D01*
X302604Y180872D01*
X303259Y182453D01*
X303482Y184150D01*
X303259Y185847D01*
X302604Y187428D01*
X301562Y188786D01*
X300204Y189828D01*
X298623Y190483D01*
X296926Y190706D01*
D02*
G37*
G36*
X330750Y146900D02*
X328750D01*
Y137600D01*
X330750D01*
Y146900D01*
D02*
G37*
G36*
X323750D02*
X321750D01*
Y137600D01*
X323750D01*
Y146900D01*
D02*
G37*
G36*
X330750Y132600D02*
X328750D01*
Y123300D01*
X330750D01*
Y132600D01*
D02*
G37*
G36*
X323750D02*
X321750D01*
Y123300D01*
X323750D01*
Y132600D01*
D02*
G37*
G36*
X267250D02*
X265250D01*
Y123300D01*
X267250D01*
Y132600D01*
D02*
G37*
G36*
X260250D02*
X258250D01*
Y123300D01*
X260250D01*
Y132600D01*
D02*
G37*
G36*
X254550D02*
X252550D01*
Y123300D01*
X254550D01*
Y132600D01*
D02*
G37*
G36*
X247550D02*
X245550D01*
Y123300D01*
X247550D01*
Y132600D01*
D02*
G37*
G36*
X470003Y109659D02*
X464526D01*
Y83100D01*
X470003D01*
Y109659D01*
D02*
G37*
G36*
X459526D02*
X454049D01*
Y83100D01*
X459526D01*
Y109659D01*
D02*
G37*
G36*
X339649Y109069D02*
X334172D01*
Y82510D01*
X339649D01*
Y109069D01*
D02*
G37*
G36*
X329172D02*
X323695D01*
Y82510D01*
X329172D01*
Y109069D01*
D02*
G37*
G36*
X568398Y87924D02*
X546538D01*
Y79018D01*
X568398D01*
Y87924D01*
D02*
G37*
G36*
Y76430D02*
X546538D01*
Y67524D01*
X568398D01*
Y76430D01*
D02*
G37*
G36*
Y62524D02*
X546538D01*
Y53618D01*
X568398D01*
Y62524D01*
D02*
G37*
G36*
X412058D02*
X390198D01*
Y53618D01*
X412058D01*
Y62524D01*
D02*
G37*
G36*
X385198D02*
X363338D01*
Y53618D01*
X385198D01*
Y62524D01*
D02*
G37*
G36*
X470003Y78100D02*
X464526D01*
Y51541D01*
X470003D01*
Y78100D01*
D02*
G37*
G36*
X459526D02*
X454049D01*
Y51541D01*
X459526D01*
Y78100D01*
D02*
G37*
G36*
X339649Y77510D02*
X334172D01*
Y50951D01*
X339649D01*
Y77510D01*
D02*
G37*
G36*
X329172D02*
X323695D01*
Y50951D01*
X329172D01*
Y77510D01*
D02*
G37*
G36*
X166412Y33638D02*
Y28288D01*
X169912D01*
Y33638D01*
X166412D01*
D02*
G37*
G36*
X169912Y23288D02*
X166412D01*
Y17938D01*
X169912D01*
Y23288D01*
D02*
G37*
G36*
X739939Y424740D02*
X731899D01*
Y419200D01*
X739939D01*
Y424740D01*
D02*
G37*
G36*
X726899D02*
X718859D01*
Y419200D01*
X726899D01*
Y424740D01*
D02*
G37*
G36*
X739939Y414200D02*
X731899D01*
Y408660D01*
X739939D01*
Y414200D01*
D02*
G37*
G36*
X726899D02*
X718859D01*
Y408660D01*
X726899D01*
Y414200D01*
D02*
G37*
G36*
X739939Y406740D02*
X731899D01*
Y401200D01*
X739939D01*
Y406740D01*
D02*
G37*
G36*
X726899D02*
X718859D01*
Y401200D01*
X726899D01*
Y406740D01*
D02*
G37*
G36*
X739939Y396200D02*
X729399D01*
X718859D01*
Y390970D01*
X718859Y390660D01*
X718111Y389700D01*
X717899D01*
Y372970D01*
X717899Y371700D01*
X717899Y370430D01*
Y354970D01*
X717899Y353700D01*
X717899Y352430D01*
Y336970D01*
X717899Y335700D01*
X717899Y334430D01*
Y317700D01*
X718111D01*
X718859Y316740D01*
X718859Y316430D01*
Y311200D01*
X729399D01*
X739939D01*
Y316430D01*
X739939Y316740D01*
X740687Y317700D01*
X740899D01*
Y334430D01*
X740899Y335700D01*
X740899Y336970D01*
Y352430D01*
X740899Y353700D01*
X740899Y354970D01*
Y370430D01*
X740899Y371700D01*
X740899Y372970D01*
Y389700D01*
X740687D01*
X739939Y390660D01*
X739939Y390970D01*
Y396200D01*
D02*
G37*
G36*
Y306200D02*
X731899D01*
Y300660D01*
X739939D01*
Y306200D01*
D02*
G37*
G36*
X726899D02*
X718859D01*
Y300660D01*
X726899D01*
Y306200D01*
D02*
G37*
G36*
X739939Y298740D02*
X731899D01*
Y293200D01*
X739939D01*
Y298740D01*
D02*
G37*
G36*
X726899D02*
X718859D01*
Y293200D01*
X726899D01*
Y298740D01*
D02*
G37*
G36*
X739939Y288200D02*
X731899D01*
Y282660D01*
X739939D01*
Y288200D01*
D02*
G37*
G36*
X726899D02*
X718859D01*
Y282660D01*
X726899D01*
Y288200D01*
D02*
G37*
G36*
X956255Y107150D02*
X954543D01*
X952890Y106707D01*
X951408Y105851D01*
X950198Y104641D01*
X949342Y103159D01*
X948899Y101506D01*
Y99794D01*
X949342Y98141D01*
X950198Y96659D01*
X951408Y95449D01*
X952890Y94593D01*
X954543Y94150D01*
X956255D01*
X957908Y94593D01*
X959390Y95449D01*
X960600Y96659D01*
X961456Y98141D01*
X961899Y99794D01*
Y101506D01*
X961456Y103159D01*
X960600Y104641D01*
X959390Y105851D01*
X957908Y106707D01*
X956255Y107150D01*
D02*
G37*
G36*
X697346Y193843D02*
X694452D01*
X691656Y193094D01*
X689149Y191647D01*
X687103Y189600D01*
X685655Y187093D01*
X684906Y184297D01*
Y181403D01*
X685655Y178607D01*
X687103Y176100D01*
X689149Y174053D01*
X690853Y173070D01*
Y171604D01*
X689695Y170935D01*
X687814Y169054D01*
X686484Y166750D01*
X685795Y164180D01*
Y161520D01*
X686484Y158950D01*
X687814Y156646D01*
X689695Y154765D01*
X691827Y153534D01*
X691920Y152850D01*
X691827Y152166D01*
X689695Y150935D01*
X687814Y149054D01*
X686484Y146750D01*
X685795Y144180D01*
Y141520D01*
X686484Y138950D01*
X687814Y136646D01*
X689695Y134765D01*
X691827Y133534D01*
X691920Y132850D01*
X691827Y132166D01*
X689695Y130935D01*
X687814Y129054D01*
X686484Y126750D01*
X685795Y124180D01*
Y121520D01*
X686484Y118950D01*
X687814Y116646D01*
X689695Y114765D01*
X690853Y114096D01*
Y112630D01*
X689149Y111647D01*
X687103Y109600D01*
X685655Y107093D01*
X684906Y104297D01*
Y101403D01*
X685655Y98607D01*
X687103Y96100D01*
X689149Y94053D01*
X691656Y92606D01*
X694452Y91857D01*
X697346D01*
X700142Y92606D01*
X702649Y94053D01*
X704696Y96100D01*
X706143Y98607D01*
X706892Y101403D01*
Y104297D01*
X706143Y107093D01*
X704696Y109600D01*
X702649Y111647D01*
X700946Y112630D01*
Y114096D01*
X702103Y114765D01*
X703984Y116646D01*
X705314Y118950D01*
X706003Y121520D01*
Y124180D01*
X705314Y126750D01*
X703984Y129054D01*
X702103Y130935D01*
X699971Y132166D01*
X699878Y132850D01*
X699971Y133534D01*
X702103Y134765D01*
X703984Y136646D01*
X705314Y138950D01*
X706003Y141520D01*
Y144180D01*
X705314Y146750D01*
X703984Y149054D01*
X702103Y150935D01*
X699971Y152166D01*
X699878Y152850D01*
X699971Y153534D01*
X702103Y154765D01*
X703984Y156646D01*
X705314Y158950D01*
X706003Y161520D01*
Y164180D01*
X705314Y166750D01*
X703984Y169054D01*
X702103Y170935D01*
X700946Y171604D01*
Y173070D01*
X702649Y174053D01*
X704696Y176100D01*
X706143Y178607D01*
X706892Y181403D01*
Y184297D01*
X706143Y187093D01*
X704696Y189600D01*
X702649Y191647D01*
X700142Y193094D01*
X697346Y193843D01*
D02*
G37*
G36*
X725439Y88940D02*
X722399D01*
Y86900D01*
X725439D01*
Y88940D01*
D02*
G37*
G36*
X1024279Y101900D02*
X1000279D01*
Y81900D01*
X1024279D01*
Y101900D01*
D02*
G37*
G36*
X1023319Y75540D02*
X1014779D01*
Y69000D01*
X1023319D01*
Y75540D01*
D02*
G37*
G36*
X1009779D02*
X1001239D01*
Y69000D01*
X1009779D01*
Y75540D01*
D02*
G37*
G36*
X1023319Y64000D02*
X1014779D01*
Y57460D01*
X1023319D01*
Y64000D01*
D02*
G37*
G36*
X1009779D02*
X1001239D01*
Y57460D01*
X1009779D01*
Y64000D01*
D02*
G37*
G36*
X871955Y40300D02*
X870243D01*
X868590Y39857D01*
X867108Y39001D01*
X865898Y37791D01*
X865042Y36309D01*
X864599Y34656D01*
Y32944D01*
X865042Y31291D01*
X865898Y29809D01*
X867108Y28599D01*
X868590Y27743D01*
X870243Y27300D01*
X871955D01*
X873382Y27682D01*
X886563D01*
X886994Y26412D01*
X886028Y25671D01*
X884900Y24200D01*
X884190Y22488D01*
X883948Y20650D01*
Y19650D01*
X891049D01*
X898150D01*
Y20650D01*
X897908Y22488D01*
X897199Y24200D01*
X896070Y25671D01*
X895104Y26412D01*
X895535Y27682D01*
X1011672D01*
X1011740Y27643D01*
X1013393Y27200D01*
X1015105D01*
X1016758Y27643D01*
X1018240Y28499D01*
X1019450Y29709D01*
X1020306Y31191D01*
X1020749Y32844D01*
Y34556D01*
X1020306Y36209D01*
X1019450Y37691D01*
X1018240Y38901D01*
X1016758Y39757D01*
X1015105Y40200D01*
X1013393D01*
X1012339Y39918D01*
X873382D01*
X871955Y40300D01*
D02*
G37*
G36*
X827549Y27234D02*
Y19650D01*
X832150D01*
Y20650D01*
X831908Y22488D01*
X831199Y24200D01*
X830070Y25671D01*
X828599Y26799D01*
X827549Y27234D01*
D02*
G37*
G36*
X822549D02*
X821499Y26799D01*
X820028Y25671D01*
X818900Y24200D01*
X818190Y22488D01*
X817948Y20650D01*
Y19650D01*
X822549D01*
Y27234D01*
D02*
G37*
G36*
X712699Y51100D02*
X685699D01*
Y38600D01*
X712699D01*
Y38733D01*
X718636D01*
X746307Y11061D01*
X748292Y9735D01*
X750633Y9270D01*
X797362D01*
X798789Y8887D01*
X800501D01*
X802154Y9330D01*
X803636Y10186D01*
X804846Y11396D01*
X805702Y12878D01*
X806145Y14531D01*
Y16243D01*
X805702Y17896D01*
X804846Y19378D01*
X803636Y20588D01*
X802154Y21444D01*
X800501Y21887D01*
X798789D01*
X797362Y21505D01*
X753167D01*
X725496Y49176D01*
X723511Y50502D01*
X721170Y50967D01*
X712699D01*
Y51100D01*
D02*
G37*
G36*
X416800Y580676D02*
Y574200D01*
X423276D01*
X422380Y576365D01*
X420897Y578297D01*
X418965Y579780D01*
X416800Y580676D01*
D02*
G37*
G36*
X411800D02*
X409635Y579780D01*
X407703Y578297D01*
X406220Y576365D01*
X405323Y574200D01*
X411800D01*
Y580676D01*
D02*
G37*
G36*
X391400D02*
Y574200D01*
X397877D01*
X396980Y576365D01*
X395497Y578297D01*
X393565Y579780D01*
X391400Y580676D01*
D02*
G37*
G36*
X386400D02*
X384235Y579780D01*
X382303Y578297D01*
X380820Y576365D01*
X379923Y574200D01*
X386400D01*
Y580676D01*
D02*
G37*
G36*
X366000D02*
Y574200D01*
X372477D01*
X371580Y576365D01*
X370097Y578297D01*
X368165Y579780D01*
X366000Y580676D01*
D02*
G37*
G36*
X361000D02*
X358835Y579780D01*
X356903Y578297D01*
X355420Y576365D01*
X354523Y574200D01*
X361000D01*
Y580676D01*
D02*
G37*
G36*
X340600D02*
Y574200D01*
X347076D01*
X346180Y576365D01*
X344697Y578297D01*
X342765Y579780D01*
X340600Y580676D01*
D02*
G37*
G36*
X335600D02*
X333435Y579780D01*
X331503Y578297D01*
X330020Y576365D01*
X329123Y574200D01*
X335600D01*
Y580676D01*
D02*
G37*
G36*
X315200D02*
Y574200D01*
X321676D01*
X320780Y576365D01*
X319297Y578297D01*
X317365Y579780D01*
X315200Y580676D01*
D02*
G37*
G36*
X310200D02*
X308035Y579780D01*
X306103Y578297D01*
X304620Y576365D01*
X303723Y574200D01*
X310200D01*
Y580676D01*
D02*
G37*
G36*
X423276Y569200D02*
X416800D01*
Y562723D01*
X418965Y563620D01*
X420897Y565103D01*
X422380Y567035D01*
X423276Y569200D01*
D02*
G37*
G36*
X411800D02*
X405323D01*
X406220Y567035D01*
X407703Y565103D01*
X409635Y563620D01*
X411800Y562723D01*
Y569200D01*
D02*
G37*
G36*
X397877D02*
X391400D01*
Y562723D01*
X393565Y563620D01*
X395497Y565103D01*
X396980Y567035D01*
X397877Y569200D01*
D02*
G37*
G36*
X386400D02*
X379923D01*
X380820Y567035D01*
X382303Y565103D01*
X384235Y563620D01*
X386400Y562723D01*
Y569200D01*
D02*
G37*
G36*
X372477D02*
X366000D01*
Y562723D01*
X368165Y563620D01*
X370097Y565103D01*
X371580Y567035D01*
X372477Y569200D01*
D02*
G37*
G36*
X361000D02*
X354523D01*
X355420Y567035D01*
X356903Y565103D01*
X358835Y563620D01*
X361000Y562723D01*
Y569200D01*
D02*
G37*
G36*
X347076D02*
X340600D01*
Y562723D01*
X342765Y563620D01*
X344697Y565103D01*
X346180Y567035D01*
X347076Y569200D01*
D02*
G37*
G36*
X335600D02*
X329123D01*
X330020Y567035D01*
X331503Y565103D01*
X333435Y563620D01*
X335600Y562723D01*
Y569200D01*
D02*
G37*
G36*
X321676D02*
X315200D01*
Y562723D01*
X317365Y563620D01*
X319297Y565103D01*
X320780Y567035D01*
X321676Y569200D01*
D02*
G37*
G36*
X310200D02*
X303723D01*
X304620Y567035D01*
X306103Y565103D01*
X308035Y563620D01*
X310200Y562723D01*
Y569200D01*
D02*
G37*
G36*
X584200Y338026D02*
X582503Y337803D01*
X580922Y337148D01*
X579564Y336106D01*
X578522Y334748D01*
X577867Y333167D01*
X577644Y331470D01*
X577867Y329773D01*
X578522Y328192D01*
X579564Y326834D01*
X580922Y325792D01*
X582503Y325137D01*
X584200Y324914D01*
X585897Y325137D01*
X587478Y325792D01*
X588836Y326834D01*
X589878Y328192D01*
X590533Y329773D01*
X590756Y331470D01*
X590533Y333167D01*
X589878Y334748D01*
X588836Y336106D01*
X587478Y337148D01*
X585897Y337803D01*
X584200Y338026D01*
D02*
G37*
G36*
X217500Y112000D02*
X213500D01*
Y106000D01*
X217500D01*
Y112000D01*
D02*
G37*
G36*
X208500D02*
X204500D01*
Y106000D01*
X208500D01*
Y112000D01*
D02*
G37*
%LPD*%
D10*
X155651Y305054D02*
D03*
X133401D02*
D03*
X133375Y216802D02*
D03*
X155625D02*
D03*
X155625Y160930D02*
D03*
X133375D02*
D03*
X133375Y239500D02*
D03*
X155625D02*
D03*
D11*
X139954Y444164D02*
D03*
Y423164D02*
D03*
Y386162D02*
D03*
Y407162D02*
D03*
X123952Y59690D02*
D03*
Y38690D02*
D03*
X224000Y340500D02*
D03*
Y319500D02*
D03*
X148590Y118954D02*
D03*
Y139954D02*
D03*
X175514Y118954D02*
D03*
Y139954D02*
D03*
X265430Y386080D02*
D03*
Y365080D02*
D03*
X413766Y274402D02*
D03*
Y295402D02*
D03*
X231000Y181000D02*
D03*
Y160000D02*
D03*
X211500Y181000D02*
D03*
Y160000D02*
D03*
X262000Y319499D02*
D03*
Y340500D02*
D03*
X243000D02*
D03*
Y319499D02*
D03*
D12*
X520954Y280012D02*
D03*
Y315012D02*
D03*
Y350012D02*
D03*
Y385012D02*
D03*
X80010Y164084D02*
D03*
Y199084D02*
D03*
X80036Y251968D02*
D03*
Y286968D02*
D03*
X80010Y339904D02*
D03*
Y374904D02*
D03*
Y409904D02*
D03*
Y444904D02*
D03*
D13*
X331672Y80010D02*
D03*
X296672D02*
D03*
X261672D02*
D03*
X427026Y80600D02*
D03*
X462026D02*
D03*
X497026D02*
D03*
X532026D02*
D03*
D14*
X218662Y6938D02*
D03*
X151162D02*
D03*
D15*
X205912Y25788D02*
D03*
X163912D02*
D03*
D16*
X236814Y385318D02*
D03*
X215814D02*
D03*
X215474Y366014D02*
D03*
X236474D02*
D03*
X133940Y286512D02*
D03*
X154940D02*
D03*
X155000Y258000D02*
D03*
X134000D02*
D03*
X155000Y198302D02*
D03*
X134000D02*
D03*
Y179430D02*
D03*
X155000D02*
D03*
X108032Y136652D02*
D03*
X129032D02*
D03*
X226000Y65000D02*
D03*
X205000D02*
D03*
X226000Y45500D02*
D03*
X205000D02*
D03*
X349500Y258000D02*
D03*
X328500D02*
D03*
X232000Y199000D02*
D03*
X211000D02*
D03*
X1130599Y450400D02*
D03*
X1151599D02*
D03*
X1130799Y430200D02*
D03*
X1151799D02*
D03*
X1093599Y430050D02*
D03*
X1114599D02*
D03*
X1114549Y410650D02*
D03*
X1093549D02*
D03*
X1053299Y447350D02*
D03*
X1032299D02*
D03*
X1032399Y428200D02*
D03*
X1053399D02*
D03*
X1032199Y409050D02*
D03*
X1053199D02*
D03*
X1114399Y450450D02*
D03*
X1093399D02*
D03*
D17*
X453898Y270642D02*
D03*
Y299842D02*
D03*
D18*
X10892Y7366D02*
D03*
X38892D02*
D03*
X55342D02*
D03*
X83342D02*
D03*
X99792D02*
D03*
X127792D02*
D03*
X683939Y7370D02*
D03*
X711939D02*
D03*
D19*
X291000Y332150D02*
D03*
X303700D02*
D03*
X316400D02*
D03*
X329100D02*
D03*
X341800D02*
D03*
X354500D02*
D03*
X367200D02*
D03*
X379900D02*
D03*
X392600D02*
D03*
X405300D02*
D03*
X418000D02*
D03*
X430700D02*
D03*
X443400D02*
D03*
X456100D02*
D03*
Y502150D02*
D03*
X443400D02*
D03*
X430700D02*
D03*
X418000D02*
D03*
X405300D02*
D03*
X392600D02*
D03*
X379900D02*
D03*
X367200D02*
D03*
X354500D02*
D03*
X341800D02*
D03*
X329100D02*
D03*
X316400D02*
D03*
X303700D02*
D03*
X291000D02*
D03*
D20*
X466100Y360000D02*
D03*
Y372700D02*
D03*
Y385400D02*
D03*
Y398100D02*
D03*
Y410800D02*
D03*
Y423500D02*
D03*
Y436200D02*
D03*
Y448900D02*
D03*
Y461600D02*
D03*
Y474300D02*
D03*
D21*
X366000Y407150D02*
D03*
Y425500D02*
D03*
X347650D02*
D03*
Y407150D02*
D03*
Y388800D02*
D03*
X366000D02*
D03*
X384350D02*
D03*
Y407150D02*
D03*
Y425500D02*
D03*
D22*
X126246Y86682D02*
D03*
Y105682D02*
D03*
D23*
X113284Y323088D02*
D03*
X163068Y48514D02*
D03*
X680449Y418600D02*
D03*
X1047849Y393100D02*
D03*
X1027349Y393200D02*
D03*
X1062999Y380250D02*
D03*
X1018899Y341050D02*
D03*
X1016899Y240750D02*
D03*
X1090598Y360150D02*
D03*
X1108499Y263900D02*
D03*
X680849Y368800D02*
D03*
X680099Y348400D02*
D03*
X681299Y329250D02*
D03*
X679999Y248650D02*
D03*
X680999Y313050D02*
D03*
D24*
X210750Y138000D02*
D03*
X229250Y146000D02*
D03*
X210750D02*
D03*
X229250Y138000D02*
D03*
D25*
X211000Y114500D02*
D03*
X220500Y92500D02*
D03*
X201500D02*
D03*
D26*
X497586Y504184D02*
D03*
Y471684D02*
D03*
X1016899Y228300D02*
D03*
Y195800D02*
D03*
X699199Y77350D02*
D03*
Y44850D02*
D03*
D27*
X338950Y227900D02*
D03*
X326250D02*
D03*
X313550D02*
D03*
X300850D02*
D03*
X288150D02*
D03*
X275450D02*
D03*
X262750D02*
D03*
X250050D02*
D03*
Y135100D02*
D03*
X262750D02*
D03*
X275450D02*
D03*
X288150D02*
D03*
X300850D02*
D03*
X313550D02*
D03*
X326250D02*
D03*
X338950D02*
D03*
D28*
X378362Y503688D02*
Y515718D01*
X282702Y520446D02*
X373634D01*
X378362Y515718D01*
Y503688D02*
X379900Y502150D01*
X237236Y385740D02*
Y392563D01*
X225296Y395492D02*
X234307D01*
X237236Y392563D01*
X236814Y385318D02*
X237236Y385740D01*
X289261Y333598D02*
X291000Y331860D01*
X140911Y368949D02*
X141102Y369140D01*
X150700D01*
X159004Y377444D01*
Y400441D01*
X152009Y407437D02*
X159004Y400441D01*
X272277Y338500D02*
X277178Y333598D01*
X226957Y308500D02*
X237501D01*
X224000Y319500D02*
X224028Y319472D01*
Y311429D02*
Y319472D01*
Y311429D02*
X226957Y308500D01*
X163576Y305054D02*
X169130Y299499D01*
X347505D02*
X354500Y306494D01*
X169130Y299499D02*
X347505D01*
X186076Y290576D02*
X352298D01*
X171709Y314193D02*
X201671D01*
X171704Y314198D02*
X171709Y314193D01*
X201671D02*
X209042Y321564D01*
X303530Y356866D02*
X303700Y356696D01*
Y316700D02*
Y356696D01*
X220218Y415290D02*
X240030D01*
X258064Y397256D02*
X295402D01*
X240030Y415290D02*
X258064Y397256D01*
X191262Y444246D02*
X220218Y415290D01*
X102362Y117094D02*
X108032Y122764D01*
Y136652D01*
X117285Y402907D02*
X132030Y388162D01*
X116903Y409639D02*
X117285Y409257D01*
Y402907D02*
Y409257D01*
X137954Y388162D02*
X139954Y386162D01*
X132030Y388162D02*
X137954D01*
X117094Y409448D02*
X117285Y409257D01*
X139954Y407162D02*
X140229Y407437D01*
X158809Y414238D02*
Y427054D01*
X152009Y407437D02*
X158809Y414238D01*
X140229Y407437D02*
X152009D01*
X152362Y434155D02*
Y441235D01*
Y434155D02*
X159001Y427516D01*
Y427245D02*
Y427516D01*
X158809Y427054D02*
X159001Y427245D01*
X149433Y444164D02*
X152362Y441235D01*
X139954Y444164D02*
X149433D01*
X237744Y459486D02*
X237744D01*
X116840Y468884D02*
X228346D01*
X237744Y459486D01*
X185700Y515594D02*
Y546300D01*
Y515594D02*
X215011Y486283D01*
X277241D01*
X289814Y473710D01*
X303022D02*
X316400Y487088D01*
X289814Y473710D02*
X303022D01*
X112436Y485562D02*
X112522Y485648D01*
X112436Y473288D02*
Y485562D01*
Y473288D02*
X116840Y468884D01*
X87122Y465836D02*
Y485648D01*
X93726Y459232D02*
X212598D01*
X87122Y465836D02*
X93726Y459232D01*
X212598D02*
X228600Y443230D01*
X80385Y445385D02*
X117094D01*
X234100Y437476D02*
Y437730D01*
Y437476D02*
X244856Y426720D01*
X130591Y424907D02*
X138210D01*
X117285Y438213D02*
Y445193D01*
X138210Y424907D02*
X139954Y423164D01*
X117285Y438213D02*
X130591Y424907D01*
X117094Y445385D02*
X117285Y445193D01*
X79756Y343881D02*
Y354838D01*
X80000Y410000D02*
X80361Y409639D01*
X116903D01*
X427266Y274402D02*
X438382Y285518D01*
X440139D02*
X440263Y285642D01*
X454152Y288571D02*
Y299588D01*
X451223Y285642D02*
X454152Y288571D01*
X440263Y285642D02*
X451223D01*
X438382Y285518D02*
X440139D01*
X453898Y299842D02*
X454152Y299588D01*
X212598Y250952D02*
X217170D01*
X226836Y260618D01*
X208103Y260427D02*
X213917D01*
X214108Y260618D01*
X186944Y239268D02*
X208103Y260427D01*
X203834Y114400D02*
X210900D01*
X211000Y114500D01*
X203734Y114300D02*
X203834Y114400D01*
X272932Y329352D02*
X277178Y333598D01*
X264000Y338500D02*
X272277D01*
X277178Y333598D02*
X289261D01*
X262000Y340500D02*
X264000Y338500D01*
X349500Y258000D02*
X373698D01*
X378206Y253492D02*
X378460D01*
X373698Y258000D02*
X378206Y253492D01*
X462788Y476300D02*
Y483870D01*
X520192Y385774D02*
X520954Y385012D01*
X520192Y385774D02*
Y398272D01*
X485902Y394716D02*
X519938Y428752D01*
Y514858D01*
X485902Y381540D02*
Y394716D01*
X566048Y363102D02*
Y399323D01*
X548894Y428498D02*
X574548Y402844D01*
X529082Y424268D02*
Y519264D01*
Y424268D02*
X557548Y395802D01*
X548894Y428498D02*
Y526117D01*
X538734Y426637D02*
X566048Y399323D01*
X574548Y353060D02*
Y402844D01*
X538734Y426637D02*
Y522986D01*
X557548Y373398D02*
Y395802D01*
X495451Y367030D02*
X551180D01*
X484124Y355703D02*
X495451Y367030D01*
X551180D02*
X557548Y373398D01*
X552958Y350012D02*
X566048Y363102D01*
X520954Y350012D02*
X552958D01*
X553974Y332486D02*
X574548Y353060D01*
X493014Y332486D02*
X553974D01*
X514096Y547624D02*
X538734Y522986D01*
X506730Y528066D02*
X519938Y514858D01*
X516973Y558038D02*
X548894Y526117D01*
X511390Y536956D02*
X529082Y519264D01*
X425577Y44831D02*
X425704Y44958D01*
X425450Y21590D02*
X425577Y21717D01*
Y44831D01*
X295402Y397256D02*
X299466Y393192D01*
X262636Y426720D02*
X283718Y447802D01*
X244856Y426720D02*
X262636D01*
X283718Y447802D02*
X312928D01*
X341800Y476674D01*
X306832Y459740D02*
X329100Y482008D01*
X270510Y459740D02*
X306832D01*
X254000Y443230D02*
X270510Y459740D01*
X241578Y372618D02*
X257892D01*
X236474Y367514D02*
X241578Y372618D01*
X236474Y366014D02*
Y367514D01*
X261930Y367080D02*
Y368580D01*
X257892Y372618D02*
X261930Y368580D01*
X263930Y365080D02*
X265430D01*
X261930Y367080D02*
X263930Y365080D01*
X235112Y364652D02*
X236474Y366014D01*
X265430Y386080D02*
X267318Y384192D01*
X299559D01*
X305291Y378460D01*
X305562D01*
X227224Y348382D02*
X235112Y356270D01*
Y364652D01*
X265430Y365080D02*
X265512Y364998D01*
X286766D01*
X209042Y358082D02*
X215474Y364514D01*
X209042Y321564D02*
Y358082D01*
X227224Y342500D02*
Y348382D01*
X225224Y340500D02*
X227224Y342500D01*
X224000Y340500D02*
X225224D01*
X215474Y364514D02*
Y366014D01*
X215644Y366184D02*
Y385148D01*
X215474Y366014D02*
X215644Y366184D01*
Y385148D02*
X215814Y385318D01*
X441198Y552196D02*
X457708D01*
X463550Y558038D02*
X516973D01*
X457708Y552196D02*
X463550Y558038D01*
X437896Y541020D02*
X459740D01*
X463804Y536956D01*
X511390D01*
X467106Y547624D02*
X514096D01*
X475742Y315214D02*
X493014Y332486D01*
X125452Y59690D02*
X132310Y66548D01*
X123952Y59690D02*
X125452D01*
X109728Y38608D02*
X109810Y38690D01*
X132310Y66548D02*
X132334D01*
X109810Y38690D02*
X123952D01*
X349500Y245750D02*
Y258000D01*
X339450Y235700D02*
X349500Y245750D01*
X338950Y227900D02*
X339450Y228400D01*
Y235700D01*
X156276Y305054D02*
X163576D01*
X156276Y305054D02*
X156276Y305054D01*
X155625Y305054D02*
X156276D01*
X155625Y287196D02*
Y305054D01*
X194818Y280924D02*
X355600D01*
X379900Y305224D02*
Y332150D01*
X355600Y280924D02*
X379900Y305224D01*
X359185Y271526D02*
X392600Y304941D01*
Y332150D01*
X204216Y271526D02*
X359185D01*
X367200Y305478D02*
Y332150D01*
X352298Y290576D02*
X367200Y305478D01*
X354500Y306494D02*
Y332150D01*
X232000Y199000D02*
X232078Y199078D01*
Y218616D01*
X232156Y218694D01*
X479062Y374700D02*
X485902Y381540D01*
X468100Y374700D02*
X479062D01*
X495895Y381035D02*
X499872Y385012D01*
X495895Y379510D02*
Y381035D01*
X478385Y362000D02*
X495895Y379510D01*
X468100Y362000D02*
X478385D01*
X499872Y385012D02*
X520954D01*
X484124Y341630D02*
Y355703D01*
X466100Y360000D02*
X468100Y362000D01*
X249993Y227957D02*
Y242259D01*
X249936Y242316D02*
X249993Y242259D01*
Y227957D02*
X250050Y227900D01*
X10892Y7366D02*
X22591Y19065D01*
X73152Y7112D02*
X73279Y7239D01*
X83215D01*
X83342Y7366D01*
X135124Y28190D02*
X141986Y35052D01*
X113705Y28190D02*
X135124D01*
X141986Y35052D02*
Y78232D01*
X148590Y84836D01*
X148455Y19690D02*
X151384Y22619D01*
Y71628D02*
X160655Y80899D01*
X117226Y19690D02*
X148455D01*
X151384Y22619D02*
Y71628D01*
X164025Y49471D02*
Y61155D01*
X172212Y69342D01*
X163068Y48514D02*
X164025Y49471D01*
X196879Y48485D02*
X203000D01*
X192786Y52578D02*
X196879Y48485D01*
X192786Y52578D02*
Y81786D01*
X203000Y48485D02*
X205000Y46485D01*
Y45500D02*
Y46485D01*
X182626Y40894D02*
Y85852D01*
Y40894D02*
X196929Y26591D01*
X182626Y85852D02*
X187734Y90960D01*
X192786Y81786D02*
X201500Y90500D01*
X160655Y105595D02*
X174014Y118954D01*
X160655Y80899D02*
Y105595D01*
X174014Y118954D02*
X175514D01*
X148590Y84836D02*
Y118954D01*
X388874Y249428D02*
Y281686D01*
X402590Y295402D01*
X415266D01*
X381762Y242316D02*
X388874Y249428D01*
X369824Y242316D02*
X381762D01*
X359664Y213106D02*
Y232156D01*
X369824Y242316D01*
X339090Y203454D02*
X350012D01*
X359664Y213106D01*
X463804Y231902D02*
X473964Y242062D01*
X377444Y231902D02*
X463804D01*
X211836Y160336D02*
Y167571D01*
X214765Y170500D01*
X211500Y160000D02*
X211836Y160336D01*
X211500Y160000D02*
X213000D01*
X385572Y221996D02*
X468630D01*
X485394Y238760D02*
Y265176D01*
X468630Y221996D02*
X485394Y238760D01*
X473964Y242062D02*
Y289104D01*
X495895Y311035D01*
Y311035D01*
X499872Y315012D02*
X520954D01*
X495895Y311035D02*
X499872Y315012D01*
X495895Y276035D02*
X499872Y280012D01*
X520954D01*
X495895Y275677D02*
Y276035D01*
X485394Y265176D02*
X495895Y275677D01*
X439928Y258572D02*
X445248Y263892D01*
X400812Y258572D02*
X439928D01*
X445248Y263892D02*
Y264142D01*
X451748Y270642D02*
X453898D01*
X445248Y264142D02*
X451748Y270642D01*
X413766Y274402D02*
X427266D01*
X400894D02*
X413766D01*
X79756Y343881D02*
X83637Y340000D01*
X101082D01*
X326250Y211950D02*
Y227900D01*
X326136Y211836D02*
X326250Y211950D01*
Y227900D02*
X326750Y228400D01*
X275520Y241738D02*
X275590Y241808D01*
X275450Y227900D02*
X275520Y227970D01*
Y241738D01*
X288114Y227936D02*
X288150Y227900D01*
X288077Y241767D02*
X288114Y241730D01*
Y227936D02*
Y241730D01*
X300786Y227964D02*
X300850Y227900D01*
X300786Y227964D02*
Y241504D01*
X300722Y241568D02*
X300786Y241504D01*
X196342Y234696D02*
X212598Y250952D01*
X196342Y221224D02*
Y234696D01*
X188214Y174244D02*
Y213096D01*
X196342Y221224D01*
X198120Y210004D02*
X204000Y215883D01*
X198120Y167132D02*
Y210004D01*
X204000Y215883D02*
Y216154D01*
X166370Y252476D02*
X194818Y280924D01*
X176784Y244094D02*
X204216Y271526D01*
X263250Y214270D02*
X266446Y211074D01*
X262750Y227900D02*
X263250Y227400D01*
Y214270D02*
Y227400D01*
X155000Y259500D02*
X186076Y290576D01*
X407134Y528066D02*
X506730D01*
X384556Y530860D02*
X396240Y519176D01*
X438471D01*
X441400Y504150D02*
Y516247D01*
X438471Y519176D02*
X441400Y516247D01*
X388900Y546300D02*
X407134Y528066D01*
X441400Y504150D02*
X443442Y502108D01*
X282702Y502158D02*
X290991D01*
X291000Y502150D01*
X301700Y488644D02*
Y500150D01*
X303700Y502150D01*
X297688Y484632D02*
X301700Y488644D01*
X497586Y461010D02*
X497586Y461010D01*
Y471684D01*
X451050Y461550D02*
X466050D01*
X451000Y461500D02*
X451050Y461550D01*
X443442Y487214D02*
Y502108D01*
X462788Y476300D02*
X464788Y474300D01*
X443442Y487214D02*
X443484Y487172D01*
X464788Y474300D02*
X466100D01*
X466050Y461550D02*
X466100Y461600D01*
X220218Y498602D02*
X260858D01*
X282702Y520446D01*
X456100Y332150D02*
X474644D01*
X484124Y341630D01*
X377800Y166600D02*
X468908D01*
X480822Y90424D02*
Y154686D01*
X468908Y166600D02*
X480822Y154686D01*
X531772Y88138D02*
X532026Y87884D01*
X520192Y88138D02*
X531772D01*
X513334Y94996D02*
Y113284D01*
Y94996D02*
X520192Y88138D01*
X527328Y115800D02*
X581000D01*
X510032Y133096D02*
X527328Y115800D01*
X496316Y130302D02*
X513334Y113284D01*
X346949Y436895D02*
X347140Y436703D01*
Y426009D02*
X347650Y425500D01*
X347140Y426009D02*
Y436703D01*
X341669Y317123D02*
Y332019D01*
X341800Y332150D01*
X329100Y312683D02*
X332538Y309245D01*
Y308974D02*
Y309245D01*
X341538Y316992D02*
X341669Y317123D01*
X329100Y312683D02*
Y332150D01*
X302740Y530860D02*
X384556D01*
X287300Y546300D02*
X302740Y530860D01*
X354542Y486960D02*
Y502108D01*
Y486960D02*
X354584Y486918D01*
X430643Y487059D02*
X430671Y487087D01*
Y502122D01*
X456015Y505807D02*
Y516949D01*
X455930Y517034D02*
X456015Y516949D01*
Y505807D02*
X457632Y504190D01*
X466059Y372659D02*
X468100Y374700D01*
X456100Y332150D02*
Y347015D01*
X450050Y315214D02*
X475742D01*
X400812Y274320D02*
X400894Y274402D01*
X443358Y332191D02*
Y347028D01*
X428210Y374904D02*
X456100Y347015D01*
X443317Y347070D02*
X443358Y347028D01*
X421386Y374904D02*
X428210D01*
X443358Y332191D02*
X445400Y330150D01*
X423049Y89662D02*
X427026Y85685D01*
Y80600D02*
Y85685D01*
X377698Y90424D02*
X378460Y89662D01*
X423049D01*
X66342Y18366D02*
X103881D01*
X55342Y7366D02*
X66342Y18366D01*
X239500Y338500D02*
X241500Y340500D01*
X262000D01*
X211100Y507720D02*
X220218Y498602D01*
X274637Y114491D02*
X274828Y114300D01*
X187734Y90960D02*
Y156746D01*
X198120Y167132D01*
X231000Y181000D02*
X232422Y179578D01*
X245872D01*
X208026Y179000D02*
X209501Y180476D01*
X211463D02*
X211500Y180513D01*
Y181000D01*
X210566Y199434D02*
X211250Y198750D01*
X210566Y199434D02*
Y200660D01*
X415266Y295402D02*
X430700Y310836D01*
Y332150D01*
X234000Y198628D02*
X319786D01*
X313493Y227957D02*
X313550Y227900D01*
X313436Y241554D02*
X313493Y241497D01*
Y227957D02*
Y241497D01*
X267271Y114491D02*
X274637D01*
X262750Y119012D02*
Y135100D01*
Y119012D02*
X267271Y114491D01*
X286766Y364998D02*
X290068Y368300D01*
X157456Y147320D02*
X160782D01*
X150090Y139954D02*
X157456Y147320D01*
X160782D02*
X165862Y152400D01*
X148590Y139954D02*
X150090D01*
X165862Y152400D02*
Y168656D01*
X175514Y139954D02*
Y161544D01*
X188214Y174244D01*
X309880Y368300D02*
X316400Y361780D01*
X290068Y368300D02*
X309880D01*
X297642Y310642D02*
X303700Y316700D01*
X316400Y332150D02*
Y361780D01*
X113030Y15494D02*
X117226Y19690D01*
X103881Y18366D02*
X113705Y28190D01*
X113030Y10295D02*
Y15494D01*
X110101Y7366D02*
X113030Y10295D01*
X99792Y7366D02*
X110101D01*
X165862Y168656D02*
X177038Y179832D01*
X445400Y319865D02*
Y330150D01*
Y319865D02*
X450050Y315214D01*
X450891Y372659D02*
X466059D01*
X450850Y372618D02*
X450891Y372659D01*
X101082Y340000D02*
X112327Y328754D01*
Y324045D02*
Y328754D01*
Y324045D02*
X113284Y323088D01*
X80010Y375010D02*
Y391160D01*
X496316Y130302D02*
Y182372D01*
X80000Y375000D02*
X80010Y375010D01*
X166370Y233426D02*
Y252476D01*
X176784Y228600D02*
Y244094D01*
X156250Y223306D02*
X166370Y233426D01*
X156250Y217427D02*
Y223306D01*
X166908Y218724D02*
X176784Y228600D01*
X166908Y184942D02*
Y218724D01*
X408686Y373126D02*
X430700Y351112D01*
X321056Y373126D02*
X408686D01*
X404876Y362458D02*
X417388Y349946D01*
X330454Y362458D02*
X404876D01*
X339598Y351790D02*
X399542D01*
X404688Y346644D01*
Y332762D02*
Y346644D01*
Y332762D02*
X405300Y332150D01*
X417388Y332762D02*
Y349946D01*
X430700Y332150D02*
Y351112D01*
X319786Y198628D02*
X338950Y179464D01*
Y135100D02*
Y179464D01*
X118618Y167894D02*
X126654Y175930D01*
X132000D02*
X134000Y177930D01*
Y179430D01*
X126654Y175930D02*
X132000D01*
X132753Y217424D02*
X133375Y216802D01*
X120396Y217424D02*
X132753D01*
X133375Y216802D02*
Y239500D01*
X126246Y105682D02*
X126282D01*
X129032Y108432D02*
Y136652D01*
X126282Y105682D02*
X129032Y108432D01*
X126492Y305054D02*
X133401D01*
X133401Y305054D01*
X366000Y407150D02*
X384350D01*
X347650D02*
X366000D01*
Y425500D02*
X384350D01*
X347650D02*
X366000D01*
X384350Y407150D02*
Y425500D01*
Y388800D02*
Y407150D01*
X366000Y388800D02*
X384350D01*
X347650D02*
X366000D01*
X211100Y507720D02*
Y546300D01*
X326750Y228400D02*
Y256250D01*
X328500Y258000D01*
X326250Y118250D02*
X326644Y117856D01*
X326250Y118250D02*
Y135100D01*
X335800Y407150D02*
X347650D01*
X430671Y502122D02*
X430700Y502150D01*
X390652Y482871D02*
Y500202D01*
X390398Y482617D02*
X390652Y482871D01*
X354500Y502150D02*
X354542Y502108D01*
X390398Y482346D02*
Y482617D01*
X408306Y475362D02*
X417475Y484531D01*
X403300Y500150D02*
X405300Y502150D01*
X390652Y500202D02*
X392600Y502150D01*
X335788Y407162D02*
X335800Y407150D01*
X417388Y332762D02*
X418000Y332150D01*
X398144Y475362D02*
X408306D01*
X417475Y501625D02*
X418000Y502150D01*
X417475Y484531D02*
Y501625D01*
X400304Y485411D02*
X403300Y488406D01*
Y500150D01*
X400304Y485140D02*
Y485411D01*
X250050Y227900D02*
X262750D01*
X240526Y158000D02*
X244762Y153764D01*
X233000Y158000D02*
X240526D01*
X244762Y153764D02*
X246310Y152216D01*
X285107D01*
X231000Y160000D02*
X233000Y158000D01*
X288036Y135214D02*
Y149287D01*
Y135214D02*
X288150Y135100D01*
X285107Y152216D02*
X288036Y149287D01*
X446786Y80518D02*
X461944D01*
X510032Y133096D02*
Y171196D01*
X496316Y182372D02*
X505944Y192000D01*
X522224Y140462D02*
X580262D01*
X505944Y192000D02*
X581000D01*
X580262Y140462D02*
X581000Y141200D01*
X493049Y84577D02*
Y85268D01*
X485978D02*
X493049D01*
X480822Y90424D02*
X485978Y85268D01*
X493049Y84577D02*
X497026Y80600D01*
X461944Y80518D02*
X462026Y80600D01*
X326644Y117856D02*
X330962Y113538D01*
Y82804D02*
Y113538D01*
X283082Y45500D02*
X296500Y58918D01*
X226000Y45500D02*
X283082D01*
X331499Y80000D02*
Y82267D01*
X330962Y82804D02*
X331499Y82267D01*
X250050Y135100D02*
X262750D01*
X211250Y181250D02*
X211500Y181000D01*
X231000D01*
X211250Y181250D02*
Y198750D01*
X201500Y90500D02*
Y92500D01*
X218750Y7000D02*
X218862Y7112D01*
X230378D01*
X151067Y7183D02*
X152154Y6096D01*
X127975Y7183D02*
X151067D01*
X127792Y7366D02*
X127975Y7183D01*
X166000Y25654D02*
X179070D01*
X164000Y25850D02*
X165804D01*
X166000Y25654D01*
X152154Y6096D02*
X166370D01*
X300850Y135100D02*
Y159398D01*
X289748Y170500D02*
X300850Y159398D01*
X214765Y170500D02*
X289748D01*
X254000Y519430D02*
Y538121D01*
X261900Y546021D01*
Y546300D01*
X228600Y538121D02*
X236500Y546021D01*
Y546300D01*
X228600Y519430D02*
Y538121D01*
X212000Y137500D02*
X226822Y122678D01*
Y100822D02*
Y122678D01*
X220500Y94500D02*
X226822Y100822D01*
X219447Y80947D02*
Y91447D01*
X205000Y66500D02*
X219447Y80947D01*
Y91447D02*
X220500Y92500D01*
X205259Y26591D02*
X206000Y25850D01*
X196929Y26591D02*
X205259D01*
X154940Y286512D02*
X155625Y287196D01*
X177038Y214122D02*
X186944Y224028D01*
X177038Y179832D02*
Y214122D01*
X155625Y216802D02*
X156250Y217427D01*
X155000Y179430D02*
X155625Y178805D01*
Y160930D02*
Y178805D01*
X457632Y504190D02*
X497586D01*
X186944Y224028D02*
Y239268D01*
X329100Y482008D02*
Y502150D01*
X157000Y181785D02*
X163751D01*
X166908Y184942D01*
X155000Y258000D02*
Y259500D01*
X272358Y310642D02*
X297642D01*
X263500Y319499D02*
X272358Y310642D01*
X316400Y487088D02*
Y502150D01*
X237744Y459486D02*
X248500Y448730D01*
Y448730D02*
X254000Y443230D01*
X248500Y448730D02*
Y448730D01*
X155000Y198302D02*
X155702Y199004D01*
X155625Y216802D02*
X155702Y216725D01*
Y199004D02*
Y216725D01*
X155000Y258000D02*
X155625Y257375D01*
Y239500D02*
X155625Y239500D01*
X155625Y239500D02*
Y257375D01*
X341800Y476674D02*
Y502150D01*
X245499Y319499D02*
X263500D01*
X80000Y445000D02*
X80385Y445385D01*
X133841Y258159D02*
X134000Y258000D01*
X118015Y258159D02*
X133841D01*
X117856Y258318D02*
X118015Y258159D01*
X132962Y286756D02*
X134000Y285718D01*
X80244Y286756D02*
X132962D01*
X133651Y198651D02*
X134000Y198302D01*
X80000Y199000D02*
X80349Y198651D01*
X133651D01*
X245000Y319000D02*
X245499Y319499D01*
X244501D02*
X245000Y319000D01*
X243000Y319499D02*
X244501D01*
X220500Y92500D02*
Y94500D01*
X296500Y58918D02*
Y80000D01*
X226000Y65000D02*
X257523D01*
X261500Y68977D01*
Y80000D01*
X205000Y65000D02*
Y66500D01*
X1025799Y278650D02*
X1029599Y274850D01*
X1075799Y342352D02*
X1078152Y344704D01*
Y356923D01*
X1081379Y360150D01*
X1090598D01*
X1060389Y353469D02*
X1073499Y366579D01*
Y438992D01*
X1034890Y340612D02*
X1039149Y344871D01*
X1059428Y280450D02*
X1059699D01*
X1057029Y282850D02*
X1059428Y280450D01*
X1051099Y295850D02*
X1056467D01*
X1051099Y282850D02*
X1057029D01*
X1058937Y293379D02*
X1059208D01*
X1049599Y284350D02*
X1051099Y282850D01*
X1056467Y295850D02*
X1058937Y293379D01*
X1060389Y307070D02*
Y353469D01*
Y307070D02*
X1071709Y295750D01*
X1046699Y255050D02*
X1061669D01*
X1071709Y265090D01*
Y295750D01*
X1059108Y266850D02*
X1061558Y269300D01*
X1061829D01*
X1051099Y266850D02*
X1059108D01*
X1012404Y117175D02*
X1040374D01*
X758562Y95063D02*
X767712D01*
X1012279Y117300D02*
X1012404Y117175D01*
X804249Y150250D02*
X836549D01*
X991699Y127300D02*
X999199Y134800D01*
X852299Y116500D02*
X1011479D01*
X779199Y161150D02*
X842249D01*
X836549Y150250D02*
X859499Y127300D01*
X774399Y101750D02*
Y120400D01*
X757857Y69088D02*
X768287D01*
X1040374Y117175D02*
X1040499Y117050D01*
X1054349Y246550D02*
X1093899D01*
X755599Y92100D02*
X758562Y95063D01*
X774399Y120400D02*
X804249Y150250D01*
X1011479Y116500D02*
X1012279Y117300D01*
X755440Y137391D02*
X779199Y161150D01*
X859499Y127300D02*
X991699D01*
X827549Y141250D02*
X852299Y116500D01*
X1012279Y66500D02*
X1032649D01*
X755249Y133200D02*
X755440Y133391D01*
X986299Y138050D02*
X994399Y146150D01*
X1045599Y237800D02*
X1054349Y246550D01*
X786999Y87800D02*
Y119100D01*
X767712Y95063D02*
X774399Y101750D01*
X1010949Y134800D02*
X1051649Y175500D01*
X865349Y138050D02*
X986299D01*
X1045599Y184600D02*
Y237800D01*
X755249Y117320D02*
X755269Y117300D01*
X999199Y134800D02*
X1010949D01*
X786999Y119100D02*
X796605Y128706D01*
X755249Y117320D02*
Y133200D01*
X755269Y66500D02*
X757857Y69088D01*
X755440Y133391D02*
Y137391D01*
X768287Y69088D02*
X786999Y87800D01*
X842249Y161150D02*
X865349Y138050D01*
X994399Y146150D02*
X1007149D01*
X1045599Y184600D01*
X796605Y128706D02*
X825443D01*
X723838Y19269D02*
Y19559D01*
X711939Y7370D02*
X723838Y19269D01*
Y19559D02*
X724029Y19750D01*
X1235799Y496150D02*
Y514400D01*
X1213224Y444375D02*
X1213249Y444350D01*
X1213199Y473100D02*
X1213224Y473075D01*
X1203999Y496300D02*
Y514550D01*
X1206849Y550350D02*
X1213249D01*
X1247249Y444350D02*
Y472700D01*
X1213224Y444375D02*
Y473075D01*
X1247249Y472700D02*
X1247549Y473000D01*
X1171199Y514700D02*
X1206849Y550350D01*
X1187599Y496700D02*
Y514950D01*
X1220199Y496450D02*
Y514700D01*
X1251899Y496150D02*
Y513900D01*
X1034049Y242400D02*
X1046699Y255050D01*
X1034049Y189950D02*
Y242400D01*
X1049599Y265350D02*
X1051099Y266850D01*
X1018849Y174750D02*
X1034049Y189950D01*
X1029099Y274850D02*
X1029599D01*
X1027599Y273350D02*
X1029099Y274850D01*
X1016899Y261450D02*
X1027599Y272150D01*
Y273350D01*
X1016899Y240750D02*
Y261450D01*
Y228300D02*
Y240750D01*
X1049599Y297350D02*
X1051099Y295850D01*
X1039149Y344871D02*
Y354100D01*
X914249Y203850D02*
X914399Y203700D01*
X943899Y204200D02*
X944399Y203700D01*
X984899Y388550D02*
X999249D01*
X754399Y177450D02*
Y203700D01*
X956249Y174800D02*
X956299Y174750D01*
X924399Y219700D02*
X939884D01*
X682499Y448750D02*
X682549Y448700D01*
X900328Y219700D02*
X914249D01*
X1073499Y438992D02*
X1081599Y447092D01*
X698899Y429200D02*
X699399Y428700D01*
X1081599Y447092D02*
Y455300D01*
X999349Y247350D02*
Y258650D01*
X726999Y273100D02*
X729399Y275500D01*
X897399Y222629D02*
X900328Y219700D01*
X754399Y177450D02*
X761949Y169900D01*
X682549Y448700D02*
X699399D01*
X924399Y203700D02*
Y219700D01*
X1074649Y462250D02*
X1081599Y455300D01*
X939884Y219700D02*
X943899Y215685D01*
X985374Y398625D02*
X999324D01*
X729399Y275500D02*
Y290700D01*
X894399Y233700D02*
X897399Y230700D01*
X1025899Y462250D02*
X1074649D01*
X897399Y222629D02*
Y230700D01*
X914249Y203850D02*
Y219700D01*
X924399D01*
X956299Y174750D02*
X1018849D01*
X695449Y248200D02*
X695924Y248675D01*
X784249Y184650D02*
X784399Y184800D01*
X943899Y204200D02*
Y215685D01*
X682599Y432250D02*
X685649Y429200D01*
X698899D01*
X794249Y184600D02*
Y203550D01*
X764299Y203800D02*
Y219600D01*
X984099Y348700D02*
X999399D01*
X985299Y398550D02*
X985374Y398625D01*
X999349Y258650D02*
X999399Y258700D01*
X999399Y258700D02*
Y268700D01*
X695924Y248675D02*
X699374D01*
X984299Y298650D02*
X984349Y298700D01*
X999399D01*
X764299Y203800D02*
X764399Y203700D01*
X695449Y236800D02*
Y248200D01*
X984049Y348650D02*
X984099Y348700D01*
X999249Y388550D02*
X999399Y388700D01*
X999324Y398625D02*
X999399Y398700D01*
X1012849Y449200D02*
X1025899Y462250D01*
X1003349Y449200D02*
X1012849D01*
X1002849Y448700D02*
X1003349Y449200D01*
X999399Y448700D02*
X1002849D01*
X699374Y248675D02*
X699399Y248700D01*
X794249Y203550D02*
X794399Y203700D01*
X784399Y184800D02*
Y203700D01*
X1234149Y265250D02*
Y281250D01*
X1136949Y389900D02*
X1169799D01*
X1187799Y407900D01*
X1222099D01*
X1130799Y396050D02*
X1136949Y389900D01*
X1234149Y265250D02*
X1234649Y264750D01*
X1113749Y390600D02*
X1123208Y381141D01*
Y376891D02*
X1123399Y376700D01*
X1123208Y376891D02*
Y381141D01*
X1113749Y390600D02*
Y391350D01*
X1084928Y376150D02*
X1106528D01*
X1111799Y342352D02*
Y370879D01*
X1106528Y376150D02*
X1111799Y370879D01*
X775449Y383500D02*
Y423950D01*
X775399Y383450D02*
X775449Y383500D01*
Y327665D02*
Y383400D01*
X775399Y383450D02*
X775449Y383400D01*
X730499Y449911D02*
X749488D01*
X775449Y423950D01*
X722449Y226050D02*
X752649Y256250D01*
X819299D02*
X853399Y290350D01*
X752649Y256250D02*
X819299D01*
X769049Y265300D02*
Y321265D01*
X775449Y327665D01*
X722449Y173850D02*
Y226050D01*
X1039149Y354100D02*
X1048999D01*
X1057549Y362650D01*
Y367000D01*
X1057799Y367250D01*
X1065729Y447200D02*
X1071029Y452500D01*
X1071299D01*
X1055299Y447200D02*
X1065729D01*
X1055149Y447350D02*
X1055299Y447200D01*
X1053299Y447350D02*
X1055149D01*
X1053299D02*
X1053349Y447300D01*
X1053299Y428100D02*
X1053399Y428200D01*
X1053199Y409050D02*
X1053299Y409150D01*
Y428100D01*
X1053349Y428250D02*
Y447300D01*
Y428250D02*
X1053399Y428200D01*
X1026670Y288700D02*
X1029599Y291629D01*
X999399Y288700D02*
X1026670D01*
X1029599Y291629D02*
Y303000D01*
X739299Y75850D02*
Y157000D01*
X722449Y173850D02*
X739299Y157000D01*
X736299Y72850D02*
X739299Y75850D01*
X736299Y53350D02*
Y72850D01*
Y53350D02*
X745149Y44500D01*
X782049D01*
X799699Y62150D01*
X853399Y290350D02*
Y316600D01*
X999449Y278650D02*
X1025799D01*
X1093499Y429515D02*
Y450350D01*
X1081999Y424686D02*
X1084928Y427614D01*
X1081999Y379079D02*
Y424686D01*
Y379079D02*
X1084928Y376150D01*
Y427614D02*
X1091599D01*
X1093499Y429515D01*
X1132699Y571700D02*
X1133799Y572800D01*
X1105549Y450450D02*
X1114399D01*
X1131374Y451175D02*
X1139649D01*
X1130599Y450400D02*
X1131374Y451175D01*
X1151799Y417200D02*
X1151849Y417150D01*
X1151799Y417200D02*
Y430200D01*
X871099Y33800D02*
X1014149D01*
X1014249Y33700D01*
X1025996Y393200D02*
X1027349D01*
X750633Y15387D02*
X799645D01*
X721170Y44850D02*
X750633Y15387D01*
X1020749Y443850D02*
X1030299D01*
X999399Y438700D02*
X999899Y439200D01*
X1016099D01*
X1020749Y443850D01*
X999649Y428450D02*
X1032099D01*
X999399Y398700D02*
X1020496D01*
X1025996Y393200D01*
X699199Y44850D02*
X721170D01*
X1061449Y532150D02*
Y545800D01*
X1061949Y546300D01*
X1057949Y528650D02*
X1061449Y532150D01*
X1024299Y528650D02*
X1057949D01*
X999399Y278700D02*
X999449Y278650D01*
X999899Y418200D02*
X1017249D01*
X1023746Y411703D02*
X1030199D01*
X1017249Y418200D02*
X1023746Y411703D01*
X999399Y418700D02*
X999899Y418200D01*
X999399Y428700D02*
X999649Y428450D01*
X999899Y358200D02*
X1016699D01*
X1020799Y354100D02*
X1030649D01*
X1016699Y358200D02*
X1020799Y354100D01*
X999399Y358700D02*
X999899Y358200D01*
X1130799Y396050D02*
Y430200D01*
X680024Y248675D02*
X695924D01*
X679999Y248650D02*
X680024Y248675D01*
X1133349Y573250D02*
X1133799Y572800D01*
X1131749Y573250D02*
X1133349D01*
X1094149Y391950D02*
X1094749Y391350D01*
X1093549Y410650D02*
X1094149Y410050D01*
Y391950D02*
Y410050D01*
X1093399Y450450D02*
X1093499Y450350D01*
X1114674Y430125D02*
X1130724D01*
X1130799Y430200D01*
X1114599Y430050D02*
X1114674Y430125D01*
X1222099Y407900D02*
X1230249Y416050D01*
Y444350D01*
D29*
X195484Y136441D02*
X204793Y145750D01*
X195484Y100516D02*
X201500Y94500D01*
Y92500D02*
Y94500D01*
X195484Y100516D02*
Y136441D01*
X210500Y145750D02*
X210750Y146000D01*
X204793Y145750D02*
X210500D01*
X236552Y138000D02*
X239268Y140716D01*
Y145288D01*
X229250Y138000D02*
X236552D01*
X239268Y145288D02*
X246253Y152273D01*
X213000Y160000D02*
X226270Y146730D01*
X1037299Y332200D02*
Y337526D01*
X1034890Y339935D02*
X1037299Y337526D01*
X1034890Y339935D02*
Y340612D01*
X1016849Y207300D02*
X1016899Y207250D01*
X1024086Y228300D02*
X1025086Y229300D01*
X1016899Y195800D02*
Y207250D01*
X683719Y19230D02*
X683829Y19120D01*
Y7480D02*
Y19120D01*
Y7480D02*
X683939Y7370D01*
X1030299Y332200D02*
Y333200D01*
X1020658Y341050D02*
X1023308Y338400D01*
X1025099D01*
X1030299Y333200D01*
X1018899Y341050D02*
X1020658D01*
X1018899Y310050D02*
Y339806D01*
Y341050D01*
Y310050D02*
X1021899Y307050D01*
X1027349Y305250D02*
Y306550D01*
X1026849Y307050D02*
X1027349Y306550D01*
X1021899Y307050D02*
X1026849D01*
X1037549Y327900D02*
Y331950D01*
Y327900D02*
X1049099Y316350D01*
X1037299Y332200D02*
X1037549Y331950D01*
X1049099Y316350D02*
X1049599D01*
X1027349Y305250D02*
X1029599Y303000D01*
X992899Y228300D02*
X1016899D01*
X987849Y194500D02*
Y223250D01*
X992899Y228300D01*
X754149Y485000D02*
X754399Y485250D01*
X784399Y489100D02*
Y503700D01*
X786399Y473700D02*
X786599Y473900D01*
X696849Y348700D02*
X699399D01*
X786599Y473900D02*
Y486900D01*
X682449Y260700D02*
X684449Y258700D01*
X784399Y489100D02*
X786599Y486900D01*
X699399Y348700D02*
X699399Y348700D01*
X1012282Y464582D02*
X1014932D01*
X754399Y485250D02*
Y503700D01*
X1006399Y458700D02*
X1012282Y464582D01*
X999399Y458700D02*
X1006399D01*
X1014932Y464582D02*
X1015410Y465061D01*
X683249Y288700D02*
X699399D01*
X684449Y258700D02*
X699399D01*
X683199Y288750D02*
X683249Y288700D01*
X682849Y278700D02*
X682899D01*
X682849D02*
X682849Y278700D01*
X699399D01*
X1105449Y410650D02*
X1105449Y410650D01*
X1114549D01*
X1053199Y409050D02*
X1054349Y407900D01*
Y400600D02*
Y407900D01*
X1057399Y390850D02*
Y397550D01*
X1054349Y400600D02*
X1057399Y397550D01*
X1047049Y380500D02*
X1057399Y390850D01*
X1039399Y380500D02*
X1047049D01*
X1039199Y380300D02*
X1039399Y380500D01*
X729099Y84400D02*
X729149Y84450D01*
X719899Y84400D02*
X729099D01*
X699199Y77350D02*
X718846D01*
X698199Y78350D02*
X699199Y77350D01*
X1032249Y447400D02*
X1032299Y447350D01*
X679949Y348300D02*
X679999D01*
X680099Y348400D01*
X685026Y78350D02*
X698199D01*
X682026Y81350D02*
X685026Y78350D01*
X681349Y81350D02*
X682026D01*
D30*
X228520Y146730D02*
X229250Y146000D01*
X226270Y146730D02*
X228520D01*
X980824Y194475D02*
X980849Y194500D01*
X967049Y194450D02*
X967074Y194475D01*
X980824D01*
X844399Y203700D02*
X844399Y203700D01*
X854399Y186280D02*
X854399Y186280D01*
X844399Y218050D02*
X844399Y218050D01*
X864399Y203700D02*
X864424Y203725D01*
X854399Y186280D02*
Y203700D01*
X814574Y203875D02*
Y217875D01*
X828449Y186350D02*
X842099D01*
X854399Y203700D02*
X854399Y203700D01*
X864424Y217775D02*
X864449Y217800D01*
X824399Y190400D02*
X828449Y186350D01*
X824399Y190400D02*
Y203700D01*
X814399D02*
X814574Y203875D01*
Y217875D02*
X814749Y218050D01*
X844399Y203700D02*
Y218050D01*
X804374Y203725D02*
X804399Y203700D01*
X864424Y203725D02*
Y217775D01*
X804349Y218050D02*
X804374Y218025D01*
Y203725D02*
Y218025D01*
X834399Y203700D02*
Y218050D01*
X834449Y218100D01*
X699349Y328750D02*
X699399Y328700D01*
X681799Y328750D02*
X699349D01*
X681299Y329250D02*
X681799Y328750D01*
X922999Y403600D02*
Y415600D01*
X680999Y313150D02*
X686549Y318700D01*
X699399D01*
X680849Y313000D02*
X680949D01*
X680999Y313050D02*
Y313150D01*
X680949Y313000D02*
X680999Y313050D01*
X925199Y430700D02*
X985749Y491250D01*
Y546300D01*
X917899Y430700D02*
X925199D01*
X680449Y418600D02*
X680499Y418650D01*
X699349D01*
X699399Y418700D01*
X699349Y368750D02*
X699399Y368700D01*
X680849Y368800D02*
X680899Y368750D01*
X699349D01*
X994499Y487100D02*
Y529650D01*
X922999Y415600D02*
X994499Y487100D01*
X923899Y442250D02*
X976699Y495050D01*
X994499Y529650D02*
X1011149Y546300D01*
X960349Y546150D02*
Y546300D01*
Y546150D02*
X976699Y529800D01*
Y495050D02*
Y529800D01*
D31*
X687089Y506480D02*
G03*
X684879Y501145I5335J-5335D01*
G01*
X691676Y508380D02*
G03*
X687089Y506480I0J-6487D01*
G01*
X713175Y508380D02*
G03*
X719259Y510900I0J8604D01*
G01*
X686139Y460070D02*
G03*
X689446Y458700I3307J3307D01*
G01*
X684879Y463112D02*
G03*
X686139Y460070I4302J0D01*
G01*
X719259Y510900D02*
G03*
X720919Y514908I-4008J4008D01*
G01*
X691676Y508380D02*
X713175D01*
X684879Y463112D02*
Y501145D01*
X689446Y458700D02*
X699399D01*
X720919Y514908D02*
Y555090D01*
X0Y0D02*
X600000D01*
X0D02*
Y600000D01*
X600000Y0D02*
Y600000D01*
X0D02*
X600000D01*
X1273049Y484950D02*
Y600000D01*
X673049D02*
X1273049D01*
Y401700D02*
Y484950D01*
X1057499Y50D02*
Y236700D01*
X786299Y50D02*
X1057499D01*
Y236700D02*
X1273049D01*
X673049Y0D02*
X786049D01*
X673049Y461750D02*
X673049Y0D01*
X1273049Y236700D02*
Y401700D01*
X673049Y461750D02*
Y600000D01*
D32*
X1012279Y117300D02*
D03*
Y91900D02*
D03*
Y66500D02*
D03*
X755269Y117300D02*
D03*
Y91900D02*
D03*
Y66500D02*
D03*
D33*
X1030299Y332200D02*
D03*
X1037299D02*
D03*
X980849Y194500D02*
D03*
X987849D02*
D03*
D34*
X719899Y77400D02*
D03*
Y84400D02*
D03*
D35*
X1094749Y391350D02*
D03*
X1113749D02*
D03*
D36*
X1039199Y380300D02*
D03*
X1030699D02*
D03*
X1057799Y367250D02*
D03*
X1049299D02*
D03*
X1039149Y354100D02*
D03*
X1030649D02*
D03*
D37*
X1049599Y297350D02*
D03*
Y316350D02*
D03*
X1029599Y306850D02*
D03*
Y274850D02*
D03*
X1049599Y284350D02*
D03*
Y265350D02*
D03*
D38*
X1075799Y342352D02*
D03*
X1111799D02*
D03*
D39*
X1148449Y351800D02*
D03*
X1249449D02*
D03*
D40*
X1174149Y264750D02*
D03*
X1234649D02*
D03*
D41*
X1213249Y550350D02*
D03*
D42*
X1247249Y444350D02*
D03*
X1230249D02*
D03*
X1213249D02*
D03*
X1196249D02*
D03*
X1179249D02*
D03*
D43*
X1131749Y573250D02*
D03*
Y530250D02*
D03*
D44*
X999399Y368700D02*
D03*
Y378700D02*
D03*
X699399Y458700D02*
D03*
Y448700D02*
D03*
Y438700D02*
D03*
Y428700D02*
D03*
Y418700D02*
D03*
X999399Y258700D02*
D03*
X999399Y268700D02*
D03*
Y278700D02*
D03*
Y288700D02*
D03*
Y298700D02*
D03*
Y308700D02*
D03*
Y318700D02*
D03*
Y328700D02*
D03*
Y338700D02*
D03*
Y348700D02*
D03*
Y358700D02*
D03*
Y388700D02*
D03*
Y398700D02*
D03*
Y408700D02*
D03*
Y418700D02*
D03*
X999399Y428700D02*
D03*
X999399Y438700D02*
D03*
Y448700D02*
D03*
Y458700D02*
D03*
X699399Y408700D02*
D03*
Y398700D02*
D03*
Y388700D02*
D03*
Y378700D02*
D03*
Y368700D02*
D03*
Y358700D02*
D03*
Y348700D02*
D03*
Y338700D02*
D03*
Y328700D02*
D03*
Y318700D02*
D03*
Y308700D02*
D03*
Y298700D02*
D03*
Y288700D02*
D03*
Y278700D02*
D03*
Y268700D02*
D03*
Y258700D02*
D03*
Y248700D02*
D03*
D45*
X912399Y233700D02*
D03*
X894399Y233700D02*
D03*
X876399D02*
D03*
X858399D02*
D03*
X840399Y233700D02*
D03*
X822399D02*
D03*
X804399D02*
D03*
X786399Y473700D02*
D03*
X804399D02*
D03*
X822399D02*
D03*
X840399D02*
D03*
X858399D02*
D03*
X876399D02*
D03*
X894399D02*
D03*
X786399Y233700D02*
D03*
X912399Y473700D02*
D03*
D46*
X729399Y290700D02*
D03*
Y308700D02*
D03*
Y326700D02*
D03*
Y344700D02*
D03*
X729399Y362700D02*
D03*
Y380700D02*
D03*
X729399Y398700D02*
D03*
Y416700D02*
D03*
X969399Y308700D02*
D03*
Y326700D02*
D03*
Y344700D02*
D03*
Y362700D02*
D03*
Y380700D02*
D03*
Y398700D02*
D03*
Y416700D02*
D03*
Y290700D02*
D03*
D47*
X954399Y503700D02*
D03*
X944399D02*
D03*
X934399D02*
D03*
X924399D02*
D03*
X914399D02*
D03*
X904399D02*
D03*
X894399D02*
D03*
X884399D02*
D03*
X874399D02*
D03*
X864399D02*
D03*
X854399D02*
D03*
X844399D02*
D03*
X834399D02*
D03*
X824399D02*
D03*
X814399D02*
D03*
X804399D02*
D03*
X794399D02*
D03*
X784399D02*
D03*
X774399Y503700D02*
D03*
X764399Y503700D02*
D03*
X754399D02*
D03*
X744399D02*
D03*
X814399Y203700D02*
D03*
X824399D02*
D03*
X834399D02*
D03*
X844399D02*
D03*
X854399D02*
D03*
X864399D02*
D03*
X874399D02*
D03*
X884399D02*
D03*
X894399D02*
D03*
X904399D02*
D03*
X914399D02*
D03*
X924399D02*
D03*
X934399D02*
D03*
X944399D02*
D03*
X954399D02*
D03*
X744399D02*
D03*
X754399D02*
D03*
X764399D02*
D03*
X774399D02*
D03*
X784399D02*
D03*
X794399D02*
D03*
X804399D02*
D03*
D48*
X1041429Y386680D02*
X1047849Y393100D01*
X1030989Y384420D02*
X1033249Y386680D01*
X1041429D01*
X1034199Y376368D02*
Y376550D01*
X1030699Y380050D02*
X1034199Y376550D01*
X1030989Y380590D02*
Y384420D01*
X1030699Y380300D02*
X1030989Y380590D01*
X1030699Y380050D02*
Y380300D01*
X1006399Y378700D02*
X1009149Y375950D01*
X999399Y378700D02*
X1006399D01*
X1034199Y376368D02*
X1036344Y374223D01*
X1023568Y375950D02*
X1028830Y370688D01*
X1009149Y375950D02*
X1023568D01*
X1036344Y372152D02*
Y374223D01*
X1034879Y370688D02*
X1036344Y372152D01*
X1028830Y370688D02*
X1034879D01*
X1060970Y380250D02*
X1062999D01*
X1055867Y375148D02*
X1060970Y380250D01*
X1053167Y375148D02*
X1055867D01*
X1049499Y367450D02*
Y371480D01*
X1053167Y375148D01*
X1009149Y371450D02*
X1021704D01*
X1039526Y368970D02*
X1047799D01*
X1006399Y368700D02*
X1009149Y371450D01*
X1047799Y368970D02*
X1049299Y367470D01*
X999399Y368700D02*
X1006399D01*
X1049299Y367250D02*
Y367470D01*
X1036743Y366188D02*
X1039526Y368970D01*
X1049299Y367250D02*
X1049499Y367450D01*
X1026966Y366188D02*
X1036743D01*
X1021704Y371450D02*
X1026966Y366188D01*
X991049Y375950D02*
Y376950D01*
X992799Y378700D01*
X999399D01*
X992799Y368700D02*
X999399D01*
X990719Y375620D02*
X991049Y375950D01*
Y370450D02*
Y371120D01*
Y370450D02*
X992799Y368700D01*
X985649Y375620D02*
X990719D01*
X984299Y371120D02*
X984456Y370963D01*
X985492D01*
X985649Y371120D01*
X984299Y375620D02*
X984456Y375776D01*
X985492D01*
X985649Y375620D01*
Y371120D02*
X991049D01*
X984299Y375620D02*
Y376870D01*
Y369870D02*
Y371120D01*
D49*
X-25Y0D02*
Y600050D01*
Y0D02*
X1273073D01*
X-25Y600050D02*
X1273073D01*
X1273073Y0D01*
D50*
X254000Y443230D02*
D03*
X228600D02*
D03*
X254000Y519430D02*
D03*
X228600D02*
D03*
D51*
X165862Y444246D02*
D03*
D52*
X191262D02*
D03*
D53*
X87122Y511048D02*
D03*
Y485648D02*
D03*
X112522Y511048D02*
D03*
Y485648D02*
D03*
X137922Y511048D02*
D03*
D54*
Y485648D02*
D03*
D55*
X30226Y569722D02*
D03*
X569722D02*
D03*
D56*
X387698Y192024D02*
D03*
Y166624D02*
D03*
Y141224D02*
D03*
Y115824D02*
D03*
Y90424D02*
D03*
Y65024D02*
D03*
X570898Y192024D02*
D03*
Y166624D02*
D03*
Y141224D02*
D03*
Y115824D02*
D03*
Y90424D02*
D03*
Y65024D02*
D03*
D57*
X75894Y33010D02*
D03*
D58*
X45894Y80010D02*
D03*
X105894D02*
D03*
D59*
X185700Y546300D02*
D03*
X858749Y571700D02*
D03*
D60*
X211100Y546300D02*
D03*
X236500D02*
D03*
X261900D02*
D03*
X287300D02*
D03*
X312700D02*
D03*
X338100D02*
D03*
X363500D02*
D03*
X388900D02*
D03*
X414300D02*
D03*
X185700Y571700D02*
D03*
X211100D02*
D03*
X236500D02*
D03*
X261900D02*
D03*
X287300D02*
D03*
X312700D02*
D03*
X338100D02*
D03*
X363500D02*
D03*
X388900D02*
D03*
X414300D02*
D03*
X1087349Y546300D02*
D03*
X1061949D02*
D03*
X1036549D02*
D03*
X1011149D02*
D03*
X985749D02*
D03*
X960349D02*
D03*
X934949D02*
D03*
X909549D02*
D03*
X884149D02*
D03*
X858749D02*
D03*
X1087349Y571700D02*
D03*
X1061949D02*
D03*
X1036549D02*
D03*
X1011149D02*
D03*
X985749D02*
D03*
X960349D02*
D03*
X934949D02*
D03*
X909549D02*
D03*
X884149D02*
D03*
D61*
X78740Y181356D02*
D03*
X118618Y167894D02*
D03*
X225296Y395492D02*
D03*
X272932Y329352D02*
D03*
X237501Y308500D02*
D03*
X171704Y314198D02*
D03*
X303530Y356866D02*
D03*
X240030Y415290D02*
D03*
X102362Y117094D02*
D03*
X140911Y368949D02*
D03*
X119126Y377444D02*
D03*
X159001Y427245D02*
D03*
X117094Y445385D02*
D03*
X79756Y354838D02*
D03*
X117094Y409448D02*
D03*
X138802Y149736D02*
D03*
X203734Y128624D02*
D03*
X214108Y260618D02*
D03*
X203734Y114300D02*
D03*
X157860Y129072D02*
D03*
X425704Y44958D02*
D03*
X510032Y171196D02*
D03*
X462788Y483870D02*
D03*
X520192Y398272D02*
D03*
X540004D02*
D03*
X425450Y21590D02*
D03*
X251460Y361442D02*
D03*
X305562Y378460D02*
D03*
X299466Y393192D02*
D03*
X584200Y331470D02*
D03*
X467106Y547624D02*
D03*
X109728Y38608D02*
D03*
X132334Y66548D02*
D03*
X232156Y218694D02*
D03*
X443317Y347070D02*
D03*
X249936Y242316D02*
D03*
X22606Y19050D02*
D03*
X73152Y7112D02*
D03*
X172212Y69342D02*
D03*
X400304Y244602D02*
D03*
X377444Y231902D02*
D03*
X378460Y253492D02*
D03*
X308610Y208026D02*
D03*
X296926Y184150D02*
D03*
X272796D02*
D03*
X288036Y208026D02*
D03*
X400812Y258572D02*
D03*
X559308Y279908D02*
D03*
X385572Y221996D02*
D03*
X326136Y211836D02*
D03*
X266446Y211074D02*
D03*
X275590Y241808D02*
D03*
X288077Y241767D02*
D03*
X300722Y241568D02*
D03*
X226836Y260618D02*
D03*
X204000Y216154D02*
D03*
X282702Y502158D02*
D03*
X437896Y541020D02*
D03*
X297688Y484632D02*
D03*
X497586Y461010D02*
D03*
X451000Y461500D02*
D03*
X443484Y487172D02*
D03*
X346949Y436895D02*
D03*
X332538Y308974D02*
D03*
X341538Y316992D02*
D03*
X354584Y486918D02*
D03*
X430643Y487059D02*
D03*
X455930Y517034D02*
D03*
X441198Y552196D02*
D03*
X400812Y274320D02*
D03*
X274828Y114300D02*
D03*
X245872Y179578D02*
D03*
X339090Y203454D02*
D03*
X313436Y241554D02*
D03*
X135246Y86682D02*
D03*
X197998Y150622D02*
D03*
X560070Y314706D02*
D03*
X450850Y372618D02*
D03*
X144272Y245618D02*
D03*
Y271780D02*
D03*
X143764Y297180D02*
D03*
X80010Y391160D02*
D03*
Y268224D02*
D03*
X113284Y323088D02*
D03*
X330454Y362458D02*
D03*
X339598Y351790D02*
D03*
X321056Y373126D02*
D03*
X120396Y217424D02*
D03*
X126492Y305054D02*
D03*
X326644Y117856D02*
D03*
X400304Y485140D02*
D03*
X390398Y482346D02*
D03*
X335788Y407162D02*
D03*
X398144Y475362D02*
D03*
X421386Y374904D02*
D03*
X171450Y364236D02*
D03*
X250190Y161500D02*
D03*
X446786Y80518D02*
D03*
X522224Y140462D02*
D03*
X230378Y7112D02*
D03*
X179070Y25654D02*
D03*
X166370Y6096D02*
D03*
X117856Y258318D02*
D03*
X1034890Y340612D02*
D03*
X1123399Y376700D02*
D03*
X775399Y383450D02*
D03*
X1016849Y207300D02*
D03*
X962219Y587570D02*
D03*
X942929Y587410D02*
D03*
X921519D02*
D03*
X847579Y587240D02*
D03*
X871739Y586760D02*
D03*
X896229Y586590D02*
D03*
X1160650Y466001D02*
D03*
X1038250Y480401D02*
D03*
X1178650Y415601D02*
D03*
X1175050Y408401D02*
D03*
X1167850Y451601D02*
D03*
Y437201D02*
D03*
Y422801D02*
D03*
X1164250Y415601D02*
D03*
Y401201D02*
D03*
X1146250Y466001D02*
D03*
X1149850Y401201D02*
D03*
X1074250Y480401D02*
D03*
X1052650D02*
D03*
X1016650D02*
D03*
X966250Y523601D02*
D03*
X951850D02*
D03*
X944650D02*
D03*
X930250D02*
D03*
X923050Y538001D02*
D03*
X851050Y523601D02*
D03*
X843850D02*
D03*
X1121050Y300401D02*
D03*
X1146250Y307601D02*
D03*
Y278801D02*
D03*
Y264401D02*
D03*
X1139050Y293201D02*
D03*
Y278801D02*
D03*
Y264401D02*
D03*
Y250001D02*
D03*
X1135450Y300401D02*
D03*
Y286001D02*
D03*
Y271601D02*
D03*
Y257201D02*
D03*
X1124650Y307601D02*
D03*
Y278801D02*
D03*
Y264401D02*
D03*
Y250001D02*
D03*
X1117450Y293201D02*
D03*
X1121050Y271601D02*
D03*
Y257201D02*
D03*
X1110250Y307601D02*
D03*
Y278801D02*
D03*
Y250001D02*
D03*
X1106650Y300401D02*
D03*
X677269Y493490D02*
D03*
X682499Y448750D02*
D03*
X694229Y500560D02*
D03*
X686719Y515080D02*
D03*
X680329Y510150D02*
D03*
X677299Y502060D02*
D03*
X683719Y19230D02*
D03*
X677289Y467330D02*
D03*
X677259Y485020D02*
D03*
X677279Y476370D02*
D03*
X692439Y481310D02*
D03*
Y491620D02*
D03*
X702999Y468920D02*
D03*
X692619Y470360D02*
D03*
X729539Y539250D02*
D03*
X728909Y514460D02*
D03*
X728769Y523210D02*
D03*
X728819Y531740D02*
D03*
X712919Y538860D02*
D03*
X713049Y531520D02*
D03*
X712789Y523270D02*
D03*
X707329Y516520D02*
D03*
X678349Y457900D02*
D03*
X724759Y505290D02*
D03*
X714839Y500860D02*
D03*
X704219Y500600D02*
D03*
X984299Y376870D02*
D03*
Y369870D02*
D03*
X1059208Y293379D02*
D03*
X1059699Y280450D02*
D03*
X1061829Y269300D02*
D03*
X1032649Y66500D02*
D03*
X825443Y128706D02*
D03*
X755599Y92100D02*
D03*
X827549Y141250D02*
D03*
X1040499Y117050D02*
D03*
X1051649Y175500D02*
D03*
X755249Y133200D02*
D03*
X1093899Y246550D02*
D03*
X724029Y19750D02*
D03*
X1235799Y496150D02*
D03*
X1213199Y473100D02*
D03*
X1203999Y496300D02*
D03*
X1247549Y473000D02*
D03*
X1187599Y496700D02*
D03*
X1251899Y496150D02*
D03*
X1220199Y496450D02*
D03*
X967049Y194450D02*
D03*
X682449Y260700D02*
D03*
X864449Y217800D02*
D03*
X985299Y398550D02*
D03*
X754149Y485000D02*
D03*
X794249Y184600D02*
D03*
X804349Y218050D02*
D03*
X999349Y247350D02*
D03*
X761949Y169900D02*
D03*
X682599Y432250D02*
D03*
X726999Y273100D02*
D03*
X696849Y348700D02*
D03*
X984299Y298650D02*
D03*
X984049Y348650D02*
D03*
X984899Y388550D02*
D03*
X956249Y174800D02*
D03*
X683199Y288750D02*
D03*
X1015410Y465061D02*
D03*
X844399Y218050D02*
D03*
X784249Y184650D02*
D03*
X682899Y278700D02*
D03*
X814749Y218050D02*
D03*
X695449Y236800D02*
D03*
X842099Y186350D02*
D03*
X834449Y218100D02*
D03*
X854399Y186280D02*
D03*
X764299Y219600D02*
D03*
X1234149Y281250D02*
D03*
X903649Y405400D02*
D03*
X745499Y398850D02*
D03*
X745249Y416950D02*
D03*
X1105449Y410650D02*
D03*
X782549Y276350D02*
D03*
X881499Y366450D02*
D03*
X785517Y568790D02*
D03*
X803167Y568890D02*
D03*
X785999Y537450D02*
D03*
X1081249Y487700D02*
D03*
X1025799Y475500D02*
D03*
X1116649Y487850D02*
D03*
X1025799Y487950D02*
D03*
X1135399Y487600D02*
D03*
X1098299Y475400D02*
D03*
X1081249Y475250D02*
D03*
X1062899Y487930D02*
D03*
X1116649Y475400D02*
D03*
X1135399Y475150D02*
D03*
X1098299Y487850D02*
D03*
X1044149Y488010D02*
D03*
X1062929Y475490D02*
D03*
X769049Y265300D02*
D03*
X857649Y336400D02*
D03*
X857749Y361550D02*
D03*
X801249Y359850D02*
D03*
X800949Y341600D02*
D03*
X776599Y142700D02*
D03*
X975649Y105200D02*
D03*
X975899Y90550D02*
D03*
X957549Y84950D02*
D03*
X939649Y90600D02*
D03*
X939999Y105450D02*
D03*
X887099Y105200D02*
D03*
X887499Y91350D02*
D03*
X981799Y458700D02*
D03*
X711399Y206600D02*
D03*
X1071299Y452500D02*
D03*
X956499Y161650D02*
D03*
X934749Y157200D02*
D03*
X815349Y183450D02*
D03*
X830099Y174600D02*
D03*
X887578Y156926D02*
D03*
X850849Y174300D02*
D03*
X934249Y174650D02*
D03*
X917249Y174600D02*
D03*
X900499Y174450D02*
D03*
X883449D02*
D03*
X866899Y174300D02*
D03*
X955399Y100650D02*
D03*
X845099Y57700D02*
D03*
X806149Y93400D02*
D03*
X729149Y84450D02*
D03*
X799699Y62150D02*
D03*
X722449Y173850D02*
D03*
X853399Y316600D02*
D03*
X1090598Y360150D02*
D03*
X1105549Y450450D02*
D03*
X1139649Y451175D02*
D03*
X1151849Y417150D02*
D03*
X1014249Y33700D02*
D03*
X871099Y33800D02*
D03*
X927749Y468500D02*
D03*
X722149Y110550D02*
D03*
X1108499Y263900D02*
D03*
X922999Y403600D02*
D03*
X799645Y15387D02*
D03*
X1032249Y447400D02*
D03*
X1032199Y409550D02*
D03*
X1032099Y428550D02*
D03*
X680849Y313000D02*
D03*
X679949Y348300D02*
D03*
X803649Y537550D02*
D03*
X820781Y537560D02*
D03*
X785999Y553250D02*
D03*
X803649Y553350D02*
D03*
X820781Y553360D02*
D03*
X820299Y568900D02*
D03*
X820163Y584420D02*
D03*
X803031Y584410D02*
D03*
X785381Y584310D02*
D03*
X923899Y442250D02*
D03*
X1024299Y528650D02*
D03*
X917899Y430700D02*
D03*
X681349Y81350D02*
D03*
D62*
X825049Y17150D02*
D03*
X891049D02*
D03*
D63*
X695899Y162850D02*
D03*
Y142850D02*
D03*
Y122850D02*
D03*
D64*
Y182850D02*
D03*
Y102850D02*
D03*
D65*
X695519Y529690D02*
D03*
X746319D02*
D03*
Y580490D02*
D03*
X695519D02*
D03*
D66*
X720919Y555090D02*
D03*
M02*
