G04*
G04 #@! TF.GenerationSoftware,Altium Limited,Altium Designer,21.2.2 (38)*
G04*
G04 Layer_Color=16711935*
%FSLAX44Y44*%
%MOMM*%
G71*
G04*
G04 #@! TF.SameCoordinates,1FAA2A19-5D32-44EB-9D88-0ED73DB0A834*
G04*
G04*
G04 #@! TF.FilePolarity,Positive*
G04*
G01*
G75*
%ADD31C,0.2000*%
%ADD49C,0.1930*%
%ADD175C,0.0254*%
D31*
X-31106Y30760D02*
X112894D01*
X-31106D02*
Y124760D01*
X112894D01*
Y30760D02*
Y124760D01*
X-31000Y30750D02*
X112999D01*
X-31000D02*
Y124750D01*
X112999D01*
Y30750D02*
Y124750D01*
X487588Y470433D02*
Y505432D01*
Y470433D02*
X507588D01*
Y505432D01*
X487588D02*
X507588D01*
X1006898Y194552D02*
X1026897D01*
X1006898D02*
Y229551D01*
X1026897D01*
Y194552D02*
Y229551D01*
X689201Y43599D02*
Y78598D01*
Y43599D02*
X709201D01*
Y78598D01*
X689201D02*
X709201D01*
X0Y0D02*
X600000D01*
X0D02*
Y600000D01*
X600000Y0D02*
Y600000D01*
X0D02*
X600000D01*
X1273049Y484950D02*
Y600000D01*
X673049D02*
X1273049D01*
Y401700D02*
Y484950D01*
X1057499Y50D02*
Y236700D01*
X786299Y50D02*
X1057499D01*
Y236700D02*
X1273049D01*
X673049Y0D02*
X786049D01*
X673049Y461750D02*
X673049Y0D01*
X1273049Y236700D02*
Y401700D01*
X673049Y461750D02*
Y600000D01*
D49*
X-25Y0D02*
Y600050D01*
Y0D02*
X1273073D01*
X-25Y600050D02*
X1273073D01*
X1273073Y0D01*
D175*
X178562Y444246D02*
D03*
M02*
