G04*
G04 #@! TF.GenerationSoftware,Altium Limited,Altium Designer,21.2.2 (38)*
G04*
G04 Layer_Color=8388736*
%FSLAX44Y44*%
%MOMM*%
G71*
G04*
G04 #@! TF.SameCoordinates,1FAA2A19-5D32-44EB-9D88-0ED73DB0A834*
G04*
G04*
G04 #@! TF.FilePolarity,Negative*
G04*
G01*
G75*
%ADD14R,1.4500X0.8000*%
%ADD15R,0.9000X1.2700*%
%ADD31C,0.2000*%
%ADD49C,0.1930*%
%ADD53C,1.6500*%
%ADD54R,1.6500X1.6500*%
%ADD66C,2.0320*%
%ADD114R,0.8282X1.0332*%
%ADD115R,1.4032X1.1032*%
%ADD116R,5.7150X1.4986*%
%ADD117R,1.4986X5.7150*%
%ADD118R,1.1032X1.4032*%
%ADD119R,2.4332X2.0032*%
%ADD120R,1.2032X1.2032*%
%ADD121R,1.1032X2.2032*%
%ADD122R,2.2032X1.1032*%
%ADD123R,1.5332X1.5332*%
%ADD124R,1.4032X1.2532*%
%ADD125C,1.2032*%
%ADD126R,0.9532X0.6032*%
%ADD127R,1.2032X1.6032*%
%ADD128R,2.2032X0.7532*%
%ADD129R,0.8032X2.2632*%
%ADD130R,1.9032X1.5032*%
%ADD131R,0.6032X0.8032*%
%ADD132R,0.8032X0.6032*%
%ADD133R,1.2532X1.4032*%
%ADD134R,0.7532X0.8032*%
%ADD135R,1.1032X1.0032*%
%ADD136R,1.6032X2.2032*%
%ADD137R,3.4032X5.6032*%
%ADD138R,2.7532X2.6532*%
%ADD139R,2.3532X2.6532*%
%ADD140R,2.2032X0.8032*%
%ADD141R,1.3032X1.8032*%
%ADD142R,1.8032X1.3032*%
%ADD143R,0.8032X2.2032*%
%ADD144R,1.8032X1.8032*%
G04:AMPARAMS|DCode=145|XSize=1.7032mm|YSize=1.7032mm|CornerRadius=0.1541mm|HoleSize=0mm|Usage=FLASHONLY|Rotation=0.000|XOffset=0mm|YOffset=0mm|HoleType=Round|Shape=RoundedRectangle|*
%AMROUNDEDRECTD145*
21,1,1.7032,1.3950,0,0,0.0*
21,1,1.3950,1.7032,0,0,0.0*
1,1,0.3082,0.6975,-0.6975*
1,1,0.3082,-0.6975,-0.6975*
1,1,0.3082,-0.6975,0.6975*
1,1,0.3082,0.6975,0.6975*
%
%ADD145ROUNDEDRECTD145*%
%ADD146C,1.7032*%
%ADD147C,3.8100*%
%ADD148R,4.7752X2.1844*%
G04:AMPARAMS|DCode=149|XSize=2.3032mm|YSize=1.7032mm|CornerRadius=0.4766mm|HoleSize=0mm|Usage=FLASHONLY|Rotation=180.000|XOffset=0mm|YOffset=0mm|HoleType=Round|Shape=RoundedRectangle|*
%AMROUNDEDRECTD149*
21,1,2.3032,0.7500,0,0,180.0*
21,1,1.3500,1.7032,0,0,180.0*
1,1,0.9532,-0.6750,0.3750*
1,1,0.9532,0.6750,0.3750*
1,1,0.9532,0.6750,-0.3750*
1,1,0.9532,-0.6750,-0.3750*
%
%ADD149ROUNDEDRECTD149*%
G04:AMPARAMS|DCode=150|XSize=2.3032mm|YSize=1.7032mm|CornerRadius=0.4766mm|HoleSize=0mm|Usage=FLASHONLY|Rotation=90.000|XOffset=0mm|YOffset=0mm|HoleType=Round|Shape=RoundedRectangle|*
%AMROUNDEDRECTD150*
21,1,2.3032,0.7500,0,0,90.0*
21,1,1.3500,1.7032,0,0,90.0*
1,1,0.9532,0.3750,0.6750*
1,1,0.9532,0.3750,-0.6750*
1,1,0.9532,-0.3750,-0.6750*
1,1,0.9532,-0.3750,0.6750*
%
%ADD150ROUNDEDRECTD150*%
G04:AMPARAMS|DCode=151|XSize=1.7532mm|YSize=1.7532mm|CornerRadius=0.4891mm|HoleSize=0mm|Usage=FLASHONLY|Rotation=0.000|XOffset=0mm|YOffset=0mm|HoleType=Round|Shape=RoundedRectangle|*
%AMROUNDEDRECTD151*
21,1,1.7532,0.7750,0,0,0.0*
21,1,0.7750,1.7532,0,0,0.0*
1,1,0.9782,0.3875,-0.3875*
1,1,0.9782,-0.3875,-0.3875*
1,1,0.9782,-0.3875,0.3875*
1,1,0.9782,0.3875,0.3875*
%
%ADD151ROUNDEDRECTD151*%
%ADD152C,1.7532*%
%ADD153O,1.1032X1.8032*%
%ADD154C,1.5240*%
%ADD155C,1.7018*%
%ADD156C,2.4892*%
G36*
X1267449Y506650D02*
X1159049D01*
Y594050D01*
X1267449D01*
Y506650D01*
D02*
G37*
G36*
X1252949Y426650D02*
X1241549D01*
Y462050D01*
X1252949D01*
Y426650D01*
D02*
G37*
G36*
X1235949D02*
X1224549D01*
Y462050D01*
X1235949D01*
Y426650D01*
D02*
G37*
G36*
X1218949D02*
X1207549D01*
Y462050D01*
X1218949D01*
Y426650D01*
D02*
G37*
G36*
X1201949D02*
X1190549D01*
Y462050D01*
X1201949D01*
Y426650D01*
D02*
G37*
G36*
X1184949D02*
X1173549D01*
Y462050D01*
X1184949D01*
Y426650D01*
D02*
G37*
D14*
X218662Y6938D02*
D03*
X151162D02*
D03*
D15*
X205912Y25788D02*
D03*
X163912D02*
D03*
D31*
X0Y0D02*
X600000D01*
X0D02*
Y600000D01*
X600000Y0D02*
Y600000D01*
X0D02*
X600000D01*
X1273049Y484950D02*
Y600000D01*
X673049D02*
X1273049D01*
Y401700D02*
Y484950D01*
X1057499Y50D02*
Y236700D01*
X786299Y50D02*
X1057499D01*
Y236700D02*
X1273049D01*
X673049Y0D02*
X786049D01*
X673049Y461750D02*
X673049Y0D01*
X1273049Y236700D02*
Y401700D01*
X673049Y461750D02*
Y600000D01*
D49*
X-25Y0D02*
Y600050D01*
Y0D02*
X1273073D01*
X-25Y600050D02*
X1273073D01*
X1273073Y0D01*
D53*
X87122Y511048D02*
D03*
Y485648D02*
D03*
X112522Y511048D02*
D03*
Y485648D02*
D03*
X137922Y511048D02*
D03*
D54*
Y485648D02*
D03*
D66*
X720919Y555090D02*
D03*
D114*
X155651Y305054D02*
D03*
X133401D02*
D03*
X133375Y216802D02*
D03*
X155625D02*
D03*
X155625Y160930D02*
D03*
X133375D02*
D03*
X133375Y239500D02*
D03*
X155625D02*
D03*
D115*
X139954Y444164D02*
D03*
Y423164D02*
D03*
Y386162D02*
D03*
Y407162D02*
D03*
X123952Y59690D02*
D03*
Y38690D02*
D03*
X224000Y340500D02*
D03*
Y319500D02*
D03*
X148590Y118954D02*
D03*
Y139954D02*
D03*
X175514Y118954D02*
D03*
Y139954D02*
D03*
X265430Y386080D02*
D03*
Y365080D02*
D03*
X413766Y274402D02*
D03*
Y295402D02*
D03*
X231000Y181000D02*
D03*
Y160000D02*
D03*
X211500Y181000D02*
D03*
Y160000D02*
D03*
X262000Y319499D02*
D03*
Y340500D02*
D03*
X243000D02*
D03*
Y319499D02*
D03*
D116*
X520954Y280012D02*
D03*
Y315012D02*
D03*
Y350012D02*
D03*
Y385012D02*
D03*
X80010Y164084D02*
D03*
Y199084D02*
D03*
X80036Y251968D02*
D03*
Y286968D02*
D03*
X80010Y339904D02*
D03*
Y374904D02*
D03*
Y409904D02*
D03*
Y444904D02*
D03*
D117*
X331672Y80010D02*
D03*
X296672D02*
D03*
X261672D02*
D03*
X427026Y80600D02*
D03*
X462026D02*
D03*
X497026D02*
D03*
X532026D02*
D03*
D118*
X236814Y385318D02*
D03*
X215814D02*
D03*
X215474Y366014D02*
D03*
X236474D02*
D03*
X133940Y286512D02*
D03*
X154940D02*
D03*
X155000Y258000D02*
D03*
X134000D02*
D03*
X155000Y198302D02*
D03*
X134000D02*
D03*
Y179430D02*
D03*
X155000D02*
D03*
X108032Y136652D02*
D03*
X129032D02*
D03*
X226000Y65000D02*
D03*
X205000D02*
D03*
X226000Y45500D02*
D03*
X205000D02*
D03*
X349500Y258000D02*
D03*
X328500D02*
D03*
X232000Y199000D02*
D03*
X211000D02*
D03*
X1130599Y450400D02*
D03*
X1151599D02*
D03*
X1130799Y430200D02*
D03*
X1151799D02*
D03*
X1093599Y430050D02*
D03*
X1114599D02*
D03*
X1114549Y410650D02*
D03*
X1093549D02*
D03*
X1053299Y447350D02*
D03*
X1032299D02*
D03*
X1032399Y428200D02*
D03*
X1053399D02*
D03*
X1032199Y409050D02*
D03*
X1053199D02*
D03*
X1114399Y450450D02*
D03*
X1093399D02*
D03*
D119*
X453898Y270642D02*
D03*
Y299842D02*
D03*
D120*
X10892Y7366D02*
D03*
X38892D02*
D03*
X55342D02*
D03*
X83342D02*
D03*
X99792D02*
D03*
X127792D02*
D03*
X683939Y7370D02*
D03*
X711939D02*
D03*
D121*
X291000Y332150D02*
D03*
X303700D02*
D03*
X316400D02*
D03*
X329100D02*
D03*
X341800D02*
D03*
X354500D02*
D03*
X367200D02*
D03*
X379900D02*
D03*
X392600D02*
D03*
X405300D02*
D03*
X418000D02*
D03*
X430700D02*
D03*
X443400D02*
D03*
X456100D02*
D03*
Y502150D02*
D03*
X443400D02*
D03*
X430700D02*
D03*
X418000D02*
D03*
X405300D02*
D03*
X392600D02*
D03*
X379900D02*
D03*
X367200D02*
D03*
X354500D02*
D03*
X341800D02*
D03*
X329100D02*
D03*
X316400D02*
D03*
X303700D02*
D03*
X291000D02*
D03*
D122*
X466100Y360000D02*
D03*
Y372700D02*
D03*
Y385400D02*
D03*
Y398100D02*
D03*
Y410800D02*
D03*
Y423500D02*
D03*
Y436200D02*
D03*
Y448900D02*
D03*
Y461600D02*
D03*
Y474300D02*
D03*
D123*
X366000Y407150D02*
D03*
Y425500D02*
D03*
X347650D02*
D03*
Y407150D02*
D03*
Y388800D02*
D03*
X366000D02*
D03*
X384350D02*
D03*
Y407150D02*
D03*
Y425500D02*
D03*
D124*
X126246Y86682D02*
D03*
Y105682D02*
D03*
D125*
X113284Y323088D02*
D03*
X163068Y48514D02*
D03*
X680449Y418600D02*
D03*
X1047849Y393100D02*
D03*
X1027349Y393200D02*
D03*
X1062999Y380250D02*
D03*
X1018899Y341050D02*
D03*
X1016899Y240750D02*
D03*
X1090598Y360150D02*
D03*
X1108499Y263900D02*
D03*
X680849Y368800D02*
D03*
X680099Y348400D02*
D03*
X681299Y329250D02*
D03*
X679999Y248650D02*
D03*
X680999Y313050D02*
D03*
D126*
X210750Y138000D02*
D03*
X229250Y146000D02*
D03*
X210750D02*
D03*
X229250Y138000D02*
D03*
D127*
X211000Y114500D02*
D03*
X220500Y92500D02*
D03*
X201500D02*
D03*
D128*
X497586Y504184D02*
D03*
Y471684D02*
D03*
X1016899Y228300D02*
D03*
Y195800D02*
D03*
X699199Y77350D02*
D03*
Y44850D02*
D03*
D129*
X338950Y227900D02*
D03*
X326250D02*
D03*
X313550D02*
D03*
X300850D02*
D03*
X288150D02*
D03*
X275450D02*
D03*
X262750D02*
D03*
X250050D02*
D03*
Y135100D02*
D03*
X262750D02*
D03*
X275450D02*
D03*
X288150D02*
D03*
X300850D02*
D03*
X313550D02*
D03*
X326250D02*
D03*
X338950D02*
D03*
D130*
X1012279Y117300D02*
D03*
Y91900D02*
D03*
Y66500D02*
D03*
X755269Y117300D02*
D03*
Y91900D02*
D03*
Y66500D02*
D03*
D131*
X1030299Y332200D02*
D03*
X1037299D02*
D03*
X980849Y194500D02*
D03*
X987849D02*
D03*
D132*
X719899Y77400D02*
D03*
Y84400D02*
D03*
D133*
X1094749Y391350D02*
D03*
X1113749D02*
D03*
D134*
X1039199Y380300D02*
D03*
X1030699D02*
D03*
X1057799Y367250D02*
D03*
X1049299D02*
D03*
X1039149Y354100D02*
D03*
X1030649D02*
D03*
D135*
X1049599Y297350D02*
D03*
Y316350D02*
D03*
X1029599Y306850D02*
D03*
Y274850D02*
D03*
X1049599Y284350D02*
D03*
Y265350D02*
D03*
D136*
X1075799Y342352D02*
D03*
X1111799D02*
D03*
D137*
X1148449Y351800D02*
D03*
X1249449D02*
D03*
D138*
X1174149Y264750D02*
D03*
X1234649D02*
D03*
D139*
X1131749Y573250D02*
D03*
Y530250D02*
D03*
D140*
X999399Y368700D02*
D03*
Y378700D02*
D03*
X699399Y458700D02*
D03*
Y448700D02*
D03*
Y438700D02*
D03*
Y428700D02*
D03*
Y418700D02*
D03*
X999399Y258700D02*
D03*
X999399Y268700D02*
D03*
Y278700D02*
D03*
Y288700D02*
D03*
Y298700D02*
D03*
Y308700D02*
D03*
Y318700D02*
D03*
Y328700D02*
D03*
Y338700D02*
D03*
Y348700D02*
D03*
Y358700D02*
D03*
Y388700D02*
D03*
Y398700D02*
D03*
Y408700D02*
D03*
Y418700D02*
D03*
X999399Y428700D02*
D03*
X999399Y438700D02*
D03*
Y448700D02*
D03*
Y458700D02*
D03*
X699399Y408700D02*
D03*
Y398700D02*
D03*
Y388700D02*
D03*
Y378700D02*
D03*
Y368700D02*
D03*
Y358700D02*
D03*
Y348700D02*
D03*
Y338700D02*
D03*
Y328700D02*
D03*
Y318700D02*
D03*
Y308700D02*
D03*
Y298700D02*
D03*
Y288700D02*
D03*
Y278700D02*
D03*
Y268700D02*
D03*
Y258700D02*
D03*
Y248700D02*
D03*
D141*
X912399Y233700D02*
D03*
X894399Y233700D02*
D03*
X876399D02*
D03*
X858399D02*
D03*
X840399Y233700D02*
D03*
X822399D02*
D03*
X804399D02*
D03*
X786399Y473700D02*
D03*
X804399D02*
D03*
X822399D02*
D03*
X840399D02*
D03*
X858399D02*
D03*
X876399D02*
D03*
X894399D02*
D03*
X786399Y233700D02*
D03*
X912399Y473700D02*
D03*
D142*
X729399Y290700D02*
D03*
Y308700D02*
D03*
Y326700D02*
D03*
Y344700D02*
D03*
X729399Y362700D02*
D03*
Y380700D02*
D03*
X729399Y398700D02*
D03*
Y416700D02*
D03*
X969399Y308700D02*
D03*
Y326700D02*
D03*
Y344700D02*
D03*
Y362700D02*
D03*
Y380700D02*
D03*
Y398700D02*
D03*
Y416700D02*
D03*
Y290700D02*
D03*
D143*
X954399Y503700D02*
D03*
X944399D02*
D03*
X934399D02*
D03*
X924399D02*
D03*
X914399D02*
D03*
X904399D02*
D03*
X894399D02*
D03*
X884399D02*
D03*
X874399D02*
D03*
X864399D02*
D03*
X854399D02*
D03*
X844399D02*
D03*
X834399D02*
D03*
X824399D02*
D03*
X814399D02*
D03*
X804399D02*
D03*
X794399D02*
D03*
X784399D02*
D03*
X774399Y503700D02*
D03*
X764399Y503700D02*
D03*
X754399D02*
D03*
X744399D02*
D03*
X814399Y203700D02*
D03*
X824399D02*
D03*
X834399D02*
D03*
X844399D02*
D03*
X854399D02*
D03*
X864399D02*
D03*
X874399D02*
D03*
X884399D02*
D03*
X894399D02*
D03*
X904399D02*
D03*
X914399D02*
D03*
X924399D02*
D03*
X934399D02*
D03*
X944399D02*
D03*
X954399D02*
D03*
X744399D02*
D03*
X754399D02*
D03*
X764399D02*
D03*
X774399D02*
D03*
X784399D02*
D03*
X794399D02*
D03*
X804399D02*
D03*
D144*
X254000Y443230D02*
D03*
X228600D02*
D03*
X254000Y519430D02*
D03*
X228600D02*
D03*
D145*
X165862Y444246D02*
D03*
D146*
X191262D02*
D03*
D147*
X30226Y569722D02*
D03*
X569722D02*
D03*
D148*
X387698Y192024D02*
D03*
Y166624D02*
D03*
Y141224D02*
D03*
Y115824D02*
D03*
Y90424D02*
D03*
Y65024D02*
D03*
X570898Y192024D02*
D03*
Y166624D02*
D03*
Y141224D02*
D03*
Y115824D02*
D03*
Y90424D02*
D03*
Y65024D02*
D03*
D149*
X75894Y33010D02*
D03*
D150*
X45894Y80010D02*
D03*
X105894D02*
D03*
D151*
X185700Y546300D02*
D03*
X858749Y571700D02*
D03*
D152*
X211100Y546300D02*
D03*
X236500D02*
D03*
X261900D02*
D03*
X287300D02*
D03*
X312700D02*
D03*
X338100D02*
D03*
X363500D02*
D03*
X388900D02*
D03*
X414300D02*
D03*
X185700Y571700D02*
D03*
X211100D02*
D03*
X236500D02*
D03*
X261900D02*
D03*
X287300D02*
D03*
X312700D02*
D03*
X338100D02*
D03*
X363500D02*
D03*
X388900D02*
D03*
X414300D02*
D03*
X1087349Y546300D02*
D03*
X1061949D02*
D03*
X1036549D02*
D03*
X1011149D02*
D03*
X985749D02*
D03*
X960349D02*
D03*
X934949D02*
D03*
X909549D02*
D03*
X884149D02*
D03*
X858749D02*
D03*
X1087349Y571700D02*
D03*
X1061949D02*
D03*
X1036549D02*
D03*
X1011149D02*
D03*
X985749D02*
D03*
X960349D02*
D03*
X934949D02*
D03*
X909549D02*
D03*
X884149D02*
D03*
D153*
X825049Y17150D02*
D03*
X891049D02*
D03*
D154*
X695899Y162850D02*
D03*
Y142850D02*
D03*
Y122850D02*
D03*
D155*
Y182850D02*
D03*
Y102850D02*
D03*
D156*
X695519Y529690D02*
D03*
X746319D02*
D03*
Y580490D02*
D03*
X695519D02*
D03*
M02*
