G04*
G04 #@! TF.GenerationSoftware,Altium Limited,Altium Designer,21.0.9 (235)*
G04*
G04 Layer_Physical_Order=2*
G04 Layer_Color=32768*
%FSLAX44Y44*%
%MOMM*%
G71*
G04*
G04 #@! TF.SameCoordinates,BD89840E-3130-4C23-AD2D-C5A835882CA8*
G04*
G04*
G04 #@! TF.FilePolarity,Negative*
G04*
G01*
G75*
%ADD11C,0.5000*%
%ADD112C,1.0160*%
%ADD113R,34.0300X46.2600*%
%ADD114R,6.6100X15.8600*%
%ADD115R,7.6900X7.2000*%
%ADD116R,6.8100X16.3500*%
%ADD117C,2.0160*%
G04:AMPARAMS|DCode=118|XSize=2.524mm|YSize=2.524mm|CornerRadius=0mm|HoleSize=0mm|Usage=FLASHONLY|Rotation=0.000|XOffset=0mm|YOffset=0mm|HoleType=Round|Shape=Relief|Width=0.254mm|Gap=0.254mm|Entries=4|*
%AMTHD118*
7,0,0,2.5240,2.0160,0.2540,45*
%
%ADD118THD118*%
%ADD119C,4.1910*%
%ADD120C,2.0320*%
G04:AMPARAMS|DCode=121|XSize=2.54mm|YSize=2.54mm|CornerRadius=0mm|HoleSize=0mm|Usage=FLASHONLY|Rotation=0.000|XOffset=0mm|YOffset=0mm|HoleType=Round|Shape=Relief|Width=0.254mm|Gap=0.254mm|Entries=4|*
%AMTHD121*
7,0,0,2.5400,2.0320,0.2540,45*
%
%ADD121THD121*%
G04:AMPARAMS|DCode=122|XSize=2.424mm|YSize=2.424mm|CornerRadius=0mm|HoleSize=0mm|Usage=FLASHONLY|Rotation=0.000|XOffset=0mm|YOffset=0mm|HoleType=Round|Shape=Relief|Width=0.254mm|Gap=0.254mm|Entries=4|*
%AMTHD122*
7,0,0,2.4240,1.9160,0.2540,45*
%
%ADD122THD122*%
%ADD123C,1.9160*%
%ADD124C,2.2160*%
%ADD125C,2.4160*%
%ADD126C,2.1590*%
G04:AMPARAMS|DCode=127|XSize=2.924mm|YSize=2.924mm|CornerRadius=0mm|HoleSize=0mm|Usage=FLASHONLY|Rotation=0.000|XOffset=0mm|YOffset=0mm|HoleType=Round|Shape=Relief|Width=0.254mm|Gap=0.254mm|Entries=4|*
%AMTHD127*
7,0,0,2.9240,2.4160,0.2540,45*
%
%ADD127THD127*%
%ADD128C,1.3160*%
G36*
X284380Y695904D02*
X287041Y695187D01*
X289423Y693801D01*
X291362Y691842D01*
X292724Y689446D01*
X293415Y686778D01*
X293402Y685400D01*
X293402Y685400D01*
X293498Y333200D01*
X293512Y331822D01*
X292821Y329154D01*
X291458Y326758D01*
X289519Y324800D01*
X287137Y323414D01*
X284476Y322696D01*
X281720Y322696D01*
X279059Y323414D01*
X276677Y324800D01*
X274738Y326759D01*
X273376Y329155D01*
X272685Y331823D01*
X272698Y333201D01*
X272698D01*
X272602Y685400D01*
X272588Y686778D01*
X273279Y689446D01*
X274641Y691842D01*
X276580Y693801D01*
X278963Y695187D01*
X281624Y695904D01*
X284380Y695904D01*
D02*
G37*
D11*
X0Y900000D02*
X900000D01*
X0Y0D02*
X900000D01*
X0D02*
Y900000D01*
X900000D02*
X900000Y0D01*
D112*
X281624Y695904D02*
X284380Y695904D01*
X287041Y695187D01*
X289423Y693801D01*
X291362Y691842D01*
X292724Y689446D01*
X293415Y686778D01*
X293402Y685400D02*
X293415Y686778D01*
X293402Y685400D02*
X293402Y685400D01*
X293498Y333200D01*
X293512Y331822D01*
X292821Y329154D02*
X293512Y331822D01*
X291458Y326758D02*
X292821Y329154D01*
X289519Y324800D02*
X291458Y326758D01*
X287137Y323414D02*
X289519Y324800D01*
X284476Y322696D02*
X287137Y323414D01*
X281720Y322696D02*
X284476Y322696D01*
X279059Y323414D02*
X281720Y322696D01*
X276677Y324800D02*
X279059Y323414D01*
X274738Y326759D02*
X276677Y324800D01*
X273376Y329155D02*
X274738Y326759D01*
X272685Y331823D02*
X273376Y329155D01*
X272685Y331823D02*
X272698Y333201D01*
X272698D01*
X272602Y685400D02*
X272698Y333201D01*
X272588Y686778D02*
X272602Y685400D01*
X272588Y686778D02*
X273279Y689446D01*
X274641Y691842D01*
X276580Y693801D01*
X278963Y695187D01*
X281624Y695904D01*
X0Y0D02*
X900000D01*
X900000Y900000D02*
X900000Y0D01*
X0Y900000D02*
X900000D01*
X0Y0D02*
Y900000D01*
D113*
X170150Y231300D02*
D03*
D114*
X746050Y821300D02*
D03*
D115*
X862850Y252500D02*
D03*
D116*
X350550Y819150D02*
D03*
D117*
X102600Y397700D02*
D03*
X162600D02*
D03*
X222600Y733700D02*
D03*
D118*
X42600D02*
D03*
D119*
X350100Y772600D02*
D03*
X861200Y252300D02*
D03*
X746200Y776400D02*
D03*
X306400Y290000D02*
D03*
D120*
X461400Y846300D02*
D03*
X486800D02*
D03*
X512200D02*
D03*
X537600D02*
D03*
X563000D02*
D03*
X588400D02*
D03*
X613800D02*
D03*
X639200D02*
D03*
X664600D02*
D03*
X690000D02*
D03*
X461400Y871700D02*
D03*
X486800D02*
D03*
X512200D02*
D03*
X537600D02*
D03*
X563000D02*
D03*
X689700Y686400D02*
D03*
Y661000D02*
D03*
X715100Y686400D02*
D03*
X715100Y711800D02*
D03*
D121*
X588400Y871700D02*
D03*
X613800D02*
D03*
X639200D02*
D03*
X664600D02*
D03*
X690000D02*
D03*
X715100Y661000D02*
D03*
X689700Y711800D02*
D03*
D122*
X633300Y381500D02*
D03*
X837700Y506500D02*
D03*
X812300D02*
D03*
X837700Y303300D02*
D03*
D123*
X633300Y356100D02*
D03*
Y330700D02*
D03*
X567100Y397600D02*
D03*
Y372200D02*
D03*
Y346800D02*
D03*
Y321400D02*
D03*
X786900Y506500D02*
D03*
X761500D02*
D03*
X736100D02*
D03*
X710700D02*
D03*
X812300Y303300D02*
D03*
X786900D02*
D03*
X761500D02*
D03*
X736100D02*
D03*
X710700D02*
D03*
D124*
X175700Y265600D02*
D03*
Y335600D02*
D03*
X95700D02*
D03*
Y265600D02*
D03*
D125*
X244400Y244200D02*
D03*
Y344200D02*
D03*
X25100Y344100D02*
D03*
Y244100D02*
D03*
X212400Y20900D02*
D03*
Y120900D02*
D03*
X69600Y197800D02*
D03*
X107700D02*
D03*
X31500D02*
D03*
X69600Y70800D02*
D03*
X107700D02*
D03*
X31500D02*
D03*
X465800D02*
D03*
X503900D02*
D03*
X275300D02*
D03*
X427700D02*
D03*
X389600D02*
D03*
X313400D02*
D03*
X275300Y197800D02*
D03*
X427700D02*
D03*
X389600D02*
D03*
X351500D02*
D03*
X313400D02*
D03*
X503900D02*
D03*
X465800D02*
D03*
X829100D02*
D03*
X676700D02*
D03*
X714800D02*
D03*
X752900D02*
D03*
X600500D02*
D03*
X676700Y70800D02*
D03*
X714800D02*
D03*
X752900D02*
D03*
X600500D02*
D03*
X829100D02*
D03*
D126*
X169600Y32100D02*
D03*
Y107100D02*
D03*
D127*
X542000Y70800D02*
D03*
Y197800D02*
D03*
X351500Y70800D02*
D03*
X791000Y197800D02*
D03*
X638600D02*
D03*
Y70800D02*
D03*
X867200Y197800D02*
D03*
Y70800D02*
D03*
X791000D02*
D03*
D128*
X598800Y508600D02*
D03*
X584259Y465494D02*
D03*
X610624Y422811D02*
D03*
X627184Y442148D02*
D03*
X609913Y475473D02*
D03*
X609300Y521200D02*
D03*
X296900Y834700D02*
D03*
X270900Y830100D02*
D03*
X281600Y819400D02*
D03*
X325700Y863400D02*
D03*
X312300Y850000D02*
D03*
X522414Y505700D02*
D03*
X618200Y718800D02*
D03*
X669800Y653700D02*
D03*
X128200Y751600D02*
D03*
X116800Y635800D02*
D03*
X117200Y566500D02*
D03*
X116400Y602500D02*
D03*
Y667100D02*
D03*
X115600Y493200D02*
D03*
X116000Y530000D02*
D03*
X586400Y765900D02*
D03*
X585800Y737100D02*
D03*
X534100Y316400D02*
D03*
X572600Y529000D02*
D03*
X392525Y502893D02*
D03*
X610000Y755800D02*
D03*
X546300Y466600D02*
D03*
X626300Y521400D02*
D03*
X550733Y782750D02*
D03*
X463700Y504800D02*
D03*
X55744Y811544D02*
D03*
X722600Y702100D02*
D03*
X647148Y587201D02*
D03*
X658300Y662900D02*
D03*
X675657Y516077D02*
D03*
X537083Y364775D02*
D03*
X552479Y286974D02*
D03*
X440000Y290500D02*
D03*
X457600Y515000D02*
D03*
X787600Y550100D02*
D03*
X513700Y554767D02*
D03*
X648000Y672700D02*
D03*
X558000Y756550D02*
D03*
X589100Y808700D02*
D03*
X571645Y755560D02*
D03*
X864400Y600400D02*
D03*
X507400Y804700D02*
D03*
X705600Y825500D02*
D03*
X554700Y686900D02*
D03*
X448749Y601100D02*
D03*
X550064Y539046D02*
D03*
X564750Y659100D02*
D03*
X469600Y724600D02*
D03*
X440053Y593336D02*
D03*
X507812Y725113D02*
D03*
X510800Y715200D02*
D03*
X458800Y610100D02*
D03*
X561000Y532100D02*
D03*
X444700Y723450D02*
D03*
X456700Y723674D02*
D03*
X504950Y245750D02*
D03*
X564200Y274800D02*
D03*
X509436Y262964D02*
D03*
X517974Y239800D02*
D03*
X533310D02*
D03*
X543100Y300900D02*
D03*
X465800Y174500D02*
D03*
X427700D02*
D03*
X420200Y361900D02*
D03*
X828975Y725200D02*
D03*
X853053Y686491D02*
D03*
X591070Y726099D02*
D03*
X519000Y706950D02*
D03*
X548485Y697836D02*
D03*
X702100Y562500D02*
D03*
X714489Y575241D02*
D03*
X356500Y603900D02*
D03*
X548359Y813794D02*
D03*
X470400Y802000D02*
D03*
X180700Y493400D02*
D03*
X181100Y530200D02*
D03*
X182300Y566700D02*
D03*
X181500Y602700D02*
D03*
X181900Y636000D02*
D03*
X181500Y667300D02*
D03*
X34100Y666700D02*
D03*
X34500Y635400D02*
D03*
X34100Y602100D02*
D03*
X34900Y566100D02*
D03*
X33700Y529600D02*
D03*
X33300Y492800D02*
D03*
X550300Y871700D02*
D03*
X524900D02*
D03*
X499500D02*
D03*
X474100D02*
D03*
X249600Y830100D02*
D03*
X113000Y868300D02*
D03*
X121500D02*
D03*
X104700D02*
D03*
X600500Y94100D02*
D03*
X410200Y872900D02*
D03*
X893100Y790400D02*
D03*
X138400Y91500D02*
D03*
X600500Y174500D02*
D03*
X503900D02*
D03*
X159900Y69900D02*
D03*
X152550Y77350D02*
D03*
X145200Y84700D02*
D03*
X181200Y61800D02*
D03*
X206000D02*
D03*
X193700D02*
D03*
X218200D02*
D03*
X168400D02*
D03*
M02*
