M48
;Layer_Color=9474304
;FILE_FORMAT=4:4
METRIC,LZ
;TYPE=PLATED
T1F00S00C0.3000
T2F00S00C0.8000
T3F00S00C0.9000
T4F00S00C1.0000
T5F00S00C1.0160
T6F00S00C1.1430
T7F00S00C1.2000
T8F00S00C1.4000
T9F00S00C3.1750
%
T01
X001384Y000915
X001452Y000847
X0015255Y0007735
X001599Y000699
X001684Y000618
X001812
X001937
X00206
X002182
X005039Y000941
X00542
X006005
X006386
X00791
X008672
X008672Y001745
X00791
X007427Y002519
X006386Y001745
X006005
X00542
X00593964Y00286464
X005844Y003153
X005742Y003243
X006084Y003292
X005934Y003752
X005607Y003882
X005593Y004046
X005602Y003626
X00603032Y00418668
X005977Y005043
X006359Y005079
X006229Y005223
X005453Y005042
X005196Y00528425
X004986Y0052845
X004778Y00528325
X004573Y005283
X004317Y005277
X004121Y005301
X004009Y005049
X004029Y004619
X004158Y004718
X0043165Y004682
X004158Y004367
X004035Y00437307
X004404Y004143
X004391Y003675
X004419Y00306
X004716Y003117
X005043Y003755
X00486Y00411623
X004868Y004464
X004968Y004575
X005064Y004687
X005196Y004586
X00539282Y00351482
X003854Y003502
X004097Y002462
X004277Y001745
X004658
X005039
X003896
X001807Y004934
X001811Y005302
X00105Y0053
X001046Y004932
X000333Y004928
X000337Y005296
X000349Y005661
X000341Y006021
X000345Y006354
X000341Y006667
X001054Y006671
X001058Y006358
X001054Y006025
X001062Y005665
X001023Y008041
X001287Y008223
X001215Y008683
X00113
X001047
X000486Y008681
X000307Y008172
X00041354Y00765834
X001706Y007998
X00196912Y00807888
X001827Y008237
X002496Y008301
X002695
X002848Y008148
X003026Y008309
X0031475Y0084325
X003266Y00855
X004102Y008729
X004741Y008717
X004995
X005249
X005078Y00802
X004699
X004571Y007598
X00444Y007704
X004189Y007586
X00406186Y00758614
X003957Y008043
X003209Y007272
X004696Y00725
X00507812Y00725113
X004516Y0066605
Y006477
Y0062935
X004569Y005922
X004442
X00394386Y00562014
X003796Y005483
X003565Y006039
X003928Y006263
X004022Y006375
X001819Y00636
X001815Y006673
Y006027
X001823Y005667
X002357Y008731
X005503Y008717
X005401Y007799
Y007653
X0057275Y007497
X006008Y007023
X006086Y006132
X006176Y006022
X006061Y005727
X005635Y006004
X006491Y006133
X00662Y006105
X006645Y006
X00662Y006572
X00752Y007079
X007894Y007369
X008216Y007248
X008233Y006786
X008019Y00612
X007585Y00587
X00789Y005516
X008787Y005762
X008644Y006004
X00882644Y00714992
X008819Y007618
X008931Y007904
X008765Y008321
X008358Y008315
X008347Y007765
T02
X005983Y007699
Y007953
X006745
Y007699
T03
X007107Y003033
X007361
X007615
X007869
X008123
X008377
Y005065
X008123
X007869
X007615
X007361
X007107
T04
X001619Y003822
X001019
X000419Y007182
X002219
T05
X006193Y002742
Y002996
X005376Y008463
Y008717
X005122
X004868
X004614
Y008463
X004868
X005122
X00563
Y008717
X005884
X006138
X006392
X006646
X0069
Y008463
X006646
X006392
X006138
X005884
X006897Y007118
X007151
X007151Y006864
X006897
Y00661
X007151
T06
X001696Y000321
Y001071
T07
X001756Y002509
Y003209
X000956
Y002509
T08
X000315Y000708
X000696
X001077
X002124Y000209
Y001209
X002753Y000708
X003134
X003515
X003896
X004277
X004658
X005039
X00542
X006005
X006386
X006767
X007148
X007529
X00791
X008291
X008672
Y001978
X008291
X00791
X007529
X007148
X006767
X006386
X006005
X00542
X005039
X004658
X004277
X003896
X003515
X003134
X002753
X002444Y002363
Y003363
X000251Y00339
Y00239
X000315Y001978
X000696
X001077
T09
X008612Y002523
X003064Y0029
X003501Y007726
X007462Y007764
M30
