G04*
G04 #@! TF.GenerationSoftware,Altium Limited,Altium Designer,21.2.0 (30)*
G04*
G04 Layer_Physical_Order=1*
G04 Layer_Color=255*
%FSLAX44Y44*%
%MOMM*%
G71*
G04*
G04 #@! TF.SameCoordinates,3859F847-68DD-49E8-8EE8-84FD9F862EB9*
G04*
G04*
G04 #@! TF.FilePolarity,Positive*
G04*
G01*
G75*
%ADD10C,0.5000*%
%ADD11C,1.0000*%
%ADD29R,1.2000X0.9000*%
%ADD30R,0.8300X0.6250*%
%ADD31R,0.9000X1.2000*%
G04:AMPARAMS|DCode=32|XSize=1.97mm|YSize=0.59mm|CornerRadius=0.0738mm|HoleSize=0mm|Usage=FLASHONLY|Rotation=270.000|XOffset=0mm|YOffset=0mm|HoleType=Round|Shape=RoundedRectangle|*
%AMROUNDEDRECTD32*
21,1,1.9700,0.4425,0,0,270.0*
21,1,1.8225,0.5900,0,0,270.0*
1,1,0.1475,-0.2213,-0.9113*
1,1,0.1475,-0.2213,0.9113*
1,1,0.1475,0.2213,0.9113*
1,1,0.1475,0.2213,-0.9113*
%
%ADD32ROUNDEDRECTD32*%
%ADD33R,2.1500X2.8000*%
%ADD34R,1.8000X2.2300*%
%ADD35R,2.4000X0.7600*%
%ADD36R,1.0000X1.0000*%
%ADD37R,0.8000X1.7000*%
%ADD38R,1.2000X1.0500*%
%ADD39R,1.3300X1.3300*%
%ADD40R,0.9000X2.0000*%
%ADD41R,2.0000X0.9000*%
G04:AMPARAMS|DCode=42|XSize=0.65mm|YSize=1.65mm|CornerRadius=0.0488mm|HoleSize=0mm|Usage=FLASHONLY|Rotation=90.000|XOffset=0mm|YOffset=0mm|HoleType=Round|Shape=RoundedRectangle|*
%AMROUNDEDRECTD42*
21,1,0.6500,1.5525,0,0,90.0*
21,1,0.5525,1.6500,0,0,90.0*
1,1,0.0975,0.7763,0.2763*
1,1,0.0975,0.7763,-0.2763*
1,1,0.0975,-0.7763,-0.2763*
1,1,0.0975,-0.7763,0.2763*
%
%ADD42ROUNDEDRECTD42*%
%ADD43R,1.0000X1.4000*%
%ADD44R,0.4000X0.7500*%
%ADD45R,1.2700X0.9000*%
%ADD46R,0.8000X1.4500*%
%ADD47R,0.9000X0.8000*%
%ADD48R,0.6000X0.4000*%
%ADD49R,1.9000X1.2000*%
%ADD50C,1.0000*%
%ADD51R,1.5500X0.6000*%
%ADD52R,2.5500X2.4500*%
%ADD53R,1.2500X1.6500*%
%ADD54R,1.8000X5.7000*%
%ADD55R,2.1500X2.4500*%
%ADD56R,0.7000X0.9000*%
%ADD57R,2.4500X2.5500*%
%ADD94R,1.6500X1.6500*%
%ADD95C,1.6500*%
%ADD99C,1.6510*%
%ADD100R,1.6510X1.6510*%
%ADD101C,0.3500*%
%ADD102R,3.0000X3.0000*%
%ADD103C,3.0000*%
%ADD104R,2.5000X2.5000*%
%ADD105R,2.5000X2.5000*%
%ADD106R,1.9812X4.5720*%
G04:AMPARAMS|DCode=107|XSize=1.5mm|YSize=1.5mm|CornerRadius=0.0525mm|HoleSize=0mm|Usage=FLASHONLY|Rotation=270.000|XOffset=0mm|YOffset=0mm|HoleType=Round|Shape=RoundedRectangle|*
%AMROUNDEDRECTD107*
21,1,1.5000,1.3950,0,0,270.0*
21,1,1.3950,1.5000,0,0,270.0*
1,1,0.1050,-0.6975,-0.6975*
1,1,0.1050,-0.6975,0.6975*
1,1,0.1050,0.6975,0.6975*
1,1,0.1050,0.6975,-0.6975*
%
%ADD107ROUNDEDRECTD107*%
%ADD108C,1.5000*%
%ADD109C,6.0000*%
%ADD110R,2.0000X2.0000*%
%ADD111R,1.6000X1.6000*%
%ADD112C,1.5500*%
G04:AMPARAMS|DCode=113|XSize=1.55mm|YSize=1.55mm|CornerRadius=0.3875mm|HoleSize=0mm|Usage=FLASHONLY|Rotation=0.000|XOffset=0mm|YOffset=0mm|HoleType=Round|Shape=RoundedRectangle|*
%AMROUNDEDRECTD113*
21,1,1.5500,0.7750,0,0,0.0*
21,1,0.7750,1.5500,0,0,0.0*
1,1,0.7750,0.3875,-0.3875*
1,1,0.7750,-0.3875,-0.3875*
1,1,0.7750,-0.3875,0.3875*
1,1,0.7750,0.3875,0.3875*
%
%ADD113ROUNDEDRECTD113*%
%ADD114C,0.6000*%
G36*
X894700Y893806D02*
X894700Y845000D01*
X878500D01*
Y840826D01*
X877553Y840100D01*
X875447D01*
X873412Y839555D01*
X871588Y838502D01*
X870098Y837012D01*
X869045Y835188D01*
X868500Y833153D01*
Y831047D01*
X869045Y829012D01*
X870098Y827188D01*
X871588Y825698D01*
X873412Y824645D01*
X875447Y824100D01*
X876119D01*
X877371Y823935D01*
X878500Y823616D01*
Y818000D01*
X882537D01*
X883600Y817500D01*
Y808198D01*
X878840Y803438D01*
X877551Y802449D01*
X877551Y802449D01*
X869651Y794549D01*
X869613Y794500D01*
X856200D01*
Y794900D01*
X837200D01*
X836200Y795552D01*
Y804400D01*
X820500D01*
Y805000D01*
X801500D01*
Y784400D01*
X799500D01*
Y805000D01*
X789698D01*
X758249Y836449D01*
X756682Y837651D01*
X754858Y838407D01*
X752900Y838665D01*
X708333D01*
X702671Y844327D01*
X702750Y844622D01*
Y847979D01*
X701881Y851221D01*
X700202Y854129D01*
X697829Y856503D01*
X694921Y858181D01*
X694235Y858365D01*
Y859635D01*
X694921Y859819D01*
X697829Y861497D01*
X700202Y863871D01*
X701881Y866779D01*
X702750Y870022D01*
Y873379D01*
X701881Y876621D01*
X700202Y879529D01*
X697829Y881902D01*
X694921Y883581D01*
X691679Y884450D01*
X688321D01*
X685079Y883581D01*
X682171Y881902D01*
X679798Y879529D01*
X678119Y876621D01*
X677935Y875935D01*
X676665D01*
X676481Y876621D01*
X674802Y879529D01*
X672429Y881902D01*
X669521Y883581D01*
X666279Y884450D01*
X662921D01*
X659679Y883581D01*
X656771Y881902D01*
X654398Y879529D01*
X652719Y876621D01*
X652535Y875935D01*
X651265D01*
X651081Y876621D01*
X649402Y879529D01*
X647029Y881902D01*
X644121Y883581D01*
X640879Y884450D01*
X637521D01*
X634279Y883581D01*
X631371Y881902D01*
X628997Y879529D01*
X627319Y876621D01*
X627135Y875935D01*
X625865D01*
X625681Y876621D01*
X624002Y879529D01*
X621629Y881902D01*
X618721Y883581D01*
X615479Y884450D01*
X612121D01*
X608879Y883581D01*
X605971Y881902D01*
X603597Y879529D01*
X601919Y876621D01*
X601735Y875935D01*
X600465D01*
X600281Y876621D01*
X598602Y879529D01*
X596229Y881902D01*
X593321Y883581D01*
X590079Y884450D01*
X586721D01*
X583479Y883581D01*
X580571Y881902D01*
X578198Y879529D01*
X576519Y876621D01*
X575650Y873379D01*
Y870022D01*
X576519Y866779D01*
X578198Y863871D01*
X580571Y861497D01*
X583479Y859819D01*
X584165Y859635D01*
Y858365D01*
X583479Y858181D01*
X580571Y856503D01*
X578198Y854129D01*
X576519Y851221D01*
X576335Y850535D01*
X575065D01*
X574881Y851221D01*
X573203Y854129D01*
X570829Y856503D01*
X567921Y858181D01*
X564679Y859050D01*
X561321D01*
X558079Y858181D01*
X555171Y856503D01*
X552798Y854129D01*
X551119Y851221D01*
X550935Y850535D01*
X549665D01*
X549481Y851221D01*
X547803Y854129D01*
X545429Y856503D01*
X542521Y858181D01*
X539279Y859050D01*
X535921D01*
X532679Y858181D01*
X529771Y856503D01*
X527397Y854129D01*
X525719Y851221D01*
X525535Y850535D01*
X524265D01*
X524081Y851221D01*
X522402Y854129D01*
X520029Y856503D01*
X517121Y858181D01*
X513879Y859050D01*
X510521D01*
X507279Y858181D01*
X504371Y856503D01*
X501997Y854129D01*
X500319Y851221D01*
X500135Y850535D01*
X498865D01*
X498681Y851221D01*
X497002Y854129D01*
X494629Y856503D01*
X491721Y858181D01*
X488479Y859050D01*
X485121D01*
X481879Y858181D01*
X478971Y856503D01*
X476598Y854129D01*
X475286Y851857D01*
X473971Y852119D01*
X473922Y852492D01*
X473027Y854651D01*
X471605Y856505D01*
X469751Y857927D01*
X467592Y858821D01*
X465275Y859127D01*
X457525D01*
X455208Y858821D01*
X453049Y857927D01*
X451195Y856505D01*
X449773Y854651D01*
X448879Y852492D01*
X448573Y850175D01*
Y842425D01*
X448879Y840108D01*
X449773Y837949D01*
X451195Y836095D01*
X453049Y834673D01*
X453835Y834347D01*
Y822033D01*
X426201Y794399D01*
X424999Y792832D01*
X424243Y791008D01*
X423985Y789050D01*
Y766368D01*
X422715Y765635D01*
X421988Y766055D01*
X419953Y766600D01*
X417847D01*
X415812Y766055D01*
X413988Y765002D01*
X412550Y763564D01*
X411098Y765015D01*
X409274Y766069D01*
X407239Y766614D01*
X405133D01*
X403098Y766069D01*
X401274Y765015D01*
X399785Y763526D01*
X398731Y761702D01*
X398186Y759667D01*
Y757700D01*
X396650D01*
Y734900D01*
X327307Y734900D01*
X325893Y735985D01*
X323461Y736993D01*
X320850Y737336D01*
X302050D01*
Y745000D01*
X267550D01*
Y734900D01*
X232906D01*
X231374Y735924D01*
X227734Y737431D01*
X223870Y738200D01*
X219930D01*
X216789Y737575D01*
X215136Y739228D01*
Y742750D01*
X216300D01*
Y769250D01*
X201300D01*
Y780342D01*
X202950D01*
X204712Y780574D01*
X206354Y781254D01*
X207764Y782336D01*
X209428Y784000D01*
X215800D01*
Y795372D01*
X221520Y801092D01*
X224400D01*
Y787200D01*
X254400D01*
Y806200D01*
X250728D01*
X250726Y806212D01*
X250046Y807854D01*
X248964Y809264D01*
X245514Y812714D01*
X244104Y813796D01*
X242462Y814476D01*
X240700Y814708D01*
X218700D01*
X216938Y814476D01*
X215296Y813796D01*
X213886Y812714D01*
X206762Y805591D01*
X206042Y805593D01*
X205517Y806865D01*
X205614Y806961D01*
X206696Y808371D01*
X207376Y810013D01*
X207608Y811775D01*
Y815429D01*
X208450Y816350D01*
X208878Y816350D01*
X218200D01*
Y830100D01*
Y843850D01*
X208878D01*
X208450Y843850D01*
X207608Y844771D01*
Y848880D01*
X214578Y855850D01*
X236450D01*
Y865100D01*
X236753D01*
X238788Y865645D01*
X240612Y866698D01*
X242102Y868188D01*
X243155Y870012D01*
X243700Y872047D01*
Y874153D01*
X243155Y876188D01*
X242102Y878012D01*
X240612Y879502D01*
X238788Y880555D01*
X236753Y881100D01*
X236450D01*
Y890350D01*
X204950D01*
Y865478D01*
X202473Y863002D01*
X201300Y863488D01*
Y894307D01*
X370215Y894404D01*
X370742Y893134D01*
X370299Y892691D01*
X369443Y891209D01*
X369441Y891200D01*
X375500D01*
X381559D01*
X381557Y891209D01*
X380701Y892691D01*
X380253Y893140D01*
X380779Y894410D01*
X386281Y894413D01*
X386917Y893313D01*
X386482Y892560D01*
X385800Y890017D01*
Y887383D01*
X386482Y884840D01*
X387140Y883700D01*
X386505Y882600D01*
X384800D01*
Y863600D01*
X406800D01*
Y864214D01*
X408070Y865189D01*
X409147Y864900D01*
X411253D01*
X413288Y865445D01*
X415112Y866498D01*
X416602Y867988D01*
X417655Y869812D01*
X418200Y871847D01*
Y873953D01*
X417655Y875988D01*
X416602Y877812D01*
X415112Y879302D01*
X413288Y880355D01*
X411253Y880900D01*
X409147D01*
X408070Y880611D01*
X406800Y881586D01*
Y882600D01*
X405095D01*
X404460Y883700D01*
X405118Y884840D01*
X405800Y887383D01*
Y890017D01*
X405118Y892560D01*
X404677Y893324D01*
X405312Y894424D01*
X893802Y894704D01*
X894700Y893806D01*
D02*
G37*
G36*
X678119Y841379D02*
X679798Y838471D01*
X682171Y836097D01*
X685079Y834419D01*
X688321Y833550D01*
X691679D01*
X691973Y833629D01*
X699851Y825751D01*
X701418Y824549D01*
X703242Y823793D01*
X705200Y823535D01*
X749767D01*
X767665Y805637D01*
X766837Y804668D01*
X764544Y806335D01*
X759635Y808836D01*
X754396Y810538D01*
X748955Y811400D01*
X743446D01*
X738004Y810538D01*
X732765Y808836D01*
X727856Y806335D01*
X723399Y803096D01*
X719503Y799201D01*
X716265Y794744D01*
X713764Y789835D01*
X712062Y784596D01*
X711200Y779155D01*
Y773645D01*
X712062Y768204D01*
X713764Y762965D01*
X716265Y758056D01*
X719503Y753599D01*
X723399Y749704D01*
X727856Y746465D01*
X729709Y745521D01*
X729413Y744286D01*
X697400D01*
X694790Y743943D01*
X692357Y742935D01*
X690268Y741332D01*
X682568Y733632D01*
X680965Y731543D01*
X679957Y729110D01*
X679614Y726500D01*
Y725050D01*
X677165D01*
Y734767D01*
X701249Y758851D01*
X701249Y758851D01*
X702451Y760418D01*
X703207Y762242D01*
X703465Y764200D01*
Y786700D01*
X703207Y788658D01*
X702451Y790482D01*
X701249Y792049D01*
X701249Y792049D01*
X692649Y800649D01*
X691082Y801851D01*
X689258Y802607D01*
X687500Y802838D01*
Y808300D01*
X661500D01*
Y782300D01*
Y767598D01*
X657838Y763936D01*
X656665Y764422D01*
Y827667D01*
X662627Y833629D01*
X662921Y833550D01*
X666279D01*
X669521Y834419D01*
X672429Y836097D01*
X674802Y838471D01*
X676481Y841379D01*
X676665Y842065D01*
X677935D01*
X678119Y841379D01*
D02*
G37*
G36*
X601919D02*
X603597Y838471D01*
X605971Y836097D01*
X608879Y834419D01*
X612121Y833550D01*
X615479D01*
X615773Y833629D01*
X620935Y828467D01*
Y734900D01*
X617098D01*
X596271Y755727D01*
X596758Y756900D01*
X611300D01*
Y782300D01*
Y808300D01*
X585300D01*
Y802865D01*
X575733D01*
X545165Y833433D01*
Y835945D01*
X545429Y836097D01*
X547803Y838471D01*
X549481Y841379D01*
X549665Y842065D01*
X550935D01*
X551119Y841379D01*
X552798Y838471D01*
X555171Y836097D01*
X558079Y834419D01*
X561321Y833550D01*
X564679D01*
X567921Y834419D01*
X570829Y836097D01*
X573203Y838471D01*
X574881Y841379D01*
X575065Y842065D01*
X576335D01*
X576519Y841379D01*
X578198Y838471D01*
X580571Y836097D01*
X583479Y834419D01*
X586721Y833550D01*
X590079D01*
X593321Y834419D01*
X596229Y836097D01*
X598602Y838471D01*
X600281Y841379D01*
X600465Y842065D01*
X601735D01*
X601919Y841379D01*
D02*
G37*
G36*
X169000Y834143D02*
Y828200D01*
X174790D01*
X175425Y827100D01*
X175245Y826788D01*
X174700Y824753D01*
Y822647D01*
X174921Y821820D01*
X173947Y820550D01*
X169950D01*
Y804550D01*
X172263D01*
X173450Y804350D01*
Y802350D01*
X182700D01*
Y797350D01*
X173450D01*
Y795350D01*
X172263Y795150D01*
X169950D01*
X169950Y795150D01*
Y795150D01*
X169097Y796002D01*
X164965Y800134D01*
Y831767D01*
X167827Y834629D01*
X169000Y834143D01*
D02*
G37*
G36*
X500319Y841379D02*
X501997Y838471D01*
X504371Y836097D01*
X504635Y835945D01*
Y828600D01*
X504893Y826642D01*
X505649Y824818D01*
X506851Y823251D01*
X540932Y789170D01*
X540406Y787900D01*
X539047D01*
X537012Y787355D01*
X536871Y787273D01*
X529409D01*
X529409Y787273D01*
X527451Y787016D01*
X525626Y786260D01*
X524060Y785058D01*
X519906Y780904D01*
X518800Y781594D01*
Y800300D01*
X516296D01*
X515800Y800947D01*
Y803053D01*
X515255Y805088D01*
X514202Y806912D01*
X512712Y808402D01*
X510888Y809455D01*
X508853Y810000D01*
X506747D01*
X504712Y809455D01*
X503335Y808660D01*
X502065Y809256D01*
Y811100D01*
X502065Y811100D01*
X501936Y812079D01*
X501807Y813058D01*
X501051Y814882D01*
X499849Y816449D01*
X494365Y821933D01*
Y835945D01*
X494629Y836097D01*
X497002Y838471D01*
X498681Y841379D01*
X498865Y842065D01*
X500135D01*
X500319Y841379D01*
D02*
G37*
G36*
X525719D02*
X527397Y838471D01*
X529771Y836097D01*
X530035Y835945D01*
Y830300D01*
X530293Y828342D01*
X531049Y826518D01*
X532251Y824951D01*
X567251Y789951D01*
X568818Y788749D01*
X570642Y787993D01*
X572600Y787735D01*
X572600Y787735D01*
X585300D01*
Y777465D01*
X574033D01*
X519765Y831733D01*
Y835945D01*
X520029Y836097D01*
X522402Y838471D01*
X524081Y841379D01*
X524265Y842065D01*
X525535D01*
X525719Y841379D01*
D02*
G37*
G36*
X169000Y893798D02*
Y851994D01*
X166929D01*
X164971Y851736D01*
X163147Y850980D01*
X161580Y849778D01*
X152051Y840249D01*
X150849Y838682D01*
X150093Y836858D01*
X149835Y834900D01*
Y797000D01*
X150093Y795042D01*
X150849Y793218D01*
X152051Y791651D01*
X161851Y781851D01*
X161851Y781851D01*
X163418Y780649D01*
X165242Y779893D01*
X167200Y779635D01*
X169950D01*
Y766450D01*
X168831Y766086D01*
X142569D01*
X141450Y766450D01*
Y779150D01*
Y791850D01*
Y804550D01*
Y820550D01*
X137235D01*
X136700Y821247D01*
Y823353D01*
X136155Y825388D01*
X135102Y827212D01*
X133612Y828702D01*
X131788Y829755D01*
X129753Y830300D01*
X127647D01*
X125612Y829755D01*
X123788Y828702D01*
X122298Y827212D01*
X121245Y825388D01*
X120700Y823353D01*
Y821247D01*
X120165Y820550D01*
X116800D01*
Y828200D01*
X87800D01*
Y806200D01*
X92214D01*
Y804100D01*
X92557Y801489D01*
X93565Y799057D01*
X95168Y796968D01*
X97257Y795365D01*
X99690Y794357D01*
X102300Y794014D01*
X104910Y794357D01*
X107343Y795365D01*
X109432Y796968D01*
X111035Y799057D01*
X112043Y801489D01*
X112386Y804100D01*
Y806200D01*
X115950D01*
Y791850D01*
Y777200D01*
X87800D01*
Y755200D01*
X102536D01*
X108868Y748868D01*
X110957Y747265D01*
X113390Y746257D01*
X116000Y745914D01*
X192000D01*
Y707000D01*
X200200Y698800D01*
X216914D01*
X219930Y698200D01*
X223870D01*
X226886Y698800D01*
X267300D01*
Y462900D01*
X5400D01*
Y755200D01*
X29400D01*
Y755748D01*
X41354D01*
X43965Y756092D01*
X46398Y757099D01*
X48486Y758702D01*
X50089Y760791D01*
X51097Y763224D01*
X51441Y765834D01*
X51097Y768445D01*
X50089Y770877D01*
X48486Y772966D01*
X46398Y774569D01*
X43965Y775577D01*
X41354Y775920D01*
X29400D01*
Y777200D01*
X5400D01*
Y806200D01*
X29400D01*
Y807114D01*
X30700D01*
X33310Y807457D01*
X35743Y808465D01*
X37832Y810068D01*
X39435Y812157D01*
X40443Y814589D01*
X40786Y817200D01*
X40443Y819810D01*
X39435Y822243D01*
X37832Y824332D01*
X35743Y825935D01*
X33310Y826943D01*
X30700Y827286D01*
X29400D01*
Y828200D01*
X5400D01*
Y850049D01*
X6050Y851050D01*
X6670Y851050D01*
X41550D01*
Y858014D01*
X48600D01*
X51210Y858357D01*
X53643Y859365D01*
X55732Y860968D01*
X57335Y863057D01*
X58343Y865490D01*
X58686Y868100D01*
X58343Y870711D01*
X57335Y873143D01*
X55732Y875232D01*
X53643Y876835D01*
X51210Y877843D01*
X48600Y878186D01*
X41550D01*
Y885550D01*
X6670D01*
X6050Y885550D01*
X5400Y886551D01*
Y894600D01*
X168102Y894695D01*
X169000Y893798D01*
D02*
G37*
G36*
X476598Y838471D02*
X478971Y836097D01*
X479235Y835945D01*
Y818800D01*
X479493Y816842D01*
X480249Y815018D01*
X481451Y813451D01*
X486935Y807967D01*
Y757700D01*
X477340D01*
Y760300D01*
X480900D01*
Y779300D01*
X458900D01*
Y768373D01*
X458153Y767800D01*
X456047D01*
X454012Y767255D01*
X452960Y766647D01*
X451690Y767380D01*
Y768189D01*
X452000Y769347D01*
Y771453D01*
X451455Y773488D01*
X450402Y775312D01*
X448912Y776802D01*
X447088Y777855D01*
X445053Y778400D01*
X442947D01*
X440912Y777855D01*
X440215Y777452D01*
X439115Y778087D01*
Y785917D01*
X466749Y813551D01*
X466749Y813551D01*
X467951Y815118D01*
X468707Y816942D01*
X468965Y818900D01*
X468965Y818900D01*
Y834347D01*
X469751Y834673D01*
X471605Y836095D01*
X473027Y837949D01*
X473922Y840108D01*
X473971Y840481D01*
X475286Y840743D01*
X476598Y838471D01*
D02*
G37*
G36*
X798800Y765400D02*
X810357D01*
X810831Y764291D01*
X810096Y763400D01*
X798800D01*
Y744400D01*
X820800D01*
Y752702D01*
X830049Y761951D01*
X830049Y761951D01*
X831251Y763518D01*
X832007Y765342D01*
X832265Y767300D01*
X833506Y767400D01*
X836200D01*
Y768620D01*
X837788Y769045D01*
X839612Y770098D01*
X841102Y771588D01*
X842155Y773412D01*
X842700Y775447D01*
Y776900D01*
X851900D01*
Y775500D01*
X863457D01*
X863931Y774391D01*
X863196Y773500D01*
X851900D01*
Y754500D01*
X873900D01*
Y757116D01*
X875170Y757457D01*
X875498Y756888D01*
X876988Y755398D01*
X878812Y754345D01*
X880847Y753800D01*
X882953D01*
X883700Y753227D01*
Y751500D01*
X894700D01*
Y743500D01*
X883700D01*
Y741365D01*
X875300D01*
Y745100D01*
X856300D01*
Y734900D01*
X854300D01*
Y745100D01*
X835300D01*
Y741665D01*
X830900D01*
X828942Y741407D01*
X827118Y740651D01*
X825551Y739449D01*
X821002Y734900D01*
X803200D01*
Y734900D01*
X802562Y734636D01*
X796369Y740829D01*
X795802Y741812D01*
X794312Y743302D01*
X792488Y744355D01*
X790453Y744900D01*
X788347D01*
X786312Y744355D01*
X784488Y743302D01*
X782998Y741812D01*
X781945Y739988D01*
X781400Y737953D01*
Y735847D01*
X781945Y733812D01*
X782998Y731988D01*
X784488Y730498D01*
X786312Y729445D01*
X786373Y729429D01*
X803200Y712602D01*
Y621266D01*
X801930Y620307D01*
X800729Y620465D01*
X795600D01*
Y621700D01*
X761600D01*
Y607900D01*
X756600D01*
Y621700D01*
X722600D01*
Y609000D01*
X722600D01*
Y607900D01*
X682500D01*
X674900Y615500D01*
Y653435D01*
X678768D01*
X679097Y652864D01*
X681564Y650397D01*
X684586Y648653D01*
X687956Y647750D01*
X691444D01*
X694814Y648653D01*
X697836Y650397D01*
X700303Y652864D01*
X701667Y655227D01*
X703133D01*
X704497Y652864D01*
X706964Y650397D01*
X709986Y648653D01*
X713356Y647750D01*
X716844D01*
X720214Y648653D01*
X723236Y650397D01*
X725703Y652864D01*
X727447Y655886D01*
X728350Y659256D01*
Y662744D01*
X727447Y666114D01*
X725703Y669136D01*
X723236Y671603D01*
X720214Y673347D01*
X716844Y674250D01*
X713356D01*
X709986Y673347D01*
X706964Y671603D01*
X704497Y669136D01*
X703133Y666773D01*
X701667D01*
X700303Y669136D01*
X697836Y671603D01*
X695473Y672967D01*
Y674433D01*
X697836Y675797D01*
X700303Y678264D01*
X702047Y681286D01*
X702950Y684656D01*
Y688144D01*
X702047Y691514D01*
X700303Y694536D01*
X697836Y697003D01*
X697280Y697323D01*
X697609Y698550D01*
X702950D01*
Y703891D01*
X704177Y704220D01*
X704497Y703664D01*
X706964Y701197D01*
X709986Y699453D01*
X713356Y698550D01*
X716844D01*
X720214Y699453D01*
X723236Y701197D01*
X725703Y703664D01*
X727447Y706686D01*
X728350Y710056D01*
Y713544D01*
X727447Y716914D01*
X725703Y719936D01*
X723236Y722403D01*
X722397Y722887D01*
X722725Y724114D01*
X733722D01*
X741914Y715922D01*
Y707900D01*
X742257Y705290D01*
X743265Y702857D01*
X744868Y700768D01*
X746957Y699165D01*
X749389Y698157D01*
X752000Y697814D01*
X754611Y698157D01*
X757043Y699165D01*
X759132Y700768D01*
X760735Y702857D01*
X761743Y705290D01*
X762086Y707900D01*
Y720100D01*
X761743Y722710D01*
X760735Y725143D01*
X759132Y727232D01*
X746234Y740130D01*
X746760Y741400D01*
X748955D01*
X754396Y742262D01*
X759635Y743964D01*
X764544Y746465D01*
X769001Y749704D01*
X772896Y753599D01*
X776135Y758056D01*
X778636Y762965D01*
X780338Y768204D01*
X781200Y773645D01*
Y779155D01*
X780744Y782034D01*
X781569Y783000D01*
X798800D01*
Y765400D01*
D02*
G37*
G36*
X408650Y731200D02*
X409350D01*
Y727700D01*
X460998D01*
X461771Y726693D01*
X461600Y726053D01*
Y723947D01*
X462145Y721912D01*
X462288Y721665D01*
X461653Y720565D01*
X349900D01*
X347942Y720307D01*
X346118Y719551D01*
X344551Y718349D01*
X344551Y718349D01*
X304970Y678768D01*
X303700Y679294D01*
Y695000D01*
X294300Y704400D01*
X258025Y704400D01*
X257132Y705303D01*
X257377Y729802D01*
X267550D01*
X269501Y730190D01*
X269930Y730477D01*
X271050Y729878D01*
Y729750D01*
X298550D01*
Y732134D01*
X299820Y732813D01*
X300099Y732626D01*
X302050Y732238D01*
X320516D01*
X322130Y732026D01*
X323322Y731532D01*
X324204Y730855D01*
X324802Y730561D01*
X325356Y730190D01*
X325686Y730125D01*
X325988Y729976D01*
X326653Y729932D01*
X327307Y729802D01*
X396650Y729802D01*
X398601Y730190D01*
X399163Y730565D01*
X400150Y731200D01*
Y731200D01*
X400150Y731200D01*
X403650D01*
Y742700D01*
X408650D01*
Y731200D01*
D02*
G37*
G36*
X856300Y723100D02*
X875300D01*
Y726235D01*
X883700D01*
Y723500D01*
X894900D01*
Y722000D01*
X887300D01*
Y718000D01*
X893800D01*
Y713000D01*
X887300D01*
Y709000D01*
X894900D01*
Y697500D01*
X883800D01*
Y695365D01*
X875300D01*
Y699100D01*
X856300D01*
Y677100D01*
X875300D01*
Y680235D01*
X883800D01*
Y677500D01*
X894900D01*
Y622100D01*
X890500D01*
Y615850D01*
X896000D01*
Y610850D01*
X890500D01*
Y604600D01*
X894900D01*
Y554600D01*
X890500D01*
Y548350D01*
X896000D01*
Y543350D01*
X890500D01*
Y537100D01*
X894900D01*
Y265904D01*
X893646Y265705D01*
X893636Y265735D01*
X891135Y270644D01*
X887896Y275101D01*
X884001Y278997D01*
X879544Y282235D01*
X874635Y284736D01*
X869396Y286438D01*
X863955Y287300D01*
X858446D01*
X853004Y286438D01*
X847765Y284736D01*
X842856Y282235D01*
X838399Y278997D01*
X834503Y275101D01*
X831265Y270644D01*
X828764Y265735D01*
X827062Y260496D01*
X826200Y255055D01*
Y249545D01*
X827062Y244104D01*
X828764Y238865D01*
X831265Y233956D01*
X834503Y229499D01*
X838399Y225604D01*
X842856Y222365D01*
X847765Y219864D01*
X853004Y218162D01*
X858446Y217300D01*
X863955D01*
X869396Y218162D01*
X874635Y219864D01*
X879544Y222365D01*
X884001Y225604D01*
X887896Y229499D01*
X891135Y233956D01*
X893636Y238865D01*
X893646Y238895D01*
X894900Y238696D01*
X894900Y5100D01*
X298700D01*
X292900Y10900D01*
Y96402D01*
X315533Y119035D01*
X334100D01*
X336058Y119293D01*
X337882Y120049D01*
X339449Y121251D01*
X375949Y157751D01*
X377151Y159318D01*
X377907Y161142D01*
X378165Y163100D01*
Y180300D01*
X379963D01*
X380653Y179030D01*
X379857Y177111D01*
X379514Y174500D01*
X379857Y171889D01*
X380865Y169457D01*
X382468Y167368D01*
X384557Y165765D01*
X386990Y164757D01*
X389600Y164414D01*
X392211Y164757D01*
X394643Y165765D01*
X396732Y167368D01*
X398335Y169457D01*
X399343Y171889D01*
X399686Y174500D01*
X399343Y177111D01*
X398548Y179030D01*
X399237Y180300D01*
X401035D01*
Y164333D01*
X346817Y110115D01*
X328350D01*
X326392Y109857D01*
X324568Y109101D01*
X323001Y107899D01*
X323001Y107899D01*
X309051Y93949D01*
X307849Y92382D01*
X307093Y90558D01*
X306835Y88600D01*
Y88300D01*
X295900D01*
Y53300D01*
X330900D01*
Y88300D01*
X326457D01*
X325971Y89473D01*
X331483Y94985D01*
X349950D01*
X351908Y95243D01*
X353732Y95999D01*
X355299Y97201D01*
X413949Y155851D01*
X415151Y157418D01*
X415907Y159242D01*
X416165Y161200D01*
X416165Y161200D01*
Y180300D01*
X420135D01*
Y177178D01*
X419700Y175553D01*
Y173447D01*
X420245Y171412D01*
X421298Y169588D01*
X422788Y168098D01*
X424612Y167045D01*
X426647Y166500D01*
X428753D01*
X430788Y167045D01*
X432612Y168098D01*
X434102Y169588D01*
X435155Y171412D01*
X435700Y173447D01*
Y175553D01*
X435265Y177178D01*
Y180300D01*
X439235D01*
Y162333D01*
X384251Y107349D01*
X383049Y105782D01*
X382293Y103958D01*
X382035Y102000D01*
Y88300D01*
X372100D01*
Y53300D01*
X407100D01*
Y88300D01*
X397165D01*
Y98867D01*
X452149Y153851D01*
X452149Y153851D01*
X453351Y155418D01*
X454107Y157242D01*
X454365Y159200D01*
X454365Y159200D01*
Y180300D01*
X458235D01*
Y177178D01*
X457800Y175553D01*
Y173447D01*
X458345Y171412D01*
X459398Y169588D01*
X460888Y168098D01*
X462712Y167045D01*
X464747Y166500D01*
X466853D01*
X468888Y167045D01*
X470712Y168098D01*
X472202Y169588D01*
X473255Y171412D01*
X473800Y173447D01*
Y175553D01*
X473365Y177178D01*
Y180300D01*
X477335D01*
Y160833D01*
X422351Y105849D01*
X421149Y104282D01*
X420393Y102458D01*
X420135Y100500D01*
Y88300D01*
X410200D01*
Y53300D01*
X445200D01*
Y88300D01*
X435265D01*
Y97367D01*
X490249Y152351D01*
X490249Y152351D01*
X491451Y153918D01*
X492207Y155742D01*
X492465Y157700D01*
X492465Y157700D01*
Y180300D01*
X496728D01*
X497278Y179030D01*
X496445Y177588D01*
X495900Y175553D01*
Y173447D01*
X496445Y171412D01*
X497498Y169588D01*
X498988Y168098D01*
X500812Y167045D01*
X502847Y166500D01*
X504953D01*
X506988Y167045D01*
X508812Y168098D01*
X510302Y169588D01*
X511355Y171412D01*
X511900Y173447D01*
Y175553D01*
X511355Y177588D01*
X510522Y179030D01*
X511072Y180300D01*
X515435D01*
Y160633D01*
X460451Y105649D01*
X459249Y104082D01*
X458493Y102258D01*
X458235Y100300D01*
Y88300D01*
X448300D01*
Y53300D01*
X483300D01*
Y88300D01*
X473365D01*
Y97167D01*
X528349Y152151D01*
X528349Y152151D01*
X529551Y153718D01*
X530307Y155542D01*
X530565Y157500D01*
X530565Y157500D01*
Y183800D01*
X539500D01*
Y197800D01*
Y211800D01*
X534872D01*
X534386Y212973D01*
X535648Y214235D01*
X551500D01*
X553458Y214493D01*
X555282Y215249D01*
X556849Y216451D01*
X571749Y231351D01*
X572951Y232918D01*
X573707Y234742D01*
X573767Y235200D01*
X601000D01*
Y237135D01*
X621400D01*
X623358Y237393D01*
X625182Y238149D01*
X626749Y239351D01*
X637249Y249851D01*
X637249Y249851D01*
X643149Y255751D01*
X643149Y255751D01*
X644351Y257318D01*
X645107Y259142D01*
X645365Y261100D01*
X645365Y261100D01*
Y425500D01*
X645107Y427458D01*
X644351Y429282D01*
X643149Y430849D01*
X643149Y430849D01*
X618194Y455804D01*
X618277Y456429D01*
X619619Y456883D01*
X703135Y373367D01*
Y341160D01*
X695794D01*
Y285440D01*
X776814D01*
Y268450D01*
X772900D01*
Y236150D01*
X800900D01*
Y268450D01*
X796986D01*
Y285440D01*
X827206D01*
Y288940D01*
X835200D01*
Y313300D01*
Y337660D01*
X827206D01*
Y341160D01*
X743665D01*
Y371500D01*
X743665Y371500D01*
X743407Y373458D01*
X742651Y375282D01*
X741449Y376849D01*
X741449Y376849D01*
X643465Y474833D01*
Y505222D01*
X643900Y506847D01*
Y508953D01*
X643355Y510988D01*
X642302Y512812D01*
X640812Y514302D01*
X638988Y515355D01*
X636953Y515900D01*
X634847D01*
X632812Y515355D01*
X631735Y514733D01*
X630465Y515466D01*
Y519622D01*
X630900Y521247D01*
Y523353D01*
X630355Y525388D01*
X629302Y527212D01*
X627812Y528702D01*
X625988Y529755D01*
X623953Y530300D01*
X621847D01*
X619812Y529755D01*
X617988Y528702D01*
X616498Y527212D01*
X615445Y525388D01*
X614900Y523353D01*
Y521247D01*
X615335Y519622D01*
Y518222D01*
X614162Y517736D01*
X606749Y525149D01*
X605182Y526351D01*
X603358Y527107D01*
X601400Y527365D01*
X591233D01*
X575036Y543562D01*
X575522Y544735D01*
X602100D01*
X604058Y544993D01*
X605882Y545749D01*
X607449Y546951D01*
X638900Y578402D01*
X660551Y556751D01*
X662118Y555549D01*
X663942Y554793D01*
X665900Y554535D01*
X722600D01*
Y553300D01*
X732893D01*
X733094Y551771D01*
X733850Y549947D01*
X735052Y548380D01*
X753935Y529497D01*
Y524360D01*
X695794D01*
Y468640D01*
X713118D01*
X713643Y467372D01*
X714845Y465806D01*
X718360Y462291D01*
X719926Y461089D01*
X721751Y460333D01*
X723709Y460075D01*
X723709Y460075D01*
X850091D01*
X852049Y460333D01*
X853874Y461089D01*
X855440Y462291D01*
X858955Y465806D01*
X860157Y467372D01*
X860913Y469197D01*
X861171Y471155D01*
X861171Y471155D01*
Y521845D01*
X860913Y523803D01*
X860157Y525628D01*
X858955Y527194D01*
X818465Y567685D01*
Y670884D01*
X819565Y671519D01*
X820212Y671145D01*
X822247Y670600D01*
X824353D01*
X826388Y671145D01*
X828212Y672198D01*
X829702Y673688D01*
X830679Y675381D01*
X834127Y678829D01*
X835300Y678343D01*
Y677100D01*
X854300D01*
Y699100D01*
X835300D01*
Y695665D01*
X832700D01*
X832700Y695665D01*
X830742Y695407D01*
X828918Y694651D01*
X827351Y693449D01*
X827351Y693449D01*
X819735Y685833D01*
X819161Y685914D01*
X818465Y686316D01*
Y715600D01*
X818404Y716059D01*
X819553Y717066D01*
X820547Y716800D01*
X822653D01*
X824688Y717345D01*
X826512Y718398D01*
X828002Y719888D01*
X828842Y721344D01*
X834030Y726532D01*
X835300Y726527D01*
Y723100D01*
X854300D01*
Y729802D01*
X856300D01*
Y723100D01*
D02*
G37*
G36*
X610035Y720567D02*
Y703437D01*
X608800Y703353D01*
X608255Y705388D01*
X607202Y707212D01*
X605712Y708702D01*
X603888Y709755D01*
X601853Y710300D01*
X599747D01*
X597842Y709790D01*
X596250D01*
Y724350D01*
X575854D01*
X575228Y725620D01*
X575801Y726368D01*
X576353Y727700D01*
X580750D01*
Y733400D01*
X597202D01*
X610035Y720567D01*
D02*
G37*
G36*
Y701163D02*
Y621493D01*
X609653Y621200D01*
X607547D01*
X606016Y620790D01*
X596250D01*
Y629150D01*
Y641850D01*
Y654550D01*
Y667250D01*
Y679950D01*
Y694660D01*
X598402D01*
X599747Y694300D01*
X601853D01*
X603888Y694845D01*
X605712Y695898D01*
X607202Y697388D01*
X608255Y699212D01*
X608800Y701247D01*
X610035Y701163D01*
D02*
G37*
G36*
X803335Y606569D02*
Y564551D01*
X803593Y562593D01*
X804349Y560769D01*
X805551Y559202D01*
X842720Y522033D01*
X842234Y520860D01*
X840200D01*
Y496500D01*
X837700D01*
Y494000D01*
X826294D01*
Y475205D01*
X823706D01*
Y494000D01*
X812300D01*
Y496500D01*
X809800D01*
Y520860D01*
X801806D01*
Y524360D01*
X790325D01*
Y533540D01*
X790325Y533540D01*
X790067Y535498D01*
X789311Y537322D01*
X788109Y538889D01*
X788109Y538889D01*
X774872Y552127D01*
X775358Y553300D01*
X780535D01*
Y552771D01*
X780793Y550813D01*
X781177Y549885D01*
X781545Y548512D01*
X782598Y546688D01*
X784088Y545198D01*
X785912Y544145D01*
X787947Y543600D01*
X790053D01*
X792088Y544145D01*
X793912Y545198D01*
X795402Y546688D01*
X796455Y548512D01*
X797000Y550547D01*
Y552653D01*
X796455Y554688D01*
X795665Y556056D01*
Y560800D01*
X795600Y561292D01*
Y570900D01*
X792100D01*
Y572300D01*
X778600D01*
Y574800D01*
X776100D01*
Y580100D01*
X765100D01*
Y573794D01*
X763830Y573268D01*
X759368Y577730D01*
X759451Y578297D01*
X759822Y579072D01*
X761588Y579545D01*
X763412Y580598D01*
X764177Y581363D01*
X765100Y582200D01*
X776100D01*
Y587500D01*
Y592800D01*
X765100D01*
X765100Y592800D01*
Y592800D01*
X763884Y592930D01*
X763412Y593402D01*
X761588Y594455D01*
X759553Y595000D01*
X757447D01*
X756600Y595650D01*
Y602802D01*
X756600Y602802D01*
X761600D01*
X763551Y603190D01*
X763980Y603477D01*
X765100Y602878D01*
Y602700D01*
X776100D01*
Y605500D01*
X767632D01*
X766903Y606555D01*
X767373Y607600D01*
X792100D01*
Y607700D01*
X803000D01*
X803335Y606569D01*
D02*
G37*
G36*
X722600Y582365D02*
X672333D01*
X663968Y590730D01*
X664494Y592000D01*
X665553D01*
X667551Y592535D01*
X722600D01*
Y582365D01*
D02*
G37*
G36*
X566250Y700192D02*
Y692650D01*
Y679950D01*
Y667250D01*
Y654550D01*
Y641850D01*
Y629150D01*
Y616450D01*
Y603750D01*
X569750D01*
Y603050D01*
X581250D01*
X592750D01*
Y603750D01*
X596250D01*
Y605660D01*
X605829D01*
X607547Y605200D01*
X608807D01*
X609797Y603990D01*
X609600Y603253D01*
Y601147D01*
X610145Y599112D01*
X611198Y597288D01*
X612688Y595798D01*
X614512Y594745D01*
X615285Y594538D01*
X615613Y593312D01*
X602567Y580265D01*
X580750D01*
Y587700D01*
X464490D01*
Y589616D01*
X464900Y591147D01*
Y593253D01*
X464465Y594878D01*
Y602900D01*
X464465Y602900D01*
X464207Y604858D01*
X463451Y606682D01*
X462249Y608249D01*
X462249Y608249D01*
X427458Y643040D01*
X425891Y644242D01*
X424067Y644998D01*
X422109Y645256D01*
X404164D01*
X403253Y645500D01*
X401147D01*
X399112Y644955D01*
X397288Y643902D01*
X395798Y642412D01*
X394745Y640588D01*
X394200Y638553D01*
Y636447D01*
X394467Y635450D01*
X394260Y635063D01*
X393461Y634300D01*
X391747D01*
X389712Y633755D01*
X387888Y632702D01*
X386398Y631212D01*
X385345Y629388D01*
X384800Y627353D01*
Y625247D01*
X385345Y623212D01*
X386398Y621388D01*
X387888Y619898D01*
X389712Y618845D01*
X391747Y618300D01*
X393853D01*
X395478Y618735D01*
X414367D01*
X436444Y596658D01*
Y594164D01*
X436200Y593253D01*
Y591147D01*
X436660Y589429D01*
Y587700D01*
X426415D01*
Y591650D01*
X426415Y591650D01*
X426157Y593608D01*
X425401Y595432D01*
X424199Y596999D01*
X424199Y596999D01*
X418149Y603049D01*
X416582Y604251D01*
X414758Y605007D01*
X412800Y605265D01*
X381829D01*
X379871Y605007D01*
X378047Y604251D01*
X376480Y603049D01*
X370651Y597220D01*
X369449Y595653D01*
X368693Y593829D01*
X368505Y592400D01*
X363465D01*
Y599963D01*
X363955Y600812D01*
X364500Y602847D01*
Y604953D01*
X363955Y606988D01*
X362902Y608812D01*
X361412Y610302D01*
X359588Y611355D01*
X357553Y611900D01*
X355447D01*
X353412Y611355D01*
X351588Y610302D01*
X350098Y608812D01*
X349835Y608355D01*
X348565Y608696D01*
Y655367D01*
X369033Y675835D01*
X537100D01*
X539058Y676093D01*
X540882Y676849D01*
X542449Y678051D01*
X565077Y700678D01*
X566250Y700192D01*
D02*
G37*
G36*
X410832Y588970D02*
X410306Y587700D01*
X409350D01*
Y584200D01*
X408650D01*
Y572700D01*
Y561200D01*
X409350D01*
Y557700D01*
X425535D01*
Y550600D01*
X381800D01*
Y531600D01*
X422855D01*
X423567Y530404D01*
X423147Y529600D01*
X420600D01*
Y526993D01*
X419700Y526100D01*
X419330Y526100D01*
X414700D01*
Y520100D01*
Y514100D01*
X419330D01*
X419700Y514100D01*
X420600Y513207D01*
Y510600D01*
X420700D01*
Y494000D01*
X442700D01*
Y513000D01*
X442600D01*
Y529600D01*
X440253D01*
X439833Y530404D01*
X440545Y531600D01*
X442600D01*
Y550600D01*
X440665D01*
Y557700D01*
X454842D01*
X455329Y556527D01*
X452176Y553374D01*
X450974Y551807D01*
X450218Y549983D01*
X450197Y549825D01*
X448150D01*
Y533575D01*
X455752D01*
X460035Y529292D01*
Y524075D01*
X459800D01*
Y519450D01*
X457300D01*
Y516950D01*
X451650D01*
Y514825D01*
X456116D01*
X456795Y513555D01*
X456625Y513300D01*
X446200D01*
Y494300D01*
X468200D01*
Y494400D01*
X488900D01*
Y494500D01*
X509700D01*
Y494500D01*
X530600D01*
Y502802D01*
X532727Y504929D01*
X533900Y504443D01*
Y504000D01*
X536710D01*
X537008Y503086D01*
X536205Y502000D01*
X533900D01*
Y483000D01*
X537193D01*
X537293Y482242D01*
X538049Y480418D01*
X539251Y478851D01*
X542735Y475367D01*
Y450700D01*
X525700D01*
Y439434D01*
X524540Y438927D01*
X523700Y439597D01*
Y450700D01*
X523700Y450700D01*
X523700D01*
X523996Y451901D01*
X524512Y452198D01*
X526002Y453688D01*
X527055Y455512D01*
X527600Y457547D01*
Y459653D01*
X527165Y461278D01*
Y473500D01*
X530600D01*
Y492500D01*
X508600D01*
Y492500D01*
X487700D01*
Y492400D01*
X466900D01*
Y492300D01*
X446200D01*
Y473300D01*
X449635D01*
Y468600D01*
X449893Y466642D01*
X450649Y464818D01*
X451851Y463251D01*
X474051Y441051D01*
X474051Y441051D01*
X475618Y439849D01*
X477442Y439093D01*
X479400Y438835D01*
X484122D01*
X485747Y438400D01*
X487853D01*
X489888Y438945D01*
X491712Y439998D01*
X493202Y441488D01*
X494255Y443312D01*
X494800Y445347D01*
Y447453D01*
X494515Y448515D01*
X495552Y449552D01*
X495747Y449500D01*
X497853D01*
X499888Y450045D01*
X501712Y451098D01*
X503202Y452588D01*
X504255Y454412D01*
X504800Y456447D01*
Y458553D01*
X504518Y459607D01*
X505002Y460246D01*
X505540Y460700D01*
X507453D01*
X509488Y461245D01*
X510765Y461983D01*
X512035Y461314D01*
Y461278D01*
X511600Y459653D01*
Y457547D01*
X512145Y455512D01*
X513198Y453688D01*
X514688Y452198D01*
X515084Y451970D01*
X514743Y450700D01*
X504700D01*
Y428700D01*
X512385D01*
Y421957D01*
X512188D01*
X510046Y421531D01*
X508231Y420319D01*
X507018Y418504D01*
X506592Y416362D01*
Y410837D01*
X507018Y408696D01*
X507985Y407250D01*
X507018Y405804D01*
X506592Y403662D01*
Y398137D01*
X506891Y396635D01*
X506029Y395365D01*
X497600D01*
Y407800D01*
X494369D01*
X493598Y409070D01*
X494000Y410570D01*
Y412677D01*
X493455Y414711D01*
X492402Y416536D01*
X490912Y418025D01*
X489088Y419078D01*
X487053Y419623D01*
X484947D01*
X482912Y419078D01*
X481088Y418025D01*
X479598Y416536D01*
X478545Y414711D01*
X478000Y412677D01*
Y410570D01*
X478402Y409070D01*
X477631Y407800D01*
X475600D01*
Y395194D01*
X474942Y395107D01*
X473118Y394351D01*
X471551Y393149D01*
X464670Y386268D01*
X464594Y386270D01*
X463400Y386705D01*
Y391600D01*
X441400D01*
Y376477D01*
X440153Y375500D01*
X438047D01*
X437570Y375372D01*
X436562Y376145D01*
Y376613D01*
X436117Y378851D01*
X434849Y380749D01*
X432951Y382017D01*
X430713Y382462D01*
X426287D01*
X424049Y382017D01*
X422151Y380749D01*
X422149D01*
X420251Y382017D01*
X418013Y382462D01*
X413587D01*
X411349Y382017D01*
X409451Y380749D01*
X409449D01*
X407551Y382017D01*
X405312Y382462D01*
X400887D01*
X398649Y382017D01*
X396751Y380749D01*
X395483Y378851D01*
X395449Y378681D01*
X394813Y378444D01*
X394083Y378321D01*
X393485Y378720D01*
X392900Y378837D01*
Y367500D01*
Y356163D01*
X393485Y356280D01*
X394083Y356679D01*
X394813Y356556D01*
X395449Y356319D01*
X395483Y356149D01*
X395535Y356071D01*
Y349100D01*
X389600D01*
Y345265D01*
X380500D01*
Y347600D01*
X358500D01*
Y328600D01*
X380500D01*
Y330135D01*
X389600D01*
Y327100D01*
X398892D01*
Y325600D01*
X398700D01*
Y308100D01*
X398700D01*
Y307100D01*
X398700D01*
Y291400D01*
X390200D01*
Y288600D01*
X369800D01*
Y280351D01*
X369635Y279100D01*
X369800Y277849D01*
Y269600D01*
X390200D01*
Y267600D01*
X369800D01*
Y248600D01*
X373035D01*
Y244233D01*
X365251Y236449D01*
X364049Y234882D01*
X363293Y233058D01*
X363035Y231100D01*
Y215300D01*
X334000D01*
Y180300D01*
X363035D01*
Y166233D01*
X330967Y134165D01*
X312400D01*
X312400Y134165D01*
X310442Y133907D01*
X308618Y133151D01*
X307051Y131949D01*
X307051Y131949D01*
X294073Y118971D01*
X292900Y119457D01*
Y231200D01*
X303700Y242000D01*
X328400D01*
X350700Y264300D01*
Y319400D01*
X333000Y337100D01*
X307700D01*
X303700Y341100D01*
Y471406D01*
X304970Y471932D01*
X341451Y435451D01*
X343018Y434249D01*
X344842Y433493D01*
X346800Y433235D01*
X346800Y433235D01*
X379667D01*
X382835Y430067D01*
Y428429D01*
X382783Y428351D01*
X382338Y426113D01*
Y407887D01*
X382783Y405649D01*
X384051Y403751D01*
X385949Y402483D01*
X388187Y402038D01*
X392612D01*
X394851Y402483D01*
X396749Y403751D01*
X396751D01*
X398649Y402483D01*
X400887Y402038D01*
X405312D01*
X407551Y402483D01*
X409449Y403751D01*
X409451D01*
X411349Y402483D01*
X413587Y402038D01*
X418013D01*
X420251Y402483D01*
X422149Y403751D01*
X422151D01*
X424049Y402483D01*
X426287Y402038D01*
X430713D01*
X432951Y402483D01*
X434849Y403751D01*
X436117Y405649D01*
X436562Y407887D01*
Y426113D01*
X436117Y428351D01*
X436065Y428429D01*
Y439500D01*
X436065Y439500D01*
X435807Y441458D01*
X435051Y443282D01*
X433849Y444849D01*
X421749Y456949D01*
X420182Y458151D01*
X418358Y458907D01*
X416400Y459165D01*
X411492D01*
X410719Y460172D01*
X410900Y460847D01*
Y462953D01*
X410826Y463228D01*
X411600Y464235D01*
X413122D01*
X414747Y463800D01*
X416853D01*
X418888Y464345D01*
X420712Y465398D01*
X422202Y466888D01*
X423255Y468712D01*
X423800Y470747D01*
Y472853D01*
X423255Y474888D01*
X422202Y476712D01*
X420712Y478202D01*
X418888Y479255D01*
X416853Y479800D01*
X414747D01*
X413122Y479365D01*
X365533D01*
X348565Y496333D01*
Y555900D01*
X353400D01*
Y561900D01*
Y567900D01*
X348565D01*
Y573400D01*
X386400D01*
Y590135D01*
X409667D01*
X410832Y588970D01*
D02*
G37*
G36*
X575735Y448833D02*
X571101Y444199D01*
X569899Y442632D01*
X569143Y440808D01*
X568885Y438850D01*
Y421957D01*
X568688D01*
X567632Y421747D01*
X566650Y422553D01*
Y475152D01*
X569578Y478080D01*
X569578Y478080D01*
X570780Y479647D01*
X571536Y481471D01*
X571737Y483000D01*
X575735D01*
Y448833D01*
D02*
G37*
G36*
X592351Y441551D02*
X612735Y421167D01*
Y396600D01*
X591400D01*
Y395115D01*
X590204D01*
X589459Y396385D01*
X589808Y398137D01*
Y403662D01*
X589381Y405804D01*
X588415Y407250D01*
X589381Y408696D01*
X589808Y410837D01*
Y416362D01*
X589381Y418504D01*
X588169Y420319D01*
X586354Y421531D01*
X584212Y421957D01*
X584015D01*
Y435717D01*
X588649Y440351D01*
X589851Y441918D01*
X590097Y442510D01*
X590097Y442510D01*
X591522Y442632D01*
X592351Y441551D01*
D02*
G37*
G36*
X449706Y359550D02*
X449849Y359217D01*
X449493Y358358D01*
X449235Y356400D01*
Y347700D01*
X430900D01*
Y345765D01*
X429600D01*
Y349100D01*
X423365D01*
Y352029D01*
X424635Y352866D01*
X426287Y352538D01*
X430713D01*
X432951Y352983D01*
X434849Y354251D01*
X436117Y356149D01*
X436562Y358387D01*
Y358855D01*
X437570Y359628D01*
X438047Y359500D01*
X440153D01*
X442188Y360045D01*
X442329Y360127D01*
X447391D01*
X448935Y360330D01*
X449706Y359550D01*
D02*
G37*
G36*
X482246Y367189D02*
X483002Y365364D01*
X484204Y363798D01*
X490651Y357351D01*
X490651Y357351D01*
X492218Y356149D01*
X494042Y355393D01*
X494217Y355370D01*
X494134Y354100D01*
X480800D01*
Y354000D01*
X466757D01*
X466271Y355173D01*
X475349Y364251D01*
X475349Y364251D01*
X476551Y365818D01*
X477307Y367642D01*
X477328Y367800D01*
X482166D01*
X482246Y367189D01*
D02*
G37*
G36*
X728535Y368367D02*
Y341160D01*
X718265D01*
Y376500D01*
X718213Y376893D01*
X719416Y377486D01*
X728535Y368367D01*
D02*
G37*
G36*
X592900Y353400D02*
X612735D01*
Y327533D01*
X612167Y326965D01*
X602583D01*
X589808Y339740D01*
Y340162D01*
X589381Y342304D01*
X588415Y343750D01*
X589381Y345196D01*
X589808Y347337D01*
Y352862D01*
X589578Y354015D01*
X590605Y355285D01*
X592900D01*
Y353400D01*
D02*
G37*
G36*
X630235Y422367D02*
Y311921D01*
X629115Y311322D01*
X628431Y311779D01*
X626275Y312208D01*
X620334D01*
X619903Y313478D01*
X620649Y314051D01*
X625649Y319051D01*
X625649Y319051D01*
X626851Y320618D01*
X627607Y322442D01*
X627865Y324400D01*
Y422941D01*
X629135Y423467D01*
X630235Y422367D01*
D02*
G37*
G36*
X430900Y328700D02*
X449235D01*
Y323200D01*
X444400D01*
Y317200D01*
Y311200D01*
X449235D01*
Y288700D01*
X429200D01*
Y291400D01*
X420700D01*
Y307100D01*
X420700D01*
Y308100D01*
X420700D01*
Y325600D01*
X420508D01*
Y327100D01*
X429600D01*
Y330635D01*
X430900D01*
Y328700D01*
D02*
G37*
G36*
X563312Y341265D02*
X563092Y340162D01*
Y334637D01*
X563518Y332496D01*
X564731Y330681D01*
X566546Y329468D01*
X567132Y328057D01*
X566745Y327388D01*
X566200Y325353D01*
Y323247D01*
X566635Y321622D01*
Y314633D01*
X541426Y289424D01*
X540224Y287857D01*
X539468Y286033D01*
X539210Y284075D01*
Y275200D01*
X532815D01*
Y284916D01*
X556449Y308551D01*
X557651Y310118D01*
X558407Y311942D01*
X558665Y313900D01*
Y341966D01*
X559234Y342535D01*
X562270D01*
X563312Y341265D01*
D02*
G37*
G36*
X543218Y317524D02*
X543306Y316805D01*
X519901Y293399D01*
X518699Y291832D01*
X517943Y290008D01*
X517685Y288050D01*
Y275200D01*
X511290D01*
Y287392D01*
X541882Y317984D01*
X543218Y317524D01*
D02*
G37*
G36*
X530596Y328903D02*
X530922Y328655D01*
X530954Y328452D01*
X498376Y295874D01*
X497174Y294307D01*
X496418Y292483D01*
X496160Y290525D01*
Y275200D01*
X493200D01*
Y275200D01*
X489765D01*
Y294067D01*
X497149Y301451D01*
X497149Y301451D01*
X498351Y303018D01*
X499107Y304842D01*
X499365Y306800D01*
Y314100D01*
X502800D01*
Y317034D01*
X504008Y317193D01*
X505832Y317949D01*
X507399Y319151D01*
X517291Y329042D01*
X527713D01*
X529519Y329402D01*
X530596Y328903D01*
D02*
G37*
G36*
X594101Y314051D02*
X595667Y312849D01*
X597492Y312093D01*
X598471Y311964D01*
X599450Y311835D01*
X599450Y311835D01*
X607967D01*
X608352Y310565D01*
X608342Y310558D01*
X607121Y308731D01*
X606692Y306575D01*
Y292625D01*
X607121Y290469D01*
X608342Y288642D01*
X610169Y287421D01*
X612325Y286992D01*
X614038D01*
X614201Y286566D01*
X614256Y285722D01*
X611625Y284202D01*
X609297Y281875D01*
X607652Y279025D01*
X606800Y275846D01*
Y272554D01*
X606833Y272431D01*
X598673Y264271D01*
X597500Y264757D01*
Y271700D01*
X592500D01*
Y265700D01*
X590000D01*
Y263200D01*
X582500D01*
Y262765D01*
X579300D01*
Y275200D01*
X576597D01*
X576168Y276470D01*
X589749Y290051D01*
X589749Y290051D01*
X590951Y291618D01*
X591707Y293442D01*
X591965Y295400D01*
X591965Y295400D01*
Y312622D01*
X592338Y314017D01*
X593535Y314617D01*
X594101Y314051D01*
D02*
G37*
G36*
X500681Y333991D02*
X499946Y333100D01*
X480800D01*
Y314100D01*
X484235D01*
Y309933D01*
X476851Y302549D01*
X475649Y300982D01*
X474893Y299158D01*
X474635Y297200D01*
Y275200D01*
X471200D01*
Y256200D01*
X492725D01*
Y256200D01*
X547332D01*
X547805Y255091D01*
X547071Y254200D01*
X493200D01*
Y254200D01*
X471200D01*
Y252265D01*
X469133D01*
X464365Y257033D01*
Y317500D01*
X469100D01*
Y323500D01*
Y329500D01*
X464365D01*
Y335000D01*
X482600D01*
Y335100D01*
X500207D01*
X500681Y333991D01*
D02*
G37*
G36*
X427400Y248700D02*
X427400Y248700D01*
X427400D01*
X426920Y247618D01*
X403251Y223949D01*
X402049Y222382D01*
X401293Y220558D01*
X401035Y218600D01*
Y215300D01*
X378165D01*
Y227967D01*
X385949Y235751D01*
X385949Y235751D01*
X387151Y237318D01*
X387907Y239142D01*
X388165Y241100D01*
Y248600D01*
X391800D01*
Y267400D01*
X427400D01*
Y248700D01*
D02*
G37*
G36*
X471200Y235200D02*
X492725D01*
Y235200D01*
X510443D01*
X510928Y234027D01*
X507267Y230365D01*
X493600D01*
X493600Y230365D01*
X492621Y230236D01*
X491642Y230107D01*
X489818Y229351D01*
X488251Y228149D01*
X479551Y219449D01*
X478349Y217882D01*
X477593Y216058D01*
X477493Y215300D01*
X454365D01*
Y222367D01*
X469133Y237135D01*
X471200D01*
Y235200D01*
D02*
G37*
G36*
X451451Y248551D02*
X455302Y244700D01*
X441451Y230849D01*
X440249Y229282D01*
X439493Y227458D01*
X439235Y225500D01*
Y215300D01*
X417794D01*
X417268Y216570D01*
X443849Y243151D01*
X443849Y243151D01*
X445051Y244718D01*
X445807Y246542D01*
X446065Y248500D01*
X447304Y248700D01*
X449400D01*
Y249138D01*
X450670Y249569D01*
X451451Y248551D01*
D02*
G37*
%LPC*%
G36*
X381559Y886200D02*
X378000D01*
Y882641D01*
X378009Y882643D01*
X379491Y883499D01*
X380701Y884709D01*
X381557Y886191D01*
X381559Y886200D01*
D02*
G37*
G36*
X373000D02*
X369441D01*
X369443Y886191D01*
X370299Y884709D01*
X371509Y883499D01*
X372991Y882643D01*
X373000Y882641D01*
Y886200D01*
D02*
G37*
G36*
X382900Y879200D02*
X377900D01*
Y875700D01*
X382900D01*
Y879200D01*
D02*
G37*
G36*
X372900D02*
X367900D01*
Y875700D01*
X372900D01*
Y879200D01*
D02*
G37*
G36*
X565500Y880606D02*
Y874200D01*
X571906D01*
X571620Y875270D01*
X570402Y877380D01*
X568680Y879102D01*
X566570Y880320D01*
X565500Y880606D01*
D02*
G37*
G36*
X560500D02*
X559430Y880320D01*
X557320Y879102D01*
X555598Y877380D01*
X554380Y875270D01*
X554094Y874200D01*
X560500D01*
Y880606D01*
D02*
G37*
G36*
X540100D02*
Y874200D01*
X546506D01*
X546220Y875270D01*
X545002Y877380D01*
X543280Y879102D01*
X541170Y880320D01*
X540100Y880606D01*
D02*
G37*
G36*
X535100D02*
X534030Y880320D01*
X531920Y879102D01*
X530198Y877380D01*
X528980Y875270D01*
X528694Y874200D01*
X535100D01*
Y880606D01*
D02*
G37*
G36*
X514700D02*
Y874200D01*
X521106D01*
X520820Y875270D01*
X519602Y877380D01*
X517880Y879102D01*
X515770Y880320D01*
X514700Y880606D01*
D02*
G37*
G36*
X509700D02*
X508630Y880320D01*
X506520Y879102D01*
X504798Y877380D01*
X503580Y875270D01*
X503294Y874200D01*
X509700D01*
Y880606D01*
D02*
G37*
G36*
X489300D02*
Y874200D01*
X495706D01*
X495420Y875270D01*
X494202Y877380D01*
X492480Y879102D01*
X490370Y880320D01*
X489300Y880606D01*
D02*
G37*
G36*
X484300D02*
X483230Y880320D01*
X481120Y879102D01*
X479398Y877380D01*
X478180Y875270D01*
X477894Y874200D01*
X484300D01*
Y880606D01*
D02*
G37*
G36*
X463900D02*
Y874200D01*
X470306D01*
X470020Y875270D01*
X468802Y877380D01*
X467080Y879102D01*
X464970Y880320D01*
X463900Y880606D01*
D02*
G37*
G36*
X458900D02*
X457830Y880320D01*
X455720Y879102D01*
X453998Y877380D01*
X452780Y875270D01*
X452494Y874200D01*
X458900D01*
Y880606D01*
D02*
G37*
G36*
X382900Y870700D02*
X377900D01*
Y867200D01*
X382900D01*
Y870700D01*
D02*
G37*
G36*
X372900D02*
X367900D01*
Y867200D01*
X372900D01*
Y870700D01*
D02*
G37*
G36*
X571906Y869200D02*
X565500D01*
Y862794D01*
X566570Y863080D01*
X568680Y864298D01*
X570402Y866020D01*
X571620Y868130D01*
X571906Y869200D01*
D02*
G37*
G36*
X560500D02*
X554094D01*
X554380Y868130D01*
X555598Y866020D01*
X557320Y864298D01*
X559430Y863080D01*
X560500Y862794D01*
Y869200D01*
D02*
G37*
G36*
X546506D02*
X540100D01*
Y862794D01*
X541170Y863080D01*
X543280Y864298D01*
X545002Y866020D01*
X546220Y868130D01*
X546506Y869200D01*
D02*
G37*
G36*
X535100D02*
X528694D01*
X528980Y868130D01*
X530198Y866020D01*
X531920Y864298D01*
X534030Y863080D01*
X535100Y862794D01*
Y869200D01*
D02*
G37*
G36*
X521106D02*
X514700D01*
Y862794D01*
X515770Y863080D01*
X517880Y864298D01*
X519602Y866020D01*
X520820Y868130D01*
X521106Y869200D01*
D02*
G37*
G36*
X509700D02*
X503294D01*
X503580Y868130D01*
X504798Y866020D01*
X506520Y864298D01*
X508630Y863080D01*
X509700Y862794D01*
Y869200D01*
D02*
G37*
G36*
X495706D02*
X489300D01*
Y862794D01*
X490370Y863080D01*
X492480Y864298D01*
X494202Y866020D01*
X495420Y868130D01*
X495706Y869200D01*
D02*
G37*
G36*
X484300D02*
X477894D01*
X478180Y868130D01*
X479398Y866020D01*
X481120Y864298D01*
X483230Y863080D01*
X484300Y862794D01*
Y869200D01*
D02*
G37*
G36*
X470306D02*
X463900D01*
Y862794D01*
X464970Y863080D01*
X467080Y864298D01*
X468802Y866020D01*
X470020Y868130D01*
X470306Y869200D01*
D02*
G37*
G36*
X458900D02*
X452494D01*
X452780Y868130D01*
X453998Y866020D01*
X455720Y864298D01*
X457830Y863080D01*
X458900Y862794D01*
Y869200D01*
D02*
G37*
G36*
X862500Y845000D02*
X844500D01*
Y839065D01*
X838478D01*
X836853Y839500D01*
X834747D01*
X832712Y838955D01*
X830888Y837902D01*
X829398Y836412D01*
X828345Y834588D01*
X827800Y832553D01*
Y830447D01*
X828345Y828412D01*
X829398Y826588D01*
X830888Y825098D01*
X832712Y824045D01*
X834747Y823500D01*
X836853D01*
X838478Y823935D01*
X844500D01*
Y818000D01*
X862500D01*
Y845000D01*
D02*
G37*
G36*
X223200Y843850D02*
Y832600D01*
X232950D01*
Y843850D01*
X223200D01*
D02*
G37*
G36*
X232950Y827600D02*
X223200D01*
Y816350D01*
X232950D01*
Y827600D01*
D02*
G37*
G36*
X386400Y861700D02*
X364400D01*
Y842700D01*
X364500D01*
Y824250D01*
Y805970D01*
X364015Y805500D01*
X363285Y805117D01*
X358296Y806738D01*
X352855Y807600D01*
X347346D01*
X341904Y806738D01*
X336665Y805036D01*
X331756Y802535D01*
X327299Y799296D01*
X323404Y795401D01*
X320165Y790944D01*
X317664Y786035D01*
X315962Y780796D01*
X315100Y775355D01*
Y769846D01*
X315962Y764404D01*
X317664Y759165D01*
X320165Y754256D01*
X323404Y749799D01*
X327299Y745903D01*
X331756Y742665D01*
X336665Y740164D01*
X341904Y738462D01*
X347346Y737600D01*
X352855D01*
X358296Y738462D01*
X363535Y740164D01*
X368444Y742665D01*
X372901Y745903D01*
X376796Y749799D01*
X380035Y754256D01*
X382536Y759165D01*
X384238Y764404D01*
X385100Y769846D01*
Y775355D01*
X384238Y780796D01*
X382536Y786035D01*
X380035Y790944D01*
X376796Y795401D01*
X372901Y799296D01*
X368444Y802535D01*
X365607Y803980D01*
X365912Y805250D01*
X387700D01*
Y803247D01*
X388245Y801212D01*
X389298Y799388D01*
X390788Y797898D01*
X392612Y796845D01*
X394647Y796300D01*
X396753D01*
X398788Y796845D01*
X400612Y797898D01*
X402102Y799388D01*
X403155Y801212D01*
X403700Y803247D01*
Y805250D01*
X406700D01*
Y824250D01*
Y842600D01*
X406800D01*
Y861600D01*
X386400D01*
Y861700D01*
D02*
G37*
G36*
X298550Y802000D02*
X287300D01*
Y790250D01*
X298550D01*
Y802000D01*
D02*
G37*
G36*
X282300D02*
X271050D01*
Y790250D01*
X282300D01*
Y802000D01*
D02*
G37*
G36*
X244400Y783700D02*
X241900D01*
Y780200D01*
X244400D01*
Y783700D01*
D02*
G37*
G36*
X236900D02*
X234400D01*
Y780200D01*
X236900D01*
Y783700D01*
D02*
G37*
G36*
X298550Y785250D02*
X287300D01*
Y773500D01*
X298550D01*
Y785250D01*
D02*
G37*
G36*
X282300D02*
X271050D01*
Y773500D01*
X282300D01*
Y785250D01*
D02*
G37*
G36*
X244400Y775200D02*
X241900D01*
Y771700D01*
X244400D01*
Y775200D01*
D02*
G37*
G36*
X236900D02*
X234400D01*
Y771700D01*
X236900D01*
Y775200D01*
D02*
G37*
G36*
X247300Y765750D02*
X242050D01*
Y758500D01*
X247300D01*
Y765750D01*
D02*
G37*
G36*
X237050D02*
X231800D01*
Y758500D01*
X237050D01*
Y765750D01*
D02*
G37*
G36*
X247300Y753500D02*
X242050D01*
Y746250D01*
X247300D01*
Y753500D01*
D02*
G37*
G36*
X237050D02*
X231800D01*
Y746250D01*
X237050D01*
Y753500D01*
D02*
G37*
G36*
X98550Y882050D02*
X86800D01*
Y870800D01*
X98550D01*
Y882050D01*
D02*
G37*
G36*
X81800D02*
X70050D01*
Y870800D01*
X81800D01*
Y882050D01*
D02*
G37*
G36*
X147500Y891700D02*
X139500D01*
Y864200D01*
X147500D01*
Y891700D01*
D02*
G37*
G36*
X134500D02*
X126500D01*
Y864200D01*
X134500D01*
Y891700D01*
D02*
G37*
G36*
X98550Y865800D02*
X86800D01*
Y854550D01*
X98550D01*
Y865800D01*
D02*
G37*
G36*
X81800D02*
X70050D01*
Y854550D01*
X81800D01*
Y865800D01*
D02*
G37*
G36*
X147500Y859200D02*
X139500D01*
Y831700D01*
X147500D01*
Y859200D01*
D02*
G37*
G36*
X134500D02*
X126500D01*
Y831700D01*
X134500D01*
Y859200D01*
D02*
G37*
G36*
X43870Y738200D02*
X39930D01*
X36066Y737431D01*
X32427Y735924D01*
X29151Y733735D01*
X26365Y730949D01*
X24176Y727673D01*
X22669Y724034D01*
X21900Y720170D01*
Y716230D01*
X22669Y712366D01*
X24176Y708726D01*
X26365Y705451D01*
X29151Y702665D01*
X32427Y700476D01*
X36066Y698969D01*
X39930Y698200D01*
X43870D01*
X47734Y698969D01*
X51374Y700476D01*
X54649Y702665D01*
X57435Y705451D01*
X59624Y708726D01*
X61131Y712366D01*
X61900Y716230D01*
Y720170D01*
X61131Y724034D01*
X59624Y727673D01*
X57435Y730949D01*
X54649Y733735D01*
X51374Y735924D01*
X47734Y737431D01*
X43870Y738200D01*
D02*
G37*
G36*
X470953Y810000D02*
X468847D01*
X466812Y809455D01*
X464988Y808402D01*
X463498Y806912D01*
X462445Y805088D01*
X461900Y803053D01*
Y800947D01*
X461404Y800300D01*
X458900D01*
Y781300D01*
X480900D01*
Y800300D01*
X478396D01*
X477900Y800947D01*
Y803053D01*
X477355Y805088D01*
X476302Y806912D01*
X474812Y808402D01*
X472988Y809455D01*
X470953Y810000D01*
D02*
G37*
G36*
X717600Y695824D02*
Y688900D01*
X724524D01*
X724185Y690163D01*
X722902Y692387D01*
X721087Y694202D01*
X718863Y695486D01*
X717600Y695824D01*
D02*
G37*
G36*
X712600D02*
X711337Y695486D01*
X709113Y694202D01*
X707298Y692387D01*
X706014Y690163D01*
X705676Y688900D01*
X712600D01*
Y695824D01*
D02*
G37*
G36*
X724524Y683900D02*
X717600D01*
Y676976D01*
X718863Y677315D01*
X721087Y678598D01*
X722902Y680413D01*
X724185Y682637D01*
X724524Y683900D01*
D02*
G37*
G36*
X712600D02*
X705676D01*
X706014Y682637D01*
X707298Y680413D01*
X709113Y678598D01*
X711337Y677315D01*
X712600Y676976D01*
Y683900D01*
D02*
G37*
G36*
X298550Y724750D02*
X287300D01*
Y713000D01*
X298550D01*
Y724750D01*
D02*
G37*
G36*
X282300D02*
X271050D01*
Y713000D01*
X282300D01*
Y724750D01*
D02*
G37*
G36*
X888500Y610100D02*
X865800D01*
Y608666D01*
X865453Y608400D01*
X863347D01*
X861312Y607855D01*
X859488Y606802D01*
X857998Y605312D01*
X856945Y603488D01*
X856400Y601453D01*
Y599347D01*
X856945Y597312D01*
X857998Y595488D01*
X859488Y593998D01*
X861312Y592945D01*
X863347Y592400D01*
X865453D01*
X865800Y592134D01*
Y591100D01*
X888500D01*
Y610100D01*
D02*
G37*
G36*
X885000Y564600D02*
X879650D01*
Y561100D01*
X885000D01*
Y564600D01*
D02*
G37*
G36*
X874650D02*
X869300D01*
Y561100D01*
X874650D01*
Y564600D01*
D02*
G37*
G36*
X885000Y556100D02*
X879650D01*
Y552600D01*
X885000D01*
Y556100D01*
D02*
G37*
G36*
X874650D02*
X869300D01*
Y552600D01*
X874650D01*
Y556100D01*
D02*
G37*
G36*
X849106Y337660D02*
X840200D01*
Y315800D01*
X849106D01*
Y337660D01*
D02*
G37*
G36*
Y310800D02*
X840200D01*
Y288940D01*
X849106D01*
Y310800D01*
D02*
G37*
G36*
X768200Y264950D02*
X760200D01*
Y254800D01*
X768200D01*
Y264950D01*
D02*
G37*
G36*
X755200D02*
X747200D01*
Y254800D01*
X755200D01*
Y264950D01*
D02*
G37*
G36*
X768200Y249800D02*
X760200D01*
Y239650D01*
X768200D01*
Y249800D01*
D02*
G37*
G36*
X755200D02*
X747200D01*
Y239650D01*
X755200D01*
Y249800D01*
D02*
G37*
G36*
X805000Y211800D02*
X793500D01*
Y200300D01*
X805000D01*
Y211800D01*
D02*
G37*
G36*
X881200D02*
X869700D01*
Y200300D01*
X881200D01*
Y211800D01*
D02*
G37*
G36*
X652600D02*
X641100D01*
Y200300D01*
X652600D01*
Y211800D01*
D02*
G37*
G36*
X556000D02*
X544500D01*
Y200300D01*
X556000D01*
Y211800D01*
D02*
G37*
G36*
X864700D02*
X853200D01*
Y200300D01*
X864700D01*
Y211800D01*
D02*
G37*
G36*
X788500D02*
X777000D01*
Y200300D01*
X788500D01*
Y211800D01*
D02*
G37*
G36*
X636100D02*
X624600D01*
Y200300D01*
X636100D01*
Y211800D01*
D02*
G37*
G36*
X881200Y195300D02*
X869700D01*
Y183800D01*
X881200D01*
Y195300D01*
D02*
G37*
G36*
X864700D02*
X853200D01*
Y183800D01*
X864700D01*
Y195300D01*
D02*
G37*
G36*
X805000D02*
X793500D01*
Y183800D01*
X805000D01*
Y195300D01*
D02*
G37*
G36*
X788500D02*
X777000D01*
Y183800D01*
X788500D01*
Y195300D01*
D02*
G37*
G36*
X652600D02*
X641100D01*
Y183800D01*
X652600D01*
Y195300D01*
D02*
G37*
G36*
X636100D02*
X624600D01*
Y183800D01*
X636100D01*
Y195300D01*
D02*
G37*
G36*
X556000D02*
X544500D01*
Y183800D01*
X556000D01*
Y195300D01*
D02*
G37*
G36*
X846600Y215300D02*
X811600D01*
Y180300D01*
X846600D01*
Y215300D01*
D02*
G37*
G36*
X770400D02*
X735400D01*
Y180300D01*
X770400D01*
Y215300D01*
D02*
G37*
G36*
X618000D02*
X583000D01*
Y180300D01*
X592935D01*
Y177178D01*
X592500Y175553D01*
Y173447D01*
X593045Y171412D01*
X594098Y169588D01*
X595588Y168098D01*
X597412Y167045D01*
X599447Y166500D01*
X601553D01*
X603588Y167045D01*
X605412Y168098D01*
X606902Y169588D01*
X607955Y171412D01*
X608500Y173447D01*
Y175553D01*
X608065Y177178D01*
Y180300D01*
X618000D01*
Y215300D01*
D02*
G37*
G36*
X881200Y84800D02*
X869700D01*
Y73300D01*
X881200D01*
Y84800D01*
D02*
G37*
G36*
X652600D02*
X641100D01*
Y73300D01*
X652600D01*
Y84800D01*
D02*
G37*
G36*
X805000D02*
X793500D01*
Y73300D01*
X805000D01*
Y84800D01*
D02*
G37*
G36*
X517900D02*
X506400D01*
Y73300D01*
X517900D01*
Y84800D01*
D02*
G37*
G36*
X556000D02*
X544500D01*
Y73300D01*
X556000D01*
Y84800D01*
D02*
G37*
G36*
X365500D02*
X354000D01*
Y73300D01*
X365500D01*
Y84800D01*
D02*
G37*
G36*
X539500D02*
X528000D01*
Y73300D01*
X539500D01*
Y84800D01*
D02*
G37*
G36*
X501400D02*
X489900D01*
Y73300D01*
X501400D01*
Y84800D01*
D02*
G37*
G36*
X349000D02*
X337500D01*
Y73300D01*
X349000D01*
Y84800D01*
D02*
G37*
G36*
X864700D02*
X853200D01*
Y73300D01*
X864700D01*
Y84800D01*
D02*
G37*
G36*
X636100D02*
X624600D01*
Y73300D01*
X636100D01*
Y84800D01*
D02*
G37*
G36*
X788500D02*
X777000D01*
Y73300D01*
X788500D01*
Y84800D01*
D02*
G37*
G36*
X881200Y68300D02*
X869700D01*
Y56800D01*
X881200D01*
Y68300D01*
D02*
G37*
G36*
X864700D02*
X853200D01*
Y56800D01*
X864700D01*
Y68300D01*
D02*
G37*
G36*
X805000D02*
X793500D01*
Y56800D01*
X805000D01*
Y68300D01*
D02*
G37*
G36*
X788500D02*
X777000D01*
Y56800D01*
X788500D01*
Y68300D01*
D02*
G37*
G36*
X652600D02*
X641100D01*
Y56800D01*
X652600D01*
Y68300D01*
D02*
G37*
G36*
X636100D02*
X624600D01*
Y56800D01*
X636100D01*
Y68300D01*
D02*
G37*
G36*
X556000D02*
X544500D01*
Y56800D01*
X556000D01*
Y68300D01*
D02*
G37*
G36*
X539500D02*
X528000D01*
Y56800D01*
X539500D01*
Y68300D01*
D02*
G37*
G36*
X517900D02*
X506400D01*
Y56800D01*
X517900D01*
Y68300D01*
D02*
G37*
G36*
X501400D02*
X489900D01*
Y56800D01*
X501400D01*
Y68300D01*
D02*
G37*
G36*
X365500D02*
X354000D01*
Y56800D01*
X365500D01*
Y68300D01*
D02*
G37*
G36*
X349000D02*
X337500D01*
Y56800D01*
X349000D01*
Y68300D01*
D02*
G37*
G36*
X846600Y88300D02*
X811600D01*
Y53300D01*
X846600D01*
Y88300D01*
D02*
G37*
G36*
X770400D02*
X735400D01*
Y53300D01*
X770400D01*
Y88300D01*
D02*
G37*
G36*
X732300Y215300D02*
X697300D01*
Y180300D01*
X707235D01*
Y88300D01*
X697300D01*
Y53300D01*
X732300D01*
Y88300D01*
X722365D01*
Y180300D01*
X732300D01*
Y215300D01*
D02*
G37*
G36*
X694200D02*
X659200D01*
Y180300D01*
X669135D01*
Y88300D01*
X659200D01*
Y53300D01*
X694200D01*
Y88300D01*
X684265D01*
Y180300D01*
X694200D01*
Y215300D01*
D02*
G37*
G36*
X601553Y102100D02*
X599447D01*
X597412Y101555D01*
X595588Y100502D01*
X594098Y99012D01*
X593045Y97188D01*
X592500Y95153D01*
Y93047D01*
X592935Y91422D01*
Y88300D01*
X583000D01*
Y53300D01*
X618000D01*
Y88300D01*
X608065D01*
Y91423D01*
X608500Y93047D01*
Y95153D01*
X607955Y97188D01*
X606902Y99012D01*
X605412Y100502D01*
X603588Y101555D01*
X601553Y102100D01*
D02*
G37*
G36*
X792100Y605500D02*
X781100D01*
Y602700D01*
X792100D01*
Y605500D01*
D02*
G37*
G36*
Y597700D02*
X781100D01*
Y594900D01*
X792100D01*
Y597700D01*
D02*
G37*
G36*
X776100D02*
X765100D01*
Y594900D01*
X776100D01*
Y597700D01*
D02*
G37*
G36*
X792100Y592800D02*
X781100D01*
Y590000D01*
X792100D01*
Y592800D01*
D02*
G37*
G36*
Y585000D02*
X781100D01*
Y582200D01*
X792100D01*
Y585000D01*
D02*
G37*
G36*
X792100Y580100D02*
X781100D01*
Y577300D01*
X792100D01*
Y580100D01*
D02*
G37*
G36*
X823706Y520860D02*
X814800D01*
Y499000D01*
X823706D01*
Y520860D01*
D02*
G37*
G36*
X835200D02*
X826294D01*
Y499000D01*
X835200D01*
Y520860D01*
D02*
G37*
G36*
X507650Y674200D02*
X502000D01*
Y668550D01*
X507650D01*
Y674200D01*
D02*
G37*
G36*
X470950D02*
X465300D01*
Y668550D01*
X470950D01*
Y674200D01*
D02*
G37*
G36*
X489300D02*
X483650D01*
Y668550D01*
X489300D01*
Y674200D01*
D02*
G37*
G36*
X478650D02*
X473000D01*
Y668550D01*
X478650D01*
Y674200D01*
D02*
G37*
G36*
X497000D02*
X491350D01*
Y668550D01*
X497000D01*
Y674200D01*
D02*
G37*
G36*
X460300D02*
X454650D01*
Y668550D01*
X460300D01*
Y674200D01*
D02*
G37*
G36*
X507650Y663550D02*
X502000D01*
Y657900D01*
X507650D01*
Y663550D01*
D02*
G37*
G36*
X497000D02*
X491350D01*
Y657900D01*
X497000D01*
Y663550D01*
D02*
G37*
G36*
X489300D02*
X483650D01*
Y657900D01*
X489300D01*
Y663550D01*
D02*
G37*
G36*
X478650D02*
X473000D01*
Y657900D01*
X478650D01*
Y663550D01*
D02*
G37*
G36*
X470950D02*
X465300D01*
Y657900D01*
X470950D01*
Y663550D01*
D02*
G37*
G36*
X460300D02*
X454650D01*
Y657900D01*
X460300D01*
Y663550D01*
D02*
G37*
G36*
X507650Y655850D02*
X502000D01*
Y650200D01*
X507650D01*
Y655850D01*
D02*
G37*
G36*
X470950D02*
X465300D01*
Y650200D01*
X470950D01*
Y655850D01*
D02*
G37*
G36*
X489300D02*
X483650D01*
Y650200D01*
X489300D01*
Y655850D01*
D02*
G37*
G36*
X478650D02*
X473000D01*
Y650200D01*
X478650D01*
Y655850D01*
D02*
G37*
G36*
X497000D02*
X491350D01*
Y650200D01*
X497000D01*
Y655850D01*
D02*
G37*
G36*
X460300D02*
X454650D01*
Y650200D01*
X460300D01*
Y655850D01*
D02*
G37*
G36*
X507650Y645200D02*
X502000D01*
Y639550D01*
X507650D01*
Y645200D01*
D02*
G37*
G36*
X497000D02*
X491350D01*
Y639550D01*
X497000D01*
Y645200D01*
D02*
G37*
G36*
X489300D02*
X483650D01*
Y639550D01*
X489300D01*
Y645200D01*
D02*
G37*
G36*
X478650D02*
X473000D01*
Y639550D01*
X478650D01*
Y645200D01*
D02*
G37*
G36*
X470950D02*
X465300D01*
Y639550D01*
X470950D01*
Y645200D01*
D02*
G37*
G36*
X460300D02*
X454650D01*
Y639550D01*
X460300D01*
Y645200D01*
D02*
G37*
G36*
X507650Y637500D02*
X502000D01*
Y631850D01*
X507650D01*
Y637500D01*
D02*
G37*
G36*
X470950D02*
X465300D01*
Y631850D01*
X470950D01*
Y637500D01*
D02*
G37*
G36*
X489300D02*
X483650D01*
Y631850D01*
X489300D01*
Y637500D01*
D02*
G37*
G36*
X478650D02*
X473000D01*
Y631850D01*
X478650D01*
Y637500D01*
D02*
G37*
G36*
X497000D02*
X491350D01*
Y631850D01*
X497000D01*
Y637500D01*
D02*
G37*
G36*
X460300D02*
X454650D01*
Y631850D01*
X460300D01*
Y637500D01*
D02*
G37*
G36*
X507650Y626850D02*
X502000D01*
Y621200D01*
X507650D01*
Y626850D01*
D02*
G37*
G36*
X497000D02*
X491350D01*
Y621200D01*
X497000D01*
Y626850D01*
D02*
G37*
G36*
X489300D02*
X483650D01*
Y621200D01*
X489300D01*
Y626850D01*
D02*
G37*
G36*
X478650D02*
X473000D01*
Y621200D01*
X478650D01*
Y626850D01*
D02*
G37*
G36*
X470950D02*
X465300D01*
Y621200D01*
X470950D01*
Y626850D01*
D02*
G37*
G36*
X460300D02*
X454650D01*
Y621200D01*
X460300D01*
Y626850D01*
D02*
G37*
G36*
X592750Y598050D02*
X583750D01*
Y594550D01*
X592750D01*
Y598050D01*
D02*
G37*
G36*
X578750D02*
X569750D01*
Y594550D01*
X578750D01*
Y598050D01*
D02*
G37*
G36*
X403650Y584200D02*
X400150D01*
Y575200D01*
X403650D01*
Y584200D01*
D02*
G37*
G36*
X382900Y567900D02*
X377900D01*
Y564400D01*
X382900D01*
Y567900D01*
D02*
G37*
G36*
X372900D02*
X367900D01*
Y564400D01*
X372900D01*
Y567900D01*
D02*
G37*
G36*
X363400D02*
X358400D01*
Y564400D01*
X363400D01*
Y567900D01*
D02*
G37*
G36*
X403650Y570200D02*
X400150D01*
Y561200D01*
X403650D01*
Y570200D01*
D02*
G37*
G36*
X382900Y559400D02*
X377900D01*
Y555900D01*
X382900D01*
Y559400D01*
D02*
G37*
G36*
X372900D02*
X367900D01*
Y555900D01*
X372900D01*
Y559400D01*
D02*
G37*
G36*
X363400Y559400D02*
X358400D01*
Y555900D01*
X363400D01*
Y559400D01*
D02*
G37*
G36*
X454800Y524075D02*
X451650D01*
Y521950D01*
X454800D01*
Y524075D01*
D02*
G37*
G36*
X403800Y529600D02*
X381800D01*
Y510600D01*
X388735D01*
Y509771D01*
X388993Y507813D01*
X389749Y505988D01*
X390951Y504422D01*
X393403Y501969D01*
X393445Y501812D01*
X394498Y499988D01*
X395988Y498498D01*
X397812Y497445D01*
X399847Y496900D01*
X401953D01*
X403988Y497445D01*
X405812Y498498D01*
X407302Y499988D01*
X408355Y501812D01*
X408900Y503847D01*
Y505953D01*
X408355Y507988D01*
X407302Y509812D01*
X405812Y511302D01*
X404996Y511773D01*
X403865Y512904D01*
Y513176D01*
X404700Y514100D01*
X405135Y514100D01*
X409700D01*
Y520100D01*
Y526100D01*
X405070D01*
X404700Y526100D01*
X403800Y526993D01*
Y529600D01*
D02*
G37*
G36*
X439200Y488500D02*
X434200D01*
Y485000D01*
X439200D01*
Y488500D01*
D02*
G37*
G36*
X429200D02*
X424200D01*
Y485000D01*
X429200D01*
Y488500D01*
D02*
G37*
G36*
X439200Y480000D02*
X434200D01*
Y476500D01*
X439200D01*
Y480000D01*
D02*
G37*
G36*
X429200D02*
X424200D01*
Y476500D01*
X429200D01*
Y480000D01*
D02*
G37*
G36*
X459900Y409100D02*
X454900D01*
Y405600D01*
X459900D01*
Y409100D01*
D02*
G37*
G36*
X449900D02*
X444900D01*
Y405600D01*
X449900D01*
Y409100D01*
D02*
G37*
G36*
X459900Y400600D02*
X454900D01*
Y397100D01*
X459900D01*
Y400600D01*
D02*
G37*
G36*
X449900D02*
X444900D01*
Y397100D01*
X449900D01*
Y400600D01*
D02*
G37*
G36*
X387900Y378837D02*
X387314Y378720D01*
X386574Y378226D01*
X386080Y377486D01*
X385906Y376613D01*
Y370000D01*
X387900D01*
Y378837D01*
D02*
G37*
G36*
X377000Y365100D02*
X372000D01*
Y361600D01*
X377000D01*
Y365100D01*
D02*
G37*
G36*
X367000D02*
X362000D01*
Y361600D01*
X367000D01*
Y365100D01*
D02*
G37*
G36*
X387900Y365000D02*
X385906D01*
Y358387D01*
X386080Y357514D01*
X386574Y356774D01*
X387314Y356280D01*
X387900Y356163D01*
Y365000D01*
D02*
G37*
G36*
X377000Y356600D02*
X372000D01*
Y353100D01*
X377000D01*
Y356600D01*
D02*
G37*
G36*
X367000D02*
X362000D01*
Y353100D01*
X367000D01*
Y356600D01*
D02*
G37*
G36*
X330900Y215300D02*
X295900D01*
Y180300D01*
X330900D01*
Y215300D01*
D02*
G37*
G36*
X609900Y414100D02*
X604900D01*
Y410600D01*
X609900D01*
Y414100D01*
D02*
G37*
G36*
X599900D02*
X594900D01*
Y410600D01*
X599900D01*
Y414100D01*
D02*
G37*
G36*
X609900Y405600D02*
X604900D01*
Y402100D01*
X609900D01*
Y405600D01*
D02*
G37*
G36*
X599900D02*
X594900D01*
Y402100D01*
X599900D01*
Y405600D01*
D02*
G37*
G36*
X611400Y347900D02*
X606400D01*
Y344400D01*
X611400D01*
Y347900D01*
D02*
G37*
G36*
X601400D02*
X596400D01*
Y344400D01*
X601400D01*
Y347900D01*
D02*
G37*
G36*
X611400Y339400D02*
X606400D01*
Y335900D01*
X611400D01*
Y339400D01*
D02*
G37*
G36*
X601400D02*
X596400D01*
Y335900D01*
X601400D01*
Y339400D01*
D02*
G37*
G36*
X439400Y323200D02*
X434400D01*
Y319700D01*
X439400D01*
Y323200D01*
D02*
G37*
G36*
Y314700D02*
X434400D01*
Y311200D01*
X439400D01*
Y314700D01*
D02*
G37*
G36*
X587500Y271700D02*
X582500D01*
Y268200D01*
X587500D01*
Y271700D01*
D02*
G37*
G36*
X479100Y329500D02*
X474100D01*
Y326000D01*
X479100D01*
Y329500D01*
D02*
G37*
G36*
Y321000D02*
X474100D01*
Y317500D01*
X479100D01*
Y321000D01*
D02*
G37*
G36*
X416200Y265900D02*
X412200D01*
Y259900D01*
X416200D01*
Y265900D01*
D02*
G37*
G36*
X407200D02*
X403200D01*
Y259900D01*
X407200D01*
Y265900D01*
D02*
G37*
G36*
X416200Y254900D02*
X412200D01*
Y248900D01*
X416200D01*
Y254900D01*
D02*
G37*
G36*
X407200D02*
X403200D01*
Y248900D01*
X407200D01*
Y254900D01*
D02*
G37*
%LPD*%
D10*
X23800Y868300D02*
X24000Y868100D01*
X895850Y545700D02*
X896000Y545850D01*
X877150Y548629D02*
Y558600D01*
Y548629D02*
X880079Y545700D01*
X895850D01*
X877150Y558600D02*
X878509Y559959D01*
X894500Y549529D02*
X896000Y548029D01*
Y545850D02*
Y548029D01*
X394577Y562691D02*
X397815Y565928D01*
X404150D02*
X406150Y567928D01*
X397815Y565928D02*
X404150D01*
X406150Y567928D02*
Y572700D01*
X394329Y561957D02*
X394577Y562205D01*
X319900Y483000D02*
X351300Y451600D01*
X319900Y667700D02*
X355400Y703200D01*
X319900Y483000D02*
Y667700D01*
X341000Y658500D02*
X365900Y683400D01*
X309300Y478300D02*
Y672400D01*
X330400Y663100D02*
X360600Y693300D01*
X341000Y493200D02*
Y658500D01*
X330400Y488100D02*
X356600Y461900D01*
X341000Y493200D02*
X362400Y471800D01*
X309300Y478300D02*
X346800Y440800D01*
X309300Y672400D02*
X349900Y713000D01*
X330400Y488100D02*
Y663100D01*
X635900Y471700D02*
Y507900D01*
X622900Y464300D02*
Y522300D01*
X548050Y559850D02*
X588100Y519800D01*
X601400D02*
X610300Y510900D01*
X588100Y519800D02*
X601400D01*
X610300Y453000D02*
Y510900D01*
Y453000D02*
X637800Y425500D01*
Y261100D02*
Y425500D01*
X576450Y413600D02*
Y438850D01*
X583300Y445700D02*
Y507700D01*
X576450Y438850D02*
X583300Y445700D01*
X577500Y513500D02*
X583300Y507700D01*
X597700Y446900D02*
X620300Y424300D01*
X597700Y446900D02*
Y504300D01*
X620300Y324400D02*
Y424300D01*
X547850Y562471D02*
X548050Y562271D01*
X547850Y562471D02*
Y570700D01*
X548050Y559850D02*
Y562271D01*
X567621Y552300D02*
X602100D01*
X560550Y559371D02*
Y570700D01*
Y559371D02*
X567621Y552300D01*
X456900Y592200D02*
Y602900D01*
Y592200D02*
X456925Y592175D01*
Y572725D02*
Y592175D01*
X422109Y637691D02*
X456900Y602900D01*
X456925Y572725D02*
X456950Y572700D01*
X444009Y592391D02*
X444225Y592175D01*
Y572725D02*
Y592175D01*
X417500Y626300D02*
X444009Y599791D01*
Y592391D02*
Y599791D01*
X444225Y572725D02*
X444250Y572700D01*
X406150Y742700D02*
X406168Y742718D01*
Y758596D01*
X406186Y758614D01*
X402200Y637500D02*
X402391Y637691D01*
X422109D01*
X355900Y603029D02*
X356500Y603629D01*
X355900Y582900D02*
Y603029D01*
X356500Y603629D02*
Y603900D01*
X371000Y359100D02*
X373000Y357100D01*
X369500Y359100D02*
X371000D01*
X375929Y350200D02*
X385400D01*
X635900Y471700D02*
X736100Y371500D01*
Y303300D02*
Y371500D01*
X710700Y303300D02*
Y376500D01*
X622900Y464300D02*
X710700Y376500D01*
X631900Y255200D02*
Y255200D01*
X637800Y261100D01*
X621400Y244700D02*
X631900Y255200D01*
X615300Y319400D02*
X620300Y324400D01*
X739500Y600100D02*
X739600Y600200D01*
X664500Y600000D02*
X664600Y600100D01*
X739500D01*
X810900Y564551D02*
Y715600D01*
X789400Y736900D02*
X789600D01*
X810900Y715600D01*
X669600Y737900D02*
X695900Y764200D01*
Y786700D01*
X669600Y692700D02*
Y737900D01*
X687300Y795300D02*
X695900Y786700D01*
X674500Y795300D02*
X687300D01*
X658900Y754300D02*
X674500Y769900D01*
X658900Y675900D02*
Y754300D01*
X570900Y769900D02*
X598300D01*
X572600Y795300D02*
X598300D01*
X561700Y761200D02*
X580100D01*
X558550Y758050D02*
X561700Y761200D01*
X617600Y602200D02*
Y723700D01*
X558550Y742700D02*
Y758050D01*
X580100Y761200D02*
X617600Y723700D01*
X673800Y661000D02*
X689700D01*
X658900Y675900D02*
X673800Y661000D01*
X662000Y610500D02*
Y657200D01*
X675500Y686800D02*
X689300D01*
X689700Y686400D01*
X669600Y692700D02*
X675500Y686800D01*
X752900Y831100D02*
X786500Y797500D01*
X690000Y846300D02*
X705200Y831100D01*
X752900D01*
X566100Y513500D02*
Y528400D01*
X535150Y559350D02*
X566100Y528400D01*
X535150Y559350D02*
Y570700D01*
X605700Y572700D02*
X628500Y595500D01*
X605700Y572700D02*
X606100D01*
X571250D02*
X605700D01*
X649100Y594900D02*
X669200Y574800D01*
X649100Y594900D02*
Y613300D01*
X739600Y587500D02*
X739909Y587191D01*
X739550Y587550D02*
X739600Y587500D01*
X739909Y587191D02*
X758309D01*
X758500Y587000D01*
X740401Y553729D02*
X761500Y532630D01*
X739600Y561601D02*
Y562100D01*
Y561601D02*
X740401Y560800D01*
Y553729D02*
Y560800D01*
X665900Y562100D02*
X739600D01*
X752900Y573500D02*
X759200Y567200D01*
X740900Y573500D02*
X752900D01*
X759200Y557100D02*
Y567200D01*
Y557100D02*
X782760Y533540D01*
X669200Y574800D02*
X739600D01*
X649100Y613300D02*
Y830800D01*
X638600Y70800D02*
Y94100D01*
X676700Y70800D02*
Y197800D01*
X714800Y70800D02*
Y197800D01*
X542000Y70800D02*
Y94100D01*
X503900Y70800D02*
Y94100D01*
X542000Y174500D02*
Y197800D01*
X638600Y174500D02*
Y197800D01*
X600500Y70800D02*
Y94100D01*
X791000Y70800D02*
Y94100D01*
Y174500D02*
Y197800D01*
X867200Y174500D02*
Y197800D01*
Y70800D02*
Y94100D01*
X877371Y831500D02*
X887500D01*
X876771Y832100D02*
X877371Y831500D01*
X876500Y832100D02*
X876771D01*
X563000Y870871D02*
Y871700D01*
X484900Y157700D02*
Y214100D01*
X493600Y222800D01*
X510400D02*
X523229Y235629D01*
X493600Y222800D02*
X510400D01*
X523250Y242700D02*
X525250Y244700D01*
X523229Y235629D02*
Y242700D01*
X523250D01*
X532515Y221800D02*
X551500D01*
X523000Y157500D02*
Y212285D01*
X532515Y221800D01*
X551500D02*
X566400Y236700D01*
X590000Y244700D02*
X621400D01*
X568300D02*
X590000D01*
X566400Y236700D02*
Y242800D01*
X568300Y244700D01*
X548275D02*
X558775Y255200D01*
X525250Y244700D02*
X546775D01*
X600300Y255200D02*
X619300Y274200D01*
X558775Y255200D02*
X600300D01*
X546775Y244700D02*
X548275D01*
X590000Y282229D02*
X593964Y286193D01*
Y286464D01*
X590000Y265700D02*
Y282229D01*
X810900Y564551D02*
X853606Y521845D01*
X800729Y612900D02*
X801629Y612000D01*
X801900D01*
X778600Y612900D02*
X800729D01*
X599450Y319400D02*
X615300D01*
X582200Y336650D02*
X599450Y319400D01*
X465800Y100300D02*
X523000Y157500D01*
X465800Y70800D02*
Y100300D01*
X458559Y871700D02*
X461400D01*
X537600D02*
X563000D01*
X512200D02*
X537600D01*
X486800D02*
X512200D01*
X461400D02*
X486800D01*
X576450Y375500D02*
X592829D01*
X593129Y375200D01*
X593400D01*
X853606Y471155D02*
Y521845D01*
X850091Y467640D02*
X853606Y471155D01*
X723709Y467640D02*
X850091D01*
X720194Y471155D02*
X723709Y467640D01*
X720194Y471155D02*
Y474052D01*
X710700Y483546D02*
X720194Y474052D01*
X710700Y483546D02*
Y506500D01*
X782760Y510640D02*
Y533540D01*
Y510640D02*
X786900Y506500D01*
X823300Y678700D02*
X832700Y688100D01*
X823300Y678600D02*
Y678700D01*
X832700Y688100D02*
X844800D01*
X512200Y828600D02*
Y846300D01*
Y828600D02*
X570900Y769900D01*
X537600Y830300D02*
Y846300D01*
Y830300D02*
X572600Y795300D01*
X507837Y725137D02*
Y742787D01*
X558550Y742700D02*
X560550Y744700D01*
X551300Y765300D02*
X558550Y758050D01*
X540300Y765300D02*
X551300D01*
X638900Y589100D02*
Y846000D01*
X600725Y702225D02*
X600800Y702300D01*
X581325Y702225D02*
X600725D01*
X613800Y846300D02*
X628500Y831600D01*
X581250Y702150D02*
X581325Y702225D01*
X602100Y552300D02*
X638900Y589100D01*
X649100Y830800D02*
X664600Y846300D01*
X628500Y595500D02*
Y831600D01*
X638900Y589100D02*
X665900Y562100D01*
X638900Y846000D02*
X639200Y846300D01*
X608575Y613225D02*
X608600Y613200D01*
X581275Y613225D02*
X608575D01*
X581250Y613250D02*
X581275Y613225D01*
X571250Y742700D02*
Y748200D01*
X572750Y749700D01*
X778600Y562100D02*
X786800D01*
X788100Y560800D01*
Y552771D02*
Y560800D01*
Y552771D02*
X789000Y551871D01*
Y551600D02*
Y551871D01*
X761500Y506500D02*
Y532630D01*
X739600Y574800D02*
X740900Y573500D01*
X835800Y831500D02*
X853500D01*
X821600Y724800D02*
X830900Y734100D01*
X844800D01*
X786500Y797500D02*
X788000D01*
X790000Y795500D01*
Y794000D02*
Y795500D01*
X893100Y790129D02*
Y790400D01*
X893600Y779500D02*
Y789629D01*
X893100Y790129D02*
X893600Y789629D01*
X882050Y761650D02*
X893550D01*
X881900Y761800D02*
X882050Y761650D01*
X893550D02*
X893700Y761500D01*
X834600Y776400D02*
X834700Y776500D01*
X826700Y776400D02*
X834600D01*
X882644Y714992D02*
X883152Y715500D01*
X893800D01*
X809800Y753900D02*
X811300D01*
X824700Y767300D01*
Y774900D01*
X826200Y776400D01*
X826700D01*
X809800Y753900D02*
X810100Y754200D01*
X883200Y797100D02*
X893600Y807500D01*
X882900Y797100D02*
X883200D01*
X875000Y789200D02*
X882900Y797100D01*
X875000Y774600D02*
Y789200D01*
X862900Y764000D02*
X864400D01*
X875000Y774600D01*
X847150Y785450D02*
X862450D01*
X862900Y785000D01*
X846700Y785900D02*
X847150Y785450D01*
X809800Y774900D02*
X810400Y775500D01*
Y793400D02*
X811000Y794000D01*
X810400Y775500D02*
Y793400D01*
X811700Y794700D02*
X826000D01*
X826700Y795400D01*
X811000Y794000D02*
X811700Y794700D01*
X563500Y600400D02*
X563575Y600475D01*
X581175D02*
X581250Y600400D01*
X563575Y600475D02*
X581175D01*
X451600Y629350D02*
X462800D01*
X878509Y559959D02*
Y576009D01*
X878700Y576200D01*
X896000Y593500D02*
Y613350D01*
X878700Y576200D02*
X896000Y593500D01*
X778600Y574800D02*
Y587500D01*
Y574800D02*
X778600Y574800D01*
X778600Y587500D02*
Y600200D01*
Y612900D01*
X893500Y687800D02*
X893800Y687500D01*
X866100Y687800D02*
X893500D01*
X865800Y688100D02*
X866100Y687800D01*
X893400Y733800D02*
X893700Y733500D01*
X866100Y733800D02*
X893400D01*
X865800Y734100D02*
X866100Y733800D01*
X877050Y600500D02*
X877150Y600600D01*
X864500Y600500D02*
X877050D01*
X864400Y600400D02*
X864500Y600500D01*
X431600Y520100D02*
X431700Y520200D01*
Y527700D01*
X537100Y683400D02*
X566997Y713297D01*
X349900Y713000D02*
X521800D01*
X355400Y703200D02*
X527200D01*
X545850Y721850D01*
X521800Y713000D02*
X532322Y723522D01*
X360600Y693300D02*
X532400D01*
X365900Y683400D02*
X537100D01*
X532400Y693300D02*
X569250Y730150D01*
X470000Y369600D02*
Y380900D01*
X476900Y387800D01*
X519550D01*
X456800Y356400D02*
X470000Y369600D01*
X496000Y362700D02*
X519850D01*
X486600Y377300D02*
X487553D01*
X489553Y369147D02*
Y375300D01*
Y369147D02*
X496000Y362700D01*
X487553Y377300D02*
X489553Y375300D01*
X519550Y387800D02*
X519950Y388200D01*
X559085Y478285D02*
X564229Y483429D01*
X559085Y404815D02*
X559300Y404600D01*
X559085Y404815D02*
Y478285D01*
X564229Y490629D02*
X566100Y492500D01*
X564229Y483429D02*
Y490629D01*
X597150Y387550D02*
X597800Y386900D01*
X577100Y387550D02*
X597150D01*
X582200Y336650D02*
Y336650D01*
X581450Y337400D02*
X582200Y336650D01*
X576450Y337400D02*
X581450D01*
X566100Y513500D02*
X577500D01*
X545300Y504200D02*
Y513100D01*
X544900Y513500D02*
X545300Y513100D01*
X545850Y572700D02*
X547850Y570700D01*
X558550Y572700D02*
X560550Y570700D01*
X522450Y558750D02*
Y570700D01*
Y558750D02*
X544900Y536300D01*
X520625Y541825D02*
X530200Y532250D01*
Y513100D02*
Y532250D01*
X544900Y513500D02*
Y536300D01*
X507750Y572700D02*
X508300Y572150D01*
X519600Y541825D02*
Y543100D01*
X519500Y543200D02*
X519600Y543100D01*
X508300Y559500D02*
X519500Y548300D01*
Y543200D02*
Y548300D01*
X508300Y559500D02*
Y572150D01*
X558900Y404600D02*
X562600Y400900D01*
X543600Y492500D02*
X544600Y491500D01*
Y484200D02*
Y491500D01*
Y484200D02*
X550300Y478500D01*
Y355900D02*
Y478500D01*
Y355900D02*
X556100Y350100D01*
X433100Y542600D02*
Y571150D01*
X431600Y541100D02*
X433100Y542600D01*
X431550Y572700D02*
X433100Y571150D01*
X394577Y562205D02*
Y562691D01*
X375400Y561900D02*
X376300Y561000D01*
X379600Y548300D02*
Y548429D01*
X376300Y551729D02*
Y561000D01*
Y551729D02*
X379600Y548429D01*
X375400Y561900D02*
X375457Y561957D01*
X394329D01*
X396300Y509771D02*
Y518100D01*
Y509771D02*
X400900Y505171D01*
Y504900D02*
Y505171D01*
X392800Y520100D02*
X394300D01*
X396300Y518100D01*
X412150Y520150D02*
X412200Y520100D01*
X412150Y520150D02*
Y530050D01*
X412100Y530100D02*
X412150Y530050D01*
X439291Y367691D02*
X447391D01*
X428500Y367500D02*
X439100D01*
X439291Y367691D01*
X403100Y417000D02*
Y436637D01*
X403500Y437037D01*
Y437307D01*
X356600Y461900D02*
X402900D01*
X462800Y666050D02*
X481150D01*
X451600D02*
X462800D01*
X451600Y647700D02*
X462800D01*
X469600Y725000D02*
X469625Y725025D01*
Y742675D01*
X392800Y626300D02*
X417500D01*
X456800Y253900D02*
Y356400D01*
X438400Y279200D02*
X442000D01*
X438300Y279300D02*
X438400Y279200D01*
X419300Y279300D02*
X438300D01*
X377200Y279100D02*
X380800D01*
X380950Y279250D01*
X400050D01*
X370600Y231100D02*
X380600Y241100D01*
Y257900D02*
X380800Y258100D01*
X380600Y241100D02*
Y257900D01*
X456800Y253900D02*
X466000Y244700D01*
X482200D02*
X503725D01*
X466000D02*
X482200D01*
X504300Y375500D02*
X519950D01*
X504300Y375500D02*
X504300Y375500D01*
X379800Y367900D02*
X390000D01*
X519950Y375500D02*
X519950Y375500D01*
X390000Y367900D02*
X390400Y367500D01*
X427700Y100500D02*
X484900Y157700D01*
X427700Y70800D02*
Y100500D01*
X346800Y440800D02*
X382800D01*
X351300Y451600D02*
X416400D01*
X362400Y471800D02*
X415800D01*
X566997Y713297D02*
X579697D01*
X581250Y714850D01*
X539909Y779709D02*
X540100Y779900D01*
X462800Y629350D02*
X481150D01*
X457025Y742775D02*
Y759725D01*
X520450Y770750D02*
X529409Y779709D01*
X444125Y742825D02*
X444250Y742700D01*
X520450D02*
Y770750D01*
X456950Y742700D02*
X457025Y742775D01*
X481150Y666050D02*
X499500D01*
X418850Y742700D02*
Y758550D01*
X462800Y647700D02*
X481150D01*
X499500Y629350D02*
Y647700D01*
X444125Y742825D02*
Y770275D01*
X481150Y629350D02*
X499500D01*
X481150Y647700D02*
X499500D01*
Y666050D01*
X469625Y742675D02*
X469650Y742700D01*
X457025Y759725D02*
X457100Y759800D01*
X418850Y758550D02*
X418900Y758600D01*
X529409Y779709D02*
X539909D01*
X444000Y770400D02*
X444125Y770275D01*
X569250Y730150D02*
Y740700D01*
X571250Y742700D01*
X519950Y362800D02*
X520135Y362985D01*
X519850Y362700D02*
X519950Y362800D01*
X355900Y561900D02*
X375400D01*
X382800Y440800D02*
X390400Y433200D01*
Y417000D02*
Y433200D01*
X415800Y417000D02*
Y436700D01*
X507700Y742750D02*
Y768933D01*
Y742750D02*
X507750Y742700D01*
X507700Y768933D02*
X508567Y769800D01*
X498700Y471820D02*
X501629Y468891D01*
X498700Y471820D02*
Y483000D01*
X501629Y468891D02*
X506209D01*
X506400Y468700D01*
X457200Y468600D02*
X479400Y446400D01*
X486800D01*
X519600Y458600D02*
Y483000D01*
X489309Y457691D02*
X496609D01*
X496800Y457500D01*
X545850Y721850D02*
Y742700D01*
X532322Y723522D02*
Y741872D01*
X381829Y597700D02*
X412800D01*
X418850Y572700D02*
Y591650D01*
X412800Y597700D02*
X418850Y591650D01*
X532322Y741872D02*
X533150Y742700D01*
X376000Y583500D02*
Y591871D01*
X375400Y582900D02*
X376000Y583500D01*
X375400Y582900D02*
X375400D01*
X376000Y591871D02*
X381829Y597700D01*
X355900Y582900D02*
X375400D01*
X486800Y818800D02*
Y846300D01*
X494500Y743250D02*
Y811100D01*
X486800Y818800D02*
X494500Y811100D01*
X431550Y742700D02*
Y789050D01*
X461400Y818900D01*
Y846300D01*
X520135Y362985D02*
X531585D01*
X538200Y369600D01*
X503725Y290525D02*
X539282Y326082D01*
Y351482D01*
X574200Y311500D02*
Y324300D01*
X546775Y284075D02*
X574200Y311500D01*
X568300Y279300D02*
X584400Y295400D01*
Y315300D01*
X428500Y417000D02*
Y439500D01*
X416400Y451600D02*
X428500Y439500D01*
X600500Y174500D02*
Y197800D01*
X457200Y468600D02*
Y482800D01*
X477900Y469100D02*
X489309Y457691D01*
X477900Y469100D02*
Y482900D01*
X469775Y742825D02*
Y769675D01*
X494500Y743250D02*
X495050Y742700D01*
X465800Y174500D02*
Y197800D01*
X427700Y174500D02*
Y197800D01*
X389600Y174500D02*
Y197800D01*
X551100Y313900D02*
Y345100D01*
X525250Y288050D02*
X551100Y313900D01*
Y345100D02*
X556100Y350100D01*
X525250Y265700D02*
Y288050D01*
X503725Y265700D02*
Y290525D01*
X275300Y89500D02*
X312400Y126600D01*
X334100D01*
X370600Y163100D01*
X349950Y102550D02*
X408600Y161200D01*
X328350Y102550D02*
X349950D01*
X314400Y88600D02*
X328350Y102550D01*
X314400Y71800D02*
Y88600D01*
X313400Y70800D02*
X314400Y71800D01*
X275300Y70800D02*
Y89500D01*
X370600Y163100D02*
Y231100D01*
X408600Y161200D02*
Y218600D01*
X446800Y225500D02*
X466000Y244700D01*
X446800Y159200D02*
Y225500D01*
X389600Y70800D02*
Y102000D01*
X446800Y159200D01*
X503725Y244700D02*
X503725Y244700D01*
X576450Y388200D02*
X577100Y387550D01*
X576450Y388200D02*
X576450Y388200D01*
X535200Y428700D02*
X538200Y425700D01*
Y369600D02*
Y425700D01*
X562600Y400900D02*
X576450D01*
X546775Y265700D02*
Y284075D01*
X560700Y388200D02*
X576450D01*
X560700Y388200D02*
X560700Y388200D01*
X576350Y362700D02*
X576500Y362850D01*
X560200Y362600D02*
X560300Y362700D01*
X576350D01*
X447391Y367691D02*
X452400Y372700D01*
Y382100D01*
X491500Y344900D02*
X491800Y344600D01*
X472000Y344900D02*
X491500D01*
X471600Y344500D02*
X472000Y344900D01*
X491800Y306800D02*
Y323600D01*
X482200Y297200D02*
X491800Y306800D01*
X482200Y265700D02*
Y297200D01*
X556100Y350100D02*
X576450D01*
X568300Y265700D02*
Y279300D01*
X491200Y324500D02*
X502050D01*
X507150Y349350D02*
X519200D01*
X491800Y344600D02*
X502400D01*
X507150Y349350D01*
X519200D02*
X519950Y350100D01*
X502050Y324500D02*
X514950Y337400D01*
X519950D01*
Y350100D02*
X520700Y349350D01*
X603150Y362850D02*
X603200Y362900D01*
X576500Y362850D02*
X603150D01*
X535200Y428700D02*
Y439700D01*
X519950Y400900D02*
Y413600D01*
Y432450D01*
X514200Y438200D02*
X519950Y432450D01*
X514200Y438200D02*
Y439700D01*
X533150Y572700D02*
X535150Y570700D01*
X520450Y572700D02*
X522450Y570700D01*
X420200Y338200D02*
X441900D01*
X395800Y873100D02*
Y888600D01*
X375450Y873250D02*
Y888650D01*
X375500Y888700D01*
X375400Y873200D02*
X375450Y873250D01*
X395700Y834500D02*
X395750Y834550D01*
Y852050D02*
X395800Y852100D01*
X395750Y834550D02*
Y852050D01*
X375450Y834550D02*
Y852150D01*
X375400Y852200D02*
X375450Y852150D01*
Y834550D02*
X375500Y834500D01*
X284800Y813300D02*
X344700Y873200D01*
X375400D01*
X408600Y218600D02*
X438500Y248500D01*
Y256200D01*
X440500Y258200D02*
X442000D01*
X438500Y256200D02*
X440500Y258200D01*
X398700Y339200D02*
X403100Y343600D01*
X420100Y338100D02*
Y339600D01*
X415800Y343900D02*
X420100Y339600D01*
X398700Y337700D02*
Y339200D01*
X415800Y343900D02*
Y367500D01*
X403100Y343600D02*
Y367500D01*
X419200Y279400D02*
X419300Y279300D01*
X400050Y279250D02*
X400200Y279400D01*
X369500Y338100D02*
X369900Y337700D01*
X398700D01*
X431700Y503500D02*
Y520000D01*
X431600Y520100D02*
X431700Y520000D01*
X431550Y541100D02*
X431575Y541125D01*
X412200Y541100D02*
X431550D01*
X431575Y541125D02*
X431600Y541100D01*
X392800D02*
X412200D01*
X495050Y558150D02*
Y572700D01*
Y558150D02*
X498600Y554600D01*
Y542875D02*
Y554600D01*
X482350Y558750D02*
Y572700D01*
X477800Y554200D02*
X482350Y558750D01*
X477800Y541725D02*
Y554200D01*
X457300Y541700D02*
X457525Y541925D01*
Y548025D01*
X468300Y558800D01*
Y571350D01*
X498600Y542875D02*
X501000Y540475D01*
X478400Y542150D02*
X488200Y532350D01*
X479400Y503900D02*
X488200Y512700D01*
Y532350D01*
X468300Y571350D02*
X469650Y572700D01*
X501000Y540300D02*
X509100Y532200D01*
X501000Y540300D02*
Y540475D01*
X509100Y512900D02*
Y532200D01*
X519600Y504000D02*
X521100D01*
X530200Y513100D01*
X498700Y504000D02*
X500200D01*
X509100Y512900D01*
X477900Y503900D02*
X479400D01*
X457200Y503800D02*
X458700D01*
X457900Y542125D02*
X467600Y532425D01*
Y512700D02*
Y532425D01*
X458700Y503800D02*
X467600Y512700D01*
X157400Y834900D02*
X166929Y844429D01*
X157400Y797000D02*
X167200Y787200D01*
X176500Y844429D02*
X183000Y850929D01*
X167200Y787200D02*
X182650D01*
X183000Y850929D02*
Y861700D01*
X166929Y844429D02*
X176500D01*
X157400Y797000D02*
Y834900D01*
X182650Y787200D02*
X182700Y787150D01*
X227650Y774450D02*
X230900Y777700D01*
X182700Y774450D02*
X227650D01*
X230900Y777700D02*
X239400D01*
Y756150D02*
Y776700D01*
X0Y900000D02*
X900000D01*
X0Y0D02*
X900000D01*
X0D02*
Y900000D01*
X900000D02*
X900000Y0D01*
D11*
X102300Y804100D02*
Y817200D01*
X116000Y756000D02*
X205050D01*
X95600Y320900D02*
X98750Y324050D01*
Y379050D02*
X101900Y382200D01*
X43200Y320900D02*
X95600D01*
X105800Y766200D02*
X116000Y756000D01*
X98750Y324050D02*
Y379050D01*
X24000Y868100D02*
X48600D01*
X752000Y707900D02*
Y720100D01*
X737900Y734200D02*
X752000Y720100D01*
X697400Y734200D02*
X737900D01*
X689700Y726500D02*
X697400Y734200D01*
X689700Y711800D02*
Y726500D01*
X284800Y727250D02*
X320850D01*
X320900Y727200D01*
X133000Y868300D02*
X137000Y864300D01*
X84300Y868300D02*
X133000D01*
X137000Y861700D02*
Y864300D01*
X169600Y32100D02*
X180800Y20900D01*
X284800Y787750D02*
Y814800D01*
X742700Y251900D02*
X757300D01*
X786900Y303300D02*
X812300D01*
X107900Y86200D02*
X114108Y92408D01*
X107900Y71000D02*
Y86200D01*
X107700Y70800D02*
X107900Y71000D01*
X69600Y70800D02*
X108300Y32100D01*
X114108Y92408D02*
X137492D01*
X145200Y84700D01*
X148875Y81025D01*
X206000Y61800D02*
X218200D01*
X193700D02*
X206000D01*
X181200D02*
X193700D01*
X152550Y77350D02*
X159900Y70000D01*
X148875Y81025D02*
X152550Y77350D01*
X168400Y61800D02*
X181200D01*
X168000D02*
X168400D01*
X389600Y174500D02*
X389600Y174500D01*
X786900Y252300D02*
Y303300D01*
X220700Y830100D02*
X269500D01*
X284800Y814800D01*
X159900Y69900D02*
Y70000D01*
X148875Y81025D02*
X148875D01*
X159900Y69900D02*
X168000Y61800D01*
X191000Y336300D02*
X244400D01*
X175600Y320900D02*
X191000Y336300D01*
X161900Y334600D02*
X176100Y320400D01*
X161900Y334600D02*
Y382200D01*
X180800Y20900D02*
X212400D01*
X219357Y27857D01*
X231657D01*
X242400Y38600D01*
Y184700D01*
X181200Y245900D02*
X242400Y184700D01*
X198600Y107100D02*
X212400Y120900D01*
X169600Y107100D02*
X198600D01*
X215375Y123875D02*
X216725D01*
X108300Y32100D02*
X169600D01*
X31500Y111600D02*
X79400Y159500D01*
X164650D01*
X31500Y70800D02*
Y111600D01*
X95600Y250900D02*
X124500D01*
X206900Y168500D02*
X208000D01*
X213750Y162750D01*
Y159500D02*
Y162750D01*
X124500Y250900D02*
X206900Y168500D01*
X213750Y159500D02*
X216725Y156525D01*
X14900Y817200D02*
X30700D01*
X240800Y759250D02*
X256800D01*
X175600Y250900D02*
X180600Y245900D01*
X181200D01*
X15266Y765834D02*
X41354D01*
X14900Y766200D02*
X15266Y765834D01*
X25100Y339000D02*
X43200Y320900D01*
X205050Y735050D02*
X221900Y718200D01*
X205050Y735050D02*
Y756000D01*
X102300Y766200D02*
X105800D01*
X239550Y758000D02*
X240800Y759250D01*
X239400Y756150D02*
X239550Y756000D01*
X216725Y123875D02*
Y156525D01*
D29*
X602400Y387100D02*
D03*
Y408100D02*
D03*
X498700Y504000D02*
D03*
Y483000D02*
D03*
X457200Y503800D02*
D03*
Y482800D02*
D03*
X544900Y492500D02*
D03*
Y513500D02*
D03*
X603900Y362900D02*
D03*
Y341900D02*
D03*
X590000Y244700D02*
D03*
Y265700D02*
D03*
X568300D02*
D03*
Y244700D02*
D03*
X546775Y265700D02*
D03*
Y244700D02*
D03*
X525250Y265700D02*
D03*
Y244700D02*
D03*
X503725Y265700D02*
D03*
Y244700D02*
D03*
X482200Y244700D02*
D03*
Y265700D02*
D03*
X491800Y323600D02*
D03*
Y344600D02*
D03*
X471600Y344500D02*
D03*
Y323500D02*
D03*
X486600Y398300D02*
D03*
Y377300D02*
D03*
X452400Y403100D02*
D03*
Y382100D02*
D03*
X438400Y279200D02*
D03*
Y258200D02*
D03*
X862900Y764000D02*
D03*
Y785000D02*
D03*
X507800Y790800D02*
D03*
Y769800D02*
D03*
X469900Y790800D02*
D03*
Y769800D02*
D03*
X395800Y852100D02*
D03*
Y873100D02*
D03*
X375400Y852200D02*
D03*
Y873200D02*
D03*
X369500Y359100D02*
D03*
Y338100D02*
D03*
X380800Y258100D02*
D03*
Y279100D02*
D03*
X441900Y338200D02*
D03*
Y317200D02*
D03*
X519600Y504000D02*
D03*
Y483000D02*
D03*
X477900Y482900D02*
D03*
Y503900D02*
D03*
X566100Y513500D02*
D03*
Y492500D02*
D03*
X431600Y541100D02*
D03*
Y520100D02*
D03*
X392800D02*
D03*
Y541100D02*
D03*
X431700Y503500D02*
D03*
Y482500D02*
D03*
X412200Y541100D02*
D03*
Y520100D02*
D03*
X355900Y582900D02*
D03*
Y561900D02*
D03*
X375400Y582900D02*
D03*
Y561900D02*
D03*
X809800Y753900D02*
D03*
Y774900D02*
D03*
D30*
X498600Y519600D02*
D03*
Y541850D02*
D03*
X477800Y519475D02*
D03*
Y541725D02*
D03*
X519600Y541825D02*
D03*
Y519575D02*
D03*
X457300Y541700D02*
D03*
Y519450D02*
D03*
D31*
X514200Y439700D02*
D03*
X535200D02*
D03*
X865800Y688100D02*
D03*
X844800D02*
D03*
X811000Y794000D02*
D03*
X790000D02*
D03*
X865800Y734100D02*
D03*
X844800D02*
D03*
X399100Y338100D02*
D03*
X420100D02*
D03*
D32*
X428500Y417000D02*
D03*
X415800D02*
D03*
X403100D02*
D03*
X390400D02*
D03*
Y367500D02*
D03*
X403100D02*
D03*
X415800D02*
D03*
X428500D02*
D03*
D33*
X213750Y159500D02*
D03*
X164650D02*
D03*
D34*
X757700Y252300D02*
D03*
X786900D02*
D03*
D35*
X739600Y612900D02*
D03*
X739600Y600200D02*
D03*
Y587500D02*
D03*
Y574800D02*
D03*
X778600Y574800D02*
D03*
X778600Y587500D02*
D03*
Y600200D02*
D03*
Y612900D02*
D03*
X739600Y562100D02*
D03*
X778600D02*
D03*
D36*
X893600Y807500D02*
D03*
Y779500D02*
D03*
X893700Y733500D02*
D03*
Y761500D02*
D03*
X893800Y687500D02*
D03*
Y715500D02*
D03*
D37*
X887500Y831500D02*
D03*
X853500D02*
D03*
D38*
X395700Y815500D02*
D03*
Y834500D02*
D03*
X375500Y815500D02*
D03*
Y834500D02*
D03*
D39*
X499500Y666050D02*
D03*
Y647700D02*
D03*
Y629350D02*
D03*
X481150D02*
D03*
X462800D02*
D03*
Y647700D02*
D03*
Y666050D02*
D03*
X481150D02*
D03*
Y647700D02*
D03*
D40*
X406150Y742700D02*
D03*
X418850D02*
D03*
X431550D02*
D03*
X444250D02*
D03*
X456950D02*
D03*
X469650D02*
D03*
X482350D02*
D03*
X495050D02*
D03*
X507750D02*
D03*
X520450D02*
D03*
X533150D02*
D03*
X545850D02*
D03*
X558550D02*
D03*
X571250D02*
D03*
Y572700D02*
D03*
X558550D02*
D03*
X545850D02*
D03*
X533150D02*
D03*
X520450D02*
D03*
X507750D02*
D03*
X495050D02*
D03*
X482350D02*
D03*
X469650D02*
D03*
X456950D02*
D03*
X444250D02*
D03*
X431550D02*
D03*
X418850D02*
D03*
X406150D02*
D03*
D41*
X581250Y714850D02*
D03*
Y702150D02*
D03*
Y689450D02*
D03*
Y676750D02*
D03*
Y664050D02*
D03*
Y651350D02*
D03*
Y638650D02*
D03*
Y625950D02*
D03*
Y613250D02*
D03*
Y600550D02*
D03*
D42*
X576450Y337400D02*
D03*
Y350100D02*
D03*
Y362800D02*
D03*
Y375500D02*
D03*
Y388200D02*
D03*
Y400900D02*
D03*
Y413600D02*
D03*
X519950Y337400D02*
D03*
Y350100D02*
D03*
Y362800D02*
D03*
Y375500D02*
D03*
Y388200D02*
D03*
Y400900D02*
D03*
Y413600D02*
D03*
D43*
X419200Y279400D02*
D03*
X400200D02*
D03*
X409700Y257400D02*
D03*
D44*
X413700Y298350D02*
D03*
X405700Y316850D02*
D03*
Y298350D02*
D03*
X413700Y316850D02*
D03*
D45*
X877150Y558600D02*
D03*
Y600600D02*
D03*
D46*
X896000Y545850D02*
D03*
Y613350D02*
D03*
D47*
X826700Y795400D02*
D03*
Y776400D02*
D03*
X846700Y785900D02*
D03*
D48*
X207800Y798000D02*
D03*
Y791000D02*
D03*
D49*
X14900Y766200D02*
D03*
Y817200D02*
D03*
X102300Y766200D02*
D03*
Y817200D02*
D03*
D50*
X375500Y888700D02*
D03*
X395800D02*
D03*
D51*
X182700Y774450D02*
D03*
Y787150D02*
D03*
Y799850D02*
D03*
Y812550D02*
D03*
X128700D02*
D03*
Y799850D02*
D03*
Y787150D02*
D03*
Y774450D02*
D03*
D52*
X23800Y868300D02*
D03*
X84300D02*
D03*
D53*
X205050Y756000D02*
D03*
X239550D02*
D03*
D54*
X137000Y861700D02*
D03*
X183000D02*
D03*
D55*
X220700Y830100D02*
D03*
Y873100D02*
D03*
D56*
X239400Y777700D02*
D03*
X232900Y796700D02*
D03*
X245900D02*
D03*
D57*
X284800Y727250D02*
D03*
Y787750D02*
D03*
D94*
X689700Y711800D02*
D03*
D95*
X715100D02*
D03*
X715100Y686400D02*
D03*
X689700Y661000D02*
D03*
X715100D02*
D03*
X689700Y686400D02*
D03*
D99*
X169600Y107100D02*
D03*
D100*
Y32100D02*
D03*
D101*
X603900Y333700D02*
X608400Y329200D01*
X603900Y333700D02*
Y341900D01*
X395800Y873100D02*
X395900Y873000D01*
X410100D01*
X410200Y872900D01*
X519600Y519575D02*
Y528425D01*
X757300Y251900D02*
X757700Y252300D01*
X486000Y398600D02*
Y411623D01*
X603032Y408732D02*
Y418668D01*
X602400Y408100D02*
X603032Y408732D01*
X498600Y519600D02*
Y528450D01*
X477800Y519475D02*
Y528325D01*
X457300Y519450D02*
Y528300D01*
X409700Y246200D02*
Y257400D01*
X471600Y311700D02*
Y323500D01*
X418825Y572675D02*
X418850Y572700D01*
X207800Y798000D02*
X208800D01*
X202100D02*
X207800D01*
X440400Y414300D02*
X449324D01*
X431650Y468200D02*
Y482450D01*
X431700Y482500D01*
X449324Y414300D02*
X452400Y411223D01*
X441900Y306000D02*
Y317200D01*
X452400Y403100D02*
Y411223D01*
X469900Y790800D02*
Y802000D01*
X507800Y790800D02*
Y802000D01*
X220700Y873100D02*
X235700D01*
X375500Y815500D02*
X395700D01*
Y804300D02*
Y815500D01*
X420100Y338100D02*
X420200Y338200D01*
X170625Y799825D02*
X182675D01*
X170600Y799800D02*
X170625Y799825D01*
X182675D02*
X182700Y799850D01*
X399100Y336600D02*
Y338100D01*
X413700Y330200D02*
X420100Y336600D01*
Y338100D01*
X399100Y336600D02*
X405700Y330000D01*
X413700Y316850D02*
Y330200D01*
X405700Y316850D02*
Y330000D01*
Y286900D02*
Y298350D01*
X413700Y286900D02*
Y298350D01*
X400200Y281400D02*
X405700Y286900D01*
X413700Y286900D02*
X419200Y281400D01*
Y279400D02*
Y281400D01*
X400200Y279400D02*
Y281400D01*
X196912Y807888D02*
X200800Y811775D01*
Y851700D02*
X220700Y871600D01*
X200800Y811775D02*
Y851700D01*
X196912Y803188D02*
Y807888D01*
Y803188D02*
X202100Y798000D01*
X193500Y811300D02*
X196912Y807888D01*
X182700Y787150D02*
X202950D01*
X206800Y791000D02*
X207800D01*
X202950Y787150D02*
X206800Y791000D01*
X182700Y812550D02*
Y823700D01*
Y812550D02*
X183950Y811300D01*
X208800Y798000D02*
X218700Y807900D01*
X240700D01*
X244150Y804450D01*
Y798450D02*
X245900Y796700D01*
X244150Y798450D02*
Y804450D01*
X220700Y871600D02*
Y873100D01*
X128700Y812550D02*
Y822300D01*
Y774450D02*
Y787150D01*
Y799850D01*
Y812550D01*
X183950Y811300D02*
X193500D01*
D102*
X101900Y382200D02*
D03*
D103*
X161900D02*
D03*
X41900Y718200D02*
D03*
X221900D02*
D03*
D104*
X791000Y70800D02*
D03*
X867200D02*
D03*
X829100D02*
D03*
X867200Y197800D02*
D03*
X600500Y70800D02*
D03*
X752900D02*
D03*
X714800D02*
D03*
X676700D02*
D03*
X638600D02*
D03*
X600500Y197800D02*
D03*
X752900D02*
D03*
X714800D02*
D03*
X676700D02*
D03*
X638600D02*
D03*
X829100D02*
D03*
X791000D02*
D03*
X31500Y70800D02*
D03*
X107700D02*
D03*
X69600D02*
D03*
X31500Y197800D02*
D03*
X107700D02*
D03*
X69600D02*
D03*
X465800D02*
D03*
X503900D02*
D03*
X313400D02*
D03*
X351500D02*
D03*
X389600D02*
D03*
X427700D02*
D03*
X275300D02*
D03*
X313400Y70800D02*
D03*
X351500D02*
D03*
X389600D02*
D03*
X427700D02*
D03*
X275300D02*
D03*
X542000Y197800D02*
D03*
X503900Y70800D02*
D03*
X542000D02*
D03*
X465800D02*
D03*
D105*
X25100Y239000D02*
D03*
Y339000D02*
D03*
X244400Y236300D02*
D03*
Y336300D02*
D03*
X212400Y120900D02*
D03*
Y20900D02*
D03*
D106*
X837700Y496500D02*
D03*
X812300D02*
D03*
X786900D02*
D03*
X761500D02*
D03*
X736100D02*
D03*
X710700D02*
D03*
X837700Y313300D02*
D03*
X812300D02*
D03*
X786900D02*
D03*
X761500D02*
D03*
X736100D02*
D03*
X710700D02*
D03*
D107*
X619300Y299600D02*
D03*
D108*
Y274200D02*
D03*
D109*
X306400Y290000D02*
D03*
X861200Y252300D02*
D03*
X746200Y776400D02*
D03*
X350100Y772600D02*
D03*
D110*
X95600Y250900D02*
D03*
Y320900D02*
D03*
X175600D02*
D03*
Y250900D02*
D03*
D111*
X674500Y795300D02*
D03*
Y769900D02*
D03*
X598300Y795300D02*
D03*
Y769900D02*
D03*
D112*
X690000Y871700D02*
D03*
X664600D02*
D03*
X639200D02*
D03*
X613800D02*
D03*
X588400D02*
D03*
X563000D02*
D03*
X537600D02*
D03*
X512200D02*
D03*
X486800D02*
D03*
X461400D02*
D03*
X690000Y846300D02*
D03*
X664600D02*
D03*
X639200D02*
D03*
X613800D02*
D03*
X588400D02*
D03*
X563000D02*
D03*
X537600D02*
D03*
X512200D02*
D03*
X486800D02*
D03*
D113*
X461400D02*
D03*
D114*
X180700Y493400D02*
D03*
X181100Y530200D02*
D03*
X182300Y566700D02*
D03*
X181500Y602700D02*
D03*
X181900Y636000D02*
D03*
X181500Y667300D02*
D03*
X104600Y493200D02*
D03*
X105000Y530000D02*
D03*
X106200Y566500D02*
D03*
X105400Y602500D02*
D03*
X105800Y635800D02*
D03*
X105400Y667100D02*
D03*
X34100Y666700D02*
D03*
X34500Y635400D02*
D03*
X34100Y602100D02*
D03*
X34900Y566100D02*
D03*
X33700Y529600D02*
D03*
X33300Y492800D02*
D03*
X48600Y868100D02*
D03*
X752000Y707900D02*
D03*
X550300Y871700D02*
D03*
X524900D02*
D03*
X499500D02*
D03*
X474100D02*
D03*
X249600Y830100D02*
D03*
X326600Y855000D02*
D03*
X314750Y843250D02*
D03*
X302600Y830900D02*
D03*
X284800Y814800D02*
D03*
X269500Y830100D02*
D03*
X320900Y727200D02*
D03*
X113000Y868300D02*
D03*
X121500D02*
D03*
X104700D02*
D03*
X635900Y507900D02*
D03*
X622900Y522300D02*
D03*
X597700Y504300D02*
D03*
X456900Y592200D02*
D03*
X444200D02*
D03*
X406186Y758614D02*
D03*
X402200Y637500D02*
D03*
X356500Y603900D02*
D03*
X664500Y600000D02*
D03*
X789400Y736900D02*
D03*
X662000Y657200D02*
D03*
Y610500D02*
D03*
X649100Y613300D02*
D03*
X758500Y587000D02*
D03*
X638600Y94100D02*
D03*
X542000D02*
D03*
X503900D02*
D03*
X542000Y174500D02*
D03*
X638600D02*
D03*
X600500Y94100D02*
D03*
X791000D02*
D03*
X791000Y174500D02*
D03*
X867200D02*
D03*
X867200Y94100D02*
D03*
X876500Y832100D02*
D03*
X593964Y286464D02*
D03*
X801900Y612000D02*
D03*
X608400Y329200D02*
D03*
X410200Y872900D02*
D03*
X593400Y375200D02*
D03*
X823300Y678600D02*
D03*
X507812Y725113D02*
D03*
X600800Y702300D02*
D03*
X608600Y613200D02*
D03*
X617600Y602200D02*
D03*
X606100Y572700D02*
D03*
X572750Y749700D02*
D03*
X789000Y551600D02*
D03*
X835800Y831500D02*
D03*
X821600Y724800D02*
D03*
X893100Y790400D02*
D03*
X881900Y761800D02*
D03*
X834700Y776500D02*
D03*
X882644Y714992D02*
D03*
X563500Y600400D02*
D03*
X519600Y528425D02*
D03*
X451600Y629350D02*
D03*
X878700Y576200D02*
D03*
X864400Y600400D02*
D03*
X431700Y527700D02*
D03*
X742700Y251900D02*
D03*
X486000Y411623D02*
D03*
X603032Y418668D02*
D03*
X545300Y504200D02*
D03*
X559300Y404600D02*
D03*
X385400Y350200D02*
D03*
X379600Y548300D02*
D03*
X394386Y562014D02*
D03*
X400900Y504900D02*
D03*
X412100Y530100D02*
D03*
X439100Y367500D02*
D03*
X403500Y437307D02*
D03*
X402900Y461900D02*
D03*
X451600Y666050D02*
D03*
Y647700D02*
D03*
X469600Y725000D02*
D03*
X498600Y528450D02*
D03*
X477800Y528325D02*
D03*
X457300Y528300D02*
D03*
X409700Y246200D02*
D03*
X471600Y311700D02*
D03*
X504300Y375500D02*
D03*
X457100Y759800D02*
D03*
X415800Y471800D02*
D03*
X540100Y779900D02*
D03*
X418900Y758600D02*
D03*
X540100Y765300D02*
D03*
X444000Y770400D02*
D03*
X392800Y626300D02*
D03*
X138400Y91500D02*
D03*
X415800Y436700D02*
D03*
X440400Y414300D02*
D03*
X486800Y446400D02*
D03*
X519600Y458600D02*
D03*
X496800Y457500D02*
D03*
X431650Y468200D02*
D03*
X574200Y324300D02*
D03*
X584400Y315300D02*
D03*
X506400Y468700D02*
D03*
X600500Y174500D02*
D03*
X441900Y306000D02*
D03*
X539282Y351482D02*
D03*
X469900Y802000D02*
D03*
X507800D02*
D03*
X503900Y174500D02*
D03*
X465800D02*
D03*
X427700D02*
D03*
X389600D02*
D03*
X196912Y807888D02*
D03*
X235700Y873100D02*
D03*
X395700Y804300D02*
D03*
X560700Y388200D02*
D03*
X560200Y362600D02*
D03*
X170600Y799800D02*
D03*
X159900Y69900D02*
D03*
X152550Y77350D02*
D03*
X145200Y84700D02*
D03*
X181200Y61800D02*
D03*
X206000D02*
D03*
X193700D02*
D03*
X218200D02*
D03*
X168400D02*
D03*
X30700Y817200D02*
D03*
X41354Y765834D02*
D03*
X102300Y804100D02*
D03*
X128700Y822300D02*
D03*
X182700Y823700D02*
D03*
M02*
