G04*
G04 #@! TF.GenerationSoftware,Altium Limited,Altium Designer,21.0.9 (235)*
G04*
G04 Layer_Color=32896*
%FSLAX44Y44*%
%MOMM*%
G71*
G04*
G04 #@! TF.SameCoordinates,BD89840E-3130-4C23-AD2D-C5A835882CA8*
G04*
G04*
G04 #@! TF.FilePolarity,Positive*
G04*
G01*
G75*
%ADD11C,0.5000*%
G36*
X84532Y625835D02*
Y625509D01*
Y625183D01*
Y624858D01*
Y624532D01*
Y624206D01*
Y623880D01*
Y623554D01*
Y623228D01*
Y622903D01*
Y622577D01*
Y622251D01*
Y621925D01*
Y621599D01*
Y621273D01*
Y620948D01*
Y620622D01*
Y620296D01*
Y619970D01*
Y619644D01*
Y619318D01*
Y618993D01*
Y618667D01*
Y618341D01*
Y618015D01*
Y617689D01*
Y617363D01*
X75735D01*
Y617689D01*
Y618015D01*
Y618341D01*
Y618667D01*
Y618993D01*
Y619318D01*
Y619644D01*
Y619970D01*
Y620296D01*
Y620622D01*
Y620948D01*
Y621273D01*
Y621599D01*
Y621925D01*
Y622251D01*
Y622577D01*
Y622903D01*
Y623228D01*
Y623554D01*
Y623880D01*
Y624206D01*
Y624532D01*
Y624858D01*
Y625183D01*
Y625509D01*
Y625835D01*
Y626161D01*
X84532D01*
Y625835D01*
D02*
G37*
G36*
X60421D02*
Y625509D01*
Y625183D01*
Y624858D01*
Y624532D01*
Y624206D01*
Y623880D01*
Y623554D01*
Y623228D01*
Y622903D01*
Y622577D01*
Y622251D01*
Y621925D01*
Y621599D01*
Y621273D01*
Y620948D01*
Y620622D01*
Y620296D01*
Y619970D01*
Y619644D01*
Y619318D01*
Y618993D01*
Y618667D01*
Y618341D01*
Y618015D01*
Y617689D01*
Y617363D01*
X51623D01*
Y617689D01*
Y618015D01*
Y618341D01*
Y618667D01*
Y618993D01*
Y619318D01*
Y619644D01*
Y619970D01*
Y620296D01*
Y620622D01*
Y620948D01*
Y621273D01*
Y621599D01*
Y621925D01*
Y622251D01*
Y622577D01*
Y622903D01*
Y623228D01*
Y623554D01*
Y623880D01*
Y624206D01*
Y624532D01*
Y624858D01*
Y625183D01*
Y625509D01*
Y625835D01*
Y626161D01*
X60421D01*
Y625835D01*
D02*
G37*
G36*
X38264D02*
Y625509D01*
Y625183D01*
Y624858D01*
Y624532D01*
Y624206D01*
Y623880D01*
Y623554D01*
Y623228D01*
Y622903D01*
Y622577D01*
Y622251D01*
Y621925D01*
Y621599D01*
Y621273D01*
Y620948D01*
Y620622D01*
Y620296D01*
Y619970D01*
Y619644D01*
Y619318D01*
Y618993D01*
Y618667D01*
Y618341D01*
Y618015D01*
Y617689D01*
Y617363D01*
X34028D01*
Y617038D01*
X33377D01*
Y617363D01*
X29467D01*
Y617689D01*
Y618015D01*
Y618341D01*
Y618667D01*
Y618993D01*
Y619318D01*
Y619644D01*
Y619970D01*
Y620296D01*
Y620622D01*
Y620948D01*
Y621273D01*
Y621599D01*
Y621925D01*
Y622251D01*
Y622577D01*
Y622903D01*
Y623228D01*
Y623554D01*
Y623880D01*
Y624206D01*
Y624532D01*
Y624858D01*
Y625183D01*
Y625509D01*
Y625835D01*
Y626161D01*
X38264D01*
Y625835D01*
D02*
G37*
G36*
X48691Y617689D02*
Y617363D01*
Y617038D01*
X49016D01*
Y616712D01*
Y616386D01*
Y616060D01*
Y615734D01*
Y615408D01*
Y615083D01*
Y614757D01*
Y614431D01*
Y614105D01*
Y613779D01*
Y613453D01*
Y613128D01*
Y612802D01*
Y612476D01*
Y612150D01*
Y611824D01*
Y611498D01*
Y611173D01*
Y610847D01*
Y610521D01*
Y610195D01*
X48691D01*
Y609869D01*
Y609543D01*
X40219D01*
Y609218D01*
X39893D01*
Y609543D01*
Y609869D01*
Y610195D01*
Y610521D01*
Y610847D01*
Y611173D01*
Y611498D01*
Y611824D01*
Y612150D01*
Y612476D01*
Y612802D01*
Y613128D01*
Y613453D01*
Y613779D01*
Y614105D01*
Y614431D01*
Y614757D01*
Y615083D01*
Y615408D01*
Y615734D01*
Y616060D01*
Y616386D01*
Y616712D01*
Y617038D01*
Y617363D01*
Y617689D01*
Y618015D01*
X48691D01*
Y617689D01*
D02*
G37*
G36*
X75409Y616712D02*
Y616386D01*
Y616060D01*
Y615734D01*
Y615408D01*
Y615083D01*
Y614757D01*
Y614431D01*
Y614105D01*
Y613779D01*
Y613453D01*
Y613128D01*
Y612802D01*
Y612476D01*
Y612150D01*
Y611824D01*
Y611498D01*
Y611173D01*
Y610847D01*
Y610521D01*
Y610195D01*
Y609869D01*
Y609543D01*
Y609218D01*
Y608892D01*
Y608566D01*
Y608240D01*
X66612D01*
Y608566D01*
Y608892D01*
Y609218D01*
Y609543D01*
Y609869D01*
Y610195D01*
Y610521D01*
Y610847D01*
Y611173D01*
Y611498D01*
Y611824D01*
Y612150D01*
Y612476D01*
Y612802D01*
Y613128D01*
Y613453D01*
Y613779D01*
Y614105D01*
Y614431D01*
Y614757D01*
Y615083D01*
Y615408D01*
Y615734D01*
Y616060D01*
Y616386D01*
Y616712D01*
Y617038D01*
X75409D01*
Y616712D01*
D02*
G37*
G36*
X62702Y608892D02*
Y608566D01*
Y608240D01*
Y607914D01*
Y607588D01*
Y607262D01*
Y606937D01*
Y606611D01*
Y606285D01*
Y605959D01*
Y605633D01*
Y605308D01*
Y604982D01*
Y604656D01*
Y604330D01*
Y604004D01*
Y603678D01*
Y603353D01*
Y603027D01*
Y602701D01*
Y602375D01*
Y602049D01*
Y601723D01*
Y601398D01*
Y601072D01*
Y600746D01*
Y600420D01*
Y600094D01*
X62376D01*
Y600420D01*
X61398D01*
Y600094D01*
X61072D01*
Y600420D01*
X58466D01*
Y600094D01*
X58140D01*
Y600420D01*
X57162D01*
Y600094D01*
X56837D01*
Y600420D01*
X55207D01*
Y600094D01*
X54882D01*
Y600420D01*
X53904D01*
Y600746D01*
Y601072D01*
Y601398D01*
Y601723D01*
Y602049D01*
Y602375D01*
Y602701D01*
Y603027D01*
Y603353D01*
Y603678D01*
Y604004D01*
Y604330D01*
Y604656D01*
Y604982D01*
Y605308D01*
Y605633D01*
Y605959D01*
Y606285D01*
Y606611D01*
Y606937D01*
Y607262D01*
Y607588D01*
Y607914D01*
Y608240D01*
Y608566D01*
Y608892D01*
Y609218D01*
X62702D01*
Y608892D01*
D02*
G37*
G36*
X231158Y626161D02*
X232135D01*
Y625835D01*
X232461D01*
Y625509D01*
X232787D01*
Y625183D01*
Y624858D01*
Y624532D01*
Y624206D01*
X232461D01*
Y623880D01*
X232135D01*
Y623554D01*
Y623228D01*
Y622903D01*
X231809D01*
Y622577D01*
X231484D01*
Y622251D01*
Y621925D01*
X231158D01*
Y621599D01*
Y621273D01*
X230832D01*
Y620948D01*
X230506D01*
Y620622D01*
Y620296D01*
Y619970D01*
X230180D01*
Y619644D01*
X229854D01*
Y619318D01*
Y618993D01*
X229529D01*
Y618667D01*
X229854D01*
Y618341D01*
X229203D01*
Y618015D01*
X228877D01*
Y617689D01*
Y617363D01*
Y617038D01*
X228551D01*
Y616712D01*
X228225D01*
Y616386D01*
Y616060D01*
X227899D01*
Y615734D01*
Y615408D01*
Y615083D01*
X227574D01*
Y614757D01*
X227248D01*
Y614431D01*
Y614105D01*
X226922D01*
Y613779D01*
Y613453D01*
Y613128D01*
X226596D01*
Y612802D01*
Y612476D01*
X226270D01*
Y612150D01*
Y611824D01*
X225619D01*
Y611498D01*
Y611173D01*
Y610847D01*
X225293D01*
Y610521D01*
X224967D01*
Y610195D01*
Y609869D01*
Y609543D01*
X224641D01*
Y609218D01*
Y608892D01*
X224315D01*
Y608566D01*
X223989D01*
Y608240D01*
Y607914D01*
Y607588D01*
X223338D01*
Y607262D01*
Y606937D01*
Y606611D01*
Y606285D01*
X223012D01*
Y605959D01*
Y605633D01*
X222686D01*
Y605308D01*
X222360D01*
Y604982D01*
X222034D01*
Y604656D01*
Y604330D01*
Y604004D01*
X221709D01*
Y603678D01*
X221383D01*
Y603353D01*
Y603027D01*
Y602701D01*
X220731D01*
Y602375D01*
Y602049D01*
Y601723D01*
X220405D01*
Y601398D01*
Y601072D01*
Y600746D01*
X219754D01*
Y600420D01*
Y600094D01*
Y599768D01*
Y599442D01*
X219428D01*
Y599117D01*
X219102D01*
Y598791D01*
X218776D01*
Y598465D01*
Y598139D01*
X218450D01*
Y597813D01*
Y597487D01*
X218124D01*
Y597162D01*
Y596836D01*
Y596510D01*
X217473D01*
Y596184D01*
X217799D01*
Y595858D01*
X217473D01*
Y595532D01*
X217147D01*
Y595207D01*
Y594881D01*
X216821D01*
Y594555D01*
X216495D01*
Y594229D01*
Y593903D01*
X216169D01*
Y593577D01*
Y593252D01*
X215844D01*
Y592926D01*
Y592600D01*
Y592274D01*
X215518D01*
Y591948D01*
Y591623D01*
X214866D01*
Y591297D01*
Y590971D01*
Y590645D01*
X214540D01*
Y590319D01*
Y589993D01*
X214214D01*
Y589668D01*
Y589342D01*
X213889D01*
Y589016D01*
X213563D01*
Y588690D01*
Y588364D01*
X213237D01*
Y588038D01*
Y587713D01*
Y587387D01*
X212585D01*
Y587061D01*
Y586735D01*
Y586409D01*
X212259D01*
Y586083D01*
Y585757D01*
X211934D01*
Y585432D01*
Y585106D01*
X211608D01*
Y584780D01*
X211282D01*
Y584454D01*
Y584128D01*
X210956D01*
Y583802D01*
Y583477D01*
Y583151D01*
X210630D01*
Y582825D01*
Y582499D01*
X209979D01*
Y582173D01*
Y581847D01*
Y581522D01*
Y581196D01*
X209653D01*
Y580870D01*
X209327D01*
Y580544D01*
Y580218D01*
X209001D01*
Y579893D01*
X208675D01*
Y579567D01*
Y579241D01*
X208349D01*
Y578915D01*
Y578589D01*
Y578263D01*
X207698D01*
Y577938D01*
Y577612D01*
Y577286D01*
X207372D01*
Y576960D01*
X207046D01*
Y576634D01*
Y576308D01*
Y575983D01*
Y575657D01*
X206720D01*
Y575331D01*
X206394D01*
Y575005D01*
Y574679D01*
X206068D01*
Y574353D01*
Y574027D01*
X205743D01*
Y573702D01*
Y573376D01*
X205417D01*
Y573050D01*
Y572724D01*
X205091D01*
Y572398D01*
X204765D01*
Y572072D01*
X204439D01*
Y571747D01*
Y571421D01*
X204114D01*
Y571095D01*
Y570769D01*
Y570443D01*
X203788D01*
Y570117D01*
X203462D01*
Y569792D01*
Y569466D01*
Y569140D01*
X202810D01*
Y568814D01*
Y568488D01*
Y568162D01*
X202484D01*
Y567837D01*
Y567511D01*
X202159D01*
Y567185D01*
X201833D01*
Y566859D01*
X201507D01*
Y566533D01*
X201181D01*
Y566208D01*
X200529D01*
Y565882D01*
X200203D01*
Y565556D01*
X199226D01*
Y565230D01*
X180653D01*
Y565556D01*
X179676D01*
Y565882D01*
Y566208D01*
X179350D01*
Y566533D01*
Y566859D01*
X179024D01*
Y567185D01*
X178699D01*
Y567511D01*
Y567837D01*
Y568162D01*
X178373D01*
Y568488D01*
Y568814D01*
X178047D01*
Y569140D01*
X177721D01*
Y569466D01*
Y569792D01*
X177395D01*
Y570117D01*
Y570443D01*
X177069D01*
Y570769D01*
Y571095D01*
X176744D01*
Y571421D01*
Y571747D01*
X176418D01*
Y572072D01*
Y572398D01*
Y572724D01*
X176092D01*
Y573050D01*
X175766D01*
Y573376D01*
X175440D01*
Y573702D01*
Y574027D01*
X175114D01*
Y574353D01*
Y574679D01*
X174788D01*
Y575005D01*
X173811D01*
Y574679D01*
Y574353D01*
Y574027D01*
X173485D01*
Y573702D01*
X173159D01*
Y573376D01*
X172833D01*
Y573050D01*
X173159D01*
Y572724D01*
X172508D01*
Y572398D01*
Y572072D01*
Y571747D01*
X172182D01*
Y571421D01*
Y571095D01*
X171856D01*
Y570769D01*
X171530D01*
Y570443D01*
Y570117D01*
Y569792D01*
X171204D01*
Y569466D01*
Y569140D01*
X170879D01*
Y568814D01*
Y568488D01*
X170227D01*
Y568162D01*
Y567837D01*
Y567511D01*
X169901D01*
Y567185D01*
X169575D01*
Y566859D01*
Y566533D01*
X168923D01*
Y566208D01*
X168272D01*
Y565882D01*
X167946D01*
Y565556D01*
X167294D01*
Y565230D01*
X148070D01*
Y565556D01*
X147418D01*
Y565882D01*
Y566208D01*
Y566533D01*
X146767D01*
Y566859D01*
Y567185D01*
Y567511D01*
X146441D01*
Y567837D01*
Y568162D01*
X146115D01*
Y568488D01*
X145789D01*
Y568814D01*
Y569140D01*
Y569466D01*
X145463D01*
Y569792D01*
X145138D01*
Y570117D01*
Y570443D01*
X144812D01*
Y570769D01*
Y571095D01*
X144486D01*
Y571421D01*
X144160D01*
Y571747D01*
Y572072D01*
Y572398D01*
X143834D01*
Y572724D01*
Y573050D01*
Y573376D01*
X143183D01*
Y573702D01*
Y574027D01*
X142857D01*
Y574353D01*
Y574679D01*
X142531D01*
Y575005D01*
Y575331D01*
X142205D01*
Y575657D01*
Y575983D01*
Y576308D01*
X141553D01*
Y576634D01*
Y576960D01*
Y577286D01*
X141228D01*
Y577612D01*
X140902D01*
Y577938D01*
Y578263D01*
Y578589D01*
X140576D01*
Y578915D01*
X140250D01*
Y579241D01*
Y579567D01*
Y579893D01*
X139924D01*
Y580218D01*
Y580544D01*
X139273D01*
Y580870D01*
Y581196D01*
X138947D01*
Y581522D01*
Y581847D01*
X138621D01*
Y582173D01*
Y582499D01*
Y582825D01*
X138295D01*
Y583151D01*
Y583477D01*
X137969D01*
Y583802D01*
Y584128D01*
X137643D01*
Y584454D01*
Y584780D01*
X137318D01*
Y585106D01*
X136992D01*
Y585432D01*
Y585757D01*
X136666D01*
Y586083D01*
Y586409D01*
Y586735D01*
X136340D01*
Y587061D01*
X136014D01*
Y587387D01*
Y587713D01*
X135688D01*
Y588038D01*
Y588364D01*
X135363D01*
Y588690D01*
X135037D01*
Y589016D01*
Y589342D01*
Y589668D01*
X134711D01*
Y589993D01*
X134385D01*
Y590319D01*
Y590645D01*
Y590971D01*
X133733D01*
Y591297D01*
Y591623D01*
Y591948D01*
X133408D01*
Y592274D01*
Y592600D01*
X133082D01*
Y592926D01*
Y593252D01*
X132756D01*
Y593577D01*
Y593903D01*
X132430D01*
Y594229D01*
Y594555D01*
X132104D01*
Y594881D01*
X131778D01*
Y595207D01*
Y595532D01*
X131453D01*
Y595858D01*
X131127D01*
Y596184D01*
Y596510D01*
Y596836D01*
X130801D01*
Y597162D01*
Y597487D01*
X130475D01*
Y597813D01*
Y598139D01*
X130149D01*
Y598465D01*
Y598791D01*
Y599117D01*
X129497D01*
Y599442D01*
Y599768D01*
Y600094D01*
X129172D01*
Y600420D01*
X128846D01*
Y600746D01*
Y601072D01*
Y601398D01*
X128520D01*
Y601723D01*
X128194D01*
Y602049D01*
Y602375D01*
X127868D01*
Y602701D01*
Y603027D01*
X127542D01*
Y603353D01*
Y603678D01*
X126565D01*
Y603353D01*
X126239D01*
Y603027D01*
Y602701D01*
X125913D01*
Y602375D01*
Y602049D01*
X125588D01*
Y601723D01*
Y601398D01*
Y601072D01*
X125262D01*
Y600746D01*
Y600420D01*
X124936D01*
Y600094D01*
Y599768D01*
X124610D01*
Y599442D01*
X124284D01*
Y599117D01*
X123958D01*
Y598791D01*
X124284D01*
Y598465D01*
X123958D01*
Y598139D01*
X123632D01*
Y597813D01*
Y597487D01*
X123307D01*
Y597162D01*
Y596836D01*
X122981D01*
Y596510D01*
X122655D01*
Y596184D01*
Y595858D01*
Y595532D01*
X122003D01*
Y595207D01*
Y594881D01*
Y594555D01*
X121678D01*
Y594229D01*
Y593903D01*
X121352D01*
Y593577D01*
Y593252D01*
Y592926D01*
X121026D01*
Y592600D01*
X120700D01*
Y592274D01*
Y591948D01*
X120374D01*
Y591623D01*
Y591297D01*
X120048D01*
Y590971D01*
Y590645D01*
X119722D01*
Y590319D01*
X119397D01*
Y589993D01*
Y589668D01*
Y589342D01*
X119071D01*
Y589016D01*
X118745D01*
Y588690D01*
Y588364D01*
X118419D01*
Y588038D01*
Y587713D01*
X118093D01*
Y587387D01*
Y587061D01*
X117767D01*
Y586735D01*
Y586409D01*
Y586083D01*
X117116D01*
Y585757D01*
Y585432D01*
X116790D01*
Y585106D01*
Y584780D01*
Y584454D01*
X116464D01*
Y584128D01*
Y583802D01*
X115813D01*
Y583477D01*
Y583151D01*
Y582825D01*
X115487D01*
Y582499D01*
Y582173D01*
X115161D01*
Y581847D01*
Y581522D01*
X114835D01*
Y581196D01*
X114509D01*
Y580870D01*
Y580544D01*
X114183D01*
Y580218D01*
Y579893D01*
X113857D01*
Y579567D01*
Y579241D01*
X113532D01*
Y578915D01*
Y578589D01*
X113206D01*
Y578263D01*
X112880D01*
Y577938D01*
Y577612D01*
Y577286D01*
Y576960D01*
X112228D01*
Y576634D01*
Y576308D01*
Y575983D01*
X111577D01*
Y575657D01*
Y575331D01*
X111251D01*
Y575005D01*
X110925D01*
Y574679D01*
X110599D01*
Y574353D01*
Y574027D01*
X110273D01*
Y573702D01*
X109948D01*
Y573376D01*
X109622D01*
Y573050D01*
X109296D01*
Y572724D01*
X108644D01*
Y572398D01*
Y572072D01*
X108318D01*
Y571747D01*
X107992D01*
Y571421D01*
X107341D01*
Y571095D01*
X107015D01*
Y570769D01*
X106689D01*
Y570443D01*
X106363D01*
Y570117D01*
X105712D01*
Y569792D01*
X105060D01*
Y569466D01*
X104734D01*
Y569140D01*
X104082D01*
Y568814D01*
X103431D01*
Y568488D01*
X103105D01*
Y568162D01*
X102453D01*
Y567837D01*
X101802D01*
Y567511D01*
X100824D01*
Y567185D01*
X100173D01*
Y566859D01*
X99521D01*
Y566533D01*
X98543D01*
Y566208D01*
X96914D01*
Y565882D01*
X95937D01*
Y565556D01*
X94307D01*
Y565230D01*
X85836D01*
Y565556D01*
X85184D01*
Y565882D01*
X84858D01*
Y566208D01*
X84532D01*
Y566533D01*
Y566859D01*
Y567185D01*
Y567511D01*
Y567837D01*
X84858D01*
Y568162D01*
X85184D01*
Y568488D01*
X85510D01*
Y568814D01*
Y569140D01*
Y569466D01*
X85836D01*
Y569792D01*
Y570117D01*
X86488D01*
Y570443D01*
Y570769D01*
Y571095D01*
X86813D01*
Y571421D01*
X87139D01*
Y571747D01*
Y572072D01*
Y572398D01*
X87465D01*
Y572724D01*
Y573050D01*
X87791D01*
Y573376D01*
Y573702D01*
X88117D01*
Y574027D01*
X88442D01*
Y574353D01*
Y574679D01*
Y575005D01*
X88768D01*
Y575331D01*
X89094D01*
Y575657D01*
Y575983D01*
Y576308D01*
X89746D01*
Y576634D01*
Y576960D01*
Y577286D01*
X90072D01*
Y577612D01*
X90398D01*
Y577938D01*
Y578263D01*
X90723D01*
Y578589D01*
Y578915D01*
Y579241D01*
X91375D01*
Y579567D01*
Y579893D01*
Y580218D01*
X91701D01*
Y580544D01*
X92027D01*
Y580870D01*
Y581196D01*
Y581522D01*
X92353D01*
Y581847D01*
Y582173D01*
X92678D01*
Y582499D01*
Y582825D01*
X93004D01*
Y583151D01*
Y583477D01*
X93330D01*
Y583802D01*
Y584128D01*
X93656D01*
Y584454D01*
X93982D01*
Y584780D01*
X94307D01*
Y585106D01*
X93982D01*
Y585432D01*
X94307D01*
Y585757D01*
Y586083D01*
X94959D01*
Y586409D01*
Y586735D01*
Y587061D01*
Y587387D01*
X95611D01*
Y587713D01*
Y588038D01*
Y588364D01*
Y588690D01*
X96263D01*
Y589016D01*
Y589342D01*
X96588D01*
Y589668D01*
Y589993D01*
Y590319D01*
X96914D01*
Y590645D01*
X97240D01*
Y590971D01*
Y591297D01*
X97566D01*
Y591623D01*
Y591948D01*
X97892D01*
Y592274D01*
Y592600D01*
X98217D01*
Y592926D01*
Y593252D01*
X98543D01*
Y593577D01*
X98869D01*
Y593903D01*
Y594229D01*
X99195D01*
Y594555D01*
Y594881D01*
X99521D01*
Y595207D01*
Y595532D01*
X99847D01*
Y595858D01*
Y596184D01*
X100173D01*
Y596510D01*
X100498D01*
Y596836D01*
Y597162D01*
Y597487D01*
X100824D01*
Y597813D01*
Y598139D01*
Y598465D01*
Y598791D01*
Y599117D01*
X100498D01*
Y599442D01*
Y599768D01*
X100173D01*
Y600094D01*
Y600420D01*
X99847D01*
Y600746D01*
Y601072D01*
X99521D01*
Y601398D01*
Y601723D01*
X99195D01*
Y602049D01*
Y602375D01*
X98869D01*
Y602701D01*
Y603027D01*
X98543D01*
Y603353D01*
Y603678D01*
Y604004D01*
X98217D01*
Y604330D01*
X97892D01*
Y604656D01*
X97566D01*
Y604982D01*
X97892D01*
Y605308D01*
X97566D01*
Y605633D01*
X97240D01*
Y605959D01*
Y606285D01*
X96914D01*
Y606611D01*
Y606937D01*
Y607262D01*
X95937D01*
Y606937D01*
Y606611D01*
X95611D01*
Y606285D01*
X95285D01*
Y605959D01*
Y605633D01*
Y605308D01*
X94959D01*
Y604982D01*
Y604656D01*
X94307D01*
Y604330D01*
Y604004D01*
Y603678D01*
X93982D01*
Y603353D01*
X93656D01*
Y603027D01*
Y602701D01*
Y602375D01*
X93330D01*
Y602049D01*
X93004D01*
Y601723D01*
Y601398D01*
Y601072D01*
X92678D01*
Y600746D01*
X92353D01*
Y600420D01*
Y600094D01*
Y599768D01*
Y599442D01*
X91701D01*
Y599117D01*
Y598791D01*
Y598465D01*
X91375D01*
Y598139D01*
X91049D01*
Y597813D01*
X90723D01*
Y597487D01*
X91049D01*
Y597162D01*
X90723D01*
Y596836D01*
X90398D01*
Y596510D01*
X90072D01*
Y596184D01*
Y595858D01*
Y595532D01*
X89746D01*
Y595207D01*
X89420D01*
Y594881D01*
Y594555D01*
X89094D01*
Y594229D01*
X88768D01*
Y593903D01*
Y593577D01*
Y593252D01*
Y592926D01*
Y592600D01*
X88117D01*
Y592274D01*
Y591948D01*
X87791D01*
Y591623D01*
Y591297D01*
X87465D01*
Y590971D01*
X87139D01*
Y590645D01*
X87465D01*
Y590319D01*
X86813D01*
Y589993D01*
Y589668D01*
Y589342D01*
X86488D01*
Y589016D01*
X86162D01*
Y588690D01*
X85836D01*
Y588364D01*
Y588038D01*
Y587713D01*
X85510D01*
Y587387D01*
X85184D01*
Y587061D01*
Y586735D01*
Y586409D01*
Y586083D01*
X84532D01*
Y585757D01*
Y585432D01*
Y585106D01*
X84207D01*
Y584780D01*
X83881D01*
Y584454D01*
Y584128D01*
X83555D01*
Y583802D01*
Y583477D01*
X83229D01*
Y583151D01*
Y582825D01*
Y582499D01*
X82577D01*
Y582173D01*
Y581847D01*
Y581522D01*
X82252D01*
Y581196D01*
X81926D01*
Y580870D01*
Y580544D01*
Y580218D01*
X81600D01*
Y579893D01*
X81274D01*
Y579567D01*
Y579241D01*
X80948D01*
Y578915D01*
Y578589D01*
X80622D01*
Y578263D01*
X80297D01*
Y577938D01*
Y577612D01*
Y577286D01*
Y576960D01*
X79971D01*
Y576634D01*
X79645D01*
Y576308D01*
Y575983D01*
X78993D01*
Y575657D01*
Y575331D01*
Y575005D01*
X78667D01*
Y574679D01*
X78342D01*
Y574353D01*
X78016D01*
Y574027D01*
X77690D01*
Y573702D01*
X77364D01*
Y573376D01*
X77038D01*
Y573050D01*
X76712D01*
Y572724D01*
X76387D01*
Y572398D01*
X76061D01*
Y572072D01*
X75735D01*
Y571747D01*
X75409D01*
Y571421D01*
X75083D01*
Y571095D01*
X74432D01*
Y570769D01*
X74106D01*
Y570443D01*
X73780D01*
Y570117D01*
X73128D01*
Y569792D01*
X72477D01*
Y569466D01*
X72151D01*
Y569140D01*
X71825D01*
Y568814D01*
X71173D01*
Y568488D01*
X70522D01*
Y568162D01*
X69870D01*
Y567837D01*
X69218D01*
Y567511D01*
X68241D01*
Y567185D01*
X67915D01*
Y566859D01*
X66937D01*
Y566533D01*
X65960D01*
Y566208D01*
X64331D01*
Y565882D01*
X63679D01*
Y565556D01*
X61724D01*
Y565230D01*
X53252D01*
Y565556D01*
X52601D01*
Y565882D01*
X52275D01*
Y566208D01*
Y566533D01*
X51949D01*
Y566859D01*
X52275D01*
Y567185D01*
Y567511D01*
Y567837D01*
X52601D01*
Y568162D01*
Y568488D01*
Y568814D01*
X53252D01*
Y569140D01*
X52927D01*
Y569466D01*
X53252D01*
Y569792D01*
X53578D01*
Y570117D01*
X53904D01*
Y570443D01*
Y570769D01*
Y571095D01*
X54230D01*
Y571421D01*
Y571747D01*
Y572072D01*
X54882D01*
Y572398D01*
Y572724D01*
Y573050D01*
X55207D01*
Y573376D01*
Y573702D01*
X55533D01*
Y574027D01*
X55859D01*
Y574353D01*
Y574679D01*
Y575005D01*
X56185D01*
Y575331D01*
X56511D01*
Y575657D01*
Y575983D01*
X56837D01*
Y576308D01*
X57162D01*
Y576634D01*
Y576960D01*
Y577286D01*
X57488D01*
Y577612D01*
X57814D01*
Y577938D01*
Y578263D01*
X58140D01*
Y578589D01*
Y578915D01*
Y579241D01*
X58466D01*
Y579567D01*
X58792D01*
Y579893D01*
Y580218D01*
X59117D01*
Y580544D01*
Y580870D01*
X59443D01*
Y581196D01*
X59769D01*
Y581522D01*
Y581847D01*
X60095D01*
Y582173D01*
Y582499D01*
Y582825D01*
X60421D01*
Y583151D01*
X60747D01*
Y583477D01*
Y583802D01*
Y584128D01*
X61398D01*
Y584454D01*
Y584780D01*
Y585106D01*
X61724D01*
Y585432D01*
Y585757D01*
X62050D01*
Y586083D01*
X62376D01*
Y586409D01*
Y586735D01*
Y587061D01*
X62702D01*
Y587387D01*
Y587713D01*
X63027D01*
Y588038D01*
Y588364D01*
X63679D01*
Y588690D01*
Y589016D01*
Y589342D01*
X64005D01*
Y589668D01*
Y589993D01*
Y590319D01*
X64331D01*
Y590645D01*
X64657D01*
Y590971D01*
Y591297D01*
X64982D01*
Y591623D01*
Y591948D01*
X65308D01*
Y592274D01*
Y592600D01*
X65634D01*
Y592926D01*
X65960D01*
Y593252D01*
Y593577D01*
X66286D01*
Y593903D01*
Y594229D01*
X66612D01*
Y594555D01*
Y594881D01*
X66937D01*
Y595207D01*
X67263D01*
Y595532D01*
Y595858D01*
Y596184D01*
X67589D01*
Y596510D01*
X67915D01*
Y596836D01*
Y597162D01*
Y597487D01*
Y597813D01*
X68567D01*
Y598139D01*
Y598465D01*
X68892D01*
Y598791D01*
Y599117D01*
X69218D01*
Y599442D01*
X69544D01*
Y599768D01*
X69218D01*
Y600094D01*
X69544D01*
Y600420D01*
X69870D01*
Y600746D01*
Y601072D01*
X70196D01*
Y601398D01*
Y601723D01*
X70522D01*
Y602049D01*
X70847D01*
Y602375D01*
Y602701D01*
X71173D01*
Y603027D01*
Y603353D01*
Y603678D01*
X71499D01*
Y604004D01*
Y604330D01*
X72151D01*
Y604656D01*
Y604982D01*
Y605308D01*
X72477D01*
Y605633D01*
X77690D01*
Y605959D01*
X78016D01*
Y606285D01*
Y606611D01*
Y606937D01*
Y607262D01*
Y607588D01*
Y607914D01*
Y608240D01*
Y608566D01*
Y608892D01*
Y609218D01*
Y609543D01*
Y609869D01*
Y610195D01*
Y610521D01*
Y610847D01*
Y611173D01*
Y611498D01*
Y611824D01*
Y612150D01*
Y612476D01*
Y612802D01*
Y613128D01*
Y613453D01*
Y613779D01*
Y614105D01*
Y614431D01*
Y614757D01*
X87139D01*
Y615083D01*
Y615408D01*
Y615734D01*
Y616060D01*
Y616386D01*
Y616712D01*
Y617038D01*
Y617363D01*
Y617689D01*
Y618015D01*
Y618341D01*
Y618667D01*
Y618993D01*
Y619318D01*
Y619644D01*
Y619970D01*
Y620296D01*
Y620622D01*
Y620948D01*
Y621273D01*
Y621599D01*
Y621925D01*
Y622251D01*
Y622577D01*
Y622903D01*
Y623228D01*
Y623554D01*
Y623880D01*
Y624206D01*
Y624532D01*
Y624858D01*
Y625183D01*
Y625509D01*
Y625835D01*
Y626161D01*
Y626487D01*
X103431D01*
Y626161D01*
X104408D01*
Y625835D01*
X104734D01*
Y625509D01*
X105060D01*
Y625183D01*
Y624858D01*
X105712D01*
Y624532D01*
Y624206D01*
Y623880D01*
Y623554D01*
X106363D01*
Y623228D01*
Y622903D01*
X106689D01*
Y622577D01*
Y622251D01*
Y621925D01*
X107015D01*
Y621599D01*
X107341D01*
Y621273D01*
Y620948D01*
Y620622D01*
X107992D01*
Y620296D01*
Y619970D01*
Y619644D01*
X108318D01*
Y619318D01*
X108644D01*
Y618993D01*
Y618667D01*
Y618341D01*
X108970D01*
Y618015D01*
X109296D01*
Y617689D01*
Y617363D01*
X109622D01*
Y617038D01*
Y616712D01*
X109948D01*
Y616386D01*
X110925D01*
Y616712D01*
X111251D01*
Y617038D01*
Y617363D01*
Y617689D01*
X111577D01*
Y618015D01*
X111903D01*
Y618341D01*
Y618667D01*
Y618993D01*
X112228D01*
Y619318D01*
Y619644D01*
X112554D01*
Y619970D01*
Y620296D01*
X112880D01*
Y620622D01*
X113206D01*
Y620948D01*
Y621273D01*
X113532D01*
Y621599D01*
X113857D01*
Y621925D01*
Y622251D01*
Y622577D01*
X114183D01*
Y622903D01*
X114509D01*
Y623228D01*
Y623554D01*
Y623880D01*
X114835D01*
Y624206D01*
X115161D01*
Y624532D01*
X115487D01*
Y624858D01*
X115813D01*
Y625183D01*
X116138D01*
Y625509D01*
X117116D01*
Y625835D01*
X117442D01*
Y626161D01*
X118419D01*
Y626487D01*
X136014D01*
Y626161D01*
X136992D01*
Y625835D01*
X137643D01*
Y625509D01*
Y625183D01*
Y624858D01*
X137969D01*
Y624532D01*
X138621D01*
Y624206D01*
X138295D01*
Y623880D01*
Y623554D01*
X138947D01*
Y623228D01*
Y622903D01*
Y622577D01*
X139273D01*
Y622251D01*
Y621925D01*
X139598D01*
Y621599D01*
X139924D01*
Y621273D01*
Y620948D01*
Y620622D01*
X140250D01*
Y620296D01*
X140576D01*
Y619970D01*
Y619644D01*
Y619318D01*
X141228D01*
Y618993D01*
Y618667D01*
Y618341D01*
X141553D01*
Y618015D01*
Y617689D01*
X141879D01*
Y617363D01*
Y617038D01*
X142531D01*
Y616712D01*
Y616386D01*
Y616060D01*
Y615734D01*
Y615408D01*
X143183D01*
Y615083D01*
Y614757D01*
Y614431D01*
X143508D01*
Y614105D01*
X143834D01*
Y613779D01*
Y613453D01*
X144160D01*
Y613128D01*
Y612802D01*
X144486D01*
Y612476D01*
Y612150D01*
X144812D01*
Y611824D01*
Y611498D01*
X145138D01*
Y611173D01*
Y610847D01*
X145463D01*
Y610521D01*
Y610195D01*
X145789D01*
Y609869D01*
X146115D01*
Y609543D01*
Y609218D01*
X146441D01*
Y608892D01*
Y608566D01*
X146767D01*
Y608240D01*
Y607914D01*
Y607588D01*
X147418D01*
Y607262D01*
Y606937D01*
Y606611D01*
Y606285D01*
X147744D01*
Y605959D01*
X148070D01*
Y605633D01*
X148396D01*
Y605308D01*
X148070D01*
Y604982D01*
X148722D01*
Y604656D01*
Y604330D01*
X149048D01*
Y604004D01*
Y603678D01*
Y603353D01*
X149373D01*
Y603027D01*
X149699D01*
Y602701D01*
Y602375D01*
Y602049D01*
X150351D01*
Y601723D01*
Y601398D01*
Y601072D01*
X150677D01*
Y600746D01*
Y600420D01*
X151003D01*
Y600094D01*
X151328D01*
Y599768D01*
Y599442D01*
Y599117D01*
X151654D01*
Y598791D01*
X151980D01*
Y598465D01*
Y598139D01*
Y597813D01*
X152632D01*
Y597487D01*
Y597162D01*
X152958D01*
Y596836D01*
Y596510D01*
Y596184D01*
X153283D01*
Y595858D01*
Y595532D01*
X153609D01*
Y595207D01*
Y594881D01*
X153935D01*
Y594555D01*
Y594229D01*
X154261D01*
Y593903D01*
X154587D01*
Y593577D01*
Y593252D01*
Y592926D01*
Y592600D01*
X155238D01*
Y592274D01*
Y591948D01*
Y591623D01*
X155890D01*
Y591297D01*
Y590971D01*
Y590645D01*
X156216D01*
Y590319D01*
Y589993D01*
X156542D01*
Y589668D01*
Y589342D01*
X156868D01*
Y589016D01*
Y588690D01*
X157193D01*
Y588364D01*
X157519D01*
Y588038D01*
Y587713D01*
X158171D01*
Y588038D01*
Y588364D01*
X158497D01*
Y588690D01*
Y589016D01*
X159148D01*
Y589342D01*
Y589668D01*
Y589993D01*
X159474D01*
Y590319D01*
Y590645D01*
X159800D01*
Y590971D01*
X160126D01*
Y591297D01*
Y591623D01*
Y591948D01*
X160778D01*
Y592274D01*
Y592600D01*
Y592926D01*
X161103D01*
Y593252D01*
Y593577D01*
X161429D01*
Y593903D01*
Y594229D01*
X161755D01*
Y594555D01*
Y594881D01*
X162081D01*
Y595207D01*
Y595532D01*
X162407D01*
Y595858D01*
Y596184D01*
X162733D01*
Y596510D01*
Y596836D01*
X163058D01*
Y597162D01*
Y597487D01*
X163384D01*
Y597813D01*
X163710D01*
Y598139D01*
Y598465D01*
Y598791D01*
X164362D01*
Y599117D01*
Y599442D01*
Y599768D01*
X164688D01*
Y600094D01*
X165014D01*
Y600420D01*
Y600746D01*
Y601072D01*
X165339D01*
Y601398D01*
Y601723D01*
X165665D01*
Y602049D01*
Y602375D01*
X165991D01*
Y602701D01*
Y603027D01*
X166317D01*
Y603353D01*
Y603678D01*
X166643D01*
Y604004D01*
Y604330D01*
X166968D01*
Y604656D01*
X167294D01*
Y604982D01*
Y605308D01*
Y605633D01*
X167620D01*
Y605959D01*
X167946D01*
Y606285D01*
X168272D01*
Y606611D01*
Y606937D01*
X168598D01*
Y607262D01*
Y607588D01*
X168923D01*
Y607914D01*
Y608240D01*
X169249D01*
Y608566D01*
Y608892D01*
X169575D01*
Y609218D01*
X169901D01*
Y609543D01*
Y609869D01*
Y610195D01*
Y610521D01*
X170553D01*
Y610847D01*
Y611173D01*
Y611498D01*
X170879D01*
Y611824D01*
Y612150D01*
X171530D01*
Y612476D01*
Y612802D01*
Y613128D01*
X171856D01*
Y613453D01*
X172182D01*
Y613779D01*
Y614105D01*
Y614431D01*
X172508D01*
Y614757D01*
Y615083D01*
X172833D01*
Y615408D01*
Y615734D01*
X173159D01*
Y616060D01*
X173485D01*
Y616386D01*
Y616712D01*
X174137D01*
Y617038D01*
Y617363D01*
X174463D01*
Y617689D01*
X174788D01*
Y618015D01*
X175114D01*
Y618341D01*
X175440D01*
Y618667D01*
X175766D01*
Y618993D01*
X176092D01*
Y619318D01*
X176418D01*
Y619644D01*
X177069D01*
Y619970D01*
X177395D01*
Y620296D01*
X177721D01*
Y620622D01*
X178047D01*
Y620948D01*
X178373D01*
Y621273D01*
X179024D01*
Y621599D01*
X179350D01*
Y621925D01*
X180002D01*
Y622251D01*
X180328D01*
Y622577D01*
X181305D01*
Y622903D01*
X181631D01*
Y623228D01*
X182283D01*
Y623554D01*
X182609D01*
Y623880D01*
X183586D01*
Y624206D01*
X184564D01*
Y624532D01*
X184889D01*
Y624858D01*
X185867D01*
Y625183D01*
X187170D01*
Y625509D01*
X188799D01*
Y625835D01*
X189451D01*
Y626161D01*
X192058D01*
Y626487D01*
X198900D01*
Y626161D01*
X199552D01*
Y625835D01*
X200203D01*
Y625509D01*
Y625183D01*
Y624858D01*
X200529D01*
Y624532D01*
X200203D01*
Y624206D01*
Y623880D01*
Y623554D01*
X199878D01*
Y623228D01*
Y622903D01*
X199552D01*
Y622577D01*
X199226D01*
Y622251D01*
Y621925D01*
X198900D01*
Y621599D01*
Y621273D01*
X198574D01*
Y620948D01*
Y620622D01*
X198249D01*
Y620296D01*
X197923D01*
Y619970D01*
Y619644D01*
Y619318D01*
X197597D01*
Y618993D01*
Y618667D01*
X197271D01*
Y618341D01*
X196945D01*
Y618015D01*
Y617689D01*
X196619D01*
Y617363D01*
Y617038D01*
X196294D01*
Y616712D01*
Y616386D01*
X195968D01*
Y616060D01*
Y615734D01*
Y615408D01*
X195642D01*
Y615083D01*
X195316D01*
Y614757D01*
Y614431D01*
X194990D01*
Y614105D01*
X194664D01*
Y613779D01*
Y613453D01*
X194338D01*
Y613128D01*
Y612802D01*
Y612476D01*
X194013D01*
Y612150D01*
X193687D01*
Y611824D01*
Y611498D01*
Y611173D01*
X193035D01*
Y610847D01*
Y610521D01*
Y610195D01*
Y609869D01*
X192709D01*
Y609543D01*
X192383D01*
Y609218D01*
X192058D01*
Y608892D01*
Y608566D01*
X191732D01*
Y608240D01*
Y607914D01*
X191406D01*
Y607588D01*
Y607262D01*
X191080D01*
Y606937D01*
X190754D01*
Y606611D01*
Y606285D01*
Y605959D01*
X190429D01*
Y605633D01*
Y605308D01*
X190103D01*
Y604982D01*
Y604656D01*
X189777D01*
Y604330D01*
X189451D01*
Y604004D01*
Y603678D01*
Y603353D01*
X189125D01*
Y603027D01*
X188799D01*
Y602701D01*
Y602375D01*
X188473D01*
Y602049D01*
Y601723D01*
X188148D01*
Y601398D01*
Y601072D01*
X187822D01*
Y600746D01*
Y600420D01*
Y600094D01*
X187170D01*
Y599768D01*
Y599442D01*
Y599117D01*
X186518D01*
Y598791D01*
Y598465D01*
Y598139D01*
X186193D01*
Y597813D01*
Y597487D01*
X185867D01*
Y597162D01*
Y596836D01*
X185541D01*
Y596510D01*
Y596184D01*
Y595858D01*
X185215D01*
Y595532D01*
X184889D01*
Y595207D01*
Y594881D01*
Y594555D01*
X184564D01*
Y594229D01*
Y593903D01*
X183912D01*
Y593577D01*
Y593252D01*
Y592926D01*
Y592600D01*
Y592274D01*
X184238D01*
Y591948D01*
Y591623D01*
Y591297D01*
X184564D01*
Y590971D01*
X184889D01*
Y590645D01*
X185215D01*
Y590319D01*
Y589993D01*
Y589668D01*
X185541D01*
Y589342D01*
Y589016D01*
X185867D01*
Y588690D01*
Y588364D01*
X186193D01*
Y588038D01*
Y587713D01*
X186518D01*
Y587387D01*
Y587061D01*
X186844D01*
Y586735D01*
Y586409D01*
X187170D01*
Y586083D01*
Y585757D01*
Y585432D01*
X187496D01*
Y585106D01*
Y584780D01*
X187822D01*
Y584454D01*
Y584128D01*
X188473D01*
Y584454D01*
X188799D01*
Y584780D01*
Y585106D01*
X189125D01*
Y585432D01*
Y585757D01*
X189451D01*
Y586083D01*
Y586409D01*
X189777D01*
Y586735D01*
Y587061D01*
X190103D01*
Y587387D01*
X190429D01*
Y587713D01*
Y588038D01*
X190754D01*
Y588364D01*
Y588690D01*
X191080D01*
Y589016D01*
X191406D01*
Y589342D01*
X191080D01*
Y589668D01*
X191406D01*
Y589993D01*
X191732D01*
Y590319D01*
Y590645D01*
X192058D01*
Y590971D01*
Y591297D01*
X192383D01*
Y591623D01*
X192709D01*
Y591948D01*
Y592274D01*
X193035D01*
Y592600D01*
Y592926D01*
X193361D01*
Y593252D01*
Y593577D01*
X193687D01*
Y593903D01*
Y594229D01*
X194013D01*
Y594555D01*
Y594881D01*
X194338D01*
Y595207D01*
Y595532D01*
X194664D01*
Y595858D01*
Y596184D01*
Y596510D01*
X195316D01*
Y596836D01*
Y597162D01*
Y597487D01*
X195642D01*
Y597813D01*
X195968D01*
Y598139D01*
Y598465D01*
X196294D01*
Y598791D01*
Y599117D01*
X196619D01*
Y599442D01*
Y599768D01*
X196945D01*
Y600094D01*
Y600420D01*
X197271D01*
Y600746D01*
X197597D01*
Y601072D01*
Y601398D01*
Y601723D01*
X197923D01*
Y602049D01*
Y602375D01*
X198249D01*
Y602701D01*
X198574D01*
Y603027D01*
Y603353D01*
X198900D01*
Y603678D01*
Y604004D01*
X199226D01*
Y604330D01*
Y604656D01*
X199552D01*
Y604982D01*
X199878D01*
Y605308D01*
X199552D01*
Y605633D01*
X200203D01*
Y605959D01*
Y606285D01*
X200529D01*
Y606611D01*
Y606937D01*
X200855D01*
Y607262D01*
Y607588D01*
X201181D01*
Y607914D01*
Y608240D01*
Y608566D01*
X201507D01*
Y608892D01*
X201833D01*
Y609218D01*
Y609543D01*
X202159D01*
Y609869D01*
X202484D01*
Y610195D01*
Y610521D01*
Y610847D01*
X202810D01*
Y611173D01*
X203136D01*
Y611498D01*
Y611824D01*
Y612150D01*
X203462D01*
Y612476D01*
X203788D01*
Y612802D01*
Y613128D01*
Y613453D01*
X204114D01*
Y613779D01*
X204439D01*
Y614105D01*
X204765D01*
Y614431D01*
Y614757D01*
X205091D01*
Y615083D01*
Y615408D01*
X205417D01*
Y615734D01*
Y616060D01*
X205743D01*
Y616386D01*
X206068D01*
Y616712D01*
Y617038D01*
X206394D01*
Y617363D01*
X206720D01*
Y617689D01*
X207046D01*
Y618015D01*
X207372D01*
Y618341D01*
X208024D01*
Y618667D01*
Y618993D01*
X208349D01*
Y619318D01*
X208675D01*
Y619644D01*
X209327D01*
Y619970D01*
Y620296D01*
X209979D01*
Y620622D01*
X210304D01*
Y620948D01*
X210630D01*
Y621273D01*
X211282D01*
Y621599D01*
X211608D01*
Y621925D01*
X211934D01*
Y622251D01*
X212585D01*
Y622577D01*
X213237D01*
Y622903D01*
X213889D01*
Y623228D01*
X214540D01*
Y623554D01*
X215192D01*
Y623880D01*
X215844D01*
Y624206D01*
X216821D01*
Y624532D01*
X217473D01*
Y624858D01*
X218450D01*
Y625183D01*
X219428D01*
Y625509D01*
X221057D01*
Y625835D01*
X221709D01*
Y626161D01*
X224315D01*
Y626487D01*
X231158D01*
Y626161D01*
D02*
G37*
G36*
X73182Y551086D02*
Y550529D01*
Y549971D01*
Y549413D01*
Y548856D01*
Y548298D01*
Y547741D01*
X70394D01*
Y548298D01*
Y548856D01*
Y549413D01*
Y549971D01*
Y550529D01*
Y551086D01*
Y551644D01*
X73182D01*
Y551086D01*
D02*
G37*
G36*
X225971D02*
Y550529D01*
Y549971D01*
Y549413D01*
Y548856D01*
Y548298D01*
Y547741D01*
Y547183D01*
Y546625D01*
X220952D01*
Y547183D01*
Y547741D01*
Y548298D01*
Y548856D01*
Y549413D01*
Y549971D01*
Y550529D01*
Y551086D01*
Y551644D01*
X225971D01*
Y551086D01*
D02*
G37*
G36*
X93256D02*
Y550529D01*
Y549971D01*
Y549413D01*
Y548856D01*
Y548298D01*
Y547741D01*
Y547183D01*
Y546625D01*
Y546068D01*
Y545510D01*
Y544953D01*
Y544395D01*
Y543837D01*
Y543280D01*
Y542722D01*
Y542164D01*
Y541607D01*
Y541049D01*
Y540491D01*
Y539934D01*
Y539376D01*
Y538819D01*
Y538261D01*
Y537703D01*
Y537146D01*
Y536588D01*
Y536031D01*
Y535473D01*
Y534915D01*
Y534358D01*
Y533800D01*
Y533242D01*
Y532685D01*
Y532127D01*
Y531570D01*
Y531012D01*
Y530454D01*
Y529897D01*
Y529339D01*
Y528781D01*
Y528224D01*
Y527666D01*
Y527108D01*
Y526551D01*
Y525993D01*
Y525436D01*
Y524878D01*
Y524320D01*
Y523763D01*
X90468D01*
Y524320D01*
Y524878D01*
Y525436D01*
Y525993D01*
Y526551D01*
Y527108D01*
Y527666D01*
Y528224D01*
Y528781D01*
Y529339D01*
Y529897D01*
Y530454D01*
Y531012D01*
Y531570D01*
Y532127D01*
Y532685D01*
Y533242D01*
Y533800D01*
Y534358D01*
Y534915D01*
Y535473D01*
Y536031D01*
Y536588D01*
Y537146D01*
Y537703D01*
Y538261D01*
X89911D01*
Y538819D01*
Y539376D01*
X89353D01*
Y539934D01*
X88795D01*
Y540491D01*
X88238D01*
Y541049D01*
X87123D01*
Y541607D01*
X82662D01*
Y541049D01*
X82104D01*
Y540491D01*
X80989D01*
Y539934D01*
Y539376D01*
X80431D01*
Y538819D01*
Y538261D01*
Y537703D01*
Y537146D01*
Y536588D01*
Y536031D01*
Y535473D01*
Y534915D01*
Y534358D01*
Y533800D01*
Y533242D01*
Y532685D01*
Y532127D01*
Y531570D01*
Y531012D01*
Y530454D01*
Y529897D01*
Y529339D01*
Y528781D01*
Y528224D01*
Y527666D01*
Y527108D01*
Y526551D01*
Y525993D01*
Y525436D01*
Y524878D01*
Y524320D01*
Y523763D01*
X77643D01*
Y524320D01*
Y524878D01*
Y525436D01*
Y525993D01*
Y526551D01*
Y527108D01*
Y527666D01*
Y528224D01*
Y528781D01*
Y529339D01*
Y529897D01*
Y530454D01*
Y531012D01*
Y531570D01*
Y532127D01*
Y532685D01*
Y533242D01*
Y533800D01*
Y534358D01*
Y534915D01*
Y535473D01*
Y536031D01*
Y536588D01*
Y537146D01*
Y537703D01*
Y538261D01*
Y538819D01*
Y539376D01*
Y539934D01*
Y540491D01*
X78201D01*
Y541049D01*
Y541607D01*
X78758D01*
Y542164D01*
X79316D01*
Y542722D01*
X79873D01*
Y543280D01*
X80431D01*
Y543837D01*
X81546D01*
Y544395D01*
X86565D01*
Y543837D01*
X87680D01*
Y543280D01*
X88795D01*
Y542722D01*
X89353D01*
Y542164D01*
X90468D01*
Y542722D01*
Y543280D01*
Y543837D01*
Y544395D01*
Y544953D01*
Y545510D01*
Y546068D01*
Y546625D01*
Y547183D01*
Y547741D01*
Y548298D01*
Y548856D01*
Y549413D01*
Y549971D01*
Y550529D01*
Y551086D01*
Y551644D01*
X93256D01*
Y551086D01*
D02*
G37*
G36*
X126714Y543837D02*
X128387D01*
Y543280D01*
X129502D01*
Y542722D01*
X130060D01*
Y542164D01*
X130617D01*
Y541607D01*
X131175D01*
Y541049D01*
Y540491D01*
X131733D01*
Y539934D01*
Y539376D01*
Y538819D01*
X132290D01*
Y538261D01*
X130060D01*
Y537703D01*
X129502D01*
Y538261D01*
X128944D01*
Y538819D01*
Y539376D01*
X128387D01*
Y539934D01*
Y540491D01*
X127829D01*
Y541049D01*
X126714D01*
Y541607D01*
X121138D01*
Y541049D01*
X120022D01*
Y540491D01*
X119465D01*
Y539934D01*
X118907D01*
Y539376D01*
Y538819D01*
Y538261D01*
X118350D01*
Y537703D01*
Y537146D01*
Y536588D01*
X119465D01*
Y536031D01*
X122810D01*
Y535473D01*
X126714D01*
Y534915D01*
X128944D01*
Y534358D01*
X130060D01*
Y533800D01*
X130617D01*
Y533242D01*
X131175D01*
Y532685D01*
X131733D01*
Y532127D01*
X132290D01*
Y531570D01*
Y531012D01*
Y530454D01*
X132848D01*
Y529897D01*
Y529339D01*
Y528781D01*
Y528224D01*
Y527666D01*
X132290D01*
Y527108D01*
Y526551D01*
X131733D01*
Y525993D01*
Y525436D01*
X131175D01*
Y524878D01*
X130617D01*
Y524320D01*
X129502D01*
Y523763D01*
X127829D01*
Y523205D01*
X124483D01*
Y523763D01*
X122253D01*
Y524320D01*
X121138D01*
Y524878D01*
X120580D01*
Y525436D01*
X119465D01*
Y525993D01*
X118350D01*
Y525436D01*
Y524878D01*
X117792D01*
Y524320D01*
Y523763D01*
X115004D01*
Y524320D01*
Y524878D01*
Y525436D01*
X115561D01*
Y525993D01*
Y526551D01*
Y527108D01*
Y527666D01*
Y528224D01*
Y528781D01*
Y529339D01*
Y529897D01*
Y530454D01*
Y531012D01*
Y531570D01*
Y532127D01*
Y532685D01*
Y533242D01*
Y533800D01*
Y534358D01*
Y534915D01*
Y535473D01*
Y536031D01*
Y536588D01*
Y537146D01*
Y537703D01*
Y538261D01*
Y538819D01*
Y539376D01*
X116119D01*
Y539934D01*
Y540491D01*
Y541049D01*
Y541607D01*
X116677D01*
Y542164D01*
X117234D01*
Y542722D01*
X117792D01*
Y543280D01*
X118350D01*
Y543837D01*
X120022D01*
Y544395D01*
X126714D01*
Y543837D01*
D02*
G37*
G36*
X263889Y551086D02*
Y550529D01*
X263332D01*
Y549971D01*
Y549413D01*
Y548856D01*
X262774D01*
Y548298D01*
Y547741D01*
Y547183D01*
Y546625D01*
Y546068D01*
X262216D01*
Y545510D01*
Y544953D01*
Y544395D01*
Y543837D01*
X261659D01*
Y543280D01*
Y542722D01*
Y542164D01*
Y541607D01*
X261101D01*
Y541049D01*
Y540491D01*
Y539934D01*
Y539376D01*
Y538819D01*
X260544D01*
Y538261D01*
Y537703D01*
Y537146D01*
Y536588D01*
X259986D01*
Y536031D01*
Y535473D01*
Y534915D01*
Y534358D01*
X259428D01*
Y533800D01*
Y533242D01*
Y532685D01*
Y532127D01*
X258871D01*
Y531570D01*
Y531012D01*
Y530454D01*
Y529897D01*
X258313D01*
Y529339D01*
Y528781D01*
Y528224D01*
Y527666D01*
X257756D01*
Y527108D01*
Y526551D01*
Y525993D01*
Y525436D01*
Y524878D01*
X257198D01*
Y524320D01*
Y523763D01*
X251064D01*
Y524320D01*
Y524878D01*
X250506D01*
Y525436D01*
Y525993D01*
Y526551D01*
X249949D01*
Y527108D01*
Y527666D01*
Y528224D01*
Y528781D01*
Y529339D01*
X249391D01*
Y529897D01*
Y530454D01*
Y531012D01*
X248834D01*
Y531570D01*
Y532127D01*
Y532685D01*
Y533242D01*
X248276D01*
Y533800D01*
Y534358D01*
Y534915D01*
Y535473D01*
X247718D01*
Y536031D01*
Y536588D01*
Y537146D01*
X247161D01*
Y537703D01*
Y538261D01*
Y538819D01*
Y539376D01*
X246603D01*
Y539934D01*
Y540491D01*
Y541049D01*
Y541607D01*
X246045D01*
Y542164D01*
Y542722D01*
Y543280D01*
Y543837D01*
X244930D01*
Y543280D01*
Y542722D01*
Y542164D01*
Y541607D01*
X244373D01*
Y541049D01*
Y540491D01*
Y539934D01*
Y539376D01*
X243815D01*
Y538819D01*
Y538261D01*
Y537703D01*
Y537146D01*
X243257D01*
Y536588D01*
Y536031D01*
Y535473D01*
X242700D01*
Y534915D01*
Y534358D01*
Y533800D01*
Y533242D01*
X242142D01*
Y532685D01*
Y532127D01*
Y531570D01*
Y531012D01*
X241584D01*
Y530454D01*
Y529897D01*
Y529339D01*
Y528781D01*
X241027D01*
Y528224D01*
Y527666D01*
Y527108D01*
X240469D01*
Y526551D01*
Y525993D01*
Y525436D01*
Y524878D01*
X239911D01*
Y524320D01*
Y523763D01*
X233778D01*
Y524320D01*
Y524878D01*
Y525436D01*
X233220D01*
Y525993D01*
Y526551D01*
Y527108D01*
Y527666D01*
X232662D01*
Y528224D01*
Y528781D01*
Y529339D01*
Y529897D01*
Y530454D01*
X232105D01*
Y531012D01*
Y531570D01*
Y532127D01*
Y532685D01*
X231547D01*
Y533242D01*
Y533800D01*
Y534358D01*
X230989D01*
Y534915D01*
Y535473D01*
Y536031D01*
Y536588D01*
Y537146D01*
X230432D01*
Y537703D01*
Y538261D01*
Y538819D01*
Y539376D01*
X229874D01*
Y539934D01*
Y540491D01*
Y541049D01*
Y541607D01*
X229317D01*
Y542164D01*
Y542722D01*
Y543280D01*
Y543837D01*
Y544395D01*
X228759D01*
Y544953D01*
Y545510D01*
Y546068D01*
X228201D01*
Y546625D01*
Y547183D01*
Y547741D01*
Y548298D01*
X227644D01*
Y548856D01*
Y549413D01*
Y549971D01*
Y550529D01*
Y551086D01*
X227086D01*
Y551644D01*
X232662D01*
Y551086D01*
X233220D01*
Y550529D01*
Y549971D01*
Y549413D01*
Y548856D01*
X233778D01*
Y548298D01*
Y547741D01*
Y547183D01*
Y546625D01*
Y546068D01*
X234335D01*
Y545510D01*
Y544953D01*
Y544395D01*
Y543837D01*
Y543280D01*
X234893D01*
Y542722D01*
Y542164D01*
Y541607D01*
Y541049D01*
X235450D01*
Y540491D01*
Y539934D01*
Y539376D01*
Y538819D01*
Y538261D01*
X236008D01*
Y537703D01*
Y537146D01*
Y536588D01*
Y536031D01*
X236566D01*
Y535473D01*
Y534915D01*
Y534358D01*
Y533800D01*
X237123D01*
Y533242D01*
X237681D01*
Y533800D01*
Y534358D01*
Y534915D01*
Y535473D01*
X238239D01*
Y536031D01*
Y536588D01*
Y537146D01*
Y537703D01*
X238796D01*
Y538261D01*
Y538819D01*
Y539376D01*
Y539934D01*
X239354D01*
Y540491D01*
Y541049D01*
Y541607D01*
Y542164D01*
X239911D01*
Y542722D01*
Y543280D01*
Y543837D01*
Y544395D01*
X240469D01*
Y544953D01*
Y545510D01*
Y546068D01*
Y546625D01*
X241027D01*
Y547183D01*
Y547741D01*
Y548298D01*
Y548856D01*
X241584D01*
Y549413D01*
Y549971D01*
Y550529D01*
Y551086D01*
X242142D01*
Y551644D01*
X248834D01*
Y551086D01*
Y550529D01*
X249391D01*
Y549971D01*
Y549413D01*
Y548856D01*
Y548298D01*
X249949D01*
Y547741D01*
Y547183D01*
Y546625D01*
Y546068D01*
X250506D01*
Y545510D01*
Y544953D01*
Y544395D01*
X251064D01*
Y543837D01*
Y543280D01*
Y542722D01*
Y542164D01*
X251622D01*
Y541607D01*
Y541049D01*
Y540491D01*
Y539934D01*
X252179D01*
Y539376D01*
Y538819D01*
Y538261D01*
Y537703D01*
X252737D01*
Y537146D01*
Y536588D01*
Y536031D01*
Y535473D01*
X253295D01*
Y534915D01*
Y534358D01*
Y533800D01*
Y533242D01*
X253852D01*
Y533800D01*
X254410D01*
Y534358D01*
Y534915D01*
Y535473D01*
Y536031D01*
Y536588D01*
X254967D01*
Y537146D01*
Y537703D01*
Y538261D01*
Y538819D01*
X255525D01*
Y539376D01*
Y539934D01*
Y540491D01*
Y541049D01*
X256083D01*
Y541607D01*
Y542164D01*
Y542722D01*
Y543280D01*
Y543837D01*
Y544395D01*
X256640D01*
Y544953D01*
Y545510D01*
Y546068D01*
Y546625D01*
X257198D01*
Y547183D01*
Y547741D01*
Y548298D01*
Y548856D01*
X257756D01*
Y549413D01*
Y549971D01*
Y550529D01*
Y551086D01*
Y551644D01*
X263889D01*
Y551086D01*
D02*
G37*
G36*
X162959D02*
Y550529D01*
Y549971D01*
Y549413D01*
Y548856D01*
Y548298D01*
Y547741D01*
Y547183D01*
Y546625D01*
Y546068D01*
Y545510D01*
Y544953D01*
Y544395D01*
Y543837D01*
Y543280D01*
Y542722D01*
Y542164D01*
Y541607D01*
Y541049D01*
Y540491D01*
Y539934D01*
Y539376D01*
Y538819D01*
Y538261D01*
Y537703D01*
Y537146D01*
Y536588D01*
Y536031D01*
Y535473D01*
Y534915D01*
Y534358D01*
Y533800D01*
Y533242D01*
Y532685D01*
Y532127D01*
Y531570D01*
Y531012D01*
Y530454D01*
Y529897D01*
Y529339D01*
Y528781D01*
Y528224D01*
Y527666D01*
Y527108D01*
Y526551D01*
Y525993D01*
Y525436D01*
Y524878D01*
Y524320D01*
Y523763D01*
X159056D01*
Y524320D01*
Y524878D01*
Y525436D01*
Y525993D01*
Y526551D01*
Y527108D01*
Y527666D01*
Y528224D01*
Y528781D01*
Y529339D01*
Y529897D01*
Y530454D01*
Y531012D01*
Y531570D01*
Y532127D01*
Y532685D01*
Y533242D01*
Y533800D01*
Y534358D01*
Y534915D01*
Y535473D01*
Y536031D01*
Y536588D01*
Y537146D01*
Y537703D01*
Y538261D01*
Y538819D01*
Y539376D01*
Y539934D01*
Y540491D01*
Y541049D01*
Y541607D01*
Y542164D01*
Y542722D01*
Y543280D01*
Y543837D01*
Y544395D01*
Y544953D01*
Y545510D01*
Y546068D01*
Y546625D01*
X158498D01*
Y546068D01*
Y545510D01*
Y544953D01*
Y544395D01*
X157941D01*
Y543837D01*
Y543280D01*
X157383D01*
Y542722D01*
Y542164D01*
Y541607D01*
X156826D01*
Y541049D01*
Y540491D01*
Y539934D01*
Y539376D01*
X156268D01*
Y538819D01*
Y538261D01*
X155710D01*
Y537703D01*
Y537146D01*
Y536588D01*
X155153D01*
Y536031D01*
Y535473D01*
Y534915D01*
X154595D01*
Y534358D01*
Y533800D01*
Y533242D01*
X154037D01*
Y532685D01*
Y532127D01*
Y531570D01*
X153480D01*
Y531012D01*
Y530454D01*
Y529897D01*
X152922D01*
Y529339D01*
Y528781D01*
Y528224D01*
X152365D01*
Y527666D01*
Y527108D01*
Y526551D01*
X151807D01*
Y525993D01*
Y525436D01*
Y524878D01*
X151249D01*
Y524320D01*
Y523763D01*
X147904D01*
Y524320D01*
X147346D01*
Y524878D01*
Y525436D01*
Y525993D01*
X146788D01*
Y526551D01*
Y527108D01*
Y527666D01*
X146231D01*
Y528224D01*
Y528781D01*
Y529339D01*
X145673D01*
Y529897D01*
Y530454D01*
Y531012D01*
X145115D01*
Y531570D01*
Y532127D01*
X144558D01*
Y532685D01*
Y533242D01*
Y533800D01*
X144000D01*
Y534358D01*
Y534915D01*
Y535473D01*
X143443D01*
Y536031D01*
Y536588D01*
Y537146D01*
X142885D01*
Y537703D01*
Y538261D01*
Y538819D01*
X142327D01*
Y539376D01*
Y539934D01*
Y540491D01*
X141770D01*
Y541049D01*
Y541607D01*
Y542164D01*
X141212D01*
Y542722D01*
Y543280D01*
Y543837D01*
X140654D01*
Y544395D01*
Y544953D01*
X140097D01*
Y545510D01*
Y546068D01*
X139539D01*
Y545510D01*
Y544953D01*
Y544395D01*
Y543837D01*
Y543280D01*
Y542722D01*
Y542164D01*
Y541607D01*
Y541049D01*
Y540491D01*
Y539934D01*
Y539376D01*
Y538819D01*
Y538261D01*
Y537703D01*
Y537146D01*
Y536588D01*
Y536031D01*
Y535473D01*
Y534915D01*
Y534358D01*
Y533800D01*
Y533242D01*
Y532685D01*
Y532127D01*
Y531570D01*
Y531012D01*
Y530454D01*
Y529897D01*
Y529339D01*
Y528781D01*
Y528224D01*
Y527666D01*
Y527108D01*
Y526551D01*
Y525993D01*
Y525436D01*
Y524878D01*
Y524320D01*
Y523763D01*
X136194D01*
Y524320D01*
Y524878D01*
Y525436D01*
Y525993D01*
Y526551D01*
Y527108D01*
Y527666D01*
Y528224D01*
Y528781D01*
Y529339D01*
Y529897D01*
Y530454D01*
Y531012D01*
Y531570D01*
Y532127D01*
Y532685D01*
Y533242D01*
Y533800D01*
Y534358D01*
Y534915D01*
Y535473D01*
Y536031D01*
Y536588D01*
Y537146D01*
Y537703D01*
Y538261D01*
Y538819D01*
Y539376D01*
Y539934D01*
Y540491D01*
Y541049D01*
Y541607D01*
Y542164D01*
Y542722D01*
Y543280D01*
Y543837D01*
Y544395D01*
Y544953D01*
Y545510D01*
Y546068D01*
Y546625D01*
Y547183D01*
Y547741D01*
Y548298D01*
Y548856D01*
Y549413D01*
Y549971D01*
Y550529D01*
Y551086D01*
Y551644D01*
X141212D01*
Y551086D01*
Y550529D01*
X141770D01*
Y549971D01*
Y549413D01*
Y548856D01*
X142327D01*
Y548298D01*
Y547741D01*
Y547183D01*
X142885D01*
Y546625D01*
Y546068D01*
Y545510D01*
X143443D01*
Y544953D01*
Y544395D01*
X144000D01*
Y543837D01*
Y543280D01*
Y542722D01*
X144558D01*
Y542164D01*
Y541607D01*
Y541049D01*
X145115D01*
Y540491D01*
Y539934D01*
Y539376D01*
X145673D01*
Y538819D01*
Y538261D01*
Y537703D01*
X146231D01*
Y537146D01*
Y536588D01*
Y536031D01*
X146788D01*
Y535473D01*
Y534915D01*
Y534358D01*
X147346D01*
Y533800D01*
Y533242D01*
Y532685D01*
X147904D01*
Y532127D01*
Y531570D01*
Y531012D01*
X148461D01*
Y530454D01*
Y529897D01*
Y529339D01*
X149019D01*
Y528781D01*
Y528224D01*
X149576D01*
Y528781D01*
Y529339D01*
Y529897D01*
X150134D01*
Y530454D01*
Y531012D01*
Y531570D01*
X150692D01*
Y532127D01*
Y532685D01*
Y533242D01*
X151249D01*
Y533800D01*
Y534358D01*
Y534915D01*
X151807D01*
Y535473D01*
Y536031D01*
Y536588D01*
X152365D01*
Y537146D01*
Y537703D01*
Y538261D01*
X152922D01*
Y538819D01*
Y539376D01*
Y539934D01*
X153480D01*
Y540491D01*
Y541049D01*
Y541607D01*
X154037D01*
Y542164D01*
Y542722D01*
Y543280D01*
X154595D01*
Y543837D01*
Y544395D01*
X155153D01*
Y544953D01*
Y545510D01*
Y546068D01*
Y546625D01*
X155710D01*
Y547183D01*
Y547741D01*
Y548298D01*
X156268D01*
Y548856D01*
Y549413D01*
X156826D01*
Y549971D01*
Y550529D01*
Y551086D01*
Y551644D01*
X162959D01*
Y551086D01*
D02*
G37*
G36*
X191398Y543837D02*
X193071D01*
Y543280D01*
X194186D01*
Y542722D01*
X194744D01*
Y542164D01*
X195302D01*
Y541607D01*
X195859D01*
Y541049D01*
X196417D01*
Y540491D01*
Y539934D01*
X196975D01*
Y539376D01*
X197532D01*
Y538819D01*
Y538261D01*
Y537703D01*
X198090D01*
Y537146D01*
Y536588D01*
Y536031D01*
Y535473D01*
Y534915D01*
Y534358D01*
Y533800D01*
Y533242D01*
Y532685D01*
Y532127D01*
Y531570D01*
Y531012D01*
Y530454D01*
Y529897D01*
X197532D01*
Y529339D01*
Y528781D01*
Y528224D01*
X196975D01*
Y527666D01*
X196417D01*
Y527108D01*
Y526551D01*
X195859D01*
Y525993D01*
X195302D01*
Y525436D01*
X194744D01*
Y524878D01*
X193629D01*
Y524320D01*
X193071D01*
Y523763D01*
X190841D01*
Y523205D01*
X185822D01*
Y523763D01*
X184149D01*
Y524320D01*
X183034D01*
Y524878D01*
X182476D01*
Y525436D01*
X181919D01*
Y525993D01*
X181361D01*
Y526551D01*
X180803D01*
Y527108D01*
Y527666D01*
X180246D01*
Y528224D01*
Y528781D01*
X179688D01*
Y529339D01*
X181361D01*
Y529897D01*
X185264D01*
Y529339D01*
Y528781D01*
X185822D01*
Y528224D01*
X186380D01*
Y527666D01*
X187495D01*
Y527108D01*
X189168D01*
Y527666D01*
X190841D01*
Y528224D01*
X191398D01*
Y528781D01*
X191956D01*
Y529339D01*
Y529897D01*
X192514D01*
Y530454D01*
Y531012D01*
Y531570D01*
X193071D01*
Y532127D01*
X179688D01*
Y532685D01*
X179130D01*
Y533242D01*
Y533800D01*
Y534358D01*
Y534915D01*
X179688D01*
Y535473D01*
Y536031D01*
Y536588D01*
Y537146D01*
Y537703D01*
X180246D01*
Y538261D01*
Y538819D01*
Y539376D01*
X180803D01*
Y539934D01*
Y540491D01*
X181361D01*
Y541049D01*
X181919D01*
Y541607D01*
X182476D01*
Y542164D01*
X183034D01*
Y542722D01*
X183591D01*
Y543280D01*
X184707D01*
Y543837D01*
X186380D01*
Y544395D01*
X191398D01*
Y543837D01*
D02*
G37*
G36*
X106082D02*
X107755D01*
Y543280D01*
X108312D01*
Y542722D01*
X109427D01*
Y542164D01*
X109985D01*
Y541607D01*
X110543D01*
Y541049D01*
Y540491D01*
X111100D01*
Y539934D01*
Y539376D01*
X111658D01*
Y538819D01*
Y538261D01*
X112216D01*
Y537703D01*
Y537146D01*
Y536588D01*
Y536031D01*
Y535473D01*
Y534915D01*
Y534358D01*
Y533800D01*
Y533242D01*
Y532685D01*
Y532127D01*
Y531570D01*
Y531012D01*
Y530454D01*
Y529897D01*
X111658D01*
Y529339D01*
Y528781D01*
Y528224D01*
X111100D01*
Y527666D01*
Y527108D01*
X110543D01*
Y526551D01*
X109985D01*
Y525993D01*
X109427D01*
Y525436D01*
X108870D01*
Y524878D01*
X108312D01*
Y524320D01*
X107197D01*
Y523763D01*
X104966D01*
Y523205D01*
X102178D01*
Y523763D01*
X99948D01*
Y524320D01*
X99390D01*
Y524878D01*
X98275D01*
Y525436D01*
X97717D01*
Y525993D01*
X97160D01*
Y526551D01*
X96602D01*
Y527108D01*
Y527666D01*
X96045D01*
Y528224D01*
Y528781D01*
X95487D01*
Y529339D01*
Y529897D01*
Y530454D01*
Y531012D01*
X98275D01*
Y530454D01*
Y529897D01*
Y529339D01*
X98833D01*
Y528781D01*
Y528224D01*
X99390D01*
Y527666D01*
X99948D01*
Y527108D01*
X100506D01*
Y526551D01*
X102178D01*
Y525993D01*
X104966D01*
Y526551D01*
X106639D01*
Y527108D01*
X107197D01*
Y527666D01*
X107755D01*
Y528224D01*
X108312D01*
Y528781D01*
Y529339D01*
X108870D01*
Y529897D01*
Y530454D01*
X109427D01*
Y531012D01*
Y531570D01*
Y532127D01*
Y532685D01*
Y533242D01*
Y533800D01*
Y534358D01*
Y534915D01*
Y535473D01*
Y536031D01*
Y536588D01*
Y537146D01*
X108870D01*
Y537703D01*
Y538261D01*
Y538819D01*
X108312D01*
Y539376D01*
X107755D01*
Y539934D01*
Y540491D01*
X106639D01*
Y541049D01*
X105524D01*
Y541607D01*
X101063D01*
Y541049D01*
X100506D01*
Y540491D01*
X99948D01*
Y539934D01*
X99390D01*
Y539376D01*
X98833D01*
Y538819D01*
Y538261D01*
X98275D01*
Y537703D01*
X96045D01*
Y538261D01*
X95487D01*
Y538819D01*
X96045D01*
Y539376D01*
Y539934D01*
X96602D01*
Y540491D01*
Y541049D01*
X97160D01*
Y541607D01*
Y542164D01*
X97717D01*
Y542722D01*
X98833D01*
Y543280D01*
X99390D01*
Y543837D01*
X101063D01*
Y544395D01*
X106082D01*
Y543837D01*
D02*
G37*
G36*
X40282D02*
X41955D01*
Y543280D01*
X43070D01*
Y542722D01*
X43628D01*
Y542164D01*
X44186D01*
Y541607D01*
X44743D01*
Y541049D01*
X45301D01*
Y540491D01*
X45858D01*
Y539934D01*
Y539376D01*
Y538819D01*
X46416D01*
Y538261D01*
Y537703D01*
Y537146D01*
X46974D01*
Y536588D01*
Y536031D01*
Y535473D01*
Y534915D01*
Y534358D01*
Y533800D01*
Y533242D01*
Y532685D01*
Y532127D01*
Y531570D01*
Y531012D01*
Y530454D01*
X46416D01*
Y529897D01*
Y529339D01*
Y528781D01*
X45858D01*
Y528224D01*
Y527666D01*
X45301D01*
Y527108D01*
Y526551D01*
X44743D01*
Y525993D01*
X44186D01*
Y525436D01*
X43628D01*
Y524878D01*
X42513D01*
Y524320D01*
X41397D01*
Y523763D01*
X39725D01*
Y523205D01*
X35821D01*
Y523763D01*
X34148D01*
Y524320D01*
X33033D01*
Y524878D01*
X31918D01*
Y525436D01*
X31360D01*
Y525993D01*
X30803D01*
Y526551D01*
X30245D01*
Y527108D01*
Y527666D01*
X29687D01*
Y528224D01*
Y528781D01*
X29130D01*
Y529339D01*
Y529897D01*
X32475D01*
Y529339D01*
Y528781D01*
X33033D01*
Y528224D01*
X33591D01*
Y527666D01*
X34148D01*
Y527108D01*
X34706D01*
Y526551D01*
X36379D01*
Y525993D01*
X39167D01*
Y526551D01*
X40840D01*
Y527108D01*
X41397D01*
Y527666D01*
X41955D01*
Y528224D01*
X42513D01*
Y528781D01*
X43070D01*
Y529339D01*
X43628D01*
Y529897D01*
Y530454D01*
Y531012D01*
Y531570D01*
X44186D01*
Y532127D01*
Y532685D01*
X43628D01*
Y533242D01*
X29130D01*
Y533800D01*
Y534358D01*
Y534915D01*
Y535473D01*
Y536031D01*
Y536588D01*
Y537146D01*
Y537703D01*
X29687D01*
Y538261D01*
Y538819D01*
Y539376D01*
X30245D01*
Y539934D01*
Y540491D01*
X30803D01*
Y541049D01*
X31360D01*
Y541607D01*
X31918D01*
Y542164D01*
X32475D01*
Y542722D01*
X33033D01*
Y543280D01*
X33591D01*
Y543837D01*
X35264D01*
Y544395D01*
X40282D01*
Y543837D01*
D02*
G37*
G36*
X225971Y543280D02*
Y542722D01*
Y542164D01*
Y541607D01*
Y541049D01*
Y540491D01*
Y539934D01*
Y539376D01*
Y538819D01*
Y538261D01*
Y537703D01*
Y537146D01*
Y536588D01*
Y536031D01*
Y535473D01*
Y534915D01*
Y534358D01*
Y533800D01*
Y533242D01*
Y532685D01*
Y532127D01*
Y531570D01*
Y531012D01*
Y530454D01*
Y529897D01*
Y529339D01*
Y528781D01*
Y528224D01*
Y527666D01*
Y527108D01*
Y526551D01*
Y525993D01*
Y525436D01*
Y524878D01*
Y524320D01*
Y523763D01*
X220952D01*
Y524320D01*
Y524878D01*
Y525436D01*
Y525993D01*
Y526551D01*
Y527108D01*
Y527666D01*
Y528224D01*
Y528781D01*
Y529339D01*
Y529897D01*
Y530454D01*
Y531012D01*
Y531570D01*
Y532127D01*
Y532685D01*
Y533242D01*
Y533800D01*
Y534358D01*
Y534915D01*
Y535473D01*
Y536031D01*
Y536588D01*
Y537146D01*
Y537703D01*
Y538261D01*
Y538819D01*
Y539376D01*
Y539934D01*
Y540491D01*
Y541049D01*
Y541607D01*
Y542164D01*
Y542722D01*
Y543280D01*
Y543837D01*
X225971D01*
Y543280D01*
D02*
G37*
G36*
X169093Y543837D02*
X169651D01*
Y543280D01*
X170766D01*
Y542722D01*
Y542164D01*
X171324D01*
Y541607D01*
X171881D01*
Y542164D01*
Y542722D01*
Y543280D01*
Y543837D01*
X176900D01*
Y543280D01*
Y542722D01*
Y542164D01*
Y541607D01*
Y541049D01*
Y540491D01*
Y539934D01*
Y539376D01*
Y538819D01*
Y538261D01*
Y537703D01*
Y537146D01*
Y536588D01*
Y536031D01*
Y535473D01*
Y534915D01*
Y534358D01*
Y533800D01*
Y533242D01*
Y532685D01*
Y532127D01*
Y531570D01*
Y531012D01*
Y530454D01*
Y529897D01*
Y529339D01*
Y528781D01*
Y528224D01*
Y527666D01*
Y527108D01*
Y526551D01*
Y525993D01*
Y525436D01*
Y524878D01*
Y524320D01*
Y523763D01*
X171324D01*
Y524320D01*
Y524878D01*
Y525436D01*
Y525993D01*
Y526551D01*
Y527108D01*
Y527666D01*
Y528224D01*
Y528781D01*
Y529339D01*
Y529897D01*
Y530454D01*
Y531012D01*
Y531570D01*
Y532127D01*
Y532685D01*
Y533242D01*
Y533800D01*
Y534358D01*
Y534915D01*
Y535473D01*
Y536031D01*
Y536588D01*
X170766D01*
Y537146D01*
Y537703D01*
Y538261D01*
X170208D01*
Y538819D01*
X169651D01*
Y539376D01*
X167978D01*
Y539934D01*
X167420D01*
Y539376D01*
X165748D01*
Y538819D01*
X165190D01*
Y539376D01*
Y539934D01*
X164632D01*
Y540491D01*
Y541049D01*
Y541607D01*
X164075D01*
Y542164D01*
Y542722D01*
X163517D01*
Y543280D01*
X164075D01*
Y543837D01*
X165190D01*
Y544395D01*
X169093D01*
Y543837D01*
D02*
G37*
G36*
X73182Y543280D02*
Y542722D01*
Y542164D01*
Y541607D01*
Y541049D01*
Y540491D01*
Y539934D01*
Y539376D01*
Y538819D01*
Y538261D01*
Y537703D01*
Y537146D01*
Y536588D01*
Y536031D01*
Y535473D01*
Y534915D01*
Y534358D01*
Y533800D01*
Y533242D01*
Y532685D01*
Y532127D01*
Y531570D01*
Y531012D01*
Y530454D01*
Y529897D01*
Y529339D01*
Y528781D01*
Y528224D01*
Y527666D01*
Y527108D01*
Y526551D01*
Y525993D01*
Y525436D01*
Y524878D01*
Y524320D01*
Y523763D01*
X70394D01*
Y524320D01*
Y524878D01*
Y525436D01*
Y525993D01*
Y526551D01*
Y527108D01*
Y527666D01*
Y528224D01*
Y528781D01*
Y529339D01*
Y529897D01*
Y530454D01*
Y531012D01*
Y531570D01*
Y532127D01*
Y532685D01*
Y533242D01*
Y533800D01*
Y534358D01*
Y534915D01*
Y535473D01*
Y536031D01*
Y536588D01*
Y537146D01*
Y537703D01*
Y538261D01*
Y538819D01*
Y539376D01*
Y539934D01*
Y540491D01*
Y541049D01*
Y541607D01*
Y542164D01*
Y542722D01*
Y543280D01*
Y543837D01*
X73182D01*
Y543280D01*
D02*
G37*
G36*
X59241Y543837D02*
X60357D01*
Y543280D01*
X61472D01*
Y542722D01*
X62030D01*
Y542164D01*
X62587D01*
Y541607D01*
X63702D01*
Y542164D01*
Y542722D01*
Y543280D01*
Y543837D01*
X65933D01*
Y543280D01*
Y542722D01*
Y542164D01*
Y541607D01*
Y541049D01*
Y540491D01*
Y539934D01*
Y539376D01*
Y538819D01*
Y538261D01*
Y537703D01*
Y537146D01*
Y536588D01*
Y536031D01*
Y535473D01*
Y534915D01*
Y534358D01*
Y533800D01*
Y533242D01*
Y532685D01*
Y532127D01*
Y531570D01*
Y531012D01*
Y530454D01*
Y529897D01*
Y529339D01*
Y528781D01*
Y528224D01*
Y527666D01*
Y527108D01*
Y526551D01*
Y525993D01*
Y525436D01*
Y524878D01*
Y524320D01*
Y523763D01*
X63145D01*
Y524320D01*
Y524878D01*
Y525436D01*
Y525993D01*
Y526551D01*
Y527108D01*
Y527666D01*
Y528224D01*
Y528781D01*
Y529339D01*
Y529897D01*
Y530454D01*
Y531012D01*
Y531570D01*
Y532127D01*
Y532685D01*
Y533242D01*
Y533800D01*
Y534358D01*
Y534915D01*
Y535473D01*
Y536031D01*
Y536588D01*
Y537146D01*
Y537703D01*
Y538261D01*
X62587D01*
Y538819D01*
Y539376D01*
X62030D01*
Y539934D01*
X61472D01*
Y540491D01*
X60914D01*
Y541049D01*
X59241D01*
Y541607D01*
X55896D01*
Y541049D01*
X54780D01*
Y540491D01*
X54223D01*
Y539934D01*
X53665D01*
Y539376D01*
Y538819D01*
X53108D01*
Y538261D01*
Y537703D01*
Y537146D01*
Y536588D01*
Y536031D01*
Y535473D01*
Y534915D01*
Y534358D01*
Y533800D01*
Y533242D01*
Y532685D01*
Y532127D01*
Y531570D01*
Y531012D01*
Y530454D01*
Y529897D01*
Y529339D01*
Y528781D01*
Y528224D01*
Y527666D01*
Y527108D01*
Y526551D01*
Y525993D01*
Y525436D01*
Y524878D01*
Y524320D01*
Y523763D01*
X50319D01*
Y524320D01*
Y524878D01*
Y525436D01*
Y525993D01*
Y526551D01*
Y527108D01*
Y527666D01*
Y528224D01*
Y528781D01*
Y529339D01*
Y529897D01*
Y530454D01*
Y531012D01*
Y531570D01*
Y532127D01*
Y532685D01*
Y533242D01*
Y533800D01*
Y534358D01*
Y534915D01*
Y535473D01*
Y536031D01*
Y536588D01*
Y537146D01*
Y537703D01*
Y538261D01*
Y538819D01*
Y539376D01*
Y539934D01*
Y540491D01*
X50877D01*
Y541049D01*
Y541607D01*
X51435D01*
Y542164D01*
X51992D01*
Y542722D01*
X52550D01*
Y543280D01*
X53108D01*
Y543837D01*
X54780D01*
Y544395D01*
X59241D01*
Y543837D01*
D02*
G37*
G36*
X212588D02*
X214818D01*
Y543280D01*
X215376D01*
Y542722D01*
X216491D01*
Y542164D01*
Y541607D01*
X217049D01*
Y541049D01*
X217607D01*
Y540491D01*
Y539934D01*
X218164D01*
Y539376D01*
Y538819D01*
Y538261D01*
Y537703D01*
Y537146D01*
Y536588D01*
X217607D01*
Y536031D01*
Y535473D01*
X217049D01*
Y534915D01*
X216491D01*
Y534358D01*
X215934D01*
Y533800D01*
X215376D01*
Y533242D01*
X214261D01*
Y532685D01*
X212588D01*
Y532127D01*
X210915D01*
Y531570D01*
X208685D01*
Y531012D01*
X206454D01*
Y530454D01*
X205339D01*
Y529897D01*
Y529339D01*
Y528781D01*
Y528224D01*
X205896D01*
Y527666D01*
X207012D01*
Y527108D01*
X210915D01*
Y527666D01*
X212030D01*
Y528224D01*
X212588D01*
Y528781D01*
X213146D01*
Y529339D01*
Y529897D01*
X217607D01*
Y529339D01*
X218722D01*
Y528781D01*
Y528224D01*
X218164D01*
Y527666D01*
Y527108D01*
X217607D01*
Y526551D01*
X217049D01*
Y525993D01*
X216491D01*
Y525436D01*
X215934D01*
Y524878D01*
X214818D01*
Y524320D01*
X213703D01*
Y523763D01*
X212030D01*
Y523205D01*
X206454D01*
Y523763D01*
X204224D01*
Y524320D01*
X203108D01*
Y524878D01*
X202551D01*
Y525436D01*
X201993D01*
Y525993D01*
X201436D01*
Y526551D01*
X200878D01*
Y527108D01*
X200320D01*
Y527666D01*
Y528224D01*
Y528781D01*
X199763D01*
Y529339D01*
Y529897D01*
Y530454D01*
Y531012D01*
Y531570D01*
X200320D01*
Y532127D01*
Y532685D01*
X200878D01*
Y533242D01*
Y533800D01*
X201436D01*
Y534358D01*
X202551D01*
Y534915D01*
X203666D01*
Y535473D01*
X204781D01*
Y536031D01*
X207012D01*
Y536588D01*
X209242D01*
Y537146D01*
X211473D01*
Y537703D01*
X212588D01*
Y538261D01*
X213146D01*
Y538819D01*
Y539376D01*
X212588D01*
Y539934D01*
X212030D01*
Y540491D01*
X207012D01*
Y539934D01*
X206454D01*
Y539376D01*
X205896D01*
Y538819D01*
Y538261D01*
X204224D01*
Y538819D01*
X200878D01*
Y539376D01*
Y539934D01*
Y540491D01*
X201436D01*
Y541049D01*
Y541607D01*
X201993D01*
Y542164D01*
X202551D01*
Y542722D01*
X203108D01*
Y543280D01*
X204224D01*
Y543837D01*
X205896D01*
Y544395D01*
X212588D01*
Y543837D01*
D02*
G37*
G36*
X21881D02*
X23554D01*
Y543280D01*
X24669D01*
Y542722D01*
X25226D01*
Y542164D01*
X25784D01*
Y541607D01*
Y541049D01*
X26342D01*
Y540491D01*
Y539934D01*
Y539376D01*
Y538819D01*
Y538261D01*
Y537703D01*
Y537146D01*
Y536588D01*
X25784D01*
Y536031D01*
Y535473D01*
X25226D01*
Y534915D01*
X24669D01*
Y534358D01*
X23554D01*
Y533800D01*
X22438D01*
Y533242D01*
X20765D01*
Y532685D01*
X18535D01*
Y532127D01*
X16304D01*
Y531570D01*
X15189D01*
Y531012D01*
X14074D01*
Y530454D01*
Y529897D01*
Y529339D01*
Y528781D01*
Y528224D01*
Y527666D01*
X14632D01*
Y527108D01*
X15189D01*
Y526551D01*
X17420D01*
Y525993D01*
X20208D01*
Y526551D01*
X21881D01*
Y527108D01*
X22996D01*
Y527666D01*
X23554D01*
Y528224D01*
Y528781D01*
X24111D01*
Y529339D01*
Y529897D01*
Y530454D01*
X25226D01*
Y529897D01*
X26899D01*
Y529339D01*
Y528781D01*
Y528224D01*
Y527666D01*
X26342D01*
Y527108D01*
Y526551D01*
X25784D01*
Y525993D01*
X25226D01*
Y525436D01*
X24669D01*
Y524878D01*
X24111D01*
Y524320D01*
X22996D01*
Y523763D01*
X20765D01*
Y523205D01*
X16862D01*
Y523763D01*
X15189D01*
Y524320D01*
X14074D01*
Y524878D01*
X12959D01*
Y525436D01*
X12401D01*
Y525993D01*
X11843D01*
Y526551D01*
Y527108D01*
X11286D01*
Y527666D01*
Y528224D01*
Y528781D01*
X10728D01*
Y529339D01*
Y529897D01*
Y530454D01*
Y531012D01*
X11286D01*
Y531570D01*
Y532127D01*
Y532685D01*
X11843D01*
Y533242D01*
X12401D01*
Y533800D01*
X12959D01*
Y534358D01*
X14632D01*
Y534915D01*
X15747D01*
Y535473D01*
X17977D01*
Y536031D01*
X20208D01*
Y536588D01*
X21881D01*
Y537146D01*
X22996D01*
Y537703D01*
X23554D01*
Y538261D01*
Y538819D01*
Y539376D01*
Y539934D01*
Y540491D01*
X22996D01*
Y541049D01*
X21881D01*
Y541607D01*
X16862D01*
Y541049D01*
X15747D01*
Y540491D01*
X15189D01*
Y539934D01*
X14632D01*
Y539376D01*
Y538819D01*
X11843D01*
Y539376D01*
Y539934D01*
Y540491D01*
X12401D01*
Y541049D01*
Y541607D01*
X12959D01*
Y542164D01*
Y542722D01*
X14074D01*
Y543280D01*
X14632D01*
Y543837D01*
X16304D01*
Y544395D01*
X21881D01*
Y543837D01*
D02*
G37*
G36*
X106775Y509566D02*
X107830D01*
Y509039D01*
X108357D01*
Y508511D01*
Y507984D01*
Y507456D01*
X107830D01*
Y506929D01*
X106775D01*
Y506401D01*
X105192D01*
Y506929D01*
X104137D01*
Y507456D01*
X103609D01*
Y507984D01*
Y508511D01*
Y509039D01*
X104137D01*
Y509566D01*
X105192D01*
Y510094D01*
X106775D01*
Y509566D01*
D02*
G37*
G36*
X51913Y508511D02*
X53496D01*
Y507984D01*
Y507456D01*
X52968D01*
Y506929D01*
X53496D01*
Y506401D01*
Y505874D01*
Y505346D01*
Y504819D01*
Y504291D01*
Y503764D01*
Y503236D01*
Y502709D01*
Y502181D01*
X54023D01*
Y501654D01*
Y501126D01*
Y500599D01*
Y500071D01*
Y499544D01*
Y499016D01*
X52968D01*
Y499544D01*
X52441D01*
Y500071D01*
X51913D01*
Y500599D01*
Y501126D01*
Y501654D01*
Y502181D01*
Y502709D01*
Y503236D01*
Y503764D01*
X51386D01*
Y504291D01*
Y504819D01*
Y505346D01*
Y505874D01*
Y506401D01*
X50858D01*
Y505874D01*
Y505346D01*
X50331D01*
Y504819D01*
Y504291D01*
Y503764D01*
Y503236D01*
X49803D01*
Y502709D01*
Y502181D01*
Y501654D01*
Y501126D01*
Y500599D01*
X49275D01*
Y500071D01*
X48748D01*
Y499544D01*
X47165D01*
Y500071D01*
X46110D01*
Y500599D01*
Y501126D01*
X45583D01*
Y501654D01*
Y502181D01*
Y502709D01*
Y503236D01*
X45055D01*
Y503764D01*
Y504291D01*
Y504819D01*
Y505346D01*
Y505874D01*
X44000D01*
Y505346D01*
Y504819D01*
Y504291D01*
X43473D01*
Y503764D01*
Y503236D01*
Y502709D01*
Y502181D01*
Y501654D01*
Y501126D01*
Y500599D01*
Y500071D01*
Y499544D01*
X42945D01*
Y499016D01*
X41890D01*
Y499544D01*
X41363D01*
Y500071D01*
Y500599D01*
Y501126D01*
Y501654D01*
Y502181D01*
Y502709D01*
Y503236D01*
X41890D01*
Y503764D01*
Y504291D01*
Y504819D01*
Y505346D01*
Y505874D01*
Y506401D01*
Y506929D01*
Y507456D01*
Y507984D01*
X42418D01*
Y508511D01*
X43473D01*
Y509039D01*
X45055D01*
Y508511D01*
X46110D01*
Y507984D01*
Y507456D01*
Y506929D01*
X46638D01*
Y506401D01*
Y505874D01*
Y505346D01*
Y504819D01*
Y504291D01*
X47165D01*
Y503764D01*
Y503236D01*
X47693D01*
Y502709D01*
X48221D01*
Y503236D01*
Y503764D01*
Y504291D01*
Y504819D01*
X48748D01*
Y505346D01*
Y505874D01*
Y506401D01*
Y506929D01*
Y507456D01*
X49275D01*
Y507984D01*
Y508511D01*
X50331D01*
Y509039D01*
X51913D01*
Y508511D01*
D02*
G37*
G36*
X61408D02*
X61936D01*
Y507984D01*
Y507456D01*
Y506929D01*
X58771D01*
Y506401D01*
Y505874D01*
Y505346D01*
Y504819D01*
Y504291D01*
Y503764D01*
Y503236D01*
Y502709D01*
Y502181D01*
Y501654D01*
Y501126D01*
Y500599D01*
Y500071D01*
Y499544D01*
Y499016D01*
X57188D01*
Y499544D01*
Y500071D01*
Y500599D01*
Y501126D01*
Y501654D01*
Y502181D01*
Y502709D01*
Y503236D01*
Y503764D01*
Y504291D01*
Y504819D01*
Y505346D01*
Y505874D01*
Y506401D01*
Y506929D01*
X54551D01*
Y507456D01*
X54023D01*
Y507984D01*
Y508511D01*
Y509039D01*
X61408D01*
Y508511D01*
D02*
G37*
G36*
X201199Y503764D02*
X203837D01*
Y503236D01*
X204892D01*
Y502709D01*
X205420D01*
Y502181D01*
X205947D01*
Y501654D01*
X206475D01*
Y501126D01*
Y500599D01*
X207002D01*
Y500071D01*
Y499544D01*
X207530D01*
Y499016D01*
Y498489D01*
Y497961D01*
Y497434D01*
Y496906D01*
Y496379D01*
Y495851D01*
Y495323D01*
Y494796D01*
Y494268D01*
Y493741D01*
Y493214D01*
Y492686D01*
Y492159D01*
Y491631D01*
X207002D01*
Y491103D01*
Y490576D01*
Y490048D01*
X206475D01*
Y489521D01*
X205947D01*
Y488993D01*
X205420D01*
Y488466D01*
X204892D01*
Y487938D01*
X203837D01*
Y487411D01*
X201199D01*
Y486883D01*
X197507D01*
Y487411D01*
X194869D01*
Y487938D01*
X194342D01*
Y488466D01*
X193814D01*
Y488993D01*
X193287D01*
Y489521D01*
Y490048D01*
Y490576D01*
X193814D01*
Y490048D01*
X202255D01*
Y490576D01*
X202782D01*
Y491103D01*
X203309D01*
Y491631D01*
X203837D01*
Y492159D01*
Y492686D01*
Y493214D01*
Y493741D01*
Y494268D01*
Y494796D01*
X192759D01*
Y495323D01*
Y495851D01*
X192232D01*
Y496379D01*
Y496906D01*
Y497434D01*
X192759D01*
Y497961D01*
Y498489D01*
Y499016D01*
Y499544D01*
Y500071D01*
Y500599D01*
X193287D01*
Y501126D01*
Y501654D01*
X193814D01*
Y502181D01*
Y502709D01*
X194342D01*
Y503236D01*
X195397D01*
Y503764D01*
X198034D01*
Y504291D01*
X201199D01*
Y503764D01*
D02*
G37*
G36*
X169021D02*
X171659D01*
Y503236D01*
X172714D01*
Y502709D01*
X173769D01*
Y502181D01*
X174296D01*
Y501654D01*
X174824D01*
Y501126D01*
Y500599D01*
X175351D01*
Y500071D01*
Y499544D01*
Y499016D01*
X175879D01*
Y498489D01*
Y497961D01*
Y497434D01*
Y496906D01*
Y496379D01*
Y495851D01*
Y495323D01*
Y494796D01*
Y494268D01*
Y493741D01*
Y493214D01*
Y492686D01*
Y492159D01*
Y491631D01*
X175351D01*
Y491103D01*
Y490576D01*
Y490048D01*
X174824D01*
Y489521D01*
X174296D01*
Y488993D01*
X173769D01*
Y488466D01*
X173241D01*
Y487938D01*
X172186D01*
Y487411D01*
X169549D01*
Y486883D01*
X166384D01*
Y487411D01*
X163746D01*
Y487938D01*
X163218D01*
Y488466D01*
X162691D01*
Y488993D01*
Y489521D01*
X162164D01*
Y490048D01*
X162691D01*
Y490576D01*
X163218D01*
Y490048D01*
X170604D01*
Y490576D01*
X171131D01*
Y491103D01*
X171659D01*
Y491631D01*
X172186D01*
Y492159D01*
Y492686D01*
Y493214D01*
Y493741D01*
Y494268D01*
Y494796D01*
Y495323D01*
Y495851D01*
Y496379D01*
Y496906D01*
Y497434D01*
Y497961D01*
Y498489D01*
Y499016D01*
Y499544D01*
X171659D01*
Y500071D01*
X171131D01*
Y500599D01*
X170604D01*
Y501126D01*
X162691D01*
Y501654D01*
X162164D01*
Y502181D01*
Y502709D01*
X162691D01*
Y503236D01*
X163218D01*
Y503764D01*
X165856D01*
Y504291D01*
X169021D01*
Y503764D01*
D02*
G37*
G36*
X153196D02*
X155833D01*
Y503236D01*
X156888D01*
Y502709D01*
X157943D01*
Y502181D01*
X158471D01*
Y501654D01*
Y501126D01*
X158998D01*
Y500599D01*
Y500071D01*
X159526D01*
Y499544D01*
Y499016D01*
Y498489D01*
Y497961D01*
X160053D01*
Y497434D01*
Y496906D01*
Y496379D01*
Y495851D01*
Y495323D01*
Y494796D01*
Y494268D01*
Y493741D01*
Y493214D01*
Y492686D01*
X159526D01*
Y492159D01*
Y491631D01*
Y491103D01*
Y490576D01*
X158998D01*
Y490048D01*
Y489521D01*
X158471D01*
Y488993D01*
X157943D01*
Y488466D01*
X156888D01*
Y487938D01*
X155833D01*
Y487411D01*
X153196D01*
Y486883D01*
X150031D01*
Y487411D01*
X146866D01*
Y487938D01*
X146338D01*
Y488466D01*
X145810D01*
Y488993D01*
Y489521D01*
X145283D01*
Y490048D01*
X145810D01*
Y490576D01*
X146338D01*
Y490048D01*
X154778D01*
Y490576D01*
X155306D01*
Y491103D01*
X155833D01*
Y491631D01*
Y492159D01*
Y492686D01*
X156361D01*
Y493214D01*
Y493741D01*
Y494268D01*
Y494796D01*
X145283D01*
Y495323D01*
X144755D01*
Y495851D01*
Y496379D01*
Y496906D01*
Y497434D01*
Y497961D01*
Y498489D01*
Y499016D01*
Y499544D01*
X145283D01*
Y500071D01*
Y500599D01*
Y501126D01*
X145810D01*
Y501654D01*
Y502181D01*
X146338D01*
Y502709D01*
X146866D01*
Y503236D01*
X147921D01*
Y503764D01*
X150558D01*
Y504291D01*
X153196D01*
Y503764D01*
D02*
G37*
G36*
X118380Y507456D02*
X120490D01*
Y506929D01*
Y506401D01*
X121017D01*
Y505874D01*
Y505346D01*
Y504819D01*
Y504291D01*
Y503764D01*
X122072D01*
Y503236D01*
X123127D01*
Y502709D01*
Y502181D01*
X123655D01*
Y501654D01*
Y501126D01*
X121017D01*
Y500599D01*
Y500071D01*
Y499544D01*
Y499016D01*
Y498489D01*
Y497961D01*
Y497434D01*
Y496906D01*
Y496379D01*
Y495851D01*
Y495323D01*
Y494796D01*
Y494268D01*
Y493741D01*
Y493214D01*
Y492686D01*
Y492159D01*
Y491631D01*
Y491103D01*
X120490D01*
Y490576D01*
Y490048D01*
Y489521D01*
Y488993D01*
X119962D01*
Y488466D01*
X118907D01*
Y487938D01*
X116797D01*
Y487411D01*
X114160D01*
Y487938D01*
X112050D01*
Y488466D01*
X111522D01*
Y488993D01*
X110995D01*
Y489521D01*
X110467D01*
Y490048D01*
X110995D01*
Y490576D01*
X113105D01*
Y490048D01*
X115215D01*
Y490576D01*
X116797D01*
Y491103D01*
X117325D01*
Y491631D01*
Y492159D01*
Y492686D01*
Y493214D01*
Y493741D01*
Y494268D01*
Y494796D01*
Y495323D01*
Y495851D01*
Y496379D01*
Y496906D01*
Y497434D01*
Y497961D01*
Y498489D01*
Y499016D01*
Y499544D01*
Y500071D01*
Y500599D01*
Y501126D01*
X111522D01*
Y501654D01*
X110995D01*
Y502181D01*
X110467D01*
Y502709D01*
Y503236D01*
Y503764D01*
X117325D01*
Y504291D01*
Y504819D01*
Y505346D01*
Y505874D01*
Y506401D01*
Y506929D01*
Y507456D01*
X117852D01*
Y507984D01*
X118380D01*
Y507456D01*
D02*
G37*
G36*
X222300Y508511D02*
X225993D01*
Y507984D01*
Y507456D01*
Y506929D01*
Y506401D01*
Y505874D01*
Y505346D01*
Y504819D01*
Y504291D01*
Y503764D01*
Y503236D01*
Y502709D01*
Y502181D01*
Y501654D01*
Y501126D01*
Y500599D01*
Y500071D01*
Y499544D01*
Y499016D01*
Y498489D01*
Y497961D01*
Y497434D01*
Y496906D01*
Y496379D01*
Y495851D01*
Y495323D01*
Y494796D01*
Y494268D01*
Y493741D01*
Y493214D01*
Y492686D01*
Y492159D01*
Y491631D01*
Y491103D01*
Y490576D01*
Y490048D01*
Y489521D01*
Y488993D01*
Y488466D01*
Y487938D01*
X225465D01*
Y487411D01*
X222827D01*
Y487938D01*
X222300D01*
Y488466D01*
Y488993D01*
Y489521D01*
Y490048D01*
Y490576D01*
Y491103D01*
Y491631D01*
Y492159D01*
Y492686D01*
Y493214D01*
Y493741D01*
Y494268D01*
Y494796D01*
Y495323D01*
Y495851D01*
X213332D01*
Y496379D01*
X212277D01*
Y496906D01*
X211750D01*
Y497434D01*
Y497961D01*
X211222D01*
Y498489D01*
X210695D01*
Y499016D01*
Y499544D01*
Y500071D01*
X210167D01*
Y500599D01*
Y501126D01*
Y501654D01*
Y502181D01*
Y502709D01*
Y503236D01*
Y503764D01*
Y504291D01*
Y504819D01*
Y505346D01*
X210695D01*
Y505874D01*
Y506401D01*
X211222D01*
Y506929D01*
Y507456D01*
X211750D01*
Y507984D01*
X212805D01*
Y508511D01*
X215970D01*
Y509039D01*
X222300D01*
Y508511D01*
D02*
G37*
G36*
X184319Y503764D02*
X188539D01*
Y503236D01*
Y502709D01*
Y502181D01*
Y501654D01*
Y501126D01*
Y500599D01*
Y500071D01*
Y499544D01*
Y499016D01*
Y498489D01*
Y497961D01*
Y497434D01*
Y496906D01*
Y496379D01*
Y495851D01*
Y495323D01*
Y494796D01*
Y494268D01*
Y493741D01*
Y493214D01*
Y492686D01*
Y492159D01*
Y491631D01*
Y491103D01*
Y490576D01*
Y490048D01*
Y489521D01*
Y488993D01*
Y488466D01*
Y487938D01*
X188012D01*
Y487411D01*
X185374D01*
Y487938D01*
X184846D01*
Y488466D01*
Y488993D01*
Y489521D01*
Y490048D01*
Y490576D01*
Y491103D01*
Y491631D01*
Y492159D01*
Y492686D01*
Y493214D01*
Y493741D01*
Y494268D01*
Y494796D01*
Y495323D01*
Y495851D01*
Y496379D01*
Y496906D01*
Y497434D01*
Y497961D01*
Y498489D01*
Y499016D01*
Y499544D01*
Y500071D01*
Y500599D01*
Y501126D01*
X177989D01*
Y501654D01*
X177461D01*
Y502181D01*
Y502709D01*
X177989D01*
Y503236D01*
X178516D01*
Y503764D01*
X180099D01*
Y504291D01*
X184319D01*
Y503764D01*
D02*
G37*
G36*
X107302Y503236D02*
X107830D01*
Y502709D01*
Y502181D01*
Y501654D01*
Y501126D01*
Y500599D01*
Y500071D01*
Y499544D01*
Y499016D01*
Y498489D01*
Y497961D01*
Y497434D01*
Y496906D01*
Y496379D01*
Y495851D01*
Y495323D01*
Y494796D01*
Y494268D01*
Y493741D01*
Y493214D01*
Y492686D01*
Y492159D01*
Y491631D01*
Y491103D01*
Y490576D01*
Y490048D01*
Y489521D01*
Y488993D01*
Y488466D01*
Y487938D01*
X107302D01*
Y487411D01*
X104664D01*
Y487938D01*
X104137D01*
Y488466D01*
Y488993D01*
Y489521D01*
Y490048D01*
Y490576D01*
Y491103D01*
Y491631D01*
Y492159D01*
Y492686D01*
Y493214D01*
Y493741D01*
Y494268D01*
Y494796D01*
Y495323D01*
Y495851D01*
Y496379D01*
Y496906D01*
Y497434D01*
Y497961D01*
Y498489D01*
Y499016D01*
Y499544D01*
Y500071D01*
Y500599D01*
Y501126D01*
Y501654D01*
Y502181D01*
Y502709D01*
Y503236D01*
X104664D01*
Y503764D01*
X107302D01*
Y503236D01*
D02*
G37*
G36*
X74069Y503764D02*
X79344D01*
Y503236D01*
Y502709D01*
Y502181D01*
Y501654D01*
Y501126D01*
Y500599D01*
Y500071D01*
Y499544D01*
Y499016D01*
Y498489D01*
Y497961D01*
Y497434D01*
Y496906D01*
Y496379D01*
Y495851D01*
Y495323D01*
Y494796D01*
Y494268D01*
Y493741D01*
Y493214D01*
Y492686D01*
Y492159D01*
Y491631D01*
Y491103D01*
Y490576D01*
Y490048D01*
Y489521D01*
Y488993D01*
Y488466D01*
Y487938D01*
X78816D01*
Y487411D01*
X76179D01*
Y487938D01*
Y488466D01*
Y488993D01*
Y489521D01*
Y490048D01*
Y490576D01*
Y491103D01*
Y491631D01*
Y492159D01*
Y492686D01*
Y493214D01*
Y493741D01*
Y494268D01*
Y494796D01*
Y495323D01*
Y495851D01*
Y496379D01*
Y496906D01*
Y497434D01*
Y497961D01*
Y498489D01*
Y499016D01*
Y499544D01*
Y500071D01*
Y500599D01*
Y501126D01*
X68794D01*
Y500599D01*
X68266D01*
Y500071D01*
Y499544D01*
Y499016D01*
X67738D01*
Y498489D01*
Y497961D01*
Y497434D01*
Y496906D01*
Y496379D01*
Y495851D01*
Y495323D01*
Y494796D01*
Y494268D01*
Y493741D01*
Y493214D01*
Y492686D01*
Y492159D01*
Y491631D01*
Y491103D01*
Y490576D01*
Y490048D01*
Y489521D01*
Y488993D01*
Y488466D01*
Y487938D01*
Y487411D01*
X65101D01*
Y487938D01*
X64573D01*
Y488466D01*
Y488993D01*
Y489521D01*
Y490048D01*
Y490576D01*
Y491103D01*
Y491631D01*
Y492159D01*
Y492686D01*
Y493214D01*
Y493741D01*
Y494268D01*
Y494796D01*
Y495323D01*
Y495851D01*
Y496379D01*
Y496906D01*
Y497434D01*
Y497961D01*
Y498489D01*
Y499016D01*
Y499544D01*
Y500071D01*
Y500599D01*
X65101D01*
Y501126D01*
Y501654D01*
Y502181D01*
X65628D01*
Y502709D01*
X66156D01*
Y503236D01*
X67211D01*
Y503764D01*
X69849D01*
Y504291D01*
X74069D01*
Y503764D01*
D02*
G37*
G36*
X93059D02*
X95697D01*
Y503236D01*
X96752D01*
Y502709D01*
X97807D01*
Y502181D01*
X98334D01*
Y501654D01*
Y501126D01*
X98862D01*
Y500599D01*
Y500071D01*
X99389D01*
Y499544D01*
Y499016D01*
Y498489D01*
Y497961D01*
X99917D01*
Y497434D01*
Y496906D01*
Y496379D01*
Y495851D01*
Y495323D01*
Y494796D01*
Y494268D01*
Y493741D01*
Y493214D01*
Y492686D01*
X99389D01*
Y492159D01*
Y491631D01*
Y491103D01*
X98862D01*
Y490576D01*
Y490048D01*
Y489521D01*
X98334D01*
Y488993D01*
X97807D01*
Y488466D01*
X96752D01*
Y487938D01*
X95697D01*
Y487411D01*
X93587D01*
Y486883D01*
X90422D01*
Y487411D01*
X87784D01*
Y487938D01*
X86729D01*
Y488466D01*
X86201D01*
Y488993D01*
X85674D01*
Y489521D01*
X85146D01*
Y490048D01*
X84619D01*
Y490576D01*
Y491103D01*
Y491631D01*
X84091D01*
Y492159D01*
Y492686D01*
Y493214D01*
Y493741D01*
X83564D01*
Y494268D01*
Y494796D01*
Y495323D01*
Y495851D01*
Y496379D01*
Y496906D01*
Y497434D01*
Y497961D01*
Y498489D01*
X84091D01*
Y499016D01*
Y499544D01*
Y500071D01*
Y500599D01*
X84619D01*
Y501126D01*
Y501654D01*
X85146D01*
Y502181D01*
X85674D01*
Y502709D01*
X86201D01*
Y503236D01*
X87256D01*
Y503764D01*
X89894D01*
Y504291D01*
X93059D01*
Y503764D01*
D02*
G37*
G36*
X136315D02*
X140535D01*
Y503236D01*
X141063D01*
Y502709D01*
Y502181D01*
Y501654D01*
Y501126D01*
Y500599D01*
Y500071D01*
Y499544D01*
Y499016D01*
Y498489D01*
Y497961D01*
Y497434D01*
Y496906D01*
Y496379D01*
Y495851D01*
Y495323D01*
Y494796D01*
Y494268D01*
Y493741D01*
Y493214D01*
Y492686D01*
Y492159D01*
Y491631D01*
Y491103D01*
Y490576D01*
Y490048D01*
Y489521D01*
Y488993D01*
Y488466D01*
Y487938D01*
Y487411D01*
Y486883D01*
Y486356D01*
Y485828D01*
Y485301D01*
Y484773D01*
Y484246D01*
Y483718D01*
Y483191D01*
Y482663D01*
Y482136D01*
Y481608D01*
Y481081D01*
X140535D01*
Y480553D01*
X137898D01*
Y481081D01*
X137370D01*
Y481608D01*
Y482136D01*
Y482663D01*
Y483191D01*
Y483718D01*
Y484246D01*
Y484773D01*
Y485301D01*
Y485828D01*
Y486356D01*
Y486883D01*
Y487411D01*
X132095D01*
Y487938D01*
X129458D01*
Y488466D01*
X128403D01*
Y488993D01*
X127875D01*
Y489521D01*
X127347D01*
Y490048D01*
X126820D01*
Y490576D01*
Y491103D01*
X126292D01*
Y491631D01*
Y492159D01*
X125765D01*
Y492686D01*
Y493214D01*
Y493741D01*
Y494268D01*
Y494796D01*
Y495323D01*
Y495851D01*
X125238D01*
Y496379D01*
Y496906D01*
Y497434D01*
X125765D01*
Y497961D01*
Y498489D01*
Y499016D01*
Y499544D01*
Y500071D01*
Y500599D01*
X126292D01*
Y501126D01*
Y501654D01*
X126820D01*
Y502181D01*
X127347D01*
Y502709D01*
X127875D01*
Y503236D01*
X128930D01*
Y503764D01*
X132095D01*
Y504291D01*
X136315D01*
Y503764D01*
D02*
G37*
G36*
X114690Y421662D02*
X115051Y421634D01*
X115384Y421606D01*
X115662Y421551D01*
X115884Y421523D01*
X115995Y421495D01*
X116051D01*
X116412Y421440D01*
X116717Y421356D01*
X116995Y421273D01*
X117217Y421190D01*
X117383Y421106D01*
X117522Y421051D01*
X117605Y421023D01*
X117633Y420995D01*
X117911Y420829D01*
X118161Y420635D01*
X118383Y420468D01*
X118549Y420301D01*
X118688Y420163D01*
X118799Y420052D01*
X118855Y419968D01*
X118882Y419940D01*
X119021Y419691D01*
X119160Y419413D01*
X119271Y419135D01*
X119354Y418885D01*
X119438Y418636D01*
X119465Y418441D01*
X119521Y418330D01*
Y418275D01*
X115468Y417858D01*
X115384Y418108D01*
X115273Y418302D01*
X115162Y418469D01*
X115051Y418608D01*
X114968Y418719D01*
X114885Y418774D01*
X114857Y418830D01*
X114829D01*
X114607Y418941D01*
X114357Y419024D01*
X113857Y419135D01*
X113635D01*
X113441Y419163D01*
X112997D01*
X112747Y419108D01*
X112553Y419052D01*
X112414Y418997D01*
X112275Y418941D01*
X112192Y418885D01*
X112164Y418858D01*
X112136Y418830D01*
X112025Y418691D01*
X111942Y418525D01*
X111831Y418191D01*
Y418025D01*
X111803Y417886D01*
Y417803D01*
Y417775D01*
X112386Y417553D01*
X112636Y417470D01*
X112858Y417386D01*
X113052Y417331D01*
X113191Y417275D01*
X113302Y417248D01*
X113330D01*
X113469Y417220D01*
X113663Y417164D01*
X114107Y417053D01*
X114607Y416942D01*
X115134Y416831D01*
X115606Y416748D01*
X115829Y416692D01*
X116023Y416665D01*
X116189Y416637D01*
X116300Y416609D01*
X116384Y416581D01*
X116412D01*
X116772Y416498D01*
X117106Y416415D01*
X117661Y416220D01*
X118133Y416026D01*
X118521Y415832D01*
X118799Y415665D01*
X118993Y415526D01*
X119104Y415415D01*
X119132Y415387D01*
X119382Y415082D01*
X119549Y414721D01*
X119688Y414388D01*
X119771Y414055D01*
X119826Y413777D01*
X119854Y413555D01*
Y413389D01*
Y413361D01*
Y413333D01*
X119798Y412833D01*
X119688Y412417D01*
X119549Y412028D01*
X119354Y411695D01*
X119160Y411418D01*
X119021Y411223D01*
X118910Y411112D01*
X118855Y411057D01*
X118438Y410751D01*
X117938Y410557D01*
X117439Y410390D01*
X116967Y410279D01*
X116523Y410224D01*
X116328Y410196D01*
X116162D01*
X116023Y410168D01*
X115829D01*
X115301Y410196D01*
X114801Y410252D01*
X114357Y410307D01*
X113968Y410390D01*
X113663Y410474D01*
X113413Y410557D01*
X113274Y410585D01*
X113219Y410612D01*
X112914Y410751D01*
X112636Y410946D01*
X112358Y411112D01*
X112108Y411306D01*
X111886Y411473D01*
X111720Y411612D01*
X111609Y411723D01*
X111581Y411751D01*
X111525Y411445D01*
X111470Y411223D01*
X111442Y411112D01*
Y411057D01*
X111359Y410862D01*
X111248Y410668D01*
X111137Y410501D01*
X111109Y410446D01*
Y410418D01*
X107139D01*
X107361Y410862D01*
X107417Y411057D01*
X107472Y411223D01*
X107528Y411362D01*
X107555Y411445D01*
X107583Y411501D01*
Y411529D01*
X107611Y411723D01*
X107639Y411917D01*
X107667Y412306D01*
Y412472D01*
Y412611D01*
Y412722D01*
Y412750D01*
Y417608D01*
Y417914D01*
X107722Y418191D01*
X107778Y418469D01*
X107833Y418719D01*
X107889Y418941D01*
X107944Y419108D01*
X107972Y419219D01*
X108000Y419246D01*
X108111Y419552D01*
X108250Y419829D01*
X108388Y420052D01*
X108527Y420246D01*
X108638Y420385D01*
X108749Y420496D01*
X108805Y420551D01*
X108833Y420579D01*
X109138Y420801D01*
X109471Y420995D01*
X109776Y421162D01*
X110082Y421273D01*
X110359Y421356D01*
X110582Y421412D01*
X110720Y421467D01*
X110776D01*
X111220Y421551D01*
X111720Y421606D01*
X112247Y421634D01*
X112719Y421662D01*
X113163Y421689D01*
X114274D01*
X114690Y421662D01*
D02*
G37*
G36*
X233846Y422161D02*
X232985Y415193D01*
X230209D01*
X229320Y422161D01*
Y425632D01*
X233846D01*
Y422161D01*
D02*
G37*
G36*
X226766D02*
X225906Y415193D01*
X223129D01*
X222241Y422161D01*
Y425632D01*
X226766D01*
Y422161D01*
D02*
G37*
G36*
X219687D02*
X218826Y415193D01*
X216050D01*
X215162Y422161D01*
Y425632D01*
X219687D01*
Y422161D01*
D02*
G37*
G36*
X212608D02*
X211747Y415193D01*
X208971D01*
X208082Y422161D01*
Y425632D01*
X212608D01*
Y422161D01*
D02*
G37*
G36*
X205528D02*
X204668Y415193D01*
X201891D01*
X201003Y422161D01*
Y425632D01*
X205528D01*
Y422161D01*
D02*
G37*
G36*
X198449D02*
X197588Y415193D01*
X194812D01*
X193924Y422161D01*
Y425632D01*
X198449D01*
Y422161D01*
D02*
G37*
G36*
X191369D02*
X190509Y415193D01*
X187733D01*
X186844Y422161D01*
Y425632D01*
X191369D01*
Y422161D01*
D02*
G37*
G36*
X184290D02*
X183430Y415193D01*
X180653D01*
X179765Y422161D01*
Y425632D01*
X184290D01*
Y422161D01*
D02*
G37*
G36*
X74435Y422161D02*
X73575Y415193D01*
X70798D01*
X69910Y422161D01*
Y425632D01*
X74435D01*
Y422161D01*
D02*
G37*
G36*
X67356D02*
X66495Y415193D01*
X63719D01*
X62831Y422161D01*
Y425632D01*
X67356D01*
Y422161D01*
D02*
G37*
G36*
X60276D02*
X59416Y415193D01*
X56639D01*
X55751Y422161D01*
Y425632D01*
X60276D01*
Y422161D01*
D02*
G37*
G36*
X53197D02*
X52336Y415193D01*
X49560D01*
X48672Y422161D01*
Y425632D01*
X53197D01*
Y422161D01*
D02*
G37*
G36*
X46118D02*
X45257Y415193D01*
X42481D01*
X41592Y422161D01*
Y425632D01*
X46118D01*
Y422161D01*
D02*
G37*
G36*
X39038D02*
X38178Y415193D01*
X35401D01*
X34513Y422161D01*
Y425632D01*
X39038D01*
Y422161D01*
D02*
G37*
G36*
X31959D02*
X31098Y415193D01*
X28322D01*
X27434Y422161D01*
Y425632D01*
X31959D01*
Y422161D01*
D02*
G37*
G36*
X24880D02*
X24019Y415193D01*
X21243D01*
X20354Y422161D01*
Y425632D01*
X24880D01*
Y422161D01*
D02*
G37*
G36*
X136567Y410418D02*
X132791D01*
X130626Y417025D01*
X128377Y410418D01*
X124629D01*
X120548Y421440D01*
X124629D01*
X126406Y414499D01*
X128738Y421440D01*
X132541D01*
X134790Y414499D01*
X136567Y421440D01*
X140648D01*
X136567Y410418D01*
D02*
G37*
G36*
X148421Y421662D02*
X148921Y421634D01*
X149393Y421551D01*
X149837Y421440D01*
X150254Y421329D01*
X150615Y421190D01*
X150976Y421023D01*
X151281Y420884D01*
X151559Y420746D01*
X151781Y420579D01*
X152003Y420440D01*
X152169Y420329D01*
X152308Y420218D01*
X152391Y420163D01*
X152447Y420107D01*
X152475Y420079D01*
X152752Y419774D01*
X153002Y419441D01*
X153224Y419108D01*
X153419Y418747D01*
X153585Y418386D01*
X153724Y418053D01*
X153918Y417386D01*
X153974Y417081D01*
X154029Y416803D01*
X154057Y416526D01*
X154085Y416304D01*
X154113Y416137D01*
Y415998D01*
Y415915D01*
Y415887D01*
X154085Y415221D01*
X153974Y414638D01*
X153863Y414083D01*
X153696Y413638D01*
X153557Y413250D01*
X153419Y412972D01*
X153391Y412861D01*
X153335Y412778D01*
X153308Y412750D01*
Y412722D01*
X152974Y412250D01*
X152641Y411862D01*
X152280Y411529D01*
X151947Y411251D01*
X151670Y411057D01*
X151420Y410890D01*
X151281Y410807D01*
X151225Y410779D01*
X150726Y410585D01*
X150170Y410418D01*
X149587Y410307D01*
X149032Y410252D01*
X148532Y410196D01*
X148338D01*
X148144Y410168D01*
X147311D01*
X146894Y410196D01*
X146478Y410224D01*
X146117Y410279D01*
X145756Y410335D01*
X145451Y410390D01*
X145173Y410474D01*
X144896Y410529D01*
X144674Y410585D01*
X144479Y410668D01*
X144313Y410723D01*
X144174Y410779D01*
X144063Y410835D01*
X143979Y410862D01*
X143952Y410890D01*
X143924D01*
X143424Y411195D01*
X142980Y411556D01*
X142591Y411973D01*
X142258Y412361D01*
X141980Y412722D01*
X141758Y413000D01*
X141703Y413111D01*
X141647Y413194D01*
X141592Y413250D01*
Y413278D01*
X145756Y413666D01*
X145895Y413472D01*
X146062Y413333D01*
X146173Y413194D01*
X146284Y413111D01*
X146450Y412972D01*
X146478Y412944D01*
X146506D01*
X146728Y412833D01*
X146922Y412778D01*
X147283Y412667D01*
X147450D01*
X147561Y412639D01*
X147672D01*
X148033Y412667D01*
X148338Y412750D01*
X148616Y412861D01*
X148838Y413000D01*
X149032Y413139D01*
X149171Y413250D01*
X149254Y413333D01*
X149282Y413361D01*
X149421Y413583D01*
X149532Y413805D01*
X149698Y414305D01*
X149754Y414527D01*
X149782Y414721D01*
X149810Y414832D01*
Y414888D01*
X141342D01*
Y415360D01*
X141370Y416137D01*
X141453Y416831D01*
X141564Y417414D01*
X141703Y417942D01*
X141842Y418330D01*
X141897Y418497D01*
X141953Y418636D01*
X142008Y418747D01*
X142036Y418830D01*
X142064Y418858D01*
Y418885D01*
X142369Y419357D01*
X142702Y419774D01*
X143035Y420135D01*
X143396Y420440D01*
X143702Y420662D01*
X143952Y420829D01*
X144118Y420940D01*
X144146Y420968D01*
X144174D01*
X144729Y421218D01*
X145340Y421384D01*
X145950Y421523D01*
X146533Y421606D01*
X147061Y421662D01*
X147311D01*
X147505Y421689D01*
X147894D01*
X148421Y421662D01*
D02*
G37*
G36*
X90537D02*
X91037Y421634D01*
X91509Y421551D01*
X91953Y421440D01*
X92369Y421329D01*
X92730Y421190D01*
X93091Y421023D01*
X93397Y420884D01*
X93674Y420746D01*
X93896Y420579D01*
X94118Y420440D01*
X94285Y420329D01*
X94424Y420218D01*
X94507Y420163D01*
X94563Y420107D01*
X94591Y420079D01*
X94868Y419774D01*
X95118Y419441D01*
X95340Y419108D01*
X95534Y418747D01*
X95701Y418386D01*
X95840Y418053D01*
X96034Y417386D01*
X96090Y417081D01*
X96145Y416803D01*
X96173Y416526D01*
X96201Y416304D01*
X96228Y416137D01*
Y415998D01*
Y415915D01*
Y415887D01*
X96201Y415221D01*
X96090Y414638D01*
X95979Y414083D01*
X95812Y413638D01*
X95673Y413250D01*
X95534Y412972D01*
X95507Y412861D01*
X95451Y412778D01*
X95423Y412750D01*
Y412722D01*
X95090Y412250D01*
X94757Y411862D01*
X94396Y411529D01*
X94063Y411251D01*
X93785Y411057D01*
X93535Y410890D01*
X93397Y410807D01*
X93341Y410779D01*
X92841Y410585D01*
X92286Y410418D01*
X91703Y410307D01*
X91148Y410252D01*
X90648Y410196D01*
X90454D01*
X90260Y410168D01*
X89427D01*
X89010Y410196D01*
X88594Y410224D01*
X88233Y410279D01*
X87872Y410335D01*
X87567Y410390D01*
X87289Y410474D01*
X87011Y410529D01*
X86789Y410585D01*
X86595Y410668D01*
X86428Y410723D01*
X86290Y410779D01*
X86179Y410835D01*
X86095Y410862D01*
X86067Y410890D01*
X86040D01*
X85540Y411195D01*
X85096Y411556D01*
X84707Y411973D01*
X84374Y412361D01*
X84096Y412722D01*
X83874Y413000D01*
X83819Y413111D01*
X83763Y413194D01*
X83708Y413250D01*
Y413278D01*
X87872Y413666D01*
X88011Y413472D01*
X88177Y413333D01*
X88288Y413194D01*
X88399Y413111D01*
X88566Y412972D01*
X88594Y412944D01*
X88622D01*
X88844Y412833D01*
X89038Y412778D01*
X89399Y412667D01*
X89565D01*
X89677Y412639D01*
X89788D01*
X90148Y412667D01*
X90454Y412750D01*
X90731Y412861D01*
X90954Y413000D01*
X91148Y413139D01*
X91287Y413250D01*
X91370Y413333D01*
X91398Y413361D01*
X91537Y413583D01*
X91648Y413805D01*
X91814Y414305D01*
X91870Y414527D01*
X91897Y414721D01*
X91925Y414832D01*
Y414888D01*
X83458D01*
Y415360D01*
X83486Y416137D01*
X83569Y416831D01*
X83680Y417414D01*
X83819Y417942D01*
X83958Y418330D01*
X84013Y418497D01*
X84069Y418636D01*
X84124Y418747D01*
X84152Y418830D01*
X84180Y418858D01*
Y418885D01*
X84485Y419357D01*
X84818Y419774D01*
X85151Y420135D01*
X85512Y420440D01*
X85818Y420662D01*
X86067Y420829D01*
X86234Y420940D01*
X86262Y420968D01*
X86290D01*
X86845Y421218D01*
X87456Y421384D01*
X88066Y421523D01*
X88649Y421606D01*
X89177Y421662D01*
X89427D01*
X89621Y421689D01*
X90010D01*
X90537Y421662D01*
D02*
G37*
G36*
X233679Y410418D02*
X229459D01*
Y414138D01*
X233679D01*
Y410418D01*
D02*
G37*
G36*
X226600D02*
X222380D01*
Y414138D01*
X226600D01*
Y410418D01*
D02*
G37*
G36*
X219520D02*
X215301D01*
Y414138D01*
X219520D01*
Y410418D01*
D02*
G37*
G36*
X212441D02*
X208221D01*
Y414138D01*
X212441D01*
Y410418D01*
D02*
G37*
G36*
X205362D02*
X201142D01*
Y414138D01*
X205362D01*
Y410418D01*
D02*
G37*
G36*
X198282D02*
X194062D01*
Y414138D01*
X198282D01*
Y410418D01*
D02*
G37*
G36*
X191203D02*
X186983D01*
Y414138D01*
X191203D01*
Y410418D01*
D02*
G37*
G36*
X184124D02*
X179904D01*
Y414138D01*
X184124D01*
Y410418D01*
D02*
G37*
G36*
X169854D02*
X161497D01*
X161192Y410446D01*
X160859Y410474D01*
X160498Y410529D01*
X160165Y410557D01*
X159887Y410585D01*
X159776D01*
X159693Y410612D01*
X159637D01*
X159221Y410696D01*
X158860Y410751D01*
X158555Y410835D01*
X158305Y410918D01*
X158110Y411001D01*
X157972Y411057D01*
X157888Y411112D01*
X157860D01*
X157527Y411334D01*
X157222Y411584D01*
X156944Y411834D01*
X156722Y412084D01*
X156556Y412278D01*
X156445Y412445D01*
X156361Y412584D01*
X156334Y412611D01*
X156139Y412972D01*
X156000Y413333D01*
X155917Y413694D01*
X155834Y414027D01*
X155806Y414305D01*
X155778Y414527D01*
Y414666D01*
Y414721D01*
X155806Y415249D01*
X155889Y415721D01*
X156028Y416137D01*
X156167Y416470D01*
X156306Y416748D01*
X156445Y416970D01*
X156528Y417081D01*
X156556Y417136D01*
X156889Y417470D01*
X157250Y417747D01*
X157666Y417997D01*
X158055Y418191D01*
X158416Y418330D01*
X158693Y418414D01*
X158804Y418469D01*
X158888D01*
X158943Y418497D01*
X158971D01*
X158582Y418663D01*
X158249Y418830D01*
X157972Y418997D01*
X157750Y419163D01*
X157555Y419302D01*
X157444Y419413D01*
X157361Y419496D01*
X157333Y419524D01*
X157055Y419913D01*
X156833Y420301D01*
X156694Y420690D01*
X156583Y421051D01*
X156528Y421356D01*
X156472Y421606D01*
Y421773D01*
Y421801D01*
Y421828D01*
Y422134D01*
X156528Y422411D01*
X156667Y422939D01*
X156861Y423383D01*
X157055Y423772D01*
X157277Y424105D01*
X157472Y424327D01*
X157611Y424466D01*
X157638Y424521D01*
X157666D01*
X158166Y424882D01*
X158693Y425160D01*
X159249Y425354D01*
X159804Y425493D01*
X160304Y425576D01*
X160498Y425604D01*
X160692D01*
X160831Y425632D01*
X169854Y425632D01*
Y410418D01*
D02*
G37*
G36*
X98783Y421662D02*
X99060Y421634D01*
X99338Y421551D01*
X99560Y421467D01*
X99726Y421384D01*
X99865Y421329D01*
X99949Y421273D01*
X99976Y421245D01*
X100198Y421051D01*
X100393Y420801D01*
X100781Y420274D01*
X100920Y420024D01*
X101031Y419829D01*
X101115Y419691D01*
X101142Y419635D01*
Y421440D01*
X105085D01*
Y410418D01*
X100837D01*
Y414110D01*
Y414582D01*
X100809Y415027D01*
X100781Y415415D01*
X100726Y415776D01*
X100698Y416109D01*
X100643Y416415D01*
X100587Y416665D01*
X100504Y416914D01*
X100448Y417109D01*
X100393Y417275D01*
X100337Y417414D01*
X100309Y417525D01*
X100226Y417664D01*
X100198Y417719D01*
X100004Y417942D01*
X99782Y418108D01*
X99588Y418247D01*
X99366Y418330D01*
X99171Y418386D01*
X99032Y418414D01*
X98727D01*
X98533Y418358D01*
X98144Y418247D01*
X97978Y418191D01*
X97839Y418136D01*
X97755Y418108D01*
X97728Y418080D01*
X96395Y421106D01*
X96811Y421301D01*
X97200Y421440D01*
X97533Y421551D01*
X97839Y421606D01*
X98089Y421662D01*
X98283Y421689D01*
X98449D01*
X98783Y421662D01*
D02*
G37*
G36*
X74268Y410418D02*
X70049D01*
Y414138D01*
X74268D01*
Y410418D01*
D02*
G37*
G36*
X67189D02*
X62969D01*
Y414138D01*
X67189D01*
Y410418D01*
D02*
G37*
G36*
X60110D02*
X55890D01*
Y414138D01*
X60110D01*
Y410418D01*
D02*
G37*
G36*
X53031D02*
X48811D01*
Y414138D01*
X53031D01*
Y410418D01*
D02*
G37*
G36*
X45951D02*
X41731D01*
Y414138D01*
X45951D01*
Y410418D01*
D02*
G37*
G36*
X38872D02*
X34652D01*
Y414138D01*
X38872D01*
Y410418D01*
D02*
G37*
G36*
X31792D02*
X27573D01*
Y414138D01*
X31792D01*
Y410418D01*
D02*
G37*
G36*
X24713D02*
X20493D01*
Y414138D01*
X24713D01*
Y410418D01*
D02*
G37*
G36*
X133277Y450630D02*
X129057D01*
Y453517D01*
X133277D01*
Y450630D01*
D02*
G37*
G36*
X245464Y453739D02*
X246130Y453683D01*
X246713Y453600D01*
X247185Y453489D01*
X247574Y453378D01*
X247852Y453295D01*
X248018Y453239D01*
X248046Y453211D01*
X248074D01*
X248518Y452989D01*
X248879Y452739D01*
X249212Y452490D01*
X249462Y452240D01*
X249684Y452018D01*
X249851Y451851D01*
X249934Y451740D01*
X249962Y451684D01*
X250184Y451268D01*
X250378Y450824D01*
X250517Y450380D01*
X250656Y449935D01*
X250739Y449519D01*
X250795Y449214D01*
X250822Y449075D01*
X250850Y448992D01*
Y448936D01*
Y448908D01*
X246602Y448575D01*
X246519Y449019D01*
X246436Y449380D01*
X246325Y449686D01*
X246214Y449935D01*
X246103Y450130D01*
X246019Y450269D01*
X245964Y450324D01*
X245936Y450352D01*
X245714Y450518D01*
X245492Y450657D01*
X245270Y450741D01*
X245075Y450824D01*
X244881Y450852D01*
X244742Y450879D01*
X244604D01*
X244326Y450852D01*
X244076Y450796D01*
X243854Y450713D01*
X243660Y450630D01*
X243493Y450546D01*
X243382Y450463D01*
X243326Y450407D01*
X243299Y450380D01*
X243132Y450185D01*
X242993Y449991D01*
X242910Y449797D01*
X242827Y449602D01*
X242799Y449436D01*
X242771Y449297D01*
Y449214D01*
Y449186D01*
X242799Y448936D01*
X242854Y448714D01*
X242938Y448464D01*
X243021Y448270D01*
X243132Y448075D01*
X243215Y447937D01*
X243271Y447853D01*
X243299Y447826D01*
X243410Y447687D01*
X243549Y447520D01*
X243882Y447187D01*
X244298Y446854D01*
X244687Y446493D01*
X245075Y446188D01*
X245381Y445938D01*
X245520Y445854D01*
X245603Y445771D01*
X245658Y445743D01*
X245686Y445716D01*
X246241Y445299D01*
X246741Y444911D01*
X247213Y444522D01*
X247630Y444161D01*
X248018Y443800D01*
X248351Y443495D01*
X248657Y443189D01*
X248907Y442912D01*
X249129Y442662D01*
X249351Y442440D01*
X249490Y442245D01*
X249629Y442107D01*
X249739Y441968D01*
X249795Y441884D01*
X249823Y441829D01*
X249851Y441801D01*
X250212Y441190D01*
X250517Y440552D01*
X250739Y439969D01*
X250905Y439441D01*
X251044Y438969D01*
X251072Y438775D01*
X251100Y438609D01*
X251128Y438497D01*
X251155Y438386D01*
Y438331D01*
Y438303D01*
X238440D01*
Y441746D01*
X245075D01*
X244659Y442107D01*
X244354Y442412D01*
X244243Y442495D01*
X244159Y442579D01*
X244104Y442606D01*
X244076Y442634D01*
X243882Y442801D01*
X243632Y442995D01*
X243326Y443189D01*
X243049Y443384D01*
X242771Y443578D01*
X242549Y443745D01*
X242410Y443856D01*
X242355Y443883D01*
X241966Y444161D01*
X241605Y444439D01*
X241272Y444716D01*
X240967Y444966D01*
X240717Y445216D01*
X240467Y445438D01*
X240051Y445854D01*
X239745Y446188D01*
X239551Y446437D01*
X239412Y446604D01*
X239384Y446660D01*
X239107Y447132D01*
X238912Y447603D01*
X238746Y448075D01*
X238662Y448464D01*
X238607Y448825D01*
X238551Y449103D01*
Y449186D01*
Y449269D01*
Y449297D01*
Y449325D01*
X238579Y449797D01*
X238662Y450241D01*
X238773Y450657D01*
X238912Y450990D01*
X239051Y451296D01*
X239162Y451490D01*
X239245Y451629D01*
X239273Y451684D01*
X239551Y452045D01*
X239884Y452379D01*
X240217Y452628D01*
X240522Y452850D01*
X240800Y453017D01*
X241050Y453156D01*
X241189Y453211D01*
X241217Y453239D01*
X241244D01*
X241744Y453406D01*
X242299Y453545D01*
X242882Y453628D01*
X243438Y453711D01*
X243937Y453739D01*
X244159D01*
X244354Y453767D01*
X244715D01*
X245464Y453739D01*
D02*
G37*
G36*
X231278D02*
X231944Y453683D01*
X232527Y453600D01*
X232999Y453489D01*
X233388Y453378D01*
X233665Y453295D01*
X233832Y453239D01*
X233860Y453211D01*
X233887D01*
X234331Y452989D01*
X234692Y452739D01*
X235026Y452490D01*
X235275Y452240D01*
X235497Y452018D01*
X235664Y451851D01*
X235747Y451740D01*
X235775Y451684D01*
X235997Y451268D01*
X236192Y450824D01*
X236330Y450380D01*
X236469Y449935D01*
X236553Y449519D01*
X236608Y449214D01*
X236636Y449075D01*
X236663Y448992D01*
Y448936D01*
Y448908D01*
X232416Y448575D01*
X232333Y449019D01*
X232249Y449380D01*
X232138Y449686D01*
X232027Y449935D01*
X231916Y450130D01*
X231833Y450269D01*
X231777Y450324D01*
X231750Y450352D01*
X231528Y450518D01*
X231305Y450657D01*
X231083Y450741D01*
X230889Y450824D01*
X230695Y450852D01*
X230556Y450879D01*
X230417D01*
X230139Y450852D01*
X229890Y450796D01*
X229667Y450713D01*
X229473Y450630D01*
X229307Y450546D01*
X229195Y450463D01*
X229140Y450407D01*
X229112Y450380D01*
X228946Y450185D01*
X228807Y449991D01*
X228724Y449797D01*
X228640Y449602D01*
X228612Y449436D01*
X228585Y449297D01*
Y449214D01*
Y449186D01*
X228612Y448936D01*
X228668Y448714D01*
X228751Y448464D01*
X228835Y448270D01*
X228946Y448075D01*
X229029Y447937D01*
X229084Y447853D01*
X229112Y447826D01*
X229223Y447687D01*
X229362Y447520D01*
X229695Y447187D01*
X230112Y446854D01*
X230500Y446493D01*
X230889Y446188D01*
X231194Y445938D01*
X231333Y445854D01*
X231416Y445771D01*
X231472Y445743D01*
X231500Y445716D01*
X232055Y445299D01*
X232555Y444911D01*
X233027Y444522D01*
X233443Y444161D01*
X233832Y443800D01*
X234165Y443495D01*
X234470Y443189D01*
X234720Y442912D01*
X234942Y442662D01*
X235164Y442440D01*
X235303Y442245D01*
X235442Y442107D01*
X235553Y441968D01*
X235609Y441884D01*
X235636Y441829D01*
X235664Y441801D01*
X236025Y441190D01*
X236330Y440552D01*
X236553Y439969D01*
X236719Y439441D01*
X236858Y438969D01*
X236886Y438775D01*
X236913Y438609D01*
X236941Y438497D01*
X236969Y438386D01*
Y438331D01*
Y438303D01*
X224254D01*
Y441746D01*
X230889D01*
X230473Y442107D01*
X230167Y442412D01*
X230056Y442495D01*
X229973Y442579D01*
X229917Y442606D01*
X229890Y442634D01*
X229695Y442801D01*
X229445Y442995D01*
X229140Y443189D01*
X228862Y443384D01*
X228585Y443578D01*
X228363Y443745D01*
X228224Y443856D01*
X228168Y443883D01*
X227780Y444161D01*
X227419Y444439D01*
X227086Y444716D01*
X226780Y444966D01*
X226530Y445216D01*
X226280Y445438D01*
X225864Y445854D01*
X225559Y446188D01*
X225364Y446437D01*
X225226Y446604D01*
X225198Y446660D01*
X224920Y447132D01*
X224726Y447603D01*
X224559Y448075D01*
X224476Y448464D01*
X224420Y448825D01*
X224365Y449103D01*
Y449186D01*
Y449269D01*
Y449297D01*
Y449325D01*
X224393Y449797D01*
X224476Y450241D01*
X224587Y450657D01*
X224726Y450990D01*
X224865Y451296D01*
X224976Y451490D01*
X225059Y451629D01*
X225087Y451684D01*
X225364Y452045D01*
X225697Y452379D01*
X226031Y452628D01*
X226336Y452850D01*
X226614Y453017D01*
X226863Y453156D01*
X227002Y453211D01*
X227030Y453239D01*
X227058D01*
X227558Y453406D01*
X228113Y453545D01*
X228696Y453628D01*
X229251Y453711D01*
X229751Y453739D01*
X229973D01*
X230167Y453767D01*
X230528D01*
X231278Y453739D01*
D02*
G37*
G36*
X150850Y438303D02*
X146159D01*
Y444466D01*
X140995D01*
Y438303D01*
X136275D01*
Y453517D01*
X140995D01*
Y448214D01*
X146159D01*
Y453517D01*
X150850D01*
Y438303D01*
D02*
G37*
G36*
X112178D02*
X107958D01*
Y443578D01*
X107930Y444105D01*
X107875Y444550D01*
X107819Y444911D01*
X107708Y445216D01*
X107625Y445410D01*
X107569Y445577D01*
X107514Y445660D01*
X107486Y445688D01*
X107292Y445882D01*
X107097Y446021D01*
X106875Y446132D01*
X106681Y446188D01*
X106514Y446243D01*
X106376Y446271D01*
X106237D01*
X105987Y446243D01*
X105765Y446215D01*
X105598Y446132D01*
X105432Y446049D01*
X105321Y445965D01*
X105237Y445910D01*
X105182Y445854D01*
X105154Y445827D01*
X105015Y445632D01*
X104932Y445410D01*
X104821Y444938D01*
X104793Y444716D01*
X104765Y444522D01*
Y444411D01*
Y444355D01*
Y438303D01*
X100518D01*
Y445299D01*
X100573Y446049D01*
X100684Y446715D01*
X100823Y447270D01*
X101017Y447714D01*
X101212Y448075D01*
X101350Y448325D01*
X101462Y448464D01*
X101517Y448520D01*
X101934Y448881D01*
X102350Y449130D01*
X102822Y449325D01*
X103238Y449436D01*
X103627Y449519D01*
X103960Y449547D01*
X104071Y449575D01*
X104238D01*
X104654Y449547D01*
X105043Y449519D01*
X105404Y449464D01*
X105681Y449380D01*
X105931Y449297D01*
X106098Y449241D01*
X106237Y449214D01*
X106264Y449186D01*
X106570Y449019D01*
X106875Y448825D01*
X107153Y448603D01*
X107430Y448409D01*
X107653Y448214D01*
X107819Y448048D01*
X107930Y447937D01*
X107958Y447909D01*
Y453517D01*
X112178D01*
Y438303D01*
D02*
G37*
G36*
X122755Y449547D02*
X123116Y449519D01*
X123755Y449352D01*
X124310Y449158D01*
X124782Y448908D01*
X125170Y448658D01*
X125448Y448436D01*
X125531Y448353D01*
X125615Y448270D01*
X125642Y448242D01*
X125670Y448214D01*
X125892Y447937D01*
X126059Y447659D01*
X126364Y447020D01*
X126586Y446382D01*
X126725Y445743D01*
X126836Y445188D01*
X126864Y444938D01*
Y444716D01*
X126892Y444550D01*
Y444411D01*
Y444328D01*
Y444300D01*
X126864Y443495D01*
X126753Y442773D01*
X126586Y442162D01*
X126420Y441634D01*
X126336Y441412D01*
X126253Y441218D01*
X126170Y441051D01*
X126087Y440913D01*
X126031Y440802D01*
X125976Y440718D01*
X125948Y440691D01*
Y440663D01*
X125670Y440330D01*
X125393Y440024D01*
X125087Y439775D01*
X124810Y439552D01*
X124504Y439358D01*
X124199Y439219D01*
X123921Y439080D01*
X123644Y438997D01*
X123144Y438858D01*
X122922Y438803D01*
X122727Y438775D01*
X122589Y438747D01*
X122367D01*
X121950Y438775D01*
X121561Y438830D01*
X121201Y438914D01*
X120867Y438997D01*
X120618Y439080D01*
X120395Y439164D01*
X120284Y439219D01*
X120229Y439247D01*
X120007Y439386D01*
X119785Y439552D01*
X119563Y439719D01*
X119368Y439913D01*
X119202Y440052D01*
X119091Y440191D01*
X119007Y440274D01*
X118980Y440302D01*
Y438636D01*
X119007Y438220D01*
X119063Y437887D01*
X119118Y437609D01*
X119202Y437359D01*
X119313Y437193D01*
X119368Y437081D01*
X119424Y436998D01*
X119452Y436970D01*
X119646Y436804D01*
X119868Y436693D01*
X120090Y436582D01*
X120312Y436526D01*
X120506Y436498D01*
X120673Y436471D01*
X120840D01*
X121089Y436498D01*
X121312Y436526D01*
X121506Y436582D01*
X121672Y436637D01*
X121811Y436693D01*
X121922Y436748D01*
X121978Y436804D01*
X122006D01*
X122117Y436915D01*
X122228Y437026D01*
X122367Y437276D01*
X122422Y437387D01*
X122450Y437498D01*
X122478Y437553D01*
Y437581D01*
X126586Y438053D01*
Y437831D01*
Y437664D01*
Y437526D01*
Y437498D01*
X126559Y437193D01*
X126531Y436915D01*
X126392Y436387D01*
X126198Y435915D01*
X125976Y435555D01*
X125753Y435249D01*
X125559Y435027D01*
X125420Y434888D01*
X125365Y434833D01*
X125115Y434666D01*
X124810Y434500D01*
X124476Y434361D01*
X124116Y434250D01*
X123366Y434083D01*
X122616Y433972D01*
X122255Y433917D01*
X121895Y433889D01*
X121589Y433861D01*
X121312D01*
X121089Y433833D01*
X120257D01*
X119785Y433889D01*
X119340Y433917D01*
X118952Y433972D01*
X118646Y434028D01*
X118424Y434055D01*
X118286Y434111D01*
X118230D01*
X117814Y434222D01*
X117453Y434361D01*
X117147Y434472D01*
X116870Y434611D01*
X116648Y434749D01*
X116509Y434860D01*
X116398Y434916D01*
X116370Y434944D01*
X116092Y435166D01*
X115870Y435416D01*
X115648Y435693D01*
X115482Y435915D01*
X115343Y436138D01*
X115259Y436304D01*
X115204Y436443D01*
X115176Y436471D01*
X115037Y436832D01*
X114926Y437165D01*
X114843Y437498D01*
X114788Y437803D01*
X114760Y438053D01*
X114732Y438247D01*
Y438359D01*
Y438414D01*
Y438914D01*
Y449325D01*
X118702D01*
Y447687D01*
X118980Y448048D01*
X119257Y448325D01*
X119507Y448575D01*
X119757Y448797D01*
X119951Y448936D01*
X120118Y449047D01*
X120229Y449103D01*
X120257Y449130D01*
X120590Y449269D01*
X120951Y449380D01*
X121312Y449464D01*
X121645Y449519D01*
X121950Y449547D01*
X122172Y449575D01*
X122394D01*
X122755Y449547D01*
D02*
G37*
G36*
X25865Y449547D02*
X26226Y449519D01*
X26865Y449352D01*
X27420Y449158D01*
X27892Y448908D01*
X28280Y448658D01*
X28558Y448436D01*
X28641Y448353D01*
X28725Y448270D01*
X28752Y448242D01*
X28780Y448214D01*
X29002Y447937D01*
X29169Y447659D01*
X29474Y447020D01*
X29696Y446382D01*
X29835Y445743D01*
X29946Y445188D01*
X29974Y444938D01*
Y444716D01*
X30002Y444549D01*
Y444411D01*
Y444327D01*
Y444300D01*
X29974Y443495D01*
X29863Y442773D01*
X29696Y442162D01*
X29530Y441634D01*
X29446Y441412D01*
X29363Y441218D01*
X29280Y441051D01*
X29197Y440913D01*
X29141Y440802D01*
X29086Y440718D01*
X29058Y440691D01*
Y440663D01*
X28780Y440330D01*
X28503Y440024D01*
X28197Y439774D01*
X27919Y439552D01*
X27614Y439358D01*
X27309Y439219D01*
X27031Y439080D01*
X26753Y438997D01*
X26254Y438858D01*
X26032Y438803D01*
X25837Y438775D01*
X25699Y438747D01*
X25477D01*
X25060Y438775D01*
X24671Y438830D01*
X24310Y438914D01*
X23977Y438997D01*
X23727Y439080D01*
X23505Y439164D01*
X23394Y439219D01*
X23339Y439247D01*
X23117Y439386D01*
X22895Y439552D01*
X22673Y439719D01*
X22478Y439913D01*
X22312Y440052D01*
X22201Y440191D01*
X22117Y440274D01*
X22090Y440302D01*
Y438636D01*
X22117Y438220D01*
X22173Y437887D01*
X22228Y437609D01*
X22312Y437359D01*
X22423Y437192D01*
X22478Y437081D01*
X22534Y436998D01*
X22561Y436970D01*
X22756Y436804D01*
X22978Y436693D01*
X23200Y436582D01*
X23422Y436526D01*
X23616Y436498D01*
X23783Y436471D01*
X23949D01*
X24199Y436498D01*
X24422Y436526D01*
X24616Y436582D01*
X24782Y436637D01*
X24921Y436693D01*
X25032Y436748D01*
X25088Y436804D01*
X25115D01*
X25227Y436915D01*
X25338Y437026D01*
X25477Y437276D01*
X25532Y437387D01*
X25560Y437498D01*
X25587Y437553D01*
Y437581D01*
X29696Y438053D01*
Y437831D01*
Y437664D01*
Y437526D01*
Y437498D01*
X29669Y437192D01*
X29641Y436915D01*
X29502Y436387D01*
X29308Y435915D01*
X29086Y435555D01*
X28863Y435249D01*
X28669Y435027D01*
X28530Y434888D01*
X28475Y434833D01*
X28225Y434666D01*
X27919Y434500D01*
X27586Y434361D01*
X27225Y434250D01*
X26476Y434083D01*
X25726Y433972D01*
X25365Y433917D01*
X25004Y433889D01*
X24699Y433861D01*
X24422D01*
X24199Y433833D01*
X23366D01*
X22895Y433889D01*
X22450Y433917D01*
X22062Y433972D01*
X21756Y434028D01*
X21534Y434055D01*
X21395Y434111D01*
X21340D01*
X20924Y434222D01*
X20563Y434361D01*
X20257Y434472D01*
X19979Y434611D01*
X19757Y434749D01*
X19619Y434860D01*
X19508Y434916D01*
X19480Y434944D01*
X19202Y435166D01*
X18980Y435416D01*
X18758Y435693D01*
X18591Y435915D01*
X18453Y436138D01*
X18369Y436304D01*
X18314Y436443D01*
X18286Y436471D01*
X18147Y436832D01*
X18036Y437165D01*
X17953Y437498D01*
X17897Y437803D01*
X17870Y438053D01*
X17842Y438247D01*
Y438359D01*
Y438414D01*
Y438914D01*
Y449325D01*
X21812D01*
Y447687D01*
X22090Y448048D01*
X22367Y448325D01*
X22617Y448575D01*
X22867Y448797D01*
X23061Y448936D01*
X23228Y449047D01*
X23339Y449103D01*
X23366Y449130D01*
X23700Y449269D01*
X24061Y449380D01*
X24422Y449463D01*
X24755Y449519D01*
X25060Y449547D01*
X25282Y449575D01*
X25504D01*
X25865Y449547D01*
D02*
G37*
G36*
X39024Y449547D02*
X39385Y449519D01*
X39718Y449491D01*
X39996Y449436D01*
X40218Y449408D01*
X40329Y449380D01*
X40385D01*
X40746Y449325D01*
X41051Y449241D01*
X41329Y449158D01*
X41551Y449075D01*
X41717Y448992D01*
X41856Y448936D01*
X41939Y448908D01*
X41967Y448881D01*
X42245Y448714D01*
X42495Y448520D01*
X42717Y448353D01*
X42883Y448186D01*
X43022Y448048D01*
X43133Y447937D01*
X43189Y447853D01*
X43217Y447826D01*
X43355Y447576D01*
X43494Y447298D01*
X43605Y447020D01*
X43689Y446771D01*
X43772Y446521D01*
X43800Y446326D01*
X43855Y446215D01*
Y446160D01*
X39802Y445743D01*
X39718Y445993D01*
X39607Y446188D01*
X39496Y446354D01*
X39385Y446493D01*
X39302Y446604D01*
X39219Y446660D01*
X39191Y446715D01*
X39163D01*
X38941Y446826D01*
X38691Y446909D01*
X38191Y447020D01*
X37969D01*
X37775Y447048D01*
X37331D01*
X37081Y446993D01*
X36887Y446937D01*
X36748Y446882D01*
X36609Y446826D01*
X36526Y446771D01*
X36498Y446743D01*
X36470Y446715D01*
X36359Y446576D01*
X36276Y446410D01*
X36165Y446077D01*
Y445910D01*
X36137Y445771D01*
Y445688D01*
Y445660D01*
X36720Y445438D01*
X36970Y445355D01*
X37192Y445271D01*
X37386Y445216D01*
X37525Y445160D01*
X37636Y445133D01*
X37664D01*
X37803Y445105D01*
X37997Y445049D01*
X38441Y444938D01*
X38941Y444827D01*
X39469Y444716D01*
X39941Y444633D01*
X40163Y444577D01*
X40357Y444550D01*
X40524Y444522D01*
X40635Y444494D01*
X40718Y444466D01*
X40746D01*
X41107Y444383D01*
X41440Y444300D01*
X41995Y444105D01*
X42467Y443911D01*
X42856Y443717D01*
X43133Y443550D01*
X43327Y443411D01*
X43439Y443300D01*
X43466Y443273D01*
X43716Y442967D01*
X43883Y442606D01*
X44022Y442273D01*
X44105Y441940D01*
X44160Y441662D01*
X44188Y441440D01*
Y441274D01*
Y441246D01*
Y441218D01*
X44133Y440718D01*
X44022Y440302D01*
X43883Y439913D01*
X43689Y439580D01*
X43494Y439302D01*
X43355Y439108D01*
X43244Y438997D01*
X43189Y438942D01*
X42772Y438636D01*
X42273Y438442D01*
X41773Y438275D01*
X41301Y438164D01*
X40857Y438109D01*
X40662Y438081D01*
X40496D01*
X40357Y438053D01*
X40163D01*
X39635Y438081D01*
X39135Y438136D01*
X38691Y438192D01*
X38303Y438275D01*
X37997Y438359D01*
X37747Y438442D01*
X37608Y438470D01*
X37553Y438497D01*
X37248Y438636D01*
X36970Y438830D01*
X36692Y438997D01*
X36442Y439192D01*
X36220Y439358D01*
X36054Y439497D01*
X35943Y439608D01*
X35915Y439636D01*
X35859Y439330D01*
X35804Y439108D01*
X35776Y438997D01*
Y438942D01*
X35693Y438747D01*
X35582Y438553D01*
X35471Y438386D01*
X35443Y438331D01*
Y438303D01*
X31473Y438303D01*
X31695Y438747D01*
X31751Y438942D01*
X31806Y439108D01*
X31862Y439247D01*
X31890Y439330D01*
X31917Y439386D01*
Y439413D01*
X31945Y439608D01*
X31973Y439802D01*
X32001Y440191D01*
Y440357D01*
Y440496D01*
Y440607D01*
Y440635D01*
Y445493D01*
Y445799D01*
X32056Y446077D01*
X32112Y446354D01*
X32167Y446604D01*
X32223Y446826D01*
X32278Y446993D01*
X32306Y447104D01*
X32334Y447131D01*
X32445Y447437D01*
X32584Y447714D01*
X32722Y447937D01*
X32861Y448131D01*
X32972Y448270D01*
X33083Y448381D01*
X33139Y448436D01*
X33167Y448464D01*
X33472Y448686D01*
X33805Y448881D01*
X34111Y449047D01*
X34416Y449158D01*
X34694Y449241D01*
X34916Y449297D01*
X35054Y449352D01*
X35110D01*
X35554Y449436D01*
X36054Y449491D01*
X36581Y449519D01*
X37053Y449547D01*
X37497Y449575D01*
X38608D01*
X39024Y449547D01*
D02*
G37*
G36*
X203349Y438303D02*
X198268D01*
X192605Y453517D01*
X197380D01*
X200767Y442551D01*
X204182Y453517D01*
X209096D01*
X203349Y438303D01*
D02*
G37*
G36*
X86387Y438303D02*
X81306D01*
X75643Y453517D01*
X80418D01*
X83805Y442551D01*
X87220Y453517D01*
X92134D01*
X86387Y438303D01*
D02*
G37*
G36*
X168035Y453739D02*
X168674Y453683D01*
X169257Y453572D01*
X169812Y453461D01*
X170312Y453295D01*
X170784Y453128D01*
X171228Y452934D01*
X171589Y452767D01*
X171950Y452573D01*
X172227Y452379D01*
X172477Y452212D01*
X172699Y452045D01*
X172838Y451934D01*
X172977Y451823D01*
X173032Y451768D01*
X173060Y451740D01*
X173421Y451351D01*
X173727Y450907D01*
X173976Y450463D01*
X174226Y449991D01*
X174421Y449491D01*
X174559Y449019D01*
X174698Y448547D01*
X174809Y448075D01*
X174893Y447631D01*
X174948Y447243D01*
X175004Y446882D01*
X175031Y446548D01*
Y446299D01*
X175059Y446104D01*
Y445993D01*
Y445938D01*
X175004Y444938D01*
X174948Y444466D01*
X174893Y444022D01*
X174782Y443606D01*
X174698Y443217D01*
X174587Y442856D01*
X174476Y442551D01*
X174393Y442245D01*
X174282Y441995D01*
X174171Y441773D01*
X174088Y441607D01*
X174032Y441468D01*
X173976Y441357D01*
X173921Y441301D01*
Y441274D01*
X173477Y440635D01*
X173032Y440108D01*
X172561Y439691D01*
X172144Y439330D01*
X171783Y439080D01*
X171478Y438886D01*
X171367Y438830D01*
X171283Y438775D01*
X171256Y438747D01*
X171228D01*
X170590Y438525D01*
X169923Y438359D01*
X169229Y438220D01*
X168591Y438136D01*
X168285Y438109D01*
X168008Y438081D01*
X167785D01*
X167563Y438053D01*
X167147D01*
X166425Y438081D01*
X165759Y438136D01*
X165176Y438247D01*
X164704Y438359D01*
X164315Y438442D01*
X164010Y438553D01*
X163927Y438581D01*
X163843Y438608D01*
X163815Y438636D01*
X163788D01*
X163316Y438886D01*
X162872Y439164D01*
X162511Y439441D01*
X162178Y439719D01*
X161928Y439997D01*
X161733Y440191D01*
X161595Y440330D01*
X161567Y440385D01*
X161234Y440857D01*
X160984Y441329D01*
X160734Y441801D01*
X160567Y442273D01*
X160401Y442662D01*
X160317Y442995D01*
X160290Y443106D01*
X160262Y443189D01*
X160234Y443245D01*
Y443273D01*
X164343Y444550D01*
X164482Y444022D01*
X164648Y443578D01*
X164815Y443189D01*
X164981Y442884D01*
X165120Y442634D01*
X165259Y442467D01*
X165342Y442356D01*
X165370Y442329D01*
X165648Y442079D01*
X165981Y441884D01*
X166314Y441773D01*
X166647Y441662D01*
X166953Y441607D01*
X167202Y441579D01*
X167425D01*
X167924Y441607D01*
X168341Y441718D01*
X168729Y441857D01*
X169035Y442051D01*
X169257Y442217D01*
X169451Y442356D01*
X169562Y442467D01*
X169590Y442495D01*
X169729Y442690D01*
X169840Y442912D01*
X170034Y443439D01*
X170145Y444022D01*
X170256Y444577D01*
X170312Y445105D01*
Y445355D01*
X170340Y445549D01*
Y445716D01*
Y445854D01*
Y445938D01*
Y445965D01*
X170312Y446687D01*
X170229Y447298D01*
X170145Y447798D01*
X170007Y448214D01*
X169895Y448520D01*
X169812Y448769D01*
X169729Y448881D01*
X169701Y448936D01*
X169534Y449158D01*
X169368Y449380D01*
X168979Y449686D01*
X168563Y449935D01*
X168174Y450074D01*
X167813Y450185D01*
X167508Y450213D01*
X167425Y450241D01*
X167008D01*
X166758Y450185D01*
X166536Y450158D01*
X166342Y450102D01*
X166203Y450047D01*
X166064Y449991D01*
X166009Y449963D01*
X165981Y449935D01*
X165592Y449686D01*
X165287Y449408D01*
X165176Y449297D01*
X165065Y449186D01*
X165037Y449130D01*
X165009Y449103D01*
X164926Y448964D01*
X164843Y448825D01*
X164676Y448492D01*
X164621Y448353D01*
X164565Y448214D01*
X164537Y448131D01*
Y448103D01*
X160373Y449019D01*
X160540Y449464D01*
X160706Y449880D01*
X160900Y450241D01*
X161095Y450602D01*
X161289Y450935D01*
X161511Y451213D01*
X161706Y451490D01*
X161900Y451712D01*
X162094Y451934D01*
X162261Y452101D01*
X162427Y452267D01*
X162566Y452379D01*
X162677Y452490D01*
X162761Y452545D01*
X162816Y452601D01*
X162844D01*
X163177Y452795D01*
X163510Y452989D01*
X164232Y453267D01*
X164981Y453489D01*
X165731Y453628D01*
X166064Y453683D01*
X166370Y453711D01*
X166647Y453739D01*
X166897D01*
X167091Y453767D01*
X167369D01*
X168035Y453739D01*
D02*
G37*
G36*
X52239Y451324D02*
Y449325D01*
X53794D01*
Y446243D01*
X52239D01*
Y442356D01*
X52211Y441718D01*
X52184Y441163D01*
X52128Y440691D01*
X52073Y440302D01*
X52017Y440024D01*
X51962Y439830D01*
X51906Y439691D01*
Y439663D01*
X51767Y439386D01*
X51573Y439136D01*
X51406Y438914D01*
X51212Y438747D01*
X51045Y438608D01*
X50907Y438525D01*
X50823Y438470D01*
X50796Y438442D01*
X50490Y438303D01*
X50101Y438220D01*
X49741Y438136D01*
X49352Y438109D01*
X48991Y438081D01*
X48713Y438053D01*
X48464D01*
X47936Y438081D01*
X47436Y438109D01*
X46937Y438164D01*
X46492Y438220D01*
X46104Y438275D01*
X45798Y438331D01*
X45687Y438359D01*
X45604Y438386D01*
X45521D01*
X45854Y441301D01*
X46159Y441218D01*
X46409Y441163D01*
X46631Y441107D01*
X46826Y441079D01*
X46964D01*
X47075Y441051D01*
X47159D01*
X47325Y441079D01*
X47492Y441107D01*
X47714Y441218D01*
X47825Y441329D01*
X47881Y441385D01*
X47908Y441496D01*
X47936Y441634D01*
X47964Y441940D01*
X47992Y442079D01*
Y442217D01*
Y442301D01*
Y442329D01*
Y446243D01*
X45660D01*
Y449325D01*
X47992D01*
Y453517D01*
X52239Y451324D01*
D02*
G37*
G36*
X10124Y449547D02*
X10624Y449519D01*
X11096Y449436D01*
X11540Y449325D01*
X11956Y449214D01*
X12317Y449075D01*
X12678Y448908D01*
X12983Y448769D01*
X13261Y448631D01*
X13483Y448464D01*
X13705Y448325D01*
X13872Y448214D01*
X14011Y448103D01*
X14094Y448048D01*
X14150Y447992D01*
X14177Y447964D01*
X14455Y447659D01*
X14705Y447326D01*
X14927Y446993D01*
X15121Y446632D01*
X15288Y446271D01*
X15426Y445938D01*
X15621Y445271D01*
X15676Y444966D01*
X15732Y444688D01*
X15760Y444411D01*
X15787Y444189D01*
X15815Y444022D01*
Y443883D01*
Y443800D01*
Y443772D01*
X15787Y443106D01*
X15676Y442523D01*
X15565Y441968D01*
X15399Y441524D01*
X15260Y441135D01*
X15121Y440857D01*
X15093Y440746D01*
X15038Y440663D01*
X15010Y440635D01*
Y440607D01*
X14677Y440135D01*
X14344Y439747D01*
X13983Y439413D01*
X13650Y439136D01*
X13372Y438942D01*
X13122Y438775D01*
X12983Y438692D01*
X12928Y438664D01*
X12428Y438470D01*
X11873Y438303D01*
X11290Y438192D01*
X10735Y438136D01*
X10235Y438081D01*
X10041D01*
X9846Y438053D01*
X9014D01*
X8597Y438081D01*
X8181Y438109D01*
X7820Y438164D01*
X7459Y438220D01*
X7153Y438275D01*
X6876Y438359D01*
X6598Y438414D01*
X6376Y438470D01*
X6182Y438553D01*
X6015Y438608D01*
X5876Y438664D01*
X5765Y438719D01*
X5682Y438747D01*
X5654Y438775D01*
X5627D01*
X5127Y439080D01*
X4683Y439441D01*
X4294Y439858D01*
X3961Y440246D01*
X3683Y440607D01*
X3461Y440885D01*
X3406Y440996D01*
X3350Y441079D01*
X3295Y441135D01*
Y441162D01*
X7459Y441551D01*
X7598Y441357D01*
X7764Y441218D01*
X7875Y441079D01*
X7986Y440996D01*
X8153Y440857D01*
X8181Y440829D01*
X8208D01*
X8431Y440718D01*
X8625Y440663D01*
X8986Y440552D01*
X9152D01*
X9263Y440524D01*
X9374D01*
X9735Y440552D01*
X10041Y440635D01*
X10318Y440746D01*
X10540Y440885D01*
X10735Y441024D01*
X10874Y441135D01*
X10957Y441218D01*
X10985Y441246D01*
X11123Y441468D01*
X11234Y441690D01*
X11401Y442190D01*
X11457Y442412D01*
X11484Y442606D01*
X11512Y442717D01*
Y442773D01*
X3045D01*
Y443245D01*
X3072Y444022D01*
X3156Y444716D01*
X3267Y445299D01*
X3406Y445827D01*
X3544Y446215D01*
X3600Y446382D01*
X3655Y446521D01*
X3711Y446632D01*
X3739Y446715D01*
X3766Y446743D01*
Y446771D01*
X4072Y447243D01*
X4405Y447659D01*
X4738Y448020D01*
X5099Y448325D01*
X5404Y448547D01*
X5654Y448714D01*
X5821Y448825D01*
X5849Y448853D01*
X5876D01*
X6432Y449103D01*
X7042Y449269D01*
X7653Y449408D01*
X8236Y449491D01*
X8764Y449547D01*
X9014D01*
X9208Y449575D01*
X9596D01*
X10124Y449547D01*
D02*
G37*
G36*
X192577Y438303D02*
X187774D01*
X187025Y440802D01*
X181694D01*
X180945Y438303D01*
X176003Y438303D01*
X181722Y453517D01*
X186886D01*
X192577Y438303D01*
D02*
G37*
G36*
X133277Y438303D02*
X129057D01*
Y449325D01*
X133277D01*
Y438303D01*
D02*
G37*
G36*
X60040D02*
X55793D01*
Y453517D01*
X60040D01*
Y438303D01*
D02*
G37*
G36*
X216730Y453739D02*
X217285Y453683D01*
X217785Y453600D01*
X218257Y453489D01*
X218674Y453350D01*
X219062Y453211D01*
X219423Y453045D01*
X219729Y452906D01*
X220006Y452739D01*
X220256Y452573D01*
X220450Y452434D01*
X220617Y452295D01*
X220756Y452184D01*
X220839Y452101D01*
X220895Y452045D01*
X220922Y452018D01*
X221200Y451657D01*
X221422Y451268D01*
X221644Y450824D01*
X221811Y450352D01*
X222088Y449352D01*
X222283Y448353D01*
X222338Y447881D01*
X222394Y447437D01*
X222421Y447020D01*
X222449Y446660D01*
X222477Y446382D01*
Y446160D01*
Y446021D01*
Y445965D01*
X222449Y445327D01*
X222421Y444716D01*
X222366Y444161D01*
X222311Y443689D01*
X222255Y443273D01*
X222227Y442967D01*
X222199Y442856D01*
X222172Y442773D01*
Y442745D01*
Y442717D01*
X222061Y442218D01*
X221922Y441746D01*
X221783Y441357D01*
X221644Y441051D01*
X221533Y440774D01*
X221422Y440607D01*
X221367Y440468D01*
X221339Y440441D01*
X221033Y440024D01*
X220700Y439663D01*
X220395Y439358D01*
X220062Y439108D01*
X219812Y438914D01*
X219590Y438775D01*
X219451Y438692D01*
X219395Y438664D01*
X218923Y438470D01*
X218396Y438303D01*
X217868Y438192D01*
X217369Y438136D01*
X216925Y438081D01*
X216758D01*
X216591Y438053D01*
X216258D01*
X215648Y438081D01*
X215065Y438136D01*
X214537Y438220D01*
X214065Y438359D01*
X213621Y438497D01*
X213232Y438664D01*
X212871Y438831D01*
X212566Y439025D01*
X212288Y439192D01*
X212066Y439358D01*
X211872Y439525D01*
X211705Y439663D01*
X211567Y439802D01*
X211483Y439885D01*
X211455Y439941D01*
X211428Y439969D01*
X211178Y440358D01*
X210956Y440774D01*
X210761Y441246D01*
X210595Y441718D01*
X210345Y442717D01*
X210178Y443717D01*
X210123Y444189D01*
X210095Y444605D01*
X210067Y444994D01*
X210040Y445355D01*
X210012Y445632D01*
Y445827D01*
Y445965D01*
Y446021D01*
X210040Y446687D01*
X210067Y447354D01*
X210151Y447937D01*
X210234Y448464D01*
X210317Y448908D01*
X210345Y449103D01*
X210373Y449241D01*
X210401Y449380D01*
X210428Y449464D01*
X210456Y449519D01*
Y449547D01*
X210539Y449880D01*
X210650Y450158D01*
X210734Y450435D01*
X210817Y450657D01*
X210900Y450852D01*
X210984Y450990D01*
X211011Y451074D01*
X211039Y451101D01*
X211344Y451601D01*
X211511Y451823D01*
X211677Y451990D01*
X211816Y452156D01*
X211927Y452267D01*
X212011Y452351D01*
X212038Y452379D01*
X212288Y452601D01*
X212538Y452795D01*
X212816Y452962D01*
X213066Y453100D01*
X213288Y453211D01*
X213482Y453322D01*
X213593Y453350D01*
X213649Y453378D01*
X214037Y453517D01*
X214454Y453600D01*
X214870Y453683D01*
X215259Y453711D01*
X215620Y453739D01*
X215897Y453767D01*
X216147D01*
X216730Y453739D01*
D02*
G37*
G36*
X69119Y449547D02*
X69618Y449491D01*
X70090Y449436D01*
X70535Y449325D01*
X70951Y449186D01*
X71340Y449047D01*
X71673Y448908D01*
X71978Y448769D01*
X72256Y448603D01*
X72506Y448464D01*
X72728Y448325D01*
X72894Y448186D01*
X73033Y448075D01*
X73116Y448020D01*
X73172Y447964D01*
X73200Y447937D01*
X73505Y447631D01*
X73755Y447298D01*
X73977Y446937D01*
X74171Y446604D01*
X74338Y446243D01*
X74477Y445910D01*
X74671Y445244D01*
X74754Y444938D01*
X74810Y444661D01*
X74838Y444411D01*
X74865Y444189D01*
X74893Y444022D01*
Y443883D01*
Y443800D01*
Y443772D01*
X74865Y443273D01*
X74810Y442800D01*
X74699Y442356D01*
X74588Y441940D01*
X74421Y441551D01*
X74255Y441190D01*
X74088Y440857D01*
X73894Y440552D01*
X73699Y440302D01*
X73533Y440052D01*
X73366Y439858D01*
X73200Y439691D01*
X73089Y439552D01*
X72978Y439469D01*
X72922Y439413D01*
X72894Y439386D01*
X72589Y439164D01*
X72228Y438942D01*
X71534Y438608D01*
X70812Y438386D01*
X70118Y438220D01*
X69813Y438164D01*
X69507Y438136D01*
X69257Y438081D01*
X69035D01*
X68841Y438053D01*
X68591D01*
X68036Y438081D01*
X67536Y438136D01*
X67036Y438192D01*
X66592Y438303D01*
X66176Y438414D01*
X65787Y438553D01*
X65426Y438719D01*
X65121Y438858D01*
X64843Y438997D01*
X64593Y439164D01*
X64371Y439302D01*
X64205Y439413D01*
X64066Y439525D01*
X63983Y439608D01*
X63927Y439636D01*
X63899Y439663D01*
X63594Y439969D01*
X63344Y440302D01*
X63122Y440663D01*
X62928Y440996D01*
X62761Y441357D01*
X62622Y441690D01*
X62428Y442356D01*
X62345Y442662D01*
X62289Y442939D01*
X62261Y443189D01*
X62234Y443411D01*
X62206Y443578D01*
Y443717D01*
Y443800D01*
Y443828D01*
X62234Y444244D01*
X62261Y444633D01*
X62428Y445382D01*
X62650Y446021D01*
X62900Y446576D01*
X63039Y446826D01*
X63150Y447020D01*
X63261Y447215D01*
X63372Y447354D01*
X63455Y447465D01*
X63538Y447576D01*
X63566Y447603D01*
X63594Y447631D01*
X63927Y447964D01*
X64288Y448270D01*
X64677Y448520D01*
X65093Y448769D01*
X65510Y448936D01*
X65926Y449103D01*
X66342Y449241D01*
X66731Y449325D01*
X67092Y449408D01*
X67453Y449464D01*
X67786Y449519D01*
X68036Y449547D01*
X68286Y449575D01*
X68591D01*
X69119Y449547D01*
D02*
G37*
%LPC*%
G36*
X120580Y533800D02*
X118350D01*
Y533242D01*
Y532685D01*
Y532127D01*
X118907D01*
Y531570D01*
Y531012D01*
Y530454D01*
Y529897D01*
Y529339D01*
X119465D01*
Y528781D01*
Y528224D01*
X120022D01*
Y527666D01*
X120580D01*
Y527108D01*
X121695D01*
Y526551D01*
X122810D01*
Y525993D01*
X127271D01*
Y526551D01*
X128387D01*
Y527108D01*
X128944D01*
Y527666D01*
X129502D01*
Y528224D01*
Y528781D01*
Y529339D01*
Y529897D01*
Y530454D01*
Y531012D01*
X128944D01*
Y531570D01*
X127829D01*
Y532127D01*
X126714D01*
Y532685D01*
X122810D01*
Y533242D01*
X120580D01*
Y533800D01*
D02*
G37*
G36*
X189725Y540491D02*
X187495D01*
Y539934D01*
X186380D01*
Y539376D01*
X185822D01*
Y538819D01*
X185264D01*
Y538261D01*
Y537703D01*
X184707D01*
Y537146D01*
Y536588D01*
Y536031D01*
Y535473D01*
X192514D01*
Y536031D01*
Y536588D01*
Y537146D01*
Y537703D01*
Y538261D01*
X191956D01*
Y538819D01*
X191398D01*
Y539376D01*
X190841D01*
Y539934D01*
X189725D01*
Y540491D01*
D02*
G37*
G36*
X40282Y541607D02*
X35264D01*
Y541049D01*
X34706D01*
Y540491D01*
X33591D01*
Y539934D01*
X33033D01*
Y539376D01*
Y538819D01*
X32475D01*
Y538261D01*
Y537703D01*
Y537146D01*
X31918D01*
Y536588D01*
Y536031D01*
X43628D01*
Y536588D01*
Y537146D01*
Y537703D01*
Y538261D01*
X43070D01*
Y538819D01*
Y539376D01*
X42513D01*
Y539934D01*
X41955D01*
Y540491D01*
X41397D01*
Y541049D01*
X40282D01*
Y541607D01*
D02*
G37*
G36*
X201727Y501654D02*
X198034D01*
Y501126D01*
X196979D01*
Y500599D01*
X196452D01*
Y500071D01*
Y499544D01*
Y499016D01*
Y498489D01*
Y497961D01*
Y497434D01*
X203837D01*
Y497961D01*
Y498489D01*
Y499016D01*
Y499544D01*
Y500071D01*
X203309D01*
Y500599D01*
X202782D01*
Y501126D01*
X201727D01*
Y501654D01*
D02*
G37*
G36*
X154251D02*
X150031D01*
Y501126D01*
X148976D01*
Y500599D01*
Y500071D01*
X148448D01*
Y499544D01*
Y499016D01*
Y498489D01*
Y497961D01*
Y497434D01*
X156361D01*
Y497961D01*
Y498489D01*
Y499016D01*
X155833D01*
Y499544D01*
Y500071D01*
Y500599D01*
X155306D01*
Y501126D01*
X154251D01*
Y501654D01*
D02*
G37*
G36*
X222300Y505874D02*
X214915D01*
Y505346D01*
X214387D01*
Y504819D01*
X213860D01*
Y504291D01*
Y503764D01*
Y503236D01*
Y502709D01*
Y502181D01*
Y501654D01*
Y501126D01*
Y500599D01*
Y500071D01*
X214387D01*
Y499544D01*
Y499016D01*
X214915D01*
Y498489D01*
X222300D01*
Y499016D01*
Y499544D01*
Y500071D01*
Y500599D01*
Y501126D01*
Y501654D01*
Y502181D01*
Y502709D01*
Y503236D01*
Y503764D01*
Y504291D01*
Y504819D01*
Y505346D01*
Y505874D01*
D02*
G37*
G36*
X93059Y501654D02*
X90422D01*
Y501126D01*
X88839D01*
Y500599D01*
X88312D01*
Y500071D01*
X87784D01*
Y499544D01*
X87256D01*
Y499016D01*
Y498489D01*
Y497961D01*
Y497434D01*
Y496906D01*
Y496379D01*
Y495851D01*
Y495323D01*
Y494796D01*
Y494268D01*
Y493741D01*
Y493214D01*
Y492686D01*
Y492159D01*
X87784D01*
Y491631D01*
Y491103D01*
X88312D01*
Y490576D01*
X88839D01*
Y490048D01*
X94642D01*
Y490576D01*
X95169D01*
Y491103D01*
X95697D01*
Y491631D01*
Y492159D01*
X96224D01*
Y492686D01*
Y493214D01*
Y493741D01*
Y494268D01*
Y494796D01*
Y495323D01*
Y495851D01*
Y496379D01*
Y496906D01*
Y497434D01*
Y497961D01*
Y498489D01*
Y499016D01*
X95697D01*
Y499544D01*
Y500071D01*
X95169D01*
Y500599D01*
X94642D01*
Y501126D01*
X93059D01*
Y501654D01*
D02*
G37*
G36*
X137370Y501126D02*
X130513D01*
Y500599D01*
X129985D01*
Y500071D01*
X129458D01*
Y499544D01*
Y499016D01*
Y498489D01*
Y497961D01*
X128930D01*
Y497434D01*
Y496906D01*
Y496379D01*
Y495851D01*
Y495323D01*
Y494796D01*
Y494268D01*
X129458D01*
Y493741D01*
Y493214D01*
Y492686D01*
Y492159D01*
X129985D01*
Y491631D01*
Y491103D01*
X130513D01*
Y490576D01*
X132623D01*
Y490048D01*
X135788D01*
Y490576D01*
X137370D01*
Y491103D01*
Y491631D01*
Y492159D01*
Y492686D01*
Y493214D01*
Y493741D01*
Y494268D01*
Y494796D01*
Y495323D01*
Y495851D01*
Y496379D01*
Y496906D01*
Y497434D01*
Y497961D01*
Y498489D01*
Y499016D01*
Y499544D01*
Y500071D01*
Y500599D01*
Y501126D01*
D02*
G37*
G36*
X111831Y415637D02*
X111803D01*
Y414943D01*
Y414666D01*
X111859Y414416D01*
X111886Y414194D01*
X111942Y414027D01*
X111997Y413861D01*
X112025Y413750D01*
X112081Y413694D01*
Y413666D01*
X112192Y413500D01*
X112331Y413333D01*
X112608Y413083D01*
X112747Y413000D01*
X112830Y412917D01*
X112914Y412889D01*
X112941Y412861D01*
X113163Y412750D01*
X113413Y412667D01*
X113635Y412611D01*
X113830Y412584D01*
X113996Y412556D01*
X114135Y412528D01*
X114246D01*
X114468Y412556D01*
X114690Y412584D01*
X114857Y412639D01*
X114996Y412695D01*
X115134Y412750D01*
X115218Y412778D01*
X115246Y412833D01*
X115273D01*
X115384Y412944D01*
X115468Y413083D01*
X115551Y413361D01*
X115579Y413472D01*
X115606Y413555D01*
Y413611D01*
Y413638D01*
X115579Y413805D01*
X115551Y413944D01*
X115440Y414194D01*
X115329Y414360D01*
X115273Y414388D01*
Y414416D01*
X115107Y414555D01*
X114857Y414666D01*
X114607Y414777D01*
X114329Y414888D01*
X114052Y414971D01*
X113830Y415027D01*
X113691Y415054D01*
X113635Y415082D01*
X112941Y415276D01*
X112636Y415360D01*
X112358Y415443D01*
X112136Y415526D01*
X111942Y415582D01*
X111831Y415637D01*
D02*
G37*
G36*
X147894Y419191D02*
X147727D01*
X147422Y419163D01*
X147116Y419108D01*
X146894Y419024D01*
X146672Y418913D01*
X146533Y418802D01*
X146395Y418719D01*
X146339Y418663D01*
X146311Y418636D01*
X146117Y418414D01*
X145978Y418136D01*
X145867Y417858D01*
X145784Y417581D01*
X145728Y417331D01*
X145673Y417109D01*
X145645Y416970D01*
Y416942D01*
Y416914D01*
X149810D01*
X149754Y417248D01*
X149698Y417553D01*
X149615Y417803D01*
X149532Y418025D01*
X149449Y418164D01*
X149393Y418302D01*
X149365Y418358D01*
X149338Y418386D01*
X149088Y418663D01*
X148838Y418858D01*
X148560Y418997D01*
X148310Y419080D01*
X148088Y419163D01*
X147894Y419191D01*
D02*
G37*
G36*
X90010D02*
X89843D01*
X89538Y419163D01*
X89232Y419108D01*
X89010Y419024D01*
X88788Y418913D01*
X88649Y418802D01*
X88511Y418719D01*
X88455Y418663D01*
X88427Y418636D01*
X88233Y418414D01*
X88094Y418136D01*
X87983Y417858D01*
X87900Y417581D01*
X87844Y417331D01*
X87789Y417109D01*
X87761Y416970D01*
Y416942D01*
Y416914D01*
X91925D01*
X91870Y417248D01*
X91814Y417553D01*
X91731Y417803D01*
X91648Y418025D01*
X91564Y418164D01*
X91509Y418302D01*
X91481Y418358D01*
X91453Y418386D01*
X91203Y418663D01*
X90954Y418858D01*
X90676Y418997D01*
X90426Y419080D01*
X90204Y419163D01*
X90010Y419191D01*
D02*
G37*
G36*
X165107Y422550D02*
X163024D01*
X162663Y422522D01*
X162330Y422495D01*
X162080Y422439D01*
X161886Y422356D01*
X161719Y422273D01*
X161608Y422217D01*
X161553Y422189D01*
X161525Y422161D01*
X161386Y422023D01*
X161275Y421856D01*
X161192Y421689D01*
X161136Y421523D01*
X161109Y421356D01*
X161081Y421245D01*
Y421162D01*
Y421134D01*
X161109Y420884D01*
X161136Y420662D01*
X161220Y420468D01*
X161303Y420301D01*
X161386Y420190D01*
X161442Y420107D01*
X161497Y420052D01*
X161525Y420024D01*
X161719Y419913D01*
X161942Y419829D01*
X162441Y419718D01*
X162691Y419691D01*
X162885Y419663D01*
X165107D01*
Y422550D01*
D02*
G37*
G36*
Y416776D02*
X162747D01*
X162302Y416748D01*
X161942Y416720D01*
X161636Y416637D01*
X161414Y416581D01*
X161220Y416498D01*
X161081Y416415D01*
X161025Y416387D01*
X160998Y416359D01*
X160831Y416193D01*
X160720Y416026D01*
X160609Y415832D01*
X160553Y415665D01*
X160526Y415499D01*
X160498Y415387D01*
Y415304D01*
Y415276D01*
X160526Y415027D01*
X160581Y414804D01*
X160665Y414582D01*
X160748Y414416D01*
X160831Y414277D01*
X160914Y414194D01*
X160970Y414138D01*
X160998Y414110D01*
X161220Y413972D01*
X161470Y413861D01*
X161747Y413805D01*
X162053Y413750D01*
X162302Y413722D01*
X162525Y413694D01*
X165107D01*
Y416776D01*
D02*
G37*
G36*
X121034Y446521D02*
X120895D01*
X120618Y446493D01*
X120340Y446410D01*
X120118Y446299D01*
X119923Y446188D01*
X119757Y446077D01*
X119646Y445965D01*
X119563Y445882D01*
X119535Y445854D01*
X119340Y445605D01*
X119202Y445299D01*
X119091Y444994D01*
X119035Y444688D01*
X118980Y444439D01*
X118952Y444216D01*
Y444078D01*
Y444050D01*
Y444022D01*
X118980Y443606D01*
X119035Y443217D01*
X119118Y442912D01*
X119229Y442662D01*
X119340Y442440D01*
X119424Y442301D01*
X119479Y442217D01*
X119507Y442190D01*
X119701Y441995D01*
X119923Y441857D01*
X120173Y441746D01*
X120368Y441690D01*
X120562Y441634D01*
X120701Y441607D01*
X120840D01*
X121145Y441634D01*
X121395Y441690D01*
X121617Y441773D01*
X121811Y441884D01*
X121978Y441995D01*
X122089Y442079D01*
X122144Y442134D01*
X122172Y442162D01*
X122339Y442412D01*
X122450Y442690D01*
X122561Y442995D01*
X122616Y443273D01*
X122644Y443550D01*
X122672Y443772D01*
Y443911D01*
Y443966D01*
X122644Y444439D01*
X122589Y444855D01*
X122533Y445188D01*
X122422Y445438D01*
X122339Y445660D01*
X122283Y445799D01*
X122228Y445882D01*
X122200Y445910D01*
X122006Y446104D01*
X121784Y446271D01*
X121589Y446382D01*
X121367Y446437D01*
X121173Y446493D01*
X121034Y446521D01*
D02*
G37*
G36*
X24144Y446521D02*
X24005D01*
X23727Y446493D01*
X23450Y446410D01*
X23228Y446298D01*
X23033Y446188D01*
X22867Y446077D01*
X22756Y445965D01*
X22673Y445882D01*
X22645Y445854D01*
X22450Y445605D01*
X22312Y445299D01*
X22201Y444994D01*
X22145Y444688D01*
X22090Y444439D01*
X22062Y444216D01*
Y444078D01*
Y444050D01*
Y444022D01*
X22090Y443606D01*
X22145Y443217D01*
X22228Y442912D01*
X22339Y442662D01*
X22450Y442440D01*
X22534Y442301D01*
X22589Y442217D01*
X22617Y442190D01*
X22811Y441995D01*
X23033Y441857D01*
X23283Y441745D01*
X23478Y441690D01*
X23672Y441634D01*
X23811Y441607D01*
X23949D01*
X24255Y441634D01*
X24505Y441690D01*
X24727Y441773D01*
X24921Y441884D01*
X25088Y441995D01*
X25199Y442079D01*
X25254Y442134D01*
X25282Y442162D01*
X25449Y442412D01*
X25560Y442690D01*
X25671Y442995D01*
X25726Y443273D01*
X25754Y443550D01*
X25782Y443772D01*
Y443911D01*
Y443966D01*
X25754Y444439D01*
X25699Y444855D01*
X25643Y445188D01*
X25532Y445438D01*
X25449Y445660D01*
X25393Y445799D01*
X25338Y445882D01*
X25310Y445910D01*
X25115Y446104D01*
X24893Y446271D01*
X24699Y446382D01*
X24477Y446437D01*
X24283Y446493D01*
X24144Y446521D01*
D02*
G37*
G36*
X36165Y443522D02*
X36137D01*
Y442828D01*
Y442551D01*
X36193Y442301D01*
X36220Y442079D01*
X36276Y441912D01*
X36332Y441746D01*
X36359Y441634D01*
X36415Y441579D01*
Y441551D01*
X36526Y441385D01*
X36665Y441218D01*
X36942Y440968D01*
X37081Y440885D01*
X37164Y440802D01*
X37248Y440774D01*
X37275Y440746D01*
X37497Y440635D01*
X37747Y440552D01*
X37969Y440496D01*
X38164Y440468D01*
X38330Y440441D01*
X38469Y440413D01*
X38580D01*
X38802Y440441D01*
X39024Y440468D01*
X39191Y440524D01*
X39330Y440580D01*
X39469Y440635D01*
X39552Y440663D01*
X39580Y440718D01*
X39607D01*
X39718Y440829D01*
X39802Y440968D01*
X39885Y441246D01*
X39913Y441357D01*
X39941Y441440D01*
Y441496D01*
Y441524D01*
X39913Y441690D01*
X39885Y441829D01*
X39774Y442079D01*
X39663Y442245D01*
X39607Y442273D01*
Y442301D01*
X39441Y442440D01*
X39191Y442551D01*
X38941Y442662D01*
X38663Y442773D01*
X38386Y442856D01*
X38164Y442912D01*
X38025Y442939D01*
X37969Y442967D01*
X37275Y443161D01*
X36970Y443245D01*
X36692Y443328D01*
X36470Y443411D01*
X36276Y443467D01*
X36165Y443522D01*
D02*
G37*
G36*
X9596Y447076D02*
X9430D01*
X9125Y447048D01*
X8819Y446993D01*
X8597Y446909D01*
X8375Y446798D01*
X8236Y446687D01*
X8097Y446604D01*
X8042Y446548D01*
X8014Y446521D01*
X7820Y446298D01*
X7681Y446021D01*
X7570Y445743D01*
X7487Y445466D01*
X7431Y445216D01*
X7376Y444994D01*
X7348Y444855D01*
Y444827D01*
Y444799D01*
X11512D01*
X11457Y445132D01*
X11401Y445438D01*
X11318Y445688D01*
X11234Y445910D01*
X11151Y446049D01*
X11096Y446188D01*
X11068Y446243D01*
X11040Y446271D01*
X10790Y446548D01*
X10540Y446743D01*
X10263Y446882D01*
X10013Y446965D01*
X9791Y447048D01*
X9596Y447076D01*
D02*
G37*
G36*
X184359Y449547D02*
X182694Y444105D01*
X186025D01*
X184359Y449547D01*
D02*
G37*
G36*
X216342Y450963D02*
X216286D01*
X215925Y450907D01*
X215620Y450796D01*
X215342Y450630D01*
X215120Y450435D01*
X214953Y450241D01*
X214842Y450074D01*
X214759Y449963D01*
X214731Y449908D01*
X214648Y449686D01*
X214565Y449436D01*
X214482Y449130D01*
X214426Y448825D01*
X214343Y448159D01*
X214259Y447465D01*
X214232Y446854D01*
Y446549D01*
X214204Y446326D01*
Y446104D01*
Y445965D01*
Y445854D01*
Y445827D01*
Y445105D01*
X214232Y444494D01*
X214287Y443967D01*
X214315Y443550D01*
X214370Y443217D01*
X214426Y442995D01*
X214454Y442856D01*
Y442801D01*
X214537Y442467D01*
X214648Y442162D01*
X214759Y441940D01*
X214870Y441718D01*
X214981Y441579D01*
X215065Y441468D01*
X215120Y441413D01*
X215148Y441385D01*
X215342Y441246D01*
X215536Y441135D01*
X215703Y441051D01*
X215897Y440996D01*
X216036Y440968D01*
X216175Y440941D01*
X216286D01*
X216619Y440996D01*
X216925Y441107D01*
X217174Y441274D01*
X217397Y441468D01*
X217563Y441662D01*
X217674Y441829D01*
X217757Y441940D01*
X217785Y441996D01*
X217868Y442218D01*
X217952Y442467D01*
X218007Y442745D01*
X218063Y443050D01*
X218174Y443717D01*
X218229Y444383D01*
X218257Y444994D01*
Y445271D01*
X218285Y445494D01*
Y445688D01*
Y445827D01*
Y445938D01*
Y445965D01*
Y446493D01*
X218257Y446965D01*
X218229Y447381D01*
X218202Y447798D01*
X218174Y448131D01*
X218146Y448464D01*
X218091Y448742D01*
X218035Y448992D01*
X218007Y449214D01*
X217952Y449408D01*
X217924Y449547D01*
X217896Y449658D01*
X217868Y449769D01*
X217841Y449824D01*
X217813Y449880D01*
X217619Y450241D01*
X217369Y450518D01*
X217119Y450713D01*
X216869Y450824D01*
X216647Y450907D01*
X216453Y450935D01*
X216342Y450963D01*
D02*
G37*
G36*
X68674Y446660D02*
X68536D01*
X68230Y446632D01*
X67925Y446548D01*
X67675Y446437D01*
X67453Y446299D01*
X67286Y446160D01*
X67175Y446049D01*
X67092Y445965D01*
X67064Y445938D01*
X66870Y445660D01*
X66703Y445327D01*
X66592Y444966D01*
X66537Y444633D01*
X66481Y444300D01*
X66453Y444050D01*
Y443883D01*
Y443856D01*
Y443828D01*
X66481Y443273D01*
X66537Y442828D01*
X66648Y442440D01*
X66759Y442134D01*
X66870Y441884D01*
X66981Y441718D01*
X67036Y441607D01*
X67064Y441579D01*
X67286Y441357D01*
X67536Y441190D01*
X67786Y441079D01*
X68036Y440996D01*
X68230Y440941D01*
X68397Y440913D01*
X68563D01*
X68869Y440941D01*
X69174Y441024D01*
X69424Y441135D01*
X69646Y441274D01*
X69813Y441385D01*
X69952Y441496D01*
X70035Y441579D01*
X70062Y441607D01*
X70257Y441912D01*
X70396Y442245D01*
X70507Y442606D01*
X70562Y442939D01*
X70618Y443273D01*
X70646Y443522D01*
Y443633D01*
Y443717D01*
Y443745D01*
Y443772D01*
X70618Y444272D01*
X70562Y444716D01*
X70451Y445105D01*
X70340Y445410D01*
X70257Y445632D01*
X70146Y445799D01*
X70090Y445910D01*
X70062Y445938D01*
X69813Y446188D01*
X69563Y446354D01*
X69313Y446493D01*
X69063Y446576D01*
X68869Y446632D01*
X68674Y446660D01*
D02*
G37*
%LPD*%
D11*
X265200Y35400D02*
Y47600D01*
Y13200D02*
Y25400D01*
Y58200D02*
Y70400D01*
Y80400D02*
Y92600D01*
Y102600D02*
Y114800D01*
Y124800D02*
Y137000D01*
Y169800D02*
Y182000D01*
Y147600D02*
Y159800D01*
Y215200D02*
Y227400D01*
Y193000D02*
Y205200D01*
Y238000D02*
Y250200D01*
Y260200D02*
Y272400D01*
X265200Y282400D02*
Y294600D01*
Y304600D02*
Y316800D01*
Y349600D02*
Y361800D01*
Y327400D02*
Y339600D01*
Y395000D02*
Y407200D01*
Y372800D02*
Y385000D01*
Y417800D02*
Y430000D01*
Y440000D02*
Y452200D01*
X230400Y462700D02*
X242600D01*
X252600D02*
X264800D01*
X207600D02*
X219800D01*
X185400D02*
X197600D01*
X163200D02*
X175400D01*
X141000D02*
X153200D01*
X96000D02*
X108200D01*
X118200D02*
X130400D01*
X50600D02*
X62800D01*
X72800D02*
X85000D01*
X27800D02*
X40000D01*
X5600D02*
X17800D01*
X0Y900000D02*
X900000D01*
X0Y0D02*
X900000D01*
X0D02*
Y900000D01*
X900000D02*
X900000Y0D01*
M02*
