G04*
G04 #@! TF.GenerationSoftware,Altium Limited,Altium Designer,21.2.0 (30)*
G04*
G04 Layer_Color=8388736*
%FSLAX44Y44*%
%MOMM*%
G71*
G04*
G04 #@! TF.SameCoordinates,3859F847-68DD-49E8-8EE8-84FD9F862EB9*
G04*
G04*
G04 #@! TF.FilePolarity,Positive*
G04*
G01*
G75*
%ADD10C,0.5000*%
%ADD13C,0.2000*%
G36*
X629362Y785722D02*
X629518Y785713D01*
X629811Y785654D01*
X629938Y785625D01*
X630064Y785586D01*
X630172Y785537D01*
X630269Y785498D01*
X630357Y785449D01*
X630435Y785410D01*
X630503Y785361D01*
X630562Y785332D01*
X630601Y785303D01*
X630630Y785274D01*
X630650Y785264D01*
X630659Y785254D01*
X630757Y785157D01*
X630835Y785059D01*
X630981Y784835D01*
X631088Y784611D01*
X631166Y784386D01*
X631225Y784191D01*
X631235Y784103D01*
X631254Y784025D01*
X631264Y783967D01*
X631274Y783918D01*
Y783889D01*
Y783879D01*
X630464Y783791D01*
X630445Y784006D01*
X630406Y784191D01*
X630357Y784347D01*
X630289Y784484D01*
X630230Y784591D01*
X630172Y784669D01*
X630133Y784708D01*
X630123Y784727D01*
X629986Y784845D01*
X629840Y784932D01*
X629684Y784991D01*
X629538Y785040D01*
X629411Y785059D01*
X629313Y785069D01*
X629274Y785079D01*
X629216D01*
X629021Y785069D01*
X628845Y785030D01*
X628699Y784981D01*
X628572Y784923D01*
X628475Y784854D01*
X628396Y784806D01*
X628358Y784767D01*
X628338Y784757D01*
X628221Y784630D01*
X628143Y784493D01*
X628084Y784367D01*
X628036Y784240D01*
X628016Y784133D01*
X628006Y784045D01*
X627997Y783986D01*
Y783977D01*
Y783967D01*
X628016Y783801D01*
X628055Y783625D01*
X628114Y783469D01*
X628182Y783323D01*
X628250Y783196D01*
X628309Y783099D01*
X628328Y783060D01*
X628348Y783030D01*
X628367Y783021D01*
Y783011D01*
X628445Y782913D01*
X628533Y782806D01*
X628631Y782699D01*
X628748Y782591D01*
X628982Y782367D01*
X629216Y782143D01*
X629430Y781957D01*
X629528Y781870D01*
X629616Y781802D01*
X629684Y781733D01*
X629733Y781694D01*
X629772Y781665D01*
X629781Y781655D01*
X630016Y781450D01*
X630230Y781265D01*
X630406Y781099D01*
X630552Y780963D01*
X630669Y780846D01*
X630747Y780758D01*
X630796Y780699D01*
X630815Y780689D01*
Y780680D01*
X630942Y780524D01*
X631040Y780377D01*
X631137Y780231D01*
X631205Y780104D01*
X631264Y779987D01*
X631303Y779909D01*
X631323Y779851D01*
X631332Y779841D01*
Y779831D01*
X631362Y779734D01*
X631391Y779636D01*
X631401Y779548D01*
X631410Y779470D01*
X631420Y779402D01*
Y779344D01*
Y779305D01*
Y779295D01*
X627177D01*
Y780046D01*
X630328D01*
X630220Y780202D01*
X630113Y780329D01*
X630064Y780387D01*
X630025Y780426D01*
X630006Y780455D01*
X629996Y780465D01*
X629947Y780514D01*
X629899Y780563D01*
X629772Y780680D01*
X629616Y780816D01*
X629469Y780953D01*
X629323Y781080D01*
X629206Y781177D01*
X629157Y781216D01*
X629118Y781245D01*
X629099Y781265D01*
X629089Y781275D01*
X628933Y781411D01*
X628796Y781528D01*
X628660Y781645D01*
X628543Y781753D01*
X628436Y781860D01*
X628338Y781948D01*
X628241Y782036D01*
X628162Y782114D01*
X628094Y782182D01*
X628036Y782240D01*
X627948Y782328D01*
X627899Y782387D01*
X627880Y782406D01*
X627753Y782562D01*
X627636Y782699D01*
X627548Y782835D01*
X627480Y782952D01*
X627421Y783050D01*
X627382Y783118D01*
X627363Y783167D01*
X627353Y783186D01*
X627294Y783323D01*
X627255Y783460D01*
X627226Y783586D01*
X627207Y783703D01*
X627197Y783801D01*
X627187Y783879D01*
Y783928D01*
Y783947D01*
X627197Y784084D01*
X627207Y784220D01*
X627275Y784464D01*
X627363Y784679D01*
X627460Y784864D01*
X627558Y785010D01*
X627607Y785069D01*
X627645Y785127D01*
X627685Y785166D01*
X627714Y785196D01*
X627724Y785206D01*
X627733Y785215D01*
X627841Y785303D01*
X627948Y785391D01*
X628065Y785459D01*
X628192Y785518D01*
X628436Y785605D01*
X628670Y785664D01*
X628777Y785693D01*
X628874Y785703D01*
X628962Y785713D01*
X629040Y785722D01*
X629109Y785732D01*
X629196D01*
X629362Y785722D01*
D02*
G37*
G36*
X638345Y779295D02*
X637458D01*
X636112Y784172D01*
X636082Y784298D01*
X636043Y784425D01*
X636014Y784542D01*
X635985Y784669D01*
X635956Y784767D01*
X635936Y784854D01*
X635916Y784903D01*
Y784923D01*
X635907Y784893D01*
X635897Y784854D01*
X635868Y784747D01*
X635839Y784630D01*
X635799Y784493D01*
X635770Y784376D01*
X635741Y784269D01*
X635731Y784230D01*
X635722Y784201D01*
X635712Y784181D01*
Y784172D01*
X634366Y779295D01*
X633537D01*
X631791Y785703D01*
X632649D01*
X633644Y781577D01*
X633712Y781294D01*
X633781Y781031D01*
X633829Y780787D01*
X633878Y780582D01*
X633898Y780495D01*
X633917Y780416D01*
X633927Y780348D01*
X633946Y780290D01*
X633956Y780241D01*
Y780212D01*
X633966Y780192D01*
Y780182D01*
X634034Y780582D01*
X634112Y780982D01*
X634200Y781372D01*
X634239Y781548D01*
X634278Y781714D01*
X634317Y781870D01*
X634346Y782016D01*
X634385Y782143D01*
X634405Y782250D01*
X634434Y782338D01*
X634444Y782396D01*
X634463Y782445D01*
Y782455D01*
X635380Y785703D01*
X636404D01*
X637623Y781372D01*
X637633Y781333D01*
X637643Y781275D01*
X637662Y781197D01*
X637682Y781119D01*
X637731Y780924D01*
X637780Y780719D01*
X637838Y780514D01*
X637858Y780426D01*
X637877Y780348D01*
X637896Y780280D01*
X637906Y780231D01*
X637916Y780192D01*
Y780182D01*
X637965Y780426D01*
X638004Y780660D01*
X638053Y780885D01*
X638092Y781080D01*
X638131Y781245D01*
X638150Y781314D01*
X638160Y781382D01*
X638170Y781421D01*
X638179Y781460D01*
X638189Y781480D01*
Y781489D01*
X639155Y785703D01*
X640023D01*
X638345Y779295D01*
D02*
G37*
G36*
X643437Y785800D02*
X643661Y785771D01*
X643856Y785742D01*
X644032Y785703D01*
X644168Y785654D01*
X644227Y785635D01*
X644275Y785625D01*
X644324Y785605D01*
X644353Y785596D01*
X644363Y785586D01*
X644373D01*
X644558Y785498D01*
X644724Y785391D01*
X644861Y785284D01*
X644968Y785186D01*
X645056Y785088D01*
X645124Y785010D01*
X645163Y784962D01*
X645173Y784952D01*
Y784942D01*
X645260Y784786D01*
X645329Y784620D01*
X645378Y784474D01*
X645407Y784328D01*
X645426Y784211D01*
X645446Y784123D01*
Y784084D01*
Y784054D01*
Y784045D01*
Y784035D01*
X645436Y783879D01*
X645407Y783723D01*
X645378Y783586D01*
X645329Y783469D01*
X645290Y783372D01*
X645260Y783304D01*
X645231Y783255D01*
X645221Y783235D01*
X645124Y783108D01*
X645017Y782991D01*
X644909Y782894D01*
X644792Y782806D01*
X644695Y782738D01*
X644617Y782689D01*
X644558Y782650D01*
X644548Y782640D01*
X644539D01*
X644470Y782601D01*
X644383Y782572D01*
X644197Y782504D01*
X643992Y782435D01*
X643788Y782367D01*
X643602Y782318D01*
X643524Y782299D01*
X643456Y782279D01*
X643398Y782260D01*
X643349Y782250D01*
X643319Y782240D01*
X643310D01*
X643154Y782201D01*
X643007Y782162D01*
X642871Y782133D01*
X642754Y782104D01*
X642656Y782075D01*
X642559Y782045D01*
X642481Y782026D01*
X642403Y782006D01*
X642344Y781987D01*
X642295Y781967D01*
X642217Y781948D01*
X642178Y781938D01*
X642169Y781928D01*
X642032Y781870D01*
X641905Y781802D01*
X641808Y781743D01*
X641730Y781684D01*
X641671Y781626D01*
X641622Y781587D01*
X641603Y781558D01*
X641593Y781548D01*
X641535Y781460D01*
X641496Y781372D01*
X641457Y781284D01*
X641437Y781197D01*
X641427Y781128D01*
X641418Y781070D01*
Y781031D01*
Y781021D01*
X641427Y780914D01*
X641447Y780816D01*
X641476Y780719D01*
X641505Y780641D01*
X641544Y780573D01*
X641574Y780524D01*
X641593Y780485D01*
X641603Y780475D01*
X641681Y780387D01*
X641769Y780309D01*
X641857Y780241D01*
X641954Y780182D01*
X642032Y780134D01*
X642100Y780104D01*
X642139Y780085D01*
X642159Y780075D01*
X642305Y780026D01*
X642451Y779997D01*
X642588Y779968D01*
X642725Y779958D01*
X642832Y779948D01*
X642929Y779939D01*
X643007D01*
X643203Y779948D01*
X643388Y779968D01*
X643563Y779997D01*
X643700Y780036D01*
X643827Y780065D01*
X643914Y780095D01*
X643973Y780114D01*
X643983Y780124D01*
X643992D01*
X644139Y780202D01*
X644275Y780280D01*
X644383Y780368D01*
X644470Y780446D01*
X644548Y780514D01*
X644597Y780573D01*
X644626Y780611D01*
X644636Y780621D01*
X644705Y780748D01*
X644763Y780875D01*
X644802Y781011D01*
X644841Y781138D01*
X644861Y781255D01*
X644880Y781343D01*
X644890Y781402D01*
Y781411D01*
Y781421D01*
X645690Y781353D01*
X645670Y781119D01*
X645631Y780904D01*
X645573Y780699D01*
X645514Y780534D01*
X645456Y780387D01*
X645426Y780329D01*
X645397Y780280D01*
X645378Y780241D01*
X645358Y780212D01*
X645348Y780202D01*
Y780192D01*
X645212Y780017D01*
X645056Y779861D01*
X644909Y779734D01*
X644753Y779626D01*
X644626Y779539D01*
X644519Y779480D01*
X644480Y779461D01*
X644451Y779441D01*
X644431Y779431D01*
X644422D01*
X644188Y779353D01*
X643944Y779295D01*
X643700Y779246D01*
X643476Y779217D01*
X643368Y779207D01*
X643271Y779197D01*
X643183D01*
X643115Y779187D01*
X642968D01*
X642715Y779197D01*
X642490Y779227D01*
X642276Y779266D01*
X642100Y779314D01*
X641944Y779353D01*
X641886Y779373D01*
X641837Y779392D01*
X641798Y779412D01*
X641769Y779422D01*
X641749Y779431D01*
X641739D01*
X641544Y779539D01*
X641369Y779646D01*
X641223Y779763D01*
X641105Y779880D01*
X641008Y779977D01*
X640949Y780056D01*
X640901Y780114D01*
X640891Y780134D01*
X640793Y780299D01*
X640725Y780475D01*
X640667Y780641D01*
X640637Y780787D01*
X640618Y780914D01*
X640598Y781011D01*
Y781050D01*
Y781080D01*
Y781089D01*
Y781099D01*
X640608Y781284D01*
X640637Y781460D01*
X640686Y781616D01*
X640735Y781743D01*
X640784Y781860D01*
X640832Y781938D01*
X640862Y781987D01*
X640871Y782006D01*
X640979Y782143D01*
X641105Y782270D01*
X641242Y782387D01*
X641378Y782484D01*
X641505Y782552D01*
X641603Y782611D01*
X641642Y782630D01*
X641661Y782650D01*
X641681Y782660D01*
X641691D01*
X641769Y782689D01*
X641866Y782728D01*
X641964Y782767D01*
X642081Y782796D01*
X642315Y782865D01*
X642549Y782933D01*
X642764Y782982D01*
X642861Y783011D01*
X642949Y783030D01*
X643017Y783050D01*
X643066Y783060D01*
X643105Y783069D01*
X643115D01*
X643300Y783118D01*
X643466Y783157D01*
X643612Y783196D01*
X643749Y783245D01*
X643866Y783284D01*
X643963Y783313D01*
X644051Y783352D01*
X644129Y783391D01*
X644197Y783421D01*
X644256Y783440D01*
X644295Y783469D01*
X644324Y783489D01*
X644373Y783518D01*
X644383Y783528D01*
X644461Y783616D01*
X644519Y783703D01*
X644568Y783801D01*
X644597Y783889D01*
X644617Y783967D01*
X644626Y784035D01*
Y784074D01*
Y784094D01*
X644607Y784240D01*
X644568Y784367D01*
X644519Y784484D01*
X644451Y784581D01*
X644392Y784669D01*
X644334Y784727D01*
X644295Y784767D01*
X644285Y784776D01*
X644217Y784825D01*
X644139Y784874D01*
X643963Y784942D01*
X643778Y784991D01*
X643593Y785020D01*
X643427Y785049D01*
X643349D01*
X643290Y785059D01*
X643164D01*
X642900Y785049D01*
X642676Y785010D01*
X642481Y784962D01*
X642325Y784903D01*
X642208Y784845D01*
X642120Y784796D01*
X642071Y784757D01*
X642051Y784747D01*
X641925Y784620D01*
X641817Y784474D01*
X641739Y784328D01*
X641681Y784181D01*
X641642Y784045D01*
X641622Y783938D01*
X641613Y783898D01*
X641603Y783869D01*
Y783850D01*
Y783840D01*
X640793Y783898D01*
X640813Y784103D01*
X640852Y784289D01*
X640910Y784464D01*
X640969Y784611D01*
X641018Y784727D01*
X641066Y784825D01*
X641105Y784884D01*
X641115Y784903D01*
X641232Y785059D01*
X641369Y785196D01*
X641505Y785313D01*
X641642Y785410D01*
X641769Y785479D01*
X641866Y785537D01*
X641905Y785557D01*
X641935Y785566D01*
X641944Y785576D01*
X641954D01*
X642159Y785654D01*
X642373Y785713D01*
X642588Y785752D01*
X642783Y785781D01*
X642949Y785800D01*
X643017D01*
X643085Y785810D01*
X643203D01*
X643437Y785800D01*
D02*
G37*
D10*
X0Y900000D02*
X900000D01*
X0Y0D02*
X900000D01*
X0D02*
Y900000D01*
X900000D02*
X900000Y0D01*
D13*
X630050Y808000D02*
G03*
X642750Y808000I6350J0D01*
G01*
X656150D01*
X616650D02*
X630050D01*
X616650Y757200D02*
Y808000D01*
Y757200D02*
X656150D01*
Y808000D01*
M02*
