G04*
G04 #@! TF.GenerationSoftware,Altium Limited,Altium Designer,21.0.9 (235)*
G04*
G04 Layer_Color=16711935*
%FSLAX44Y44*%
%MOMM*%
G71*
G04*
G04 #@! TF.SameCoordinates,BD89840E-3130-4C23-AD2D-C5A835882CA8*
G04*
G04*
G04 #@! TF.FilePolarity,Negative*
G04*
G01*
G75*
%ADD11C,0.5000*%
%ADD86R,3.2032X3.2032*%
%ADD87C,3.2032*%
%ADD88C,6.2032*%
G04:AMPARAMS|DCode=89|XSize=1.7532mm|YSize=1.7532mm|CornerRadius=0.4891mm|HoleSize=0mm|Usage=FLASHONLY|Rotation=0.000|XOffset=0mm|YOffset=0mm|HoleType=Round|Shape=RoundedRectangle|*
%AMROUNDEDRECTD89*
21,1,1.7532,0.7750,0,0,0.0*
21,1,0.7750,1.7532,0,0,0.0*
1,1,0.9782,0.3875,-0.3875*
1,1,0.9782,-0.3875,-0.3875*
1,1,0.9782,-0.3875,0.3875*
1,1,0.9782,0.3875,0.3875*
%
%ADD89ROUNDEDRECTD89*%
%ADD90C,1.7532*%
%ADD91R,2.2032X2.1844*%
%ADD92R,2.2032X2.2032*%
%ADD93R,2.7032X2.7032*%
%ADD94R,1.6510X1.6510*%
%ADD95C,1.6510*%
%ADD96R,2.7032X2.7032*%
%ADD97R,2.1844X4.7752*%
%ADD98C,1.6500*%
%ADD99R,1.6500X1.6500*%
D11*
X0Y900000D02*
X900000D01*
X0Y0D02*
X900000D01*
X0D02*
Y900000D01*
X900000D02*
X900000Y0D01*
D86*
X102600Y397700D02*
D03*
D87*
X162600D02*
D03*
X42600Y733700D02*
D03*
X222600D02*
D03*
D88*
X350100Y772600D02*
D03*
X861200Y252300D02*
D03*
X746200Y776400D02*
D03*
X306400Y290000D02*
D03*
D89*
X461400Y846300D02*
D03*
D90*
X486800D02*
D03*
X512200D02*
D03*
X537600D02*
D03*
X563000D02*
D03*
X588400D02*
D03*
X613800D02*
D03*
X639200D02*
D03*
X664600D02*
D03*
X690000D02*
D03*
X461400Y871700D02*
D03*
X486800D02*
D03*
X512200D02*
D03*
X537600D02*
D03*
X563000D02*
D03*
X588400D02*
D03*
X613800D02*
D03*
X639200D02*
D03*
X664600D02*
D03*
X690000D02*
D03*
D91*
X633300Y381500D02*
D03*
Y356100D02*
D03*
Y330700D02*
D03*
X567100Y397600D02*
D03*
Y372200D02*
D03*
Y346800D02*
D03*
Y321400D02*
D03*
D92*
X175700Y265600D02*
D03*
Y335600D02*
D03*
X95700D02*
D03*
Y265600D02*
D03*
D93*
X244400Y244200D02*
D03*
Y344200D02*
D03*
X25100Y344100D02*
D03*
Y244100D02*
D03*
X212400Y20900D02*
D03*
Y120900D02*
D03*
D94*
X169600Y32100D02*
D03*
D95*
Y107100D02*
D03*
D96*
X69600Y197800D02*
D03*
X107700D02*
D03*
X31500D02*
D03*
X69600Y70800D02*
D03*
X107700D02*
D03*
X31500D02*
D03*
X465800D02*
D03*
X542000D02*
D03*
X503900D02*
D03*
X542000Y197800D02*
D03*
X275300Y70800D02*
D03*
X427700D02*
D03*
X389600D02*
D03*
X351500D02*
D03*
X313400D02*
D03*
X275300Y197800D02*
D03*
X427700D02*
D03*
X389600D02*
D03*
X351500D02*
D03*
X313400D02*
D03*
X503900D02*
D03*
X465800D02*
D03*
X791000D02*
D03*
X829100D02*
D03*
X638600D02*
D03*
X676700D02*
D03*
X714800D02*
D03*
X752900D02*
D03*
X600500D02*
D03*
X638600Y70800D02*
D03*
X676700D02*
D03*
X714800D02*
D03*
X752900D02*
D03*
X600500D02*
D03*
X867200Y197800D02*
D03*
X829100Y70800D02*
D03*
X867200D02*
D03*
X791000D02*
D03*
D97*
X837700Y496500D02*
D03*
X812300D02*
D03*
X786900D02*
D03*
X761500D02*
D03*
X736100D02*
D03*
X710700D02*
D03*
X837700Y313300D02*
D03*
X812300D02*
D03*
X786900D02*
D03*
X761500D02*
D03*
X736100D02*
D03*
X710700D02*
D03*
D98*
X689700Y686400D02*
D03*
X715100Y661000D02*
D03*
X689700D02*
D03*
X715100Y686400D02*
D03*
X715100Y711800D02*
D03*
D99*
X689700D02*
D03*
M02*
