G04*
G04 #@! TF.GenerationSoftware,Altium Limited,Altium Designer,21.0.9 (235)*
G04*
G04 Layer_Color=16711935*
%FSLAX44Y44*%
%MOMM*%
G71*
G04*
G04 #@! TF.SameCoordinates,BD89840E-3130-4C23-AD2D-C5A835882CA8*
G04*
G04*
G04 #@! TF.FilePolarity,Positive*
G04*
G01*
G75*
%ADD10C,0.2500*%
%ADD11C,0.5000*%
%ADD12C,0.2000*%
%ADD13C,0.4000*%
%ADD15C,1.0000*%
%ADD16C,0.1000*%
%ADD17C,0.1270*%
%ADD18C,0.1540*%
%ADD20C,0.3000*%
%ADD22C,0.2540*%
%ADD131C,0.2032*%
%ADD132C,0.0000*%
%ADD133C,0.0254*%
%ADD134C,0.0762*%
%ADD135C,0.1800*%
%ADD136R,4.6000X1.0222*%
%ADD137R,3.6000X0.6147*%
%ADD138R,1.0222X4.6000*%
%ADD139R,0.6500X2.9000*%
%ADD140R,1.0160X1.0160*%
D10*
X396050Y320500D02*
G03*
X396050Y320500I-1250J0D01*
G01*
X401700Y285700D02*
G03*
X401700Y285700I-1250J0D01*
G01*
D11*
X103600Y367700D02*
G03*
X103600Y367700I-3000J0D01*
G01*
X796279Y562151D02*
G03*
X796279Y562151I-2000J0D01*
G01*
X408364Y575050D02*
G03*
X408364Y575050I-2214J0D01*
G01*
X272698Y333201D02*
G03*
X293498Y333201I10400J-104D01*
G01*
X293402Y685400D02*
G03*
X272602Y685400I-10400J104D01*
G01*
X96150Y52200D02*
X104500Y43850D01*
X87800D02*
X96150Y52200D01*
X67300D02*
X75650Y43850D01*
X58950D02*
X67300Y52200D01*
X41100D02*
X49450Y43850D01*
X32750D02*
X41100Y52200D01*
Y-20400D02*
Y52200D01*
X67300Y-20400D02*
Y52200D01*
X96150Y-20400D02*
Y52200D01*
X540400Y-20350D02*
Y52250D01*
X514150Y-20350D02*
Y52250D01*
X505800Y43900D02*
X514150Y52250D01*
X522500Y43900D01*
X532050D02*
X540400Y52250D01*
X548750Y43900D01*
X489600Y52300D02*
X497950Y43950D01*
X464800Y-20350D02*
Y52250D01*
X438550Y-20350D02*
Y52250D01*
X412550Y-20350D02*
Y52250D01*
X481250Y43950D02*
X489600Y52300D01*
Y-20300D02*
Y52300D01*
X404200Y43900D02*
X412550Y52250D01*
X430200Y43900D02*
X438550Y52250D01*
X446900Y43900D01*
X456450D02*
X464800Y52250D01*
X473150Y43900D01*
X296400D02*
X304750Y52250D01*
X278550Y-20350D02*
Y52250D01*
X304750Y-20350D02*
Y52250D01*
X270200Y43900D02*
X278550Y52250D01*
X286900Y43900D01*
X304750Y52250D02*
X313100Y43900D01*
X333600Y-20350D02*
Y52250D01*
X325250Y43900D02*
X333600Y52250D01*
X341950Y43900D01*
X412550Y52250D02*
X420900Y43900D01*
X361600Y-20350D02*
Y52250D01*
X386300Y-20350D02*
Y52250D01*
X353250Y43900D02*
X361600Y52250D01*
X369950Y43900D01*
X377950D02*
X386300Y52250D01*
X394650Y43900D01*
X711500Y52250D02*
X719850Y43900D01*
X703150D02*
X711500Y52250D01*
X686800D02*
X695150Y43900D01*
X678450D02*
X686800Y52250D01*
X711500Y-20350D02*
Y52250D01*
X686800Y-20350D02*
Y52250D01*
X737750D02*
X746100Y43900D01*
X658800Y52250D02*
X667150Y43900D01*
X650450D02*
X658800Y52250D01*
Y-20350D02*
Y52250D01*
X629950D02*
X638300Y43900D01*
X603750Y52250D02*
X612100Y43900D01*
X595400D02*
X603750Y52250D01*
X629950Y-20350D02*
Y52250D01*
X603750Y-20350D02*
Y52250D01*
X621600Y43900D02*
X629950Y52250D01*
X790000D02*
X798350Y43900D01*
X781650D02*
X790000Y52250D01*
X763750D02*
X772100Y43900D01*
X755400D02*
X763750Y52250D01*
X729400Y43900D02*
X737750Y52250D01*
X814800Y-20300D02*
Y52300D01*
X806450Y43950D02*
X814800Y52300D01*
X737750Y-20350D02*
Y52250D01*
X763750Y-20350D02*
Y52250D01*
X790000Y-20350D02*
Y52250D01*
X814800Y52300D02*
X823150Y43950D01*
X865600Y52250D02*
X873950Y43900D01*
X857250D02*
X865600Y52250D01*
X839350D02*
X847700Y43900D01*
X831000D02*
X839350Y52250D01*
Y-20350D02*
Y52250D01*
X865600Y-20350D02*
Y52250D01*
X272602Y685400D02*
X272698Y333200D01*
X293402Y685400D02*
X293498Y333200D01*
X0Y900000D02*
X900000D01*
X0Y0D02*
X900000D01*
X0D02*
Y900000D01*
X900000D02*
X900000Y0D01*
D12*
X623536Y753800D02*
G03*
X623536Y753800I-1000J0D01*
G01*
X623550Y722900D02*
G03*
X623550Y722900I-1000J0D01*
G01*
X378300Y507000D02*
G03*
X378300Y507000I-1000J0D01*
G01*
X410850Y410750D02*
G03*
X410850Y410750I-1000J0D01*
G01*
X387300Y845100D02*
Y880100D01*
X404300D01*
Y845100D02*
Y880100D01*
X387300Y845100D02*
X404300D01*
X387200Y815000D02*
X404200D01*
X387200Y842500D02*
X404200D01*
X387200Y807500D02*
Y842500D01*
Y807500D02*
X404200D01*
Y842500D01*
X384000Y807500D02*
Y842500D01*
X367000Y807500D02*
X384000D01*
X367000D02*
Y842500D01*
X384000D01*
X367000Y815000D02*
X384000D01*
X366900Y845200D02*
Y880200D01*
X383900D01*
Y845200D02*
Y880200D01*
X366900Y845200D02*
X383900D01*
X423200Y475500D02*
Y510500D01*
X440200D01*
Y475500D02*
Y510500D01*
X423200Y475500D02*
X440200D01*
X499300Y762800D02*
X516300D01*
Y797800D01*
X499300D02*
X516300D01*
X499300Y762800D02*
Y797800D01*
X461400Y762800D02*
X478400D01*
Y797800D01*
X461400D02*
X478400D01*
X461400Y762800D02*
Y797800D01*
X871550Y818250D02*
X909050D01*
Y898750D01*
X871550D02*
X909050D01*
X871550Y818250D02*
Y898750D01*
X854400Y757000D02*
Y792000D01*
X871400D01*
Y757000D02*
Y792000D01*
X854400Y757000D02*
X871400D01*
X801300Y781900D02*
X818300D01*
X801300Y746900D02*
Y781900D01*
Y746900D02*
X818300D01*
Y781900D01*
X783000Y785500D02*
X818000D01*
X783000D02*
Y802500D01*
X818000D01*
Y785500D02*
Y802500D01*
X837800Y725600D02*
X872800D01*
X837800D02*
Y742600D01*
X872800D01*
Y725600D02*
Y742600D01*
X837800Y679600D02*
X872800D01*
X837800D02*
Y696600D01*
X872800D01*
Y679600D02*
Y696600D01*
X885300Y714500D02*
X902300D01*
X885300Y679500D02*
X902300D01*
Y723500D01*
X885300D02*
X902300D01*
X885300Y679500D02*
Y723500D01*
X885200Y760500D02*
X902200D01*
X885200Y725500D02*
X902200D01*
Y769500D01*
X885200D02*
X902200D01*
X885200Y725500D02*
Y769500D01*
X885100Y771500D02*
Y815500D01*
X902100D01*
Y771500D02*
Y815500D01*
X885100Y771500D02*
X902100D01*
X885100Y806500D02*
X902100D01*
X566200Y430800D02*
Y465800D01*
X549200Y430800D02*
X566200D01*
X549200D02*
Y465800D01*
X566200D01*
X872250Y539350D02*
X909750D01*
Y619850D01*
X872250D02*
X909750D01*
X872250Y539350D02*
Y619850D01*
X730474Y554658D02*
Y620393D01*
X787700D01*
X787700Y554658D02*
X787700Y620393D01*
X730474Y554658D02*
X787700Y554658D01*
X649800Y446300D02*
Y481300D01*
X632800Y446300D02*
X649800D01*
X632800D02*
Y481300D01*
X649800D01*
X569400Y434200D02*
X604400D01*
Y417200D02*
Y434200D01*
X569400Y417200D02*
X604400D01*
X569400D02*
Y434200D01*
X581730Y455800D02*
X584950Y452580D01*
X581730Y455800D02*
Y483220D01*
X612860D01*
Y452580D02*
Y483220D01*
X584950Y452580D02*
X612860D01*
X549400Y466800D02*
X566400D01*
Y501800D01*
X549400D02*
X566400D01*
X549400Y466800D02*
Y501800D01*
X469650Y346550D02*
Y381550D01*
X452650Y346550D02*
X469650D01*
X452650D02*
Y381550D01*
X469650D01*
X474750Y381450D02*
X491750D01*
X474750Y346450D02*
Y381450D01*
Y346450D02*
X491750D01*
Y381450D01*
X495764Y381775D02*
X512763D01*
X495764Y346775D02*
Y381775D01*
Y346775D02*
X512763D01*
Y381775D01*
X516664Y382275D02*
X533663D01*
X516664Y347275D02*
Y382275D01*
Y347275D02*
X533663D01*
Y382275D01*
X366900Y554900D02*
Y589900D01*
X383900D01*
Y554900D02*
Y589900D01*
X366900Y554900D02*
X383900D01*
X347400D02*
Y589900D01*
X364400D01*
Y554900D02*
Y589900D01*
X347400Y554900D02*
X364400D01*
X419900Y370900D02*
X436900D01*
Y405900D01*
X419900D02*
X436900D01*
X419900Y370900D02*
Y405900D01*
X414500Y339600D02*
X431500D01*
X414500Y304600D02*
Y339600D01*
Y304600D02*
X431500D01*
Y339600D01*
X342100Y325500D02*
Y360500D01*
X359100D01*
Y325500D02*
Y360500D01*
X342100Y325500D02*
X359100D01*
X373200Y341000D02*
X408200D01*
Y324000D02*
Y341000D01*
X373200Y324000D02*
X408200D01*
X373200D02*
Y341000D01*
X353400Y245500D02*
Y280500D01*
X370400D01*
Y245500D02*
Y280500D01*
X353400Y245500D02*
X370400D01*
X411000Y245600D02*
X428000D01*
Y280600D01*
X411000D02*
X428000D01*
X411000Y245600D02*
Y280600D01*
X6850Y52300D02*
Y204000D01*
X14950D01*
Y215950D02*
X124300D01*
X14950Y204000D02*
Y215950D01*
X124300Y203700D02*
Y215950D01*
Y203700D02*
X132550D01*
X6850Y52300D02*
X132550D01*
Y203700D01*
X558600D02*
Y215950D01*
X258750Y204000D02*
Y215950D01*
X558600D01*
Y203700D02*
X566900D01*
X250650Y204000D02*
X258750D01*
X566900Y52300D02*
Y203700D01*
X250650Y52300D02*
X566900D01*
X250650D02*
Y204000D01*
X575850Y52300D02*
Y204000D01*
Y52300D02*
X892100D01*
Y203700D01*
X575850Y204000D02*
X583950D01*
X883800Y203700D02*
X892100D01*
X583950Y215950D02*
X883800D01*
X583950Y204000D02*
Y215950D01*
X883800Y203700D02*
Y215950D01*
X394250Y567700D02*
X586250D01*
X394250D02*
Y747700D01*
X586250D01*
Y567700D02*
Y747700D01*
X298700Y506900D02*
X302700Y502900D01*
X298700Y506900D02*
X302700Y510900D01*
X298700Y506900D02*
X314800D01*
X423100Y513100D02*
Y548100D01*
X440100D01*
Y513100D02*
Y548100D01*
X423100Y513100D02*
X440100D01*
X401300Y513100D02*
Y548100D01*
X384300Y513100D02*
X401300D01*
X384300D02*
Y548100D01*
X401300D01*
X403700Y513100D02*
X420700D01*
Y548100D01*
X403700D02*
X420700D01*
X403700Y513100D02*
Y548100D01*
D13*
X932950Y411250D02*
G03*
X932950Y398550I0J-6350D01*
G01*
X650756Y523200D02*
X932950D01*
X650756Y286800D02*
X932950D01*
Y398550D01*
X650756Y286800D02*
Y523200D01*
X900856D02*
X900856Y286800D01*
X932950Y411250D02*
Y523200D01*
D15*
X869442Y461542D02*
X912622D01*
X869442D02*
X887476Y443508D01*
X869442Y461542D02*
X886968Y479068D01*
X870204Y349782D02*
X887730Y367308D01*
X870204Y349782D02*
X888238Y331748D01*
X870204Y349782D02*
X913384D01*
D16*
X304600Y788200D02*
Y864200D01*
X258600Y788200D02*
Y864200D01*
X304600D01*
X258600Y788200D02*
X304600D01*
X160900Y796350D02*
X182900D01*
X160900Y782850D02*
X182900D01*
Y796350D01*
X160900Y782850D02*
Y796350D01*
X185600Y814050D02*
Y823500D01*
X171150Y814050D02*
X185600D01*
X171150Y823500D02*
X185600D01*
X171150Y814050D02*
Y823500D01*
X174450Y814075D02*
Y823450D01*
X202700Y874450D02*
X238700D01*
X202700Y828750D02*
X238700D01*
Y874450D01*
X202700Y828750D02*
Y874450D01*
X130000Y891700D02*
X190000D01*
Y831700D02*
Y891700D01*
X130000Y831700D02*
X190000D01*
X130000D02*
Y891700D01*
X120950Y771300D02*
X136450D01*
X120950Y802300D02*
X136450D01*
X120950Y771300D02*
Y802300D01*
X136450Y771300D02*
Y802300D01*
X92050Y845300D02*
Y891300D01*
X16050Y845300D02*
Y891300D01*
Y845300D02*
X92050D01*
X16050Y891300D02*
X92050D01*
X550300Y838600D02*
X555300Y833600D01*
X606100D02*
X621500D01*
X474100Y879400D02*
X479100Y884400D01*
X448700Y838600D02*
Y879400D01*
X453700Y884400D02*
X469100D01*
X651900Y879400D02*
X656900Y884400D01*
X555300D02*
X570700D01*
X580700D02*
X596100D01*
X672300D02*
X677300Y879400D01*
X448700D02*
X453700Y884400D01*
X448700Y838600D02*
X453700Y833600D01*
X499500Y879400D02*
X504500Y884400D01*
X656900Y833600D02*
X672300D01*
X646900D02*
X651900Y838600D01*
X469100Y833600D02*
X474100Y838600D01*
X596100Y884400D02*
X601100Y879400D01*
X621500Y884400D02*
X626500Y879400D01*
X621500Y833600D02*
X626500Y838600D01*
X697700Y884400D02*
X702700Y879400D01*
X570700Y884400D02*
X575700Y879400D01*
X677300Y838600D02*
X682300Y833600D01*
X601100Y838600D02*
X606100Y833600D01*
X677300Y879400D02*
X682300Y884400D01*
X545300D02*
X550300Y879400D01*
X702700Y838600D02*
Y879400D01*
X651900Y838600D02*
X656900Y833600D01*
X519900D02*
X524900Y838600D01*
X529900Y833600D02*
X545300D01*
X631500Y884400D02*
X646900D01*
X596100Y833600D02*
X601100Y838600D01*
X656900Y884400D02*
X672300D01*
X524900Y838600D02*
X529900Y833600D01*
X682300Y884400D02*
X697700D01*
X570700Y833600D02*
X575700Y838600D01*
X479100Y884400D02*
X494500D01*
X575700Y838600D02*
X580700Y833600D01*
X504500Y884400D02*
X519900D01*
X555300Y833600D02*
X570700D01*
X580700D02*
X596100D01*
X682300D02*
X697700D01*
X626500Y879400D02*
X631500Y884400D01*
X519900D02*
X524900Y879400D01*
X494500Y884400D02*
X499500Y879400D01*
X524900D02*
X529900Y884400D01*
X494500Y833600D02*
X499500Y838600D01*
X646900Y884400D02*
X651900Y879400D01*
X601100D02*
X606100Y884400D01*
X575700Y879400D02*
X580700Y884400D01*
X606100D02*
X621500D01*
X479100Y833600D02*
X494500D01*
X529900Y884400D02*
X545300D01*
X550300Y879400D02*
X555300Y884400D01*
X626500Y838600D02*
X631500Y833600D01*
X672300D02*
X677300Y838600D01*
X504500Y833600D02*
X519900D01*
X474100Y838600D02*
X479100Y833600D01*
X499500Y838600D02*
X504500Y833600D01*
X545300D02*
X550300Y838600D01*
X469100Y884400D02*
X474100Y879400D01*
X697700Y833600D02*
X702700Y838600D01*
X453700Y833600D02*
X469100D01*
X631500D02*
X646900D01*
X829700Y800900D02*
X843700D01*
X829700Y770900D02*
Y800900D01*
X843700Y770900D02*
Y800900D01*
X829700Y770900D02*
X843700D01*
X752550Y251800D02*
X790050D01*
X752550D02*
Y280800D01*
X790050D01*
Y251800D02*
Y280800D01*
X518313Y393000D02*
X531814D01*
X518313D02*
Y411000D01*
Y406000D02*
X531814D01*
Y393000D02*
Y411000D01*
X518313D02*
X531814D01*
X497514Y410475D02*
X511013D01*
Y392475D02*
Y410475D01*
X497514Y405475D02*
X511013D01*
X497514Y392475D02*
Y410475D01*
Y392475D02*
X511013D01*
X476600Y410225D02*
X490100D01*
Y392225D02*
Y410225D01*
X476600Y405225D02*
X490100D01*
X476600Y392225D02*
Y410225D01*
Y392225D02*
X490100D01*
X454300Y392250D02*
X467800D01*
X454300D02*
Y410250D01*
Y405250D02*
X467800D01*
Y392250D02*
Y410250D01*
X454300D02*
X467800D01*
X397800Y291000D02*
Y313000D01*
X383800Y291000D02*
X397800D01*
X383800Y313000D02*
X397800D01*
X383800Y291000D02*
Y313000D01*
X375600Y269800D02*
X406000D01*
X375600Y255800D02*
X406000D01*
Y269800D01*
X375600Y255800D02*
Y269800D01*
D17*
X247600Y375700D02*
Y755700D01*
X17600D02*
X247600D01*
X17600Y375700D02*
Y755700D01*
Y375700D02*
X247600D01*
X352100Y493000D02*
X382500D01*
Y479000D02*
Y493000D01*
X352100Y479000D02*
X382500D01*
X352100D02*
Y493000D01*
X415550Y366650D02*
Y406650D01*
X365550Y366650D02*
Y406650D01*
X415550D01*
X365550Y366650D02*
X415550D01*
X219700Y146800D02*
Y172200D01*
X158700Y146800D02*
X219700D01*
X158700D02*
Y172200D01*
X219700D01*
X727800Y724500D02*
X778600D01*
X727800Y648300D02*
X778600D01*
X677000Y724500D02*
X727800D01*
Y648300D02*
Y724500D01*
X677000Y648300D02*
X727800D01*
X677000D02*
Y724500D01*
X727800Y686400D02*
X778600D01*
D18*
X618700Y394000D02*
X618900D01*
X618700Y318000D02*
Y394000D01*
X647900Y318000D02*
Y394000D01*
X618700Y318000D02*
X647900D01*
X618900Y394000D02*
X647900D01*
X553400Y307600D02*
X581000D01*
X553400Y411400D02*
X581000D01*
X553400Y307600D02*
Y411400D01*
X581000Y307600D02*
Y411400D01*
D20*
X585723Y447990D02*
G03*
X585723Y447990I-1513J0D01*
G01*
X54050Y353650D02*
X215600D01*
X54050Y247650D02*
Y353650D01*
Y247650D02*
X215600D01*
Y353650D01*
X259850Y228400D02*
Y359900D01*
X228900Y228400D02*
X259850D01*
X228900D02*
Y359900D01*
X259850D01*
X9650Y228400D02*
Y359900D01*
X40600D01*
Y228400D02*
Y359900D01*
X9650Y228400D02*
X40600D01*
X196950Y5200D02*
X227900D01*
X196950D02*
Y136550D01*
X227900Y5200D02*
Y136550D01*
X196950D02*
X227900D01*
D22*
X79282Y786100D02*
G03*
X79282Y786100I-2482J0D01*
G01*
X461843Y451532D02*
G03*
X461843Y451532I-3049J0D01*
G01*
D131*
X50448Y780450D02*
G03*
X44352Y780450I-3048J0D01*
G01*
X67150D02*
Y829950D01*
X27650Y780450D02*
X67150D01*
X27650D02*
Y829950D01*
X67150D01*
D132*
X611134Y757967D02*
G03*
X605038Y757967I-3048J0D01*
G01*
X611148Y727067D02*
G03*
X605052Y727067I-3048J0D01*
G01*
X453456Y462574D02*
G03*
X453456Y468670I0J3048D01*
G01*
X189158Y112526D02*
G03*
X150042Y112526I-19558J0D01*
G01*
Y26674D02*
G03*
X189158Y26674I19558J0D01*
G01*
D133*
X614309Y757967D02*
Y778033D01*
X601863Y757967D02*
X614309D01*
X601863D02*
Y778033D01*
X614309D01*
X597037Y759976D02*
X601863D01*
X597037D02*
Y763024D01*
X601863D01*
Y759976D02*
Y763024D01*
X597037Y766476D02*
X601863D01*
X597037D02*
Y769524D01*
X601863D01*
Y766476D02*
Y769524D01*
X597037Y772976D02*
X601863D01*
X597037D02*
Y776024D01*
X601863D01*
Y772976D02*
Y776024D01*
X614309D02*
X619135D01*
Y772976D02*
Y776024D01*
X614309Y772976D02*
X619135D01*
X614309D02*
Y776024D01*
Y769524D02*
X619135D01*
Y766476D02*
Y769524D01*
X614309Y766476D02*
X619135D01*
X614309D02*
Y769524D01*
Y763024D02*
X619135D01*
Y759976D02*
Y763024D01*
X614309Y759976D02*
X619135D01*
X614309D02*
Y763024D01*
X614323Y727067D02*
Y747133D01*
X601877Y727067D02*
X614323D01*
X601877D02*
Y747133D01*
X614323D01*
X597051Y729076D02*
X601877D01*
X597051D02*
Y732124D01*
X601877D01*
Y729076D02*
Y732124D01*
X597051Y735576D02*
X601877D01*
X597051D02*
Y738624D01*
X601877D01*
Y735576D02*
Y738624D01*
X597051Y742076D02*
X601877D01*
X597051D02*
Y745124D01*
X601877D01*
Y742076D02*
Y745124D01*
X614323D02*
X619149D01*
Y742076D02*
Y745124D01*
X614323Y742076D02*
X619149D01*
X614323D02*
Y745124D01*
Y738624D02*
X619149D01*
Y735576D02*
Y738624D01*
X614323Y735576D02*
X619149D01*
X614323D02*
Y738624D01*
Y732124D02*
X619149D01*
Y729076D02*
Y732124D01*
X614323Y729076D02*
X619149D01*
X614323D02*
Y732124D01*
X453456Y446064D02*
X540070D01*
X453456D02*
Y485180D01*
X540070D01*
Y446064D02*
Y485180D01*
X456124D02*
Y495594D01*
X461203D01*
Y485180D02*
Y495594D01*
X456124Y485180D02*
X461203D01*
X468824D02*
Y495594D01*
X473904D01*
Y485180D02*
Y495594D01*
X468824Y485180D02*
X473904D01*
X481524D02*
Y495594D01*
X486604D01*
Y485180D02*
Y495594D01*
X481524Y485180D02*
X486604D01*
X494224D02*
Y495594D01*
X499304D01*
Y485180D02*
Y495594D01*
X494224Y485180D02*
X499304D01*
X506923D02*
Y495594D01*
X512004D01*
Y485180D02*
Y495594D01*
X506923Y485180D02*
X512004D01*
X519623D02*
Y495594D01*
X524703D01*
Y485180D02*
Y495594D01*
X519623Y485180D02*
X524703D01*
X532323D02*
Y495594D01*
X537403D01*
Y485180D02*
Y495594D01*
X532323Y485180D02*
X537403D01*
Y435650D02*
Y446064D01*
X532323Y435650D02*
X537403D01*
X532323D02*
Y446064D01*
X537403D01*
X524703Y435650D02*
Y446064D01*
X519623Y435650D02*
X524703D01*
X519623D02*
Y446064D01*
X524703D01*
X512004Y435650D02*
Y446064D01*
X506923Y435650D02*
X512004D01*
X506923D02*
Y446064D01*
X512004D01*
X499304Y435650D02*
Y446064D01*
X494224Y435650D02*
X499304D01*
X494224D02*
Y446064D01*
X499304D01*
X486604Y435650D02*
Y446064D01*
X481524Y435650D02*
X486604D01*
X481524D02*
Y446064D01*
X486604D01*
X473904Y435650D02*
Y446064D01*
X468824Y435650D02*
X473904D01*
X468824D02*
Y446064D01*
X473904D01*
X461203Y435650D02*
Y446064D01*
X456124Y435650D02*
Y446064D01*
X461203D01*
X456124Y435650D02*
X461203D01*
X169350Y64336D02*
Y77036D01*
X163000Y66876D02*
X175700D01*
X163000Y74496D02*
X169350Y66876D01*
X164270Y74496D02*
X169350Y66876D01*
X165540Y74496D02*
X169350Y66876D01*
X166810Y74496D02*
X169350Y66876D01*
X168080Y74496D02*
X169350Y66876D01*
X175700Y74496D01*
X169350Y66876D02*
X174430Y74496D01*
X169350Y66876D02*
X173160Y74496D01*
X169350Y66876D02*
X171890Y74496D01*
X169350Y66876D02*
X170620Y74496D01*
X163000D02*
X175700D01*
X150042Y26674D02*
Y112526D01*
X189158Y26674D02*
Y112526D01*
D134*
X677000Y648300D02*
Y724500D01*
Y648300D02*
X727800D01*
Y724500D01*
X677000D02*
X727800D01*
D135*
X322439Y527531D02*
Y519534D01*
X326438D01*
X327771Y520867D01*
Y522200D01*
X326438Y523532D01*
X322439D01*
X326438D01*
X327771Y524865D01*
Y526198D01*
X326438Y527531D01*
X322439D01*
X331770Y519534D02*
X334436D01*
X335768Y520867D01*
Y523532D01*
X334436Y524865D01*
X331770D01*
X330437Y523532D01*
Y520867D01*
X331770Y519534D01*
X339767Y524865D02*
X342433D01*
X343766Y523532D01*
Y519534D01*
X339767D01*
X338434Y520867D01*
X339767Y522200D01*
X343766D01*
X346432Y524865D02*
Y519534D01*
Y522200D01*
X347765Y523532D01*
X349097Y524865D01*
X350430D01*
X359761Y527531D02*
Y519534D01*
X355762D01*
X354429Y520867D01*
Y523532D01*
X355762Y524865D01*
X359761D01*
X325772Y512281D02*
X324439Y513614D01*
X321773D01*
X320440Y512281D01*
Y506950D01*
X321773Y505617D01*
X324439D01*
X325772Y506950D01*
X328437Y510948D02*
Y506950D01*
X329770Y505617D01*
X333769D01*
Y510948D01*
X337768Y512281D02*
Y510948D01*
X336435D01*
X339101D01*
X337768D01*
Y506950D01*
X339101Y505617D01*
X344432D02*
X347098D01*
X348431Y506950D01*
Y509616D01*
X347098Y510948D01*
X344432D01*
X343099Y509616D01*
Y506950D01*
X344432Y505617D01*
X351097Y510948D02*
Y506950D01*
X352430Y505617D01*
X356428D01*
Y510948D01*
X360427Y512281D02*
Y510948D01*
X359094D01*
X361760D01*
X360427D01*
Y506950D01*
X361760Y505617D01*
X334436Y498364D02*
X333103Y499697D01*
X330437D01*
X329104Y498364D01*
Y497032D01*
X330437Y495699D01*
X333103D01*
X334436Y494366D01*
Y493033D01*
X333103Y491700D01*
X330437D01*
X329104Y493033D01*
X337101Y491700D02*
X339767D01*
X338434D01*
Y499697D01*
X337101D01*
X343766Y491700D02*
X346432D01*
X345099D01*
Y497032D01*
X343766D01*
X351763Y498364D02*
Y497032D01*
X350430D01*
X353096D01*
X351763D01*
Y493033D01*
X353096Y491700D01*
X399799Y851937D02*
X391801D01*
Y855936D01*
X393134Y857268D01*
X395800D01*
X397133Y855936D01*
Y851937D01*
Y854603D02*
X399799Y857268D01*
Y865266D02*
Y859934D01*
X394467Y865266D01*
X393134D01*
X391801Y863933D01*
Y861267D01*
X393134Y859934D01*
Y867932D02*
X391801Y869265D01*
Y871930D01*
X393134Y873263D01*
X398466D01*
X399799Y871930D01*
Y869265D01*
X398466Y867932D01*
X393134D01*
X391701Y819936D02*
X399699D01*
Y823935D01*
X398366Y825268D01*
X393034D01*
X391701Y823935D01*
Y819936D01*
X399699Y827934D02*
Y830599D01*
Y829267D01*
X391701D01*
X393034Y827934D01*
X399699Y834598D02*
Y837264D01*
Y835931D01*
X391701D01*
X393034Y834598D01*
X371501Y818003D02*
X379499D01*
Y822002D01*
X378166Y823335D01*
X372834D01*
X371501Y822002D01*
Y818003D01*
X379499Y826001D02*
Y828666D01*
Y827334D01*
X371501D01*
X372834Y826001D01*
Y832665D02*
X371501Y833998D01*
Y836664D01*
X372834Y837997D01*
X378166D01*
X379499Y836664D01*
Y833998D01*
X378166Y832665D01*
X372834D01*
X379399Y852703D02*
X371401D01*
Y856702D01*
X372734Y858035D01*
X375400D01*
X376733Y856702D01*
Y852703D01*
Y855369D02*
X379399Y858035D01*
Y860701D02*
Y863366D01*
Y862034D01*
X371401D01*
X372734Y860701D01*
X378066Y867365D02*
X379399Y868698D01*
Y871364D01*
X378066Y872697D01*
X372734D01*
X371401Y871364D01*
Y868698D01*
X372734Y867365D01*
X374067D01*
X375400Y868698D01*
Y872697D01*
X391801Y878037D02*
Y883368D01*
Y880703D01*
X399799D01*
Y886034D02*
X391801D01*
Y890033D01*
X393134Y891366D01*
X395800D01*
X397133Y890033D01*
Y886034D01*
X399799Y899363D02*
Y894032D01*
X394467Y899363D01*
X393134D01*
X391801Y898030D01*
Y895365D01*
X393134Y894032D01*
X371501Y879370D02*
Y884701D01*
Y882036D01*
X379499D01*
Y887367D02*
X371501D01*
Y891366D01*
X372834Y892699D01*
X375500D01*
X376833Y891366D01*
Y887367D01*
X379499Y895365D02*
Y898030D01*
Y896697D01*
X371501D01*
X372834Y895365D01*
X429034Y491667D02*
X427701Y490334D01*
Y487668D01*
X429034Y486335D01*
X434366D01*
X435699Y487668D01*
Y490334D01*
X434366Y491667D01*
X435699Y498332D02*
X427701D01*
X431700Y494333D01*
Y499664D01*
X278934Y820910D02*
X277601Y819577D01*
Y816911D01*
X278934Y815578D01*
X284266D01*
X285599Y816911D01*
Y819577D01*
X284266Y820910D01*
X285599Y823576D02*
Y826241D01*
Y824909D01*
X277601D01*
X278934Y823576D01*
X285599Y834239D02*
X277601D01*
X281600Y830240D01*
Y835572D01*
X165436Y794099D02*
Y786101D01*
X169434D01*
X170767Y787434D01*
Y792766D01*
X169434Y794099D01*
X165436D01*
X173433Y787434D02*
X174766Y786101D01*
X177432D01*
X178764Y787434D01*
Y792766D01*
X177432Y794099D01*
X174766D01*
X173433Y792766D01*
Y791433D01*
X174766Y790100D01*
X178764D01*
X146903Y808699D02*
Y800701D01*
X150902D01*
X152235Y802034D01*
Y807366D01*
X150902Y808699D01*
X146903D01*
X154901Y800701D02*
X157566D01*
X156234D01*
Y808699D01*
X154901Y807366D01*
X166897Y800701D02*
X161565D01*
X166897Y806033D01*
Y807366D01*
X165564Y808699D01*
X162898D01*
X161565Y807366D01*
X216701Y844061D02*
X224699D01*
Y848059D01*
X223366Y849392D01*
X218034D01*
X216701Y848059D01*
Y844061D01*
X218034Y852058D02*
X216701Y853391D01*
Y856057D01*
X218034Y857390D01*
X219367D01*
X220700Y856057D01*
X222033Y857390D01*
X223366D01*
X224699Y856057D01*
Y853391D01*
X223366Y852058D01*
X222033D01*
X220700Y853391D01*
X219367Y852058D01*
X218034D01*
X220700Y853391D02*
Y856057D01*
X153336Y865699D02*
Y857701D01*
X158667D01*
X161333Y864366D02*
X162666Y865699D01*
X165332D01*
X166665Y864366D01*
Y863033D01*
X165332Y861700D01*
X163999D01*
X165332D01*
X166665Y860367D01*
Y859034D01*
X165332Y857701D01*
X162666D01*
X161333Y859034D01*
X124701Y785467D02*
Y780135D01*
X128700D01*
Y782801D01*
Y780135D01*
X132699D01*
Y793465D02*
Y788133D01*
X127367Y793465D01*
X126034D01*
X124701Y792132D01*
Y789466D01*
X126034Y788133D01*
X50010Y870966D02*
X48677Y872299D01*
X46011D01*
X44678Y870966D01*
Y865634D01*
X46011Y864301D01*
X48677D01*
X50010Y865634D01*
X52676Y864301D02*
X55341D01*
X54009D01*
Y872299D01*
X52676Y870966D01*
X64672Y872299D02*
X59340D01*
Y868300D01*
X62006Y869633D01*
X63339D01*
X64672Y868300D01*
Y865634D01*
X63339Y864301D01*
X60673D01*
X59340Y865634D01*
X40736Y805374D02*
Y798709D01*
X42068Y797376D01*
X44734D01*
X46067Y798709D01*
Y805374D01*
X48733Y804041D02*
X50066Y805374D01*
X52732D01*
X54064Y804041D01*
Y802708D01*
X52732Y801375D01*
X54064Y800042D01*
Y798709D01*
X52732Y797376D01*
X50066D01*
X48733Y798709D01*
Y800042D01*
X50066Y801375D01*
X48733Y802708D01*
Y804041D01*
X50066Y801375D02*
X52732D01*
X121370Y559101D02*
Y567099D01*
X125368D01*
X126701Y565766D01*
Y563100D01*
X125368Y561767D01*
X121370D01*
X134699Y565766D02*
X133366Y567099D01*
X130700D01*
X129367Y565766D01*
Y564433D01*
X130700Y563100D01*
X133366D01*
X134699Y561767D01*
Y560434D01*
X133366Y559101D01*
X130700D01*
X129367Y560434D01*
X137365Y559101D02*
X140030D01*
X138697D01*
Y567099D01*
X137365Y565766D01*
X511799Y773635D02*
X503801D01*
Y777634D01*
X505134Y778967D01*
X507800D01*
X509133Y777634D01*
Y773635D01*
Y776301D02*
X511799Y778967D01*
X503801Y781633D02*
Y786964D01*
X505134D01*
X510466Y781633D01*
X511799D01*
X473899Y773635D02*
X465901D01*
Y777634D01*
X467234Y778967D01*
X469900D01*
X471233Y777634D01*
Y773635D01*
Y776301D02*
X473899Y778967D01*
X465901Y786964D02*
X467234Y784299D01*
X469900Y781633D01*
X472566D01*
X473899Y782966D01*
Y785632D01*
X472566Y786964D01*
X471233D01*
X469900Y785632D01*
Y781633D01*
X339437Y768601D02*
Y776599D01*
X342103Y773933D01*
X344768Y776599D01*
Y768601D01*
X347434Y776599D02*
Y768601D01*
Y772600D01*
X352766D01*
Y776599D01*
Y768601D01*
X360763D02*
X355432D01*
X360763Y773933D01*
Y775266D01*
X359430Y776599D01*
X356764D01*
X355432Y775266D01*
X571701Y856368D02*
Y853702D01*
Y855035D01*
X578366D01*
X579699Y853702D01*
Y852369D01*
X578366Y851036D01*
X571701Y864365D02*
X573034Y861700D01*
X575700Y859034D01*
X578366D01*
X579699Y860367D01*
Y863032D01*
X578366Y864365D01*
X577033D01*
X575700Y863032D01*
Y859034D01*
X601135Y787899D02*
Y781234D01*
X602468Y779901D01*
X605134D01*
X606467Y781234D01*
Y787899D01*
X613132Y779901D02*
Y787899D01*
X609133Y783900D01*
X614464D01*
X601836Y724799D02*
Y718134D01*
X603168Y716801D01*
X605834D01*
X607167Y718134D01*
Y724799D01*
X609833Y723466D02*
X611166Y724799D01*
X613832D01*
X615164Y723466D01*
Y722133D01*
X613832Y720800D01*
X612499D01*
X613832D01*
X615164Y719467D01*
Y718134D01*
X613832Y716801D01*
X611166D01*
X609833Y718134D01*
X883284Y854501D02*
X881951Y853168D01*
Y850503D01*
X883284Y849170D01*
X884617D01*
X885950Y850503D01*
Y853168D01*
X887283Y854501D01*
X888616D01*
X889949Y853168D01*
Y850503D01*
X888616Y849170D01*
X881951Y857167D02*
X889949D01*
X887283Y859833D01*
X889949Y862499D01*
X881951D01*
X889949Y865164D02*
Y867830D01*
Y866497D01*
X881951D01*
X883284Y865164D01*
X866899Y764503D02*
X858901D01*
Y768502D01*
X860234Y769835D01*
X862900D01*
X864233Y768502D01*
Y764503D01*
Y767169D02*
X866899Y769835D01*
Y772501D02*
Y775166D01*
Y773833D01*
X858901D01*
X860234Y772501D01*
X866899Y783164D02*
X858901D01*
X862900Y779165D01*
Y784497D01*
X813799Y754403D02*
X805801D01*
Y758402D01*
X807134Y759735D01*
X809800D01*
X811133Y758402D01*
Y754403D01*
Y757069D02*
X813799Y759735D01*
Y762401D02*
Y765067D01*
Y763734D01*
X805801D01*
X807134Y762401D01*
X805801Y769065D02*
Y774397D01*
X807134D01*
X812466Y769065D01*
X813799D01*
X790503Y790001D02*
Y797999D01*
X794502D01*
X795835Y796666D01*
Y794000D01*
X794502Y792667D01*
X790503D01*
X793169D02*
X795835Y790001D01*
X798501D02*
X801166D01*
X799834D01*
Y797999D01*
X798501Y796666D01*
X810497Y797999D02*
X807831Y796666D01*
X805165Y794000D01*
Y791334D01*
X806498Y790001D01*
X809164D01*
X810497Y791334D01*
Y792667D01*
X809164Y794000D01*
X805165D01*
X836700Y783234D02*
Y788566D01*
X835367Y789899D01*
X832701D01*
X831368Y788566D01*
Y783234D01*
X832701Y781901D01*
X835367D01*
X834034Y784567D02*
X836700Y781901D01*
X835367D02*
X836700Y783234D01*
X839366Y781901D02*
X842032D01*
X840699D01*
Y789899D01*
X839366Y788566D01*
X848635Y730101D02*
Y738099D01*
X852634D01*
X853967Y736766D01*
Y734100D01*
X852634Y732767D01*
X848635D01*
X851301D02*
X853967Y730101D01*
X856633Y731434D02*
X857966Y730101D01*
X860632D01*
X861964Y731434D01*
Y736766D01*
X860632Y738099D01*
X857966D01*
X856633Y736766D01*
Y735433D01*
X857966Y734100D01*
X861964D01*
X848635Y684101D02*
Y692099D01*
X852634D01*
X853967Y690766D01*
Y688100D01*
X852634Y686767D01*
X848635D01*
X851301D02*
X853967Y684101D01*
X856633Y690766D02*
X857966Y692099D01*
X860632D01*
X861964Y690766D01*
Y689433D01*
X860632Y688100D01*
X861964Y686767D01*
Y685434D01*
X860632Y684101D01*
X857966D01*
X856633Y685434D01*
Y686767D01*
X857966Y688100D01*
X856633Y689433D01*
Y690766D01*
X857966Y688100D02*
X860632D01*
X889801Y696168D02*
X897799D01*
Y700167D01*
X896466Y701500D01*
X891134D01*
X889801Y700167D01*
Y696168D01*
X897799Y704166D02*
Y706832D01*
Y705499D01*
X889801D01*
X891134Y704166D01*
X889701Y740835D02*
X897699D01*
Y744834D01*
X896366Y746167D01*
X891034D01*
X889701Y744834D01*
Y740835D01*
X897699Y754165D02*
Y748833D01*
X892367Y754165D01*
X891034D01*
X889701Y752832D01*
Y750166D01*
X891034Y748833D01*
X889601Y786835D02*
X897599D01*
Y790834D01*
X896266Y792167D01*
X890934D01*
X889601Y790834D01*
Y786835D01*
Y800164D02*
X890934Y797499D01*
X893600Y794833D01*
X896266D01*
X897599Y796166D01*
Y798832D01*
X896266Y800164D01*
X894933D01*
X893600Y798832D01*
Y794833D01*
X850537Y248301D02*
Y256299D01*
X853203Y253633D01*
X855868Y256299D01*
Y248301D01*
X858534Y256299D02*
Y248301D01*
Y252300D01*
X863866D01*
Y256299D01*
Y248301D01*
X870530D02*
Y256299D01*
X866532Y252300D01*
X871863D01*
X736870Y772401D02*
Y780399D01*
X739536Y777733D01*
X742201Y780399D01*
Y772401D01*
X744867Y780399D02*
Y772401D01*
Y776400D01*
X750199D01*
Y780399D01*
Y772401D01*
X752865D02*
X755530D01*
X754197D01*
Y780399D01*
X752865Y779066D01*
X555034Y446967D02*
X553701Y445634D01*
Y442968D01*
X555034Y441636D01*
X560366D01*
X561699Y442968D01*
Y445634D01*
X560366Y446967D01*
Y449633D02*
X561699Y450966D01*
Y453632D01*
X560366Y454964D01*
X555034D01*
X553701Y453632D01*
Y450966D01*
X555034Y449633D01*
X556367D01*
X557700Y450966D01*
Y454964D01*
X883984Y574268D02*
X882651Y572935D01*
Y570270D01*
X883984Y568937D01*
X885317D01*
X886650Y570270D01*
Y572935D01*
X887983Y574268D01*
X889316D01*
X890649Y572935D01*
Y570270D01*
X889316Y568937D01*
X882651Y576934D02*
X890649D01*
X887983Y579600D01*
X890649Y582266D01*
X882651D01*
X890649Y590263D02*
Y584932D01*
X885317Y590263D01*
X883984D01*
X882651Y588930D01*
Y586264D01*
X883984Y584932D01*
X743352Y564638D02*
Y559306D01*
X738020Y564638D01*
X736687D01*
X735355Y563305D01*
Y560639D01*
X736687Y559306D01*
X796124Y571752D02*
X794791Y573085D01*
Y575751D01*
X796124Y577084D01*
X797456D01*
X798789Y575751D01*
Y574418D01*
Y575751D01*
X800122Y577084D01*
X801455D01*
X802788Y575751D01*
Y573085D01*
X801455Y571752D01*
X754292Y587652D02*
Y584987D01*
Y586320D01*
X760956D01*
X762289Y584987D01*
Y583654D01*
X760956Y582321D01*
X762289Y590318D02*
Y592984D01*
Y591651D01*
X754292D01*
X755624Y590318D01*
X638634Y459135D02*
X637301Y457802D01*
Y455136D01*
X638634Y453803D01*
X643966D01*
X645299Y455136D01*
Y457802D01*
X643966Y459135D01*
X645299Y461801D02*
Y464467D01*
Y463134D01*
X637301D01*
X638634Y461801D01*
Y468465D02*
X637301Y469798D01*
Y472464D01*
X638634Y473797D01*
X643966D01*
X645299Y472464D01*
Y469798D01*
X643966Y468465D01*
X638634D01*
X576903Y421701D02*
Y429699D01*
X580902D01*
X582235Y428366D01*
Y425700D01*
X580902Y424367D01*
X576903D01*
X579569D02*
X582235Y421701D01*
X584901D02*
X587566D01*
X586233D01*
Y429699D01*
X584901Y428366D01*
X591565D02*
X592898Y429699D01*
X595564D01*
X596897Y428366D01*
Y427033D01*
X595564Y425700D01*
X594231D01*
X595564D01*
X596897Y424367D01*
Y423034D01*
X595564Y421701D01*
X592898D01*
X591565Y423034D01*
X625392Y358676D02*
Y356010D01*
Y357343D01*
X632057D01*
X633390Y356010D01*
Y354678D01*
X632057Y353345D01*
X633390Y365341D02*
X625392D01*
X629391Y361342D01*
Y366674D01*
X567160Y354208D02*
Y351542D01*
Y352875D01*
X573825D01*
X575158Y351542D01*
Y350209D01*
X573825Y348876D01*
X567160Y362205D02*
Y356874D01*
X571159D01*
X569826Y359540D01*
Y360872D01*
X571159Y362205D01*
X573825D01*
X575158Y360872D01*
Y358207D01*
X573825Y356874D01*
X587316Y471849D02*
Y465184D01*
X588649Y463851D01*
X591315D01*
X592648Y465184D01*
Y471849D01*
X595314Y463851D02*
X597979D01*
X596647D01*
Y471849D01*
X595314Y470516D01*
X601978D02*
X603311Y471849D01*
X605977D01*
X607310Y470516D01*
Y465184D01*
X605977Y463851D01*
X603311D01*
X601978Y465184D01*
Y470516D01*
X555234Y482967D02*
X553901Y481634D01*
Y478968D01*
X555234Y477635D01*
X560566D01*
X561899Y478968D01*
Y481634D01*
X560566Y482967D01*
X555234Y485633D02*
X553901Y486966D01*
Y489632D01*
X555234Y490965D01*
X556567D01*
X557900Y489632D01*
X559233Y490965D01*
X560566D01*
X561899Y489632D01*
Y486966D01*
X560566Y485633D01*
X559233D01*
X557900Y486966D01*
X556567Y485633D01*
X555234D01*
X557900Y486966D02*
Y489632D01*
X489729Y459846D02*
X496393D01*
X497726Y461179D01*
Y463845D01*
X496393Y465178D01*
X489729D01*
Y473176D02*
X491062Y470510D01*
X493727Y467844D01*
X496393D01*
X497726Y469177D01*
Y471843D01*
X496393Y473176D01*
X495060D01*
X493727Y471843D01*
Y467844D01*
X763535Y267566D02*
X762202Y268899D01*
X759536D01*
X758203Y267566D01*
Y262234D01*
X759536Y260901D01*
X762202D01*
X763535Y262234D01*
X766201Y260901D02*
X768866D01*
X767533D01*
Y268899D01*
X766201Y267566D01*
X778197Y268899D02*
X775531Y267566D01*
X772865Y264900D01*
Y262234D01*
X774198Y260901D01*
X776864D01*
X778197Y262234D01*
Y263567D01*
X776864Y264900D01*
X772865D01*
X465149Y354053D02*
X457151D01*
Y358052D01*
X458484Y359385D01*
X461150D01*
X462483Y358052D01*
Y354053D01*
Y356719D02*
X465149Y359385D01*
Y362051D02*
Y364716D01*
Y363383D01*
X457151D01*
X458484Y362051D01*
X457151Y374047D02*
Y368715D01*
X461150D01*
X459817Y371381D01*
Y372714D01*
X461150Y374047D01*
X463816D01*
X465149Y372714D01*
Y370048D01*
X463816Y368715D01*
X487249Y353953D02*
X479251D01*
Y357952D01*
X480584Y359285D01*
X483250D01*
X484583Y357952D01*
Y353953D01*
Y356619D02*
X487249Y359285D01*
Y361951D02*
Y364616D01*
Y363284D01*
X479251D01*
X480584Y361951D01*
Y368615D02*
X479251Y369948D01*
Y372614D01*
X480584Y373947D01*
X485916D01*
X487249Y372614D01*
Y369948D01*
X485916Y368615D01*
X480584D01*
X508262Y354278D02*
X500265D01*
Y358277D01*
X501598Y359610D01*
X504263D01*
X505596Y358277D01*
Y354278D01*
Y356944D02*
X508262Y359610D01*
Y362276D02*
Y364941D01*
Y363609D01*
X500265D01*
X501598Y362276D01*
X508262Y374272D02*
Y368940D01*
X502931Y374272D01*
X501598D01*
X500265Y372939D01*
Y370273D01*
X501598Y368940D01*
X529162Y356111D02*
X521165D01*
Y360110D01*
X522498Y361443D01*
X525163D01*
X526496Y360110D01*
Y356111D01*
Y358777D02*
X529162Y361443D01*
Y364109D02*
Y366774D01*
Y365442D01*
X521165D01*
X522498Y364109D01*
X529162Y370773D02*
Y373439D01*
Y372106D01*
X521165D01*
X522498Y370773D01*
X518936Y425199D02*
Y417201D01*
X522934D01*
X524267Y418534D01*
Y423866D01*
X522934Y425199D01*
X518936D01*
X530932Y417201D02*
Y425199D01*
X526933Y421200D01*
X532265D01*
X498036Y425199D02*
Y417201D01*
X502034D01*
X503367Y418534D01*
Y423866D01*
X502034Y425199D01*
X498036D01*
X511365D02*
X506033D01*
Y421200D01*
X508699Y422533D01*
X510032D01*
X511365Y421200D01*
Y418534D01*
X510032Y417201D01*
X507366D01*
X506033Y418534D01*
X476636Y425199D02*
Y417201D01*
X480634D01*
X481967Y418534D01*
Y423866D01*
X480634Y425199D01*
X476636D01*
X484633Y423866D02*
X485966Y425199D01*
X488632D01*
X489964Y423866D01*
Y422533D01*
X488632Y421200D01*
X487299D01*
X488632D01*
X489964Y419867D01*
Y418534D01*
X488632Y417201D01*
X485966D01*
X484633Y418534D01*
X455036Y425199D02*
Y417201D01*
X459034D01*
X460367Y418534D01*
Y423866D01*
X459034Y425199D01*
X455036D01*
X463033D02*
X468364D01*
Y423866D01*
X463033Y418534D01*
Y417201D01*
X372734Y572400D02*
X371401Y571067D01*
Y568401D01*
X372734Y567068D01*
X378066D01*
X379399Y568401D01*
Y571067D01*
X378066Y572400D01*
X379399Y575066D02*
Y577732D01*
Y576399D01*
X371401D01*
X372734Y575066D01*
X353234Y571067D02*
X351901Y569734D01*
Y567068D01*
X353234Y565736D01*
X358566D01*
X359899Y567068D01*
Y569734D01*
X358566Y571067D01*
X359899Y579064D02*
Y573733D01*
X354567Y579064D01*
X353234D01*
X351901Y577732D01*
Y575066D01*
X353234Y573733D01*
X360435Y489999D02*
Y483334D01*
X361768Y482001D01*
X364434D01*
X365767Y483334D01*
Y489999D01*
X368433D02*
X373764D01*
Y488666D01*
X368433Y483334D01*
Y482001D01*
X388159Y379986D02*
X394823D01*
X396156Y381318D01*
Y383984D01*
X394823Y385317D01*
X388159D01*
X396156Y393315D02*
Y387983D01*
X390825Y393315D01*
X389492D01*
X388159Y391982D01*
Y389316D01*
X389492Y387983D01*
X425734Y387067D02*
X424401Y385734D01*
Y383068D01*
X425734Y381735D01*
X431066D01*
X432399Y383068D01*
Y385734D01*
X431066Y387067D01*
X424401Y395065D02*
Y389733D01*
X428400D01*
X427067Y392399D01*
Y393732D01*
X428400Y395065D01*
X431066D01*
X432399Y393732D01*
Y391066D01*
X431066Y389733D01*
X295737Y286001D02*
Y293999D01*
X298403Y291333D01*
X301068Y293999D01*
Y286001D01*
X303734Y293999D02*
Y286001D01*
Y290000D01*
X309066D01*
Y293999D01*
Y286001D01*
X311732Y292666D02*
X313064Y293999D01*
X315730D01*
X317063Y292666D01*
Y291333D01*
X315730Y290000D01*
X314397D01*
X315730D01*
X317063Y288667D01*
Y287334D01*
X315730Y286001D01*
X313064D01*
X311732Y287334D01*
X420334Y320767D02*
X419001Y319434D01*
Y316768D01*
X420334Y315436D01*
X425666D01*
X426999Y316768D01*
Y319434D01*
X425666Y320767D01*
X419001Y323433D02*
Y328764D01*
X420334D01*
X425666Y323433D01*
X426999D01*
X347934Y341667D02*
X346601Y340334D01*
Y337668D01*
X347934Y336335D01*
X353266D01*
X354599Y337668D01*
Y340334D01*
X353266Y341667D01*
X346601Y349664D02*
X347934Y346999D01*
X350600Y344333D01*
X353266D01*
X354599Y345666D01*
Y348332D01*
X353266Y349664D01*
X351933D01*
X350600Y348332D01*
Y344333D01*
X384035Y328501D02*
Y336499D01*
X388034D01*
X389367Y335166D01*
Y332500D01*
X388034Y331167D01*
X384035D01*
X386701D02*
X389367Y328501D01*
X396032D02*
Y336499D01*
X392033Y332500D01*
X397365D01*
X365899Y256336D02*
X357901D01*
Y260334D01*
X359234Y261667D01*
X361900D01*
X363233Y260334D01*
Y256336D01*
Y259001D02*
X365899Y261667D01*
X359234Y264333D02*
X357901Y265666D01*
Y268332D01*
X359234Y269664D01*
X360567D01*
X361900Y268332D01*
Y266999D01*
Y268332D01*
X363233Y269664D01*
X364566D01*
X365899Y268332D01*
Y265666D01*
X364566Y264333D01*
X423499Y256436D02*
X415501D01*
Y260434D01*
X416834Y261767D01*
X419500D01*
X420833Y260434D01*
Y256436D01*
Y259101D02*
X423499Y261767D01*
X415501Y269764D02*
Y264433D01*
X419500D01*
X418167Y267099D01*
Y268432D01*
X419500Y269764D01*
X422166D01*
X423499Y268432D01*
Y265766D01*
X422166Y264433D01*
X386801Y300160D02*
X394799D01*
Y305492D01*
Y308158D02*
Y310824D01*
Y309491D01*
X386801D01*
X388134Y308158D01*
X384035Y266599D02*
Y259934D01*
X385368Y258601D01*
X388034D01*
X389367Y259934D01*
Y266599D01*
X397365D02*
X392033D01*
Y262600D01*
X394699Y263933D01*
X396032D01*
X397365Y262600D01*
Y259934D01*
X396032Y258601D01*
X393366D01*
X392033Y259934D01*
X128160Y304649D02*
Y296651D01*
X133492D01*
X141489D02*
X136158D01*
X141489Y301983D01*
Y303316D01*
X140157Y304649D01*
X137491D01*
X136158Y303316D01*
X241248Y289485D02*
X239915Y288152D01*
Y285486D01*
X241248Y284153D01*
X246580D01*
X247913Y285486D01*
Y288152D01*
X246580Y289485D01*
X247913Y292151D02*
Y294816D01*
Y293484D01*
X239915D01*
X241248Y292151D01*
Y298815D02*
X239915Y300148D01*
Y302814D01*
X241248Y304147D01*
X242581D01*
X243914Y302814D01*
Y301481D01*
Y302814D01*
X245247Y304147D01*
X246580D01*
X247913Y302814D01*
Y300148D01*
X246580Y298815D01*
X22920Y290818D02*
X21587Y289485D01*
Y286819D01*
X22920Y285486D01*
X28252D01*
X29585Y286819D01*
Y289485D01*
X28252Y290818D01*
X29585Y293484D02*
Y296149D01*
Y294816D01*
X21587D01*
X22920Y293484D01*
X29585Y300148D02*
Y302814D01*
Y301481D01*
X21587D01*
X22920Y300148D01*
X189200Y163499D02*
X183868D01*
Y159500D01*
X186534D01*
X183868D01*
Y155501D01*
X191866D02*
X194532D01*
X193199D01*
Y163499D01*
X191866Y162166D01*
X159103Y85701D02*
Y93699D01*
X163102D01*
X164435Y92366D01*
Y89700D01*
X163102Y88367D01*
X159103D01*
X161769D02*
X164435Y85701D01*
X167101D02*
X169766D01*
X168433D01*
Y93699D01*
X167101Y92366D01*
X173765D02*
X175098Y93699D01*
X177764D01*
X179097Y92366D01*
Y91033D01*
X177764Y89700D01*
X179097Y88367D01*
Y87034D01*
X177764Y85701D01*
X175098D01*
X173765Y87034D01*
Y88367D01*
X175098Y89700D01*
X173765Y91033D01*
Y92366D01*
X175098Y89700D02*
X177764D01*
X209759Y66210D02*
X208426Y64877D01*
Y62211D01*
X209759Y60878D01*
X215091D01*
X216424Y62211D01*
Y64877D01*
X215091Y66210D01*
X216424Y68876D02*
Y71541D01*
Y70209D01*
X208426D01*
X209759Y68876D01*
X216424Y80872D02*
Y75540D01*
X211092Y80872D01*
X209759D01*
X208426Y79539D01*
Y76873D01*
X209759Y75540D01*
X68267Y101574D02*
X65601D01*
X66934D01*
Y94909D01*
X65601Y93576D01*
X64268D01*
X62936Y94909D01*
X70933Y101574D02*
X76265D01*
Y100241D01*
X70933Y94909D01*
Y93576D01*
X407392Y101599D02*
X404726D01*
X406059D01*
Y94934D01*
X404726Y93601D01*
X403393D01*
X402061Y94934D01*
X415390Y93601D02*
X410058D01*
X415390Y98933D01*
Y100266D01*
X414057Y101599D01*
X411391D01*
X410058Y100266D01*
X732592Y101599D02*
X729926D01*
X731259D01*
Y94934D01*
X729926Y93601D01*
X728593D01*
X727261Y94934D01*
X735258Y100266D02*
X736591Y101599D01*
X739257D01*
X740590Y100266D01*
Y98933D01*
X739257Y97600D01*
X737924D01*
X739257D01*
X740590Y96267D01*
Y94934D01*
X739257Y93601D01*
X736591D01*
X735258Y94934D01*
X787854Y392277D02*
X794519D01*
X795852Y393610D01*
Y396276D01*
X794519Y397609D01*
X787854D01*
X794519Y400275D02*
X795852Y401608D01*
Y404273D01*
X794519Y405606D01*
X789187D01*
X787854Y404273D01*
Y401608D01*
X789187Y400275D01*
X790520D01*
X791853Y401608D01*
Y405606D01*
X396799Y525268D02*
X388801D01*
Y529267D01*
X390134Y530600D01*
X392800D01*
X394133Y529267D01*
Y525268D01*
Y527934D02*
X396799Y530600D01*
Y533266D02*
Y535932D01*
Y534599D01*
X388801D01*
X390134Y533266D01*
X488009Y646644D02*
X494674D01*
X496007Y647977D01*
Y650643D01*
X494674Y651976D01*
X488009D01*
X496007Y654641D02*
Y657307D01*
Y655974D01*
X488009D01*
X489342Y654641D01*
X740502Y683227D02*
Y680562D01*
Y681895D01*
X747167D01*
X748499Y680562D01*
Y679229D01*
X747167Y677896D01*
X748499Y685893D02*
X740502D01*
Y689892D01*
X741835Y691225D01*
X744501D01*
X745834Y689892D01*
Y685893D01*
X748499Y693891D02*
Y696556D01*
Y695224D01*
X740502D01*
X741835Y693891D01*
X435599Y523936D02*
X427601D01*
Y527934D01*
X428934Y529267D01*
X431600D01*
X432933Y527934D01*
Y523936D01*
Y526601D02*
X435599Y529267D01*
Y537265D02*
Y531933D01*
X430267Y537265D01*
X428934D01*
X427601Y535932D01*
Y533266D01*
X428934Y531933D01*
X409534Y529267D02*
X408201Y527934D01*
Y525268D01*
X409534Y523936D01*
X414866D01*
X416199Y525268D01*
Y527934D01*
X414866Y529267D01*
X409534Y531933D02*
X408201Y533266D01*
Y535932D01*
X409534Y537265D01*
X410867D01*
X412200Y535932D01*
Y534599D01*
Y535932D01*
X413533Y537265D01*
X414866D01*
X416199Y535932D01*
Y533266D01*
X414866Y531933D01*
X985033Y180385D02*
X983700Y181718D01*
X981034D01*
X979702Y180385D01*
Y179052D01*
X981034Y177719D01*
X983700D01*
X985033Y176387D01*
Y175054D01*
X983700Y173721D01*
X981034D01*
X979702Y175054D01*
X987699Y181718D02*
Y173721D01*
Y177719D01*
X993030D01*
Y181718D01*
Y173721D01*
X995696Y177719D02*
X1001028D01*
X1009025Y181718D02*
X1006359D01*
X1007692D01*
Y175054D01*
X1006359Y173721D01*
X1005027D01*
X1003694Y175054D01*
X1011691Y173721D02*
X1014357D01*
X1013024D01*
Y181718D01*
X1011691Y180385D01*
X991412Y225799D02*
X990079Y224466D01*
Y221800D01*
X991412Y220468D01*
X992745D01*
X994078Y221800D01*
Y224466D01*
X995411Y225799D01*
X996744D01*
X998077Y224466D01*
Y221800D01*
X996744Y220468D01*
X990079Y228465D02*
X998077D01*
X994078D01*
Y233797D01*
X990079D01*
X998077D01*
X994078Y236462D02*
Y241794D01*
X990079Y249791D02*
Y247126D01*
Y248458D01*
X996744D01*
X998077Y247126D01*
Y245793D01*
X996744Y244460D01*
X998077Y257789D02*
Y252457D01*
X992745Y257789D01*
X991412D01*
X990079Y256456D01*
Y253790D01*
X991412Y252457D01*
X767850Y299070D02*
X759853D01*
X767850Y304402D01*
X759853D01*
X761186Y312399D02*
X759853Y311066D01*
Y308400D01*
X761186Y307068D01*
X766517D01*
X767850Y308400D01*
Y311066D01*
X766517Y312399D01*
X716796Y299070D02*
X708799D01*
X711464Y301736D01*
X708799Y304402D01*
X716796D01*
X708799Y307068D02*
Y309733D01*
Y308400D01*
X716796D01*
Y307068D01*
Y309733D01*
X710132Y319064D02*
X708799Y317731D01*
Y315065D01*
X710132Y313732D01*
X711464D01*
X712797Y315065D01*
Y317731D01*
X714130Y319064D01*
X715463D01*
X716796Y317731D01*
Y315065D01*
X715463Y313732D01*
X708799Y325728D02*
Y323062D01*
X710132Y321730D01*
X715463D01*
X716796Y323062D01*
Y325728D01*
X715463Y327061D01*
X710132D01*
X708799Y325728D01*
X784491Y299070D02*
X789822D01*
X792488Y301736D01*
X789822Y304402D01*
X784491D01*
X785824Y312399D02*
X784491Y311066D01*
Y308400D01*
X785824Y307068D01*
X791155D01*
X792488Y308400D01*
Y311066D01*
X791155Y312399D01*
X785824Y320396D02*
X784491Y319064D01*
Y316398D01*
X785824Y315065D01*
X791155D01*
X792488Y316398D01*
Y319064D01*
X791155Y320396D01*
X809891Y299070D02*
X815222D01*
X817888Y301736D01*
X815222Y304402D01*
X809891D01*
X811224Y312399D02*
X809891Y311066D01*
Y308400D01*
X811224Y307068D01*
X816555D01*
X817888Y308400D01*
Y311066D01*
X816555Y312399D01*
X811224Y320396D02*
X809891Y319064D01*
Y316398D01*
X811224Y315065D01*
X816555D01*
X817888Y316398D01*
Y319064D01*
X816555Y320396D01*
X742196Y299070D02*
X734199D01*
Y303069D01*
X735531Y304402D01*
X738197D01*
X739530Y303069D01*
Y299070D01*
Y301736D02*
X742196Y304402D01*
X735531Y312399D02*
X734199Y311066D01*
Y308400D01*
X735531Y307068D01*
X736864D01*
X738197Y308400D01*
Y311066D01*
X739530Y312399D01*
X740863D01*
X742196Y311066D01*
Y308400D01*
X740863Y307068D01*
X734199Y315065D02*
Y320396D01*
Y317731D01*
X742196D01*
X836624Y304402D02*
X835291Y303069D01*
Y300403D01*
X836624Y299070D01*
X841955D01*
X843288Y300403D01*
Y303069D01*
X841955Y304402D01*
X839289D01*
Y301736D01*
X843288Y307068D02*
X835291D01*
X843288Y312399D01*
X835291D01*
Y315065D02*
X843288D01*
Y319064D01*
X841955Y320396D01*
X836624D01*
X835291Y319064D01*
Y315065D01*
X761186Y470264D02*
X759853Y468931D01*
Y466265D01*
X761186Y464932D01*
X762518D01*
X763851Y466265D01*
Y468931D01*
X765184Y470264D01*
X766517D01*
X767850Y468931D01*
Y466265D01*
X766517Y464932D01*
X761186Y478261D02*
X759853Y476928D01*
Y474262D01*
X761186Y472929D01*
X766517D01*
X767850Y474262D01*
Y476928D01*
X766517Y478261D01*
X759853Y480927D02*
X767850D01*
Y486259D01*
X759853Y488924D02*
X767850D01*
X765184D01*
X759853Y494256D01*
X763851Y490257D01*
X767850Y494256D01*
X836624Y482960D02*
X835291Y481627D01*
Y478961D01*
X836624Y477628D01*
X841955D01*
X843288Y478961D01*
Y481627D01*
X841955Y482960D01*
X839289D01*
Y480294D01*
X843288Y485625D02*
X835291D01*
X843288Y490957D01*
X835291D01*
Y493623D02*
X843288D01*
Y497621D01*
X841955Y498954D01*
X836624D01*
X835291Y497621D01*
Y493623D01*
X708799Y479744D02*
Y482410D01*
Y481077D01*
X716796D01*
Y479744D01*
Y482410D01*
Y486409D02*
X708799D01*
X716796Y491740D01*
X708799D01*
Y494406D02*
Y499738D01*
Y497072D01*
X716796D01*
X811224Y482960D02*
X809891Y481627D01*
Y478961D01*
X811224Y477628D01*
X816555D01*
X817888Y478961D01*
Y481627D01*
X816555Y482960D01*
X813889D01*
Y480294D01*
X817888Y485625D02*
X809891D01*
X817888Y490957D01*
X809891D01*
Y493623D02*
X817888D01*
Y497621D01*
X816555Y498954D01*
X811224D01*
X809891Y497621D01*
Y493623D01*
X792488Y469164D02*
X784491D01*
X787156Y471830D01*
X784491Y474496D01*
X792488D01*
X784491Y481160D02*
Y478494D01*
X785824Y477161D01*
X791155D01*
X792488Y478494D01*
Y481160D01*
X791155Y482493D01*
X785824D01*
X784491Y481160D01*
X785824Y490490D02*
X784491Y489158D01*
Y486492D01*
X785824Y485159D01*
X787156D01*
X788489Y486492D01*
Y489158D01*
X789822Y490490D01*
X791155D01*
X792488Y489158D01*
Y486492D01*
X791155Y485159D01*
X784491Y493156D02*
Y495822D01*
Y494489D01*
X792488D01*
Y493156D01*
Y495822D01*
X735531Y495656D02*
X734199Y494323D01*
Y491657D01*
X735531Y490324D01*
X740863D01*
X742196Y491657D01*
Y494323D01*
X740863Y495656D01*
X735531Y503653D02*
X734199Y502320D01*
Y499654D01*
X735531Y498321D01*
X736864D01*
X738197Y499654D01*
Y502320D01*
X739530Y503653D01*
X740863D01*
X742196Y502320D01*
Y499654D01*
X740863Y498321D01*
X696900Y307233D02*
Y309899D01*
X695567Y311232D01*
X692901D01*
X691568Y309899D01*
Y307233D01*
X692901Y305900D01*
X695567D01*
X696900Y307233D01*
D136*
X281600Y793311D02*
D03*
D137*
X220699Y831814D02*
D03*
D138*
X86939Y868300D02*
D03*
D139*
X786800Y266300D02*
D03*
D140*
X689687Y711801D02*
D03*
M02*
