G04*
G04 #@! TF.GenerationSoftware,Altium Limited,Altium Designer,21.0.9 (235)*
G04*
G04 Layer_Physical_Order=1*
G04 Layer_Color=255*
%FSLAX44Y44*%
%MOMM*%
G71*
G04*
G04 #@! TF.SameCoordinates,BD89840E-3130-4C23-AD2D-C5A835882CA8*
G04*
G04*
G04 #@! TF.FilePolarity,Positive*
G04*
G01*
G75*
%ADD11C,0.5000*%
%ADD12C,0.2000*%
%ADD15C,1.0000*%
%ADD20C,0.3000*%
%ADD22C,0.2540*%
%ADD28R,1.2000X0.9000*%
%ADD29R,1.2000X1.0500*%
%ADD30C,1.0000*%
%ADD31R,2.4500X2.5500*%
%ADD32R,0.7000X0.9000*%
%ADD33R,0.4000X0.6000*%
%ADD34R,2.1500X2.4500*%
%ADD35R,1.8000X5.7000*%
%ADD36R,1.6500X1.2500*%
%ADD37R,2.5500X2.4500*%
%ADD38R,1.5500X0.6000*%
%ADD39R,0.8382X0.3556*%
%ADD40R,0.8000X1.4500*%
%ADD41R,1.2700X0.9000*%
%ADD42R,0.9000X1.2000*%
%ADD43R,0.9000X0.8000*%
%ADD44R,1.0000X1.0000*%
%ADD45R,2.4000X0.7600*%
%ADD46R,0.9500X0.3500*%
%ADD47R,0.3500X0.9500*%
%ADD48R,0.5588X1.9812*%
%ADD49R,1.8000X2.2300*%
%ADD50R,0.8300X0.6250*%
G04:AMPARAMS|DCode=51|XSize=1.23mm|YSize=0.59mm|CornerRadius=0.1475mm|HoleSize=0mm|Usage=FLASHONLY|Rotation=270.000|XOffset=0mm|YOffset=0mm|HoleType=Round|Shape=RoundedRectangle|*
%AMROUNDEDRECTD51*
21,1,1.2300,0.2950,0,0,270.0*
21,1,0.9350,0.5900,0,0,270.0*
1,1,0.2950,-0.1475,-0.4675*
1,1,0.2950,-0.1475,0.4675*
1,1,0.2950,0.1475,0.4675*
1,1,0.2950,0.1475,-0.4675*
%
%ADD51ROUNDEDRECTD51*%
G04:AMPARAMS|DCode=52|XSize=1.97mm|YSize=0.59mm|CornerRadius=0.0738mm|HoleSize=0mm|Usage=FLASHONLY|Rotation=270.000|XOffset=0mm|YOffset=0mm|HoleType=Round|Shape=RoundedRectangle|*
%AMROUNDEDRECTD52*
21,1,1.9700,0.4425,0,0,270.0*
21,1,1.8225,0.5900,0,0,270.0*
1,1,0.1475,-0.2213,-0.9113*
1,1,0.1475,-0.2213,0.9113*
1,1,0.1475,0.2213,0.9113*
1,1,0.1475,0.2213,-0.9113*
%
%ADD52ROUNDEDRECTD52*%
%ADD53R,0.4000X0.7500*%
%ADD54R,1.0000X1.4000*%
%ADD55R,2.1500X2.8000*%
%ADD56R,1.3300X1.3300*%
%ADD57R,0.9000X2.0000*%
%ADD58R,2.0000X0.9000*%
%ADD94R,1.6510X1.6510*%
%ADD95C,1.6510*%
%ADD98C,1.6500*%
%ADD99R,1.6500X1.6500*%
%ADD100C,0.3500*%
%ADD101R,3.0000X3.0000*%
%ADD102C,3.0000*%
%ADD103C,6.0000*%
G04:AMPARAMS|DCode=104|XSize=1.55mm|YSize=1.55mm|CornerRadius=0.3875mm|HoleSize=0mm|Usage=FLASHONLY|Rotation=0.000|XOffset=0mm|YOffset=0mm|HoleType=Round|Shape=RoundedRectangle|*
%AMROUNDEDRECTD104*
21,1,1.5500,0.7750,0,0,0.0*
21,1,0.7750,1.5500,0,0,0.0*
1,1,0.7750,0.3875,-0.3875*
1,1,0.7750,-0.3875,-0.3875*
1,1,0.7750,-0.3875,0.3875*
1,1,0.7750,0.3875,0.3875*
%
%ADD104ROUNDEDRECTD104*%
%ADD105C,1.5500*%
%ADD106R,2.0000X1.9812*%
%ADD107R,2.0000X2.0000*%
%ADD108R,2.5000X2.5000*%
%ADD109R,2.5000X2.5000*%
%ADD110R,1.9812X4.5720*%
%ADD111C,0.6000*%
G36*
X881713Y893507D02*
X881704Y893427D01*
X880951Y892849D01*
X880951Y892849D01*
X877102Y889000D01*
X865100D01*
Y870000D01*
X867653D01*
X868628Y868730D01*
X868500Y868253D01*
Y866147D01*
X869045Y864112D01*
X870098Y862288D01*
X871588Y860798D01*
X873412Y859745D01*
X875447Y859200D01*
X877553D01*
X879588Y859745D01*
X881412Y860798D01*
X882902Y862288D01*
X883955Y864112D01*
X884500Y866147D01*
Y868253D01*
X884302Y868992D01*
X885075Y870000D01*
X887735D01*
Y847000D01*
X865100D01*
Y845065D01*
X717600D01*
X715642Y844807D01*
X713818Y844051D01*
X712251Y842849D01*
X712251Y842849D01*
X702144Y832742D01*
X700688Y831902D01*
X699198Y830412D01*
X698835Y829782D01*
X697565Y830122D01*
Y835945D01*
X697829Y836097D01*
X700202Y838471D01*
X701881Y841379D01*
X702750Y844622D01*
Y847979D01*
X701881Y851221D01*
X700202Y854129D01*
X697829Y856503D01*
X694921Y858181D01*
X694235Y858365D01*
Y859635D01*
X694921Y859819D01*
X697829Y861497D01*
X700202Y863871D01*
X701881Y866779D01*
X702750Y870022D01*
Y873379D01*
X701881Y876621D01*
X700202Y879529D01*
X697829Y881902D01*
X694921Y883581D01*
X691679Y884450D01*
X688321D01*
X685079Y883581D01*
X682171Y881902D01*
X679798Y879529D01*
X678119Y876621D01*
X677935Y875935D01*
X676665D01*
X676481Y876621D01*
X674802Y879529D01*
X672429Y881902D01*
X669521Y883581D01*
X666279Y884450D01*
X662921D01*
X659679Y883581D01*
X656771Y881902D01*
X654398Y879529D01*
X652719Y876621D01*
X652535Y875935D01*
X651265D01*
X651081Y876621D01*
X649402Y879529D01*
X647029Y881902D01*
X644121Y883581D01*
X640879Y884450D01*
X637521D01*
X634279Y883581D01*
X631371Y881902D01*
X628997Y879529D01*
X627319Y876621D01*
X627135Y875935D01*
X625865D01*
X625681Y876621D01*
X624002Y879529D01*
X621629Y881902D01*
X618721Y883581D01*
X615479Y884450D01*
X612121D01*
X608879Y883581D01*
X605971Y881902D01*
X603597Y879529D01*
X601919Y876621D01*
X601735Y875935D01*
X600465D01*
X600281Y876621D01*
X598602Y879529D01*
X596229Y881902D01*
X593321Y883581D01*
X590079Y884450D01*
X586721D01*
X583479Y883581D01*
X580571Y881902D01*
X578198Y879529D01*
X576519Y876621D01*
X575650Y873379D01*
Y870022D01*
X576519Y866779D01*
X578198Y863871D01*
X580571Y861497D01*
X583479Y859819D01*
X584165Y859635D01*
Y858365D01*
X583479Y858181D01*
X580571Y856503D01*
X578198Y854129D01*
X576519Y851221D01*
X576335Y850535D01*
X575065D01*
X574881Y851221D01*
X573203Y854129D01*
X570829Y856503D01*
X567921Y858181D01*
X564679Y859050D01*
X561321D01*
X558079Y858181D01*
X555171Y856503D01*
X552798Y854129D01*
X551119Y851221D01*
X550935Y850535D01*
X549665D01*
X549481Y851221D01*
X547803Y854129D01*
X545429Y856503D01*
X542521Y858181D01*
X539279Y859050D01*
X535921D01*
X532679Y858181D01*
X529771Y856503D01*
X527397Y854129D01*
X525719Y851221D01*
X525535Y850535D01*
X524265D01*
X524081Y851221D01*
X522402Y854129D01*
X520029Y856503D01*
X517121Y858181D01*
X513879Y859050D01*
X510521D01*
X507279Y858181D01*
X504371Y856503D01*
X501997Y854129D01*
X500319Y851221D01*
X500135Y850535D01*
X498865D01*
X498681Y851221D01*
X497002Y854129D01*
X494629Y856503D01*
X491721Y858181D01*
X488479Y859050D01*
X485121D01*
X481879Y858181D01*
X478971Y856503D01*
X476598Y854129D01*
X475286Y851857D01*
X473971Y852119D01*
X473922Y852492D01*
X473027Y854651D01*
X471605Y856505D01*
X469751Y857927D01*
X467592Y858821D01*
X465275Y859127D01*
X457525D01*
X455208Y858821D01*
X453049Y857927D01*
X451195Y856505D01*
X449773Y854651D01*
X448879Y852492D01*
X448573Y850175D01*
Y842425D01*
X448879Y840108D01*
X449773Y837949D01*
X451195Y836095D01*
X453049Y834673D01*
X453835Y834347D01*
Y812736D01*
X426201Y785101D01*
X424999Y783535D01*
X424243Y781710D01*
X423985Y779752D01*
Y757700D01*
X414457D01*
X413824Y758970D01*
X414300Y760747D01*
Y762853D01*
X413755Y764888D01*
X412702Y766712D01*
X411212Y768202D01*
X409388Y769255D01*
X407353Y769800D01*
X405247D01*
X403212Y769255D01*
X401388Y768202D01*
X399898Y766712D01*
X398845Y764888D01*
X398300Y762853D01*
Y760747D01*
X398585Y759682D01*
Y757700D01*
X396650D01*
Y734900D01*
X242600Y734900D01*
Y735670D01*
X241831Y739534D01*
X240324Y743174D01*
X238135Y746449D01*
X235349Y749235D01*
X232073Y751424D01*
X228434Y752931D01*
X224570Y753700D01*
X220630D01*
X216766Y752931D01*
X213126Y751424D01*
X209851Y749235D01*
X207065Y746449D01*
X205286Y743786D01*
X202414D01*
X201300Y744900D01*
Y814786D01*
X202202Y815688D01*
X203255Y817512D01*
X203589Y818761D01*
X207277Y822448D01*
X208450Y821962D01*
Y816350D01*
X218200D01*
Y830100D01*
Y843850D01*
X210797D01*
Y852069D01*
X214578Y855850D01*
X236450D01*
Y862777D01*
X237720Y862916D01*
X242868Y857768D01*
X251318Y849318D01*
X253407Y847715D01*
X255840Y846707D01*
X258450Y846364D01*
X264350D01*
Y838700D01*
X298850D01*
Y874200D01*
X264350D01*
Y866536D01*
X262628D01*
X257132Y872032D01*
X248932Y880232D01*
X246843Y881835D01*
X244410Y882843D01*
X241800Y883186D01*
X236450D01*
Y890350D01*
X204950D01*
Y865478D01*
X202473Y863002D01*
X201300Y863488D01*
Y894307D01*
X370215Y894404D01*
X370742Y893134D01*
X370299Y892691D01*
X369443Y891209D01*
X369441Y891200D01*
X375500D01*
X381559D01*
X381557Y891209D01*
X380701Y892691D01*
X380253Y893140D01*
X380779Y894410D01*
X386281Y894413D01*
X386917Y893313D01*
X386482Y892560D01*
X385800Y890017D01*
Y887383D01*
X386482Y884840D01*
X387140Y883700D01*
X386505Y882600D01*
X384800D01*
Y863600D01*
X406800D01*
Y864214D01*
X408070Y865189D01*
X409147Y864900D01*
X411253D01*
X413288Y865445D01*
X415112Y866498D01*
X416602Y867988D01*
X417655Y869812D01*
X418200Y871847D01*
Y873953D01*
X417655Y875988D01*
X416602Y877812D01*
X415112Y879302D01*
X413288Y880355D01*
X411253Y880900D01*
X409147D01*
X408070Y880611D01*
X406800Y881586D01*
Y882600D01*
X405095D01*
X404460Y883700D01*
X405118Y884840D01*
X405800Y887383D01*
Y890017D01*
X405118Y892560D01*
X404677Y893324D01*
X405312Y894424D01*
X881272Y894697D01*
X881713Y893507D01*
D02*
G37*
G36*
X525719Y841379D02*
X527397Y838471D01*
X529771Y836097D01*
X530792Y835508D01*
Y807673D01*
X531024Y805911D01*
X531704Y804269D01*
X532786Y802859D01*
X540504Y795141D01*
X540909Y794613D01*
X544092Y791430D01*
X543606Y790256D01*
X532257D01*
X532257Y790256D01*
X530299Y789998D01*
X528475Y789243D01*
X526908Y788041D01*
X526908Y788040D01*
X520001Y781133D01*
X518800Y781729D01*
Y800300D01*
X515564D01*
X514831Y801570D01*
X514855Y801612D01*
X515400Y803647D01*
Y805753D01*
X514855Y807788D01*
X513802Y809612D01*
X512312Y811102D01*
X510488Y812155D01*
X508453Y812700D01*
X506347D01*
X504312Y812155D01*
X502488Y811102D01*
X500998Y809612D01*
X499945Y807788D01*
X499400Y805753D01*
Y803647D01*
X499945Y801612D01*
X499969Y801570D01*
X499236Y800300D01*
X497152D01*
X494365Y803088D01*
Y835945D01*
X494629Y836097D01*
X497002Y838471D01*
X498681Y841379D01*
X498865Y842065D01*
X500135D01*
X500319Y841379D01*
X501997Y838471D01*
X504371Y836097D01*
X507279Y834419D01*
X510521Y833550D01*
X513879D01*
X517121Y834419D01*
X520029Y836097D01*
X522402Y838471D01*
X524081Y841379D01*
X524265Y842065D01*
X525535D01*
X525719Y841379D01*
D02*
G37*
G36*
X169000Y893798D02*
Y843961D01*
X168497D01*
X166539Y843704D01*
X164714Y842948D01*
X163148Y841746D01*
X163148Y841746D01*
X152667Y831265D01*
X148590D01*
X147500Y831700D01*
X147500Y832535D01*
Y859200D01*
X126500D01*
Y832535D01*
X126500Y831700D01*
X125410Y831265D01*
X110100D01*
X110100Y831265D01*
X108142Y831007D01*
X106318Y830251D01*
X104751Y829049D01*
X84823Y809121D01*
X83650Y809607D01*
X83650Y816050D01*
X84837Y816250D01*
X87150D01*
Y832250D01*
X83153D01*
X82178Y833520D01*
X82400Y834347D01*
Y836453D01*
X81855Y838488D01*
X80802Y840312D01*
X79312Y841802D01*
X77488Y842855D01*
X75453Y843400D01*
X73347D01*
X71312Y842855D01*
X69488Y841802D01*
X67998Y840312D01*
X66945Y838488D01*
X66400Y836453D01*
Y834347D01*
X66622Y833520D01*
X65647Y832250D01*
X61650D01*
Y816250D01*
X63963D01*
X65150Y816050D01*
X65150Y814980D01*
Y814050D01*
X74400D01*
Y809050D01*
X65150D01*
Y807050D01*
X63963Y806850D01*
X61650D01*
Y790850D01*
Y778150D01*
X68399D01*
X69357Y777415D01*
X71789Y776407D01*
X74400Y776064D01*
X90650D01*
X93260Y776407D01*
X95693Y777415D01*
X97782Y779018D01*
X112728Y793964D01*
X115450D01*
Y792800D01*
X129295D01*
X129950Y792714D01*
X136322D01*
X156068Y772968D01*
X158157Y771365D01*
X160590Y770357D01*
X163200Y770014D01*
X190542D01*
X191045Y770080D01*
X192000Y769243D01*
Y743786D01*
X150278D01*
X138286Y755778D01*
Y758300D01*
X141950D01*
Y780800D01*
X115450D01*
Y758300D01*
X118114D01*
Y751600D01*
X118457Y748989D01*
X119465Y746557D01*
X121068Y744468D01*
X138968Y726568D01*
X141057Y724965D01*
X143490Y723957D01*
X146100Y723614D01*
X192000D01*
Y707000D01*
X200200Y698800D01*
X267300D01*
Y462900D01*
X5400D01*
Y850049D01*
X6050Y851050D01*
X6670Y851050D01*
X41550D01*
Y858014D01*
X48600D01*
X51210Y858357D01*
X53643Y859365D01*
X55732Y860968D01*
X57335Y863057D01*
X58343Y865490D01*
X58686Y868100D01*
X58343Y870711D01*
X57335Y873143D01*
X55732Y875232D01*
X53643Y876835D01*
X51210Y877843D01*
X48600Y878186D01*
X41550D01*
Y885550D01*
X6670D01*
X6050Y885550D01*
X5400Y886551D01*
Y894600D01*
X168102Y894695D01*
X169000Y893798D01*
D02*
G37*
G36*
X551119Y841379D02*
X552798Y838471D01*
X555171Y836097D01*
X558079Y834419D01*
X561321Y833550D01*
X564679D01*
X564973Y833629D01*
X574751Y823851D01*
X574751Y823851D01*
X576318Y822649D01*
X578142Y821893D01*
X580100Y821635D01*
X580100Y821635D01*
X606867D01*
X611064Y817438D01*
X610578Y816265D01*
X591778D01*
X590153Y816700D01*
X588047D01*
X586012Y816155D01*
X584188Y815102D01*
X582698Y813612D01*
X581645Y811788D01*
X581100Y809753D01*
Y807647D01*
X581645Y805612D01*
X582698Y803788D01*
X584188Y802298D01*
X586012Y801245D01*
X585722Y800008D01*
X569320D01*
X556359Y812969D01*
Y814847D01*
X555814Y816882D01*
X554761Y818706D01*
X553271Y820195D01*
X551447Y821249D01*
X549412Y821794D01*
X547306D01*
X545678Y821358D01*
X544408Y822065D01*
Y835508D01*
X545429Y836097D01*
X547803Y838471D01*
X549481Y841379D01*
X549665Y842065D01*
X550935D01*
X551119Y841379D01*
D02*
G37*
G36*
X476598Y838471D02*
X478971Y836097D01*
X479235Y835945D01*
Y804843D01*
X477965Y804676D01*
X477855Y805088D01*
X476802Y806912D01*
X475312Y808402D01*
X473488Y809455D01*
X471453Y810000D01*
X469347D01*
X468965Y810293D01*
Y834347D01*
X469751Y834673D01*
X471605Y836095D01*
X473027Y837949D01*
X473922Y840108D01*
X473971Y840481D01*
X475286Y840743D01*
X476598Y838471D01*
D02*
G37*
G36*
X865100Y828000D02*
X886300D01*
Y817500D01*
X883600D01*
Y808198D01*
X878840Y803438D01*
X877551Y802449D01*
X877551Y802449D01*
X869651Y794549D01*
X869613Y794500D01*
X856200D01*
Y794900D01*
X837200D01*
X836200Y795552D01*
Y804400D01*
X820500D01*
Y805000D01*
X801500D01*
Y784400D01*
X799500D01*
Y805000D01*
X789698D01*
X778614Y816084D01*
X778614Y816085D01*
X777149Y817549D01*
X777149Y817549D01*
X776387Y818134D01*
X775582Y818751D01*
X773758Y819507D01*
X771800Y819765D01*
X749989D01*
X749889Y819752D01*
X746200Y819993D01*
X742511Y819752D01*
X742411Y819765D01*
X712856D01*
X712260Y821035D01*
X712842Y822044D01*
X720733Y829935D01*
X865100D01*
Y828000D01*
D02*
G37*
G36*
X458900Y794745D02*
Y781300D01*
X480900D01*
Y793360D01*
X482170Y793886D01*
X487485Y788571D01*
Y757700D01*
X477340D01*
Y760300D01*
X480900D01*
Y779300D01*
X458900D01*
Y760300D01*
X462210D01*
Y757700D01*
X439115D01*
Y776619D01*
X457727Y795231D01*
X458900Y794745D01*
D02*
G37*
G36*
X678119Y841379D02*
X679798Y838471D01*
X682171Y836097D01*
X682435Y835945D01*
Y821400D01*
X682693Y819442D01*
X683449Y817618D01*
X684651Y816051D01*
X684651Y816051D01*
X692386Y808315D01*
X692387Y808315D01*
X693851Y806851D01*
X693851Y806851D01*
X695418Y805649D01*
X697242Y804893D01*
X699200Y804635D01*
X723462D01*
X723855Y803428D01*
X723399Y803096D01*
X719503Y799201D01*
X716265Y794744D01*
X713764Y789835D01*
X712062Y784596D01*
X711200Y779155D01*
Y773645D01*
X712062Y768204D01*
X713764Y762965D01*
X716265Y758056D01*
X719503Y753599D01*
X723399Y749704D01*
X727856Y746465D01*
X732765Y743964D01*
X738004Y742262D01*
X743446Y741400D01*
X748955D01*
X754396Y742262D01*
X759635Y743964D01*
X764544Y746465D01*
X769001Y749704D01*
X772896Y753599D01*
X776135Y758056D01*
X778636Y762965D01*
X780338Y768204D01*
X781200Y773645D01*
Y779155D01*
X780744Y782034D01*
X781569Y783000D01*
X798800D01*
Y765400D01*
X810357D01*
X810831Y764291D01*
X810096Y763400D01*
X798800D01*
Y744400D01*
X820800D01*
Y752702D01*
X830049Y761951D01*
X830049Y761951D01*
X831251Y763518D01*
X832007Y765342D01*
X832265Y767300D01*
X833506Y767400D01*
X836200D01*
Y768620D01*
X837788Y769045D01*
X839612Y770098D01*
X841102Y771588D01*
X842155Y773412D01*
X842700Y775447D01*
Y776900D01*
X851900D01*
Y775500D01*
X863457D01*
X863931Y774391D01*
X863196Y773500D01*
X851900D01*
Y754500D01*
X873900D01*
Y757116D01*
X875170Y757457D01*
X875498Y756888D01*
X876988Y755398D01*
X878812Y754345D01*
X880847Y753800D01*
X882953D01*
X883700Y753227D01*
Y751500D01*
X894700D01*
Y743500D01*
X883700D01*
Y741365D01*
X875300D01*
Y745100D01*
X856300D01*
Y734900D01*
X854300D01*
Y745100D01*
X835300D01*
Y738165D01*
X834646D01*
X832688Y737907D01*
X830864Y737151D01*
X829297Y735949D01*
X828248Y734900D01*
X803200D01*
Y652579D01*
X802841Y652265D01*
X726823D01*
X726090Y653535D01*
X727447Y655886D01*
X728350Y659256D01*
Y662744D01*
X727447Y666114D01*
X725703Y669136D01*
X723236Y671603D01*
X720214Y673347D01*
X716844Y674250D01*
X713356D01*
X709986Y673347D01*
X706964Y671603D01*
X704497Y669136D01*
X703133Y666773D01*
X701667D01*
X700303Y669136D01*
X697836Y671603D01*
X695473Y672967D01*
Y674433D01*
X697836Y675797D01*
X700303Y678264D01*
X702047Y681286D01*
X702950Y684656D01*
Y688144D01*
X702047Y691514D01*
X700303Y694536D01*
X697836Y697003D01*
X697280Y697323D01*
X697609Y698550D01*
X702950D01*
Y703891D01*
X704177Y704220D01*
X704497Y703664D01*
X706964Y701197D01*
X709986Y699453D01*
X713356Y698550D01*
X715412D01*
X716064Y697420D01*
X715790Y696628D01*
X715440Y696150D01*
X713816D01*
X711337Y695486D01*
X709113Y694202D01*
X707298Y692387D01*
X706014Y690163D01*
X705676Y688900D01*
X715100D01*
X724524D01*
X724185Y690163D01*
X722902Y692387D01*
X722458Y692830D01*
X722985Y694100D01*
X723653D01*
X725688Y694645D01*
X727512Y695698D01*
X729002Y697188D01*
X730055Y699012D01*
X730600Y701047D01*
Y703153D01*
X730055Y705188D01*
X729002Y707012D01*
X727844Y708169D01*
X728350Y710056D01*
Y713544D01*
X727447Y716914D01*
X725703Y719936D01*
X723236Y722403D01*
X720214Y724147D01*
X716844Y725050D01*
X713356D01*
X709986Y724147D01*
X706964Y722403D01*
X706576Y722014D01*
X705138Y723452D01*
X703314Y724505D01*
X702950Y724602D01*
Y725050D01*
X680665D01*
Y816021D01*
X680665Y816021D01*
X680536Y817000D01*
X680407Y817979D01*
X679651Y819803D01*
X678449Y821370D01*
X672165Y827654D01*
Y835945D01*
X672429Y836097D01*
X674802Y838471D01*
X676481Y841379D01*
X676665Y842065D01*
X677935D01*
X678119Y841379D01*
D02*
G37*
G36*
X408650Y731200D02*
X409350D01*
Y727700D01*
X412042D01*
Y726950D01*
X412274Y725188D01*
X412954Y723546D01*
X414036Y722136D01*
X422434Y713738D01*
X421948Y712565D01*
X341400D01*
X341400Y712565D01*
X339442Y712307D01*
X337618Y711551D01*
X336051Y710349D01*
X336051Y710349D01*
X304873Y679172D01*
X303700Y679658D01*
Y695000D01*
X294300Y704400D01*
X258025Y704400D01*
X257132Y705303D01*
X257377Y729802D01*
X396650Y729802D01*
X398601Y730190D01*
X399163Y730565D01*
X400150Y731200D01*
Y731200D01*
X400150Y731200D01*
X403650D01*
Y742700D01*
X408650D01*
Y731200D01*
D02*
G37*
G36*
X541729Y726527D02*
X526748Y711546D01*
X525489Y711712D01*
X525402Y711862D01*
X523912Y713352D01*
X522088Y714405D01*
X520053Y714950D01*
X518800D01*
Y716253D01*
X518255Y718288D01*
X517202Y720112D01*
X515712Y721602D01*
X515195Y721900D01*
X515267Y722025D01*
X515812Y724059D01*
Y726166D01*
X515742Y726430D01*
X516716Y727700D01*
X541243D01*
X541729Y726527D01*
D02*
G37*
G36*
X821760Y728702D02*
X821521Y728288D01*
X820975Y726253D01*
Y724147D01*
X821521Y722112D01*
X822574Y720288D01*
X824063Y718798D01*
X825888Y717745D01*
X827922Y717200D01*
X830029D01*
X832063Y717745D01*
X833887Y718798D01*
X835377Y720288D01*
X835848Y721104D01*
X837779Y723035D01*
X842800D01*
X843292Y723100D01*
X854300D01*
Y729802D01*
X856300D01*
Y723100D01*
X875300D01*
Y726235D01*
X883700D01*
Y723500D01*
X894900D01*
Y722000D01*
X887300D01*
Y718000D01*
X893800D01*
Y713000D01*
X887300D01*
Y709000D01*
X894900D01*
Y697500D01*
X883800D01*
Y695365D01*
X875300D01*
Y699100D01*
X856300D01*
Y695605D01*
X855183Y694849D01*
X854300Y695285D01*
Y699100D01*
X835300D01*
Y677100D01*
X854300D01*
Y677698D01*
X855183Y678134D01*
X856300Y677378D01*
Y677100D01*
X875300D01*
Y680235D01*
X883800D01*
Y677500D01*
X894900D01*
Y622100D01*
X890500D01*
Y615850D01*
X896000D01*
Y610850D01*
X890500D01*
Y604600D01*
X894900D01*
Y554600D01*
X890500D01*
Y548350D01*
X896000D01*
Y543350D01*
X890500D01*
Y537100D01*
X894900D01*
Y265904D01*
X893646Y265705D01*
X893636Y265735D01*
X891135Y270644D01*
X887896Y275101D01*
X884001Y278997D01*
X879544Y282235D01*
X874635Y284736D01*
X869396Y286438D01*
X863955Y287300D01*
X858446D01*
X853004Y286438D01*
X847765Y284736D01*
X842856Y282235D01*
X838399Y278997D01*
X834503Y275101D01*
X831265Y270644D01*
X828764Y265735D01*
X827062Y260496D01*
X826200Y255055D01*
Y249545D01*
X827062Y244104D01*
X828764Y238865D01*
X831265Y233956D01*
X834503Y229499D01*
X838399Y225604D01*
X842856Y222365D01*
X847765Y219864D01*
X853004Y218162D01*
X858446Y217300D01*
X863955D01*
X869396Y218162D01*
X874635Y219864D01*
X879544Y222365D01*
X884001Y225604D01*
X887896Y229499D01*
X891135Y233956D01*
X893636Y238865D01*
X893646Y238895D01*
X894900Y238696D01*
X894900Y5100D01*
X298700D01*
X292900Y10900D01*
Y104202D01*
X337849Y149151D01*
X337849Y149151D01*
X339051Y150718D01*
X339807Y152542D01*
X340065Y154500D01*
X340065Y154500D01*
Y180300D01*
X363435D01*
Y158233D01*
X307551Y102349D01*
X306349Y100782D01*
X305593Y98958D01*
X305335Y97000D01*
Y88300D01*
X295900D01*
Y53300D01*
X330900D01*
Y88300D01*
X320465D01*
Y93867D01*
X376349Y149751D01*
X376349Y149751D01*
X377551Y151318D01*
X378307Y153142D01*
X378565Y155100D01*
X378565Y155100D01*
Y180300D01*
X407100D01*
Y204602D01*
X409027Y206529D01*
X410200Y206043D01*
Y180300D01*
X420135D01*
Y177178D01*
X419700Y175553D01*
Y173447D01*
X420245Y171412D01*
X421298Y169588D01*
X422788Y168098D01*
X424003Y167397D01*
X424304Y165902D01*
X384251Y125849D01*
X383049Y124282D01*
X382293Y122458D01*
X382035Y120500D01*
Y88300D01*
X372100D01*
Y53300D01*
X407100D01*
Y88300D01*
X397165D01*
Y117367D01*
X451549Y171751D01*
X452751Y173318D01*
X453507Y175142D01*
X453765Y177100D01*
Y180300D01*
X458235D01*
Y177178D01*
X457800Y175553D01*
Y173447D01*
X458345Y171412D01*
X459398Y169588D01*
X460888Y168098D01*
X462712Y167045D01*
X464747Y166500D01*
X465806D01*
X466332Y165230D01*
X420851Y119749D01*
X419649Y118182D01*
X418893Y116358D01*
X418635Y114400D01*
Y88300D01*
X410200D01*
Y53300D01*
X445200D01*
Y88300D01*
X433765D01*
Y111267D01*
X489649Y167151D01*
X489649Y167151D01*
X490851Y168718D01*
X491607Y170542D01*
X491865Y172500D01*
X491865Y172500D01*
Y180300D01*
X496335D01*
Y177178D01*
X495900Y175553D01*
Y173447D01*
X496445Y171412D01*
X497498Y169588D01*
X498988Y168098D01*
X500812Y167045D01*
X502847Y166500D01*
X503043D01*
X503529Y165327D01*
X460451Y122249D01*
X459249Y120682D01*
X458493Y118858D01*
X458235Y116900D01*
Y88300D01*
X448300D01*
Y53300D01*
X483300D01*
Y88300D01*
X473365D01*
Y113766D01*
X527849Y168251D01*
X527849Y168251D01*
X529051Y169818D01*
X529807Y171642D01*
X530065Y173600D01*
X530065Y173600D01*
Y183800D01*
X539500D01*
Y197800D01*
Y211800D01*
X530065D01*
Y230688D01*
X531238Y231174D01*
X549438Y212973D01*
X548952Y211800D01*
X544500D01*
Y197800D01*
Y183800D01*
X556000D01*
X556135Y182586D01*
Y166733D01*
X498551Y109149D01*
X497349Y107582D01*
X496593Y105758D01*
X496335Y103800D01*
Y88300D01*
X486400D01*
Y53300D01*
X521400D01*
Y88300D01*
X511465D01*
Y100667D01*
X569049Y158251D01*
X569049Y158251D01*
X570251Y159818D01*
X571007Y161642D01*
X571265Y163600D01*
Y209585D01*
X571265Y209585D01*
X571136Y210564D01*
X571007Y211543D01*
X570998Y211565D01*
X571846Y212835D01*
X583000D01*
Y180300D01*
X592935D01*
Y177178D01*
X592500Y175553D01*
Y173447D01*
X593045Y171412D01*
X594098Y169588D01*
X595588Y168098D01*
X597412Y167045D01*
X599447Y166500D01*
X601553D01*
X603588Y167045D01*
X605412Y168098D01*
X606902Y169588D01*
X607955Y171412D01*
X608500Y173447D01*
Y175553D01*
X608065Y177178D01*
Y180300D01*
X618000D01*
Y212835D01*
X624033D01*
X624600Y211800D01*
X624600Y211565D01*
Y200300D01*
X638600D01*
X652600D01*
Y211565D01*
X652600Y211800D01*
X653167Y212835D01*
X659200D01*
Y180300D01*
X669135D01*
Y88300D01*
X659200D01*
Y53300D01*
X694200D01*
Y88300D01*
X684265D01*
Y180300D01*
X694200D01*
Y212835D01*
X697300D01*
Y180300D01*
X707235D01*
Y88300D01*
X697300D01*
Y53300D01*
X732300D01*
Y88300D01*
X722365D01*
Y180300D01*
X725735D01*
Y150000D01*
X725993Y148042D01*
X726749Y146218D01*
X727951Y144651D01*
X745335Y127267D01*
Y88300D01*
X735400D01*
Y53300D01*
X770400D01*
Y88300D01*
X760465D01*
Y130400D01*
X760465Y130400D01*
X760207Y132358D01*
X759451Y134182D01*
X758249Y135749D01*
X758249Y135749D01*
X740865Y153133D01*
Y180300D01*
X763835D01*
Y157500D01*
X764093Y155542D01*
X764849Y153718D01*
X766051Y152151D01*
X821535Y96667D01*
Y88300D01*
X811600D01*
Y53300D01*
X846600D01*
Y88300D01*
X836665D01*
Y99800D01*
X836665Y99800D01*
X836536Y100779D01*
X836407Y101758D01*
X835651Y103582D01*
X834449Y105149D01*
X778965Y160634D01*
Y183800D01*
X788500D01*
Y197800D01*
Y211800D01*
X778965D01*
Y219000D01*
X778965Y219000D01*
X778707Y220958D01*
X777951Y222782D01*
X776749Y224349D01*
X776749Y224349D01*
X763336Y237762D01*
X763822Y238935D01*
X777267D01*
X803229Y212973D01*
X802742Y211800D01*
X793500D01*
Y200300D01*
X805000D01*
Y209543D01*
X806173Y210029D01*
X811600Y204602D01*
Y180300D01*
X846600D01*
Y215300D01*
X822298D01*
X788622Y248977D01*
X789108Y250150D01*
X799900D01*
Y282450D01*
X796986D01*
Y285440D01*
X827206D01*
Y288940D01*
X835200D01*
Y313300D01*
Y337660D01*
X827206D01*
Y341160D01*
X743665D01*
Y413567D01*
X752633Y422535D01*
X842600D01*
X844558Y422793D01*
X846382Y423549D01*
X847949Y424751D01*
X885249Y462051D01*
X885249Y462051D01*
X886451Y463618D01*
X887207Y465442D01*
X887465Y467400D01*
Y520400D01*
X887465Y520400D01*
X887207Y522358D01*
X886451Y524182D01*
X885249Y525749D01*
X857509Y553489D01*
X857509Y553489D01*
X841065Y569933D01*
Y614042D01*
X840807Y615999D01*
X840051Y617824D01*
X838849Y619391D01*
X808191Y650049D01*
X807782Y650362D01*
X807816Y650488D01*
X807910Y650628D01*
X808072Y651443D01*
X808287Y652246D01*
X808265Y652413D01*
X808298Y652579D01*
Y729802D01*
X821125D01*
X821760Y728702D01*
D02*
G37*
G36*
X547059Y684506D02*
X547245Y683812D01*
X548144Y682255D01*
Y635066D01*
X513834Y600756D01*
X507679D01*
X505982Y600533D01*
X504401Y599878D01*
X503043Y598836D01*
X493614Y589407D01*
X492572Y588049D01*
X492428Y587700D01*
X488779D01*
X487915Y588550D01*
X487657Y590508D01*
X486901Y592332D01*
X485699Y593899D01*
X485699Y593899D01*
X466043Y613556D01*
X465202Y615012D01*
X463712Y616502D01*
X461888Y617555D01*
X459853Y618100D01*
X457747D01*
X455712Y617555D01*
X453888Y616502D01*
X452398Y615012D01*
X451345Y613188D01*
X450800Y611153D01*
Y610147D01*
X449802Y609100D01*
X447695D01*
X445661Y608555D01*
X443836Y607502D01*
X442347Y606012D01*
X441294Y604188D01*
X440748Y602153D01*
Y601336D01*
X439000D01*
X436966Y600791D01*
X435141Y599737D01*
X433652Y598248D01*
X432599Y596424D01*
X432053Y594389D01*
Y592283D01*
X432599Y590248D01*
X433336Y588970D01*
X432668Y587700D01*
X426415D01*
Y591650D01*
X426415Y591650D01*
X426157Y593608D01*
X425401Y595432D01*
X424199Y596999D01*
X424199Y596999D01*
X418149Y603049D01*
X416582Y604251D01*
X414758Y605007D01*
X412800Y605265D01*
X381829D01*
X379871Y605007D01*
X378047Y604251D01*
X376480Y603049D01*
X370651Y597220D01*
X369449Y595653D01*
X368693Y593829D01*
X368505Y592400D01*
X363465D01*
Y599963D01*
X363955Y600812D01*
X364500Y602847D01*
Y604953D01*
X363955Y606988D01*
X362902Y608812D01*
X361412Y610302D01*
X359588Y611355D01*
X357553Y611900D01*
X355447D01*
X353412Y611355D01*
X351588Y610302D01*
X350098Y608812D01*
X349045Y606988D01*
X348500Y604953D01*
Y604280D01*
X348335Y603029D01*
Y592400D01*
X344900D01*
Y573400D01*
X386400D01*
Y590135D01*
X409667D01*
X410832Y588970D01*
X410306Y587700D01*
X409350D01*
Y584200D01*
X408650D01*
Y572700D01*
Y561200D01*
X409350D01*
Y557700D01*
X425535D01*
Y550600D01*
X381800D01*
Y531600D01*
X442600D01*
Y550600D01*
X440665D01*
Y557700D01*
X466911D01*
X466972Y557551D01*
X468014Y556193D01*
X474076Y550131D01*
X475434Y549090D01*
X477015Y548435D01*
X478712Y548211D01*
X507387D01*
X507913Y546941D01*
X492830Y531858D01*
X455983D01*
X454221Y531626D01*
X453259Y531228D01*
X452579Y530946D01*
X451169Y529864D01*
X443773Y522469D01*
X442600Y522955D01*
Y529600D01*
X420600D01*
Y526993D01*
X419700Y526100D01*
X419330Y526100D01*
X414700D01*
Y520100D01*
Y514100D01*
X419330D01*
X419700Y514100D01*
X420600Y513207D01*
Y510600D01*
X420700D01*
Y504698D01*
X413851Y497849D01*
X412649Y496282D01*
X411893Y494458D01*
X411635Y492500D01*
Y442959D01*
X410413Y442385D01*
X390168Y462630D01*
X388601Y463832D01*
X386777Y464588D01*
X384819Y464846D01*
X373811D01*
X373602Y465533D01*
X373483Y466116D01*
X374874Y468199D01*
X375377Y470725D01*
Y480075D01*
X374874Y482601D01*
X373706Y484350D01*
X374417Y485504D01*
X375325Y485323D01*
X378275D01*
X380801Y485826D01*
X382943Y487257D01*
X384132Y489035D01*
X386232D01*
X388190Y489293D01*
X390014Y490049D01*
X391581Y491251D01*
X395981Y495650D01*
X397437Y496491D01*
X398927Y497981D01*
X399980Y499805D01*
X400525Y501840D01*
Y503946D01*
X400365Y504545D01*
Y510600D01*
X403800D01*
Y513207D01*
X404700Y514100D01*
X405070Y514100D01*
X409700D01*
Y520100D01*
Y526100D01*
X405070D01*
X404700Y526100D01*
X403800Y526993D01*
Y529600D01*
X381800D01*
Y510600D01*
X385235D01*
Y506389D01*
X384367Y505572D01*
X383100Y505708D01*
X382943Y505943D01*
X380801Y507374D01*
X378275Y507877D01*
X375325D01*
X372799Y507374D01*
X370657Y505943D01*
X369226Y503801D01*
X368723Y501275D01*
Y491925D01*
X369226Y489399D01*
X370394Y487650D01*
X369683Y486496D01*
X368775Y486677D01*
X365825D01*
X363299Y486174D01*
X361157Y484743D01*
X359726Y482601D01*
X359223Y480075D01*
Y470725D01*
X359726Y468199D01*
X361117Y466116D01*
X360998Y465533D01*
X360789Y464846D01*
X348873D01*
X340165Y473554D01*
Y657004D01*
X354796Y671635D01*
X454650D01*
Y668550D01*
X462800D01*
X470950D01*
Y671635D01*
X473000D01*
Y668550D01*
X481150D01*
X489300D01*
Y671635D01*
X491350D01*
Y668550D01*
X499500D01*
X507650D01*
Y671635D01*
X529500D01*
X531458Y671893D01*
X533282Y672649D01*
X534849Y673851D01*
X545833Y684835D01*
X547059Y684506D01*
D02*
G37*
G36*
X566250Y692650D02*
Y679950D01*
Y668295D01*
X565803Y667100D01*
X563697D01*
X562526Y666786D01*
X561256Y667722D01*
Y682255D01*
X562155Y683812D01*
X562700Y685847D01*
Y687953D01*
X562155Y689988D01*
X561102Y691812D01*
X559612Y693302D01*
X557788Y694355D01*
X555965Y694843D01*
X556485Y696783D01*
Y698223D01*
X556492Y698279D01*
Y698627D01*
X556492Y698627D01*
X556485Y698683D01*
Y698889D01*
X556432Y699088D01*
X556234Y700585D01*
X555479Y702410D01*
X554277Y703977D01*
X554089Y704120D01*
X554006Y705387D01*
X555904Y707285D01*
X566250D01*
Y692650D01*
D02*
G37*
G36*
X608617Y725926D02*
X609323Y725633D01*
Y723822D01*
X610792D01*
Y721969D01*
X610745Y721888D01*
X610200Y719853D01*
Y717747D01*
X610745Y715712D01*
X611798Y713888D01*
X613288Y712398D01*
X615112Y711345D01*
X617147Y710800D01*
X619253D01*
X620665Y711178D01*
X621935Y710363D01*
Y665122D01*
X620762Y664636D01*
X604815Y680583D01*
Y696435D01*
X604815Y696435D01*
X604557Y698393D01*
X603801Y700218D01*
X602599Y701784D01*
X599084Y705299D01*
X597518Y706501D01*
X596250Y707026D01*
Y719966D01*
X597472Y721187D01*
X598525Y723011D01*
X598742Y723822D01*
X606877D01*
Y725265D01*
X608053Y726051D01*
X608617Y725926D01*
D02*
G37*
G36*
X722600Y609000D02*
X722600D01*
Y607900D01*
X682500D01*
X674900Y615500D01*
Y620135D01*
X722600D01*
Y609000D01*
D02*
G37*
G36*
X807535Y605267D02*
Y561158D01*
X807793Y559201D01*
X808549Y557376D01*
X809751Y555809D01*
X840509Y525051D01*
X840509Y525051D01*
X843527Y522033D01*
X843041Y520860D01*
X840200D01*
Y499000D01*
X849106D01*
Y514795D01*
X850279Y515281D01*
X855041Y510519D01*
Y481894D01*
X850279Y477132D01*
X849106Y477618D01*
Y494000D01*
X840200D01*
Y472140D01*
X843628D01*
X844114Y470967D01*
X834912Y461765D01*
X761433D01*
X755732Y467467D01*
X756217Y468640D01*
X801806D01*
Y472140D01*
X809800D01*
Y496500D01*
Y520860D01*
X801806D01*
Y524360D01*
X790530D01*
X789918Y525838D01*
X788876Y527196D01*
X764256Y551816D01*
Y553300D01*
X778957D01*
X779835Y552030D01*
X779600Y551153D01*
Y549047D01*
X780145Y547012D01*
X781198Y545188D01*
X782688Y543698D01*
X784512Y542645D01*
X786547Y542100D01*
X788653D01*
X790688Y542645D01*
X792512Y543698D01*
X794002Y545188D01*
X795055Y547012D01*
X795600Y549047D01*
Y551153D01*
X795365Y552030D01*
X795600Y553300D01*
X795600D01*
Y570900D01*
X792100D01*
Y572300D01*
X778600D01*
X765100D01*
Y570900D01*
X763073D01*
X762336Y571861D01*
X756810Y577386D01*
X756600Y577547D01*
Y581279D01*
X758229Y581493D01*
X760053Y582249D01*
X761620Y583451D01*
X763830Y585661D01*
X765100Y585135D01*
Y582200D01*
X776100D01*
Y587500D01*
Y592800D01*
X766765D01*
Y594900D01*
X776100D01*
Y600200D01*
Y605500D01*
X766765D01*
Y607600D01*
X792100D01*
Y607700D01*
X803000D01*
X803200Y607900D01*
Y607943D01*
X804373Y608429D01*
X807535Y605267D01*
D02*
G37*
G36*
X641651Y622351D02*
X643218Y621149D01*
X645042Y620393D01*
X647000Y620135D01*
X647000Y620135D01*
X669802D01*
Y615500D01*
X670190Y613549D01*
X671295Y611895D01*
X673000Y610190D01*
Y610100D01*
X674822Y608278D01*
X674296Y607008D01*
X660146D01*
X658384Y606776D01*
X656742Y606096D01*
X655332Y605014D01*
X645309Y594991D01*
X644060Y594656D01*
X642235Y593603D01*
X640746Y592113D01*
X639693Y590289D01*
X639147Y588254D01*
Y586148D01*
X639693Y584113D01*
X640746Y582289D01*
X642235Y580800D01*
X644060Y579746D01*
X646094Y579201D01*
X648201D01*
X650235Y579746D01*
X652060Y580800D01*
X653549Y582289D01*
X654602Y584113D01*
X654937Y585362D01*
X662966Y593392D01*
X722600D01*
Y581356D01*
X719687D01*
X719401Y581642D01*
X717577Y582696D01*
X715542Y583241D01*
X713435D01*
X711401Y582696D01*
X709576Y581642D01*
X709290Y581356D01*
X657300D01*
X655603Y581133D01*
X654022Y580478D01*
X652664Y579436D01*
X617600Y544372D01*
X606256Y555716D01*
Y606500D01*
X606033Y608197D01*
X605378Y609778D01*
X604336Y611136D01*
X599086Y616386D01*
X597728Y617428D01*
X596250Y618040D01*
Y629150D01*
Y641850D01*
Y654550D01*
Y665956D01*
X597520Y666482D01*
X641651Y622351D01*
D02*
G37*
G36*
X722600Y553300D02*
X732792D01*
Y550000D01*
X733024Y548238D01*
X733704Y546596D01*
X734786Y545186D01*
X754342Y525630D01*
X753847Y524360D01*
X695794D01*
Y508347D01*
X694624Y507911D01*
X694524Y507908D01*
X682899Y519532D01*
X682059Y520989D01*
X680569Y522478D01*
X678745Y523531D01*
X676710Y524077D01*
X674604D01*
X672569Y523531D01*
X670745Y522478D01*
X669256Y520989D01*
X668202Y519165D01*
X667657Y517130D01*
Y515023D01*
X668202Y512989D01*
X669256Y511165D01*
X670745Y509675D01*
X672202Y508834D01*
X681635Y499400D01*
Y358293D01*
X681893Y356335D01*
X682649Y354511D01*
X683851Y352944D01*
X695794Y341001D01*
Y285440D01*
X776814D01*
Y282450D01*
X771900D01*
Y254065D01*
X767200D01*
Y263800D01*
X756700D01*
X746200D01*
Y254065D01*
X578533D01*
X566581Y266017D01*
X566910Y267244D01*
X567288Y267345D01*
X569112Y268398D01*
X570602Y269888D01*
X571655Y271712D01*
X572200Y273747D01*
Y275853D01*
X571655Y277888D01*
X571330Y278450D01*
Y306494D01*
X582100D01*
Y314661D01*
X596517D01*
X598214Y314884D01*
X599795Y315539D01*
X601153Y316581D01*
X616536Y331964D01*
X617030Y332608D01*
X618300Y332177D01*
Y315794D01*
X648300D01*
Y341194D01*
Y371006D01*
X644800D01*
Y379000D01*
X633300D01*
Y381500D01*
X630800D01*
Y392906D01*
X624689D01*
X624203Y394079D01*
X664536Y434412D01*
X665578Y435770D01*
X666233Y437351D01*
X666456Y439048D01*
Y475100D01*
X666233Y476797D01*
X665578Y478378D01*
X664536Y479736D01*
X653736Y490536D01*
X652378Y491578D01*
X650797Y492233D01*
X649100Y492456D01*
X633600D01*
X631903Y492233D01*
X630322Y491578D01*
X628964Y490536D01*
X625277Y486849D01*
X624235Y485491D01*
X623703Y484205D01*
X616950D01*
Y491078D01*
X622236Y496364D01*
X623278Y497722D01*
X623933Y499303D01*
X624156Y501000D01*
Y512649D01*
X625164Y513422D01*
X625247Y513400D01*
X627353D01*
X629388Y513945D01*
X631212Y514998D01*
X632702Y516488D01*
X633755Y518312D01*
X634090Y519561D01*
X669820Y555292D01*
X698585D01*
X699012Y555045D01*
X701047Y554500D01*
X703153D01*
X705188Y555045D01*
X705615Y555292D01*
X722600D01*
Y553300D01*
D02*
G37*
G36*
X539122Y543728D02*
X539267Y542625D01*
X539922Y541044D01*
X540964Y539686D01*
X542064Y538586D01*
Y537993D01*
X542609Y535958D01*
X543662Y534134D01*
X545152Y532644D01*
X546976Y531591D01*
X549011Y531046D01*
X551117D01*
X551842Y531240D01*
X552555Y530808D01*
X552737Y529365D01*
X551880Y528508D01*
X523766D01*
X523280Y529682D01*
X537796Y544198D01*
X539122Y543728D01*
D02*
G37*
G36*
X566250Y620269D02*
Y616450D01*
Y603750D01*
X569750D01*
Y603050D01*
X581250D01*
Y600550D01*
X583750D01*
Y594550D01*
X592750D01*
X593144Y593443D01*
Y553000D01*
X593367Y551303D01*
X594022Y549722D01*
X595064Y548364D01*
X611044Y532384D01*
Y529730D01*
X610353Y529200D01*
X608247D01*
X606212Y528655D01*
X604388Y527602D01*
X602898Y526112D01*
X601845Y524288D01*
X601300Y522253D01*
Y520147D01*
X601845Y518112D01*
X602388Y517173D01*
X602332Y517047D01*
X601508Y516157D01*
X599853Y516600D01*
X597747D01*
X595712Y516055D01*
X595145Y515727D01*
X580520Y530352D01*
X580055Y532088D01*
X579156Y533645D01*
Y557700D01*
X580750D01*
Y587700D01*
X533681D01*
X533195Y588873D01*
X565077Y620755D01*
X566250Y620269D01*
D02*
G37*
G36*
X584144Y508184D02*
Y500950D01*
X583950D01*
Y497450D01*
X580950D01*
Y485170D01*
X580539Y484631D01*
X579989Y484205D01*
X567713D01*
Y483300D01*
X546900D01*
Y474600D01*
X545247D01*
X543885Y474235D01*
X542702Y475077D01*
X542658Y475165D01*
Y504150D01*
X530795D01*
X530414Y504647D01*
Y506753D01*
X530714Y507144D01*
X541140D01*
X541900Y507044D01*
X557200D01*
X558897Y507267D01*
X560478Y507922D01*
X561836Y508964D01*
X572600Y519728D01*
X584144Y508184D01*
D02*
G37*
G36*
X602975Y481439D02*
X603393Y480180D01*
X602458Y478561D01*
X601913Y476526D01*
Y474420D01*
X602458Y472385D01*
X603511Y470561D01*
X605001Y469072D01*
X606825Y468018D01*
X608860Y467473D01*
X610913D01*
Y461205D01*
Y454250D01*
X583713D01*
Y457494D01*
X585312D01*
X587347Y458039D01*
X589171Y459092D01*
X590661Y460582D01*
X591714Y462406D01*
X592259Y464441D01*
Y466547D01*
X591714Y468582D01*
X590661Y470406D01*
X589171Y471896D01*
X587347Y472949D01*
X585312Y473494D01*
X584732D01*
X584551Y473633D01*
X583713Y473980D01*
Y480278D01*
X583909Y481246D01*
X584882Y481450D01*
X602970D01*
X602975Y481439D01*
D02*
G37*
G36*
X736199Y467036D02*
X736955Y465212D01*
X738157Y463645D01*
X750964Y450838D01*
X750478Y449665D01*
X741733D01*
X725671Y465727D01*
Y468640D01*
X735988D01*
X736199Y467036D01*
D02*
G37*
G36*
X434200Y476500D02*
X439200D01*
Y476500D01*
X440392Y476311D01*
Y476200D01*
X440624Y474438D01*
X441304Y472796D01*
X442386Y471386D01*
X448486Y465286D01*
X449896Y464204D01*
X451538Y463524D01*
X453300Y463292D01*
X529300D01*
X531062Y463524D01*
X532704Y464204D01*
X534114Y465286D01*
X537170Y468341D01*
X538308Y467684D01*
X538300Y467653D01*
Y465547D01*
X538845Y463512D01*
X539898Y461688D01*
X541388Y460198D01*
X543212Y459145D01*
X545247Y458600D01*
X546700D01*
Y449300D01*
X564213D01*
Y448205D01*
X577450D01*
Y444022D01*
X574164Y440736D01*
X573122Y439378D01*
X572467Y437797D01*
X572323Y436700D01*
X566900D01*
Y414700D01*
X585900D01*
Y433719D01*
X586630Y434401D01*
X587900Y434046D01*
Y414700D01*
X594769D01*
X595255Y413527D01*
X585884Y404156D01*
X582100D01*
Y412506D01*
X552100D01*
Y404256D01*
X550000D01*
X548303Y404033D01*
X546722Y403378D01*
X545364Y402336D01*
X543951Y400923D01*
X542778Y401409D01*
Y403554D01*
X542778Y403554D01*
X542520Y405512D01*
X541765Y407337D01*
X540563Y408904D01*
X540562Y408904D01*
X534213Y415252D01*
Y421250D01*
X526612D01*
X522038Y425824D01*
X522564Y427094D01*
X529958D01*
Y429577D01*
X530570Y430594D01*
X531227Y430594D01*
X532364D01*
Y442000D01*
X534864D01*
D01*
X532364D01*
Y453406D01*
X531227D01*
X530570Y453406D01*
X529958Y454422D01*
Y456906D01*
X450869D01*
Y427094D01*
X451099D01*
Y426880D01*
X451357Y424922D01*
X452112Y423098D01*
X453131Y421770D01*
X452891Y420960D01*
X452550Y420500D01*
X451900D01*
Y414948D01*
X450738Y413786D01*
X449565Y414272D01*
Y419700D01*
X449565Y419700D01*
X449436Y420679D01*
X449307Y421658D01*
X448551Y423482D01*
X447349Y425049D01*
X426765Y445633D01*
Y476500D01*
X429200D01*
Y482500D01*
X434200D01*
Y476500D01*
D02*
G37*
G36*
X474200Y418920D02*
Y404225D01*
X481802D01*
X486085Y399941D01*
Y394725D01*
X485850D01*
Y390100D01*
X483350D01*
Y387600D01*
X477700D01*
Y385475D01*
X482166D01*
X482845Y384205D01*
X482675Y383950D01*
X473379D01*
X472150Y384050D01*
X472150D01*
X472150Y384050D01*
X461832D01*
X461711Y384230D01*
X462390Y385500D01*
X466700D01*
Y387625D01*
X461050D01*
Y390125D01*
X458550D01*
Y394750D01*
X458465D01*
Y400117D01*
X462598Y404250D01*
X470200D01*
Y420500D01*
X468615D01*
Y422709D01*
X469885Y423235D01*
X474200Y418920D01*
D02*
G37*
G36*
X329251Y424851D02*
X329251Y424851D01*
X330818Y423649D01*
X332642Y422893D01*
X334600Y422635D01*
X334600Y422635D01*
X362567D01*
X363645Y421557D01*
X363438Y420513D01*
Y402287D01*
X363883Y400049D01*
X365151Y398151D01*
X367049Y396883D01*
X369287Y396438D01*
X373713D01*
X375951Y396883D01*
X377849Y398151D01*
X377851D01*
X379749Y396883D01*
X381987Y396438D01*
X386413D01*
X388651Y396883D01*
X390549Y398151D01*
X390551D01*
X392449Y396883D01*
X394688Y396438D01*
X399113D01*
X401351Y396883D01*
X403249Y398151D01*
X403251D01*
X405149Y396883D01*
X407388Y396438D01*
X411813D01*
X414051Y396883D01*
X415949Y398151D01*
X417217Y400049D01*
X417662Y402287D01*
Y420513D01*
X417217Y422751D01*
X416715Y423503D01*
Y432491D01*
X417937Y433065D01*
X434435Y416567D01*
Y404900D01*
X430900D01*
Y398900D01*
Y392900D01*
X434435D01*
Y387400D01*
X417400D01*
Y375263D01*
X416130Y374878D01*
X415949Y375149D01*
X414051Y376417D01*
X411813Y376862D01*
X407388D01*
X405149Y376417D01*
X403251Y375149D01*
X403249D01*
X401351Y376417D01*
X399113Y376862D01*
X394688D01*
X392449Y376417D01*
X390551Y375149D01*
X390549D01*
X388651Y376417D01*
X386413Y376862D01*
X381987D01*
X379749Y376417D01*
X377851Y375149D01*
X376583Y373251D01*
X376549Y373081D01*
X375913Y372844D01*
X375183Y372721D01*
X374585Y373120D01*
X374000Y373237D01*
Y361900D01*
Y350563D01*
X374585Y350680D01*
X375183Y351079D01*
X375913Y350956D01*
X376549Y350719D01*
X376583Y350549D01*
X376635Y350471D01*
Y343500D01*
X370700D01*
Y339665D01*
X361600D01*
Y342000D01*
X339600D01*
Y332159D01*
X338427Y331673D01*
X333000Y337100D01*
X307700D01*
X303700Y341100D01*
Y448742D01*
X304873Y449229D01*
X329251Y424851D01*
D02*
G37*
G36*
X445951Y359651D02*
X447518Y358449D01*
X447793Y358335D01*
X448882Y357499D01*
X450150Y356974D01*
Y344050D01*
X461764D01*
X470135Y335679D01*
Y308138D01*
X470393Y306180D01*
X471149Y304355D01*
X472351Y302789D01*
X504669Y270470D01*
X504524Y269366D01*
X503035Y267876D01*
X502194Y266420D01*
X490339Y254565D01*
X473700D01*
X471742Y254307D01*
X469918Y253551D01*
X468351Y252349D01*
X456810Y240809D01*
X455951Y240149D01*
X440851Y225049D01*
X439649Y223482D01*
X438893Y221658D01*
X438635Y219700D01*
Y215300D01*
X419457D01*
X418971Y216473D01*
X445349Y242851D01*
X446551Y244418D01*
X447307Y246242D01*
X447565Y248200D01*
X447565Y248200D01*
Y287822D01*
X448000Y289447D01*
Y291553D01*
X447455Y293588D01*
X446402Y295412D01*
X444912Y296902D01*
X443088Y297955D01*
X441053Y298500D01*
X438947D01*
X436912Y297955D01*
X435088Y296902D01*
X433598Y295412D01*
X432545Y293588D01*
X432000Y291553D01*
Y289447D01*
X432435Y287822D01*
Y251469D01*
X431693Y250870D01*
X430500Y251393D01*
Y262100D01*
X410300D01*
Y264100D01*
X430500D01*
Y272349D01*
X430665Y273600D01*
X430500Y274851D01*
Y283100D01*
X410300D01*
Y285800D01*
X401800D01*
Y301500D01*
X401800D01*
Y302500D01*
X401800D01*
Y320000D01*
X401608D01*
Y321500D01*
X410700D01*
Y325035D01*
X412000D01*
Y323100D01*
X434000D01*
Y342100D01*
X412000D01*
Y340165D01*
X410700D01*
Y343500D01*
X404465D01*
Y346429D01*
X405735Y347266D01*
X407388Y346938D01*
X411813D01*
X414051Y347383D01*
X415949Y348651D01*
X417217Y350549D01*
X417662Y352788D01*
Y353255D01*
X418670Y354028D01*
X419147Y353900D01*
X421253D01*
X423288Y354445D01*
X423429Y354527D01*
X425391D01*
X427349Y354784D01*
X429174Y355540D01*
X430740Y356742D01*
X436339Y362341D01*
X437541Y363908D01*
X438232Y365574D01*
X439457Y366126D01*
X439471Y366131D01*
X445951Y359651D01*
D02*
G37*
G36*
X598844Y364587D02*
Y356249D01*
X593651Y351056D01*
X582100D01*
Y357294D01*
Y365644D01*
X597143D01*
X597574Y365701D01*
X598844Y364587D01*
D02*
G37*
G36*
X710541Y462594D02*
X710799Y460636D01*
X711555Y458812D01*
X712757Y457245D01*
X733251Y436751D01*
X734818Y435549D01*
X736642Y434793D01*
X738600Y434535D01*
X741578D01*
X742064Y433362D01*
X730751Y422049D01*
X729549Y420482D01*
X728793Y418658D01*
X728535Y416700D01*
Y341160D01*
X714270D01*
X714069Y342689D01*
X713314Y344513D01*
X712111Y346080D01*
X712111Y346080D01*
X696765Y361427D01*
Y468640D01*
X710541D01*
Y462594D01*
D02*
G37*
G36*
X605344Y342546D02*
Y339316D01*
X593802Y327773D01*
X582100D01*
Y337944D01*
X596367D01*
X598064Y338167D01*
X599645Y338822D01*
X601003Y339864D01*
X604171Y343032D01*
X605344Y342546D01*
D02*
G37*
G36*
X534668Y343602D02*
X529464Y338398D01*
X528422Y337040D01*
X527767Y335459D01*
X527544Y333762D01*
Y321045D01*
X526645Y319488D01*
X526100Y317453D01*
Y315347D01*
X526645Y313312D01*
X527698Y311488D01*
X529188Y309998D01*
X531012Y308945D01*
X533047Y308400D01*
X535153D01*
X537188Y308945D01*
X538439Y308223D01*
Y307446D01*
X538188Y307302D01*
X536698Y305812D01*
X535645Y303988D01*
X535100Y301953D01*
Y299847D01*
X535302Y299092D01*
X534164Y298435D01*
X516865Y315733D01*
Y335278D01*
X526362Y344775D01*
X534182D01*
X534668Y343602D01*
D02*
G37*
G36*
X370700Y321500D02*
X379992D01*
Y320000D01*
X379800D01*
Y302500D01*
X379800D01*
Y301500D01*
X379800D01*
Y285800D01*
X371300D01*
Y283000D01*
X350900D01*
X350700Y284187D01*
Y319400D01*
X348273Y321827D01*
X348759Y323000D01*
X361600D01*
Y324535D01*
X370700D01*
Y321500D01*
D02*
G37*
G36*
X408500Y243100D02*
X410385D01*
X410911Y241830D01*
X397746Y228665D01*
X379415D01*
X379415Y228665D01*
X377457Y228407D01*
X375632Y227651D01*
X374066Y226449D01*
X374066Y226449D01*
X365651Y218034D01*
X364449Y216468D01*
X363965Y215300D01*
X340065D01*
Y221467D01*
X361598Y243000D01*
X372900D01*
Y261800D01*
X408500D01*
Y243100D01*
D02*
G37*
G36*
X510160Y238054D02*
X510519Y236712D01*
X510850Y236139D01*
X510858Y236077D01*
X511614Y234252D01*
X512816Y232686D01*
X514935Y230567D01*
Y215300D01*
X491865D01*
Y221966D01*
X508406Y238507D01*
X508726Y238693D01*
X508850Y238698D01*
X510160Y238054D01*
D02*
G37*
G36*
X486764Y238262D02*
X478951Y230449D01*
X477749Y228882D01*
X476993Y227058D01*
X476735Y225100D01*
Y215300D01*
X453773D01*
X453768Y216570D01*
X465989Y228791D01*
X466849Y229451D01*
X476833Y239435D01*
X486278D01*
X486764Y238262D01*
D02*
G37*
G36*
X371300Y262000D02*
X350900D01*
Y253698D01*
X327151Y229949D01*
X325949Y228382D01*
X325193Y226558D01*
X324935Y224600D01*
Y215300D01*
X295900D01*
Y180300D01*
X324935D01*
Y157633D01*
X294073Y126771D01*
X292900Y127257D01*
Y231200D01*
X303700Y242000D01*
X328400D01*
X349856Y263456D01*
X350900Y264000D01*
X371300D01*
Y262000D01*
D02*
G37*
%LPC*%
G36*
X381559Y886200D02*
X378000D01*
Y882641D01*
X378009Y882643D01*
X379491Y883499D01*
X380701Y884709D01*
X381557Y886191D01*
X381559Y886200D01*
D02*
G37*
G36*
X373000D02*
X369441D01*
X369443Y886191D01*
X370299Y884709D01*
X371509Y883499D01*
X372991Y882643D01*
X373000Y882641D01*
Y886200D01*
D02*
G37*
G36*
X382900Y879200D02*
X377900D01*
Y875700D01*
X382900D01*
Y879200D01*
D02*
G37*
G36*
X372900D02*
X367900D01*
Y875700D01*
X372900D01*
Y879200D01*
D02*
G37*
G36*
X565500Y880606D02*
Y874200D01*
X571906D01*
X571620Y875270D01*
X570402Y877380D01*
X568680Y879102D01*
X566570Y880320D01*
X565500Y880606D01*
D02*
G37*
G36*
X560500D02*
X559430Y880320D01*
X557320Y879102D01*
X555598Y877380D01*
X554380Y875270D01*
X554094Y874200D01*
X560500D01*
Y880606D01*
D02*
G37*
G36*
X540100D02*
Y874200D01*
X546506D01*
X546220Y875270D01*
X545002Y877380D01*
X543280Y879102D01*
X541170Y880320D01*
X540100Y880606D01*
D02*
G37*
G36*
X535100D02*
X534030Y880320D01*
X531920Y879102D01*
X530198Y877380D01*
X528980Y875270D01*
X528694Y874200D01*
X535100D01*
Y880606D01*
D02*
G37*
G36*
X514700D02*
Y874200D01*
X521106D01*
X520820Y875270D01*
X519602Y877380D01*
X517880Y879102D01*
X515770Y880320D01*
X514700Y880606D01*
D02*
G37*
G36*
X509700D02*
X508630Y880320D01*
X506520Y879102D01*
X504798Y877380D01*
X503580Y875270D01*
X503294Y874200D01*
X509700D01*
Y880606D01*
D02*
G37*
G36*
X489300D02*
Y874200D01*
X495706D01*
X495420Y875270D01*
X494202Y877380D01*
X492480Y879102D01*
X490370Y880320D01*
X489300Y880606D01*
D02*
G37*
G36*
X484300D02*
X483230Y880320D01*
X481120Y879102D01*
X479398Y877380D01*
X478180Y875270D01*
X477894Y874200D01*
X484300D01*
Y880606D01*
D02*
G37*
G36*
X463900D02*
Y874200D01*
X470306D01*
X470020Y875270D01*
X468802Y877380D01*
X467080Y879102D01*
X464970Y880320D01*
X463900Y880606D01*
D02*
G37*
G36*
X458900D02*
X457830Y880320D01*
X455720Y879102D01*
X453998Y877380D01*
X452780Y875270D01*
X452494Y874200D01*
X458900D01*
Y880606D01*
D02*
G37*
G36*
X382900Y870700D02*
X377900D01*
Y867200D01*
X382900D01*
Y870700D01*
D02*
G37*
G36*
X372900D02*
X367900D01*
Y867200D01*
X372900D01*
Y870700D01*
D02*
G37*
G36*
X571906Y869200D02*
X565500D01*
Y862794D01*
X566570Y863080D01*
X568680Y864298D01*
X570402Y866020D01*
X571620Y868130D01*
X571906Y869200D01*
D02*
G37*
G36*
X560500D02*
X554094D01*
X554380Y868130D01*
X555598Y866020D01*
X557320Y864298D01*
X559430Y863080D01*
X560500Y862794D01*
Y869200D01*
D02*
G37*
G36*
X546506D02*
X540100D01*
Y862794D01*
X541170Y863080D01*
X543280Y864298D01*
X545002Y866020D01*
X546220Y868130D01*
X546506Y869200D01*
D02*
G37*
G36*
X535100D02*
X528694D01*
X528980Y868130D01*
X530198Y866020D01*
X531920Y864298D01*
X534030Y863080D01*
X535100Y862794D01*
Y869200D01*
D02*
G37*
G36*
X521106D02*
X514700D01*
Y862794D01*
X515770Y863080D01*
X517880Y864298D01*
X519602Y866020D01*
X520820Y868130D01*
X521106Y869200D01*
D02*
G37*
G36*
X509700D02*
X503294D01*
X503580Y868130D01*
X504798Y866020D01*
X506520Y864298D01*
X508630Y863080D01*
X509700Y862794D01*
Y869200D01*
D02*
G37*
G36*
X495706D02*
X489300D01*
Y862794D01*
X490370Y863080D01*
X492480Y864298D01*
X494202Y866020D01*
X495420Y868130D01*
X495706Y869200D01*
D02*
G37*
G36*
X484300D02*
X477894D01*
X478180Y868130D01*
X479398Y866020D01*
X481120Y864298D01*
X483230Y863080D01*
X484300Y862794D01*
Y869200D01*
D02*
G37*
G36*
X470306D02*
X463900D01*
Y862794D01*
X464970Y863080D01*
X467080Y864298D01*
X468802Y866020D01*
X470020Y868130D01*
X470306Y869200D01*
D02*
G37*
G36*
X458900D02*
X452494D01*
X452780Y868130D01*
X453998Y866020D01*
X455720Y864298D01*
X457830Y863080D01*
X458900Y862794D01*
Y869200D01*
D02*
G37*
G36*
X232950Y843850D02*
X223200D01*
Y832600D01*
X232950D01*
Y843850D01*
D02*
G37*
G36*
Y827600D02*
X223200D01*
Y816350D01*
X232950D01*
Y827600D01*
D02*
G37*
G36*
X386400Y861700D02*
X364400D01*
Y842700D01*
X364500D01*
Y824250D01*
Y805970D01*
X364015Y805500D01*
X363285Y805117D01*
X358296Y806738D01*
X352855Y807600D01*
X347346D01*
X341904Y806738D01*
X336665Y805036D01*
X331756Y802535D01*
X327299Y799296D01*
X323404Y795401D01*
X320165Y790944D01*
X317664Y786035D01*
X315962Y780796D01*
X315100Y775355D01*
Y769846D01*
X315962Y764404D01*
X317664Y759165D01*
X320165Y754256D01*
X323404Y749799D01*
X327299Y745903D01*
X331756Y742665D01*
X336665Y740164D01*
X341904Y738462D01*
X347346Y737600D01*
X352855D01*
X358296Y738462D01*
X363535Y740164D01*
X368444Y742665D01*
X372901Y745903D01*
X376796Y749799D01*
X380035Y754256D01*
X382536Y759165D01*
X384238Y764404D01*
X385100Y769846D01*
Y775355D01*
X384238Y780796D01*
X382536Y786035D01*
X380035Y790944D01*
X376796Y795401D01*
X372901Y799296D01*
X368444Y802535D01*
X365607Y803980D01*
X365912Y805250D01*
X387700D01*
Y803247D01*
X388245Y801212D01*
X389298Y799388D01*
X390788Y797898D01*
X392612Y796845D01*
X394647Y796300D01*
X396753D01*
X398788Y796845D01*
X400612Y797898D01*
X402102Y799388D01*
X403155Y801212D01*
X403700Y803247D01*
Y805250D01*
X406700D01*
Y824250D01*
Y842600D01*
X406800D01*
Y861600D01*
X386400D01*
Y861700D01*
D02*
G37*
G36*
X295350Y810200D02*
X284100D01*
Y798450D01*
X295350D01*
Y810200D01*
D02*
G37*
G36*
X279100D02*
X267850D01*
Y798450D01*
X279100D01*
Y810200D01*
D02*
G37*
G36*
X295350Y793450D02*
X284100D01*
Y781700D01*
X295350D01*
Y793450D01*
D02*
G37*
G36*
X279100D02*
X267850D01*
Y781700D01*
X279100D01*
Y793450D01*
D02*
G37*
G36*
X98550Y882050D02*
X86800D01*
Y870800D01*
X98550D01*
Y882050D01*
D02*
G37*
G36*
X81800D02*
X70050D01*
Y870800D01*
X81800D01*
Y882050D01*
D02*
G37*
G36*
X147500Y891700D02*
X139500D01*
Y864200D01*
X147500D01*
Y891700D01*
D02*
G37*
G36*
X134500D02*
X126500D01*
Y864200D01*
X134500D01*
Y891700D01*
D02*
G37*
G36*
X98550Y865800D02*
X86800D01*
Y854550D01*
X98550D01*
Y865800D01*
D02*
G37*
G36*
X81800D02*
X70050D01*
Y854550D01*
X81800D01*
Y865800D01*
D02*
G37*
G36*
X33150Y832250D02*
X7650D01*
Y816250D01*
Y803550D01*
Y790850D01*
Y778150D01*
X33150D01*
Y778585D01*
X35036D01*
X36847Y778100D01*
X38953D01*
X40988Y778645D01*
X42812Y779698D01*
X44302Y781188D01*
X45355Y783012D01*
X45900Y785047D01*
Y787153D01*
X45355Y789188D01*
X44302Y791012D01*
X42864Y792450D01*
X44302Y793888D01*
X45355Y795712D01*
X45900Y797747D01*
Y799853D01*
X45355Y801888D01*
X44302Y803712D01*
X42864Y805150D01*
X44302Y806588D01*
X45355Y808412D01*
X45900Y810447D01*
Y812553D01*
X45355Y814588D01*
X44302Y816412D01*
X42864Y817850D01*
X44302Y819288D01*
X45355Y821112D01*
X45900Y823147D01*
Y825253D01*
X45355Y827288D01*
X44302Y829112D01*
X42812Y830602D01*
X40988Y831655D01*
X38953Y832200D01*
X36847D01*
X35409Y831815D01*
X33150D01*
Y832250D01*
D02*
G37*
G36*
X44570Y753700D02*
X40630D01*
X36766Y752931D01*
X33126Y751424D01*
X29851Y749235D01*
X27065Y746449D01*
X24876Y743174D01*
X23369Y739534D01*
X22600Y735670D01*
Y731730D01*
X23369Y727866D01*
X24876Y724227D01*
X27065Y720951D01*
X29851Y718165D01*
X33126Y715976D01*
X36766Y714469D01*
X40630Y713700D01*
X44570D01*
X48434Y714469D01*
X52073Y715976D01*
X55349Y718165D01*
X58135Y720951D01*
X60324Y724227D01*
X61831Y727866D01*
X62600Y731730D01*
Y735670D01*
X61831Y739534D01*
X60324Y743174D01*
X58135Y746449D01*
X55349Y749235D01*
X52073Y751424D01*
X48434Y752931D01*
X44570Y753700D01*
D02*
G37*
G36*
X70653Y674400D02*
X68547D01*
X66512Y673855D01*
X64688Y672802D01*
X63198Y671312D01*
X62145Y669488D01*
X61600Y667453D01*
Y665347D01*
X62145Y663312D01*
X63198Y661488D01*
X64688Y659998D01*
X66512Y658945D01*
X68547Y658400D01*
X70653D01*
X72688Y658945D01*
X74512Y659998D01*
X76002Y661488D01*
X77055Y663312D01*
X77600Y665347D01*
Y667453D01*
X77055Y669488D01*
X76002Y671312D01*
X74512Y672802D01*
X72688Y673855D01*
X70653Y674400D01*
D02*
G37*
G36*
X70553Y644800D02*
X68447D01*
X66412Y644255D01*
X64588Y643202D01*
X63098Y641712D01*
X62045Y639888D01*
X61500Y637853D01*
Y635747D01*
X62045Y633712D01*
X63098Y631888D01*
X64588Y630398D01*
X66412Y629345D01*
X68447Y628800D01*
X70553D01*
X72588Y629345D01*
X74412Y630398D01*
X75902Y631888D01*
X76955Y633712D01*
X77500Y635747D01*
Y637853D01*
X76955Y639888D01*
X75902Y641712D01*
X74412Y643202D01*
X72588Y644255D01*
X70553Y644800D01*
D02*
G37*
G36*
X70153Y611500D02*
X68047D01*
X66012Y610955D01*
X64188Y609902D01*
X62698Y608412D01*
X61645Y606588D01*
X61100Y604553D01*
Y602447D01*
X61645Y600412D01*
X62698Y598588D01*
X64188Y597098D01*
X66012Y596045D01*
X68047Y595500D01*
X70153D01*
X72188Y596045D01*
X74012Y597098D01*
X75502Y598588D01*
X76555Y600412D01*
X77100Y602447D01*
Y604553D01*
X76555Y606588D01*
X75502Y608412D01*
X74012Y609902D01*
X72188Y610955D01*
X70153Y611500D01*
D02*
G37*
G36*
X70953Y575500D02*
X68847D01*
X66812Y574955D01*
X64988Y573902D01*
X63498Y572412D01*
X62445Y570588D01*
X61900Y568553D01*
Y566447D01*
X62445Y564412D01*
X63498Y562588D01*
X64988Y561098D01*
X66812Y560045D01*
X68847Y559500D01*
X70953D01*
X72988Y560045D01*
X74812Y561098D01*
X76302Y562588D01*
X77355Y564412D01*
X77900Y566447D01*
Y568553D01*
X77355Y570588D01*
X76302Y572412D01*
X74812Y573902D01*
X72988Y574955D01*
X70953Y575500D01*
D02*
G37*
G36*
X69753Y539000D02*
X67647D01*
X65612Y538455D01*
X63788Y537402D01*
X62298Y535912D01*
X61245Y534088D01*
X60700Y532053D01*
Y529947D01*
X61245Y527912D01*
X62298Y526088D01*
X63788Y524598D01*
X65612Y523545D01*
X67647Y523000D01*
X69753D01*
X71788Y523545D01*
X73612Y524598D01*
X75102Y526088D01*
X76155Y527912D01*
X76700Y529947D01*
Y532053D01*
X76155Y534088D01*
X75102Y535912D01*
X73612Y537402D01*
X71788Y538455D01*
X69753Y539000D01*
D02*
G37*
G36*
X69353Y502200D02*
X67247D01*
X65212Y501655D01*
X63388Y500602D01*
X61898Y499112D01*
X60845Y497288D01*
X60300Y495253D01*
Y493147D01*
X60845Y491112D01*
X61898Y489288D01*
X63388Y487798D01*
X65212Y486745D01*
X67247Y486200D01*
X69353D01*
X71388Y486745D01*
X73212Y487798D01*
X74702Y489288D01*
X75755Y491112D01*
X76300Y493147D01*
Y495253D01*
X75755Y497288D01*
X74702Y499112D01*
X73212Y500602D01*
X71388Y501655D01*
X69353Y502200D01*
D02*
G37*
G36*
X724524Y683900D02*
X717600D01*
Y676976D01*
X718863Y677315D01*
X721087Y678598D01*
X722902Y680413D01*
X724185Y682637D01*
X724524Y683900D01*
D02*
G37*
G36*
X712600D02*
X705676D01*
X706014Y682637D01*
X707298Y680413D01*
X709113Y678598D01*
X711337Y677315D01*
X712600Y676976D01*
Y683900D01*
D02*
G37*
G36*
X888500Y610100D02*
X865800D01*
Y608666D01*
X865453Y608400D01*
X863347D01*
X861312Y607855D01*
X859488Y606802D01*
X857998Y605312D01*
X856945Y603488D01*
X856400Y601453D01*
Y599347D01*
X856945Y597312D01*
X857998Y595488D01*
X859488Y593998D01*
X861312Y592945D01*
X863347Y592400D01*
X865453D01*
X865800Y592134D01*
Y591100D01*
X888500D01*
Y610100D01*
D02*
G37*
G36*
X885000Y564600D02*
X879650D01*
Y561100D01*
X885000D01*
Y564600D01*
D02*
G37*
G36*
X874650D02*
X869300D01*
Y561100D01*
X874650D01*
Y564600D01*
D02*
G37*
G36*
X885000Y556100D02*
X879650D01*
Y552600D01*
X885000D01*
Y556100D01*
D02*
G37*
G36*
X874650D02*
X869300D01*
Y552600D01*
X874650D01*
Y556100D01*
D02*
G37*
G36*
X849106Y337660D02*
X840200D01*
Y315800D01*
X849106D01*
Y337660D01*
D02*
G37*
G36*
Y310800D02*
X840200D01*
Y288940D01*
X849106D01*
Y310800D01*
D02*
G37*
G36*
X881200Y211800D02*
X869700D01*
Y200300D01*
X881200D01*
Y211800D01*
D02*
G37*
G36*
X864700D02*
X853200D01*
Y200300D01*
X864700D01*
Y211800D01*
D02*
G37*
G36*
X881200Y195300D02*
X869700D01*
Y183800D01*
X881200D01*
Y195300D01*
D02*
G37*
G36*
X864700D02*
X853200D01*
Y183800D01*
X864700D01*
Y195300D01*
D02*
G37*
G36*
X805000D02*
X793500D01*
Y183800D01*
X805000D01*
Y195300D01*
D02*
G37*
G36*
X652600D02*
X641100D01*
Y183800D01*
X652600D01*
Y195300D01*
D02*
G37*
G36*
X636100D02*
X624600D01*
Y183800D01*
X636100D01*
Y195300D01*
D02*
G37*
G36*
X881200Y84800D02*
X869700D01*
Y73300D01*
X881200D01*
Y84800D01*
D02*
G37*
G36*
X652600D02*
X641100D01*
Y73300D01*
X652600D01*
Y84800D01*
D02*
G37*
G36*
X805000D02*
X793500D01*
Y73300D01*
X805000D01*
Y84800D01*
D02*
G37*
G36*
X556000D02*
X544500D01*
Y73300D01*
X556000D01*
Y84800D01*
D02*
G37*
G36*
X365500D02*
X354000D01*
Y73300D01*
X365500D01*
Y84800D01*
D02*
G37*
G36*
X539500D02*
X528000D01*
Y73300D01*
X539500D01*
Y84800D01*
D02*
G37*
G36*
X349000D02*
X337500D01*
Y73300D01*
X349000D01*
Y84800D01*
D02*
G37*
G36*
X864700D02*
X853200D01*
Y73300D01*
X864700D01*
Y84800D01*
D02*
G37*
G36*
X636100D02*
X624600D01*
Y73300D01*
X636100D01*
Y84800D01*
D02*
G37*
G36*
X788500D02*
X777000D01*
Y73300D01*
X788500D01*
Y84800D01*
D02*
G37*
G36*
X881200Y68300D02*
X869700D01*
Y56800D01*
X881200D01*
Y68300D01*
D02*
G37*
G36*
X864700D02*
X853200D01*
Y56800D01*
X864700D01*
Y68300D01*
D02*
G37*
G36*
X805000D02*
X793500D01*
Y56800D01*
X805000D01*
Y68300D01*
D02*
G37*
G36*
X788500D02*
X777000D01*
Y56800D01*
X788500D01*
Y68300D01*
D02*
G37*
G36*
X652600D02*
X641100D01*
Y56800D01*
X652600D01*
Y68300D01*
D02*
G37*
G36*
X636100D02*
X624600D01*
Y56800D01*
X636100D01*
Y68300D01*
D02*
G37*
G36*
X556000D02*
X544500D01*
Y56800D01*
X556000D01*
Y68300D01*
D02*
G37*
G36*
X539500D02*
X528000D01*
Y56800D01*
X539500D01*
Y68300D01*
D02*
G37*
G36*
X365500D02*
X354000D01*
Y56800D01*
X365500D01*
Y68300D01*
D02*
G37*
G36*
X349000D02*
X337500D01*
Y56800D01*
X349000D01*
Y68300D01*
D02*
G37*
G36*
X601553Y102100D02*
X599447D01*
X597412Y101555D01*
X595588Y100502D01*
X594098Y99012D01*
X593045Y97188D01*
X592500Y95153D01*
Y93047D01*
X592935Y91422D01*
Y88300D01*
X583000D01*
Y53300D01*
X618000D01*
Y88300D01*
X608065D01*
Y91423D01*
X608500Y93047D01*
Y95153D01*
X607955Y97188D01*
X606902Y99012D01*
X605412Y100502D01*
X603588Y101555D01*
X601553Y102100D01*
D02*
G37*
G36*
X507650Y663550D02*
X502000D01*
Y657900D01*
X507650D01*
Y663550D01*
D02*
G37*
G36*
X497000D02*
X491350D01*
Y657900D01*
X497000D01*
Y663550D01*
D02*
G37*
G36*
X489300D02*
X483650D01*
Y657900D01*
X489300D01*
Y663550D01*
D02*
G37*
G36*
X478650D02*
X473000D01*
Y657900D01*
X478650D01*
Y663550D01*
D02*
G37*
G36*
X470950D02*
X465300D01*
Y657900D01*
X470950D01*
Y663550D01*
D02*
G37*
G36*
X460300D02*
X454650D01*
Y657900D01*
X460300D01*
Y663550D01*
D02*
G37*
G36*
X507650Y655850D02*
X502000D01*
Y650200D01*
X507650D01*
Y655850D01*
D02*
G37*
G36*
X470950D02*
X465300D01*
Y650200D01*
X470950D01*
Y655850D01*
D02*
G37*
G36*
X489300D02*
X483650D01*
Y650200D01*
X489300D01*
Y655850D01*
D02*
G37*
G36*
X478650D02*
X473000D01*
Y650200D01*
X478650D01*
Y655850D01*
D02*
G37*
G36*
X497000D02*
X491350D01*
Y650200D01*
X497000D01*
Y655850D01*
D02*
G37*
G36*
X460300D02*
X454650D01*
Y650200D01*
X460300D01*
Y655850D01*
D02*
G37*
G36*
X507650Y645200D02*
X502000D01*
Y639550D01*
X507650D01*
Y645200D01*
D02*
G37*
G36*
X497000D02*
X491350D01*
Y639550D01*
X497000D01*
Y645200D01*
D02*
G37*
G36*
X489300D02*
X483650D01*
Y639550D01*
X489300D01*
Y645200D01*
D02*
G37*
G36*
X478650D02*
X473000D01*
Y639550D01*
X478650D01*
Y645200D01*
D02*
G37*
G36*
X470950D02*
X465300D01*
Y639550D01*
X470950D01*
Y645200D01*
D02*
G37*
G36*
X460300D02*
X454650D01*
Y639550D01*
X460300D01*
Y645200D01*
D02*
G37*
G36*
X507650Y637500D02*
X502000D01*
Y631850D01*
X507650D01*
Y637500D01*
D02*
G37*
G36*
X470950D02*
X465300D01*
Y631850D01*
X470950D01*
Y637500D01*
D02*
G37*
G36*
X489300D02*
X483650D01*
Y631850D01*
X489300D01*
Y637500D01*
D02*
G37*
G36*
X478650D02*
X473000D01*
Y631850D01*
X478650D01*
Y637500D01*
D02*
G37*
G36*
X497000D02*
X491350D01*
Y631850D01*
X497000D01*
Y637500D01*
D02*
G37*
G36*
X460300D02*
X454650D01*
Y631850D01*
X460300D01*
Y637500D01*
D02*
G37*
G36*
X507650Y626850D02*
X502000D01*
Y621200D01*
X507650D01*
Y626850D01*
D02*
G37*
G36*
X497000D02*
X491350D01*
Y621200D01*
X497000D01*
Y626850D01*
D02*
G37*
G36*
X489300D02*
X483650D01*
Y621200D01*
X489300D01*
Y626850D01*
D02*
G37*
G36*
X478650D02*
X473000D01*
Y621200D01*
X478650D01*
Y626850D01*
D02*
G37*
G36*
X470950D02*
X465300D01*
Y621200D01*
X470950D01*
Y626850D01*
D02*
G37*
G36*
X460300D02*
X454650D01*
Y621200D01*
X460300D01*
Y626850D01*
D02*
G37*
G36*
X403650Y584200D02*
X400150D01*
Y575200D01*
X403650D01*
Y584200D01*
D02*
G37*
G36*
X382900Y567900D02*
X377900D01*
Y564400D01*
X382900D01*
Y567900D01*
D02*
G37*
G36*
X372900D02*
X367900D01*
Y564400D01*
X372900D01*
Y567900D01*
D02*
G37*
G36*
X363400D02*
X358400D01*
Y564400D01*
X363400D01*
Y567900D01*
D02*
G37*
G36*
X353400D02*
X348400D01*
Y564400D01*
X353400D01*
Y567900D01*
D02*
G37*
G36*
X403650Y570200D02*
X400150D01*
Y561200D01*
X403650D01*
Y570200D01*
D02*
G37*
G36*
X382900Y559400D02*
X377900D01*
Y555900D01*
X382900D01*
Y559400D01*
D02*
G37*
G36*
X372900D02*
X367900D01*
Y555900D01*
X372900D01*
Y559400D01*
D02*
G37*
G36*
X363400Y559400D02*
X358400D01*
Y555900D01*
X363400D01*
Y559400D01*
D02*
G37*
G36*
X353400D02*
X348400D01*
Y555900D01*
X353400D01*
Y559400D01*
D02*
G37*
G36*
X360300Y504104D02*
Y499100D01*
X362308D01*
Y501275D01*
X362077Y502436D01*
X361420Y503420D01*
X360436Y504077D01*
X360300Y504104D01*
D02*
G37*
G36*
X355300Y504104D02*
X355164Y504077D01*
X354180Y503420D01*
X353523Y502436D01*
X353292Y501275D01*
Y499100D01*
X355300D01*
Y504104D01*
D02*
G37*
G36*
X362308Y494100D02*
X360300D01*
Y489096D01*
X360436Y489123D01*
X361420Y489780D01*
X362077Y490764D01*
X362308Y491925D01*
Y494100D01*
D02*
G37*
G36*
X355300D02*
X353292D01*
Y491925D01*
X353523Y490764D01*
X354180Y489780D01*
X355164Y489123D01*
X355300Y489096D01*
Y494100D01*
D02*
G37*
G36*
X792100Y605500D02*
X781100D01*
Y602700D01*
X792100D01*
Y605500D01*
D02*
G37*
G36*
Y597700D02*
X781100D01*
Y594900D01*
X792100D01*
Y597700D01*
D02*
G37*
G36*
Y592800D02*
X781100D01*
Y590000D01*
X792100D01*
Y592800D01*
D02*
G37*
G36*
Y585000D02*
X781100D01*
Y582200D01*
X792100D01*
Y585000D01*
D02*
G37*
G36*
X792100Y580100D02*
X781100D01*
Y577300D01*
X792100D01*
Y580100D01*
D02*
G37*
G36*
X776100D02*
X765100D01*
Y577300D01*
X776100D01*
Y580100D01*
D02*
G37*
G36*
X823706Y520860D02*
X814800D01*
Y499000D01*
X823706D01*
Y520860D01*
D02*
G37*
G36*
X835200D02*
X826294D01*
Y499000D01*
X835200D01*
Y520860D01*
D02*
G37*
G36*
Y494000D02*
X826294D01*
Y472140D01*
X835200D01*
Y494000D01*
D02*
G37*
G36*
X823706D02*
X814800D01*
Y472140D01*
X823706D01*
Y494000D01*
D02*
G37*
G36*
X644800Y392906D02*
X635800D01*
Y384000D01*
X644800D01*
Y392906D01*
D02*
G37*
G36*
X767200Y278950D02*
X759200D01*
Y268800D01*
X767200D01*
Y278950D01*
D02*
G37*
G36*
X754200D02*
X746200D01*
Y268800D01*
X754200D01*
Y278950D01*
D02*
G37*
G36*
X578750Y598050D02*
X569750D01*
Y594550D01*
X578750D01*
Y598050D01*
D02*
G37*
G36*
X565400Y500800D02*
X560400D01*
Y497300D01*
X565400D01*
Y500800D01*
D02*
G37*
G36*
X555400D02*
X550400D01*
Y497300D01*
X555400D01*
Y500800D01*
D02*
G37*
G36*
X565400Y492300D02*
X560400D01*
Y488800D01*
X565400D01*
Y492300D01*
D02*
G37*
G36*
X555400D02*
X550400D01*
Y488800D01*
X555400D01*
Y492300D01*
D02*
G37*
G36*
X537364Y453406D02*
Y444500D01*
X539157D01*
Y453406D01*
X537364D01*
D02*
G37*
G36*
X565200Y443800D02*
X560200D01*
Y440300D01*
X565200D01*
Y443800D01*
D02*
G37*
G36*
X555200D02*
X550200D01*
Y440300D01*
X555200D01*
Y443800D01*
D02*
G37*
G36*
X565200Y435300D02*
X560200D01*
Y431800D01*
X565200D01*
Y435300D01*
D02*
G37*
G36*
X555200D02*
X550200D01*
Y431800D01*
X555200D01*
Y435300D01*
D02*
G37*
G36*
X539157Y439500D02*
X537364D01*
Y430594D01*
X539157D01*
Y439500D01*
D02*
G37*
G36*
X466700Y394750D02*
X463550D01*
Y392625D01*
X466700D01*
Y394750D01*
D02*
G37*
G36*
X480850Y394725D02*
X477700D01*
Y392600D01*
X480850D01*
Y394725D01*
D02*
G37*
G36*
X425900Y404900D02*
X420900D01*
Y401400D01*
X425900D01*
Y404900D01*
D02*
G37*
G36*
Y396400D02*
X420900D01*
Y392900D01*
X425900D01*
Y396400D01*
D02*
G37*
G36*
X369000Y373237D02*
X368414Y373120D01*
X367674Y372626D01*
X367180Y371885D01*
X367006Y371012D01*
Y364400D01*
X369000D01*
Y373237D01*
D02*
G37*
G36*
X358100Y359500D02*
X353100D01*
Y356000D01*
X358100D01*
Y359500D01*
D02*
G37*
G36*
X348100D02*
X343100D01*
Y356000D01*
X348100D01*
Y359500D01*
D02*
G37*
G36*
X369000Y359400D02*
X367006D01*
Y352788D01*
X367180Y351914D01*
X367674Y351174D01*
X368414Y350680D01*
X369000Y350563D01*
Y359400D01*
D02*
G37*
G36*
X358100Y351000D02*
X353100D01*
Y347500D01*
X358100D01*
Y351000D01*
D02*
G37*
G36*
X348100D02*
X343100D01*
Y347500D01*
X348100D01*
Y351000D01*
D02*
G37*
G36*
X430500Y317600D02*
X425500D01*
Y314100D01*
X430500D01*
Y317600D01*
D02*
G37*
G36*
X420500D02*
X415500D01*
Y314100D01*
X420500D01*
Y317600D01*
D02*
G37*
G36*
X430500Y309100D02*
X425500D01*
Y305600D01*
X430500D01*
Y309100D01*
D02*
G37*
G36*
X420500D02*
X415500D01*
Y305600D01*
X420500D01*
Y309100D01*
D02*
G37*
G36*
X397300Y260300D02*
X393300D01*
Y254300D01*
X397300D01*
Y260300D01*
D02*
G37*
G36*
X388300D02*
X384300D01*
Y254300D01*
X388300D01*
Y260300D01*
D02*
G37*
G36*
X397300Y249300D02*
X393300D01*
Y243300D01*
X397300D01*
Y249300D01*
D02*
G37*
G36*
X388300D02*
X384300D01*
Y243300D01*
X388300D01*
Y249300D01*
D02*
G37*
%LPD*%
D11*
X749989Y812200D02*
G03*
X742411Y812200I-3789J-35800D01*
G01*
X876400Y867200D02*
X876450Y867250D01*
X876400Y867200D02*
X876500D01*
X895300Y824750D02*
Y889000D01*
X876450Y879500D02*
X878300D01*
X895300Y889000D02*
Y892250D01*
X876450Y867250D02*
Y879500D01*
X893800Y887500D02*
X895300Y889000D01*
X878300Y879500D02*
X886300Y887500D01*
X893800D01*
X168497Y836397D02*
X176500D01*
X155800Y823700D02*
X168497Y836397D01*
X110100Y823700D02*
X156271D01*
X534832Y426532D02*
Y441968D01*
X534800Y426500D02*
X534832Y426532D01*
Y441968D02*
X534864Y442000D01*
X458957Y500057D02*
X463700Y504800D01*
X458957Y489538D02*
Y500057D01*
X458663Y489244D02*
X458957Y489538D01*
X458663Y489244D02*
X471363D01*
X840200Y442100D02*
X871106Y473006D01*
Y517173D01*
X738600Y442100D02*
X840200D01*
X842600Y430100D02*
X879900Y467400D01*
X736100Y416700D02*
X749500Y430100D01*
X842600D01*
X758300Y454200D02*
X838046D01*
X743506Y468994D02*
X758300Y454200D01*
X838046D02*
X862606Y478760D01*
X718106Y462594D02*
X738600Y442100D01*
X879900Y467400D02*
Y520400D01*
X743506Y468994D02*
Y499094D01*
X718106Y462594D02*
Y499094D01*
X710700Y506500D02*
X718106Y499094D01*
X647000Y627700D02*
X750400D01*
X759200Y618900D01*
X618200Y718800D02*
X618357Y718957D01*
Y729878D01*
X629500Y659228D02*
X652528Y636200D01*
X629500Y716770D02*
X636900Y724170D01*
X629500Y659228D02*
Y716770D01*
X597250Y677450D02*
X647000Y627700D01*
X597250Y677450D02*
Y696435D01*
X768000Y627700D02*
X795800D01*
X652528Y636200D02*
X799321D01*
X765500Y625200D02*
X768000Y627700D01*
X799321Y636200D02*
X823600Y611921D01*
X759200Y618900D02*
X765500Y625200D01*
X669800Y653971D02*
X673100Y657271D01*
X765500Y625200D02*
X765500D01*
X669800Y653700D02*
Y653971D01*
X673100Y657271D02*
Y816021D01*
X795800Y627700D02*
X815100Y608400D01*
X802842Y644700D02*
X833500Y614042D01*
X658600Y644700D02*
X802842D01*
X638900Y664400D02*
X658600Y644700D01*
X759200Y591729D02*
Y618900D01*
X756271Y588800D02*
X759200Y591729D01*
X740900Y588800D02*
X756271D01*
X739600Y587500D02*
X740900Y588800D01*
X815100Y561158D02*
Y608400D01*
Y561158D02*
X845858Y530400D01*
X845858D01*
X862606Y513652D01*
X849379Y538900D02*
X849379D01*
X823600Y564679D02*
X849379Y538900D01*
X823600Y564679D02*
Y611921D01*
X849379Y538900D02*
X871106Y517173D01*
X833500Y566800D02*
Y614042D01*
X852160Y548140D02*
X852160D01*
X833500Y566800D02*
X852160Y548140D01*
X852160D02*
X879900Y520400D01*
X862606Y478760D02*
Y513652D01*
X20400Y786150D02*
X37850D01*
X20400Y798850D02*
X37850D01*
X20400Y811550D02*
X37850D01*
Y824250D02*
X37900Y824200D01*
X20400Y824250D02*
X37850D01*
X176500Y836397D02*
X183000Y842897D01*
Y861700D01*
X156685Y823286D02*
X161371Y818600D01*
X85750Y799350D02*
X110100Y823700D01*
X161371Y818600D02*
X174400D01*
X74900Y799350D02*
X85750D01*
X654000Y723831D02*
X654100Y723931D01*
Y745470D01*
X654000Y745570D02*
Y806100D01*
X645500Y742049D02*
X645600Y741949D01*
X654000Y678700D02*
Y723831D01*
X645500Y720300D02*
Y727351D01*
X645600Y727451D02*
Y741949D01*
X645500Y727351D02*
X645600Y727451D01*
X636900Y724170D02*
Y730772D01*
X654000Y745570D02*
X654100Y745470D01*
X636900Y738628D02*
Y785300D01*
X637100Y730972D02*
Y738428D01*
X636900Y738628D02*
X637100Y738428D01*
X645500Y742049D02*
Y793700D01*
X636900Y730772D02*
X637100Y730972D01*
X497900Y311979D02*
Y348912D01*
X488700Y309158D02*
Y349500D01*
X477700Y308138D02*
Y338812D01*
X509300Y312600D02*
Y338411D01*
X484750Y353450D02*
X488700Y349500D01*
X502763Y353775D02*
X504263D01*
X497900Y348912D02*
X502763Y353775D01*
X483250Y353450D02*
X484750D01*
X464962Y351550D02*
X477700Y338812D01*
X521664Y352275D02*
X523663Y354275D01*
X509300Y338411D02*
X521664Y350775D01*
Y352275D01*
X523663Y354275D02*
X525163D01*
X461150Y353550D02*
X463150Y351550D01*
X464962D01*
X497900Y311979D02*
X571979Y237900D01*
X509300Y312600D02*
X575400Y246500D01*
X477700Y308138D02*
X565438Y220400D01*
X488700Y309158D02*
X568958Y228900D01*
X384200Y338000D02*
Y361900D01*
X379800Y333600D02*
X384200Y338000D01*
X726600Y220400D02*
X733300Y213700D01*
X565438Y220400D02*
X726600D01*
X733300Y150000D02*
Y213700D01*
X568958Y228900D02*
X739300D01*
X752500Y237900D02*
X771400Y219000D01*
X780400Y246500D02*
X829100Y197800D01*
X575400Y246500D02*
X780400D01*
X739300Y228900D02*
X752900Y215300D01*
X571979Y237900D02*
X752500D01*
X714800Y70800D02*
Y197800D01*
X676700Y70800D02*
Y197800D01*
X771400Y157500D02*
Y219000D01*
X752900Y197800D02*
Y215300D01*
X345740Y457281D02*
X384819D01*
X409150Y432950D01*
Y411850D02*
Y432950D01*
X379400Y448500D02*
X396900Y431000D01*
Y411400D02*
Y431000D01*
X342500Y448500D02*
X379400D01*
X406150Y742700D02*
Y761650D01*
X406300Y761800D01*
X392800Y503438D02*
Y520100D01*
X392525Y503164D02*
X392800Y503438D01*
X376800Y496600D02*
X386232D01*
X392525Y502893D02*
Y503164D01*
X386232Y496600D02*
X392525Y502893D01*
X357800Y496600D02*
Y515551D01*
X365100Y522851D01*
Y523100D01*
X324100Y466900D02*
Y663659D01*
X344621Y696200D02*
X522100D01*
X348142Y687700D02*
X525621D01*
X332600Y470421D02*
Y660138D01*
X324100Y663659D02*
X348142Y687700D01*
X307100Y457700D02*
Y670700D01*
X341400Y705000D02*
X516779D01*
X315600Y667179D02*
X344621Y696200D01*
X315600Y462300D02*
Y667179D01*
X351662Y679200D02*
X529500D01*
X332600Y660138D02*
X351662Y679200D01*
X307100Y670700D02*
X341400Y705000D01*
X332600Y470421D02*
X345740Y457281D01*
X324100Y466900D02*
X342500Y448500D01*
X374521Y439200D02*
X384200Y429521D01*
X338700Y439200D02*
X374521D01*
X365700Y430200D02*
X371500Y424400D01*
X334600Y430200D02*
X365700D01*
X307100Y457700D02*
X334600Y430200D01*
X371500Y411400D02*
Y424400D01*
X315600Y462300D02*
X338700Y439200D01*
X409150Y411850D02*
X409600Y411400D01*
X384200D02*
Y429521D01*
X352100Y353500D02*
X360500Y361900D01*
X350600Y353500D02*
X352100D01*
X360500Y361900D02*
X371500D01*
X371950Y375379D02*
X376000Y379429D01*
X371500Y361900D02*
X371950Y362350D01*
Y375379D01*
X376000Y379429D02*
Y379700D01*
X532257Y782691D02*
X550675D01*
X550733Y782750D01*
X520450Y770884D02*
X532257Y782691D01*
X503900Y174500D02*
X503900Y174500D01*
X503900Y174500D02*
Y197800D01*
X877050Y600500D02*
X877150Y600600D01*
X864500Y600500D02*
X877050D01*
X864400Y600400D02*
X864500Y600500D01*
X74400Y798850D02*
X74900Y799350D01*
X512200Y871700D02*
X537600D01*
X563000D01*
X461400D02*
X486800D01*
X512200D01*
X715100Y709871D02*
Y711800D01*
Y709871D02*
X722600Y702371D01*
Y702100D02*
Y702371D01*
X664500Y669200D02*
Y675800D01*
X658300Y662900D02*
Y663000D01*
X664500Y669200D01*
Y675800D02*
X664600Y675900D01*
X878509Y576009D02*
X878700Y576200D01*
X896000Y545850D02*
Y548029D01*
X877150Y558600D02*
X878509Y559959D01*
X894500Y549529D02*
X896000Y548029D01*
X878509Y559959D02*
Y576009D01*
X675657Y516077D02*
X689200Y502534D01*
X675657Y516077D02*
X675657D01*
X513249Y364775D02*
X537083D01*
X495453Y363950D02*
X495778Y364275D01*
X512749D02*
X513249Y364775D01*
X495778Y364275D02*
X512749D01*
X474765Y363950D02*
X495453D01*
X474665Y364050D02*
X474765Y363950D01*
X452665Y364050D02*
X474665D01*
X451715Y365000D02*
X452665Y364050D01*
X451300Y365000D02*
X451715D01*
X442000Y374300D02*
X451300Y365000D01*
X442000Y374300D02*
Y419700D01*
X419200Y442500D02*
X442000Y419700D01*
X450900Y383300D02*
Y403250D01*
Y383300D02*
X459650Y374550D01*
X450900Y403250D02*
X460450Y412800D01*
X461650D01*
X389600Y197800D02*
X440000Y248200D01*
Y290500D01*
X419200Y442500D02*
Y492500D01*
X428400Y377900D02*
X430990Y375310D01*
X425391Y362091D02*
X430990Y367690D01*
Y375310D01*
X420391Y362091D02*
X425391D01*
X420200Y361900D02*
X420391Y362091D01*
X409600Y361900D02*
X420200D01*
X581175Y600475D02*
X581250Y600400D01*
X458663Y426880D02*
X461050Y424494D01*
X458663Y442000D02*
X458663Y442000D01*
X461050Y412375D02*
Y424494D01*
X458663Y426880D02*
Y442000D01*
X419200Y492500D02*
X430200Y503500D01*
X431700D01*
X412100Y530100D02*
X412150Y530050D01*
Y520150D02*
X412200Y520100D01*
X412150Y520150D02*
Y530050D01*
X497900Y515000D02*
X533150Y550250D01*
X457600Y515000D02*
X497900D01*
X787600Y550100D02*
Y560800D01*
X786300Y562100D02*
X787600Y560800D01*
X878700Y576200D02*
X896000Y593500D01*
Y613350D01*
X533150Y550250D02*
Y572700D01*
X379415Y221100D02*
X400879D01*
X419500Y239721D01*
Y252600D01*
X351500Y70800D02*
X351600Y70900D01*
Y94400D01*
X563000Y846300D02*
X580100Y829200D01*
X610000D01*
X645500Y793700D01*
X638900Y713700D02*
X645500Y720300D01*
X638900Y664400D02*
Y713700D01*
X648000Y672700D02*
X654000Y678700D01*
X664600Y824521D02*
X673100Y816021D01*
X640783Y836317D02*
X664600Y812500D01*
Y675900D02*
Y812500D01*
X664600Y824521D02*
Y846300D01*
X613800D02*
X654000Y806100D01*
X639200Y846300D02*
X640783Y844717D01*
Y836317D02*
Y844717D01*
X613500Y808700D02*
X636900Y785300D01*
X797124Y610578D02*
X797394D01*
X778600Y612900D02*
X779900Y611600D01*
X796102D01*
X797124Y610578D01*
X736100Y506500D02*
X743506Y499094D01*
X736100Y303300D02*
Y416700D01*
X689200Y358293D02*
Y502534D01*
Y358293D02*
X706762Y340731D01*
Y307238D02*
Y340731D01*
Y307238D02*
X710700Y303300D01*
X431650Y503550D02*
X431700Y503500D01*
X431600Y520100D02*
X431650Y520050D01*
Y503550D02*
Y520050D01*
X558191Y743059D02*
Y756359D01*
X558000Y756550D02*
X558191Y756359D01*
Y743059D02*
X558550Y742700D01*
X589100Y808700D02*
X613500D01*
X591479Y700150D02*
X591679Y699950D01*
X583250Y700150D02*
X591479D01*
X593735Y699950D02*
X597250Y696435D01*
X591679Y699950D02*
X593735D01*
X581250Y702150D02*
X583250Y700150D01*
X571454Y755369D02*
X571645Y755560D01*
X571250Y742700D02*
X571454Y742904D01*
Y755369D01*
X570500Y741950D02*
X571250Y742700D01*
X705600Y825500D02*
X717600Y837500D01*
X876450D01*
X773264Y810735D02*
X786500Y797500D01*
X749989Y812200D02*
X771800D01*
X697736Y813664D02*
X699200Y812200D01*
X697736Y813664D02*
X697736Y813664D01*
X690000Y821400D02*
X697736Y813664D01*
X771800Y812200D02*
X773264Y810735D01*
X699200Y812200D02*
X742411D01*
X690000Y821400D02*
Y846300D01*
X786500Y797500D02*
X788000D01*
X790000Y795500D01*
X566765Y723350D02*
X570500Y727085D01*
X549250Y723350D02*
X566765D01*
X570500Y727085D02*
Y741950D01*
X444250Y572700D02*
Y589139D01*
X480350Y574700D02*
Y588550D01*
X440053Y593336D02*
X444250Y589139D01*
X507837Y725137D02*
Y742787D01*
X458800Y610100D02*
X480350Y588550D01*
X448749Y601100D02*
X456950Y592898D01*
X480350Y574700D02*
X482350Y572700D01*
X444700Y723450D02*
Y723721D01*
X563500Y600400D02*
X563575Y600475D01*
X456950Y572700D02*
Y592898D01*
X481150Y666050D02*
X499500D01*
X469625Y724625D02*
Y742675D01*
X563575Y600475D02*
X581175D01*
X462800Y647700D02*
X481150D01*
X451600Y629350D02*
X462800D01*
X469625Y742675D02*
X469650Y742700D01*
X456700Y723674D02*
X456950Y723924D01*
X481150Y629350D02*
X499500D01*
X451600Y647700D02*
X462800D01*
X520450Y742700D02*
Y770884D01*
X469600Y724600D02*
X469625Y724625D01*
X456950Y723924D02*
Y742700D01*
X444223Y724197D02*
X444700Y723721D01*
X462800Y666050D02*
X481150D01*
X444223Y724197D02*
Y742673D01*
X444250Y742700D01*
X451600Y666050D02*
X462800D01*
Y629350D02*
X481150D01*
Y647700D02*
X499500D01*
Y629350D02*
Y647700D01*
Y666050D01*
X461300Y234800D02*
X461500D01*
X473700Y247000D01*
X493472D01*
X509436Y262964D01*
X484300Y225100D02*
X504950Y245750D01*
X484300Y172500D02*
Y225100D01*
X518165Y238035D02*
Y239609D01*
X522500Y173600D02*
Y233700D01*
X518165Y238035D02*
X522500Y233700D01*
X517974Y239800D02*
X518165Y239609D01*
X465800Y116900D02*
X522500Y173600D01*
X556810Y216300D02*
X556985D01*
X533310Y239800D02*
Y239800D01*
Y239800D02*
X556810Y216300D01*
X563700Y163600D02*
Y209585D01*
X556985Y216300D02*
X563700Y209585D01*
X503900Y103800D02*
X563700Y163600D01*
X465800Y70800D02*
Y116900D01*
X503900Y70800D02*
Y103800D01*
X459650Y374550D02*
X461150D01*
X535214Y383825D02*
Y403554D01*
X526664Y375275D02*
X535214Y383825D01*
X527277Y411491D02*
X535214Y403554D01*
X525163Y375275D02*
X526664D01*
X638600Y174500D02*
Y197800D01*
X426200Y114400D02*
X484300Y172500D01*
X426200Y72300D02*
Y114400D01*
Y72300D02*
X427700Y70800D01*
X312900Y97000D02*
X371000Y155100D01*
X312900Y71300D02*
Y97000D01*
X389600Y70800D02*
Y120500D01*
X446200Y177100D01*
X371000Y155100D02*
Y212685D01*
X446200Y177100D02*
Y219700D01*
X461300Y234800D01*
X465800Y174500D02*
Y197800D01*
X427700Y174500D02*
Y197800D01*
X524439Y413750D02*
X525064Y413125D01*
X526443Y412500D01*
X527277Y411491D02*
Y411666D01*
X526443Y412500D02*
X527277Y411666D01*
X375400Y561900D02*
X376300Y561000D01*
Y551729D02*
Y561000D01*
Y551729D02*
X379600Y548429D01*
Y548300D02*
Y548429D01*
X375457Y561957D02*
X394329D01*
X394386Y562014D02*
X394577Y562205D01*
X394329Y561957D02*
X394386Y562014D01*
X394577Y562205D02*
Y562691D01*
X397815Y565928D01*
X375400Y561900D02*
X375457Y561957D01*
X358300Y273500D02*
X361900D01*
X371000Y212685D02*
X379415Y221100D01*
X312900Y71300D02*
X313400Y70800D01*
X275300D02*
Y97300D01*
X332500Y154500D02*
Y224600D01*
X275300Y97300D02*
X332500Y154500D01*
Y224600D02*
X360400Y252500D01*
X361900D01*
X842800Y730600D02*
X844800Y732600D01*
X834646Y730600D02*
X842800D01*
X828975Y725200D02*
X829246D01*
X834646Y730600D01*
X844800Y732600D02*
Y734100D01*
X518729Y706950D02*
X519000D01*
X516779Y705000D02*
X518729Y706950D01*
X548485Y697836D02*
X548927Y698279D01*
X529500Y679200D02*
X548927Y698627D01*
Y698279D02*
Y698627D01*
X752900Y70800D02*
Y130400D01*
X733300Y150000D02*
X752900Y130400D01*
X829100Y70800D02*
Y99800D01*
X771400Y157500D02*
X829100Y99800D01*
X796764Y180264D02*
Y192036D01*
X791000Y197800D02*
X796764Y192036D01*
X552771Y714850D02*
X581250D01*
X522100Y696200D02*
X549250Y723350D01*
X525621Y687700D02*
X552771Y714850D01*
X376000Y583500D02*
Y591871D01*
X375400Y582900D02*
X375400D01*
X376000Y583500D01*
Y591871D02*
X381829Y597700D01*
X412800D01*
X355900Y582900D02*
Y603029D01*
Y582900D02*
X375400D01*
X355900Y603029D02*
X356500Y603629D01*
Y603900D01*
X419500Y273600D02*
X423100D01*
X778600Y562100D02*
X786300D01*
X486800Y799954D02*
Y846300D01*
Y799954D02*
X495050Y791704D01*
Y742700D02*
Y791704D01*
X461400Y809602D02*
Y846300D01*
X431550Y779752D02*
X461400Y809602D01*
X431550Y742700D02*
Y779752D01*
X497057Y431743D02*
Y441706D01*
X507075Y421725D02*
X515438D01*
X497057Y431743D02*
X507075Y421725D01*
X471657Y432160D02*
Y441706D01*
X471363Y442000D02*
X471657Y441706D01*
X484063Y442000D02*
X484357Y441706D01*
X471657Y432160D02*
X483350Y420468D01*
X484357Y431481D02*
X493500Y422338D01*
Y417539D02*
Y422338D01*
X484357Y431481D02*
Y441706D01*
X483350Y412350D02*
Y420468D01*
X493500Y417539D02*
X497814Y413225D01*
X503638D01*
X504263Y412600D01*
X515438Y421725D02*
X523414Y413750D01*
X524439D01*
X496763Y442000D02*
X497057Y441706D01*
X355900Y561900D02*
X375400D01*
X397815Y565928D02*
X404150D01*
X406150Y567928D01*
Y572700D01*
X23800Y868300D02*
X24000Y868100D01*
X542000Y70800D02*
Y94100D01*
Y174500D02*
Y197800D01*
X638600Y70800D02*
Y94100D01*
X791000Y70800D02*
Y94100D01*
X867200Y70800D02*
Y94100D01*
Y174500D02*
Y197800D01*
X778600Y574800D02*
X778600Y574800D01*
X778600Y574800D02*
Y587500D01*
Y600200D01*
Y612900D01*
X877150Y548629D02*
Y558600D01*
Y548629D02*
X880079Y545700D01*
X895850D01*
X896000Y545850D01*
X883152Y715500D02*
X893800D01*
X882644Y714992D02*
X883152Y715500D01*
X809800Y753900D02*
X811300D01*
X809800D02*
X810100Y754200D01*
X811300Y753900D02*
X824700Y767300D01*
Y774900D01*
X826200Y776400D01*
X826700D02*
X834600D01*
X826200D02*
X826700D01*
X834600D02*
X834700Y776500D01*
X893550Y761650D02*
X893700Y761500D01*
X881900Y761800D02*
X882050Y761650D01*
X893550D01*
X505643Y411975D02*
X514677Y402941D01*
X504263Y412600D02*
X505643Y411975D01*
X514677Y383791D02*
Y402941D01*
X504263Y374775D02*
X507661Y376775D01*
X514677Y383791D01*
X483350Y412350D02*
X483575Y412575D01*
X483250Y374450D02*
X484750D01*
X483950Y412775D02*
X493650Y403075D01*
Y383350D02*
Y403075D01*
X484750Y374450D02*
X493650Y383350D01*
X600500Y70800D02*
Y94100D01*
X563000Y870871D02*
Y871700D01*
X458559D02*
X461400D01*
X790000Y794000D02*
Y795500D01*
X893100Y790129D02*
Y790400D01*
X893600Y779500D02*
Y789629D01*
X893100Y790129D02*
X893600Y789629D01*
X883200Y797100D02*
X893600Y807500D01*
X882900Y797100D02*
X883200D01*
X875000Y789200D02*
X882900Y797100D01*
X875000Y774600D02*
Y789200D01*
X862900Y764000D02*
X864400D01*
X875000Y774600D01*
X847150Y785450D02*
X862450D01*
X862900Y785000D01*
X846700Y785900D02*
X847150Y785450D01*
X809800Y774900D02*
X810400Y775500D01*
Y793400D02*
X811000Y794000D01*
X810400Y775500D02*
Y793400D01*
X811700Y794700D02*
X826000D01*
X826700Y795400D01*
X811000Y794000D02*
X811700Y794700D01*
X893500Y687800D02*
X893800Y687500D01*
X866100Y687800D02*
X893500D01*
X865800Y688100D02*
X866100Y687800D01*
X893400Y733800D02*
X893700Y733500D01*
X866100Y733800D02*
X893400D01*
X865800Y734100D02*
X866100Y733800D01*
X433100Y542600D02*
Y571150D01*
X431600Y541100D02*
X433100Y542600D01*
X431550Y572700D02*
X433100Y571150D01*
X419400Y273700D02*
X419500Y273600D01*
X400400Y273700D02*
X419400D01*
X361900Y273500D02*
X362050Y273650D01*
X381150D01*
X507700Y742750D02*
Y768933D01*
Y742750D02*
X507750Y742700D01*
X507700Y768933D02*
X508567Y769800D01*
X418850Y572700D02*
Y591650D01*
X412800Y597700D02*
X418850Y591650D01*
X600500Y174500D02*
Y197800D01*
X469775Y742825D02*
Y769675D01*
X401300Y332600D02*
X423000D01*
X395800Y873100D02*
Y888600D01*
X395700Y834500D02*
X395750Y834550D01*
Y852050D02*
X395800Y852100D01*
X395750Y834550D02*
Y852050D01*
X375450Y834550D02*
Y852150D01*
X375400Y852200D02*
X375450Y852150D01*
Y834550D02*
X375500Y834500D01*
X401200Y332500D02*
Y334000D01*
X396900Y338300D02*
X401200Y334000D01*
X379800Y332100D02*
Y333600D01*
X396900Y338300D02*
Y361900D01*
X400300Y273800D02*
X400400Y273700D01*
X381150Y273650D02*
X381300Y273800D01*
X350600Y332500D02*
X351000Y332100D01*
X379800D01*
X431550Y541100D02*
X431575Y541125D01*
X412200Y541100D02*
X431550D01*
X431575Y541125D02*
X431600Y541100D01*
X392800D02*
X412200D01*
X0Y900000D02*
X900000D01*
X0Y0D02*
X900000D01*
X0D02*
Y900000D01*
X900000D02*
X900000Y0D01*
D12*
X588500Y768000D02*
X597672D01*
X586400Y765900D02*
X588500Y768000D01*
X585800Y737100D02*
X597686D01*
X609100Y768000D02*
X618500D01*
X618514Y737100D02*
X625700D01*
X628100Y734700D01*
D15*
X786900Y303300D02*
X812300D01*
X129900Y260600D02*
X209393Y181107D01*
X100700Y260600D02*
X129900D01*
X209393Y163857D02*
Y181107D01*
Y163857D02*
X216725Y156525D01*
X258450Y856450D02*
X281600D01*
X250000Y864900D02*
X258450Y856450D01*
X241800Y873100D02*
X250000Y864900D01*
X220700Y873100D02*
X241800D01*
X281700Y819400D02*
X335500Y873200D01*
X375400D01*
X281600Y819400D02*
X281700D01*
X281600Y795950D02*
Y819400D01*
X270900Y830100D02*
X281600Y819400D01*
X249600Y830100D02*
X270900D01*
X163200Y780100D02*
X171900D01*
X190542D01*
X220700Y830100D02*
X249600D01*
X90650Y786150D02*
X108550Y804050D01*
X128700D01*
X129950Y802800D02*
X140500D01*
X128700Y804050D02*
X129950Y802800D01*
X140500D02*
X163200Y780100D01*
X128200Y751600D02*
Y769050D01*
X128700Y769550D01*
X128200Y751600D02*
X146100Y733700D01*
X222600D01*
X74400Y786150D02*
X90650D01*
X175700Y335600D02*
Y381842D01*
X162600Y394942D02*
Y397700D01*
Y394942D02*
X175700Y381842D01*
X138400Y91500D02*
X145200Y84700D01*
X137492Y92408D02*
X138400Y91500D01*
X69600Y197800D02*
X107700D01*
X242400Y38600D02*
Y198900D01*
X175700Y265600D02*
X242400Y198900D01*
X95700Y265600D02*
X100700Y260600D01*
X92500Y338800D02*
X95700Y335600D01*
X25100Y344100D02*
X30400Y338800D01*
X92500D01*
X175700Y335600D02*
X180600Y340500D01*
X240700D01*
X244400Y344200D01*
X99150Y394250D02*
X102600Y397700D01*
X99150Y339050D02*
Y394250D01*
X95700Y335600D02*
X99150Y339050D01*
X786900Y266300D02*
Y303300D01*
X197400Y786958D02*
Y805300D01*
X190542Y780100D02*
X197400Y786958D01*
Y805300D02*
X220700Y828600D01*
Y830100D01*
X741700Y265900D02*
X756300D01*
X121500Y868300D02*
X133000D01*
X113000D02*
X121500D01*
X104700D02*
X113000D01*
X84300D02*
X104700D01*
X24000Y868100D02*
X48600D01*
X133000Y868300D02*
X137000Y864300D01*
Y861700D02*
Y864300D01*
X169600Y32100D02*
X180800Y20900D01*
X107900Y86200D02*
X114108Y92408D01*
X107900Y71000D02*
Y86200D01*
X107700Y70800D02*
X107900Y71000D01*
X69600Y70800D02*
X108300Y32100D01*
X114108Y92408D02*
X137492D01*
X145200Y84700D02*
X148875Y81025D01*
X206000Y61800D02*
X218200D01*
X193700D02*
X206000D01*
X181200D02*
X193700D01*
X152550Y77350D02*
X159900Y70000D01*
X148875Y81025D02*
X152550Y77350D01*
X168400Y61800D02*
X181200D01*
X168000D02*
X168400D01*
X375450Y873250D02*
Y888650D01*
X375500Y888700D01*
X375400Y873200D02*
X375450Y873250D01*
X159900Y69900D02*
Y70000D01*
X148875Y81025D02*
X148875D01*
X159900Y69900D02*
X168000Y61800D01*
X180800Y20900D02*
X212400D01*
X219357Y27857D01*
X231657D01*
X242400Y38600D01*
X198600Y107100D02*
X212400Y120900D01*
X169600Y107100D02*
X198600D01*
X215375Y123875D02*
X216725D01*
X108300Y32100D02*
X169600D01*
X31500Y111600D02*
X79400Y159500D01*
X164650D01*
X31500Y70800D02*
Y111600D01*
X216725Y123875D02*
Y156525D01*
D20*
X553341Y372200D02*
X597143D01*
X603700Y491200D02*
Y498086D01*
X577213Y481213D02*
X584200Y488200D01*
X573963Y480955D02*
X576963D01*
X620663Y487763D02*
X623900Y491000D01*
X610100Y487950D02*
X610200Y488050D01*
Y422811D02*
Y444500D01*
X584400Y444700D02*
X590700D01*
X610100Y475660D02*
Y487950D01*
X620663Y480955D02*
Y487763D01*
X577900Y500500D02*
X584200Y494200D01*
X597200Y444500D02*
X603700D01*
X577213Y481205D02*
Y481213D01*
X583887Y465341D02*
X584041Y465494D01*
X603700Y498086D02*
X609350Y503736D01*
X576963Y480955D02*
X577213Y481205D01*
X573963Y454955D02*
Y461455D01*
X584200Y488200D02*
Y494200D01*
X581273Y467955D02*
X583887Y465341D01*
X609913Y475473D02*
X610100Y475660D01*
X610200Y488050D02*
Y494200D01*
X609300Y521200D02*
X609350Y521150D01*
Y503736D02*
Y521150D01*
X573963Y467955D02*
X581273D01*
X584041Y465494D02*
X584259D01*
X703500Y296100D02*
X710700Y303300D01*
X280650Y855500D02*
X281600Y856450D01*
X519100Y513700D02*
X541800D01*
X510508Y490288D02*
Y505107D01*
X519100Y513700D01*
X193988Y819600D02*
X194988Y820600D01*
X181900Y818800D02*
Y819100D01*
X182400Y819600D01*
X193988D01*
X181900Y818800D02*
X181900Y818800D01*
X534100Y316400D02*
Y333762D01*
X478200Y504240D02*
X482770Y499670D01*
X478200Y504240D02*
Y504240D01*
X482770Y490538D02*
X484063Y489244D01*
X482770Y490538D02*
Y499670D01*
X572600Y529000D02*
X590700Y510900D01*
X557200Y513600D02*
X572600Y529000D01*
X541900Y513600D02*
X557200D01*
X590700Y491200D02*
Y510900D01*
X572600Y529000D02*
Y571350D01*
X571250Y572700D02*
X572600Y571350D01*
X559400Y494800D02*
X562400Y497800D01*
Y498743D01*
X564157Y500500D02*
X577900D01*
X557900Y494800D02*
X559400D01*
X562400Y498743D02*
X564157Y500500D01*
X178400Y808100D02*
X181900Y811600D01*
Y818800D01*
X178400Y799100D02*
Y808100D01*
X194988Y820600D02*
X195800D01*
X689700Y711800D02*
X694950Y717050D01*
X700226D01*
X534100Y333762D02*
X545083Y344745D01*
X545600Y336069D02*
X551583Y342053D01*
X545083Y344745D02*
Y392783D01*
X551583Y342053D02*
Y370443D01*
X553341Y372200D01*
X545083Y392783D02*
X550000Y397700D01*
X543100Y300900D02*
Y301700D01*
X552100Y333377D02*
X555029Y336306D01*
X556512D01*
X545600Y304200D02*
Y336069D01*
X552100Y287353D02*
Y333377D01*
X543100Y301700D02*
X545600Y304200D01*
X552100Y287353D02*
X552479Y286974D01*
X567006Y346800D02*
X567100D01*
X556512Y336306D02*
X567006Y346800D01*
X550000Y397700D02*
X563600D01*
X472650Y560829D02*
X478712Y554767D01*
X513700D01*
X513879Y587700D02*
X522750D01*
X564750Y629700D02*
Y659100D01*
X522750Y587700D02*
X564750Y629700D01*
X516550Y594200D02*
X554700Y632350D01*
X510950Y575900D02*
Y584771D01*
X498250Y575900D02*
Y584771D01*
X495050Y572700D02*
X498250Y575900D01*
X545600Y572450D02*
X545850Y572700D01*
X554700Y632350D02*
Y686900D01*
X507679Y594200D02*
X516550D01*
X507750Y572700D02*
X510950Y575900D01*
X469650Y572700D02*
X472650Y569700D01*
X550064Y539046D02*
Y539858D01*
X510950Y584771D02*
X513879Y587700D01*
X498250Y584771D02*
X507679Y594200D01*
X545600Y544322D02*
Y572450D01*
X472650Y560829D02*
Y569700D01*
X545600Y544322D02*
X550064Y539858D01*
X564774Y319074D02*
X567100Y321400D01*
X564774Y275374D02*
Y319074D01*
X564200Y274800D02*
X564774Y275374D01*
X596517Y321217D02*
X611900Y336600D01*
X567100Y321217D02*
X596517D01*
X611900Y336600D02*
Y391048D01*
X567100Y397600D02*
X588600D01*
X610050Y419050D01*
X597143Y372200D02*
X598900Y373957D01*
Y396433D01*
X569400Y344500D02*
X596367D01*
X567100Y346800D02*
X569400Y344500D01*
X596367D02*
X605400Y353533D01*
X610050Y419050D02*
Y422237D01*
X610624Y422811D01*
X620893Y461225D02*
X623260D01*
X623280Y461205D02*
X631895D01*
X620663Y461455D02*
X620893Y461225D01*
X623260D02*
X623280Y461205D01*
X631895D02*
X639800Y453300D01*
X653400Y441740D02*
Y462200D01*
X659900Y439048D02*
Y475100D01*
X641000Y438533D02*
Y453000D01*
X605400Y353533D02*
Y393741D01*
X653400Y441740D01*
X611900Y391048D02*
X659900Y439048D01*
X598900Y396433D02*
X641000Y438533D01*
X649100Y485900D02*
X659900Y475100D01*
X641500Y474100D02*
X653400Y462200D01*
X639600Y474100D02*
X641500D01*
X629913Y476212D02*
Y482213D01*
X628156Y474455D02*
X629913Y476212D01*
X620663Y474455D02*
X628156D01*
X629913Y482213D02*
X633600Y485900D01*
X649100D01*
X620663Y467955D02*
X633455D01*
X639600Y474100D01*
X639800Y453300D02*
X641300D01*
X641000Y453000D02*
X641300Y453300D01*
X611050Y494450D02*
X617600Y501000D01*
Y535100D01*
X610450Y494450D02*
X611050D01*
X610200Y494200D02*
X610450Y494450D01*
X657300Y574800D02*
X714489D01*
X739600D01*
X597000Y429500D02*
Y443000D01*
X575800Y429500D02*
X578800Y432500D01*
Y436100D02*
X584200Y441500D01*
Y444500D01*
X578800Y432500D02*
Y436100D01*
X599700Y553000D02*
X617600Y535100D01*
X599700Y553000D02*
Y606500D01*
X617600Y535100D02*
X657300Y574800D01*
X581250Y613250D02*
X582750Y611750D01*
X594450D02*
X599700Y606500D01*
X582750Y611750D02*
X594450D01*
X844800Y688100D02*
X846408Y686491D01*
X853053D01*
X597200Y442800D02*
Y444500D01*
X597000Y443000D02*
X597200Y442800D01*
X757700Y549100D02*
X784240Y522560D01*
X741650Y572750D02*
X752175D01*
X757700Y549100D02*
Y567225D01*
X752175Y572750D02*
X757700Y567225D01*
X739600Y574800D02*
X741650Y572750D01*
X509464Y489244D02*
X510508Y490288D01*
X784240Y509160D02*
X786900Y506500D01*
X784240Y509160D02*
Y522560D01*
D22*
X626660Y442672D02*
Y448958D01*
Y442672D02*
X627184Y442148D01*
X597200Y506064D02*
X598800Y507664D01*
X620663Y454955D02*
X626660Y448958D01*
X598800Y507664D02*
Y508600D01*
X597200Y491200D02*
Y506064D01*
X533500Y743050D02*
Y766800D01*
X541200Y774500D02*
X597672D01*
X533500Y766800D02*
X541200Y774500D01*
X610387Y755800D02*
X616087Y761500D01*
X610000Y755800D02*
X610387D01*
X616087Y761500D02*
X618500D01*
X597672Y755944D02*
Y761500D01*
Y755944D02*
X602020Y751596D01*
X553170Y470570D02*
Y470570D01*
X546300Y466600D02*
X546962Y467262D01*
X549862D02*
X553170Y470570D01*
X546962Y467262D02*
X549862D01*
X553170Y470570D02*
X556400Y473800D01*
X557700Y473600D02*
X557900Y473800D01*
X557700Y458800D02*
Y473600D01*
X556400Y473800D02*
X557900D01*
X568308Y458800D02*
X570963Y461455D01*
X573963D01*
X557700Y458800D02*
X568308D01*
X591070Y726099D02*
Y726397D01*
X597686Y730600D02*
X597714Y730628D01*
X595273Y730600D02*
X597686D01*
X591070Y726397D02*
X595273Y730600D01*
X602093Y751596D02*
X606427Y747263D01*
X602020Y751596D02*
X602093D01*
X606427Y733437D02*
Y747263D01*
X603618Y730628D02*
X606427Y733437D01*
X597714Y730628D02*
X603618D01*
X533150Y742700D02*
X533500Y743050D01*
D28*
X395800Y873100D02*
D03*
Y852100D02*
D03*
X375400Y873200D02*
D03*
Y852200D02*
D03*
X431700Y482500D02*
D03*
Y503500D02*
D03*
X507800Y769800D02*
D03*
Y790800D02*
D03*
X469900Y769800D02*
D03*
Y790800D02*
D03*
X862900Y785000D02*
D03*
Y764000D02*
D03*
X809800Y774900D02*
D03*
Y753900D02*
D03*
X557700Y458800D02*
D03*
Y437800D02*
D03*
X641300Y474300D02*
D03*
Y453300D02*
D03*
X557900Y494800D02*
D03*
Y473800D02*
D03*
X461150Y353550D02*
D03*
Y374550D02*
D03*
X483250Y374450D02*
D03*
Y353450D02*
D03*
X504263Y374775D02*
D03*
Y353775D02*
D03*
X525163Y375275D02*
D03*
Y354275D02*
D03*
X375400Y561900D02*
D03*
Y582900D02*
D03*
X355900Y561900D02*
D03*
Y582900D02*
D03*
X428400Y398900D02*
D03*
Y377900D02*
D03*
X423000Y311600D02*
D03*
Y332600D02*
D03*
X350600Y332500D02*
D03*
Y353500D02*
D03*
X361900Y273500D02*
D03*
Y252500D02*
D03*
X419500Y252600D02*
D03*
Y273600D02*
D03*
X431600Y541100D02*
D03*
Y520100D02*
D03*
X392800D02*
D03*
Y541100D02*
D03*
X412200D02*
D03*
Y520100D02*
D03*
D29*
X395700Y834500D02*
D03*
Y815500D02*
D03*
X375500Y834500D02*
D03*
Y815500D02*
D03*
D30*
X395800Y888700D02*
D03*
X375500D02*
D03*
D31*
X281600Y856450D02*
D03*
Y795950D02*
D03*
D32*
X178400Y799100D02*
D03*
X165400D02*
D03*
X171900Y780100D02*
D03*
D33*
X174900Y818800D02*
D03*
X181900D02*
D03*
D34*
X220700Y873100D02*
D03*
Y830100D02*
D03*
D35*
X183000Y861700D02*
D03*
X137000D02*
D03*
D36*
X128700Y769550D02*
D03*
Y804050D02*
D03*
D37*
X84300Y868300D02*
D03*
X23800D02*
D03*
D38*
X20400Y786150D02*
D03*
Y798850D02*
D03*
Y811550D02*
D03*
Y824250D02*
D03*
X74400D02*
D03*
Y811550D02*
D03*
Y798850D02*
D03*
Y786150D02*
D03*
D39*
X597672Y761500D02*
D03*
Y768000D02*
D03*
Y774500D02*
D03*
X618500D02*
D03*
Y768000D02*
D03*
Y761500D02*
D03*
X597686Y730600D02*
D03*
Y737100D02*
D03*
Y743600D02*
D03*
X618514D02*
D03*
Y737100D02*
D03*
Y730600D02*
D03*
D40*
X895300Y892250D02*
D03*
Y824750D02*
D03*
X896000Y613350D02*
D03*
Y545850D02*
D03*
D41*
X876450Y879500D02*
D03*
Y837500D02*
D03*
X877150Y600600D02*
D03*
Y558600D02*
D03*
D42*
X790000Y794000D02*
D03*
X811000D02*
D03*
X844800Y734100D02*
D03*
X865800D02*
D03*
X844800Y688100D02*
D03*
X865800D02*
D03*
X597400Y425700D02*
D03*
X576400D02*
D03*
X401200Y332500D02*
D03*
X380200D02*
D03*
D43*
X846700Y785900D02*
D03*
X826700Y776400D02*
D03*
Y795400D02*
D03*
D44*
X893800Y715500D02*
D03*
Y687500D02*
D03*
X893700Y761500D02*
D03*
Y733500D02*
D03*
X893600Y779500D02*
D03*
Y807500D02*
D03*
D45*
X739600Y612900D02*
D03*
X739600Y600200D02*
D03*
Y587500D02*
D03*
Y574800D02*
D03*
X778600Y574800D02*
D03*
X778600Y587500D02*
D03*
Y600200D02*
D03*
Y612900D02*
D03*
X739600Y562100D02*
D03*
X778600D02*
D03*
D46*
X573963Y454955D02*
D03*
Y461455D02*
D03*
Y467955D02*
D03*
Y474455D02*
D03*
Y480955D02*
D03*
X620663D02*
D03*
Y474455D02*
D03*
Y467955D02*
D03*
Y461455D02*
D03*
Y454955D02*
D03*
D47*
X584200Y491200D02*
D03*
X590700D02*
D03*
X597200D02*
D03*
X603700D02*
D03*
X610200D02*
D03*
Y444500D02*
D03*
X603700D02*
D03*
X597200D02*
D03*
X590700D02*
D03*
X584200D02*
D03*
D48*
X458663Y489244D02*
D03*
X471363D02*
D03*
X484063D02*
D03*
X496763D02*
D03*
X509464D02*
D03*
X522164D02*
D03*
X534864D02*
D03*
Y442000D02*
D03*
X522164D02*
D03*
X509464D02*
D03*
X496763D02*
D03*
X484063D02*
D03*
X471363D02*
D03*
X458663D02*
D03*
D49*
X756700Y266300D02*
D03*
X785900D02*
D03*
D50*
X525064Y390875D02*
D03*
Y413125D02*
D03*
X504263Y412600D02*
D03*
Y390350D02*
D03*
X483350Y412350D02*
D03*
Y390100D02*
D03*
X461050Y390125D02*
D03*
Y412375D02*
D03*
D51*
X376800Y496600D02*
D03*
X357800D02*
D03*
X367300Y475400D02*
D03*
D52*
X409600Y411400D02*
D03*
X396900D02*
D03*
X384200D02*
D03*
X371500D02*
D03*
Y361900D02*
D03*
X384200D02*
D03*
X396900D02*
D03*
X409600D02*
D03*
D53*
X394800Y292750D02*
D03*
X386800Y311250D02*
D03*
Y292750D02*
D03*
X394800Y311250D02*
D03*
D54*
X400300Y273800D02*
D03*
X381300D02*
D03*
X390800Y251800D02*
D03*
D55*
X164650Y159500D02*
D03*
X213750D02*
D03*
D56*
X499500Y666050D02*
D03*
Y647700D02*
D03*
Y629350D02*
D03*
X481150D02*
D03*
X462800D02*
D03*
Y647700D02*
D03*
Y666050D02*
D03*
X481150D02*
D03*
Y647700D02*
D03*
D57*
X406150Y742700D02*
D03*
X418850D02*
D03*
X431550D02*
D03*
X444250D02*
D03*
X456950D02*
D03*
X469650D02*
D03*
X482350D02*
D03*
X495050D02*
D03*
X507750D02*
D03*
X520450D02*
D03*
X533150D02*
D03*
X545850D02*
D03*
X558550D02*
D03*
X571250D02*
D03*
Y572700D02*
D03*
X558550D02*
D03*
X545850D02*
D03*
X533150D02*
D03*
X520450D02*
D03*
X507750D02*
D03*
X495050D02*
D03*
X482350D02*
D03*
X469650D02*
D03*
X456950D02*
D03*
X444250D02*
D03*
X431550D02*
D03*
X418850D02*
D03*
X406150D02*
D03*
D58*
X581250Y714850D02*
D03*
Y702150D02*
D03*
Y689450D02*
D03*
Y676750D02*
D03*
Y664050D02*
D03*
Y651350D02*
D03*
Y638650D02*
D03*
Y625950D02*
D03*
Y613250D02*
D03*
Y600550D02*
D03*
D94*
X169600Y32100D02*
D03*
D95*
Y107100D02*
D03*
D98*
X689700Y686400D02*
D03*
X715100Y661000D02*
D03*
X689700D02*
D03*
X715100Y686400D02*
D03*
X715100Y711800D02*
D03*
D99*
X689700D02*
D03*
D100*
X423100Y297700D02*
Y311500D01*
X423000Y311600D02*
X423100Y311500D01*
X447200Y476200D02*
X453300Y470100D01*
X529300D01*
X447200Y476200D02*
Y516267D01*
X534800Y475600D02*
Y489180D01*
X529300Y470100D02*
X534800Y475600D01*
X522289Y505575D02*
X522414Y505700D01*
X522164Y489244D02*
X522289Y489369D01*
Y505575D01*
X545850Y759850D02*
X550800Y764800D01*
X574073D01*
X545850Y742700D02*
Y759850D01*
X667000Y562100D02*
X702100D01*
X626300Y521400D02*
X667000Y562100D01*
X561450Y783700D02*
X606887D01*
X545723Y799427D02*
X561450Y783700D01*
X606887D02*
X616087Y774500D01*
X545723Y799427D02*
Y799550D01*
X537600Y807673D02*
X545723Y799550D01*
X537600Y807673D02*
Y846300D01*
X195800Y820600D02*
X203989Y828789D01*
Y854889D02*
X220700Y871600D01*
X203989Y828789D02*
Y854889D01*
X74397Y811547D02*
X74400Y811550D01*
X55747Y811547D02*
X74397D01*
X55744Y811544D02*
X55747Y811547D01*
X74400Y824250D02*
Y835400D01*
X647148Y587201D02*
X660146Y600200D01*
X739600D01*
X431000Y481800D02*
X431700Y482500D01*
X431000Y468200D02*
Y481800D01*
X422400Y421200D02*
X428400Y415200D01*
Y398900D02*
Y415200D01*
X455983Y525050D02*
X495650D01*
X447200Y516267D02*
X455983Y525050D01*
X495650D02*
X523150Y552550D01*
Y560465D01*
X523145Y560470D02*
Y570005D01*
X520450Y572700D02*
X523145Y570005D01*
Y560470D02*
X523150Y560465D01*
X613958Y793200D02*
X629150Y778008D01*
X627100Y743600D02*
X629150Y745650D01*
Y778008D01*
X618514Y743600D02*
X627100D01*
X507400Y791200D02*
X507800Y790800D01*
X507400Y791200D02*
Y804700D01*
X418825Y572675D02*
X418850Y572700D01*
Y726950D02*
Y742700D01*
X558550Y538150D02*
X560522Y536178D01*
X418850Y726950D02*
X430600Y715200D01*
X560522Y532578D02*
X561000Y532100D01*
X560522Y532578D02*
Y536178D01*
X558550Y538150D02*
Y572700D01*
X430600Y715200D02*
X510800D01*
X504232Y390382D02*
X504263Y390350D01*
X504200Y397222D02*
X504232Y397190D01*
Y390382D02*
Y397190D01*
X525064Y390875D02*
X525198Y391010D01*
Y399860D02*
X525333Y399995D01*
X525198Y391010D02*
Y399860D01*
X554700Y521700D02*
X560716Y527716D01*
X516200Y521700D02*
X554700D01*
X560716Y531816D02*
X561000Y532100D01*
X560716Y527716D02*
Y531816D01*
X386800Y281300D02*
Y292750D01*
X394800Y281300D02*
X400300Y275800D01*
X381300D02*
X386800Y281300D01*
X400300Y273800D02*
Y275800D01*
X394800Y281300D02*
Y292750D01*
X381300Y273800D02*
Y275800D01*
X702100Y562100D02*
X739600D01*
X497000Y502500D02*
X516200Y521700D01*
X395700Y804300D02*
Y815500D01*
X375500D02*
X395700D01*
X566500Y793200D02*
X613958D01*
X548359Y811341D02*
X566500Y793200D01*
X548359Y811341D02*
Y813794D01*
X574073Y764800D02*
X595245Y743628D01*
X756300Y265900D02*
X756700Y266300D01*
X595245Y743628D02*
X597658D01*
X597686Y743600D01*
X534800Y489180D02*
X534864Y489244D01*
X497000Y489481D02*
Y502500D01*
X496763Y489244D02*
X497000Y489481D01*
X761500Y506500D02*
Y528100D01*
X739600Y550000D02*
X761500Y528100D01*
X739600Y550000D02*
Y562100D01*
X616087Y774500D02*
X618500D01*
X469900Y790800D02*
X470400Y791300D01*
Y802000D01*
X390800Y240600D02*
Y251800D01*
X220700Y871600D02*
Y873100D01*
X395800Y873100D02*
X395900Y873000D01*
X410100D01*
X410200Y872900D01*
X401200Y332500D02*
X401300Y332600D01*
X380200Y331000D02*
Y332500D01*
X394800Y324600D02*
X401200Y331000D01*
Y332500D01*
X380200Y331000D02*
X386800Y324400D01*
X394800Y311250D02*
Y324600D01*
X386800Y311250D02*
Y324400D01*
D101*
X102600Y397700D02*
D03*
D102*
X162600D02*
D03*
X42600Y733700D02*
D03*
X222600D02*
D03*
D103*
X350100Y772600D02*
D03*
X861200Y252300D02*
D03*
X746200Y776400D02*
D03*
X306400Y290000D02*
D03*
D104*
X461400Y846300D02*
D03*
D105*
X486800D02*
D03*
X512200D02*
D03*
X537600D02*
D03*
X563000D02*
D03*
X588400D02*
D03*
X613800D02*
D03*
X639200D02*
D03*
X664600D02*
D03*
X690000D02*
D03*
X461400Y871700D02*
D03*
X486800D02*
D03*
X512200D02*
D03*
X537600D02*
D03*
X563000D02*
D03*
X588400D02*
D03*
X613800D02*
D03*
X639200D02*
D03*
X664600D02*
D03*
X690000D02*
D03*
D106*
X633300Y381500D02*
D03*
Y356100D02*
D03*
Y330700D02*
D03*
X567100Y397600D02*
D03*
Y372200D02*
D03*
Y346800D02*
D03*
Y321400D02*
D03*
D107*
X175700Y265600D02*
D03*
Y335600D02*
D03*
X95700D02*
D03*
Y265600D02*
D03*
D108*
X244400Y244200D02*
D03*
Y344200D02*
D03*
X25100Y344100D02*
D03*
Y244100D02*
D03*
X212400Y20900D02*
D03*
Y120900D02*
D03*
D109*
X69600Y197800D02*
D03*
X107700D02*
D03*
X31500D02*
D03*
X69600Y70800D02*
D03*
X107700D02*
D03*
X31500D02*
D03*
X465800D02*
D03*
X542000D02*
D03*
X503900D02*
D03*
X542000Y197800D02*
D03*
X275300Y70800D02*
D03*
X427700D02*
D03*
X389600D02*
D03*
X351500D02*
D03*
X313400D02*
D03*
X275300Y197800D02*
D03*
X427700D02*
D03*
X389600D02*
D03*
X351500D02*
D03*
X313400D02*
D03*
X503900D02*
D03*
X465800D02*
D03*
X791000D02*
D03*
X829100D02*
D03*
X638600D02*
D03*
X676700D02*
D03*
X714800D02*
D03*
X752900D02*
D03*
X600500D02*
D03*
X638600Y70800D02*
D03*
X676700D02*
D03*
X714800D02*
D03*
X752900D02*
D03*
X600500D02*
D03*
X867200Y197800D02*
D03*
X829100Y70800D02*
D03*
X867200D02*
D03*
X791000D02*
D03*
D110*
X837700Y496500D02*
D03*
X812300D02*
D03*
X786900D02*
D03*
X761500D02*
D03*
X736100D02*
D03*
X710700D02*
D03*
X837700Y313300D02*
D03*
X812300D02*
D03*
X786900D02*
D03*
X761500D02*
D03*
X736100D02*
D03*
X710700D02*
D03*
D111*
X876500Y867200D02*
D03*
X598800Y508600D02*
D03*
X584259Y465494D02*
D03*
X610624Y422811D02*
D03*
X577300Y500500D02*
D03*
X627184Y442148D02*
D03*
X609913Y475473D02*
D03*
X609300Y521200D02*
D03*
X623900Y491000D02*
D03*
X68700Y531000D02*
D03*
X68300Y494200D02*
D03*
X69100Y603500D02*
D03*
X69900Y567500D02*
D03*
X69500Y636800D02*
D03*
X69600Y666400D02*
D03*
X423100Y297700D02*
D03*
X250000Y864900D02*
D03*
X296900Y834700D02*
D03*
X270900Y830100D02*
D03*
X281600Y819400D02*
D03*
X325700Y863400D02*
D03*
X312300Y850000D02*
D03*
X472200Y399700D02*
D03*
X534800Y426500D02*
D03*
X522414Y505700D02*
D03*
X618200Y718800D02*
D03*
X669800Y653700D02*
D03*
X37900Y786100D02*
D03*
Y798800D02*
D03*
Y811500D02*
D03*
X128200Y751600D02*
D03*
X116800Y635800D02*
D03*
X117200Y566500D02*
D03*
X116400Y602500D02*
D03*
Y667100D02*
D03*
X115600Y493200D02*
D03*
X116000Y530000D02*
D03*
X586400Y765900D02*
D03*
X585800Y737100D02*
D03*
X609100Y768000D02*
D03*
X628100Y734700D02*
D03*
X534100Y316400D02*
D03*
X572600Y529000D02*
D03*
X406300Y761800D02*
D03*
X392525Y502893D02*
D03*
X365100Y523100D02*
D03*
X610000Y755800D02*
D03*
X546300Y466600D02*
D03*
X626300Y521400D02*
D03*
X550733Y782750D02*
D03*
X376000Y379700D02*
D03*
X463700Y504800D02*
D03*
X195800Y820600D02*
D03*
X55744Y811544D02*
D03*
X74400Y835400D02*
D03*
X37900Y824200D02*
D03*
X722600Y702100D02*
D03*
X700226Y717050D02*
D03*
X647148Y587201D02*
D03*
X658300Y662900D02*
D03*
X878700Y576200D02*
D03*
X675657Y516077D02*
D03*
X537083Y364775D02*
D03*
X552479Y286974D02*
D03*
X440000Y290500D02*
D03*
X431000Y468200D02*
D03*
X422400Y421200D02*
D03*
X412100Y530100D02*
D03*
X457600Y515000D02*
D03*
X787600Y550100D02*
D03*
X513700Y554767D02*
D03*
X351600Y94400D02*
D03*
X648000Y672700D02*
D03*
X797394Y610578D02*
D03*
X558000Y756550D02*
D03*
X589100Y808700D02*
D03*
X571645Y755560D02*
D03*
X864400Y600400D02*
D03*
X507400Y804700D02*
D03*
X705600Y825500D02*
D03*
X554700Y686900D02*
D03*
X448749Y601100D02*
D03*
X550064Y539046D02*
D03*
X564750Y659100D02*
D03*
X469600Y724600D02*
D03*
X440053Y593336D02*
D03*
X507812Y725113D02*
D03*
X451600Y629350D02*
D03*
X510800Y715200D02*
D03*
X563500Y600400D02*
D03*
X458800Y610100D02*
D03*
X561000Y532100D02*
D03*
X444700Y723450D02*
D03*
X456700Y723674D02*
D03*
X451600Y647700D02*
D03*
Y666050D02*
D03*
X504950Y245750D02*
D03*
X564200Y274800D02*
D03*
X509436Y262964D02*
D03*
X517974Y239800D02*
D03*
X533310D02*
D03*
X543100Y300900D02*
D03*
X478200Y504240D02*
D03*
X638600Y174500D02*
D03*
X504200Y397222D02*
D03*
X465800Y174500D02*
D03*
X427700D02*
D03*
X525333Y399995D02*
D03*
X379600Y548300D02*
D03*
X394386Y562014D02*
D03*
X420200Y361900D02*
D03*
X828975Y725200D02*
D03*
X853053Y686491D02*
D03*
X591070Y726099D02*
D03*
X395700Y804300D02*
D03*
X519000Y706950D02*
D03*
X548485Y697836D02*
D03*
X702100Y562500D02*
D03*
X714489Y575241D02*
D03*
X741700Y265900D02*
D03*
X796764Y180264D02*
D03*
X356500Y603900D02*
D03*
X548359Y813794D02*
D03*
X470400Y802000D02*
D03*
X390800Y240600D02*
D03*
X48600Y868100D02*
D03*
X542000Y94100D02*
D03*
X542000Y174500D02*
D03*
X638600Y94100D02*
D03*
X791000D02*
D03*
X867200D02*
D03*
X867200Y174500D02*
D03*
X882644Y714992D02*
D03*
X881900Y761800D02*
D03*
X834700Y776500D02*
D03*
X180700Y493400D02*
D03*
X181100Y530200D02*
D03*
X182300Y566700D02*
D03*
X181500Y602700D02*
D03*
X181900Y636000D02*
D03*
X181500Y667300D02*
D03*
X34100Y666700D02*
D03*
X34500Y635400D02*
D03*
X34100Y602100D02*
D03*
X34900Y566100D02*
D03*
X33700Y529600D02*
D03*
X33300Y492800D02*
D03*
X550300Y871700D02*
D03*
X524900D02*
D03*
X499500D02*
D03*
X474100D02*
D03*
X249600Y830100D02*
D03*
X113000Y868300D02*
D03*
X121500D02*
D03*
X104700D02*
D03*
X600500Y94100D02*
D03*
X410200Y872900D02*
D03*
X893100Y790400D02*
D03*
X138400Y91500D02*
D03*
X600500Y174500D02*
D03*
X503900D02*
D03*
X159900Y69900D02*
D03*
X152550Y77350D02*
D03*
X145200Y84700D02*
D03*
X181200Y61800D02*
D03*
X206000D02*
D03*
X193700D02*
D03*
X218200D02*
D03*
X168400D02*
D03*
M02*
