G04*
G04 #@! TF.GenerationSoftware,Altium Limited,Altium Designer,21.0.9 (235)*
G04*
G04 Layer_Color=8388736*
%FSLAX44Y44*%
%MOMM*%
G71*
G04*
G04 #@! TF.SameCoordinates,BD89840E-3130-4C23-AD2D-C5A835882CA8*
G04*
G04*
G04 #@! TF.FilePolarity,Negative*
G04*
G01*
G75*
%ADD11C,0.5000*%
%ADD39R,0.8382X0.3556*%
%ADD40R,0.8000X1.4500*%
%ADD41R,1.2700X0.9000*%
%ADD48R,0.5588X1.9812*%
%ADD59R,1.4032X1.1032*%
%ADD60R,1.4032X1.2532*%
%ADD61C,1.2032*%
%ADD62R,2.6532X2.7532*%
%ADD63R,0.9032X1.1032*%
%ADD64R,0.6032X0.8032*%
%ADD65R,2.3532X2.6532*%
%ADD66R,2.0032X5.9032*%
%ADD67R,1.8532X1.4532*%
%ADD68R,2.7532X2.6532*%
%ADD69R,1.7532X0.8032*%
%ADD70R,1.1032X1.4032*%
%ADD71R,1.1032X1.0032*%
%ADD72R,1.2032X1.2032*%
%ADD73R,2.6032X0.9632*%
%ADD74R,1.1532X0.5532*%
%ADD75R,0.5532X1.1532*%
%ADD76R,2.0032X2.4332*%
%ADD77R,1.0332X0.8282*%
G04:AMPARAMS|DCode=78|XSize=1.4332mm|YSize=0.7932mm|CornerRadius=0.2491mm|HoleSize=0mm|Usage=FLASHONLY|Rotation=270.000|XOffset=0mm|YOffset=0mm|HoleType=Round|Shape=RoundedRectangle|*
%AMROUNDEDRECTD78*
21,1,1.4332,0.2950,0,0,270.0*
21,1,0.9350,0.7932,0,0,270.0*
1,1,0.4982,-0.1475,-0.4675*
1,1,0.4982,-0.1475,0.4675*
1,1,0.4982,0.1475,0.4675*
1,1,0.4982,0.1475,-0.4675*
%
%ADD78ROUNDEDRECTD78*%
G04:AMPARAMS|DCode=79|XSize=2.1732mm|YSize=0.7932mm|CornerRadius=0.1754mm|HoleSize=0mm|Usage=FLASHONLY|Rotation=270.000|XOffset=0mm|YOffset=0mm|HoleType=Round|Shape=RoundedRectangle|*
%AMROUNDEDRECTD79*
21,1,2.1732,0.4425,0,0,270.0*
21,1,1.8225,0.7932,0,0,270.0*
1,1,0.3507,-0.2213,-0.9113*
1,1,0.3507,-0.2213,0.9113*
1,1,0.3507,0.2213,0.9113*
1,1,0.3507,0.2213,-0.9113*
%
%ADD79ROUNDEDRECTD79*%
%ADD80R,0.6032X0.9532*%
%ADD81R,1.2032X1.6032*%
%ADD82R,2.3532X3.0032*%
%ADD83R,1.5332X1.5332*%
%ADD84R,1.1032X2.2032*%
%ADD85R,2.2032X1.1032*%
%ADD86R,3.2032X3.2032*%
%ADD87C,3.2032*%
%ADD88C,6.2032*%
G04:AMPARAMS|DCode=89|XSize=1.7532mm|YSize=1.7532mm|CornerRadius=0.4891mm|HoleSize=0mm|Usage=FLASHONLY|Rotation=0.000|XOffset=0mm|YOffset=0mm|HoleType=Round|Shape=RoundedRectangle|*
%AMROUNDEDRECTD89*
21,1,1.7532,0.7750,0,0,0.0*
21,1,0.7750,1.7532,0,0,0.0*
1,1,0.9782,0.3875,-0.3875*
1,1,0.9782,-0.3875,-0.3875*
1,1,0.9782,-0.3875,0.3875*
1,1,0.9782,0.3875,0.3875*
%
%ADD89ROUNDEDRECTD89*%
%ADD90C,1.7532*%
%ADD91R,2.2032X2.1844*%
%ADD92R,2.2032X2.2032*%
%ADD93R,2.7032X2.7032*%
%ADD94R,1.6510X1.6510*%
%ADD95C,1.6510*%
%ADD96R,2.7032X2.7032*%
%ADD97R,2.1844X4.7752*%
%ADD98C,1.6500*%
%ADD99R,1.6500X1.6500*%
D11*
X0Y900000D02*
X900000D01*
X0Y0D02*
X900000D01*
X0D02*
Y900000D01*
X900000D02*
X900000Y0D01*
D39*
X597672Y761500D02*
D03*
Y768000D02*
D03*
Y774500D02*
D03*
X618500D02*
D03*
Y768000D02*
D03*
Y761500D02*
D03*
X597686Y730600D02*
D03*
Y737100D02*
D03*
Y743600D02*
D03*
X618514D02*
D03*
Y737100D02*
D03*
Y730600D02*
D03*
D40*
X895300Y892250D02*
D03*
Y824750D02*
D03*
X896000Y613350D02*
D03*
Y545850D02*
D03*
D41*
X876450Y879500D02*
D03*
Y837500D02*
D03*
X877150Y600600D02*
D03*
Y558600D02*
D03*
D48*
X458663Y489244D02*
D03*
X471363D02*
D03*
X484063D02*
D03*
X496763D02*
D03*
X509464D02*
D03*
X522164D02*
D03*
X534864D02*
D03*
Y442000D02*
D03*
X522164D02*
D03*
X509464D02*
D03*
X496763D02*
D03*
X484063D02*
D03*
X471363D02*
D03*
X458663D02*
D03*
D59*
X395800Y873100D02*
D03*
Y852100D02*
D03*
X375400Y873200D02*
D03*
Y852200D02*
D03*
X431700Y482500D02*
D03*
Y503500D02*
D03*
X507800Y769800D02*
D03*
Y790800D02*
D03*
X469900Y769800D02*
D03*
Y790800D02*
D03*
X862900Y785000D02*
D03*
Y764000D02*
D03*
X809800Y774900D02*
D03*
Y753900D02*
D03*
X557700Y458800D02*
D03*
Y437800D02*
D03*
X641300Y474300D02*
D03*
Y453300D02*
D03*
X557900Y494800D02*
D03*
Y473800D02*
D03*
X461150Y353550D02*
D03*
Y374550D02*
D03*
X483250Y374450D02*
D03*
Y353450D02*
D03*
X504263Y374775D02*
D03*
Y353775D02*
D03*
X525163Y375275D02*
D03*
Y354275D02*
D03*
X375400Y561900D02*
D03*
Y582900D02*
D03*
X355900Y561900D02*
D03*
Y582900D02*
D03*
X428400Y398900D02*
D03*
Y377900D02*
D03*
X423000Y311600D02*
D03*
Y332600D02*
D03*
X350600Y332500D02*
D03*
Y353500D02*
D03*
X361900Y273500D02*
D03*
Y252500D02*
D03*
X419500Y252600D02*
D03*
Y273600D02*
D03*
X431600Y541100D02*
D03*
Y520100D02*
D03*
X392800D02*
D03*
Y541100D02*
D03*
X412200D02*
D03*
Y520100D02*
D03*
D60*
X395700Y834500D02*
D03*
Y815500D02*
D03*
X375500Y834500D02*
D03*
Y815500D02*
D03*
D61*
X395800Y888700D02*
D03*
X375500D02*
D03*
D62*
X281600Y856450D02*
D03*
Y795950D02*
D03*
D63*
X178400Y799100D02*
D03*
X165400D02*
D03*
X171900Y780100D02*
D03*
D64*
X174900Y818800D02*
D03*
X181900D02*
D03*
D65*
X220700Y873100D02*
D03*
Y830100D02*
D03*
D66*
X183000Y861700D02*
D03*
X137000D02*
D03*
D67*
X128700Y769550D02*
D03*
Y804050D02*
D03*
D68*
X84300Y868300D02*
D03*
X23800D02*
D03*
D69*
X20400Y786150D02*
D03*
Y798850D02*
D03*
Y811550D02*
D03*
Y824250D02*
D03*
X74400D02*
D03*
Y811550D02*
D03*
Y798850D02*
D03*
Y786150D02*
D03*
D70*
X790000Y794000D02*
D03*
X811000D02*
D03*
X844800Y734100D02*
D03*
X865800D02*
D03*
X844800Y688100D02*
D03*
X865800D02*
D03*
X597400Y425700D02*
D03*
X576400D02*
D03*
X401200Y332500D02*
D03*
X380200D02*
D03*
D71*
X846700Y785900D02*
D03*
X826700Y776400D02*
D03*
Y795400D02*
D03*
D72*
X893800Y715500D02*
D03*
Y687500D02*
D03*
X893700Y761500D02*
D03*
Y733500D02*
D03*
X893600Y779500D02*
D03*
Y807500D02*
D03*
D73*
X739600Y612900D02*
D03*
X739600Y600200D02*
D03*
Y587500D02*
D03*
Y574800D02*
D03*
X778600Y574800D02*
D03*
X778600Y587500D02*
D03*
Y600200D02*
D03*
Y612900D02*
D03*
X739600Y562100D02*
D03*
X778600D02*
D03*
D74*
X573963Y454955D02*
D03*
Y461455D02*
D03*
Y467955D02*
D03*
Y474455D02*
D03*
Y480955D02*
D03*
X620663D02*
D03*
Y474455D02*
D03*
Y467955D02*
D03*
Y461455D02*
D03*
Y454955D02*
D03*
D75*
X584200Y491200D02*
D03*
X590700D02*
D03*
X597200D02*
D03*
X603700D02*
D03*
X610200D02*
D03*
Y444500D02*
D03*
X603700D02*
D03*
X597200D02*
D03*
X590700D02*
D03*
X584200D02*
D03*
D76*
X756700Y266300D02*
D03*
X785900D02*
D03*
D77*
X525064Y390875D02*
D03*
Y413125D02*
D03*
X504263Y412600D02*
D03*
Y390350D02*
D03*
X483350Y412350D02*
D03*
Y390100D02*
D03*
X461050Y390125D02*
D03*
Y412375D02*
D03*
D78*
X376800Y496600D02*
D03*
X357800D02*
D03*
X367300Y475400D02*
D03*
D79*
X409600Y411400D02*
D03*
X396900D02*
D03*
X384200D02*
D03*
X371500D02*
D03*
Y361900D02*
D03*
X384200D02*
D03*
X396900D02*
D03*
X409600D02*
D03*
D80*
X394800Y292750D02*
D03*
X386800Y311250D02*
D03*
Y292750D02*
D03*
X394800Y311250D02*
D03*
D81*
X400300Y273800D02*
D03*
X381300D02*
D03*
X390800Y251800D02*
D03*
D82*
X164650Y159500D02*
D03*
X213750D02*
D03*
D83*
X499500Y666050D02*
D03*
Y647700D02*
D03*
Y629350D02*
D03*
X481150D02*
D03*
X462800D02*
D03*
Y647700D02*
D03*
Y666050D02*
D03*
X481150D02*
D03*
Y647700D02*
D03*
D84*
X406150Y742700D02*
D03*
X418850D02*
D03*
X431550D02*
D03*
X444250D02*
D03*
X456950D02*
D03*
X469650D02*
D03*
X482350D02*
D03*
X495050D02*
D03*
X507750D02*
D03*
X520450D02*
D03*
X533150D02*
D03*
X545850D02*
D03*
X558550D02*
D03*
X571250D02*
D03*
Y572700D02*
D03*
X558550D02*
D03*
X545850D02*
D03*
X533150D02*
D03*
X520450D02*
D03*
X507750D02*
D03*
X495050D02*
D03*
X482350D02*
D03*
X469650D02*
D03*
X456950D02*
D03*
X444250D02*
D03*
X431550D02*
D03*
X418850D02*
D03*
X406150D02*
D03*
D85*
X581250Y714850D02*
D03*
Y702150D02*
D03*
Y689450D02*
D03*
Y676750D02*
D03*
Y664050D02*
D03*
Y651350D02*
D03*
Y638650D02*
D03*
Y625950D02*
D03*
Y613250D02*
D03*
Y600550D02*
D03*
D86*
X102600Y397700D02*
D03*
D87*
X162600D02*
D03*
X42600Y733700D02*
D03*
X222600D02*
D03*
D88*
X350100Y772600D02*
D03*
X861200Y252300D02*
D03*
X746200Y776400D02*
D03*
X306400Y290000D02*
D03*
D89*
X461400Y846300D02*
D03*
D90*
X486800D02*
D03*
X512200D02*
D03*
X537600D02*
D03*
X563000D02*
D03*
X588400D02*
D03*
X613800D02*
D03*
X639200D02*
D03*
X664600D02*
D03*
X690000D02*
D03*
X461400Y871700D02*
D03*
X486800D02*
D03*
X512200D02*
D03*
X537600D02*
D03*
X563000D02*
D03*
X588400D02*
D03*
X613800D02*
D03*
X639200D02*
D03*
X664600D02*
D03*
X690000D02*
D03*
D91*
X633300Y381500D02*
D03*
Y356100D02*
D03*
Y330700D02*
D03*
X567100Y397600D02*
D03*
Y372200D02*
D03*
Y346800D02*
D03*
Y321400D02*
D03*
D92*
X175700Y265600D02*
D03*
Y335600D02*
D03*
X95700D02*
D03*
Y265600D02*
D03*
D93*
X244400Y244200D02*
D03*
Y344200D02*
D03*
X25100Y344100D02*
D03*
Y244100D02*
D03*
X212400Y20900D02*
D03*
Y120900D02*
D03*
D94*
X169600Y32100D02*
D03*
D95*
Y107100D02*
D03*
D96*
X69600Y197800D02*
D03*
X107700D02*
D03*
X31500D02*
D03*
X69600Y70800D02*
D03*
X107700D02*
D03*
X31500D02*
D03*
X465800D02*
D03*
X542000D02*
D03*
X503900D02*
D03*
X542000Y197800D02*
D03*
X275300Y70800D02*
D03*
X427700D02*
D03*
X389600D02*
D03*
X351500D02*
D03*
X313400D02*
D03*
X275300Y197800D02*
D03*
X427700D02*
D03*
X389600D02*
D03*
X351500D02*
D03*
X313400D02*
D03*
X503900D02*
D03*
X465800D02*
D03*
X791000D02*
D03*
X829100D02*
D03*
X638600D02*
D03*
X676700D02*
D03*
X714800D02*
D03*
X752900D02*
D03*
X600500D02*
D03*
X638600Y70800D02*
D03*
X676700D02*
D03*
X714800D02*
D03*
X752900D02*
D03*
X600500D02*
D03*
X867200Y197800D02*
D03*
X829100Y70800D02*
D03*
X867200D02*
D03*
X791000D02*
D03*
D97*
X837700Y496500D02*
D03*
X812300D02*
D03*
X786900D02*
D03*
X761500D02*
D03*
X736100D02*
D03*
X710700D02*
D03*
X837700Y313300D02*
D03*
X812300D02*
D03*
X786900D02*
D03*
X761500D02*
D03*
X736100D02*
D03*
X710700D02*
D03*
D98*
X689700Y686400D02*
D03*
X715100Y661000D02*
D03*
X689700D02*
D03*
X715100Y686400D02*
D03*
X715100Y711800D02*
D03*
D99*
X689700D02*
D03*
M02*
