G04*
G04 #@! TF.GenerationSoftware,Altium Limited,Altium Designer,21.2.0 (30)*
G04*
G04 Layer_Color=128*
%FSLAX44Y44*%
%MOMM*%
G71*
G04*
G04 #@! TF.SameCoordinates,3859F847-68DD-49E8-8EE8-84FD9F862EB9*
G04*
G04*
G04 #@! TF.FilePolarity,Positive*
G04*
G01*
G75*
%ADD10C,0.5000*%
%ADD145C,0.0508*%
D10*
X0Y900000D02*
X900000D01*
X0Y0D02*
X900000D01*
X0D02*
Y900000D01*
X900000D02*
X900000Y0D01*
D145*
X96900Y382200D02*
X106900D01*
X101900Y377200D02*
Y387200D01*
X156900Y382200D02*
X166900D01*
X161900Y377200D02*
Y387200D01*
X36900Y718200D02*
X46900D01*
X41900Y713200D02*
Y723200D01*
X216900Y718200D02*
X226900D01*
X221900Y713200D02*
Y723200D01*
X784000Y70800D02*
X798000D01*
X791000Y63800D02*
Y77800D01*
X860200Y70800D02*
X874200D01*
X867200Y63800D02*
Y77800D01*
X822100Y70800D02*
X836100D01*
X829100Y63800D02*
Y77800D01*
X860200Y197800D02*
X874200D01*
X867200Y190800D02*
Y204800D01*
X593500Y70800D02*
X607500D01*
X600500Y63800D02*
Y77800D01*
X745900Y70800D02*
X759900D01*
X752900Y63800D02*
Y77800D01*
X707800Y70800D02*
X721800D01*
X714800Y63800D02*
Y77800D01*
X669700Y70800D02*
X683700D01*
X676700Y63800D02*
Y77800D01*
X631600Y70800D02*
X645600D01*
X638600Y63800D02*
Y77800D01*
X593500Y197800D02*
X607500D01*
X600500Y190800D02*
Y204800D01*
X745900Y197800D02*
X759900D01*
X752900Y190800D02*
Y204800D01*
X707800Y197800D02*
X721800D01*
X714800Y190800D02*
Y204800D01*
X669700Y197800D02*
X683700D01*
X676700Y190800D02*
Y204800D01*
X631600Y197800D02*
X645600D01*
X638600Y190800D02*
Y204800D01*
X822100Y197800D02*
X836100D01*
X829100Y190800D02*
Y204800D01*
X784000Y197800D02*
X798000D01*
X791000Y190800D02*
Y204800D01*
X18100Y239000D02*
X32100D01*
X25100Y232000D02*
Y246000D01*
X18100Y339000D02*
X32100D01*
X25100Y332000D02*
Y346000D01*
X833200Y506500D02*
X842200D01*
X837700Y502000D02*
Y511000D01*
X807800Y506500D02*
X816800D01*
X812300Y502000D02*
Y511000D01*
X782400Y506500D02*
X791400D01*
X786900Y502000D02*
Y511000D01*
X757000Y506500D02*
X766000D01*
X761500Y502000D02*
Y511000D01*
X731600Y506500D02*
X740600D01*
X736100Y502000D02*
Y511000D01*
X706200Y506500D02*
X715200D01*
X710700Y502000D02*
Y511000D01*
X833200Y303300D02*
X842200D01*
X837700Y298800D02*
Y307800D01*
X807800Y303300D02*
X816800D01*
X812300Y298800D02*
Y307800D01*
X782400Y303300D02*
X791400D01*
X786900Y298800D02*
Y307800D01*
X757000Y303300D02*
X766000D01*
X761500Y298800D02*
Y307800D01*
X731600Y303300D02*
X740600D01*
X736100Y298800D02*
Y307800D01*
X706200Y303300D02*
X715200D01*
X710700Y298800D02*
Y307800D01*
X614220Y299600D02*
X624380D01*
X619300Y294520D02*
Y304680D01*
X614220Y274200D02*
X624380D01*
X619300Y269120D02*
Y279280D01*
X24500Y70800D02*
X38500D01*
X31500Y63800D02*
Y77800D01*
X100700Y70800D02*
X114700D01*
X107700Y63800D02*
Y77800D01*
X62600Y70800D02*
X76600D01*
X69600Y63800D02*
Y77800D01*
X24500Y197800D02*
X38500D01*
X31500Y190800D02*
Y204800D01*
X100700Y197800D02*
X114700D01*
X107700Y190800D02*
Y204800D01*
X62600Y197800D02*
X76600D01*
X69600Y190800D02*
Y204800D01*
X290525Y290000D02*
X322275D01*
X306400Y274125D02*
Y305875D01*
X89600Y250900D02*
X101600D01*
X95600Y244900D02*
Y256900D01*
X89600Y320900D02*
X101600D01*
X95600Y314900D02*
Y326900D01*
X169600Y320900D02*
X181600D01*
X175600Y314900D02*
Y326900D01*
X169600Y250900D02*
X181600D01*
X175600Y244900D02*
Y256900D01*
X845325Y252300D02*
X877075D01*
X861200Y236425D02*
Y268175D01*
X684620Y711800D02*
X694780D01*
X689700Y706720D02*
Y716880D01*
X710020Y711800D02*
X720180D01*
X715100Y706720D02*
Y716880D01*
X710020Y686400D02*
X720180D01*
X715100Y681320D02*
Y691480D01*
X684620Y661000D02*
X694780D01*
X689700Y655920D02*
Y666080D01*
X710020Y661000D02*
X720180D01*
X715100Y655920D02*
Y666080D01*
X684620Y686400D02*
X694780D01*
X689700Y681320D02*
Y691480D01*
X730325Y776400D02*
X762075D01*
X746200Y760525D02*
Y792275D01*
X670500Y795300D02*
X678500D01*
X674500Y791300D02*
Y799300D01*
X670500Y769900D02*
X678500D01*
X674500Y765900D02*
Y773900D01*
X594300Y795300D02*
X602300D01*
X598300Y791300D02*
Y799300D01*
X594300Y769900D02*
X602300D01*
X598300Y765900D02*
Y773900D01*
X334225Y772600D02*
X365975D01*
X350100Y756725D02*
Y788475D01*
X458800Y197800D02*
X472800D01*
X465800Y190800D02*
Y204800D01*
X496900Y197800D02*
X510900D01*
X503900Y190800D02*
Y204800D01*
X306400Y197800D02*
X320400D01*
X313400Y190800D02*
Y204800D01*
X344500Y197800D02*
X358500D01*
X351500Y190800D02*
Y204800D01*
X382600Y197800D02*
X396600D01*
X389600Y190800D02*
Y204800D01*
X420700Y197800D02*
X434700D01*
X427700Y190800D02*
Y204800D01*
X268300Y197800D02*
X282300D01*
X275300Y190800D02*
Y204800D01*
X306400Y70800D02*
X320400D01*
X313400Y63800D02*
Y77800D01*
X344500Y70800D02*
X358500D01*
X351500Y63800D02*
Y77800D01*
X382600Y70800D02*
X396600D01*
X389600Y63800D02*
Y77800D01*
X420700Y70800D02*
X434700D01*
X427700Y63800D02*
Y77800D01*
X268300Y70800D02*
X282300D01*
X275300Y63800D02*
Y77800D01*
X535000Y197800D02*
X549000D01*
X542000Y190800D02*
Y204800D01*
X496900Y70800D02*
X510900D01*
X503900Y63800D02*
Y77800D01*
X535000Y70800D02*
X549000D01*
X542000Y63800D02*
Y77800D01*
X458800Y70800D02*
X472800D01*
X465800Y63800D02*
Y77800D01*
X684920Y871700D02*
X695080D01*
X690000Y866620D02*
Y876780D01*
X659520Y871700D02*
X669680D01*
X664600Y866620D02*
Y876780D01*
X634120Y871700D02*
X644280D01*
X639200Y866620D02*
Y876780D01*
X608720Y871700D02*
X618880D01*
X613800Y866620D02*
Y876780D01*
X583320Y871700D02*
X593480D01*
X588400Y866620D02*
Y876780D01*
X557920Y871700D02*
X568080D01*
X563000Y866620D02*
Y876780D01*
X532520Y871700D02*
X542680D01*
X537600Y866620D02*
Y876780D01*
X507120Y871700D02*
X517280D01*
X512200Y866620D02*
Y876780D01*
X481720Y871700D02*
X491880D01*
X486800Y866620D02*
Y876780D01*
X456320Y871700D02*
X466480D01*
X461400Y866620D02*
Y876780D01*
X684920Y846300D02*
X695080D01*
X690000Y841220D02*
Y851380D01*
X659520Y846300D02*
X669680D01*
X664600Y841220D02*
Y851380D01*
X634120Y846300D02*
X644280D01*
X639200Y841220D02*
Y851380D01*
X608720Y846300D02*
X618880D01*
X613800Y841220D02*
Y851380D01*
X583320Y846300D02*
X593480D01*
X588400Y841220D02*
Y851380D01*
X557920Y846300D02*
X568080D01*
X563000Y841220D02*
Y851380D01*
X532520Y846300D02*
X542680D01*
X537600Y841220D02*
Y851380D01*
X507120Y846300D02*
X517280D01*
X512200Y841220D02*
Y851380D01*
X481720Y846300D02*
X491880D01*
X486800Y841220D02*
Y851380D01*
X456320Y846300D02*
X466480D01*
X461400Y841220D02*
Y851380D01*
X163885Y107100D02*
X175315D01*
X169600Y101385D02*
Y112815D01*
X163885Y32100D02*
X175315D01*
X169600Y26385D02*
Y37815D01*
X237400Y236300D02*
X251400D01*
X244400Y229300D02*
Y243300D01*
X237400Y336300D02*
X251400D01*
X244400Y329300D02*
Y343300D01*
X205400Y120900D02*
X219400D01*
X212400Y113900D02*
Y127900D01*
X205400Y20900D02*
X219400D01*
X212400Y13900D02*
Y27900D01*
X179200Y493400D02*
X182200D01*
X180700Y491900D02*
Y494900D01*
X179600Y530200D02*
X182600D01*
X181100Y528700D02*
Y531700D01*
X180800Y566700D02*
X183800D01*
X182300Y565200D02*
Y568200D01*
X180000Y602700D02*
X183000D01*
X181500Y601200D02*
Y604200D01*
X180400Y636000D02*
X183400D01*
X181900Y634500D02*
Y637500D01*
X180000Y667300D02*
X183000D01*
X181500Y665800D02*
Y668800D01*
X103100Y493200D02*
X106100D01*
X104600Y491700D02*
Y494700D01*
X103500Y530000D02*
X106500D01*
X105000Y528500D02*
Y531500D01*
X104700Y566500D02*
X107700D01*
X106200Y565000D02*
Y568000D01*
X103900Y602500D02*
X106900D01*
X105400Y601000D02*
Y604000D01*
X104300Y635800D02*
X107300D01*
X105800Y634300D02*
Y637300D01*
X103900Y667100D02*
X106900D01*
X105400Y665600D02*
Y668600D01*
X32600Y666700D02*
X35600D01*
X34100Y665200D02*
Y668200D01*
X33000Y635400D02*
X36000D01*
X34500Y633900D02*
Y636900D01*
X32600Y602100D02*
X35600D01*
X34100Y600600D02*
Y603600D01*
X33400Y566100D02*
X36400D01*
X34900Y564600D02*
Y567600D01*
X32200Y529600D02*
X35200D01*
X33700Y528100D02*
Y531100D01*
X31800Y492800D02*
X34800D01*
X33300Y491300D02*
Y494300D01*
X47100Y868100D02*
X50100D01*
X48600Y866600D02*
Y869600D01*
X750500Y707900D02*
X753500D01*
X752000Y706400D02*
Y709400D01*
X548800Y871700D02*
X551800D01*
X550300Y870200D02*
Y873200D01*
X523400Y871700D02*
X526400D01*
X524900Y870200D02*
Y873200D01*
X498000Y871700D02*
X501000D01*
X499500Y870200D02*
Y873200D01*
X472600Y871700D02*
X475600D01*
X474100Y870200D02*
Y873200D01*
X248100Y830100D02*
X251100D01*
X249600Y828600D02*
Y831600D01*
X325100Y855000D02*
X328100D01*
X326600Y853500D02*
Y856500D01*
X313250Y843250D02*
X316250D01*
X314750Y841750D02*
Y844750D01*
X301100Y830900D02*
X304100D01*
X302600Y829400D02*
Y832400D01*
X283300Y814800D02*
X286300D01*
X284800Y813300D02*
Y816300D01*
X268000Y830100D02*
X271000D01*
X269500Y828600D02*
Y831600D01*
X319400Y727200D02*
X322400D01*
X320900Y725700D02*
Y728700D01*
X111500Y868300D02*
X114500D01*
X113000Y866800D02*
Y869800D01*
X120000Y868300D02*
X123000D01*
X121500Y866800D02*
Y869800D01*
X103200Y868300D02*
X106200D01*
X104700Y866800D02*
Y869800D01*
X634400Y507900D02*
X637400D01*
X635900Y506400D02*
Y509400D01*
X621400Y522300D02*
X624400D01*
X622900Y520800D02*
Y523800D01*
X596200Y504300D02*
X599200D01*
X597700Y502800D02*
Y505800D01*
X455400Y592200D02*
X458400D01*
X456900Y590700D02*
Y593700D01*
X442700Y592200D02*
X445700D01*
X444200Y590700D02*
Y593700D01*
X404686Y758614D02*
X407686D01*
X406186Y757114D02*
Y760114D01*
X400700Y637500D02*
X403700D01*
X402200Y636000D02*
Y639000D01*
X355000Y603900D02*
X358000D01*
X356500Y602400D02*
Y605400D01*
X663000Y600000D02*
X666000D01*
X664500Y598500D02*
Y601500D01*
X787900Y736900D02*
X790900D01*
X789400Y735400D02*
Y738400D01*
X660500Y657200D02*
X663500D01*
X662000Y655700D02*
Y658700D01*
X660500Y610500D02*
X663500D01*
X662000Y609000D02*
Y612000D01*
X647600Y613300D02*
X650600D01*
X649100Y611800D02*
Y614800D01*
X757000Y587000D02*
X760000D01*
X758500Y585500D02*
Y588500D01*
X637100Y94100D02*
X640100D01*
X638600Y92600D02*
Y95600D01*
X540500Y94100D02*
X543500D01*
X542000Y92600D02*
Y95600D01*
X502400Y94100D02*
X505400D01*
X503900Y92600D02*
Y95600D01*
X540500Y174500D02*
X543500D01*
X542000Y173000D02*
Y176000D01*
X637100Y174500D02*
X640100D01*
X638600Y173000D02*
Y176000D01*
X599000Y94100D02*
X602000D01*
X600500Y92600D02*
Y95600D01*
X789500Y94100D02*
X792500D01*
X791000Y92600D02*
Y95600D01*
X789500Y174500D02*
X792500D01*
X791000Y173000D02*
Y176000D01*
X865700Y174500D02*
X868700D01*
X867200Y173000D02*
Y176000D01*
X865700Y94100D02*
X868700D01*
X867200Y92600D02*
Y95600D01*
X875000Y832100D02*
X878000D01*
X876500Y830600D02*
Y833600D01*
X592464Y286464D02*
X595464D01*
X593964Y284964D02*
Y287964D01*
X800400Y612000D02*
X803400D01*
X801900Y610500D02*
Y613500D01*
X606900Y329200D02*
X609900D01*
X608400Y327700D02*
Y330700D01*
X408700Y872900D02*
X411700D01*
X410200Y871400D02*
Y874400D01*
X591900Y375200D02*
X594900D01*
X593400Y373700D02*
Y376700D01*
X821800Y678600D02*
X824800D01*
X823300Y677100D02*
Y680100D01*
X506312Y725113D02*
X509313D01*
X507812Y723613D02*
Y726612D01*
X599300Y702300D02*
X602300D01*
X600800Y700800D02*
Y703800D01*
X607100Y613200D02*
X610100D01*
X608600Y611700D02*
Y614700D01*
X616100Y602200D02*
X619100D01*
X617600Y600700D02*
Y603700D01*
X604600Y572700D02*
X607600D01*
X606100Y571200D02*
Y574200D01*
X571250Y749700D02*
X574250D01*
X572750Y748200D02*
Y751200D01*
X787500Y551600D02*
X790500D01*
X789000Y550100D02*
Y553100D01*
X834300Y831500D02*
X837300D01*
X835800Y830000D02*
Y833000D01*
X820100Y724800D02*
X823100D01*
X821600Y723300D02*
Y726300D01*
X891600Y790400D02*
X894600D01*
X893100Y788900D02*
Y791900D01*
X880400Y761800D02*
X883400D01*
X881900Y760300D02*
Y763300D01*
X833200Y776500D02*
X836200D01*
X834700Y775000D02*
Y778000D01*
X881144Y714992D02*
X884144D01*
X882644Y713492D02*
Y716492D01*
X562000Y600400D02*
X565000D01*
X563500Y598900D02*
Y601900D01*
X518100Y528425D02*
X521100D01*
X519600Y526925D02*
Y529925D01*
X450100Y629350D02*
X453100D01*
X451600Y627850D02*
Y630850D01*
X877200Y576200D02*
X880200D01*
X878700Y574700D02*
Y577700D01*
X862900Y600400D02*
X865900D01*
X864400Y598900D02*
Y601900D01*
X430200Y527700D02*
X433200D01*
X431700Y526200D02*
Y529200D01*
X741200Y251900D02*
X744200D01*
X742700Y250400D02*
Y253400D01*
X484500Y411623D02*
X487500D01*
X486000Y410123D02*
Y413124D01*
X601532Y418668D02*
X604532D01*
X603032Y417168D02*
Y420168D01*
X543800Y504200D02*
X546800D01*
X545300Y502700D02*
Y505700D01*
X557800Y404600D02*
X560800D01*
X559300Y403100D02*
Y406100D01*
X383900Y350200D02*
X386900D01*
X385400Y348700D02*
Y351700D01*
X378100Y548300D02*
X381100D01*
X379600Y546800D02*
Y549800D01*
X392886Y562014D02*
X395886D01*
X394386Y560514D02*
Y563514D01*
X399400Y504900D02*
X402400D01*
X400900Y503400D02*
Y506400D01*
X410600Y530100D02*
X413600D01*
X412100Y528600D02*
Y531600D01*
X437600Y367500D02*
X440600D01*
X439100Y366000D02*
Y369000D01*
X402000Y437307D02*
X405000D01*
X403500Y435807D02*
Y438807D01*
X401400Y461900D02*
X404400D01*
X402900Y460400D02*
Y463400D01*
X450100Y666050D02*
X453100D01*
X451600Y664550D02*
Y667550D01*
X450100Y647700D02*
X453100D01*
X451600Y646200D02*
Y649200D01*
X468100Y725000D02*
X471100D01*
X469600Y723500D02*
Y726500D01*
X497100Y528450D02*
X500100D01*
X498600Y526950D02*
Y529950D01*
X476300Y528325D02*
X479300D01*
X477800Y526825D02*
Y529825D01*
X455800Y528300D02*
X458800D01*
X457300Y526800D02*
Y529800D01*
X408200Y246200D02*
X411200D01*
X409700Y244700D02*
Y247700D01*
X470100Y311700D02*
X473100D01*
X471600Y310200D02*
Y313200D01*
X502800Y375500D02*
X505800D01*
X504300Y374000D02*
Y377000D01*
X455600Y759800D02*
X458600D01*
X457100Y758300D02*
Y761300D01*
X414300Y471800D02*
X417300D01*
X415800Y470300D02*
Y473300D01*
X538600Y779900D02*
X541600D01*
X540100Y778400D02*
Y781400D01*
X417400Y758600D02*
X420400D01*
X418900Y757100D02*
Y760100D01*
X538600Y765300D02*
X541600D01*
X540100Y763800D02*
Y766800D01*
X442500Y770400D02*
X445500D01*
X444000Y768900D02*
Y771900D01*
X391300Y626300D02*
X394300D01*
X392800Y624800D02*
Y627800D01*
X136900Y91500D02*
X139900D01*
X138400Y90000D02*
Y93000D01*
X414300Y436700D02*
X417300D01*
X415800Y435200D02*
Y438200D01*
X438900Y414300D02*
X441900D01*
X440400Y412800D02*
Y415800D01*
X485300Y446400D02*
X488300D01*
X486800Y444900D02*
Y447900D01*
X518100Y458600D02*
X521100D01*
X519600Y457100D02*
Y460100D01*
X495300Y457500D02*
X498300D01*
X496800Y456000D02*
Y459000D01*
X430150Y468200D02*
X433150D01*
X431650Y466700D02*
Y469700D01*
X572700Y324300D02*
X575700D01*
X574200Y322800D02*
Y325800D01*
X582900Y315300D02*
X585900D01*
X584400Y313800D02*
Y316800D01*
X504900Y468700D02*
X507900D01*
X506400Y467200D02*
Y470200D01*
X599000Y174500D02*
X602000D01*
X600500Y173000D02*
Y176000D01*
X440400Y306000D02*
X443400D01*
X441900Y304500D02*
Y307500D01*
X537782Y351482D02*
X540782D01*
X539282Y349982D02*
Y352982D01*
X468400Y802000D02*
X471400D01*
X469900Y800500D02*
Y803500D01*
X506300Y802000D02*
X509300D01*
X507800Y800500D02*
Y803500D01*
X502400Y174500D02*
X505400D01*
X503900Y173000D02*
Y176000D01*
X464300Y174500D02*
X467300D01*
X465800Y173000D02*
Y176000D01*
X426200Y174500D02*
X429200D01*
X427700Y173000D02*
Y176000D01*
X388100Y174500D02*
X391100D01*
X389600Y173000D02*
Y176000D01*
X195412Y807888D02*
X198412D01*
X196912Y806388D02*
Y809388D01*
X234200Y873100D02*
X237200D01*
X235700Y871600D02*
Y874600D01*
X394200Y804300D02*
X397200D01*
X395700Y802800D02*
Y805800D01*
X559200Y388200D02*
X562200D01*
X560700Y386700D02*
Y389700D01*
X558700Y362600D02*
X561700D01*
X560200Y361100D02*
Y364100D01*
X169100Y799800D02*
X172100D01*
X170600Y798300D02*
Y801300D01*
X158400Y69900D02*
X161400D01*
X159900Y68400D02*
Y71400D01*
X151050Y77350D02*
X154050D01*
X152550Y75850D02*
Y78850D01*
X143700Y84700D02*
X146700D01*
X145200Y83200D02*
Y86200D01*
X179700Y61800D02*
X182700D01*
X181200Y60300D02*
Y63300D01*
X204500Y61800D02*
X207500D01*
X206000Y60300D02*
Y63300D01*
X192200Y61800D02*
X195200D01*
X193700Y60300D02*
Y63300D01*
X216700Y61800D02*
X219700D01*
X218200Y60300D02*
Y63300D01*
X166900Y61800D02*
X169900D01*
X168400Y60300D02*
Y63300D01*
X29200Y817200D02*
X32200D01*
X30700Y815700D02*
Y818700D01*
X39854Y765834D02*
X42854D01*
X41354Y764334D02*
Y767334D01*
X100800Y804100D02*
X103800D01*
X102300Y802600D02*
Y805600D01*
X127200Y822300D02*
X130200D01*
X128700Y820800D02*
Y823800D01*
X181200Y823700D02*
X184200D01*
X182700Y822200D02*
Y825200D01*
M02*
