G04*
G04 #@! TF.GenerationSoftware,Altium Limited,Altium Designer,21.0.9 (235)*
G04*
G04 Layer_Physical_Order=4*
G04 Layer_Color=16711680*
%FSLAX44Y44*%
%MOMM*%
G71*
G04*
G04 #@! TF.SameCoordinates,BD89840E-3130-4C23-AD2D-C5A835882CA8*
G04*
G04*
G04 #@! TF.FilePolarity,Positive*
G04*
G01*
G75*
%ADD11C,0.5000*%
%ADD15C,1.0000*%
%ADD20C,0.3000*%
%ADD22C,0.2540*%
%ADD94R,1.6510X1.6510*%
%ADD95C,1.6510*%
%ADD98C,1.6500*%
%ADD99R,1.6500X1.6500*%
%ADD100C,0.3500*%
%ADD101R,3.0000X3.0000*%
%ADD102C,3.0000*%
%ADD103C,6.0000*%
G04:AMPARAMS|DCode=104|XSize=1.55mm|YSize=1.55mm|CornerRadius=0.3875mm|HoleSize=0mm|Usage=FLASHONLY|Rotation=0.000|XOffset=0mm|YOffset=0mm|HoleType=Round|Shape=RoundedRectangle|*
%AMROUNDEDRECTD104*
21,1,1.5500,0.7750,0,0,0.0*
21,1,0.7750,1.5500,0,0,0.0*
1,1,0.7750,0.3875,-0.3875*
1,1,0.7750,-0.3875,-0.3875*
1,1,0.7750,-0.3875,0.3875*
1,1,0.7750,0.3875,0.3875*
%
%ADD104ROUNDEDRECTD104*%
%ADD105C,1.5500*%
%ADD106R,2.0000X1.9812*%
%ADD107R,2.0000X2.0000*%
%ADD108R,2.5000X2.5000*%
%ADD109R,2.5000X2.5000*%
%ADD110R,1.9812X4.5720*%
%ADD111C,0.6000*%
G36*
X366360Y893324D02*
X350100Y877064D01*
X333858Y893306D01*
X334344Y894479D01*
X365874Y894497D01*
X366360Y893324D01*
D02*
G37*
G36*
X736914Y867222D02*
Y810184D01*
X732765Y808836D01*
X727856Y806335D01*
X723399Y803096D01*
X719503Y799201D01*
X716265Y794744D01*
X713764Y789835D01*
X712062Y784596D01*
X711200Y779155D01*
Y773645D01*
X712062Y768204D01*
X713764Y762965D01*
X716265Y758056D01*
X719503Y753599D01*
X721315Y751788D01*
X720828Y750615D01*
X671923D01*
X669965Y750357D01*
X668141Y749601D01*
X666574Y748399D01*
X653101Y734926D01*
X651899Y733359D01*
X651143Y731535D01*
X650885Y729577D01*
Y719565D01*
X630400D01*
X630400Y719565D01*
X628442Y719307D01*
X627470Y718904D01*
X626200Y719753D01*
Y719853D01*
X625655Y721888D01*
X624602Y723712D01*
X623112Y725202D01*
X621288Y726255D01*
X619253Y726800D01*
X617565D01*
Y753122D01*
X618000Y754747D01*
Y756853D01*
X617455Y758888D01*
X616402Y760712D01*
X614912Y762202D01*
X615468Y763055D01*
X615502Y763088D01*
X616555Y764912D01*
X617100Y766947D01*
Y769053D01*
X616555Y771088D01*
X615502Y772912D01*
X614012Y774402D01*
X612188Y775455D01*
X610153Y776000D01*
X608047D01*
X606012Y775455D01*
X604188Y774402D01*
X602698Y772912D01*
X601645Y771088D01*
X601100Y769053D01*
Y766947D01*
X601645Y764912D01*
X602698Y763088D01*
X604188Y761598D01*
X603632Y760745D01*
X603598Y760712D01*
X602545Y758888D01*
X602000Y756853D01*
Y754747D01*
X602435Y753122D01*
Y729633D01*
X600294Y727492D01*
X598877Y727871D01*
X598525Y729187D01*
X597472Y731011D01*
X595982Y732501D01*
X594158Y733554D01*
X594112Y733567D01*
X593255Y734012D01*
X593800Y736047D01*
Y738153D01*
X593255Y740188D01*
X592202Y742012D01*
X590712Y743502D01*
X588888Y744555D01*
X586853Y745100D01*
X584747D01*
X582712Y744555D01*
X580888Y743502D01*
X579398Y742012D01*
X578345Y740188D01*
X577800Y738153D01*
Y736047D01*
X578345Y734012D01*
X579398Y732188D01*
X580888Y730698D01*
X582712Y729645D01*
X582758Y729633D01*
X583615Y729187D01*
X583280Y727938D01*
X577351Y722008D01*
X516578D01*
X515603Y723278D01*
X515812Y724059D01*
Y726166D01*
X515267Y728200D01*
X514214Y730025D01*
X512725Y731514D01*
X511268Y732355D01*
X495574Y748049D01*
X494007Y749251D01*
X492183Y750007D01*
X490225Y750265D01*
X432200D01*
X430242Y750007D01*
X428418Y749251D01*
X426851Y748049D01*
X417751Y738949D01*
X416549Y737382D01*
X415793Y735558D01*
X415535Y733600D01*
Y717600D01*
X415793Y715642D01*
X416549Y713818D01*
X417751Y712251D01*
X423529Y706473D01*
X423042Y705300D01*
X201600Y705300D01*
Y730248D01*
X202870Y730373D01*
X203369Y727866D01*
X204876Y724227D01*
X207065Y720951D01*
X209851Y718165D01*
X213126Y715976D01*
X216766Y714469D01*
X220630Y713700D01*
X224570D01*
X228434Y714469D01*
X232073Y715976D01*
X235349Y718165D01*
X238135Y720951D01*
X240324Y724227D01*
X241831Y727866D01*
X242600Y731730D01*
Y735670D01*
X241831Y739534D01*
X240324Y743174D01*
X238135Y746449D01*
X235349Y749235D01*
X232073Y751424D01*
X228434Y752931D01*
X224570Y753700D01*
X220630D01*
X216766Y752931D01*
X213126Y751424D01*
X209851Y749235D01*
X207065Y746449D01*
X204876Y743174D01*
X203369Y739534D01*
X202870Y737027D01*
X201600Y737152D01*
Y765000D01*
X167486Y799114D01*
Y853986D01*
X186700Y873200D01*
X201600D01*
Y880014D01*
X318622D01*
X340014Y858622D01*
Y806124D01*
X336665Y805036D01*
X331756Y802535D01*
X327299Y799296D01*
X323404Y795401D01*
X320165Y790944D01*
X317664Y786035D01*
X315962Y780796D01*
X315100Y775355D01*
Y769846D01*
X315962Y764404D01*
X317664Y759165D01*
X320165Y754256D01*
X323404Y749799D01*
X327299Y745903D01*
X331756Y742665D01*
X336665Y740164D01*
X341904Y738462D01*
X347346Y737600D01*
X352855D01*
X358296Y738462D01*
X363535Y740164D01*
X368444Y742665D01*
X372901Y745903D01*
X376796Y749799D01*
X380035Y754256D01*
X382536Y759165D01*
X384238Y764404D01*
X385100Y769846D01*
Y775355D01*
X384238Y780796D01*
X382536Y786035D01*
X380035Y790944D01*
X376796Y795401D01*
X372901Y799296D01*
X368444Y802535D01*
X363535Y805036D01*
X360186Y806124D01*
Y858622D01*
X381778Y880214D01*
X404424D01*
X404930Y878944D01*
X403798Y877812D01*
X402745Y875988D01*
X402200Y873953D01*
Y871847D01*
X402745Y869812D01*
X403798Y867988D01*
X405288Y866498D01*
X407112Y865445D01*
X409147Y864900D01*
X411253D01*
X413288Y865445D01*
X415112Y866498D01*
X416602Y867988D01*
X417655Y869812D01*
X418200Y871847D01*
Y873953D01*
X417655Y875988D01*
X416602Y877812D01*
X415470Y878944D01*
X415976Y880214D01*
X455339D01*
X455562Y878944D01*
X453998Y877380D01*
X452780Y875270D01*
X452494Y874200D01*
X470306D01*
X470020Y875270D01*
X468802Y877380D01*
X467238Y878944D01*
X467461Y880214D01*
X480739D01*
X480962Y878944D01*
X479398Y877380D01*
X478180Y875270D01*
X477894Y874200D01*
X495706D01*
X495420Y875270D01*
X494202Y877380D01*
X492638Y878944D01*
X492861Y880214D01*
X506139D01*
X506362Y878944D01*
X504798Y877380D01*
X503580Y875270D01*
X503294Y874200D01*
X521106D01*
X520820Y875270D01*
X519602Y877380D01*
X518038Y878944D01*
X518261Y880214D01*
X531539D01*
X531762Y878944D01*
X530198Y877380D01*
X528980Y875270D01*
X528694Y874200D01*
X546506D01*
X546220Y875270D01*
X545002Y877380D01*
X543438Y878944D01*
X543661Y880214D01*
X556939D01*
X557162Y878944D01*
X555598Y877380D01*
X554380Y875270D01*
X554094Y874200D01*
X571906D01*
X571620Y875270D01*
X570402Y877380D01*
X568838Y878944D01*
X569061Y880214D01*
X577163D01*
X577860Y878944D01*
X576519Y876621D01*
X575650Y873379D01*
Y870022D01*
X576519Y866779D01*
X578198Y863871D01*
X580571Y861497D01*
X583479Y859819D01*
X584165Y859635D01*
Y858365D01*
X583479Y858181D01*
X580571Y856503D01*
X578198Y854129D01*
X576519Y851221D01*
X576335Y850535D01*
X575065D01*
X574881Y851221D01*
X573203Y854129D01*
X570829Y856503D01*
X567921Y858181D01*
X564679Y859050D01*
X561321D01*
X558079Y858181D01*
X555171Y856503D01*
X552798Y854129D01*
X551119Y851221D01*
X550935Y850535D01*
X549665D01*
X549481Y851221D01*
X547803Y854129D01*
X545429Y856503D01*
X542521Y858181D01*
X539279Y859050D01*
X535921D01*
X532679Y858181D01*
X529771Y856503D01*
X527397Y854129D01*
X525719Y851221D01*
X525535Y850535D01*
X524265D01*
X524081Y851221D01*
X522402Y854129D01*
X520029Y856503D01*
X517121Y858181D01*
X513879Y859050D01*
X510521D01*
X507279Y858181D01*
X504371Y856503D01*
X501997Y854129D01*
X500319Y851221D01*
X500135Y850535D01*
X498865D01*
X498681Y851221D01*
X497002Y854129D01*
X494629Y856503D01*
X491721Y858181D01*
X488479Y859050D01*
X485121D01*
X481879Y858181D01*
X478971Y856503D01*
X476598Y854129D01*
X475286Y851857D01*
X473971Y852119D01*
X473922Y852492D01*
X473027Y854651D01*
X471605Y856505D01*
X469751Y857927D01*
X467592Y858821D01*
X465275Y859127D01*
X457525D01*
X455208Y858821D01*
X453049Y857927D01*
X451195Y856505D01*
X449773Y854651D01*
X448879Y852492D01*
X448573Y850175D01*
Y842425D01*
X448879Y840108D01*
X449773Y837949D01*
X451195Y836095D01*
X453049Y834673D01*
X455208Y833779D01*
X457525Y833473D01*
X465275D01*
X467592Y833779D01*
X469751Y834673D01*
X471605Y836095D01*
X473027Y837949D01*
X473922Y840108D01*
X473971Y840481D01*
X475286Y840743D01*
X476598Y838471D01*
X478971Y836097D01*
X481879Y834419D01*
X485121Y833550D01*
X488479D01*
X491721Y834419D01*
X494629Y836097D01*
X497002Y838471D01*
X498681Y841379D01*
X498865Y842065D01*
X500135D01*
X500319Y841379D01*
X501997Y838471D01*
X504371Y836097D01*
X505392Y835508D01*
Y818700D01*
X505624Y816938D01*
X506304Y815296D01*
X507321Y813970D01*
X507263Y813648D01*
X506776Y812700D01*
X506347D01*
X504312Y812155D01*
X502488Y811102D01*
X500998Y809612D01*
X499945Y807788D01*
X499400Y805753D01*
Y803647D01*
X499945Y801612D01*
X500998Y799788D01*
X502488Y798298D01*
X504312Y797245D01*
X506347Y796700D01*
X508453D01*
X510488Y797245D01*
X512312Y798298D01*
X513802Y799788D01*
X514855Y801612D01*
X515400Y803647D01*
Y805753D01*
X515351Y805936D01*
X516358Y807084D01*
X517106Y806986D01*
X544151D01*
X545271Y806339D01*
X547306Y805794D01*
X549412D01*
X551447Y806339D01*
X553271Y807392D01*
X554165Y808286D01*
X555435Y807760D01*
Y801265D01*
X544329D01*
X542371Y801007D01*
X540547Y800251D01*
X538980Y799049D01*
X536051Y796120D01*
X534849Y794553D01*
X534093Y792729D01*
X533835Y790771D01*
Y773150D01*
X534093Y771192D01*
X534849Y769368D01*
X536051Y767801D01*
X550757Y753094D01*
X551598Y751638D01*
X553088Y750148D01*
X554912Y749095D01*
X556947Y748550D01*
X559053D01*
X561088Y749095D01*
X562912Y750148D01*
X563644Y750880D01*
X565231Y750671D01*
X565244Y750648D01*
X566733Y749159D01*
X568557Y748106D01*
X570592Y747560D01*
X572699D01*
X574733Y748106D01*
X576557Y749159D01*
X578047Y750648D01*
X579100Y752473D01*
X579564Y754205D01*
X579571Y754221D01*
X579574Y754239D01*
X579645Y754507D01*
Y754784D01*
X579829Y756179D01*
Y759361D01*
X581099Y759887D01*
X581488Y759498D01*
X583312Y758445D01*
X585347Y757900D01*
X587453D01*
X589488Y758445D01*
X591312Y759498D01*
X592802Y760988D01*
X593855Y762812D01*
X594400Y764847D01*
Y766953D01*
X593855Y768988D01*
X592802Y770812D01*
X591312Y772302D01*
X589488Y773355D01*
X587453Y773900D01*
X585347D01*
X583312Y773355D01*
X581488Y772302D01*
X581099Y771913D01*
X579829Y772439D01*
Y775731D01*
X612433Y808335D01*
X696000D01*
X697958Y808593D01*
X699782Y809349D01*
X701349Y810551D01*
X709056Y818258D01*
X710512Y819098D01*
X712002Y820588D01*
X713055Y822412D01*
X713600Y824447D01*
Y826553D01*
X713055Y828588D01*
X712002Y830412D01*
X710512Y831902D01*
X708688Y832955D01*
X706653Y833500D01*
X704547D01*
X702512Y832955D01*
X700688Y831902D01*
X699198Y830412D01*
X698357Y828956D01*
X692867Y823465D01*
X609300D01*
X607342Y823207D01*
X605518Y822451D01*
X603951Y821249D01*
X597138Y814436D01*
X595965Y814922D01*
Y835945D01*
X596229Y836097D01*
X598602Y838471D01*
X600281Y841379D01*
X600465Y842065D01*
X601735D01*
X601919Y841379D01*
X603597Y838471D01*
X605971Y836097D01*
X608879Y834419D01*
X612121Y833550D01*
X615479D01*
X618721Y834419D01*
X621629Y836097D01*
X624002Y838471D01*
X625681Y841379D01*
X625865Y842065D01*
X627135D01*
X627319Y841379D01*
X628997Y838471D01*
X631371Y836097D01*
X634279Y834419D01*
X637521Y833550D01*
X640879D01*
X644121Y834419D01*
X647029Y836097D01*
X649402Y838471D01*
X651081Y841379D01*
X651265Y842065D01*
X652535D01*
X652719Y841379D01*
X654398Y838471D01*
X656771Y836097D01*
X659679Y834419D01*
X662921Y833550D01*
X666279D01*
X669521Y834419D01*
X672429Y836097D01*
X674802Y838471D01*
X676481Y841379D01*
X676665Y842065D01*
X677935D01*
X678119Y841379D01*
X679798Y838471D01*
X682171Y836097D01*
X685079Y834419D01*
X688321Y833550D01*
X691679D01*
X694921Y834419D01*
X697829Y836097D01*
X700202Y838471D01*
X701881Y841379D01*
X702750Y844622D01*
Y847979D01*
X701881Y851221D01*
X700202Y854129D01*
X697829Y856503D01*
X694921Y858181D01*
X694235Y858365D01*
Y859635D01*
X694921Y859819D01*
X697829Y861497D01*
X700202Y863871D01*
X701881Y866779D01*
X702750Y870022D01*
Y873379D01*
X701881Y876621D01*
X700540Y878944D01*
X701237Y880214D01*
X723922D01*
X736914Y867222D01*
D02*
G37*
G36*
X551119Y841379D02*
X552798Y838471D01*
X555171Y836097D01*
X555435Y835945D01*
Y819828D01*
X554165Y819302D01*
X553271Y820195D01*
X551447Y821249D01*
X549412Y821794D01*
X547306D01*
X545271Y821249D01*
X544151Y820602D01*
X519926D01*
X519008Y821520D01*
Y835508D01*
X520029Y836097D01*
X522402Y838471D01*
X524081Y841379D01*
X524265Y842065D01*
X525535D01*
X525719Y841379D01*
X527397Y838471D01*
X529771Y836097D01*
X532679Y834419D01*
X535921Y833550D01*
X539279D01*
X542521Y834419D01*
X545429Y836097D01*
X547803Y838471D01*
X549481Y841379D01*
X549665Y842065D01*
X550935D01*
X551119Y841379D01*
D02*
G37*
G36*
X576519D02*
X578198Y838471D01*
X580571Y836097D01*
X580835Y835945D01*
Y810154D01*
X571738Y801057D01*
X570565Y801543D01*
Y835945D01*
X570829Y836097D01*
X573203Y838471D01*
X574881Y841379D01*
X575065Y842065D01*
X576335D01*
X576519Y841379D01*
D02*
G37*
G36*
X500570Y721657D02*
X501411Y720200D01*
X502900Y718711D01*
X503417Y718412D01*
X503345Y718288D01*
X502800Y716253D01*
Y714147D01*
X503345Y712112D01*
X504398Y710288D01*
X505888Y708798D01*
X507712Y707745D01*
X509747Y707200D01*
X509877D01*
X510228Y706466D01*
X509430Y705300D01*
X485773D01*
X474211Y716861D01*
X474377Y718120D01*
X474512Y718198D01*
X476002Y719688D01*
X477055Y721512D01*
X477600Y723547D01*
Y725653D01*
X477055Y727688D01*
X476002Y729512D01*
X474512Y731002D01*
X473056Y731842D01*
X470936Y733962D01*
X471422Y735135D01*
X487092D01*
X500570Y721657D01*
D02*
G37*
G36*
X851235Y725167D02*
Y705300D01*
X739165Y705300D01*
Y715452D01*
X739165Y715453D01*
X740161Y716471D01*
X827541D01*
X829499Y716729D01*
X831323Y717485D01*
X831448Y717580D01*
X832063Y717745D01*
X833887Y718798D01*
X835377Y720288D01*
X836430Y722112D01*
X836975Y724147D01*
Y726253D01*
X837287Y726659D01*
X849743D01*
X851235Y725167D01*
D02*
G37*
G36*
X894800Y893902D02*
Y798896D01*
X894153Y798400D01*
X892047D01*
X890012Y797855D01*
X888188Y796802D01*
X886698Y795312D01*
X885645Y793488D01*
X885100Y791453D01*
Y789347D01*
X885645Y787312D01*
X886698Y785488D01*
X888188Y783998D01*
X890012Y782945D01*
X892047Y782400D01*
X894153D01*
X894800Y781904D01*
Y705300D01*
X866365D01*
Y728300D01*
X866365Y728300D01*
X866107Y730258D01*
X865351Y732082D01*
X864149Y733649D01*
X864149Y733649D01*
X858225Y739573D01*
X856658Y740775D01*
X854834Y741531D01*
X852876Y741789D01*
X757049D01*
X756848Y743059D01*
X759635Y743964D01*
X764544Y746465D01*
X769001Y749704D01*
X772896Y753599D01*
X776135Y758056D01*
X778636Y762965D01*
X780338Y768204D01*
X781200Y773645D01*
Y779155D01*
X780338Y784596D01*
X778636Y789835D01*
X776135Y794744D01*
X772896Y799201D01*
X769001Y803096D01*
X764544Y806335D01*
X759635Y808836D01*
X757086Y809664D01*
Y871400D01*
X756743Y874010D01*
X755735Y876443D01*
X754132Y878532D01*
X739126Y893538D01*
X739612Y894712D01*
X893902Y894800D01*
X894800Y893902D01*
D02*
G37*
G36*
X514088Y700548D02*
X515912Y699495D01*
X517947Y698950D01*
X520053D01*
X521678Y699385D01*
X540104D01*
X540485Y698889D01*
Y696783D01*
X541030Y694748D01*
X542083Y692924D01*
X543573Y691435D01*
X545397Y690381D01*
X547220Y689893D01*
X546700Y687953D01*
Y685847D01*
X547245Y683812D01*
X548298Y681988D01*
X549788Y680498D01*
X551612Y679445D01*
X553647Y678900D01*
X555753D01*
X557378Y679335D01*
X597399D01*
X597885Y678162D01*
X586387Y666665D01*
X567428D01*
X565803Y667100D01*
X563697D01*
X561662Y666555D01*
X559838Y665502D01*
X558348Y664012D01*
X557295Y662188D01*
X556750Y660153D01*
Y658047D01*
X556457Y657665D01*
X533408D01*
X492044Y699029D01*
X492530Y700202D01*
X509430D01*
X509895Y700294D01*
X510369Y700289D01*
X510861Y700487D01*
X511381Y700590D01*
X511775Y700854D01*
X512215Y701030D01*
X512594Y701401D01*
X512979Y701658D01*
X514088Y700548D01*
D02*
G37*
G36*
X455499Y674503D02*
X454719Y673487D01*
X454688Y673505D01*
X452653Y674050D01*
X450547D01*
X448512Y673505D01*
X446688Y672452D01*
X445198Y670962D01*
X444145Y669138D01*
X443600Y667103D01*
Y664997D01*
X444145Y662962D01*
X445198Y661138D01*
X446688Y659648D01*
X448512Y658595D01*
X450547Y658050D01*
X452653D01*
X454688Y658595D01*
X456512Y659648D01*
X458002Y661138D01*
X459055Y662962D01*
X459600Y664997D01*
Y667103D01*
X459055Y669138D01*
X459037Y669169D01*
X460053Y669949D01*
X479635Y650367D01*
Y512533D01*
X479253Y512240D01*
X477147D01*
X475112Y511695D01*
X473288Y510642D01*
X471857Y509211D01*
X471658Y509081D01*
X470416Y509168D01*
X470102Y509712D01*
X468612Y511202D01*
X466788Y512255D01*
X466216Y512408D01*
X465582Y513879D01*
X465600Y513947D01*
Y514606D01*
X465627Y514809D01*
X465600Y515011D01*
Y516053D01*
X465055Y518088D01*
X464002Y519912D01*
X462512Y521402D01*
X460688Y522455D01*
X458653Y523000D01*
X456547D01*
X454512Y522455D01*
X452688Y521402D01*
X451198Y519912D01*
X450358Y518456D01*
X434651Y502749D01*
X433449Y501182D01*
X432693Y499358D01*
X432435Y497400D01*
Y476493D01*
X432053Y476200D01*
X429947D01*
X427912Y475655D01*
X426088Y474602D01*
X424598Y473112D01*
X423545Y471288D01*
X423000Y469253D01*
Y467147D01*
X423545Y465112D01*
X424598Y463288D01*
X426088Y461798D01*
X427912Y460745D01*
X429947Y460200D01*
X432053D01*
X432435Y459907D01*
Y293178D01*
X432000Y291553D01*
Y289447D01*
X432545Y287412D01*
X433598Y285588D01*
X435088Y284098D01*
X436912Y283045D01*
X438947Y282500D01*
X441053D01*
X443088Y283045D01*
X444912Y284098D01*
X446402Y285588D01*
X447455Y287412D01*
X448000Y289447D01*
Y291553D01*
X447565Y293178D01*
Y494267D01*
X455056Y501758D01*
X456451Y501356D01*
X457298Y499888D01*
X458788Y498398D01*
X460612Y497345D01*
X462647Y496800D01*
X464753D01*
X466788Y497345D01*
X468612Y498398D01*
X470043Y499829D01*
X470242Y499959D01*
X471484Y499872D01*
X471798Y499328D01*
X473288Y497838D01*
X475112Y496785D01*
X477147Y496240D01*
X479253D01*
X479635Y495947D01*
Y405183D01*
X478365Y404848D01*
X477112Y406102D01*
X475288Y407155D01*
X473253Y407700D01*
X471147D01*
X469112Y407155D01*
X467288Y406102D01*
X465798Y404612D01*
X464745Y402788D01*
X464200Y400753D01*
Y398647D01*
X464745Y396612D01*
X465798Y394788D01*
X467288Y393298D01*
X469112Y392245D01*
X471147Y391700D01*
X473253D01*
X475288Y392245D01*
X477112Y393298D01*
X478365Y394552D01*
X479635Y394217D01*
Y235479D01*
X479893Y233521D01*
X480649Y231697D01*
X481851Y230130D01*
X495230Y216751D01*
X495230Y216751D01*
X495466Y216570D01*
X495035Y215300D01*
X486400D01*
Y180300D01*
X496728D01*
X497278Y179030D01*
X496445Y177588D01*
X495900Y175553D01*
Y173447D01*
X496445Y171412D01*
X497498Y169588D01*
X498988Y168098D01*
X500812Y167045D01*
X502847Y166500D01*
X504953D01*
X506988Y167045D01*
X508812Y168098D01*
X510302Y169588D01*
X511355Y171412D01*
X511900Y173447D01*
Y175553D01*
X511355Y177588D01*
X510522Y179030D01*
X511072Y180300D01*
X521400D01*
Y214535D01*
X524500D01*
Y180300D01*
X534828D01*
X535378Y179030D01*
X534545Y177588D01*
X534000Y175553D01*
Y173447D01*
X534545Y171412D01*
X535598Y169588D01*
X537088Y168098D01*
X538912Y167045D01*
X540947Y166500D01*
X543053D01*
X545088Y167045D01*
X546912Y168098D01*
X548402Y169588D01*
X549455Y171412D01*
X550000Y173447D01*
Y175553D01*
X549455Y177588D01*
X548622Y179030D01*
X549172Y180300D01*
X559500D01*
Y214535D01*
X583000D01*
Y180300D01*
X593328D01*
X593878Y179030D01*
X593045Y177588D01*
X592500Y175553D01*
Y173447D01*
X593045Y171412D01*
X594098Y169588D01*
X595588Y168098D01*
X597412Y167045D01*
X599447Y166500D01*
X601553D01*
X603588Y167045D01*
X605412Y168098D01*
X606902Y169588D01*
X607955Y171412D01*
X608500Y173447D01*
Y175553D01*
X607955Y177588D01*
X607122Y179030D01*
X607672Y180300D01*
X618000D01*
Y214535D01*
X621100D01*
Y180300D01*
X631428D01*
X631978Y179030D01*
X631145Y177588D01*
X630600Y175553D01*
Y173447D01*
X631145Y171412D01*
X632198Y169588D01*
X633688Y168098D01*
X635512Y167045D01*
X637547Y166500D01*
X639653D01*
X641688Y167045D01*
X643512Y168098D01*
X645002Y169588D01*
X646055Y171412D01*
X646600Y173447D01*
Y175553D01*
X646055Y177588D01*
X645222Y179030D01*
X645772Y180300D01*
X656100D01*
Y206043D01*
X657273Y206529D01*
X659200Y204602D01*
Y180300D01*
X694200D01*
Y206043D01*
X695373Y206529D01*
X697300Y204602D01*
Y180300D01*
X732300D01*
Y215300D01*
X707998D01*
X687149Y236149D01*
X685582Y237351D01*
X683758Y238107D01*
X681800Y238365D01*
X544232D01*
X543746Y239538D01*
X569358Y265150D01*
X569358Y265150D01*
X570560Y266716D01*
X571316Y268541D01*
X571573Y270499D01*
X571573Y270499D01*
Y271571D01*
X571655Y271712D01*
X572200Y273747D01*
Y275853D01*
X571655Y277888D01*
X570602Y279712D01*
X569112Y281202D01*
X567288Y282255D01*
X565253Y282800D01*
X563147D01*
X561314Y282309D01*
X560044Y282914D01*
Y284296D01*
X560479Y285921D01*
Y288027D01*
X559934Y290062D01*
X558881Y291886D01*
X557391Y293376D01*
X555567Y294429D01*
X553532Y294974D01*
X551426D01*
X550856Y295411D01*
Y298936D01*
X551100Y299847D01*
Y301953D01*
X550555Y303988D01*
X549502Y305812D01*
X548012Y307302D01*
X546188Y308355D01*
X544153Y308900D01*
X542047D01*
X541665Y309193D01*
Y313722D01*
X542100Y315347D01*
Y317453D01*
X541555Y319488D01*
X540502Y321312D01*
X539012Y322802D01*
X537188Y323855D01*
X535153Y324400D01*
X533047D01*
X531012Y323855D01*
X529188Y322802D01*
X527698Y321312D01*
X526645Y319488D01*
X526100Y317453D01*
Y315347D01*
X526535Y313722D01*
Y290233D01*
X521257Y284955D01*
X520180Y285675D01*
X520507Y286463D01*
X520765Y288421D01*
X520765Y288421D01*
Y392125D01*
X521865Y392760D01*
X522245Y392540D01*
X524280Y391995D01*
X526386D01*
X528421Y392540D01*
X530245Y393593D01*
X531735Y395083D01*
X532788Y396907D01*
X533333Y398941D01*
Y401048D01*
X532788Y403083D01*
X531735Y404907D01*
X530245Y406396D01*
X528421Y407449D01*
X526386Y407995D01*
X524280D01*
X522245Y407449D01*
X521865Y407230D01*
X520765Y407865D01*
Y459576D01*
X521938Y460062D01*
X533914Y448086D01*
X535324Y447004D01*
X536966Y446324D01*
X538728Y446092D01*
X574843D01*
X575329Y444918D01*
X545751Y415340D01*
X544549Y413774D01*
X543793Y411949D01*
X543535Y409991D01*
Y381925D01*
X533628Y372018D01*
X532171Y371177D01*
X530682Y369687D01*
X529628Y367863D01*
X529083Y365828D01*
Y363722D01*
X529628Y361687D01*
X530682Y359863D01*
X532171Y358373D01*
X533995Y357320D01*
X536030Y356775D01*
X538136D01*
X540171Y357320D01*
X541995Y358373D01*
X543485Y359863D01*
X544326Y361319D01*
X550927Y367920D01*
X552100Y367434D01*
Y357294D01*
Y331894D01*
Y306494D01*
X582100D01*
Y331894D01*
Y357294D01*
Y382694D01*
Y412506D01*
X565972D01*
X565486Y413679D01*
X589392Y437585D01*
X617458D01*
X619416Y437843D01*
X620236Y438183D01*
X620783Y437236D01*
X622272Y435746D01*
X624096Y434693D01*
X626131Y434148D01*
X626143D01*
X648807Y411484D01*
Y397466D01*
X648300Y396406D01*
X618300D01*
Y366594D01*
Y356662D01*
X617030Y355983D01*
X617017Y355992D01*
Y417890D01*
X617026Y417899D01*
X618079Y419723D01*
X618624Y421758D01*
Y423864D01*
X618079Y425899D01*
X617026Y427723D01*
X615536Y429213D01*
X613712Y430266D01*
X611677Y430811D01*
X609571D01*
X607536Y430266D01*
X605712Y429213D01*
X604223Y427723D01*
X603169Y425899D01*
X602624Y423864D01*
Y421758D01*
X603169Y419723D01*
X604223Y417899D01*
X604231Y417890D01*
Y352124D01*
X604718Y349678D01*
X606104Y347604D01*
X616804Y336904D01*
X618300Y335904D01*
Y315794D01*
X648300D01*
Y341194D01*
Y350407D01*
X653712D01*
X656159Y350894D01*
X658232Y352280D01*
X659720Y353768D01*
X661106Y355841D01*
X661593Y358288D01*
Y414132D01*
X661106Y416578D01*
X659720Y418652D01*
X635184Y443189D01*
Y443201D01*
X634639Y445236D01*
X633586Y447060D01*
X632638Y448007D01*
X632612Y449606D01*
X694621Y511614D01*
X695794Y511128D01*
Y468640D01*
X852606D01*
Y524360D01*
X800854D01*
X800328Y525630D01*
X867856Y593158D01*
X869312Y593998D01*
X870802Y595488D01*
X871855Y597312D01*
X872400Y599347D01*
Y601453D01*
X871855Y603488D01*
X870802Y605312D01*
X869312Y606802D01*
X867488Y607855D01*
X865453Y608400D01*
X863347D01*
X861312Y607855D01*
X859488Y606802D01*
X857998Y605312D01*
X857158Y603856D01*
X791267Y537965D01*
X702708D01*
X700750Y537707D01*
X698926Y536951D01*
X697359Y535749D01*
X684395Y522785D01*
X683222Y523271D01*
Y561228D01*
X683222Y561228D01*
X682964Y563186D01*
X682208Y565010D01*
X681006Y566577D01*
X681006Y566577D01*
X655865Y591718D01*
Y596378D01*
X657038Y596864D01*
X694857Y559044D01*
X695698Y557588D01*
X697188Y556098D01*
X699012Y555045D01*
X701047Y554500D01*
X703153D01*
X705188Y555045D01*
X707012Y556098D01*
X708502Y557588D01*
X709555Y559412D01*
X710100Y561447D01*
Y563553D01*
X709555Y565588D01*
X708502Y567412D01*
X707012Y568902D01*
X705556Y569743D01*
X665865Y609433D01*
Y617778D01*
X667038Y618264D01*
X706924Y578378D01*
Y577918D01*
X706489Y576294D01*
Y574188D01*
X707034Y572153D01*
X708087Y570329D01*
X709576Y568839D01*
X711401Y567786D01*
X713435Y567241D01*
X715542D01*
X717577Y567786D01*
X719401Y568839D01*
X720890Y570329D01*
X721943Y572153D01*
X722489Y574188D01*
Y576294D01*
X722053Y577918D01*
Y581511D01*
X721796Y583469D01*
X721040Y585294D01*
X719838Y586861D01*
X719837Y586861D01*
X677365Y629333D01*
Y651022D01*
X677786Y652595D01*
X677941Y652676D01*
X679070Y652912D01*
X679097Y652864D01*
X681564Y650397D01*
X684194Y648879D01*
X684230Y648605D01*
X684986Y646781D01*
X686188Y645214D01*
X697651Y633751D01*
X697651Y633751D01*
X699218Y632549D01*
X701042Y631793D01*
X703000Y631535D01*
X727300D01*
X729258Y631793D01*
X731082Y632549D01*
X732649Y633751D01*
X736949Y638051D01*
X738151Y639618D01*
X738907Y641442D01*
X739165Y643400D01*
Y700202D01*
X851235Y700202D01*
Y695372D01*
X849597Y693734D01*
X848141Y692893D01*
X846651Y691404D01*
X845598Y689579D01*
X845053Y687545D01*
Y685438D01*
X845598Y683404D01*
X846651Y681579D01*
X848141Y680090D01*
X849965Y679037D01*
X852000Y678492D01*
X854106D01*
X856141Y679037D01*
X857965Y680090D01*
X859454Y681579D01*
X860295Y683036D01*
X864149Y686890D01*
X864149Y686890D01*
X865351Y688456D01*
X866107Y690281D01*
X866365Y692239D01*
Y700202D01*
X893930D01*
X895200Y699098D01*
X895200Y264980D01*
X893946Y264782D01*
X893636Y265735D01*
X891135Y270644D01*
X887896Y275101D01*
X884001Y278997D01*
X879544Y282235D01*
X874635Y284736D01*
X869396Y286438D01*
X863955Y287300D01*
X858446D01*
X853876Y286576D01*
X852606Y287570D01*
Y341160D01*
X695794D01*
Y285440D01*
X846349D01*
X846654Y284170D01*
X842856Y282235D01*
X838399Y278997D01*
X834503Y275101D01*
X831265Y270644D01*
X828764Y265735D01*
X827062Y260496D01*
X826200Y255055D01*
Y249545D01*
X827062Y244104D01*
X828764Y238865D01*
X831265Y233956D01*
X834503Y229499D01*
X838399Y225604D01*
X842856Y222365D01*
X847765Y219864D01*
X853004Y218162D01*
X858446Y217300D01*
X863955D01*
X869396Y218162D01*
X874635Y219864D01*
X879544Y222365D01*
X880138Y222797D01*
X881514Y221422D01*
Y215300D01*
X849700D01*
Y180300D01*
X860028D01*
X860578Y179030D01*
X859745Y177588D01*
X859200Y175553D01*
Y173447D01*
X859745Y171412D01*
X860798Y169588D01*
X862288Y168098D01*
X864112Y167045D01*
X866147Y166500D01*
X868253D01*
X870288Y167045D01*
X872112Y168098D01*
X873602Y169588D01*
X874655Y171412D01*
X875200Y173447D01*
Y175553D01*
X874655Y177588D01*
X873822Y179030D01*
X874372Y180300D01*
X881514D01*
Y88300D01*
X874372D01*
X873822Y89570D01*
X874655Y91012D01*
X875200Y93047D01*
Y95153D01*
X874655Y97188D01*
X873602Y99012D01*
X872112Y100502D01*
X870288Y101555D01*
X868253Y102100D01*
X866147D01*
X864112Y101555D01*
X862288Y100502D01*
X860798Y99012D01*
X859745Y97188D01*
X859200Y95153D01*
Y93047D01*
X859745Y91012D01*
X860578Y89570D01*
X860028Y88300D01*
X849700D01*
Y53300D01*
X881514D01*
Y42078D01*
X868622Y29186D01*
X293200D01*
Y213002D01*
X294630Y214432D01*
X295900Y213906D01*
Y180300D01*
X330900D01*
Y215300D01*
X327158D01*
X326671Y216473D01*
X354862Y244664D01*
X356035Y244178D01*
Y228546D01*
X347709Y220220D01*
X346507Y218654D01*
X345751Y216829D01*
X345550Y215300D01*
X334000D01*
Y180300D01*
X369000D01*
Y215300D01*
X365845D01*
X365359Y216473D01*
X368949Y220064D01*
X368949Y220064D01*
X370151Y221631D01*
X370907Y223455D01*
X371165Y225413D01*
Y371984D01*
X372265Y372619D01*
X372912Y372245D01*
X374947Y371700D01*
X377053D01*
X379088Y372245D01*
X380912Y373298D01*
X382402Y374788D01*
X383455Y376612D01*
X384000Y378647D01*
Y380753D01*
X383455Y382788D01*
X382402Y384612D01*
X380912Y386102D01*
X379088Y387155D01*
X377053Y387700D01*
X374947D01*
X372912Y387155D01*
X372265Y386781D01*
X371165Y387416D01*
Y501021D01*
X403330Y533186D01*
X404469Y532529D01*
X404100Y531153D01*
Y529047D01*
X404645Y527012D01*
X405698Y525188D01*
X407188Y523698D01*
X409012Y522645D01*
X411047Y522100D01*
X413153D01*
X415188Y522645D01*
X417012Y523698D01*
X418502Y525188D01*
X419555Y527012D01*
X420100Y529047D01*
Y531153D01*
X419555Y533188D01*
X418502Y535012D01*
X417012Y536502D01*
X415188Y537555D01*
X413153Y538100D01*
X411047D01*
X409671Y537731D01*
X409014Y538870D01*
X454402Y584259D01*
X454403Y584259D01*
X455605Y585826D01*
X456360Y587650D01*
X456618Y589608D01*
Y597064D01*
X456505Y597927D01*
Y599136D01*
X456748Y600047D01*
Y601053D01*
X457747Y602100D01*
X459853D01*
X461888Y602645D01*
X463712Y603698D01*
X465202Y605188D01*
X466255Y607012D01*
X466800Y609047D01*
Y611153D01*
X466255Y613188D01*
X465202Y615012D01*
X463712Y616502D01*
X461888Y617555D01*
X459853Y618100D01*
X457747D01*
X456122Y617665D01*
X413900D01*
X411942Y617407D01*
X410118Y616651D01*
X408551Y615449D01*
X337051Y543949D01*
X335849Y542382D01*
X335093Y540558D01*
X334835Y538600D01*
Y337324D01*
X333662Y336838D01*
X333300Y337200D01*
X308000D01*
X298600Y346600D01*
Y700202D01*
X423042Y700202D01*
X424993Y700590D01*
X426647Y701695D01*
X428178Y701824D01*
X455499Y674503D01*
D02*
G37*
G36*
X681564Y675797D02*
X683927Y674433D01*
Y672967D01*
X681564Y671603D01*
X679097Y669136D01*
X677353Y666114D01*
X676450Y662744D01*
Y660160D01*
X675180Y659634D01*
X674712Y660102D01*
X672888Y661155D01*
X670853Y661700D01*
X668747D01*
X667485Y661362D01*
X667188Y661483D01*
X666300Y662318D01*
Y663953D01*
X665755Y665988D01*
X664702Y667812D01*
X663212Y669302D01*
X661388Y670355D01*
X659353Y670900D01*
X657247D01*
X657104Y670862D01*
X656528Y671271D01*
X656000Y671881D01*
Y673753D01*
X655455Y675788D01*
X655083Y676432D01*
X655718Y677532D01*
X679830D01*
X681564Y675797D01*
D02*
G37*
G36*
X640000Y672406D02*
Y671647D01*
X640545Y669612D01*
X640735Y669283D01*
Y594348D01*
X640499Y594317D01*
X639167Y593765D01*
X629800D01*
X629800Y593765D01*
X627842Y593507D01*
X626018Y592751D01*
X624451Y591549D01*
X624451Y591549D01*
X569251Y536349D01*
X567946Y536068D01*
X567402Y537012D01*
X565912Y538502D01*
X564088Y539555D01*
X562053Y540100D01*
X559947D01*
X559222Y539906D01*
X557901Y540707D01*
X557519Y542134D01*
X556466Y543958D01*
X554976Y545447D01*
X553152Y546501D01*
X551117Y547046D01*
X549011D01*
X546976Y546501D01*
X545152Y545447D01*
X543662Y543958D01*
X542609Y542134D01*
X542064Y540099D01*
Y537993D01*
X542609Y535958D01*
X543508Y534401D01*
Y528223D01*
X542335Y527737D01*
X520830Y549242D01*
Y551117D01*
X521155Y551679D01*
X521700Y553714D01*
Y555821D01*
X521155Y557855D01*
X520102Y559679D01*
X518612Y561169D01*
X516788Y562222D01*
X514753Y562767D01*
X512647D01*
X512265Y563060D01*
Y643024D01*
X513438Y643510D01*
X520697Y636251D01*
X522264Y635049D01*
X524089Y634293D01*
X526046Y634035D01*
X526047Y634035D01*
X596700D01*
X598658Y634293D01*
X600482Y635049D01*
X602049Y636251D01*
X638730Y672932D01*
X640000Y672406D01*
D02*
G37*
G36*
X433345Y584598D02*
X373956Y525209D01*
X372729Y525537D01*
X372555Y526188D01*
X371502Y528012D01*
X370012Y529502D01*
X368188Y530555D01*
X366153Y531100D01*
X364047D01*
X362335Y530641D01*
X361065Y531307D01*
Y532867D01*
X371871Y543672D01*
X373130Y543507D01*
X373198Y543388D01*
X374688Y541898D01*
X376512Y540845D01*
X378547Y540300D01*
X380653D01*
X382688Y540845D01*
X384512Y541898D01*
X386002Y543388D01*
X387055Y545212D01*
X387600Y547247D01*
Y549353D01*
X387055Y551388D01*
X386002Y553212D01*
X384512Y554702D01*
X384393Y554770D01*
X384227Y556029D01*
X386264Y558066D01*
X387523Y557900D01*
X387985Y557102D01*
X389474Y555612D01*
X391298Y554559D01*
X393333Y554014D01*
X395439D01*
X397474Y554559D01*
X399298Y555612D01*
X400788Y557102D01*
X401841Y558926D01*
X402386Y560961D01*
Y563067D01*
X401841Y565102D01*
X400788Y566926D01*
X399298Y568415D01*
X398500Y568877D01*
X398334Y570136D01*
X413969Y585771D01*
X432859D01*
X433345Y584598D01*
D02*
G37*
G36*
X646094Y579201D02*
X646986D01*
X668092Y558094D01*
Y518754D01*
X667657Y517130D01*
Y515023D01*
X668202Y512989D01*
X669256Y511165D01*
X670203Y510217D01*
X670229Y508619D01*
X614325Y452715D01*
X602802D01*
X602316Y453888D01*
X615458Y467029D01*
X616539Y468439D01*
X617220Y470081D01*
X617452Y471843D01*
X617376Y472417D01*
X617913Y474420D01*
Y476526D01*
X617368Y478561D01*
X616315Y480385D01*
X614825Y481875D01*
X613001Y482928D01*
X610966Y483473D01*
X608860D01*
X606825Y482928D01*
X605001Y481875D01*
X603511Y480385D01*
X602458Y478561D01*
X601913Y476526D01*
Y474420D01*
X602268Y473096D01*
X593470Y464299D01*
X592259Y464883D01*
Y466547D01*
X591714Y468582D01*
X590815Y470139D01*
Y476541D01*
X590592Y478238D01*
X589937Y479819D01*
X588895Y481177D01*
X578774Y491298D01*
X579153Y492714D01*
X580388Y493045D01*
X582212Y494098D01*
X583702Y495588D01*
X584755Y497412D01*
X585300Y499447D01*
Y501553D01*
X585677Y502044D01*
X594156D01*
X595712Y501145D01*
X597747Y500600D01*
X599853D01*
X601888Y501145D01*
X603712Y502198D01*
X605202Y503688D01*
X606255Y505512D01*
X606800Y507547D01*
Y509653D01*
X606612Y510356D01*
X607978Y510922D01*
X609336Y511964D01*
X610652Y513280D01*
X612388Y513745D01*
X614118Y514744D01*
X621829D01*
X623212Y513945D01*
X625247Y513400D01*
X627353D01*
X629388Y513945D01*
X631212Y514998D01*
X632702Y516488D01*
X633755Y518312D01*
X634300Y520347D01*
Y522453D01*
X633755Y524488D01*
X632702Y526312D01*
X631212Y527802D01*
X629388Y528855D01*
X627353Y529400D01*
X625247D01*
X623212Y528855D01*
X621482Y527856D01*
X613771D01*
X612388Y528655D01*
X610353Y529200D01*
X608247D01*
X606212Y528655D01*
X604388Y527602D01*
X602898Y526112D01*
X601845Y524288D01*
X601542Y523156D01*
X579715D01*
X579197Y524426D01*
X579842Y525544D01*
X632933Y578635D01*
X641647D01*
X643605Y578893D01*
X644938Y579445D01*
X645184D01*
X646094Y579201D01*
D02*
G37*
G36*
X164404Y893504D02*
X137400Y866500D01*
X137400Y782400D01*
X147314Y772604D01*
Y731400D01*
X147657Y728790D01*
X148665Y726357D01*
X150268Y724268D01*
X171150Y703386D01*
Y697350D01*
X236000Y632500D01*
Y462900D01*
X79686D01*
Y666400D01*
X79686Y666400D01*
X79343Y669010D01*
X78335Y671443D01*
X76732Y673532D01*
X74643Y675135D01*
X72210Y676143D01*
X69600Y676486D01*
X66989Y676143D01*
X64557Y675135D01*
X62468Y673532D01*
X60865Y671443D01*
X60556Y670698D01*
X59286Y670950D01*
Y693722D01*
X107078Y741514D01*
X128200D01*
X130810Y741857D01*
X133243Y742865D01*
X135332Y744468D01*
X136935Y746557D01*
X137943Y748989D01*
X138286Y751600D01*
X137943Y754211D01*
X136935Y756643D01*
X135332Y758732D01*
X133243Y760335D01*
X130810Y761343D01*
X128200Y761686D01*
X102900D01*
X100289Y761343D01*
X97857Y760335D01*
X95768Y758732D01*
X62007Y724971D01*
X60930Y725690D01*
X61831Y727866D01*
X62600Y731730D01*
Y735670D01*
X61831Y739534D01*
X60324Y743174D01*
X58135Y746449D01*
X55349Y749235D01*
X52073Y751424D01*
X48434Y752931D01*
X44570Y753700D01*
X40630D01*
X36766Y752931D01*
X33126Y751424D01*
X29851Y749235D01*
X27065Y746449D01*
X24876Y743174D01*
X23369Y739534D01*
X22600Y735670D01*
Y731730D01*
X23369Y727866D01*
X24876Y724227D01*
X27065Y720951D01*
X29851Y718165D01*
X33126Y715976D01*
X36766Y714469D01*
X40630Y713700D01*
X44570D01*
X48434Y714469D01*
X50610Y715370D01*
X51329Y714293D01*
X42068Y705032D01*
X40465Y702943D01*
X39457Y700511D01*
X39114Y697900D01*
Y462900D01*
X5400D01*
Y894600D01*
X137400Y894677D01*
X163918Y894677D01*
X164404Y893504D01*
D02*
G37*
G36*
X577703Y473825D02*
Y470139D01*
X576804Y468582D01*
X576259Y466547D01*
Y464441D01*
X576804Y462406D01*
X577629Y460978D01*
X577069Y459708D01*
X552518D01*
X551992Y460978D01*
X552702Y461688D01*
X553755Y463512D01*
X554300Y465547D01*
Y467653D01*
X553755Y469688D01*
X552702Y471512D01*
X551212Y473002D01*
X549388Y474055D01*
X547353Y474600D01*
X545247D01*
X543212Y474055D01*
X541388Y473002D01*
X539898Y471512D01*
X538845Y469688D01*
X538300Y467653D01*
Y465547D01*
X538591Y464461D01*
X537452Y463804D01*
X529222Y472034D01*
Y501492D01*
X529869Y502612D01*
X530414Y504647D01*
Y506753D01*
X529869Y508788D01*
X528815Y510612D01*
X527326Y512102D01*
X525502Y513155D01*
X523467Y513700D01*
X521361D01*
X519326Y513155D01*
X517502Y512102D01*
X516012Y510612D01*
X514959Y508788D01*
X514414Y506753D01*
Y504647D01*
X514959Y502612D01*
X515606Y501492D01*
Y475012D01*
X514432Y474526D01*
X512265Y476694D01*
Y537604D01*
X513438Y538090D01*
X577703Y473825D01*
D02*
G37*
G36*
X497135Y647067D02*
Y473560D01*
X497393Y471603D01*
X498149Y469778D01*
X499351Y468211D01*
X505635Y461927D01*
Y405515D01*
X505253Y405222D01*
X503147D01*
X501112Y404677D01*
X499288Y403624D01*
X497798Y402134D01*
X496745Y400310D01*
X496200Y398275D01*
Y396169D01*
X496745Y394134D01*
X497798Y392310D01*
X499288Y390821D01*
X501112Y389767D01*
X503147Y389222D01*
X505253D01*
X505635Y388929D01*
Y291554D01*
X495938Y281857D01*
X494765Y282343D01*
Y647778D01*
X495938Y648264D01*
X497135Y647067D01*
D02*
G37*
G36*
X345281Y256885D02*
X345347Y256545D01*
X309022Y220220D01*
X307820Y218654D01*
X307064Y216829D01*
X306863Y215300D01*
X297294D01*
X296768Y216570D01*
X322298Y242100D01*
X328700D01*
X343906Y257306D01*
X345281Y256885D01*
D02*
G37*
G36*
X895200Y25577D02*
Y5200D01*
X299000D01*
X296360Y7840D01*
X296846Y9014D01*
X872800D01*
X875411Y9357D01*
X877843Y10365D01*
X879932Y11968D01*
X894027Y26063D01*
X895200Y25577D01*
D02*
G37*
%LPC*%
G36*
X571906Y869200D02*
X565500D01*
Y862794D01*
X566570Y863080D01*
X568680Y864298D01*
X570402Y866020D01*
X571620Y868130D01*
X571906Y869200D01*
D02*
G37*
G36*
X560500D02*
X554094D01*
X554380Y868130D01*
X555598Y866020D01*
X557320Y864298D01*
X559430Y863080D01*
X560500Y862794D01*
Y869200D01*
D02*
G37*
G36*
X546506D02*
X540100D01*
Y862794D01*
X541170Y863080D01*
X543280Y864298D01*
X545002Y866020D01*
X546220Y868130D01*
X546506Y869200D01*
D02*
G37*
G36*
X535100D02*
X528694D01*
X528980Y868130D01*
X530198Y866020D01*
X531920Y864298D01*
X534030Y863080D01*
X535100Y862794D01*
Y869200D01*
D02*
G37*
G36*
X521106D02*
X514700D01*
Y862794D01*
X515770Y863080D01*
X517880Y864298D01*
X519602Y866020D01*
X520820Y868130D01*
X521106Y869200D01*
D02*
G37*
G36*
X509700D02*
X503294D01*
X503580Y868130D01*
X504798Y866020D01*
X506520Y864298D01*
X508630Y863080D01*
X509700Y862794D01*
Y869200D01*
D02*
G37*
G36*
X495706D02*
X489300D01*
Y862794D01*
X490370Y863080D01*
X492480Y864298D01*
X494202Y866020D01*
X495420Y868130D01*
X495706Y869200D01*
D02*
G37*
G36*
X484300D02*
X477894D01*
X478180Y868130D01*
X479398Y866020D01*
X481120Y864298D01*
X483230Y863080D01*
X484300Y862794D01*
Y869200D01*
D02*
G37*
G36*
X470306D02*
X463900D01*
Y862794D01*
X464970Y863080D01*
X467080Y864298D01*
X468802Y866020D01*
X470020Y868130D01*
X470306Y869200D01*
D02*
G37*
G36*
X458900D02*
X452494D01*
X452780Y868130D01*
X453998Y866020D01*
X455720Y864298D01*
X457830Y863080D01*
X458900Y862794D01*
Y869200D01*
D02*
G37*
G36*
X251053Y872900D02*
X248947D01*
X246912Y872355D01*
X245088Y871302D01*
X243598Y869812D01*
X242545Y867988D01*
X242000Y865953D01*
Y863847D01*
X242545Y861812D01*
X243598Y859988D01*
X245088Y858498D01*
X246912Y857445D01*
X248947Y856900D01*
X251053D01*
X253088Y857445D01*
X254912Y858498D01*
X256402Y859988D01*
X257455Y861812D01*
X258000Y863847D01*
Y865953D01*
X257455Y867988D01*
X256402Y869812D01*
X254912Y871302D01*
X253088Y872355D01*
X251053Y872900D01*
D02*
G37*
G36*
X196853Y828600D02*
X194747D01*
X192712Y828055D01*
X190888Y827002D01*
X189398Y825512D01*
X188345Y823688D01*
X187800Y821653D01*
Y819547D01*
X188345Y817512D01*
X189398Y815688D01*
X190888Y814198D01*
X192712Y813145D01*
X194747Y812600D01*
X196853D01*
X198888Y813145D01*
X200712Y814198D01*
X202202Y815688D01*
X203255Y817512D01*
X203800Y819547D01*
Y821653D01*
X203255Y823688D01*
X202202Y825512D01*
X200712Y827002D01*
X198888Y828055D01*
X196853Y828600D01*
D02*
G37*
G36*
X396753Y812300D02*
X394647D01*
X392612Y811755D01*
X390788Y810702D01*
X389298Y809212D01*
X388245Y807388D01*
X387700Y805353D01*
Y803247D01*
X388245Y801212D01*
X389298Y799388D01*
X390788Y797898D01*
X392612Y796845D01*
X394647Y796300D01*
X396753D01*
X398788Y796845D01*
X400612Y797898D01*
X402102Y799388D01*
X403155Y801212D01*
X403700Y803247D01*
Y805353D01*
X403155Y807388D01*
X402102Y809212D01*
X400612Y810702D01*
X398788Y811755D01*
X396753Y812300D01*
D02*
G37*
G36*
X471453Y810000D02*
X469347D01*
X467312Y809455D01*
X465488Y808402D01*
X463998Y806912D01*
X462945Y805088D01*
X462400Y803053D01*
Y800947D01*
X462945Y798912D01*
X463998Y797088D01*
X465488Y795598D01*
X467312Y794545D01*
X469347Y794000D01*
X471453D01*
X473488Y794545D01*
X475312Y795598D01*
X476802Y797088D01*
X477855Y798912D01*
X478400Y800947D01*
Y803053D01*
X477855Y805088D01*
X476802Y806912D01*
X475312Y808402D01*
X473488Y809455D01*
X471453Y810000D01*
D02*
G37*
G36*
X407353Y769800D02*
X405247D01*
X403212Y769255D01*
X401388Y768202D01*
X399898Y766712D01*
X398845Y764888D01*
X398300Y762853D01*
Y760747D01*
X398845Y758712D01*
X399898Y756888D01*
X401388Y755398D01*
X403212Y754345D01*
X405247Y753800D01*
X407353D01*
X409388Y754345D01*
X411212Y755398D01*
X412702Y756888D01*
X413755Y758712D01*
X414300Y760747D01*
Y762853D01*
X413755Y764888D01*
X412702Y766712D01*
X411212Y768202D01*
X409388Y769255D01*
X407353Y769800D01*
D02*
G37*
G36*
X629153Y742700D02*
X627047D01*
X625012Y742155D01*
X623188Y741102D01*
X621698Y739612D01*
X620645Y737788D01*
X620100Y735753D01*
Y733647D01*
X620645Y731612D01*
X621698Y729788D01*
X623188Y728298D01*
X625012Y727245D01*
X627047Y726700D01*
X629153D01*
X631188Y727245D01*
X633012Y728298D01*
X634502Y729788D01*
X635555Y731612D01*
X636100Y733647D01*
Y735753D01*
X635555Y737788D01*
X634502Y739612D01*
X633012Y741102D01*
X631188Y742155D01*
X629153Y742700D01*
D02*
G37*
G36*
X877553Y875200D02*
X875447D01*
X873412Y874655D01*
X871588Y873602D01*
X870098Y872112D01*
X869045Y870288D01*
X868500Y868253D01*
Y866147D01*
X869045Y864112D01*
X870098Y862288D01*
X871588Y860798D01*
X873412Y859745D01*
X875447Y859200D01*
X877553D01*
X879588Y859745D01*
X881412Y860798D01*
X882902Y862288D01*
X883955Y864112D01*
X884500Y866147D01*
Y868253D01*
X883955Y870288D01*
X882902Y872112D01*
X881412Y873602D01*
X879588Y874655D01*
X877553Y875200D01*
D02*
G37*
G36*
X835753Y784500D02*
X833647D01*
X831612Y783955D01*
X829788Y782902D01*
X828298Y781412D01*
X827245Y779588D01*
X826700Y777553D01*
Y775447D01*
X827245Y773412D01*
X828298Y771588D01*
X829788Y770098D01*
X831612Y769045D01*
X833647Y768500D01*
X835753D01*
X837788Y769045D01*
X839612Y770098D01*
X841102Y771588D01*
X842155Y773412D01*
X842700Y775447D01*
Y777553D01*
X842155Y779588D01*
X841102Y781412D01*
X839612Y782902D01*
X837788Y783955D01*
X835753Y784500D01*
D02*
G37*
G36*
X882953Y769800D02*
X880847D01*
X878812Y769255D01*
X876988Y768202D01*
X875498Y766712D01*
X874445Y764888D01*
X873900Y762853D01*
Y760747D01*
X874445Y758712D01*
X875498Y756888D01*
X876988Y755398D01*
X878812Y754345D01*
X880847Y753800D01*
X882953D01*
X884988Y754345D01*
X886812Y755398D01*
X888302Y756888D01*
X889355Y758712D01*
X889900Y760747D01*
Y762853D01*
X889355Y764888D01*
X888302Y766712D01*
X886812Y768202D01*
X884988Y769255D01*
X882953Y769800D01*
D02*
G37*
G36*
X883697Y722992D02*
X881590D01*
X879556Y722447D01*
X877732Y721393D01*
X876242Y719904D01*
X875189Y718080D01*
X874644Y716045D01*
Y713939D01*
X875189Y711904D01*
X876242Y710080D01*
X877732Y708590D01*
X879556Y707537D01*
X881590Y706992D01*
X883697D01*
X885732Y707537D01*
X887556Y708590D01*
X889045Y710080D01*
X890098Y711904D01*
X890644Y713939D01*
Y716045D01*
X890098Y718080D01*
X889045Y719904D01*
X887556Y721393D01*
X885732Y722447D01*
X883697Y722992D01*
D02*
G37*
G36*
X452653Y655700D02*
X450547D01*
X448512Y655155D01*
X446688Y654102D01*
X445198Y652612D01*
X444145Y650788D01*
X443600Y648753D01*
Y646647D01*
X444145Y644612D01*
X445198Y642788D01*
X446688Y641298D01*
X448512Y640245D01*
X450547Y639700D01*
X452653D01*
X454688Y640245D01*
X456512Y641298D01*
X458002Y642788D01*
X459055Y644612D01*
X459600Y646647D01*
Y648753D01*
X459055Y650788D01*
X458002Y652612D01*
X456512Y654102D01*
X454688Y655155D01*
X452653Y655700D01*
D02*
G37*
G36*
Y637350D02*
X450547D01*
X448512Y636805D01*
X446688Y635752D01*
X445198Y634262D01*
X444145Y632438D01*
X443600Y630403D01*
Y628297D01*
X444145Y626262D01*
X445198Y624438D01*
X446688Y622948D01*
X448512Y621895D01*
X450547Y621350D01*
X452653D01*
X454688Y621895D01*
X456512Y622948D01*
X458002Y624438D01*
X459055Y626262D01*
X459600Y628297D01*
Y630403D01*
X459055Y632438D01*
X458002Y634262D01*
X456512Y635752D01*
X454688Y636805D01*
X452653Y637350D01*
D02*
G37*
G36*
X798447Y618578D02*
X796341D01*
X794306Y618033D01*
X792482Y616979D01*
X790993Y615490D01*
X789939Y613666D01*
X789394Y611631D01*
Y609525D01*
X789939Y607490D01*
X790993Y605666D01*
X792482Y604176D01*
X794306Y603123D01*
X796341Y602578D01*
X798447D01*
X800482Y603123D01*
X802306Y604176D01*
X803796Y605666D01*
X804849Y607490D01*
X805394Y609525D01*
Y611631D01*
X804849Y613666D01*
X803796Y615490D01*
X802306Y616979D01*
X800482Y618033D01*
X798447Y618578D01*
D02*
G37*
G36*
X357553Y611900D02*
X355447D01*
X353412Y611355D01*
X351588Y610302D01*
X350098Y608812D01*
X349045Y606988D01*
X348500Y604953D01*
Y602847D01*
X349045Y600812D01*
X350098Y598988D01*
X351588Y597498D01*
X353412Y596445D01*
X355447Y595900D01*
X357553D01*
X359588Y596445D01*
X361412Y597498D01*
X362902Y598988D01*
X363955Y600812D01*
X364500Y602847D01*
Y604953D01*
X363955Y606988D01*
X362902Y608812D01*
X361412Y610302D01*
X359588Y611355D01*
X357553Y611900D01*
D02*
G37*
G36*
X879753Y584200D02*
X877647D01*
X875612Y583655D01*
X873788Y582602D01*
X872298Y581112D01*
X871245Y579288D01*
X870700Y577253D01*
Y575147D01*
X871245Y573112D01*
X872298Y571288D01*
X873788Y569798D01*
X875612Y568745D01*
X877647Y568200D01*
X879753D01*
X881788Y568745D01*
X883612Y569798D01*
X885102Y571288D01*
X886155Y573112D01*
X886700Y575147D01*
Y577253D01*
X886155Y579288D01*
X885102Y581112D01*
X883612Y582602D01*
X881788Y583655D01*
X879753Y584200D01*
D02*
G37*
G36*
X788653Y558100D02*
X786547D01*
X784512Y557555D01*
X782688Y556502D01*
X781198Y555012D01*
X780145Y553188D01*
X779600Y551153D01*
Y549047D01*
X780145Y547012D01*
X781198Y545188D01*
X782688Y543698D01*
X784512Y542645D01*
X786547Y542100D01*
X788653D01*
X790688Y542645D01*
X792512Y543698D01*
X794002Y545188D01*
X795055Y547012D01*
X795600Y549047D01*
Y551153D01*
X795055Y553188D01*
X794002Y555012D01*
X792512Y556502D01*
X790688Y557555D01*
X788653Y558100D01*
D02*
G37*
G36*
X393578Y510893D02*
X391472D01*
X389437Y510348D01*
X387613Y509295D01*
X386124Y507805D01*
X385070Y505981D01*
X384525Y503946D01*
Y501840D01*
X385070Y499805D01*
X386124Y497981D01*
X387613Y496491D01*
X389437Y495438D01*
X391472Y494893D01*
X393578D01*
X395613Y495438D01*
X397437Y496491D01*
X398927Y497981D01*
X399980Y499805D01*
X400525Y501840D01*
Y503946D01*
X399980Y505981D01*
X398927Y507805D01*
X397437Y509295D01*
X395613Y510348D01*
X393578Y510893D01*
D02*
G37*
G36*
X535853Y434500D02*
X533747D01*
X531712Y433955D01*
X529888Y432902D01*
X528398Y431412D01*
X527345Y429588D01*
X526800Y427553D01*
Y425447D01*
X527345Y423412D01*
X528398Y421588D01*
X529888Y420098D01*
X531712Y419045D01*
X533747Y418500D01*
X535853D01*
X537888Y419045D01*
X539712Y420098D01*
X541202Y421588D01*
X542255Y423412D01*
X542800Y425447D01*
Y427553D01*
X542255Y429588D01*
X541202Y431412D01*
X539712Y432902D01*
X537888Y433955D01*
X535853Y434500D01*
D02*
G37*
G36*
X423453Y429200D02*
X421347D01*
X419312Y428655D01*
X417488Y427602D01*
X415998Y426112D01*
X414945Y424288D01*
X414400Y422253D01*
Y420147D01*
X414945Y418112D01*
X415998Y416288D01*
X417488Y414798D01*
X419312Y413745D01*
X421347Y413200D01*
X423453D01*
X425488Y413745D01*
X427312Y414798D01*
X428802Y416288D01*
X429855Y418112D01*
X430400Y420147D01*
Y422253D01*
X429855Y424288D01*
X428802Y426112D01*
X427312Y427602D01*
X425488Y428655D01*
X423453Y429200D01*
D02*
G37*
G36*
X421253Y369900D02*
X419147D01*
X417112Y369355D01*
X415288Y368302D01*
X413798Y366812D01*
X412745Y364988D01*
X412200Y362953D01*
Y360847D01*
X412745Y358812D01*
X413798Y356988D01*
X415288Y355498D01*
X417112Y354445D01*
X419147Y353900D01*
X421253D01*
X423288Y354445D01*
X425112Y355498D01*
X426602Y356988D01*
X427655Y358812D01*
X428200Y360847D01*
Y362953D01*
X427655Y364988D01*
X426602Y366812D01*
X425112Y368302D01*
X423288Y369355D01*
X421253Y369900D01*
D02*
G37*
G36*
X424153Y305700D02*
X422047D01*
X420012Y305155D01*
X418188Y304102D01*
X416698Y302612D01*
X415645Y300788D01*
X415100Y298753D01*
Y296647D01*
X415645Y294612D01*
X416698Y292788D01*
X418188Y291298D01*
X420012Y290245D01*
X422047Y289700D01*
X424153D01*
X426188Y290245D01*
X428012Y291298D01*
X429502Y292788D01*
X430555Y294612D01*
X431100Y296647D01*
Y298753D01*
X430555Y300788D01*
X429502Y302612D01*
X428012Y304102D01*
X426188Y305155D01*
X424153Y305700D01*
D02*
G37*
G36*
X742753Y273900D02*
X740647D01*
X738612Y273355D01*
X736788Y272302D01*
X735298Y270812D01*
X734245Y268988D01*
X733700Y266953D01*
Y264847D01*
X734245Y262812D01*
X735298Y260988D01*
X736788Y259498D01*
X738612Y258445D01*
X740647Y257900D01*
X742753D01*
X744788Y258445D01*
X746612Y259498D01*
X748102Y260988D01*
X749155Y262812D01*
X749700Y264847D01*
Y266953D01*
X749155Y268988D01*
X748102Y270812D01*
X746612Y272302D01*
X744788Y273355D01*
X742753Y273900D01*
D02*
G37*
G36*
X391853Y248600D02*
X389747D01*
X387712Y248055D01*
X385888Y247002D01*
X384398Y245512D01*
X383345Y243688D01*
X382800Y241653D01*
Y239547D01*
X383345Y237512D01*
X384398Y235688D01*
X385888Y234198D01*
X387712Y233145D01*
X389747Y232600D01*
X391853D01*
X393888Y233145D01*
X395712Y234198D01*
X397202Y235688D01*
X398255Y237512D01*
X398800Y239547D01*
Y241653D01*
X398255Y243688D01*
X397202Y245512D01*
X395712Y247002D01*
X393888Y248055D01*
X391853Y248600D01*
D02*
G37*
G36*
X846600Y215300D02*
X811600D01*
Y180300D01*
X846600D01*
Y215300D01*
D02*
G37*
G36*
X770400D02*
X735400D01*
Y180300D01*
X770400D01*
Y215300D01*
D02*
G37*
G36*
X407100D02*
X372100D01*
Y180300D01*
X407100D01*
Y215300D01*
D02*
G37*
G36*
X808500D02*
X773500D01*
Y180300D01*
X788764D01*
Y179211D01*
X789309Y177176D01*
X790362Y175352D01*
X791852Y173862D01*
X793676Y172809D01*
X795711Y172264D01*
X797817D01*
X799852Y172809D01*
X801676Y173862D01*
X803166Y175352D01*
X804219Y177176D01*
X804764Y179211D01*
Y180300D01*
X808500D01*
Y215300D01*
D02*
G37*
G36*
X483300D02*
X448300D01*
Y180300D01*
X458628D01*
X459178Y179030D01*
X458345Y177588D01*
X457800Y175553D01*
Y173447D01*
X458345Y171412D01*
X459398Y169588D01*
X460888Y168098D01*
X462712Y167045D01*
X464747Y166500D01*
X466853D01*
X468888Y167045D01*
X470712Y168098D01*
X472202Y169588D01*
X473255Y171412D01*
X473800Y173447D01*
Y175553D01*
X473255Y177588D01*
X472422Y179030D01*
X472972Y180300D01*
X483300D01*
Y215300D01*
D02*
G37*
G36*
X445200D02*
X410200D01*
Y180300D01*
X420528D01*
X421078Y179030D01*
X420245Y177588D01*
X419700Y175553D01*
Y173447D01*
X420245Y171412D01*
X421298Y169588D01*
X422788Y168098D01*
X424612Y167045D01*
X426647Y166500D01*
X428753D01*
X430788Y167045D01*
X432612Y168098D01*
X434102Y169588D01*
X435155Y171412D01*
X435700Y173447D01*
Y175553D01*
X435155Y177588D01*
X434322Y179030D01*
X434872Y180300D01*
X445200D01*
Y215300D01*
D02*
G37*
G36*
X846600Y88300D02*
X811600D01*
Y53300D01*
X846600D01*
Y88300D01*
D02*
G37*
G36*
X792053Y102100D02*
X789947D01*
X787912Y101555D01*
X786088Y100502D01*
X784598Y99012D01*
X783545Y97188D01*
X783000Y95153D01*
Y93047D01*
X783545Y91012D01*
X784378Y89570D01*
X783828Y88300D01*
X773500D01*
Y53300D01*
X808500D01*
Y88300D01*
X798172D01*
X797622Y89570D01*
X798455Y91012D01*
X799000Y93047D01*
Y95153D01*
X798455Y97188D01*
X797402Y99012D01*
X795912Y100502D01*
X794088Y101555D01*
X792053Y102100D01*
D02*
G37*
G36*
X770400Y88300D02*
X735400D01*
Y53300D01*
X770400D01*
Y88300D01*
D02*
G37*
G36*
X732300D02*
X697300D01*
Y53300D01*
X732300D01*
Y88300D01*
D02*
G37*
G36*
X694200D02*
X659200D01*
Y53300D01*
X694200D01*
Y88300D01*
D02*
G37*
G36*
X639653Y102100D02*
X637547D01*
X635512Y101555D01*
X633688Y100502D01*
X632198Y99012D01*
X631145Y97188D01*
X630600Y95153D01*
Y93047D01*
X631145Y91012D01*
X631978Y89570D01*
X631428Y88300D01*
X621100D01*
Y53300D01*
X656100D01*
Y88300D01*
X645772D01*
X645222Y89570D01*
X646055Y91012D01*
X646600Y93047D01*
Y95153D01*
X646055Y97188D01*
X645002Y99012D01*
X643512Y100502D01*
X641688Y101555D01*
X639653Y102100D01*
D02*
G37*
G36*
X601553D02*
X599447D01*
X597412Y101555D01*
X595588Y100502D01*
X594098Y99012D01*
X593045Y97188D01*
X592500Y95153D01*
Y93047D01*
X593045Y91012D01*
X593878Y89570D01*
X593328Y88300D01*
X583000D01*
Y53300D01*
X618000D01*
Y88300D01*
X607672D01*
X607122Y89570D01*
X607955Y91012D01*
X608500Y93047D01*
Y95153D01*
X607955Y97188D01*
X606902Y99012D01*
X605412Y100502D01*
X603588Y101555D01*
X601553Y102100D01*
D02*
G37*
G36*
X543053D02*
X540947D01*
X538912Y101555D01*
X537088Y100502D01*
X535598Y99012D01*
X534545Y97188D01*
X534000Y95153D01*
Y93047D01*
X534545Y91012D01*
X535378Y89570D01*
X534828Y88300D01*
X524500D01*
Y53300D01*
X559500D01*
Y88300D01*
X549172D01*
X548622Y89570D01*
X549455Y91012D01*
X550000Y93047D01*
Y95153D01*
X549455Y97188D01*
X548401Y99012D01*
X546912Y100502D01*
X545088Y101555D01*
X543053Y102100D01*
D02*
G37*
G36*
X521400Y88300D02*
X486400D01*
Y53300D01*
X521400D01*
Y88300D01*
D02*
G37*
G36*
X483300D02*
X448300D01*
Y53300D01*
X483300D01*
Y88300D01*
D02*
G37*
G36*
X445200D02*
X410200D01*
Y53300D01*
X445200D01*
Y88300D01*
D02*
G37*
G36*
X407100D02*
X372100D01*
Y53300D01*
X407100D01*
Y88300D01*
D02*
G37*
G36*
X352653Y102400D02*
X350547D01*
X348512Y101855D01*
X346688Y100802D01*
X345198Y99312D01*
X344145Y97488D01*
X343600Y95453D01*
Y93347D01*
X344145Y91312D01*
X345151Y89570D01*
X344977Y88903D01*
X344727Y88300D01*
X334000D01*
Y53300D01*
X369000D01*
Y88300D01*
X358473D01*
X358223Y88903D01*
X358049Y89570D01*
X359055Y91312D01*
X359600Y93347D01*
Y95453D01*
X359055Y97488D01*
X358002Y99312D01*
X356512Y100802D01*
X354688Y101855D01*
X352653Y102400D01*
D02*
G37*
G36*
X330900Y88300D02*
X295900D01*
Y53300D01*
X330900D01*
Y88300D01*
D02*
G37*
G36*
X564553Y608400D02*
X562447D01*
X560412Y607855D01*
X558588Y606802D01*
X557098Y605312D01*
X556045Y603488D01*
X555500Y601453D01*
Y599347D01*
X556045Y597312D01*
X557098Y595488D01*
X558588Y593998D01*
X560412Y592945D01*
X562447Y592400D01*
X564553D01*
X566588Y592945D01*
X568412Y593998D01*
X569902Y595488D01*
X570955Y597312D01*
X571500Y599347D01*
Y601453D01*
X570955Y603488D01*
X569902Y605312D01*
X568412Y606802D01*
X566588Y607855D01*
X564553Y608400D01*
D02*
G37*
G36*
X624953Y499000D02*
X622847D01*
X620812Y498455D01*
X618988Y497402D01*
X617498Y495912D01*
X616445Y494088D01*
X615900Y492053D01*
Y489947D01*
X616445Y487912D01*
X617498Y486088D01*
X618988Y484598D01*
X620812Y483545D01*
X622847Y483000D01*
X624953D01*
X626988Y483545D01*
X628812Y484598D01*
X630302Y486088D01*
X631355Y487912D01*
X631900Y489947D01*
Y492053D01*
X631355Y494088D01*
X630302Y495912D01*
X628812Y497402D01*
X626988Y498455D01*
X624953Y499000D01*
D02*
G37*
G36*
X49653Y876100D02*
X47547D01*
X45512Y875555D01*
X43688Y874502D01*
X42198Y873012D01*
X41145Y871188D01*
X40600Y869153D01*
Y867047D01*
X41145Y865012D01*
X42198Y863188D01*
X43688Y861698D01*
X45512Y860645D01*
X47547Y860100D01*
X49653D01*
X51688Y860645D01*
X53512Y861698D01*
X55002Y863188D01*
X56055Y865012D01*
X56600Y867047D01*
Y869153D01*
X56055Y871188D01*
X55002Y873012D01*
X53512Y874502D01*
X51688Y875555D01*
X49653Y876100D01*
D02*
G37*
G36*
X75453Y843400D02*
X73347D01*
X71312Y842855D01*
X69488Y841802D01*
X67998Y840312D01*
X66945Y838488D01*
X66400Y836453D01*
Y834347D01*
X66945Y832312D01*
X67998Y830488D01*
X69488Y828998D01*
X71312Y827945D01*
X73347Y827400D01*
X75453D01*
X77488Y827945D01*
X79312Y828998D01*
X80802Y830488D01*
X81855Y832312D01*
X82400Y834347D01*
Y836453D01*
X81855Y838488D01*
X80802Y840312D01*
X79312Y841802D01*
X77488Y842855D01*
X75453Y843400D01*
D02*
G37*
G36*
X38953Y832200D02*
X36847D01*
X34812Y831655D01*
X32988Y830602D01*
X31498Y829112D01*
X30445Y827288D01*
X29900Y825253D01*
Y823147D01*
X30445Y821112D01*
X31498Y819288D01*
X32936Y817850D01*
X31498Y816412D01*
X30445Y814588D01*
X29900Y812553D01*
Y810447D01*
X30445Y808412D01*
X31498Y806588D01*
X32936Y805150D01*
X31498Y803712D01*
X30445Y801888D01*
X29900Y799853D01*
Y797747D01*
X30445Y795712D01*
X31498Y793888D01*
X32936Y792450D01*
X31498Y791012D01*
X30445Y789188D01*
X29900Y787153D01*
Y785047D01*
X30445Y783012D01*
X31498Y781188D01*
X32988Y779698D01*
X34812Y778645D01*
X36847Y778100D01*
X38953D01*
X40988Y778645D01*
X42812Y779698D01*
X44302Y781188D01*
X45355Y783012D01*
X45900Y785047D01*
Y787153D01*
X45355Y789188D01*
X44302Y791012D01*
X42864Y792450D01*
X44302Y793888D01*
X45355Y795712D01*
X45900Y797747D01*
Y799853D01*
X45355Y801888D01*
X44302Y803712D01*
X42864Y805150D01*
X44302Y806588D01*
X45355Y808412D01*
X45900Y810447D01*
Y812553D01*
X45355Y814588D01*
X44302Y816412D01*
X42864Y817850D01*
X44302Y819288D01*
X45355Y821112D01*
X45900Y823147D01*
Y825253D01*
X45355Y827288D01*
X44302Y829112D01*
X42812Y830602D01*
X40988Y831655D01*
X38953Y832200D01*
D02*
G37*
%LPD*%
D11*
X598452Y698450D02*
X604300Y704297D01*
Y704900D02*
X618200Y718800D01*
X604300Y704297D02*
Y704900D01*
X562673Y698450D02*
X598452D01*
X669800Y626200D02*
Y653700D01*
X610000Y726500D02*
Y755800D01*
X590450Y706950D02*
X610000Y726500D01*
X534100Y287100D02*
Y316400D01*
X572600Y529000D02*
X629800Y586200D01*
X641647D01*
X423100Y733600D02*
X432200Y742700D01*
X490225D02*
X507812Y725113D01*
X432200Y742700D02*
X490225D01*
X423100Y717600D02*
Y733600D01*
Y717600D02*
X487200Y653500D01*
Y235479D02*
Y653500D01*
X550792Y782691D02*
X564071D01*
X550733Y782750D02*
X550792Y782691D01*
X563000Y796629D02*
Y846300D01*
X541400Y790771D02*
X544329Y793700D01*
X560071D01*
X563000Y796629D01*
X588400Y807021D02*
Y846300D01*
X729350Y717702D02*
X729359Y717693D01*
X731600Y715452D01*
Y643400D02*
Y715452D01*
X727300Y639100D02*
X731600Y643400D01*
X641647Y586200D02*
X642457Y587010D01*
X648300Y588585D02*
X675657Y561228D01*
X642457Y587010D02*
X646956D01*
X647148Y587201D01*
X648000Y672700D02*
X648191Y672509D01*
Y671802D02*
X648300Y671693D01*
Y588585D02*
Y671693D01*
X648191Y671802D02*
Y672509D01*
X658300Y606300D02*
Y662900D01*
Y606300D02*
X702100Y562500D01*
X675657Y516077D02*
Y561228D01*
X551100Y409991D02*
X586259Y445150D01*
X617458D01*
X689700Y661000D02*
X691537Y659163D01*
Y650563D02*
Y659163D01*
Y650563D02*
X703000Y639100D01*
X727300D01*
X794400Y530400D02*
X864400Y600400D01*
X617458Y445150D02*
X702708Y530400D01*
X551100Y378792D02*
Y409991D01*
X702708Y530400D02*
X794400D01*
X537083Y364775D02*
X551100Y378792D01*
X552479Y274305D02*
Y286974D01*
X517974Y239800D02*
X552479Y274305D01*
X457409Y514809D02*
X458062D01*
X440000Y290500D02*
Y497400D01*
X457409Y514809D01*
X363600Y504155D02*
X449053Y589608D01*
X353500Y254000D02*
Y536000D01*
X363600Y225413D02*
Y504155D01*
X314371Y214871D02*
X353500Y254000D01*
X353058Y214871D02*
X363600Y225413D01*
X353500Y536000D02*
X410836Y593336D01*
X342400Y272900D02*
Y538600D01*
X284103Y214603D02*
X342400Y272900D01*
Y538600D02*
X413900Y610100D01*
X435700Y719200D02*
X504700Y650200D01*
X495700Y270921D02*
X513200Y288421D01*
X504700Y473560D02*
X513200Y465060D01*
X504700Y473560D02*
Y650200D01*
X513200Y288421D02*
Y465060D01*
X714489Y575241D02*
Y581511D01*
X669800Y626200D02*
X714489Y581511D01*
X541400Y773150D02*
Y790771D01*
Y773150D02*
X558000Y756550D01*
X519000Y706950D02*
X590450D01*
X633121Y702700D02*
X664021D01*
X526046Y641600D02*
X596700D01*
X530274Y650100D02*
X592749D01*
X589521Y659100D02*
X633121Y702700D01*
X640197Y685096D02*
X688396D01*
X605300Y686900D02*
X630400Y712000D01*
X554700Y686900D02*
X605300D01*
X630400Y712000D02*
X655521D01*
X596700Y641600D02*
X640197Y685096D01*
X564750Y659100D02*
X589521D01*
X592749Y650100D02*
X636245Y693596D01*
X667796D01*
X571645Y755560D02*
X572264Y756179D01*
Y778864D01*
X696000Y815900D02*
X705600Y825500D01*
X609300Y815900D02*
X696000D01*
X572264Y778864D02*
X609300Y815900D01*
X564071Y782691D02*
X588400Y807021D01*
X504950Y245750D02*
X505125Y245925D01*
X509625D02*
X526041Y262341D01*
X505125Y245925D02*
X509625D01*
X526041Y262341D02*
X526041D01*
X564009Y274609D02*
X564200Y274800D01*
X564009Y270499D02*
Y274609D01*
X533310Y239800D02*
X564009Y270499D01*
X509436Y262964D02*
X521600Y275128D01*
X522128D01*
X534100Y287100D01*
X526041Y262341D02*
X543291Y279591D01*
Y300709D01*
X543100Y300900D02*
X543291Y300709D01*
X503900Y230800D02*
X681800D01*
X495700Y239000D02*
X503900Y230800D01*
X681800D02*
X714800Y197800D01*
X495700Y239000D02*
Y270921D01*
X487200Y235479D02*
X500579Y222100D01*
X652400D01*
X676700Y197800D01*
X736870Y734224D02*
X852876D01*
X858800Y728300D01*
X728044Y743050D02*
X736870Y734224D01*
X284103Y206603D02*
Y214603D01*
X275300Y197800D02*
X284103Y206603D01*
X313400Y197800D02*
X314371Y198771D01*
Y214871D01*
X351500Y197800D02*
X353058Y199358D01*
Y214871D01*
X410836Y593336D02*
X440053D01*
X448749Y601100D02*
X448940Y600909D01*
X413900Y610100D02*
X458800D01*
X448940Y597177D02*
Y600909D01*
Y597177D02*
X449053Y597064D01*
Y589608D02*
Y597064D01*
X827541Y724036D02*
X828705Y725200D01*
X675444Y734550D02*
X724523D01*
X735037Y724036D01*
X827541D01*
X666950Y726056D02*
X675444Y734550D01*
X828705Y725200D02*
X828975D01*
X678965Y726050D02*
X721003D01*
X675450Y722535D02*
X678965Y726050D01*
X671923Y743050D02*
X728044D01*
X721003Y726050D02*
X729350Y717702D01*
Y717702D02*
Y717702D01*
X675450Y701250D02*
Y722535D01*
X666950Y705629D02*
Y726056D01*
X658450Y729577D02*
X671923Y743050D01*
X658450Y714929D02*
Y729577D01*
X655521Y712000D02*
X658450Y714929D01*
X667796Y693596D02*
X675450Y701250D01*
X688396Y685096D02*
X689700Y686400D01*
X664021Y702700D02*
X666950Y705629D01*
X853053Y686491D02*
X858800Y692239D01*
Y728300D01*
X456700Y723674D02*
X530274Y650100D01*
X447700Y719946D02*
X526046Y641600D01*
X562060Y697836D02*
X562673Y698450D01*
X548485Y697836D02*
X562060D01*
X438629Y732800D02*
X461800D01*
X435700Y719200D02*
Y729871D01*
X438629Y732800D01*
X461800Y732400D02*
X469600Y724600D01*
X461800Y732400D02*
Y732800D01*
X447700Y719946D02*
Y720179D01*
X444700Y723179D02*
X447700Y720179D01*
X444700Y723179D02*
Y723450D01*
X0Y900000D02*
X900000D01*
X0Y0D02*
X900000D01*
X0D02*
Y900000D01*
X900000D02*
X900000Y0D01*
D15*
X69600Y666400D02*
X69600Y666400D01*
X69600Y197800D02*
Y666400D01*
X39000Y209400D02*
X49200Y219600D01*
Y697900D02*
X102900Y751600D01*
X49200Y219600D02*
Y697900D01*
X138200Y155800D02*
X148700Y166300D01*
X243200Y186600D02*
Y236300D01*
X222900Y166300D02*
X243200Y186600D01*
X148700Y166300D02*
X222900D01*
X31500Y197800D02*
X39000Y205300D01*
Y209400D01*
X102900Y751600D02*
X128200D01*
X157400Y731400D02*
X250600Y638200D01*
X157400Y867700D02*
X179800Y890100D01*
X157400Y731400D02*
Y867700D01*
X215900Y294300D02*
Y358300D01*
Y294300D02*
X244400Y265800D01*
X215900Y358300D02*
X250600Y393000D01*
X244400Y245300D02*
Y265800D01*
Y236300D02*
Y244200D01*
X69600Y197800D02*
X107700D01*
X250600Y393000D02*
Y638200D01*
X728100Y890300D02*
X747000Y871400D01*
X377600Y890300D02*
X728100D01*
X747000Y777200D02*
Y871400D01*
X746200Y776400D02*
X747000Y777200D01*
X138400Y91500D02*
X145200Y84700D01*
X138200Y91700D02*
X138400Y91500D01*
X17800Y165700D02*
X128100D01*
X138100Y155700D01*
X138200Y91700D02*
Y155800D01*
X145200Y84700D02*
X148875Y81025D01*
X168400Y61800D02*
X181200D01*
X168000D02*
X168400D01*
X6900Y176600D02*
X17800Y165700D01*
X6900Y176600D02*
Y220800D01*
X25100Y239000D01*
X304100Y287700D02*
X306400Y290000D01*
X244400Y265800D02*
X266300Y287700D01*
X304100D01*
X322800Y890100D02*
X350100Y862800D01*
X179800Y890100D02*
X322800D01*
X350100Y862800D02*
X377600Y890300D01*
X152550Y77350D02*
X159900Y70000D01*
X350100Y772600D02*
Y862800D01*
X159900Y69900D02*
Y70000D01*
X148875Y81025D02*
X152550Y77350D01*
X148875Y81025D02*
X148875D01*
X159900Y69900D02*
X168000Y61800D01*
X218200D02*
X224900D01*
X206000D02*
X218200D01*
X193700D02*
X206000D01*
X181200D02*
X193700D01*
X891600Y37900D02*
Y225600D01*
X864900Y252300D02*
X891600Y225600D01*
X872800Y19100D02*
X891600Y37900D01*
X861200Y252300D02*
X864900D01*
X267600Y19100D02*
X872800D01*
X224900Y61800D02*
X267600Y19100D01*
D20*
X514274Y546526D02*
Y554193D01*
Y546526D02*
X584259Y476541D01*
Y465494D02*
Y476541D01*
X550064Y525136D02*
X566600Y508600D01*
X598800D01*
X604700Y516600D02*
X609400Y521300D01*
X626200D02*
X626300Y521400D01*
X609400Y521300D02*
X626200D01*
X569416Y516600D02*
X604700D01*
X561416Y524600D02*
X569416Y516600D01*
X513700Y554767D02*
X514274Y554193D01*
X550064Y525136D02*
Y539046D01*
X561000Y532100D02*
X561416Y531684D01*
Y524600D02*
Y531684D01*
D22*
X627184Y442148D02*
X655200Y414132D01*
Y358288D02*
Y414132D01*
X610624Y352124D02*
X621324Y341424D01*
X633206Y330700D02*
X633300D01*
X622482Y341424D02*
X633206Y330700D01*
X621324Y341424D02*
X622482D01*
X610624Y352124D02*
Y422811D01*
X634000Y356800D02*
X653712D01*
X655200Y358288D01*
X633300Y356100D02*
X634000Y356800D01*
D94*
X169600Y32100D02*
D03*
D95*
Y107100D02*
D03*
D98*
X689700Y686400D02*
D03*
X715100Y661000D02*
D03*
X689700D02*
D03*
X715100Y686400D02*
D03*
X715100Y711800D02*
D03*
D99*
X689700D02*
D03*
D100*
X522414Y469214D02*
X538728Y452900D01*
X522414Y469214D02*
Y505700D01*
X538728Y452900D02*
X591700D01*
X609913Y475473D02*
X610391Y474995D01*
Y472095D02*
Y474995D01*
X591700Y452900D02*
X610643Y471843D01*
X610391Y472095D02*
X610643Y471843D01*
X580171Y715200D02*
X591070Y726099D01*
X510800Y715200D02*
X580171D01*
X512200Y818700D02*
Y846300D01*
Y818700D02*
X517106Y813794D01*
X548359D01*
D101*
X102600Y397700D02*
D03*
D102*
X162600D02*
D03*
X42600Y733700D02*
D03*
X222600D02*
D03*
D103*
X350100Y772600D02*
D03*
X861200Y252300D02*
D03*
X746200Y776400D02*
D03*
X306400Y290000D02*
D03*
D104*
X461400Y846300D02*
D03*
D105*
X486800D02*
D03*
X512200D02*
D03*
X537600D02*
D03*
X563000D02*
D03*
X588400D02*
D03*
X613800D02*
D03*
X639200D02*
D03*
X664600D02*
D03*
X690000D02*
D03*
X461400Y871700D02*
D03*
X486800D02*
D03*
X512200D02*
D03*
X537600D02*
D03*
X563000D02*
D03*
X588400D02*
D03*
X613800D02*
D03*
X639200D02*
D03*
X664600D02*
D03*
X690000D02*
D03*
D106*
X633300Y381500D02*
D03*
Y356100D02*
D03*
Y330700D02*
D03*
X567100Y397600D02*
D03*
Y372200D02*
D03*
Y346800D02*
D03*
Y321400D02*
D03*
D107*
X175700Y265600D02*
D03*
Y335600D02*
D03*
X95700D02*
D03*
Y265600D02*
D03*
D108*
X244400Y244200D02*
D03*
Y344200D02*
D03*
X25100Y344100D02*
D03*
Y244100D02*
D03*
X212400Y20900D02*
D03*
Y120900D02*
D03*
D109*
X69600Y197800D02*
D03*
X107700D02*
D03*
X31500D02*
D03*
X69600Y70800D02*
D03*
X107700D02*
D03*
X31500D02*
D03*
X465800D02*
D03*
X542000D02*
D03*
X503900D02*
D03*
X542000Y197800D02*
D03*
X275300Y70800D02*
D03*
X427700D02*
D03*
X389600D02*
D03*
X351500D02*
D03*
X313400D02*
D03*
X275300Y197800D02*
D03*
X427700D02*
D03*
X389600D02*
D03*
X351500D02*
D03*
X313400D02*
D03*
X503900D02*
D03*
X465800D02*
D03*
X791000D02*
D03*
X829100D02*
D03*
X638600D02*
D03*
X676700D02*
D03*
X714800D02*
D03*
X752900D02*
D03*
X600500D02*
D03*
X638600Y70800D02*
D03*
X676700D02*
D03*
X714800D02*
D03*
X752900D02*
D03*
X600500D02*
D03*
X867200Y197800D02*
D03*
X829100Y70800D02*
D03*
X867200D02*
D03*
X791000D02*
D03*
D110*
X837700Y496500D02*
D03*
X812300D02*
D03*
X786900D02*
D03*
X761500D02*
D03*
X736100D02*
D03*
X710700D02*
D03*
X837700Y313300D02*
D03*
X812300D02*
D03*
X786900D02*
D03*
X761500D02*
D03*
X736100D02*
D03*
X710700D02*
D03*
D111*
X876500Y867200D02*
D03*
X598800Y508600D02*
D03*
X584259Y465494D02*
D03*
X610624Y422811D02*
D03*
X577300Y500500D02*
D03*
X627184Y442148D02*
D03*
X609913Y475473D02*
D03*
X609300Y521200D02*
D03*
X623900Y491000D02*
D03*
X68700Y531000D02*
D03*
X68300Y494200D02*
D03*
X69100Y603500D02*
D03*
X69900Y567500D02*
D03*
X69500Y636800D02*
D03*
X69600Y666400D02*
D03*
X423100Y297700D02*
D03*
X250000Y864900D02*
D03*
X296900Y834700D02*
D03*
X270900Y830100D02*
D03*
X281600Y819400D02*
D03*
X325700Y863400D02*
D03*
X312300Y850000D02*
D03*
X472200Y399700D02*
D03*
X534800Y426500D02*
D03*
X522414Y505700D02*
D03*
X618200Y718800D02*
D03*
X669800Y653700D02*
D03*
X37900Y786100D02*
D03*
Y798800D02*
D03*
Y811500D02*
D03*
X128200Y751600D02*
D03*
X116800Y635800D02*
D03*
X117200Y566500D02*
D03*
X116400Y602500D02*
D03*
Y667100D02*
D03*
X115600Y493200D02*
D03*
X116000Y530000D02*
D03*
X586400Y765900D02*
D03*
X585800Y737100D02*
D03*
X609100Y768000D02*
D03*
X628100Y734700D02*
D03*
X534100Y316400D02*
D03*
X572600Y529000D02*
D03*
X406300Y761800D02*
D03*
X392525Y502893D02*
D03*
X365100Y523100D02*
D03*
X610000Y755800D02*
D03*
X546300Y466600D02*
D03*
X626300Y521400D02*
D03*
X550733Y782750D02*
D03*
X376000Y379700D02*
D03*
X463700Y504800D02*
D03*
X195800Y820600D02*
D03*
X55744Y811544D02*
D03*
X74400Y835400D02*
D03*
X37900Y824200D02*
D03*
X722600Y702100D02*
D03*
X700226Y717050D02*
D03*
X647148Y587201D02*
D03*
X658300Y662900D02*
D03*
X878700Y576200D02*
D03*
X675657Y516077D02*
D03*
X537083Y364775D02*
D03*
X552479Y286974D02*
D03*
X440000Y290500D02*
D03*
X431000Y468200D02*
D03*
X422400Y421200D02*
D03*
X412100Y530100D02*
D03*
X457600Y515000D02*
D03*
X787600Y550100D02*
D03*
X513700Y554767D02*
D03*
X351600Y94400D02*
D03*
X648000Y672700D02*
D03*
X797394Y610578D02*
D03*
X558000Y756550D02*
D03*
X589100Y808700D02*
D03*
X571645Y755560D02*
D03*
X864400Y600400D02*
D03*
X507400Y804700D02*
D03*
X705600Y825500D02*
D03*
X554700Y686900D02*
D03*
X448749Y601100D02*
D03*
X550064Y539046D02*
D03*
X564750Y659100D02*
D03*
X469600Y724600D02*
D03*
X440053Y593336D02*
D03*
X507812Y725113D02*
D03*
X451600Y629350D02*
D03*
X510800Y715200D02*
D03*
X563500Y600400D02*
D03*
X458800Y610100D02*
D03*
X561000Y532100D02*
D03*
X444700Y723450D02*
D03*
X456700Y723674D02*
D03*
X451600Y647700D02*
D03*
Y666050D02*
D03*
X504950Y245750D02*
D03*
X564200Y274800D02*
D03*
X509436Y262964D02*
D03*
X517974Y239800D02*
D03*
X533310D02*
D03*
X543100Y300900D02*
D03*
X478200Y504240D02*
D03*
X638600Y174500D02*
D03*
X504200Y397222D02*
D03*
X465800Y174500D02*
D03*
X427700D02*
D03*
X525333Y399995D02*
D03*
X379600Y548300D02*
D03*
X394386Y562014D02*
D03*
X420200Y361900D02*
D03*
X828975Y725200D02*
D03*
X853053Y686491D02*
D03*
X591070Y726099D02*
D03*
X395700Y804300D02*
D03*
X519000Y706950D02*
D03*
X548485Y697836D02*
D03*
X702100Y562500D02*
D03*
X714489Y575241D02*
D03*
X741700Y265900D02*
D03*
X796764Y180264D02*
D03*
X356500Y603900D02*
D03*
X548359Y813794D02*
D03*
X470400Y802000D02*
D03*
X390800Y240600D02*
D03*
X48600Y868100D02*
D03*
X542000Y94100D02*
D03*
X542000Y174500D02*
D03*
X638600Y94100D02*
D03*
X791000D02*
D03*
X867200D02*
D03*
X867200Y174500D02*
D03*
X882644Y714992D02*
D03*
X881900Y761800D02*
D03*
X834700Y776500D02*
D03*
X180700Y493400D02*
D03*
X181100Y530200D02*
D03*
X182300Y566700D02*
D03*
X181500Y602700D02*
D03*
X181900Y636000D02*
D03*
X181500Y667300D02*
D03*
X34100Y666700D02*
D03*
X34500Y635400D02*
D03*
X34100Y602100D02*
D03*
X34900Y566100D02*
D03*
X33700Y529600D02*
D03*
X33300Y492800D02*
D03*
X550300Y871700D02*
D03*
X524900D02*
D03*
X499500D02*
D03*
X474100D02*
D03*
X249600Y830100D02*
D03*
X113000Y868300D02*
D03*
X121500D02*
D03*
X104700D02*
D03*
X600500Y94100D02*
D03*
X410200Y872900D02*
D03*
X893100Y790400D02*
D03*
X138400Y91500D02*
D03*
X600500Y174500D02*
D03*
X503900D02*
D03*
X159900Y69900D02*
D03*
X152550Y77350D02*
D03*
X145200Y84700D02*
D03*
X181200Y61800D02*
D03*
X206000D02*
D03*
X193700D02*
D03*
X218200D02*
D03*
X168400D02*
D03*
M02*
