G04*
G04 #@! TF.GenerationSoftware,Altium Limited,Altium Designer,21.2.0 (30)*
G04*
G04 Layer_Color=2752767*
%FSLAX44Y44*%
%MOMM*%
G71*
G04*
G04 #@! TF.SameCoordinates,3859F847-68DD-49E8-8EE8-84FD9F862EB9*
G04*
G04*
G04 #@! TF.FilePolarity,Positive*
G04*
G01*
G75*
%ADD10C,0.5000*%
%ADD145C,0.0508*%
%ADD146C,0.0677*%
D10*
X0Y900000D02*
X900000D01*
X0Y0D02*
X900000D01*
X0D02*
Y900000D01*
X900000D02*
X900000Y0D01*
D145*
X99868Y380168D02*
Y384232D01*
X103932D01*
Y380168D01*
X99868D01*
X159868D02*
Y384232D01*
X163932D01*
Y380168D01*
X159868D01*
X39868Y716168D02*
Y720232D01*
X43932D01*
Y716168D01*
X39868D01*
X219868D02*
Y720232D01*
X223932D01*
Y716168D01*
X219868D01*
X837700Y504468D02*
X835668Y508532D01*
X839732D01*
X837700Y504468D01*
X812300D02*
X810268Y508532D01*
X814332D01*
X812300Y504468D01*
X786900D02*
X784868Y508532D01*
X788932D01*
X786900Y504468D01*
X761500D02*
X759468Y508532D01*
X763532D01*
X761500Y504468D01*
X736100D02*
X734068Y508532D01*
X738132D01*
X736100Y504468D01*
X710700D02*
X708668Y508532D01*
X712732D01*
X710700Y504468D01*
X837700Y301268D02*
X835668Y305332D01*
X839732D01*
X837700Y301268D01*
X812300D02*
X810268Y305332D01*
X814332D01*
X812300Y301268D01*
X786900D02*
X784868Y305332D01*
X788932D01*
X786900Y301268D01*
X761500D02*
X759468Y305332D01*
X763532D01*
X761500Y301268D01*
X736100D02*
X734068Y305332D01*
X738132D01*
X736100Y301268D01*
X710700D02*
X708668Y305332D01*
X712732D01*
X710700Y301268D01*
X619300Y297568D02*
X620316Y298584D01*
X621332D01*
X620316Y299600D01*
X621332Y300616D01*
X620316D01*
X619300Y301632D01*
X618284Y300616D01*
X617268D01*
X618284Y299600D01*
X617268Y298584D01*
X618284D01*
X619300Y297568D01*
Y272168D02*
X620316Y273184D01*
X621332D01*
X620316Y274200D01*
X621332Y275216D01*
X620316D01*
X619300Y276232D01*
X618284Y275216D01*
X617268D01*
X618284Y274200D01*
X617268Y273184D01*
X618284D01*
X619300Y272168D01*
X304368Y287968D02*
X305384Y290000D01*
X304368Y292032D01*
X306400Y291016D01*
X308432Y292032D01*
X307416Y290000D01*
X308432Y287968D01*
X306400Y288984D01*
X304368Y287968D01*
X94584Y249884D02*
Y248868D01*
X96616D01*
Y249884D01*
X97632D01*
Y251916D01*
X96616D01*
Y252932D01*
X94584D01*
Y251916D01*
X93568D01*
Y249884D01*
X94584D01*
Y319884D02*
Y318868D01*
X96616D01*
Y319884D01*
X97632D01*
Y321916D01*
X96616D01*
Y322932D01*
X94584D01*
Y321916D01*
X93568D01*
Y319884D01*
X94584D01*
X174584D02*
Y318868D01*
X176616D01*
Y319884D01*
X177632D01*
Y321916D01*
X176616D01*
Y322932D01*
X174584D01*
Y321916D01*
X173568D01*
Y319884D01*
X174584D01*
Y249884D02*
Y248868D01*
X176616D01*
Y249884D01*
X177632D01*
Y251916D01*
X176616D01*
Y252932D01*
X174584D01*
Y251916D01*
X173568D01*
Y249884D01*
X174584D01*
X859168Y250268D02*
X860184Y252300D01*
X859168Y254332D01*
X861200Y253316D01*
X863232Y254332D01*
X862216Y252300D01*
X863232Y250268D01*
X861200Y251284D01*
X859168Y250268D01*
X689700Y709768D02*
X690716Y710784D01*
X691732D01*
X690716Y711800D01*
X691732Y712816D01*
X690716D01*
X689700Y713832D01*
X688684Y712816D01*
X687668D01*
X688684Y711800D01*
X687668Y710784D01*
X688684D01*
X689700Y709768D01*
X715100D02*
X716116Y710784D01*
X717132D01*
X716116Y711800D01*
X717132Y712816D01*
X716116D01*
X715100Y713832D01*
X714084Y712816D01*
X713068D01*
X714084Y711800D01*
X713068Y710784D01*
X714084D01*
X715100Y709768D01*
X715100Y684368D02*
X716116Y685384D01*
X717132D01*
X716116Y686400D01*
X717132Y687416D01*
X716116D01*
X715100Y688432D01*
X714084Y687416D01*
X713068D01*
X714084Y686400D01*
X713068Y685384D01*
X714084D01*
X715100Y684368D01*
X689700Y658968D02*
X690716Y659984D01*
X691732D01*
X690716Y661000D01*
X691732Y662016D01*
X690716D01*
X689700Y663032D01*
X688684Y662016D01*
X687668D01*
X688684Y661000D01*
X687668Y659984D01*
X688684D01*
X689700Y658968D01*
X715100D02*
X716116Y659984D01*
X717132D01*
X716116Y661000D01*
X717132Y662016D01*
X716116D01*
X715100Y663032D01*
X714084Y662016D01*
X713068D01*
X714084Y661000D01*
X713068Y659984D01*
X714084D01*
X715100Y658968D01*
X689700Y684368D02*
X690716Y685384D01*
X691732D01*
X690716Y686400D01*
X691732Y687416D01*
X690716D01*
X689700Y688432D01*
X688684Y687416D01*
X687668D01*
X688684Y686400D01*
X687668Y685384D01*
X688684D01*
X689700Y684368D01*
X744168Y774368D02*
X745184Y776400D01*
X744168Y778432D01*
X746200Y777416D01*
X748232Y778432D01*
X747216Y776400D01*
X748232Y774368D01*
X746200Y775384D01*
X744168Y774368D01*
X672468Y793268D02*
X673484D01*
X674500Y794284D01*
X675516Y793268D01*
X676532D01*
Y794284D01*
X675516Y795300D01*
X676532Y796316D01*
Y797332D01*
X675516D01*
X674500Y796316D01*
X673484Y797332D01*
X672468D01*
Y796316D01*
X673484Y795300D01*
X672468Y794284D01*
Y793268D01*
Y767868D02*
X673484D01*
X674500Y768884D01*
X675516Y767868D01*
X676532D01*
Y768884D01*
X675516Y769900D01*
X676532Y770916D01*
Y771932D01*
X675516D01*
X674500Y770916D01*
X673484Y771932D01*
X672468D01*
Y770916D01*
X673484Y769900D01*
X672468Y768884D01*
Y767868D01*
X596268Y793268D02*
X597284D01*
X598300Y794284D01*
X599316Y793268D01*
X600332D01*
Y794284D01*
X599316Y795300D01*
X600332Y796316D01*
Y797332D01*
X599316D01*
X598300Y796316D01*
X597284Y797332D01*
X596268D01*
Y796316D01*
X597284Y795300D01*
X596268Y794284D01*
Y793268D01*
Y767868D02*
X597284D01*
X598300Y768884D01*
X599316Y767868D01*
X600332D01*
Y768884D01*
X599316Y769900D01*
X600332Y770916D01*
Y771932D01*
X599316D01*
X598300Y770916D01*
X597284Y771932D01*
X596268D01*
Y770916D01*
X597284Y769900D01*
X596268Y768884D01*
Y767868D01*
X348068Y770568D02*
X349084Y772600D01*
X348068Y774632D01*
X350100Y773616D01*
X352132Y774632D01*
X351116Y772600D01*
X352132Y770568D01*
X350100Y771584D01*
X348068Y770568D01*
X690000Y869668D02*
X691016Y870684D01*
X692032D01*
X691016Y871700D01*
X692032Y872716D01*
X691016D01*
X690000Y873732D01*
X688984Y872716D01*
X687968D01*
X688984Y871700D01*
X687968Y870684D01*
X688984D01*
X690000Y869668D01*
X664600D02*
X665616Y870684D01*
X666632D01*
X665616Y871700D01*
X666632Y872716D01*
X665616D01*
X664600Y873732D01*
X663584Y872716D01*
X662568D01*
X663584Y871700D01*
X662568Y870684D01*
X663584D01*
X664600Y869668D01*
X639200D02*
X640216Y870684D01*
X641232D01*
X640216Y871700D01*
X641232Y872716D01*
X640216D01*
X639200Y873732D01*
X638184Y872716D01*
X637168D01*
X638184Y871700D01*
X637168Y870684D01*
X638184D01*
X639200Y869668D01*
X613800D02*
X614816Y870684D01*
X615832D01*
X614816Y871700D01*
X615832Y872716D01*
X614816D01*
X613800Y873732D01*
X612784Y872716D01*
X611768D01*
X612784Y871700D01*
X611768Y870684D01*
X612784D01*
X613800Y869668D01*
X588400D02*
X589416Y870684D01*
X590432D01*
X589416Y871700D01*
X590432Y872716D01*
X589416D01*
X588400Y873732D01*
X587384Y872716D01*
X586368D01*
X587384Y871700D01*
X586368Y870684D01*
X587384D01*
X588400Y869668D01*
X563000D02*
X564016Y870684D01*
X565032D01*
X564016Y871700D01*
X565032Y872716D01*
X564016D01*
X563000Y873732D01*
X561984Y872716D01*
X560968D01*
X561984Y871700D01*
X560968Y870684D01*
X561984D01*
X563000Y869668D01*
X537600D02*
X538616Y870684D01*
X539632D01*
X538616Y871700D01*
X539632Y872716D01*
X538616D01*
X537600Y873732D01*
X536584Y872716D01*
X535568D01*
X536584Y871700D01*
X535568Y870684D01*
X536584D01*
X537600Y869668D01*
X512200D02*
X513216Y870684D01*
X514232D01*
X513216Y871700D01*
X514232Y872716D01*
X513216D01*
X512200Y873732D01*
X511184Y872716D01*
X510168D01*
X511184Y871700D01*
X510168Y870684D01*
X511184D01*
X512200Y869668D01*
X486800D02*
X487816Y870684D01*
X488832D01*
X487816Y871700D01*
X488832Y872716D01*
X487816D01*
X486800Y873732D01*
X485784Y872716D01*
X484768D01*
X485784Y871700D01*
X484768Y870684D01*
X485784D01*
X486800Y869668D01*
X461400D02*
X462416Y870684D01*
X463432D01*
X462416Y871700D01*
X463432Y872716D01*
X462416D01*
X461400Y873732D01*
X460384Y872716D01*
X459368D01*
X460384Y871700D01*
X459368Y870684D01*
X460384D01*
X461400Y869668D01*
X690000Y844268D02*
X691016Y845284D01*
X692032D01*
X691016Y846300D01*
X692032Y847316D01*
X691016D01*
X690000Y848332D01*
X688984Y847316D01*
X687968D01*
X688984Y846300D01*
X687968Y845284D01*
X688984D01*
X690000Y844268D01*
X664600D02*
X665616Y845284D01*
X666632D01*
X665616Y846300D01*
X666632Y847316D01*
X665616D01*
X664600Y848332D01*
X663584Y847316D01*
X662568D01*
X663584Y846300D01*
X662568Y845284D01*
X663584D01*
X664600Y844268D01*
X639200D02*
X640216Y845284D01*
X641232D01*
X640216Y846300D01*
X641232Y847316D01*
X640216D01*
X639200Y848332D01*
X638184Y847316D01*
X637168D01*
X638184Y846300D01*
X637168Y845284D01*
X638184D01*
X639200Y844268D01*
X613800D02*
X614816Y845284D01*
X615832D01*
X614816Y846300D01*
X615832Y847316D01*
X614816D01*
X613800Y848332D01*
X612784Y847316D01*
X611768D01*
X612784Y846300D01*
X611768Y845284D01*
X612784D01*
X613800Y844268D01*
X588400D02*
X589416Y845284D01*
X590432D01*
X589416Y846300D01*
X590432Y847316D01*
X589416D01*
X588400Y848332D01*
X587384Y847316D01*
X586368D01*
X587384Y846300D01*
X586368Y845284D01*
X587384D01*
X588400Y844268D01*
X563000D02*
X564016Y845284D01*
X565032D01*
X564016Y846300D01*
X565032Y847316D01*
X564016D01*
X563000Y848332D01*
X561984Y847316D01*
X560968D01*
X561984Y846300D01*
X560968Y845284D01*
X561984D01*
X563000Y844268D01*
X537600D02*
X538616Y845284D01*
X539632D01*
X538616Y846300D01*
X539632Y847316D01*
X538616D01*
X537600Y848332D01*
X536584Y847316D01*
X535568D01*
X536584Y846300D01*
X535568Y845284D01*
X536584D01*
X537600Y844268D01*
X512200D02*
X513216Y845284D01*
X514232D01*
X513216Y846300D01*
X514232Y847316D01*
X513216D01*
X512200Y848332D01*
X511184Y847316D01*
X510168D01*
X511184Y846300D01*
X510168Y845284D01*
X511184D01*
X512200Y844268D01*
X486800D02*
X487816Y845284D01*
X488832D01*
X487816Y846300D01*
X488832Y847316D01*
X487816D01*
X486800Y848332D01*
X485784Y847316D01*
X484768D01*
X485784Y846300D01*
X484768Y845284D01*
X485784D01*
X486800Y844268D01*
X461400D02*
X462416Y845284D01*
X463432D01*
X462416Y846300D01*
X463432Y847316D01*
X462416D01*
X461400Y848332D01*
X460384Y847316D01*
X459368D01*
X460384Y846300D01*
X459368Y845284D01*
X460384D01*
X461400Y844268D01*
X167568Y107100D02*
X169600Y109132D01*
X171632Y107100D01*
X169600Y105068D01*
X167568Y107100D01*
Y32100D02*
X169600Y34132D01*
X171632Y32100D01*
X169600Y30068D01*
X167568Y32100D01*
X178668Y491368D02*
Y495432D01*
X182732D01*
Y491368D01*
X178668D01*
X179684Y492384D02*
Y494416D01*
X181716D01*
Y492384D01*
X179684D01*
X179068Y528168D02*
Y532232D01*
X183132D01*
Y528168D01*
X179068D01*
X180084Y529184D02*
Y531216D01*
X182116D01*
Y529184D01*
X180084D01*
X180268Y564668D02*
Y568732D01*
X184332D01*
Y564668D01*
X180268D01*
X181284Y565684D02*
Y567716D01*
X183316D01*
Y565684D01*
X181284D01*
X179468Y600668D02*
Y604732D01*
X183532D01*
Y600668D01*
X179468D01*
X180484Y601684D02*
Y603716D01*
X182516D01*
Y601684D01*
X180484D01*
X179868Y633968D02*
Y638032D01*
X183932D01*
Y633968D01*
X179868D01*
X180884Y634984D02*
Y637016D01*
X182916D01*
Y634984D01*
X180884D01*
X179468Y665268D02*
Y669332D01*
X183532D01*
Y665268D01*
X179468D01*
X180484Y666284D02*
Y668316D01*
X182516D01*
Y666284D01*
X180484D01*
X102568Y491168D02*
Y495232D01*
X106632D01*
Y491168D01*
X102568D01*
X103584Y492184D02*
Y494216D01*
X105616D01*
Y492184D01*
X103584D01*
X102968Y527968D02*
Y532032D01*
X107032D01*
Y527968D01*
X102968D01*
X103984Y528984D02*
Y531016D01*
X106016D01*
Y528984D01*
X103984D01*
X104168Y564468D02*
Y568532D01*
X108232D01*
Y564468D01*
X104168D01*
X105184Y565484D02*
Y567516D01*
X107216D01*
Y565484D01*
X105184D01*
X103368Y600468D02*
Y604532D01*
X107432D01*
Y600468D01*
X103368D01*
X104384Y601484D02*
Y603516D01*
X106416D01*
Y601484D01*
X104384D01*
X103768Y633768D02*
Y637832D01*
X107832D01*
Y633768D01*
X103768D01*
X104784Y634784D02*
Y636816D01*
X106816D01*
Y634784D01*
X104784D01*
X103368Y665068D02*
Y669132D01*
X107432D01*
Y665068D01*
X103368D01*
X104384Y666084D02*
Y668116D01*
X106416D01*
Y666084D01*
X104384D01*
X32068Y664668D02*
Y668732D01*
X36132D01*
Y664668D01*
X32068D01*
X33084Y665684D02*
Y667716D01*
X35116D01*
Y665684D01*
X33084D01*
X32468Y633368D02*
Y637432D01*
X36532D01*
Y633368D01*
X32468D01*
X33484Y634384D02*
Y636416D01*
X35516D01*
Y634384D01*
X33484D01*
X32068Y600068D02*
Y604132D01*
X36132D01*
Y600068D01*
X32068D01*
X33084Y601084D02*
Y603116D01*
X35116D01*
Y601084D01*
X33084D01*
X32868Y564068D02*
Y568132D01*
X36932D01*
Y564068D01*
X32868D01*
X33884Y565084D02*
Y567116D01*
X35916D01*
Y565084D01*
X33884D01*
X31668Y527568D02*
Y531632D01*
X35732D01*
Y527568D01*
X31668D01*
X32684Y528584D02*
Y530616D01*
X34716D01*
Y528584D01*
X32684D01*
X31268Y490768D02*
Y494832D01*
X35332D01*
Y490768D01*
X31268D01*
X32284Y491784D02*
Y493816D01*
X34316D01*
Y491784D01*
X32284D01*
X46568Y866068D02*
Y870132D01*
X50632D01*
Y866068D01*
X46568D01*
X47584Y867084D02*
Y869116D01*
X49616D01*
Y867084D01*
X47584D01*
X749968Y705868D02*
Y709932D01*
X754032D01*
Y705868D01*
X749968D01*
X750984Y706884D02*
Y708916D01*
X753016D01*
Y706884D01*
X750984D01*
X548268Y869668D02*
Y873732D01*
X552332D01*
Y869668D01*
X548268D01*
X549284Y870684D02*
Y872716D01*
X551316D01*
Y870684D01*
X549284D01*
X522868Y869668D02*
Y873732D01*
X526932D01*
Y869668D01*
X522868D01*
X523884Y870684D02*
Y872716D01*
X525916D01*
Y870684D01*
X523884D01*
X497468Y869668D02*
Y873732D01*
X501532D01*
Y869668D01*
X497468D01*
X498484Y870684D02*
Y872716D01*
X500516D01*
Y870684D01*
X498484D01*
X472068Y869668D02*
Y873732D01*
X476132D01*
Y869668D01*
X472068D01*
X473084Y870684D02*
Y872716D01*
X475116D01*
Y870684D01*
X473084D01*
X247568Y828068D02*
Y832132D01*
X251632D01*
Y828068D01*
X247568D01*
X248584Y829084D02*
Y831116D01*
X250616D01*
Y829084D01*
X248584D01*
X324568Y852968D02*
Y857032D01*
X328632D01*
Y852968D01*
X324568D01*
X325584Y853984D02*
Y856016D01*
X327616D01*
Y853984D01*
X325584D01*
X312718Y841218D02*
Y845282D01*
X316782D01*
Y841218D01*
X312718D01*
X313734Y842234D02*
Y844266D01*
X315766D01*
Y842234D01*
X313734D01*
X300568Y828868D02*
Y832932D01*
X304632D01*
Y828868D01*
X300568D01*
X301584Y829884D02*
Y831916D01*
X303616D01*
Y829884D01*
X301584D01*
X282768Y812768D02*
Y816832D01*
X286832D01*
Y812768D01*
X282768D01*
X283784Y813784D02*
Y815816D01*
X285816D01*
Y813784D01*
X283784D01*
X267468Y828068D02*
Y832132D01*
X271532D01*
Y828068D01*
X267468D01*
X268484Y829084D02*
Y831116D01*
X270516D01*
Y829084D01*
X268484D01*
X318868Y725168D02*
Y729232D01*
X322932D01*
Y725168D01*
X318868D01*
X319884Y726184D02*
Y728216D01*
X321916D01*
Y726184D01*
X319884D01*
X110968Y866268D02*
Y870332D01*
X115032D01*
Y866268D01*
X110968D01*
X111984Y867284D02*
Y869316D01*
X114016D01*
Y867284D01*
X111984D01*
X119468Y866268D02*
Y870332D01*
X123532D01*
Y866268D01*
X119468D01*
X120484Y867284D02*
Y869316D01*
X122516D01*
Y867284D01*
X120484D01*
X102668Y866268D02*
Y870332D01*
X106732D01*
Y866268D01*
X102668D01*
X103684Y867284D02*
Y869316D01*
X105716D01*
Y867284D01*
X103684D01*
X633868Y505868D02*
Y509932D01*
X637932D01*
Y505868D01*
X633868D01*
X634884Y506884D02*
Y508916D01*
X636916D01*
Y506884D01*
X634884D01*
X620868Y520268D02*
Y524332D01*
X624932D01*
Y520268D01*
X620868D01*
X621884Y521284D02*
Y523316D01*
X623916D01*
Y521284D01*
X621884D01*
X595668Y502268D02*
Y506332D01*
X599732D01*
Y502268D01*
X595668D01*
X596684Y503284D02*
Y505316D01*
X598716D01*
Y503284D01*
X596684D01*
X454868Y590168D02*
Y594232D01*
X458932D01*
Y590168D01*
X454868D01*
X455884Y591184D02*
Y593216D01*
X457916D01*
Y591184D01*
X455884D01*
X442168Y590168D02*
Y594232D01*
X446232D01*
Y590168D01*
X442168D01*
X443184Y591184D02*
Y593216D01*
X445216D01*
Y591184D01*
X443184D01*
X404154Y756582D02*
Y760646D01*
X408218D01*
Y756582D01*
X404154D01*
X405170Y757598D02*
Y759630D01*
X407202D01*
Y757598D01*
X405170D01*
X400168Y635468D02*
Y639532D01*
X404232D01*
Y635468D01*
X400168D01*
X401184Y636484D02*
Y638516D01*
X403216D01*
Y636484D01*
X401184D01*
X354468Y601868D02*
Y605932D01*
X358532D01*
Y601868D01*
X354468D01*
X355484Y602884D02*
Y604916D01*
X357516D01*
Y602884D01*
X355484D01*
X662468Y597968D02*
Y602032D01*
X666532D01*
Y597968D01*
X662468D01*
X663484Y598984D02*
Y601016D01*
X665516D01*
Y598984D01*
X663484D01*
X787368Y734868D02*
Y738932D01*
X791432D01*
Y734868D01*
X787368D01*
X788384Y735884D02*
Y737916D01*
X790416D01*
Y735884D01*
X788384D01*
X659968Y655168D02*
Y659232D01*
X664032D01*
Y655168D01*
X659968D01*
X660984Y656184D02*
Y658216D01*
X663016D01*
Y656184D01*
X660984D01*
X659968Y608468D02*
Y612532D01*
X664032D01*
Y608468D01*
X659968D01*
X660984Y609484D02*
Y611516D01*
X663016D01*
Y609484D01*
X660984D01*
X647068Y611268D02*
Y615332D01*
X651132D01*
Y611268D01*
X647068D01*
X648084Y612284D02*
Y614316D01*
X650116D01*
Y612284D01*
X648084D01*
X756468Y584968D02*
Y589032D01*
X760532D01*
Y584968D01*
X756468D01*
X757484Y585984D02*
Y588016D01*
X759516D01*
Y585984D01*
X757484D01*
X636568Y92068D02*
Y96132D01*
X640632D01*
Y92068D01*
X636568D01*
X637584Y93084D02*
Y95116D01*
X639616D01*
Y93084D01*
X637584D01*
X539968Y92068D02*
Y96132D01*
X544032D01*
Y92068D01*
X539968D01*
X540984Y93084D02*
Y95116D01*
X543016D01*
Y93084D01*
X540984D01*
X501868Y92068D02*
Y96132D01*
X505932D01*
Y92068D01*
X501868D01*
X502884Y93084D02*
Y95116D01*
X504916D01*
Y93084D01*
X502884D01*
X539968Y172468D02*
Y176532D01*
X544032D01*
Y172468D01*
X539968D01*
X540984Y173484D02*
Y175516D01*
X543016D01*
Y173484D01*
X540984D01*
X636568Y172468D02*
Y176532D01*
X640632D01*
Y172468D01*
X636568D01*
X637584Y173484D02*
Y175516D01*
X639616D01*
Y173484D01*
X637584D01*
X598468Y92068D02*
Y96132D01*
X602532D01*
Y92068D01*
X598468D01*
X599484Y93084D02*
Y95116D01*
X601516D01*
Y93084D01*
X599484D01*
X788968Y92068D02*
Y96132D01*
X793032D01*
Y92068D01*
X788968D01*
X789984Y93084D02*
Y95116D01*
X792016D01*
Y93084D01*
X789984D01*
X788968Y172468D02*
Y176532D01*
X793032D01*
Y172468D01*
X788968D01*
X789984Y173484D02*
Y175516D01*
X792016D01*
Y173484D01*
X789984D01*
X865168Y172468D02*
Y176532D01*
X869232D01*
Y172468D01*
X865168D01*
X866184Y173484D02*
Y175516D01*
X868216D01*
Y173484D01*
X866184D01*
X865168Y92068D02*
Y96132D01*
X869232D01*
Y92068D01*
X865168D01*
X866184Y93084D02*
Y95116D01*
X868216D01*
Y93084D01*
X866184D01*
X874468Y830068D02*
Y834132D01*
X878532D01*
Y830068D01*
X874468D01*
X875484Y831084D02*
Y833116D01*
X877516D01*
Y831084D01*
X875484D01*
X591932Y284432D02*
Y288496D01*
X595996D01*
Y284432D01*
X591932D01*
X592948Y285448D02*
Y287480D01*
X594980D01*
Y285448D01*
X592948D01*
X799868Y609968D02*
Y614032D01*
X803932D01*
Y609968D01*
X799868D01*
X800884Y610984D02*
Y613016D01*
X802916D01*
Y610984D01*
X800884D01*
X606368Y327168D02*
Y331232D01*
X610432D01*
Y327168D01*
X606368D01*
X607384Y328184D02*
Y330216D01*
X609416D01*
Y328184D01*
X607384D01*
X408168Y870868D02*
Y874932D01*
X412232D01*
Y870868D01*
X408168D01*
X409184Y871884D02*
Y873916D01*
X411216D01*
Y871884D01*
X409184D01*
X591368Y373168D02*
Y377232D01*
X595432D01*
Y373168D01*
X591368D01*
X592384Y374184D02*
Y376216D01*
X594416D01*
Y374184D01*
X592384D01*
X821268Y676568D02*
Y680632D01*
X825332D01*
Y676568D01*
X821268D01*
X822284Y677584D02*
Y679616D01*
X824316D01*
Y677584D01*
X822284D01*
X505780Y723081D02*
Y727144D01*
X509845D01*
Y723081D01*
X505780D01*
X506796Y724097D02*
Y726128D01*
X508829D01*
Y724097D01*
X506796D01*
X598768Y700268D02*
Y704332D01*
X602832D01*
Y700268D01*
X598768D01*
X599784Y701284D02*
Y703316D01*
X601816D01*
Y701284D01*
X599784D01*
X606568Y611168D02*
Y615232D01*
X610632D01*
Y611168D01*
X606568D01*
X607584Y612184D02*
Y614216D01*
X609616D01*
Y612184D01*
X607584D01*
X615568Y600168D02*
Y604232D01*
X619632D01*
Y600168D01*
X615568D01*
X616584Y601184D02*
Y603216D01*
X618616D01*
Y601184D01*
X616584D01*
X604068Y570668D02*
Y574732D01*
X608132D01*
Y570668D01*
X604068D01*
X605084Y571684D02*
Y573716D01*
X607116D01*
Y571684D01*
X605084D01*
X570718Y747668D02*
Y751732D01*
X574782D01*
Y747668D01*
X570718D01*
X571734Y748684D02*
Y750716D01*
X573766D01*
Y748684D01*
X571734D01*
X786968Y549568D02*
Y553632D01*
X791032D01*
Y549568D01*
X786968D01*
X787984Y550584D02*
Y552616D01*
X790016D01*
Y550584D01*
X787984D01*
X833768Y829468D02*
Y833532D01*
X837832D01*
Y829468D01*
X833768D01*
X834784Y830484D02*
Y832516D01*
X836816D01*
Y830484D01*
X834784D01*
X819568Y722768D02*
Y726832D01*
X823632D01*
Y722768D01*
X819568D01*
X820584Y723784D02*
Y725816D01*
X822616D01*
Y723784D01*
X820584D01*
X891068Y788368D02*
Y792432D01*
X895132D01*
Y788368D01*
X891068D01*
X892084Y789384D02*
Y791416D01*
X894116D01*
Y789384D01*
X892084D01*
X879868Y759768D02*
Y763832D01*
X883932D01*
Y759768D01*
X879868D01*
X880884Y760784D02*
Y762816D01*
X882916D01*
Y760784D01*
X880884D01*
X832668Y774468D02*
Y778532D01*
X836732D01*
Y774468D01*
X832668D01*
X833684Y775484D02*
Y777516D01*
X835716D01*
Y775484D01*
X833684D01*
X880612Y712960D02*
Y717024D01*
X884676D01*
Y712960D01*
X880612D01*
X881628Y713976D02*
Y716008D01*
X883660D01*
Y713976D01*
X881628D01*
X561468Y598368D02*
Y602432D01*
X565532D01*
Y598368D01*
X561468D01*
X562484Y599384D02*
Y601416D01*
X564516D01*
Y599384D01*
X562484D01*
X517568Y526393D02*
Y530457D01*
X521632D01*
Y526393D01*
X517568D01*
X518584Y527409D02*
Y529441D01*
X520616D01*
Y527409D01*
X518584D01*
X449568Y627318D02*
Y631382D01*
X453632D01*
Y627318D01*
X449568D01*
X450584Y628334D02*
Y630366D01*
X452616D01*
Y628334D01*
X450584D01*
X876668Y574168D02*
Y578232D01*
X880732D01*
Y574168D01*
X876668D01*
X877684Y575184D02*
Y577216D01*
X879716D01*
Y575184D01*
X877684D01*
X862368Y598368D02*
Y602432D01*
X866432D01*
Y598368D01*
X862368D01*
X863384Y599384D02*
Y601416D01*
X865416D01*
Y599384D01*
X863384D01*
X429668Y525668D02*
Y529732D01*
X433732D01*
Y525668D01*
X429668D01*
X430684Y526684D02*
Y528716D01*
X432716D01*
Y526684D01*
X430684D01*
X740668Y249868D02*
Y253932D01*
X744732D01*
Y249868D01*
X740668D01*
X741684Y250884D02*
Y252916D01*
X743716D01*
Y250884D01*
X741684D01*
X483968Y409591D02*
Y413656D01*
X488032D01*
Y409591D01*
X483968D01*
X484984Y410607D02*
Y412640D01*
X487016D01*
Y410607D01*
X484984D01*
X601000Y416636D02*
Y420700D01*
X605064D01*
Y416636D01*
X601000D01*
X602016Y417652D02*
Y419684D01*
X604048D01*
Y417652D01*
X602016D01*
X543268Y502168D02*
Y506232D01*
X547332D01*
Y502168D01*
X543268D01*
X544284Y503184D02*
Y505216D01*
X546316D01*
Y503184D01*
X544284D01*
X557268Y402568D02*
Y406632D01*
X561332D01*
Y402568D01*
X557268D01*
X558284Y403584D02*
Y405616D01*
X560316D01*
Y403584D01*
X558284D01*
X383368Y348168D02*
Y352232D01*
X387432D01*
Y348168D01*
X383368D01*
X384384Y349184D02*
Y351216D01*
X386416D01*
Y349184D01*
X384384D01*
X377568Y546268D02*
Y550332D01*
X381632D01*
Y546268D01*
X377568D01*
X378584Y547284D02*
Y549316D01*
X380616D01*
Y547284D01*
X378584D01*
X392354Y559982D02*
Y564046D01*
X396418D01*
Y559982D01*
X392354D01*
X393370Y560998D02*
Y563030D01*
X395402D01*
Y560998D01*
X393370D01*
X398868Y502868D02*
Y506932D01*
X402932D01*
Y502868D01*
X398868D01*
X399884Y503884D02*
Y505916D01*
X401916D01*
Y503884D01*
X399884D01*
X410068Y528068D02*
Y532132D01*
X414132D01*
Y528068D01*
X410068D01*
X411084Y529084D02*
Y531116D01*
X413116D01*
Y529084D01*
X411084D01*
X437068Y365468D02*
Y369532D01*
X441132D01*
Y365468D01*
X437068D01*
X438084Y366484D02*
Y368516D01*
X440116D01*
Y366484D01*
X438084D01*
X401468Y435275D02*
Y439339D01*
X405532D01*
Y435275D01*
X401468D01*
X402484Y436291D02*
Y438323D01*
X404516D01*
Y436291D01*
X402484D01*
X400868Y459868D02*
Y463932D01*
X404932D01*
Y459868D01*
X400868D01*
X401884Y460884D02*
Y462916D01*
X403916D01*
Y460884D01*
X401884D01*
X449568Y664018D02*
Y668082D01*
X453632D01*
Y664018D01*
X449568D01*
X450584Y665034D02*
Y667066D01*
X452616D01*
Y665034D01*
X450584D01*
X449568Y645668D02*
Y649732D01*
X453632D01*
Y645668D01*
X449568D01*
X450584Y646684D02*
Y648716D01*
X452616D01*
Y646684D01*
X450584D01*
X467568Y722968D02*
Y727032D01*
X471632D01*
Y722968D01*
X467568D01*
X468584Y723984D02*
Y726016D01*
X470616D01*
Y723984D01*
X468584D01*
X496568Y526418D02*
Y530482D01*
X500632D01*
Y526418D01*
X496568D01*
X497584Y527434D02*
Y529466D01*
X499616D01*
Y527434D01*
X497584D01*
X475768Y526293D02*
Y530357D01*
X479832D01*
Y526293D01*
X475768D01*
X476784Y527309D02*
Y529341D01*
X478816D01*
Y527309D01*
X476784D01*
X455268Y526268D02*
Y530332D01*
X459332D01*
Y526268D01*
X455268D01*
X456284Y527284D02*
Y529316D01*
X458316D01*
Y527284D01*
X456284D01*
X407668Y244168D02*
Y248232D01*
X411732D01*
Y244168D01*
X407668D01*
X408684Y245184D02*
Y247216D01*
X410716D01*
Y245184D01*
X408684D01*
X469568Y309668D02*
Y313732D01*
X473632D01*
Y309668D01*
X469568D01*
X470584Y310684D02*
Y312716D01*
X472616D01*
Y310684D01*
X470584D01*
X502268Y373468D02*
Y377532D01*
X506332D01*
Y373468D01*
X502268D01*
X503284Y374484D02*
Y376516D01*
X505316D01*
Y374484D01*
X503284D01*
X455068Y757768D02*
Y761832D01*
X459132D01*
Y757768D01*
X455068D01*
X456084Y758784D02*
Y760816D01*
X458116D01*
Y758784D01*
X456084D01*
X413768Y469768D02*
Y473832D01*
X417832D01*
Y469768D01*
X413768D01*
X414784Y470784D02*
Y472816D01*
X416816D01*
Y470784D01*
X414784D01*
X538068Y777868D02*
Y781932D01*
X542132D01*
Y777868D01*
X538068D01*
X539084Y778884D02*
Y780916D01*
X541116D01*
Y778884D01*
X539084D01*
X416868Y756568D02*
Y760632D01*
X420932D01*
Y756568D01*
X416868D01*
X417884Y757584D02*
Y759616D01*
X419916D01*
Y757584D01*
X417884D01*
X538068Y763268D02*
Y767332D01*
X542132D01*
Y763268D01*
X538068D01*
X539084Y764284D02*
Y766316D01*
X541116D01*
Y764284D01*
X539084D01*
X441968Y768368D02*
Y772432D01*
X446032D01*
Y768368D01*
X441968D01*
X442984Y769384D02*
Y771416D01*
X445016D01*
Y769384D01*
X442984D01*
X390768Y624268D02*
Y628332D01*
X394832D01*
Y624268D01*
X390768D01*
X391784Y625284D02*
Y627316D01*
X393816D01*
Y625284D01*
X391784D01*
X136368Y89468D02*
Y93532D01*
X140432D01*
Y89468D01*
X136368D01*
X137384Y90484D02*
Y92516D01*
X139416D01*
Y90484D01*
X137384D01*
X413768Y434668D02*
Y438732D01*
X417832D01*
Y434668D01*
X413768D01*
X414784Y435684D02*
Y437716D01*
X416816D01*
Y435684D01*
X414784D01*
X438368Y412268D02*
Y416332D01*
X442432D01*
Y412268D01*
X438368D01*
X439384Y413284D02*
Y415316D01*
X441416D01*
Y413284D01*
X439384D01*
X484768Y444368D02*
Y448432D01*
X488832D01*
Y444368D01*
X484768D01*
X485784Y445384D02*
Y447416D01*
X487816D01*
Y445384D01*
X485784D01*
X517568Y456568D02*
Y460632D01*
X521632D01*
Y456568D01*
X517568D01*
X518584Y457584D02*
Y459616D01*
X520616D01*
Y457584D01*
X518584D01*
X494768Y455468D02*
Y459532D01*
X498832D01*
Y455468D01*
X494768D01*
X495784Y456484D02*
Y458516D01*
X497816D01*
Y456484D01*
X495784D01*
X429618Y466168D02*
Y470232D01*
X433682D01*
Y466168D01*
X429618D01*
X430634Y467184D02*
Y469216D01*
X432666D01*
Y467184D01*
X430634D01*
X572168Y322268D02*
Y326332D01*
X576232D01*
Y322268D01*
X572168D01*
X573184Y323284D02*
Y325316D01*
X575216D01*
Y323284D01*
X573184D01*
X582368Y313268D02*
Y317332D01*
X586432D01*
Y313268D01*
X582368D01*
X583384Y314284D02*
Y316316D01*
X585416D01*
Y314284D01*
X583384D01*
X504368Y466668D02*
Y470732D01*
X508432D01*
Y466668D01*
X504368D01*
X505384Y467684D02*
Y469716D01*
X507416D01*
Y467684D01*
X505384D01*
X598468Y172468D02*
Y176532D01*
X602532D01*
Y172468D01*
X598468D01*
X599484Y173484D02*
Y175516D01*
X601516D01*
Y173484D01*
X599484D01*
X439868Y303968D02*
Y308032D01*
X443932D01*
Y303968D01*
X439868D01*
X440884Y304984D02*
Y307016D01*
X442916D01*
Y304984D01*
X440884D01*
X537250Y349450D02*
Y353514D01*
X541314D01*
Y349450D01*
X537250D01*
X538266Y350466D02*
Y352498D01*
X540298D01*
Y350466D01*
X538266D01*
X467868Y799968D02*
Y804032D01*
X471932D01*
Y799968D01*
X467868D01*
X468884Y800984D02*
Y803016D01*
X470916D01*
Y800984D01*
X468884D01*
X505768Y799968D02*
Y804032D01*
X509832D01*
Y799968D01*
X505768D01*
X506784Y800984D02*
Y803016D01*
X508816D01*
Y800984D01*
X506784D01*
X501868Y172468D02*
Y176532D01*
X505932D01*
Y172468D01*
X501868D01*
X502884Y173484D02*
Y175516D01*
X504916D01*
Y173484D01*
X502884D01*
X463768Y172468D02*
Y176532D01*
X467832D01*
Y172468D01*
X463768D01*
X464784Y173484D02*
Y175516D01*
X466816D01*
Y173484D01*
X464784D01*
X425668Y172468D02*
Y176532D01*
X429732D01*
Y172468D01*
X425668D01*
X426684Y173484D02*
Y175516D01*
X428716D01*
Y173484D01*
X426684D01*
X387568Y172468D02*
Y176532D01*
X391632D01*
Y172468D01*
X387568D01*
X388584Y173484D02*
Y175516D01*
X390616D01*
Y173484D01*
X388584D01*
X194880Y805856D02*
Y809920D01*
X198944D01*
Y805856D01*
X194880D01*
X195896Y806872D02*
Y808904D01*
X197928D01*
Y806872D01*
X195896D01*
X233668Y871068D02*
Y875132D01*
X237732D01*
Y871068D01*
X233668D01*
X234684Y872084D02*
Y874116D01*
X236716D01*
Y872084D01*
X234684D01*
X393668Y802268D02*
Y806332D01*
X397732D01*
Y802268D01*
X393668D01*
X394684Y803284D02*
Y805316D01*
X396716D01*
Y803284D01*
X394684D01*
X558668Y386168D02*
Y390232D01*
X562732D01*
Y386168D01*
X558668D01*
X559684Y387184D02*
Y389216D01*
X561716D01*
Y387184D01*
X559684D01*
X558168Y360568D02*
Y364632D01*
X562232D01*
Y360568D01*
X558168D01*
X559184Y361584D02*
Y363616D01*
X561216D01*
Y361584D01*
X559184D01*
X168568Y797768D02*
Y801832D01*
X172632D01*
Y797768D01*
X168568D01*
X169584Y798784D02*
Y800816D01*
X171616D01*
Y798784D01*
X169584D01*
X157868Y67868D02*
Y71932D01*
X161932D01*
Y67868D01*
X157868D01*
X158884Y68884D02*
Y70916D01*
X160916D01*
Y68884D01*
X158884D01*
X150518Y75318D02*
Y79382D01*
X154582D01*
Y75318D01*
X150518D01*
X151534Y76334D02*
Y78366D01*
X153566D01*
Y76334D01*
X151534D01*
X143168Y82668D02*
Y86732D01*
X147232D01*
Y82668D01*
X143168D01*
X144184Y83684D02*
Y85716D01*
X146216D01*
Y83684D01*
X144184D01*
X179168Y59768D02*
Y63832D01*
X183232D01*
Y59768D01*
X179168D01*
X180184Y60784D02*
Y62816D01*
X182216D01*
Y60784D01*
X180184D01*
X203968Y59768D02*
Y63832D01*
X208032D01*
Y59768D01*
X203968D01*
X204984Y60784D02*
Y62816D01*
X207016D01*
Y60784D01*
X204984D01*
X191668Y59768D02*
Y63832D01*
X195732D01*
Y59768D01*
X191668D01*
X192684Y60784D02*
Y62816D01*
X194716D01*
Y60784D01*
X192684D01*
X216168Y59768D02*
Y63832D01*
X220232D01*
Y59768D01*
X216168D01*
X217184Y60784D02*
Y62816D01*
X219216D01*
Y60784D01*
X217184D01*
X166368Y59768D02*
Y63832D01*
X170432D01*
Y59768D01*
X166368D01*
X167384Y60784D02*
Y62816D01*
X169416D01*
Y60784D01*
X167384D01*
X28668Y815168D02*
Y819232D01*
X32732D01*
Y815168D01*
X28668D01*
X29684Y816184D02*
Y818216D01*
X31716D01*
Y816184D01*
X29684D01*
X39322Y763802D02*
Y767866D01*
X43386D01*
Y763802D01*
X39322D01*
X40338Y764818D02*
Y766850D01*
X42370D01*
Y764818D01*
X40338D01*
X100268Y802068D02*
Y806132D01*
X104332D01*
Y802068D01*
X100268D01*
X101284Y803084D02*
Y805116D01*
X103316D01*
Y803084D01*
X101284D01*
X126668Y820268D02*
Y824332D01*
X130732D01*
Y820268D01*
X126668D01*
X127684Y821284D02*
Y823316D01*
X129716D01*
Y821284D01*
X127684D01*
X180668Y821668D02*
Y825732D01*
X184732D01*
Y821668D01*
X180668D01*
X181684Y822684D02*
Y824716D01*
X183716D01*
Y822684D01*
X181684D01*
D146*
X793032Y70800D02*
G03*
X793032Y70800I-2032J0D01*
G01*
X869232D02*
G03*
X869232Y70800I-2032J0D01*
G01*
X831132D02*
G03*
X831132Y70800I-2032J0D01*
G01*
X869232Y197800D02*
G03*
X869232Y197800I-2032J0D01*
G01*
X602532Y70800D02*
G03*
X602532Y70800I-2032J0D01*
G01*
X754932D02*
G03*
X754932Y70800I-2032J0D01*
G01*
X716832D02*
G03*
X716832Y70800I-2032J0D01*
G01*
X678732D02*
G03*
X678732Y70800I-2032J0D01*
G01*
X640632D02*
G03*
X640632Y70800I-2032J0D01*
G01*
X602532Y197800D02*
G03*
X602532Y197800I-2032J0D01*
G01*
X754932D02*
G03*
X754932Y197800I-2032J0D01*
G01*
X716832D02*
G03*
X716832Y197800I-2032J0D01*
G01*
X678732D02*
G03*
X678732Y197800I-2032J0D01*
G01*
X640632D02*
G03*
X640632Y197800I-2032J0D01*
G01*
X831132D02*
G03*
X831132Y197800I-2032J0D01*
G01*
X793032D02*
G03*
X793032Y197800I-2032J0D01*
G01*
X27132Y239000D02*
G03*
X27132Y239000I-2032J0D01*
G01*
Y339000D02*
G03*
X27132Y339000I-2032J0D01*
G01*
X33532Y70800D02*
G03*
X33532Y70800I-2032J0D01*
G01*
X109732D02*
G03*
X109732Y70800I-2032J0D01*
G01*
X71632D02*
G03*
X71632Y70800I-2032J0D01*
G01*
X33532Y197800D02*
G03*
X33532Y197800I-2032J0D01*
G01*
X109732D02*
G03*
X109732Y197800I-2032J0D01*
G01*
X71632D02*
G03*
X71632Y197800I-2032J0D01*
G01*
X467832D02*
G03*
X467832Y197800I-2032J0D01*
G01*
X505932D02*
G03*
X505932Y197800I-2032J0D01*
G01*
X315432D02*
G03*
X315432Y197800I-2032J0D01*
G01*
X353532D02*
G03*
X353532Y197800I-2032J0D01*
G01*
X391632D02*
G03*
X391632Y197800I-2032J0D01*
G01*
X429732D02*
G03*
X429732Y197800I-2032J0D01*
G01*
X277332D02*
G03*
X277332Y197800I-2032J0D01*
G01*
X315432Y70800D02*
G03*
X315432Y70800I-2032J0D01*
G01*
X353532D02*
G03*
X353532Y70800I-2032J0D01*
G01*
X391632D02*
G03*
X391632Y70800I-2032J0D01*
G01*
X429732D02*
G03*
X429732Y70800I-2032J0D01*
G01*
X277332D02*
G03*
X277332Y70800I-2032J0D01*
G01*
X544032Y197800D02*
G03*
X544032Y197800I-2032J0D01*
G01*
X505932Y70800D02*
G03*
X505932Y70800I-2032J0D01*
G01*
X544032D02*
G03*
X544032Y70800I-2032J0D01*
G01*
X467832D02*
G03*
X467832Y70800I-2032J0D01*
G01*
X246432Y236300D02*
G03*
X246432Y236300I-2032J0D01*
G01*
Y336300D02*
G03*
X246432Y336300I-2032J0D01*
G01*
X214432Y120900D02*
G03*
X214432Y120900I-2032J0D01*
G01*
Y20900D02*
G03*
X214432Y20900I-2032J0D01*
G01*
M02*
