G04*
G04 #@! TF.GenerationSoftware,Altium Limited,Altium Designer,21.2.0 (30)*
G04*
G04 Layer_Color=8388736*
%FSLAX44Y44*%
%MOMM*%
G71*
G04*
G04 #@! TF.SameCoordinates,3859F847-68DD-49E8-8EE8-84FD9F862EB9*
G04*
G04*
G04 #@! TF.FilePolarity,Negative*
G04*
G01*
G75*
%ADD10C,0.5000*%
%ADD45R,1.2700X0.9000*%
%ADD46R,0.8000X1.4500*%
%ADD58R,1.4032X1.1032*%
%ADD59R,1.0332X0.8282*%
%ADD60R,1.1032X1.4032*%
G04:AMPARAMS|DCode=61|XSize=2.1732mm|YSize=0.7932mm|CornerRadius=0.1754mm|HoleSize=0mm|Usage=FLASHONLY|Rotation=270.000|XOffset=0mm|YOffset=0mm|HoleType=Round|Shape=RoundedRectangle|*
%AMROUNDEDRECTD61*
21,1,2.1732,0.4425,0,0,270.0*
21,1,1.8225,0.7932,0,0,270.0*
1,1,0.3507,-0.2213,-0.9113*
1,1,0.3507,-0.2213,0.9113*
1,1,0.3507,0.2213,0.9113*
1,1,0.3507,0.2213,-0.9113*
%
%ADD61ROUNDEDRECTD61*%
%ADD62R,2.3532X3.0032*%
%ADD63R,2.0032X2.4332*%
%ADD64R,2.6032X0.9632*%
%ADD65R,1.2032X1.2032*%
%ADD66R,1.0032X1.9032*%
%ADD67R,1.4032X1.2532*%
%ADD68R,1.5332X1.5332*%
%ADD69R,1.1032X2.2032*%
%ADD70R,2.2032X1.1032*%
G04:AMPARAMS|DCode=71|XSize=0.8532mm|YSize=1.8532mm|CornerRadius=0.1504mm|HoleSize=0mm|Usage=FLASHONLY|Rotation=90.000|XOffset=0mm|YOffset=0mm|HoleType=Round|Shape=RoundedRectangle|*
%AMROUNDEDRECTD71*
21,1,0.8532,1.5525,0,0,90.0*
21,1,0.5525,1.8532,0,0,90.0*
1,1,0.3007,0.7763,0.2763*
1,1,0.3007,0.7763,-0.2763*
1,1,0.3007,-0.7763,-0.2763*
1,1,0.3007,-0.7763,0.2763*
%
%ADD71ROUNDEDRECTD71*%
%ADD72R,1.2032X1.6032*%
%ADD73R,0.6032X0.9532*%
%ADD74R,1.1032X1.0032*%
%ADD75R,0.8032X0.6032*%
%ADD76R,2.1032X1.4032*%
%ADD77C,1.2032*%
%ADD78R,1.7532X0.8032*%
%ADD79R,2.7532X2.6532*%
%ADD80R,1.4532X1.8532*%
%ADD81R,2.0032X5.9032*%
%ADD82R,2.3532X2.6532*%
%ADD83R,0.9032X1.1032*%
%ADD84R,2.6532X2.7532*%
%ADD85R,3.2032X3.2032*%
%ADD86C,3.2032*%
%ADD87R,2.7032X2.7032*%
%ADD88R,2.7032X2.7032*%
%ADD89R,2.1844X4.7752*%
G04:AMPARAMS|DCode=90|XSize=1.7032mm|YSize=1.7032mm|CornerRadius=0.1541mm|HoleSize=0mm|Usage=FLASHONLY|Rotation=270.000|XOffset=0mm|YOffset=0mm|HoleType=Round|Shape=RoundedRectangle|*
%AMROUNDEDRECTD90*
21,1,1.7032,1.3950,0,0,270.0*
21,1,1.3950,1.7032,0,0,270.0*
1,1,0.3082,-0.6975,-0.6975*
1,1,0.3082,-0.6975,0.6975*
1,1,0.3082,0.6975,0.6975*
1,1,0.3082,0.6975,-0.6975*
%
%ADD90ROUNDEDRECTD90*%
%ADD91C,1.7032*%
%ADD92C,6.2032*%
%ADD93R,2.2032X2.2032*%
%ADD94R,1.6500X1.6500*%
%ADD95C,1.6500*%
%ADD96R,1.8032X1.8032*%
%ADD97C,1.7532*%
G04:AMPARAMS|DCode=98|XSize=1.7532mm|YSize=1.7532mm|CornerRadius=0.4891mm|HoleSize=0mm|Usage=FLASHONLY|Rotation=0.000|XOffset=0mm|YOffset=0mm|HoleType=Round|Shape=RoundedRectangle|*
%AMROUNDEDRECTD98*
21,1,1.7532,0.7750,0,0,0.0*
21,1,0.7750,1.7532,0,0,0.0*
1,1,0.9782,0.3875,-0.3875*
1,1,0.9782,-0.3875,-0.3875*
1,1,0.9782,-0.3875,0.3875*
1,1,0.9782,0.3875,0.3875*
%
%ADD98ROUNDEDRECTD98*%
%ADD99C,1.6510*%
%ADD100R,1.6510X1.6510*%
D10*
X0Y900000D02*
X900000D01*
X0Y0D02*
X900000D01*
X0D02*
Y900000D01*
X900000D02*
X900000Y0D01*
D45*
X877150Y558600D02*
D03*
Y600600D02*
D03*
D46*
X896000Y545850D02*
D03*
Y613350D02*
D03*
D58*
X602400Y387100D02*
D03*
Y408100D02*
D03*
X498700Y504000D02*
D03*
Y483000D02*
D03*
X457200Y503800D02*
D03*
Y482800D02*
D03*
X544900Y492500D02*
D03*
Y513500D02*
D03*
X603900Y362900D02*
D03*
Y341900D02*
D03*
X590000Y244700D02*
D03*
Y265700D02*
D03*
X568300D02*
D03*
Y244700D02*
D03*
X546775Y265700D02*
D03*
Y244700D02*
D03*
X525250Y265700D02*
D03*
Y244700D02*
D03*
X503725Y265700D02*
D03*
Y244700D02*
D03*
X482200Y244700D02*
D03*
Y265700D02*
D03*
X491800Y323600D02*
D03*
Y344600D02*
D03*
X471600Y344500D02*
D03*
Y323500D02*
D03*
X486600Y398300D02*
D03*
Y377300D02*
D03*
X452400Y403100D02*
D03*
Y382100D02*
D03*
X438400Y279200D02*
D03*
Y258200D02*
D03*
X862900Y764000D02*
D03*
Y785000D02*
D03*
X507800Y790800D02*
D03*
Y769800D02*
D03*
X469900Y790800D02*
D03*
Y769800D02*
D03*
X395800Y852100D02*
D03*
Y873100D02*
D03*
X375400Y852200D02*
D03*
Y873200D02*
D03*
X369500Y359100D02*
D03*
Y338100D02*
D03*
X380800Y258100D02*
D03*
Y279100D02*
D03*
X441900Y338200D02*
D03*
Y317200D02*
D03*
X519600Y504000D02*
D03*
Y483000D02*
D03*
X477900Y482900D02*
D03*
Y503900D02*
D03*
X566100Y513500D02*
D03*
Y492500D02*
D03*
X431600Y541100D02*
D03*
Y520100D02*
D03*
X392800D02*
D03*
Y541100D02*
D03*
X431700Y503500D02*
D03*
Y482500D02*
D03*
X412200Y541100D02*
D03*
Y520100D02*
D03*
X355900Y582900D02*
D03*
Y561900D02*
D03*
X375400Y582900D02*
D03*
Y561900D02*
D03*
X809800Y753900D02*
D03*
Y774900D02*
D03*
D59*
X498600Y519600D02*
D03*
Y541850D02*
D03*
X477800Y519475D02*
D03*
Y541725D02*
D03*
X519600Y541825D02*
D03*
Y519575D02*
D03*
X457300Y541700D02*
D03*
Y519450D02*
D03*
D60*
X514200Y439700D02*
D03*
X535200D02*
D03*
X865800Y688100D02*
D03*
X844800D02*
D03*
X811000Y794000D02*
D03*
X790000D02*
D03*
X865800Y734100D02*
D03*
X844800D02*
D03*
X399100Y338100D02*
D03*
X420100D02*
D03*
D61*
X428500Y417000D02*
D03*
X415800D02*
D03*
X403100D02*
D03*
X390400D02*
D03*
Y367500D02*
D03*
X403100D02*
D03*
X415800D02*
D03*
X428500D02*
D03*
D62*
X213750Y159500D02*
D03*
X164650D02*
D03*
D63*
X757700Y252300D02*
D03*
X786900D02*
D03*
D64*
X739600Y612900D02*
D03*
X739600Y600200D02*
D03*
Y587500D02*
D03*
Y574800D02*
D03*
X778600Y574800D02*
D03*
X778600Y587500D02*
D03*
Y600200D02*
D03*
Y612900D02*
D03*
X739600Y562100D02*
D03*
X778600D02*
D03*
D65*
X893600Y807500D02*
D03*
Y779500D02*
D03*
X893700Y733500D02*
D03*
Y761500D02*
D03*
X893800Y687500D02*
D03*
Y715500D02*
D03*
D66*
X887500Y831500D02*
D03*
X853500D02*
D03*
D67*
X395700Y815500D02*
D03*
Y834500D02*
D03*
X375500Y815500D02*
D03*
Y834500D02*
D03*
D68*
X499500Y666050D02*
D03*
Y647700D02*
D03*
Y629350D02*
D03*
X481150D02*
D03*
X462800D02*
D03*
Y647700D02*
D03*
Y666050D02*
D03*
X481150D02*
D03*
Y647700D02*
D03*
D69*
X406150Y742700D02*
D03*
X418850D02*
D03*
X431550D02*
D03*
X444250D02*
D03*
X456950D02*
D03*
X469650D02*
D03*
X482350D02*
D03*
X495050D02*
D03*
X507750D02*
D03*
X520450D02*
D03*
X533150D02*
D03*
X545850D02*
D03*
X558550D02*
D03*
X571250D02*
D03*
Y572700D02*
D03*
X558550D02*
D03*
X545850D02*
D03*
X533150D02*
D03*
X520450D02*
D03*
X507750D02*
D03*
X495050D02*
D03*
X482350D02*
D03*
X469650D02*
D03*
X456950D02*
D03*
X444250D02*
D03*
X431550D02*
D03*
X418850D02*
D03*
X406150D02*
D03*
D70*
X581250Y714850D02*
D03*
Y702150D02*
D03*
Y689450D02*
D03*
Y676750D02*
D03*
Y664050D02*
D03*
Y651350D02*
D03*
Y638650D02*
D03*
Y625950D02*
D03*
Y613250D02*
D03*
Y600550D02*
D03*
D71*
X576450Y337400D02*
D03*
Y350100D02*
D03*
Y362800D02*
D03*
Y375500D02*
D03*
Y388200D02*
D03*
Y400900D02*
D03*
Y413600D02*
D03*
X519950Y337400D02*
D03*
Y350100D02*
D03*
Y362800D02*
D03*
Y375500D02*
D03*
Y388200D02*
D03*
Y400900D02*
D03*
Y413600D02*
D03*
D72*
X419200Y279400D02*
D03*
X400200D02*
D03*
X409700Y257400D02*
D03*
D73*
X413700Y298350D02*
D03*
X405700Y316850D02*
D03*
Y298350D02*
D03*
X413700Y316850D02*
D03*
D74*
X826700Y795400D02*
D03*
Y776400D02*
D03*
X846700Y785900D02*
D03*
D75*
X207800Y798000D02*
D03*
Y791000D02*
D03*
D76*
X14900Y766200D02*
D03*
Y817200D02*
D03*
X102300Y766200D02*
D03*
Y817200D02*
D03*
D77*
X375500Y888700D02*
D03*
X395800D02*
D03*
D78*
X182700Y774450D02*
D03*
Y787150D02*
D03*
Y799850D02*
D03*
Y812550D02*
D03*
X128700D02*
D03*
Y799850D02*
D03*
Y787150D02*
D03*
Y774450D02*
D03*
D79*
X23800Y868300D02*
D03*
X84300D02*
D03*
D80*
X205050Y756000D02*
D03*
X239550D02*
D03*
D81*
X137000Y861700D02*
D03*
X183000D02*
D03*
D82*
X220700Y830100D02*
D03*
Y873100D02*
D03*
D83*
X239400Y777700D02*
D03*
X232900Y796700D02*
D03*
X245900D02*
D03*
D84*
X284800Y727250D02*
D03*
Y787750D02*
D03*
D85*
X101900Y382200D02*
D03*
D86*
X161900D02*
D03*
X41900Y718200D02*
D03*
X221900D02*
D03*
D87*
X791000Y70800D02*
D03*
X867200D02*
D03*
X829100D02*
D03*
X867200Y197800D02*
D03*
X600500Y70800D02*
D03*
X752900D02*
D03*
X714800D02*
D03*
X676700D02*
D03*
X638600D02*
D03*
X600500Y197800D02*
D03*
X752900D02*
D03*
X714800D02*
D03*
X676700D02*
D03*
X638600D02*
D03*
X829100D02*
D03*
X791000D02*
D03*
X31500Y70800D02*
D03*
X107700D02*
D03*
X69600D02*
D03*
X31500Y197800D02*
D03*
X107700D02*
D03*
X69600D02*
D03*
X465800D02*
D03*
X503900D02*
D03*
X313400D02*
D03*
X351500D02*
D03*
X389600D02*
D03*
X427700D02*
D03*
X275300D02*
D03*
X313400Y70800D02*
D03*
X351500D02*
D03*
X389600D02*
D03*
X427700D02*
D03*
X275300D02*
D03*
X542000Y197800D02*
D03*
X503900Y70800D02*
D03*
X542000D02*
D03*
X465800D02*
D03*
D88*
X25100Y239000D02*
D03*
Y339000D02*
D03*
X244400Y236300D02*
D03*
Y336300D02*
D03*
X212400Y120900D02*
D03*
Y20900D02*
D03*
D89*
X837700Y496500D02*
D03*
X812300D02*
D03*
X786900D02*
D03*
X761500D02*
D03*
X736100D02*
D03*
X710700D02*
D03*
X837700Y313300D02*
D03*
X812300D02*
D03*
X786900D02*
D03*
X761500D02*
D03*
X736100D02*
D03*
X710700D02*
D03*
D90*
X619300Y299600D02*
D03*
D91*
Y274200D02*
D03*
D92*
X306400Y290000D02*
D03*
X861200Y252300D02*
D03*
X746200Y776400D02*
D03*
X350100Y772600D02*
D03*
D93*
X95600Y250900D02*
D03*
Y320900D02*
D03*
X175600D02*
D03*
Y250900D02*
D03*
D94*
X689700Y711800D02*
D03*
D95*
X715100D02*
D03*
X715100Y686400D02*
D03*
X689700Y661000D02*
D03*
X715100D02*
D03*
X689700Y686400D02*
D03*
D96*
X674500Y795300D02*
D03*
Y769900D02*
D03*
X598300Y795300D02*
D03*
Y769900D02*
D03*
D97*
X690000Y871700D02*
D03*
X664600D02*
D03*
X639200D02*
D03*
X613800D02*
D03*
X588400D02*
D03*
X563000D02*
D03*
X537600D02*
D03*
X512200D02*
D03*
X486800D02*
D03*
X461400D02*
D03*
X690000Y846300D02*
D03*
X664600D02*
D03*
X639200D02*
D03*
X613800D02*
D03*
X588400D02*
D03*
X563000D02*
D03*
X537600D02*
D03*
X512200D02*
D03*
X486800D02*
D03*
D98*
X461400D02*
D03*
D99*
X169600Y107100D02*
D03*
D100*
Y32100D02*
D03*
M02*
