G04*
G04 #@! TF.GenerationSoftware,Altium Limited,Altium Designer,21.2.0 (30)*
G04*
G04 Layer_Color=65535*
%FSLAX44Y44*%
%MOMM*%
G71*
G04*
G04 #@! TF.SameCoordinates,3859F847-68DD-49E8-8EE8-84FD9F862EB9*
G04*
G04*
G04 #@! TF.FilePolarity,Positive*
G04*
G01*
G75*
%ADD10C,0.5000*%
%ADD11C,1.0000*%
%ADD12C,0.4000*%
%ADD13C,0.2000*%
%ADD14C,0.2500*%
%ADD15C,0.1524*%
%ADD16C,0.1270*%
%ADD17C,0.3000*%
%ADD18C,0.1500*%
%ADD19C,0.1778*%
%ADD20C,0.1000*%
%ADD21C,0.2540*%
%ADD22C,0.1800*%
%ADD23R,0.2540X1.3970*%
%ADD24R,0.2540X2.7940*%
%ADD25R,2.6289X0.2540*%
%ADD26R,0.8000X0.3600*%
%ADD27R,0.5500X0.6750*%
%ADD28R,0.6750X0.5500*%
G36*
X802249Y248495D02*
Y237495D01*
X799249D01*
Y248495D01*
X802249D01*
D02*
G37*
G36*
X802300Y256300D02*
Y267300D01*
X799300D01*
Y256300D01*
X802300D01*
D02*
G37*
D10*
X102900Y352200D02*
G03*
X102900Y352200I-3000J0D01*
G01*
X801600Y561897D02*
G03*
X801600Y561897I-2164J0D01*
G01*
X408015Y554850D02*
G03*
X408015Y554850I-2115J0D01*
G01*
X521763Y424700D02*
G03*
X521763Y424700I-1513J0D01*
G01*
X188432Y764050D02*
G03*
X188432Y764050I-2482J0D01*
G01*
X865600Y-20250D02*
Y52350D01*
X839350Y-20250D02*
Y52350D01*
X831000Y44000D02*
X839350Y52350D01*
X847700Y44000D01*
X857250D02*
X865600Y52350D01*
X873950Y44000D01*
X790000Y-20250D02*
Y52350D01*
X763750Y-20250D02*
Y52350D01*
X737750Y-20250D02*
Y52350D01*
X711500Y-20250D02*
Y52350D01*
X686800Y-20250D02*
Y52350D01*
X658800Y-20250D02*
Y52350D01*
X629950Y-20250D02*
Y52350D01*
X603750Y-20250D02*
Y52350D01*
X806450Y44050D02*
X814800Y52400D01*
X823150Y44050D01*
X583850Y204000D02*
Y215550D01*
X575850Y204000D02*
X583850D01*
Y215550D02*
X883850D01*
Y203850D02*
Y215550D01*
Y203850D02*
X892000D01*
Y52400D02*
Y203850D01*
X575850Y52400D02*
X892000D01*
X575850D02*
Y204000D01*
X814800Y-20200D02*
Y52400D01*
X595400Y44000D02*
X603750Y52350D01*
X612100Y44000D01*
X621600D02*
X629950Y52350D01*
X638300Y44000D01*
X650450D02*
X658800Y52350D01*
X667150Y44000D01*
X678450D02*
X686800Y52350D01*
X695150Y44000D01*
X703150D02*
X711500Y52350D01*
X719850Y44000D01*
X729400D02*
X737750Y52350D01*
X746100Y44000D01*
X755400D02*
X763750Y52350D01*
X772100Y44000D01*
X781650D02*
X790000Y52350D01*
X798350Y44000D01*
X96150Y-20300D02*
Y52300D01*
X67300Y-20300D02*
Y52300D01*
X41100Y-20300D02*
Y52300D01*
X14850Y204000D02*
Y215550D01*
X6850Y204000D02*
X14850D01*
Y215550D02*
X124450D01*
Y203850D02*
Y215550D01*
Y203850D02*
X132350D01*
X6850Y52400D02*
X132350D01*
X6850D02*
Y204000D01*
X32750Y43950D02*
X41100Y52300D01*
X49450Y43950D01*
X58950D02*
X67300Y52300D01*
X75650Y43950D01*
X87800D02*
X96150Y52300D01*
X104500Y43950D01*
X132350Y52400D02*
Y203850D01*
X582750Y747700D02*
X586250D01*
X582750D02*
X586250D01*
Y725200D02*
Y747700D01*
Y725200D02*
Y747700D01*
Y567700D02*
Y590200D01*
Y567700D02*
Y590200D01*
X582750Y567700D02*
X586250D01*
X582750D02*
X586250D01*
X394250D02*
Y747700D01*
Y567700D02*
Y747700D01*
X464800Y52350D02*
X473150Y44000D01*
X456450D02*
X464800Y52350D01*
X438550D02*
X446900Y44000D01*
X430200D02*
X438550Y52350D01*
X412550D02*
X420900Y44000D01*
X404200D02*
X412550Y52350D01*
X386300D02*
X394650Y44000D01*
X377950D02*
X386300Y52350D01*
X361600D02*
X369950Y44000D01*
X353250D02*
X361600Y52350D01*
X333600D02*
X341950Y44000D01*
X325250D02*
X333600Y52350D01*
X304750D02*
X313100Y44000D01*
X296400D02*
X304750Y52350D01*
X278550D02*
X286900Y44000D01*
X270200D02*
X278550Y52350D01*
X489600Y-20200D02*
Y52400D01*
X250650D02*
Y204000D01*
Y52400D02*
X566800D01*
Y203850D01*
X558650D02*
X566800D01*
X558650D02*
Y215550D01*
X258650D02*
X558650D01*
X250650Y204000D02*
X258650D01*
Y215550D01*
X489600Y52400D02*
X497950Y44050D01*
X481250D02*
X489600Y52400D01*
X278550Y-20250D02*
Y52350D01*
X304750Y-20250D02*
Y52350D01*
X333600Y-20250D02*
Y52350D01*
X361600Y-20250D02*
Y52350D01*
X386300Y-20250D02*
Y52350D01*
X412550Y-20250D02*
Y52350D01*
X438550Y-20250D02*
Y52350D01*
X464800Y-20250D02*
Y52350D01*
X540400D02*
X548750Y44000D01*
X532050D02*
X540400Y52350D01*
X514150D02*
X522500Y44000D01*
X505800D02*
X514150Y52350D01*
Y-20250D02*
Y52350D01*
X540400Y-20250D02*
Y52350D01*
X0Y900000D02*
X900000D01*
X0Y0D02*
X900000D01*
X0D02*
Y900000D01*
X900000D02*
X900000Y0D01*
D11*
X709899Y279124D02*
G03*
X710400Y279100I218J-704D01*
G01*
D12*
X932950Y430300D02*
G03*
X932950Y379500I0J-25400D01*
G01*
X650756Y286800D02*
Y523100D01*
X932950Y286800D02*
Y411250D01*
Y523100D01*
X650756D02*
X932950D01*
X650756Y286800D02*
X932950D01*
D13*
X437500Y425250D02*
G03*
X437500Y425250I-1000J0D01*
G01*
X844500Y833500D02*
G03*
X844500Y833500I-1000J0D01*
G01*
X593900Y380100D02*
Y415100D01*
X610900D01*
Y380100D02*
Y415100D01*
X593900Y380100D02*
X610900D01*
X507200Y476000D02*
Y511000D01*
X490200Y476000D02*
X507200D01*
X490200D02*
Y511000D01*
X507200D01*
X465700Y475800D02*
Y510800D01*
X448700Y475800D02*
X465700D01*
X448700D02*
Y510800D01*
X465700D01*
X536400Y485500D02*
Y520500D01*
X553400D01*
Y485500D02*
Y520500D01*
X536400Y485500D02*
X553400D01*
X498600Y524725D02*
Y527725D01*
Y534725D02*
Y536725D01*
X494600Y527725D02*
X503600D01*
X498600Y534725D02*
X503600Y527725D01*
X494600D02*
X498600Y534725D01*
X493600D02*
X503600D01*
X477800Y524600D02*
Y527600D01*
Y534600D02*
Y536600D01*
X473800Y527600D02*
X482800D01*
X477800Y534600D02*
X482800Y527600D01*
X473800D02*
X477800Y534600D01*
X472800D02*
X482800D01*
X507200Y448200D02*
X542200D01*
Y431200D02*
Y448200D01*
X507200Y431200D02*
X542200D01*
X507200D02*
Y448200D01*
X612400Y334900D02*
Y369900D01*
X595400Y334900D02*
X612400D01*
X595400D02*
Y369900D01*
X612400D01*
X581500Y237700D02*
Y272700D01*
X598500D01*
Y237700D02*
Y272700D01*
X581500Y237700D02*
X598500D01*
X576800Y237700D02*
Y272700D01*
X559800Y237700D02*
X576800D01*
X559800D02*
Y272700D01*
X576800D01*
X555275Y237700D02*
Y272700D01*
X538275Y237700D02*
X555275D01*
X538275D02*
Y272700D01*
X555275D01*
X533750Y237700D02*
Y272700D01*
X516750Y237700D02*
X533750D01*
X516750D02*
Y272700D01*
X533750D01*
X512225Y237700D02*
Y272700D01*
X495225Y237700D02*
X512225D01*
X495225D02*
Y272700D01*
X512225D01*
X473700Y237700D02*
Y272700D01*
X490700D01*
Y237700D02*
Y272700D01*
X473700Y237700D02*
X490700D01*
X483300Y316600D02*
Y351600D01*
X500300D01*
Y316600D02*
Y351600D01*
X483300Y316600D02*
X500300D01*
X480100Y316500D02*
Y351500D01*
X463100Y316500D02*
X480100D01*
X463100D02*
Y351500D01*
X480100D01*
X478100Y370300D02*
X495100D01*
Y405300D01*
X478100D02*
X495100D01*
X478100Y370300D02*
Y405300D01*
X443900Y375100D02*
Y410100D01*
X460900D01*
Y375100D02*
Y410100D01*
X443900Y375100D02*
X460900D01*
X429900Y251200D02*
X446900D01*
Y286200D01*
X429900D02*
X446900D01*
X429900Y251200D02*
Y286200D01*
X745300Y259300D02*
Y267300D01*
X799300D01*
Y256300D02*
Y267300D01*
Y256300D02*
X802300D01*
Y267300D01*
X799300D02*
X802300D01*
X745249Y237495D02*
Y245495D01*
Y237495D02*
X799249D01*
Y248495D01*
X802249D01*
Y237495D02*
Y248495D01*
X799249Y237495D02*
X802249D01*
X725394Y552448D02*
Y622857D01*
X793034Y622857D01*
X725394Y552448D02*
X793034Y552448D01*
Y622857D01*
X837800Y679600D02*
X872800D01*
X837800D02*
Y696600D01*
X872800D01*
Y679600D02*
Y696600D01*
X783000Y785500D02*
X818000D01*
X783000D02*
Y802500D01*
X818000D01*
Y785500D02*
Y802500D01*
X837800Y725600D02*
X872800D01*
X837800D02*
Y742600D01*
X872800D01*
Y725600D02*
Y742600D01*
X854400Y757000D02*
Y792000D01*
X871400D01*
Y757000D02*
Y792000D01*
X854400Y757000D02*
X871400D01*
X885100Y771500D02*
Y815500D01*
X902100D01*
Y771500D02*
Y815500D01*
X885100Y771500D02*
X902100D01*
X499300Y762800D02*
X516300D01*
Y797800D01*
X499300D02*
X516300D01*
X499300Y762800D02*
Y797800D01*
X461400Y762800D02*
X478400D01*
Y797800D01*
X461400D02*
X478400D01*
X461400Y762800D02*
Y797800D01*
X387300Y845100D02*
Y880100D01*
X404300D01*
Y845100D02*
Y880100D01*
X387300Y845100D02*
X404300D01*
X366900Y845200D02*
Y880200D01*
X383900D01*
Y845200D02*
Y880200D01*
X366900Y845200D02*
X383900D01*
X404200Y807500D02*
Y842500D01*
X387200Y807500D02*
X404200D01*
X387200D02*
Y842500D01*
X404200D01*
X384000Y807500D02*
Y842500D01*
X367000Y807500D02*
X384000D01*
X367000D02*
Y842500D01*
X384000D01*
X361000Y331100D02*
Y366100D01*
X378000D01*
Y331100D02*
Y366100D01*
X361000Y331100D02*
X378000D01*
X702700Y838600D02*
Y879400D01*
X697700Y833600D02*
X702700Y838600D01*
X697700Y884400D02*
X702700Y879400D01*
X682300Y884400D02*
X697700D01*
X682300Y833600D02*
X697700D01*
X677300Y838600D02*
X682300Y833600D01*
X677300Y879400D02*
X682300Y884400D01*
X672300Y833600D02*
X677300Y838600D01*
X672300Y884400D02*
X677300Y879400D01*
X656900Y884400D02*
X672300D01*
X656900Y833600D02*
X672300D01*
X651900Y838600D02*
X656900Y833600D01*
X651900Y879400D02*
X656900Y884400D01*
X646900Y833600D02*
X651900Y838600D01*
X646900Y884400D02*
X651900Y879400D01*
X631500Y884400D02*
X646900D01*
X631500Y833600D02*
X646900D01*
X626500Y879400D02*
X631500Y884400D01*
X626500Y838600D02*
X631500Y833600D01*
X621500D02*
X626500Y838600D01*
X621500Y884400D02*
X626500Y879400D01*
X606100Y833600D02*
X621500D01*
X606100Y884400D02*
X621500D01*
X601100Y838600D02*
X606100Y833600D01*
X601100Y879400D02*
X606100Y884400D01*
X596100Y833600D02*
X601100Y838600D01*
X596100Y884400D02*
X601100Y879400D01*
X580700Y884400D02*
X596100D01*
X580700Y833600D02*
X596100D01*
X575700Y838600D02*
X580700Y833600D01*
X575700Y879400D02*
X580700Y884400D01*
X570700D02*
X575700Y879400D01*
X570700Y833600D02*
X575700Y838600D01*
X555300Y833600D02*
X570700D01*
X555300Y884400D02*
X570700D01*
X550300Y838600D02*
X555300Y833600D01*
X550300Y879400D02*
X555300Y884400D01*
X545300Y833600D02*
X550300Y838600D01*
X545300Y884400D02*
X550300Y879400D01*
X529900Y833600D02*
X545300D01*
X529900Y884400D02*
X545300D01*
X524900Y838600D02*
X529900Y833600D01*
X524900Y879400D02*
X529900Y884400D01*
X519900D02*
X524900Y879400D01*
X519900Y833600D02*
X524900Y838600D01*
X504500Y833600D02*
X519900D01*
X504500Y884400D02*
X519900D01*
X499500Y879400D02*
X504500Y884400D01*
X499500Y838600D02*
X504500Y833600D01*
X494500D02*
X499500Y838600D01*
X494500Y884400D02*
X499500Y879400D01*
X479100Y833600D02*
X494500D01*
X479100Y884400D02*
X494500D01*
X474100Y879400D02*
X479100Y884400D01*
X474100Y838600D02*
X479100Y833600D01*
X469100D02*
X474100Y838600D01*
X469100Y884400D02*
X474100Y879400D01*
X453700Y833600D02*
X469100D01*
X453700Y884400D02*
X469100D01*
X448700Y879400D02*
X453700Y884400D01*
X448700Y838600D02*
X453700Y833600D01*
X448700Y838600D02*
Y879400D01*
X532200Y331750D02*
X564200D01*
X532200Y419250D02*
X564200D01*
Y331750D02*
Y419250D01*
X532200Y331750D02*
Y419250D01*
X372300Y251100D02*
Y286100D01*
X389300D01*
Y251100D02*
Y286100D01*
X372300Y251100D02*
X389300D01*
X424700Y261400D02*
Y268400D01*
X418700Y261400D02*
X424700D01*
X394700D02*
Y268400D01*
Y261400D02*
X400700D01*
X416700Y305970D02*
Y309230D01*
X402700Y305970D02*
Y309230D01*
X433400Y345200D02*
X450400D01*
X433400Y310200D02*
Y345200D01*
Y310200D02*
X450400D01*
Y345200D01*
X392100Y346600D02*
X427100D01*
Y329600D02*
Y346600D01*
X392100Y329600D02*
X427100D01*
X392100D02*
Y346600D01*
X528100Y476000D02*
Y511000D01*
X511100Y476000D02*
X528100D01*
X511100D02*
Y511000D01*
X528100D01*
X514600Y534700D02*
X524600D01*
X515600Y527700D02*
X519600Y534700D01*
X524600Y527700D01*
X515600D02*
X524600D01*
X519600Y534700D02*
Y536700D01*
Y524700D02*
Y527700D01*
X452300Y534575D02*
X462300D01*
X453300Y527575D02*
X457300Y534575D01*
X462300Y527575D01*
X453300D02*
X462300D01*
X457300Y534575D02*
Y536575D01*
Y524575D02*
Y527575D01*
X469400Y510900D02*
X486400D01*
X469400Y475900D02*
Y510900D01*
Y475900D02*
X486400D01*
Y510900D01*
X557600Y485500D02*
X574600D01*
Y520500D01*
X557600D02*
X574600D01*
X557600Y485500D02*
Y520500D01*
X423100Y513100D02*
X440100D01*
Y548100D01*
X423100D02*
X440100D01*
X423100Y513100D02*
Y548100D01*
X384300Y548100D02*
X401300D01*
X384300Y513100D02*
Y548100D01*
Y513100D02*
X401300D01*
Y548100D01*
X423200Y475500D02*
Y510500D01*
X440200D01*
Y475500D02*
Y510500D01*
X423200Y475500D02*
X440200D01*
X403700Y513100D02*
Y548100D01*
X420700D01*
Y513100D02*
Y548100D01*
X403700Y513100D02*
X420700D01*
X347400Y554900D02*
Y589900D01*
X364400D01*
Y554900D02*
Y589900D01*
X347400Y554900D02*
X364400D01*
X366900D02*
Y589900D01*
X383900D01*
Y554900D02*
Y589900D01*
X366900Y554900D02*
X383900D01*
X872250Y539350D02*
Y550350D01*
Y566850D02*
Y592350D01*
Y608850D02*
Y619850D01*
X903750D02*
X909750D01*
X872250D02*
X888250D01*
X909750Y539350D02*
Y619850D01*
X903750Y539350D02*
X909750D01*
X872250D02*
X888250D01*
X885200Y725500D02*
X902200D01*
Y769500D01*
X885200D02*
X902200D01*
X885200Y725500D02*
Y769500D01*
X885300Y679500D02*
X902300D01*
Y723500D01*
X885300D02*
X902300D01*
X885300Y679500D02*
Y723500D01*
X829700Y783400D02*
Y788400D01*
X835700Y800400D02*
X843700D01*
Y793150D02*
Y800400D01*
X835700Y771400D02*
X843700D01*
Y778650D01*
X801300Y781900D02*
X818300D01*
X801300Y746900D02*
Y781900D01*
Y746900D02*
X818300D01*
Y781900D01*
X86550Y852050D02*
X92050D01*
X86550Y845300D02*
Y852050D01*
Y884550D02*
Y891300D01*
Y884550D02*
X92050D01*
X16050D02*
Y891300D01*
X92050Y884550D02*
Y891300D01*
X16050Y845300D02*
Y852050D01*
X92050Y845300D02*
Y852050D01*
X16050Y891300D02*
X92050D01*
X16050Y845300D02*
X92050D01*
X214300Y763250D02*
X230300D01*
X214300Y748750D02*
X230300D01*
X149000Y831700D02*
X171000D01*
X149000Y891700D02*
X171000D01*
X202700Y813600D02*
X215700D01*
X202700D02*
Y887600D01*
X215700Y813600D02*
Y815100D01*
X202700D02*
X215700D01*
X225700D02*
X238700D01*
X225700Y813600D02*
Y815100D01*
X202700Y887600D02*
X205950D01*
X225700Y813600D02*
X238700D01*
X235450Y887600D02*
X238700D01*
Y813600D02*
Y887600D01*
X215700Y847600D02*
X225700D01*
X220700D02*
X224700Y854600D01*
X215700D02*
X220700Y847600D01*
X215700Y854600D02*
X224700D01*
X220700Y845600D02*
Y847600D01*
Y854600D02*
Y857600D01*
X228400Y780450D02*
X231900D01*
X228400D02*
Y790450D01*
X246900Y780450D02*
X250400D01*
Y790450D01*
X301050Y790000D02*
Y795500D01*
Y790000D02*
X307800D01*
X261800D02*
X268550D01*
Y795500D01*
X261800Y719500D02*
X268550D01*
X261800Y795500D02*
X268550D01*
X301050Y719500D02*
X307800D01*
X301050Y795500D02*
X307800D01*
X261800Y719500D02*
Y795500D01*
X307800Y719500D02*
Y795500D01*
D14*
X420600Y291300D02*
G03*
X420600Y291300I-1250J0D01*
G01*
X414950Y326100D02*
G03*
X414950Y326100I-1250J0D01*
G01*
X866300Y558600D02*
G03*
X866300Y558600I-1250J0D01*
G01*
X99800Y850550D02*
G03*
X99800Y850550I-1250J0D01*
G01*
X256150Y796700D02*
G03*
X256150Y796700I-1250J0D01*
G01*
X303800Y802000D02*
G03*
X303800Y802000I-1250J0D01*
G01*
D15*
X148772Y26674D02*
G03*
X190428Y26674I20828J0D01*
G01*
Y112526D02*
G03*
X169600Y133354I-20828J0D01*
G01*
D02*
G03*
X148772Y112526I0J-20828D01*
G01*
X190428Y26674D02*
Y112526D01*
X148772Y26674D02*
Y112526D01*
X163000Y74496D02*
X175700D01*
X169350Y66876D02*
X170620Y74496D01*
X169350Y66876D02*
X171890Y74496D01*
X169350Y66876D02*
X173160Y74496D01*
X169350Y66876D02*
X174430Y74496D01*
X169350Y66876D02*
X175700Y74496D01*
X168080D02*
X169350Y66876D01*
X166810Y74496D02*
X169350Y66876D01*
X165540Y74496D02*
X169350Y66876D01*
X164270Y74496D02*
X169350Y66876D01*
X163000Y74496D02*
X169350Y66876D01*
X163000D02*
X175700D01*
X169350Y64336D02*
Y77036D01*
X134680Y819520D02*
X176720D01*
X134680Y767480D02*
X176720D01*
D16*
X16900Y360200D02*
X246900D01*
Y740200D01*
X16900D02*
X246900D01*
X16900Y360200D02*
Y740200D01*
X434650Y372250D02*
Y412250D01*
X384250Y372250D02*
Y412250D01*
X179200Y146800D02*
X199200D01*
X179200Y172200D02*
X199200D01*
X855500Y844000D02*
X885500D01*
X855500Y819000D02*
X885500D01*
X81150Y814200D02*
Y819200D01*
Y764200D02*
Y769200D01*
X78650Y766700D02*
X83650D01*
X29250Y756700D02*
X88200D01*
Y749204D02*
Y756700D01*
X29200Y834204D02*
X88200D01*
Y756700D02*
Y834204D01*
X29200Y749204D02*
Y834204D01*
Y749204D02*
X88200D01*
D17*
X9650Y223300D02*
X40600D01*
Y354800D01*
X9650D02*
X40600D01*
X9650Y223300D02*
Y354800D01*
X215500Y232950D02*
Y338950D01*
X53950Y232950D02*
X215500D01*
X53950D02*
Y338950D01*
X215500D01*
X259850Y220500D02*
Y352000D01*
X228900Y220500D02*
X259850D01*
X228900D02*
Y352000D01*
X259850D01*
X196950Y5200D02*
Y136550D01*
X227900D01*
Y5200D02*
Y136550D01*
X196950Y5200D02*
X227900D01*
D18*
X490600Y548505D02*
X496060D01*
Y547235D02*
Y548505D01*
X491870Y547235D02*
X496060D01*
X490600Y512945D02*
X493350D01*
X490600D02*
Y548505D01*
X491870Y547235D01*
X501140Y548505D02*
X506600D01*
X501140Y547235D02*
Y548505D01*
Y547235D02*
X505330D01*
X503850Y512945D02*
X506600D01*
Y548505D01*
X505330Y547235D02*
X506600Y548505D01*
X469800Y548380D02*
X475260D01*
Y547110D02*
Y548380D01*
X471070Y547110D02*
X475260D01*
X469800Y512820D02*
X472550D01*
X469800D02*
Y548380D01*
X471070Y547110D01*
X480340Y548380D02*
X485800D01*
X480340Y547110D02*
Y548380D01*
Y547110D02*
X484530D01*
X483050Y512820D02*
X485800D01*
Y548380D01*
X484530Y547110D02*
X485800Y548380D01*
X526330Y547210D02*
X527600Y548480D01*
Y512920D02*
Y548480D01*
X524850Y512920D02*
X527600D01*
X522140Y547210D02*
X526330D01*
X522140D02*
Y548480D01*
X527600D01*
X511600D02*
X512870Y547210D01*
X511600Y512920D02*
Y548480D01*
Y512920D02*
X514350D01*
X512870Y547210D02*
X517060D01*
Y548480D01*
X511600D02*
X517060D01*
X464030Y547085D02*
X465300Y548355D01*
Y512795D02*
Y548355D01*
X462550Y512795D02*
X465300D01*
X459840Y547085D02*
X464030D01*
X459840D02*
Y548355D01*
X465300D01*
X449300D02*
X450570Y547085D01*
X449300Y512795D02*
Y548355D01*
Y512795D02*
X452050D01*
X450570Y547085D02*
X454760D01*
Y548355D01*
X449300D02*
X454760D01*
D19*
X606600Y312300D02*
X632000D01*
X606600Y261500D02*
Y312300D01*
Y261500D02*
X632000D01*
Y312300D01*
X727800Y648300D02*
X778600D01*
X728689Y724498D02*
X779489D01*
X677000Y699100D02*
X702400Y699100D01*
Y724500D01*
X677000D02*
X727800D01*
Y648300D02*
Y724500D01*
X677000Y648300D02*
X727800D01*
X677000D02*
Y724500D01*
D20*
X212550Y787250D02*
Y801700D01*
X203100Y787250D02*
Y801700D01*
X212550D01*
X203100Y787250D02*
X212550D01*
D21*
X798318Y571701D02*
X796652Y573367D01*
Y576700D01*
X798318Y578366D01*
X799984D01*
X801650Y576700D01*
Y575033D01*
Y576700D01*
X803316Y578366D01*
X804983D01*
X806649Y576700D01*
Y573367D01*
X804983Y571701D01*
X719929Y563719D02*
Y557054D01*
X713264Y563719D01*
X711598D01*
X709932Y562052D01*
Y558720D01*
X711598Y557054D01*
D22*
X810337Y271901D02*
Y279899D01*
X813003Y277233D01*
X815668Y279899D01*
Y271901D01*
X818334Y279899D02*
Y271901D01*
Y275900D01*
X823666D01*
Y279899D01*
Y271901D01*
X830330D02*
Y279899D01*
X826332Y275900D01*
X831663D01*
X298637Y247001D02*
Y254999D01*
X301303Y252333D01*
X303968Y254999D01*
Y247001D01*
X306634Y254999D02*
Y247001D01*
Y251000D01*
X311966D01*
Y254999D01*
Y247001D01*
X314632Y253666D02*
X315965Y254999D01*
X318630D01*
X319963Y253666D01*
Y252333D01*
X318630Y251000D01*
X317297D01*
X318630D01*
X319963Y249667D01*
Y248334D01*
X318630Y247001D01*
X315965D01*
X314632Y248334D01*
X798499Y760537D02*
X790501D01*
Y764536D01*
X791834Y765868D01*
X794500D01*
X795833Y764536D01*
Y760537D01*
Y763203D02*
X798499Y765868D01*
Y772533D02*
X790501D01*
X794500Y768534D01*
Y773866D01*
X791834Y776532D02*
X790501Y777865D01*
Y780530D01*
X791834Y781863D01*
X797166D01*
X798499Y780530D01*
Y777865D01*
X797166Y776532D01*
X791834D01*
X783337Y806301D02*
Y814299D01*
X787336D01*
X788668Y812966D01*
Y810300D01*
X787336Y808967D01*
X783337D01*
X786003D02*
X788668Y806301D01*
X791334Y812966D02*
X792667Y814299D01*
X795333D01*
X796666Y812966D01*
Y811633D01*
X795333Y810300D01*
X794000D01*
X795333D01*
X796666Y808967D01*
Y807634D01*
X795333Y806301D01*
X792667D01*
X791334Y807634D01*
X799332D02*
X800665Y806301D01*
X803330D01*
X804663Y807634D01*
Y812966D01*
X803330Y814299D01*
X800665D01*
X799332Y812966D01*
Y811633D01*
X800665Y810300D01*
X804663D01*
X849537Y795001D02*
Y802999D01*
X853536D01*
X854868Y801666D01*
Y799000D01*
X853536Y797667D01*
X849537D01*
X852203D02*
X854868Y795001D01*
X857534Y801666D02*
X858867Y802999D01*
X861533D01*
X862866Y801666D01*
Y800333D01*
X861533Y799000D01*
X860200D01*
X861533D01*
X862866Y797667D01*
Y796334D01*
X861533Y795001D01*
X858867D01*
X857534Y796334D01*
X865532Y801666D02*
X866864Y802999D01*
X869530D01*
X870863Y801666D01*
Y800333D01*
X869530Y799000D01*
X870863Y797667D01*
Y796334D01*
X869530Y795001D01*
X866864D01*
X865532Y796334D01*
Y797667D01*
X866864Y799000D01*
X865532Y800333D01*
Y801666D01*
X866864Y799000D02*
X869530D01*
X829700Y762034D02*
Y767366D01*
X828367Y768699D01*
X825701D01*
X824368Y767366D01*
Y762034D01*
X825701Y760701D01*
X828367D01*
X827034Y763367D02*
X829700Y760701D01*
X828367D02*
X829700Y762034D01*
X832366Y760701D02*
X835032D01*
X833699D01*
Y768699D01*
X832366Y767366D01*
X874901Y795503D02*
X882899D01*
Y799502D01*
X881566Y800835D01*
X876234D01*
X874901Y799502D01*
Y795503D01*
X882899Y803501D02*
Y806167D01*
Y804834D01*
X874901D01*
X876234Y803501D01*
X882899Y815497D02*
Y810165D01*
X877567Y815497D01*
X876234D01*
X874901Y814164D01*
Y811498D01*
X876234Y810165D01*
X649236Y535899D02*
Y529234D01*
X650568Y527901D01*
X653234D01*
X654567Y529234D01*
Y535899D01*
X662564D02*
X659899Y534566D01*
X657233Y531900D01*
Y529234D01*
X658566Y527901D01*
X661232D01*
X662564Y529234D01*
Y530567D01*
X661232Y531900D01*
X657233D01*
X125836Y763699D02*
Y757034D01*
X127168Y755701D01*
X129834D01*
X131167Y757034D01*
Y763699D01*
X139164D02*
X133833D01*
Y759700D01*
X136499Y761033D01*
X137832D01*
X139164Y759700D01*
Y757034D01*
X137832Y755701D01*
X135166D01*
X133833Y757034D01*
X548535Y430399D02*
Y423734D01*
X549868Y422401D01*
X552534D01*
X553867Y423734D01*
Y430399D01*
X560532Y422401D02*
Y430399D01*
X556533Y426400D01*
X561865D01*
X401936Y245999D02*
Y239334D01*
X403268Y238001D01*
X405934D01*
X407267Y239334D01*
Y245999D01*
X409933Y244666D02*
X411266Y245999D01*
X413932D01*
X415265Y244666D01*
Y243333D01*
X413932Y242000D01*
X412599D01*
X413932D01*
X415265Y240667D01*
Y239334D01*
X413932Y238001D01*
X411266D01*
X409933Y239334D01*
X386535Y438799D02*
Y432134D01*
X387868Y430801D01*
X390534D01*
X391867Y432134D01*
Y438799D01*
X399865Y430801D02*
X394533D01*
X399865Y436133D01*
Y437466D01*
X398532Y438799D01*
X395866D01*
X394533Y437466D01*
X394368Y765599D02*
Y758934D01*
X395701Y757601D01*
X398367D01*
X399700Y758934D01*
Y765599D01*
X402366Y757601D02*
X405032D01*
X403699D01*
Y765599D01*
X402366Y764266D01*
X404204Y892899D02*
X409536D01*
X406870D01*
Y884901D01*
X412202D02*
Y892899D01*
X416201D01*
X417534Y891566D01*
Y888900D01*
X416201Y887567D01*
X412202D01*
X420199Y884901D02*
X422865D01*
X421532D01*
Y892899D01*
X420199Y891566D01*
X426864D02*
X428197Y892899D01*
X430863D01*
X432196Y891566D01*
Y886234D01*
X430863Y884901D01*
X428197D01*
X426864Y886234D01*
Y891566D01*
X344337Y892999D02*
X349668D01*
X347003D01*
Y885001D01*
X352334D02*
Y892999D01*
X356333D01*
X357666Y891666D01*
Y889000D01*
X356333Y887667D01*
X352334D01*
X360332Y886334D02*
X361665Y885001D01*
X364330D01*
X365663Y886334D01*
Y891666D01*
X364330Y892999D01*
X361665D01*
X360332Y891666D01*
Y890333D01*
X361665Y889000D01*
X365663D01*
X862734Y609401D02*
X861401Y608068D01*
Y605403D01*
X862734Y604070D01*
X864067D01*
X865400Y605403D01*
Y608068D01*
X866733Y609401D01*
X868066D01*
X869399Y608068D01*
Y605403D01*
X868066Y604070D01*
X861401Y612067D02*
X869399D01*
X866733Y614733D01*
X869399Y617399D01*
X861401D01*
X869399Y620065D02*
Y622730D01*
Y621397D01*
X861401D01*
X862734Y620065D01*
X839000Y820566D02*
X837667Y821899D01*
X835001D01*
X833668Y820566D01*
Y819233D01*
X835001Y817900D01*
X837667D01*
X839000Y816567D01*
Y815234D01*
X837667Y813901D01*
X835001D01*
X833668Y815234D01*
X841666Y813901D02*
X844332D01*
X842999D01*
Y821899D01*
X841666Y820566D01*
X126437Y8201D02*
Y16199D01*
X130435D01*
X131768Y14866D01*
Y12200D01*
X130435Y10867D01*
X126437D01*
X129103D02*
X131768Y8201D01*
X134434Y14866D02*
X135767Y16199D01*
X138433D01*
X139766Y14866D01*
Y13533D01*
X138433Y12200D01*
X137100D01*
X138433D01*
X139766Y10867D01*
Y9534D01*
X138433Y8201D01*
X135767D01*
X134434Y9534D01*
X142432Y14866D02*
X143764Y16199D01*
X146430D01*
X147763Y14866D01*
Y9534D01*
X146430Y8201D01*
X143764D01*
X142432Y9534D01*
Y14866D01*
X389199Y329737D02*
X381201D01*
Y333736D01*
X382534Y335068D01*
X385200D01*
X386533Y333736D01*
Y329737D01*
Y332403D02*
X389199Y335068D01*
Y343066D02*
Y337734D01*
X383867Y343066D01*
X382534D01*
X381201Y341733D01*
Y339067D01*
X382534Y337734D01*
X387866Y345732D02*
X389199Y347065D01*
Y349730D01*
X387866Y351063D01*
X382534D01*
X381201Y349730D01*
Y347065D01*
X382534Y345732D01*
X383867D01*
X385200Y347065D01*
Y351063D01*
X415799Y851337D02*
X407801D01*
Y855335D01*
X409134Y856668D01*
X411800D01*
X413133Y855335D01*
Y851337D01*
Y854003D02*
X415799Y856668D01*
Y864666D02*
Y859334D01*
X410467Y864666D01*
X409134D01*
X407801Y863333D01*
Y860667D01*
X409134Y859334D01*
Y867332D02*
X407801Y868664D01*
Y871330D01*
X409134Y872663D01*
X410467D01*
X411800Y871330D01*
X413133Y872663D01*
X414466D01*
X415799Y871330D01*
Y868664D01*
X414466Y867332D01*
X413133D01*
X411800Y868664D01*
X410467Y867332D01*
X409134D01*
X411800Y868664D02*
Y871330D01*
X363599Y850937D02*
X355601D01*
Y854936D01*
X356934Y856268D01*
X359600D01*
X360933Y854936D01*
Y850937D01*
Y853603D02*
X363599Y856268D01*
Y864266D02*
Y858934D01*
X358267Y864266D01*
X356934D01*
X355601Y862933D01*
Y860267D01*
X356934Y858934D01*
X355601Y866932D02*
Y872263D01*
X356934D01*
X362266Y866932D01*
X363599D01*
X593637Y419101D02*
Y427099D01*
X597635D01*
X598968Y425766D01*
Y423100D01*
X597635Y421767D01*
X593637D01*
X596303D02*
X598968Y419101D01*
X606966D02*
X601634D01*
X606966Y424433D01*
Y425766D01*
X605633Y427099D01*
X602967D01*
X601634Y425766D01*
X614963Y427099D02*
X612297Y425766D01*
X609632Y423100D01*
Y420434D01*
X610965Y419101D01*
X613630D01*
X614963Y420434D01*
Y421767D01*
X613630Y423100D01*
X609632D01*
X535637Y274901D02*
Y282899D01*
X539636D01*
X540968Y281566D01*
Y278900D01*
X539636Y277567D01*
X535637D01*
X538303D02*
X540968Y274901D01*
X548966D02*
X543634D01*
X548966Y280233D01*
Y281566D01*
X547633Y282899D01*
X544967D01*
X543634Y281566D01*
X556963Y282899D02*
X551632D01*
Y278900D01*
X554297Y280233D01*
X555630D01*
X556963Y278900D01*
Y276234D01*
X555630Y274901D01*
X552965D01*
X551632Y276234D01*
X513537Y451301D02*
Y459299D01*
X517536D01*
X518868Y457966D01*
Y455300D01*
X517536Y453967D01*
X513537D01*
X516203D02*
X518868Y451301D01*
X526866D02*
X521534D01*
X526866Y456633D01*
Y457966D01*
X525533Y459299D01*
X522867D01*
X521534Y457966D01*
X533530Y451301D02*
Y459299D01*
X529532Y455300D01*
X534863D01*
X557837Y227201D02*
Y235199D01*
X561836D01*
X563168Y233866D01*
Y231200D01*
X561836Y229867D01*
X557837D01*
X560503D02*
X563168Y227201D01*
X571166D02*
X565834D01*
X571166Y232533D01*
Y233866D01*
X569833Y235199D01*
X567167D01*
X565834Y233866D01*
X573832D02*
X575164Y235199D01*
X577830D01*
X579163Y233866D01*
Y232533D01*
X577830Y231200D01*
X576497D01*
X577830D01*
X579163Y229867D01*
Y228534D01*
X577830Y227201D01*
X575164D01*
X573832Y228534D01*
X579537Y274901D02*
Y282899D01*
X583535D01*
X584868Y281566D01*
Y278900D01*
X583535Y277567D01*
X579537D01*
X582203D02*
X584868Y274901D01*
X592866D02*
X587534D01*
X592866Y280233D01*
Y281566D01*
X591533Y282899D01*
X588867D01*
X587534Y281566D01*
X600863Y274901D02*
X595532D01*
X600863Y280233D01*
Y281566D01*
X599530Y282899D01*
X596865D01*
X595532Y281566D01*
X559670Y523901D02*
Y531899D01*
X563668D01*
X565001Y530566D01*
Y527900D01*
X563668Y526567D01*
X559670D01*
X562336D02*
X565001Y523901D01*
X572999D02*
X567667D01*
X572999Y529233D01*
Y530566D01*
X571666Y531899D01*
X569000D01*
X567667Y530566D01*
X575664Y523901D02*
X578330D01*
X576997D01*
Y531899D01*
X575664Y530566D01*
X466937Y464601D02*
Y472599D01*
X470936D01*
X472268Y471266D01*
Y468600D01*
X470936Y467267D01*
X466937D01*
X469603D02*
X472268Y464601D01*
X480266D02*
X474934D01*
X480266Y469933D01*
Y471266D01*
X478933Y472599D01*
X476267D01*
X474934Y471266D01*
X482932D02*
X484264Y472599D01*
X486930D01*
X488263Y471266D01*
Y465934D01*
X486930Y464601D01*
X484264D01*
X482932Y465934D01*
Y471266D01*
X477203Y409701D02*
Y417699D01*
X481202D01*
X482535Y416366D01*
Y413700D01*
X481202Y412367D01*
X477203D01*
X479869D02*
X482535Y409701D01*
X485201D02*
X487866D01*
X486534D01*
Y417699D01*
X485201Y416366D01*
X491865Y411034D02*
X493198Y409701D01*
X495864D01*
X497197Y411034D01*
Y416366D01*
X495864Y417699D01*
X493198D01*
X491865Y416366D01*
Y415033D01*
X493198Y413700D01*
X497197D01*
X472403Y227401D02*
Y235399D01*
X476402D01*
X477735Y234066D01*
Y231400D01*
X476402Y230067D01*
X472403D01*
X475069D02*
X477735Y227401D01*
X480401D02*
X483066D01*
X481734D01*
Y235399D01*
X480401Y234066D01*
X487065D02*
X488398Y235399D01*
X491064D01*
X492397Y234066D01*
Y232733D01*
X491064Y231400D01*
X492397Y230067D01*
Y228734D01*
X491064Y227401D01*
X488398D01*
X487065Y228734D01*
Y230067D01*
X488398Y231400D01*
X487065Y232733D01*
Y234066D01*
X488398Y231400D02*
X491064D01*
X459903Y355501D02*
Y363499D01*
X463902D01*
X465235Y362166D01*
Y359500D01*
X463902Y358167D01*
X459903D01*
X462569D02*
X465235Y355501D01*
X467901D02*
X470566D01*
X469234D01*
Y363499D01*
X467901Y362166D01*
X474565Y363499D02*
X479897D01*
Y362166D01*
X474565Y356834D01*
Y355501D01*
X595503Y323401D02*
Y331399D01*
X599502D01*
X600835Y330066D01*
Y327400D01*
X599502Y326067D01*
X595503D01*
X598169D02*
X600835Y323401D01*
X603501D02*
X606166D01*
X604834D01*
Y331399D01*
X603501Y330066D01*
X615497Y331399D02*
X612831Y330066D01*
X610165Y327400D01*
Y324734D01*
X611498Y323401D01*
X614164D01*
X615497Y324734D01*
Y326067D01*
X614164Y327400D01*
X610165D01*
X494003Y274801D02*
Y282799D01*
X498002D01*
X499335Y281466D01*
Y278800D01*
X498002Y277467D01*
X494003D01*
X496669D02*
X499335Y274801D01*
X502001D02*
X504666D01*
X503334D01*
Y282799D01*
X502001Y281466D01*
X513997Y282799D02*
X508665D01*
Y278800D01*
X511331Y280133D01*
X512664D01*
X513997Y278800D01*
Y276134D01*
X512664Y274801D01*
X509998D01*
X508665Y276134D01*
X515703Y227401D02*
Y235399D01*
X519702D01*
X521035Y234066D01*
Y231400D01*
X519702Y230067D01*
X515703D01*
X518369D02*
X521035Y227401D01*
X523701D02*
X526366D01*
X525033D01*
Y235399D01*
X523701Y234066D01*
X534364Y227401D02*
Y235399D01*
X530365Y231400D01*
X535697D01*
X486003Y355801D02*
Y363799D01*
X490002D01*
X491335Y362466D01*
Y359800D01*
X490002Y358467D01*
X486003D01*
X488669D02*
X491335Y355801D01*
X494001D02*
X496666D01*
X495334D01*
Y363799D01*
X494001Y362466D01*
X500665D02*
X501998Y363799D01*
X504664D01*
X505997Y362466D01*
Y361133D01*
X504664Y359800D01*
X503331D01*
X504664D01*
X505997Y358467D01*
Y357134D01*
X504664Y355801D01*
X501998D01*
X500665Y357134D01*
X532503Y524101D02*
Y532099D01*
X536502D01*
X537835Y530766D01*
Y528100D01*
X536502Y526767D01*
X532503D01*
X535169D02*
X537835Y524101D01*
X540501D02*
X543167D01*
X541834D01*
Y532099D01*
X540501Y530766D01*
X552497Y524101D02*
X547165D01*
X552497Y529433D01*
Y530766D01*
X551164Y532099D01*
X548498D01*
X547165Y530766D01*
X512936Y465301D02*
Y473299D01*
X516935D01*
X518268Y471966D01*
Y469300D01*
X516935Y467967D01*
X512936D01*
X515602D02*
X518268Y465301D01*
X520934D02*
X523599D01*
X522267D01*
Y473299D01*
X520934Y471966D01*
X527598Y465301D02*
X530264D01*
X528931D01*
Y473299D01*
X527598Y471966D01*
X837203Y745401D02*
Y753399D01*
X841202D01*
X842535Y752066D01*
Y749400D01*
X841202Y748067D01*
X837203D01*
X839869D02*
X842535Y745401D01*
X845201D02*
X847867D01*
X846534D01*
Y753399D01*
X845201Y752066D01*
X851865D02*
X853198Y753399D01*
X855864D01*
X857197Y752066D01*
Y746734D01*
X855864Y745401D01*
X853198D01*
X851865Y746734D01*
Y752066D01*
X837736Y699401D02*
Y707399D01*
X841734D01*
X843067Y706066D01*
Y703400D01*
X841734Y702067D01*
X837736D01*
X840401D02*
X843067Y699401D01*
X845733Y700734D02*
X847066Y699401D01*
X849732D01*
X851065Y700734D01*
Y706066D01*
X849732Y707399D01*
X847066D01*
X845733Y706066D01*
Y704733D01*
X847066Y703400D01*
X851065D01*
X493635Y464801D02*
Y472799D01*
X497634D01*
X498967Y471466D01*
Y468800D01*
X497634Y467467D01*
X493635D01*
X496301D02*
X498967Y464801D01*
X501633Y471466D02*
X502966Y472799D01*
X505632D01*
X506964Y471466D01*
Y470133D01*
X505632Y468800D01*
X506964Y467467D01*
Y466134D01*
X505632Y464801D01*
X502966D01*
X501633Y466134D01*
Y467467D01*
X502966Y468800D01*
X501633Y470133D01*
Y471466D01*
X502966Y468800D02*
X505632D01*
X448036Y464801D02*
Y472799D01*
X452034D01*
X453367Y471466D01*
Y468800D01*
X452034Y467467D01*
X448036D01*
X450701D02*
X453367Y464801D01*
X456033Y472799D02*
X461365D01*
Y471466D01*
X456033Y466134D01*
Y464801D01*
X431535Y289001D02*
Y296999D01*
X435534D01*
X436867Y295666D01*
Y293000D01*
X435534Y291667D01*
X431535D01*
X434201D02*
X436867Y289001D01*
X444865Y296999D02*
X442199Y295666D01*
X439533Y293000D01*
Y290334D01*
X440866Y289001D01*
X443532D01*
X444865Y290334D01*
Y291667D01*
X443532Y293000D01*
X439533D01*
X373635Y289501D02*
Y297499D01*
X377634D01*
X378967Y296166D01*
Y293500D01*
X377634Y292167D01*
X373635D01*
X376301D02*
X378967Y289501D01*
X386964Y297499D02*
X381633D01*
Y293500D01*
X384299Y294833D01*
X385632D01*
X386964Y293500D01*
Y290834D01*
X385632Y289501D01*
X382966D01*
X381633Y290834D01*
X462935Y800601D02*
Y808599D01*
X466934D01*
X468267Y807266D01*
Y804600D01*
X466934Y803267D01*
X462935D01*
X465601D02*
X468267Y800601D01*
X474932D02*
Y808599D01*
X470933Y804600D01*
X476264D01*
X501236Y800501D02*
Y808499D01*
X505234D01*
X506567Y807166D01*
Y804500D01*
X505234Y803167D01*
X501236D01*
X503901D02*
X506567Y800501D01*
X509233Y807166D02*
X510566Y808499D01*
X513232D01*
X514565Y807166D01*
Y805833D01*
X513232Y804500D01*
X511899D01*
X513232D01*
X514565Y803167D01*
Y801834D01*
X513232Y800501D01*
X510566D01*
X509233Y801834D01*
X424436Y550901D02*
Y558899D01*
X428434D01*
X429767Y557566D01*
Y554900D01*
X428434Y553567D01*
X424436D01*
X427101D02*
X429767Y550901D01*
X437765D02*
X432433D01*
X437765Y556233D01*
Y557566D01*
X436432Y558899D01*
X433766D01*
X432433Y557566D01*
X387468Y551001D02*
Y558999D01*
X391467D01*
X392800Y557666D01*
Y555000D01*
X391467Y553667D01*
X387468D01*
X390134D02*
X392800Y551001D01*
X395466D02*
X398132D01*
X396799D01*
Y558999D01*
X395466Y557666D01*
X11699Y719770D02*
X3701D01*
Y723768D01*
X5034Y725101D01*
X7700D01*
X9033Y723768D01*
Y719770D01*
X5034Y733099D02*
X3701Y731766D01*
Y729100D01*
X5034Y727767D01*
X6367D01*
X7700Y729100D01*
Y731766D01*
X9033Y733099D01*
X10366D01*
X11699Y731766D01*
Y729100D01*
X10366Y727767D01*
X11699Y735764D02*
Y738430D01*
Y737097D01*
X3701D01*
X5034Y735764D01*
X340037Y727601D02*
Y735599D01*
X342703Y732933D01*
X345368Y735599D01*
Y727601D01*
X348034Y735599D02*
Y727601D01*
Y731600D01*
X353366D01*
Y735599D01*
Y727601D01*
X361363D02*
X356032D01*
X361363Y732933D01*
Y734266D01*
X360030Y735599D01*
X357365D01*
X356032Y734266D01*
X733270Y812701D02*
Y820699D01*
X735936Y818033D01*
X738601Y820699D01*
Y812701D01*
X741267Y820699D02*
Y812701D01*
Y816700D01*
X746599D01*
Y820699D01*
Y812701D01*
X749265D02*
X751930D01*
X750597D01*
Y820699D01*
X749265Y819366D01*
X53436Y351799D02*
Y343801D01*
X58767D01*
X61433Y350466D02*
X62766Y351799D01*
X65432D01*
X66764Y350466D01*
Y349133D01*
X65432Y347800D01*
X64099D01*
X65432D01*
X66764Y346467D01*
Y345134D01*
X65432Y343801D01*
X62766D01*
X61433Y345134D01*
X111035Y891699D02*
Y883701D01*
X116367D01*
X124365D02*
X119033D01*
X124365Y889033D01*
Y890366D01*
X123032Y891699D01*
X120366D01*
X119033Y890366D01*
X387768Y321299D02*
Y313301D01*
X393100D01*
X395766D02*
X398432D01*
X397099D01*
Y321299D01*
X395766Y319966D01*
X611768Y255399D02*
X609103D01*
X610435D01*
Y248734D01*
X609103Y247401D01*
X607770D01*
X606437Y248734D01*
X614434Y247401D02*
Y255399D01*
X618433D01*
X619766Y254066D01*
Y251400D01*
X618433Y250067D01*
X614434D01*
X627763Y247401D02*
X622432D01*
X627763Y252733D01*
Y254066D01*
X626430Y255399D01*
X623764D01*
X622432Y254066D01*
X680701Y737999D02*
X678036D01*
X679368D01*
Y731334D01*
X678036Y730001D01*
X676703D01*
X675370Y731334D01*
X683367Y730001D02*
Y737999D01*
X687366D01*
X688699Y736666D01*
Y734000D01*
X687366Y732667D01*
X683367D01*
X691365Y730001D02*
X694030D01*
X692697D01*
Y737999D01*
X691365Y736666D01*
X277635Y230499D02*
X274969D01*
X276302D01*
Y223834D01*
X274969Y222501D01*
X273636D01*
X272303Y223834D01*
X280301Y222501D02*
X282966D01*
X281633D01*
Y230499D01*
X280301Y229166D01*
X290964Y222501D02*
Y230499D01*
X286965Y226500D01*
X292297D01*
X141335Y226099D02*
X138669D01*
X140002D01*
Y219434D01*
X138669Y218101D01*
X137336D01*
X136003Y219434D01*
X144001Y218101D02*
X146666D01*
X145333D01*
Y226099D01*
X144001Y224766D01*
X150665D02*
X151998Y226099D01*
X154664D01*
X155997Y224766D01*
Y223433D01*
X154664Y222100D01*
X153331D01*
X154664D01*
X155997Y220767D01*
Y219434D01*
X154664Y218101D01*
X151998D01*
X150665Y219434D01*
X731067Y634499D02*
X728401D01*
X729734D01*
Y627834D01*
X728401Y626501D01*
X727068D01*
X725735Y627834D01*
X733733Y633166D02*
X735066Y634499D01*
X737732D01*
X739064Y633166D01*
Y631833D01*
X737732Y630500D01*
X739064Y629167D01*
Y627834D01*
X737732Y626501D01*
X735066D01*
X733733Y627834D01*
Y629167D01*
X735066Y630500D01*
X733733Y631833D01*
Y633166D01*
X735066Y630500D02*
X737732D01*
X457367Y825899D02*
X454701D01*
X456034D01*
Y819234D01*
X454701Y817901D01*
X453368D01*
X452035Y819234D01*
X460033Y825899D02*
X465364D01*
Y824566D01*
X460033Y819234D01*
Y817901D01*
X597900Y229699D02*
X595234D01*
X596567D01*
Y223034D01*
X595234Y221701D01*
X593901D01*
X592568Y223034D01*
X600566Y221701D02*
X603232D01*
X601899D01*
Y229699D01*
X600566Y228366D01*
X162267Y185899D02*
X156936D01*
Y181900D01*
X159601D01*
X156936D01*
Y177901D01*
X170264D02*
X164933D01*
X170264Y183233D01*
Y184566D01*
X168932Y185899D01*
X166266D01*
X164933Y184566D01*
X191600Y752599D02*
X186268D01*
Y748600D01*
X188934D01*
X186268D01*
Y744601D01*
X194266D02*
X196932D01*
X195599D01*
Y752599D01*
X194266Y751266D01*
X198636Y782799D02*
Y774801D01*
X202635D01*
X203968Y776134D01*
Y781466D01*
X202635Y782799D01*
X198636D01*
X206633Y774801D02*
X209299D01*
X207966D01*
Y782799D01*
X206633Y781466D01*
X213298Y774801D02*
X215964D01*
X214631D01*
Y782799D01*
X213298Y781466D01*
X407801Y814203D02*
X415799D01*
Y818202D01*
X414466Y819535D01*
X409134D01*
X407801Y818202D01*
Y814203D01*
X415799Y822201D02*
Y824866D01*
Y823534D01*
X407801D01*
X409134Y822201D01*
Y828865D02*
X407801Y830198D01*
Y832864D01*
X409134Y834197D01*
X414466D01*
X415799Y832864D01*
Y830198D01*
X414466Y828865D01*
X409134D01*
X356001Y817036D02*
X363999D01*
Y821034D01*
X362666Y822367D01*
X357334D01*
X356001Y821034D01*
Y817036D01*
X362666Y825033D02*
X363999Y826366D01*
Y829032D01*
X362666Y830365D01*
X357334D01*
X356001Y829032D01*
Y826366D01*
X357334Y825033D01*
X358667D01*
X360000Y826366D01*
Y830365D01*
X245336Y813899D02*
Y805901D01*
X249334D01*
X250667Y807234D01*
Y812566D01*
X249334Y813899D01*
X245336D01*
X253333Y812566D02*
X254666Y813899D01*
X257332D01*
X258664Y812566D01*
Y811233D01*
X257332Y809900D01*
X258664Y808567D01*
Y807234D01*
X257332Y805901D01*
X254666D01*
X253333Y807234D01*
Y808567D01*
X254666Y809900D01*
X253333Y811233D01*
Y812566D01*
X254666Y809900D02*
X257332D01*
X216035Y897999D02*
Y890001D01*
X220034D01*
X221367Y891334D01*
Y896666D01*
X220034Y897999D01*
X216035D01*
X224033D02*
X229364D01*
Y896666D01*
X224033Y891334D01*
Y890001D01*
X471335Y558699D02*
Y550701D01*
X475334D01*
X476667Y552034D01*
Y557366D01*
X475334Y558699D01*
X471335D01*
X484664D02*
X481999Y557366D01*
X479333Y554700D01*
Y552034D01*
X480666Y550701D01*
X483332D01*
X484664Y552034D01*
Y553367D01*
X483332Y554700D01*
X479333D01*
X513036Y558699D02*
Y550701D01*
X517034D01*
X518367Y552034D01*
Y557366D01*
X517034Y558699D01*
X513036D01*
X526365D02*
X521033D01*
Y554700D01*
X523699Y556033D01*
X525032D01*
X526365Y554700D01*
Y552034D01*
X525032Y550701D01*
X522366D01*
X521033Y552034D01*
X874701Y756236D02*
X882699D01*
Y760234D01*
X881366Y761567D01*
X876034D01*
X874701Y760234D01*
Y756236D01*
X882699Y768232D02*
X874701D01*
X878700Y764233D01*
Y769565D01*
X875401Y710236D02*
X883399D01*
Y714234D01*
X882066Y715567D01*
X876734D01*
X875401Y714234D01*
Y710236D01*
X876734Y718233D02*
X875401Y719566D01*
Y722232D01*
X876734Y723565D01*
X878067D01*
X879400Y722232D01*
Y720899D01*
Y722232D01*
X880733Y723565D01*
X882066D01*
X883399Y722232D01*
Y719566D01*
X882066Y718233D01*
X492035Y558699D02*
Y550701D01*
X496034D01*
X497367Y552034D01*
Y557366D01*
X496034Y558699D01*
X492035D01*
X505364Y550701D02*
X500033D01*
X505364Y556033D01*
Y557366D01*
X504032Y558699D01*
X501366D01*
X500033Y557366D01*
X451868Y558699D02*
Y550701D01*
X455867D01*
X457200Y552034D01*
Y557366D01*
X455867Y558699D01*
X451868D01*
X459866Y550701D02*
X462532D01*
X461199D01*
Y558699D01*
X459866Y557366D01*
X238335Y11466D02*
X237002Y12799D01*
X234336D01*
X233003Y11466D01*
Y6134D01*
X234336Y4801D01*
X237002D01*
X238335Y6134D01*
X241001Y4801D02*
X243666D01*
X242334D01*
Y12799D01*
X241001Y11466D01*
X247665D02*
X248998Y12799D01*
X251664D01*
X252997Y11466D01*
Y10133D01*
X251664Y8800D01*
X250331D01*
X251664D01*
X252997Y7467D01*
Y6134D01*
X251664Y4801D01*
X248998D01*
X247665Y6134D01*
X254735Y362666D02*
X253402Y363999D01*
X250736D01*
X249403Y362666D01*
Y357334D01*
X250736Y356001D01*
X253402D01*
X254735Y357334D01*
X257401Y356001D02*
X260066D01*
X258734D01*
Y363999D01*
X257401Y362666D01*
X269397Y356001D02*
X264065D01*
X269397Y361333D01*
Y362666D01*
X268064Y363999D01*
X265398D01*
X264065Y362666D01*
X767468Y277966D02*
X766135Y279299D01*
X763469D01*
X762136Y277966D01*
Y272634D01*
X763469Y271301D01*
X766135D01*
X767468Y272634D01*
X770134Y271301D02*
X772799D01*
X771467D01*
Y279299D01*
X770134Y277966D01*
X776798Y271301D02*
X779464D01*
X778131D01*
Y279299D01*
X776798Y277966D01*
X7535Y840966D02*
X6202Y842299D01*
X3536D01*
X2203Y840966D01*
Y835634D01*
X3536Y834301D01*
X6202D01*
X7535Y835634D01*
X10201Y834301D02*
X12866D01*
X11534D01*
Y842299D01*
X10201Y840966D01*
X16865D02*
X18198Y842299D01*
X20864D01*
X22197Y840966D01*
Y835634D01*
X20864Y834301D01*
X18198D01*
X16865Y835634D01*
Y840966D01*
X283067Y811366D02*
X281734Y812699D01*
X279068D01*
X277736Y811366D01*
Y806034D01*
X279068Y804701D01*
X281734D01*
X283067Y806034D01*
X285733D02*
X287066Y804701D01*
X289732D01*
X291064Y806034D01*
Y811366D01*
X289732Y812699D01*
X287066D01*
X285733Y811366D01*
Y810033D01*
X287066Y808700D01*
X291064D01*
X440967Y355366D02*
X439634Y356699D01*
X436968D01*
X435635Y355366D01*
Y350034D01*
X436968Y348701D01*
X439634D01*
X440967Y350034D01*
X443633Y355366D02*
X444966Y356699D01*
X447632D01*
X448965Y355366D01*
Y354033D01*
X447632Y352700D01*
X448965Y351367D01*
Y350034D01*
X447632Y348701D01*
X444966D01*
X443633Y350034D01*
Y351367D01*
X444966Y352700D01*
X443633Y354033D01*
Y355366D01*
X444966Y352700D02*
X447632D01*
X368167Y376066D02*
X366834Y377399D01*
X364168D01*
X362836Y376066D01*
Y370734D01*
X364168Y369401D01*
X366834D01*
X368167Y370734D01*
X370833Y377399D02*
X376165D01*
Y376066D01*
X370833Y370734D01*
Y369401D01*
X4134Y364467D02*
X2801Y363134D01*
Y360468D01*
X4134Y359136D01*
X9466D01*
X10799Y360468D01*
Y363134D01*
X9466Y364467D01*
X2801Y372464D02*
X4134Y369799D01*
X6800Y367133D01*
X9466D01*
X10799Y368466D01*
Y371132D01*
X9466Y372464D01*
X8133D01*
X6800Y371132D01*
Y367133D01*
X449967Y420166D02*
X448634Y421499D01*
X445968D01*
X444636Y420166D01*
Y414834D01*
X445968Y413501D01*
X448634D01*
X449967Y414834D01*
X457965Y421499D02*
X452633D01*
Y417500D01*
X455299Y418833D01*
X456632D01*
X457965Y417500D01*
Y414834D01*
X456632Y413501D01*
X453966D01*
X452633Y414834D01*
X430317Y470866D02*
X428984Y472199D01*
X426318D01*
X424986Y470866D01*
Y465534D01*
X426318Y464201D01*
X428984D01*
X430317Y465534D01*
X436982Y464201D02*
Y472199D01*
X432983Y468200D01*
X438315D01*
X410467Y508166D02*
X409134Y509499D01*
X406468D01*
X405135Y508166D01*
Y502834D01*
X406468Y501501D01*
X409134D01*
X410467Y502834D01*
X413133Y508166D02*
X414466Y509499D01*
X417132D01*
X418465Y508166D01*
Y506833D01*
X417132Y505500D01*
X415799D01*
X417132D01*
X418465Y504167D01*
Y502834D01*
X417132Y501501D01*
X414466D01*
X413133Y502834D01*
X354567Y600666D02*
X353234Y601999D01*
X350568D01*
X349235Y600666D01*
Y595334D01*
X350568Y594001D01*
X353234D01*
X354567Y595334D01*
X362565Y594001D02*
X357233D01*
X362565Y599333D01*
Y600666D01*
X361232Y601999D01*
X358566D01*
X357233Y600666D01*
X376300Y600566D02*
X374967Y601899D01*
X372301D01*
X370968Y600566D01*
Y595234D01*
X372301Y593901D01*
X374967D01*
X376300Y595234D01*
X378966Y593901D02*
X381632D01*
X380299D01*
Y601899D01*
X378966Y600566D01*
X3970Y752899D02*
Y744901D01*
X7968D01*
X9301Y746234D01*
Y747567D01*
X7968Y748900D01*
X3970D01*
X7968D01*
X9301Y750233D01*
Y751566D01*
X7968Y752899D01*
X3970D01*
X11967Y744901D02*
Y752899D01*
X15966D01*
X17299Y751566D01*
Y748900D01*
X15966Y747567D01*
X11967D01*
X14633D02*
X17299Y744901D01*
X19964D02*
X22630D01*
X21297D01*
Y752899D01*
X19964Y751566D01*
D23*
X605326Y300237D02*
D03*
D24*
X675731Y713066D02*
D03*
D25*
X689250Y725771D02*
D03*
D26*
X461684Y831802D02*
D03*
D27*
X89296Y848679D02*
D03*
X89304Y887920D02*
D03*
D28*
X304421Y792748D02*
D03*
X265179Y792752D02*
D03*
M02*
