G04*
G04 #@! TF.GenerationSoftware,Altium Limited,Altium Designer,21.2.2 (38)*
G04*
G04 Layer_Color=8388736*
%FSLAX44Y44*%
%MOMM*%
G71*
G04*
G04 #@! TF.SameCoordinates,8F59D91E-1953-4D82-9988-75C83E7EF0EF*
G04*
G04*
G04 #@! TF.FilePolarity,Positive*
G04*
G01*
G75*
%ADD10C,0.2000*%
%ADD11C,0.5080*%
%ADD16C,0.1270*%
%ADD23C,0.0500*%
%ADD101C,0.2540*%
%ADD111C,0.1000*%
%ADD118C,0.2032*%
%ADD119C,0.0762*%
%ADD120R,1.0160X1.0160*%
%ADD121R,4.6000X1.0222*%
%ADD122R,3.6000X0.6147*%
%ADD123R,4.6000X1.0222*%
D10*
X266700Y487680D02*
G03*
X266700Y474980I0J-6350D01*
G01*
X215900Y461580D02*
X266700D01*
X215900D02*
Y501080D01*
X266700D01*
Y487680D02*
Y501080D01*
Y461580D02*
Y474980D01*
X228488Y414918D02*
Y431918D01*
X193488Y414918D02*
X228488D01*
X193488D02*
Y431918D01*
X228488D01*
X293938Y397646D02*
Y414646D01*
X258938Y397646D02*
X293938D01*
X258938D02*
Y414646D01*
X293938D01*
X219822Y291982D02*
Y308982D01*
X254822D01*
Y291982D02*
Y308982D01*
X219822Y291982D02*
X254822D01*
X259020Y374786D02*
X294020D01*
Y391786D01*
X259020D02*
X294020D01*
X259020Y374786D02*
Y391786D01*
Y355736D02*
X294020D01*
Y372736D01*
X259020D02*
X294020D01*
X259020Y355736D02*
Y372736D01*
X292236Y311852D02*
Y346852D01*
Y311852D02*
X309236D01*
Y346852D01*
X292236D02*
X309236D01*
X272932Y311852D02*
Y346852D01*
Y311852D02*
X289932D01*
Y346852D01*
X272932D02*
X289932D01*
X253628Y311852D02*
Y346852D01*
Y311852D02*
X270628D01*
Y346852D01*
X253628D02*
X270628D01*
X124908Y419472D02*
X159908D01*
X124908Y402472D02*
Y419472D01*
Y402472D02*
X159908D01*
Y419472D01*
X124908Y396866D02*
X159908D01*
X124908Y379866D02*
Y396866D01*
Y379866D02*
X159908D01*
Y396866D01*
X124908Y377308D02*
X159908D01*
X124908Y360308D02*
Y377308D01*
Y360308D02*
X159908D01*
Y377308D01*
X124908Y355718D02*
X159908D01*
X124908Y338718D02*
Y355718D01*
Y338718D02*
X159908D01*
Y355718D01*
X182738Y308982D02*
X217738D01*
X182738Y291982D02*
Y308982D01*
Y291982D02*
X217738D01*
Y308982D01*
X0Y0D02*
X600000D01*
X0D02*
Y600000D01*
X600000Y0D02*
Y600000D01*
X0D02*
X600000D01*
D11*
X83820Y164136D02*
G03*
X83820Y164136I-3810J0D01*
G01*
X527584Y385852D02*
G03*
X527584Y385852I-3810J0D01*
G01*
X335482Y80010D02*
G03*
X335482Y80010I-3810J0D01*
G01*
X536676Y77780D02*
G03*
X536676Y77780I-3810J0D01*
G01*
X83846Y251968D02*
G03*
X83846Y251968I-3810J0D01*
G01*
X81000Y339064D02*
G03*
X81000Y339064I-3810J0D01*
G01*
X527630Y385840D02*
G03*
X527630Y385840I-3810J0D01*
G01*
X335310Y80000D02*
G03*
X335310Y80000I-3810J0D01*
G01*
X83810Y164000D02*
G03*
X83810Y164000I-3810J0D01*
G01*
Y252000D02*
G03*
X83810Y252000I-3810J0D01*
G01*
X80990Y339160D02*
G03*
X80990Y339160I-3810J0D01*
G01*
D16*
X150622Y523748D02*
Y574548D01*
X74422Y523748D02*
Y574548D01*
X150622Y472948D02*
Y523748D01*
X74422D02*
X150622D01*
X74422Y472948D02*
Y523748D01*
Y472948D02*
X150622D01*
X112522Y523748D02*
Y574548D01*
D23*
X508586Y469672D02*
X512586D01*
Y504672D01*
X508586D02*
X512586D01*
X482586D02*
X486586D01*
X482586Y469672D02*
Y504672D01*
Y469672D02*
X486586D01*
Y463672D02*
Y469672D01*
Y463672D02*
X508586D01*
Y469672D01*
Y504672D02*
Y510672D01*
X486586D02*
X508586D01*
X486586Y504672D02*
Y510672D01*
X259064Y129726D02*
Y184726D01*
X333264Y129726D02*
Y184726D01*
X259064D02*
X333264D01*
X259064Y129726D02*
X333264D01*
D101*
X186082Y112400D02*
G03*
X186082Y112400I-2482J0D01*
G01*
X-29490Y139674D02*
X97510D01*
Y222286D01*
X-29490Y139674D02*
Y222286D01*
X97510D01*
X630454Y255550D02*
Y409474D01*
X503454Y255550D02*
X630454D01*
X503454D02*
Y409474D01*
X630454D01*
X237472Y-29490D02*
Y97510D01*
Y-29490D02*
X356134D01*
X237472Y97510D02*
X356134D01*
Y-29490D02*
Y97510D01*
X556488Y-28900D02*
Y98100D01*
X402564D02*
X556488D01*
X402564Y-28900D02*
Y98100D01*
Y-28900D02*
X556488D01*
X-29464Y310118D02*
X97536D01*
X-29464Y227506D02*
Y310118D01*
X97536Y227506D02*
Y310118D01*
X-29464Y227506D02*
X97536D01*
X-29490Y315442D02*
X97510D01*
Y469366D01*
X-29490D02*
X97510D01*
X-29490Y315442D02*
Y469366D01*
X503500Y409462D02*
X630500D01*
X503500Y255538D02*
Y409462D01*
Y255538D02*
X630500D01*
Y409462D01*
X237300Y-29500D02*
Y97500D01*
Y-29500D02*
X355962D01*
X237300Y97500D02*
X355962D01*
Y-29500D02*
Y97500D01*
X-29500Y222150D02*
X97500D01*
X-29500Y139538D02*
Y222150D01*
X97500Y139538D02*
Y222150D01*
X-29500Y139538D02*
X97500D01*
X-29500Y310150D02*
X97500D01*
X-29500Y227538D02*
Y310150D01*
X97500Y227538D02*
Y310150D01*
X-29500Y227538D02*
X97500D01*
X-29500Y315538D02*
Y469462D01*
X97500D01*
Y315538D02*
Y469462D01*
X-29500Y315538D02*
X97500D01*
D111*
X205074Y329236D02*
G03*
X205074Y329236I-5000J0D01*
G01*
X162954Y139801D02*
Y149176D01*
X166254Y139776D02*
Y149226D01*
X151804D02*
X166254D01*
X151804Y139776D02*
X166254D01*
X151804D02*
Y149226D01*
X191074Y407986D02*
X231074D01*
X191074Y320486D02*
X231074D01*
Y407986D01*
X191074Y320486D02*
Y407986D01*
X223500Y191500D02*
Y267500D01*
X269500Y191500D02*
Y267500D01*
X223500D02*
X269500D01*
X223500Y191500D02*
X269500D01*
X139000Y164000D02*
Y224000D01*
Y164000D02*
X199000D01*
Y224000D01*
X139000D02*
X199000D01*
X140000Y115250D02*
X162000D01*
X140000Y101750D02*
X162000D01*
X140000D02*
Y115250D01*
X162000Y101750D02*
Y115250D01*
X139000Y25150D02*
X175000D01*
X139000Y70850D02*
X175000D01*
Y25150D02*
Y70850D01*
X139000Y25150D02*
Y70850D01*
X230000Y11000D02*
Y87000D01*
X184000Y11000D02*
Y87000D01*
Y11000D02*
X230000D01*
X184000Y87000D02*
X230000D01*
X87000Y124750D02*
X118000D01*
X87000Y109250D02*
X118000D01*
Y124750D01*
X87000Y109250D02*
Y124750D01*
D118*
X216048Y106750D02*
G03*
X209952Y106750I-3048J0D01*
G01*
X193250Y156250D02*
X232750D01*
Y106750D02*
Y156250D01*
X193250Y106750D02*
X232750D01*
X193250D02*
Y156250D01*
D119*
X74422Y472948D02*
X150622D01*
X74422D02*
Y523748D01*
X150622D01*
Y472948D02*
Y523748D01*
D120*
X137924Y485648D02*
D03*
D121*
X246500Y196611D02*
D03*
D122*
X156999Y67777D02*
D03*
D123*
X207000Y81889D02*
D03*
M02*
