G04*
G04 #@! TF.GenerationSoftware,Altium Limited,Altium Designer,21.2.2 (38)*
G04*
G04 Layer_Physical_Order=4*
G04 Layer_Color=16711680*
%FSLAX44Y44*%
%MOMM*%
G71*
G04*
G04 #@! TF.SameCoordinates,8F59D91E-1953-4D82-9988-75C83E7EF0EF*
G04*
G04*
G04 #@! TF.FilePolarity,Positive*
G04*
G01*
G75*
%ADD10C,0.2000*%
%ADD15C,0.5000*%
%ADD23C,0.0500*%
%ADD25R,0.9000X1.2000*%
%ADD28R,1.2000X0.9000*%
%ADD29R,5.5118X1.2954*%
%ADD30R,1.2954X5.5118*%
%ADD58C,1.6500*%
%ADD59R,1.6500X1.6500*%
%ADD69C,0.3500*%
%ADD70R,1.6000X1.6000*%
G04:AMPARAMS|DCode=71|XSize=1.5mm|YSize=1.5mm|CornerRadius=0.0525mm|HoleSize=0mm|Usage=FLASHONLY|Rotation=0.000|XOffset=0mm|YOffset=0mm|HoleType=Round|Shape=RoundedRectangle|*
%AMROUNDEDRECTD71*
21,1,1.5000,1.3950,0,0,0.0*
21,1,1.3950,1.5000,0,0,0.0*
1,1,0.1050,0.6975,-0.6975*
1,1,0.1050,-0.6975,-0.6975*
1,1,0.1050,-0.6975,0.6975*
1,1,0.1050,0.6975,0.6975*
%
%ADD71ROUNDEDRECTD71*%
%ADD72C,1.5000*%
%ADD73C,3.0480*%
%ADD74R,4.5720X1.9812*%
G04:AMPARAMS|DCode=75|XSize=2.1mm|YSize=1.5mm|CornerRadius=0.375mm|HoleSize=0mm|Usage=FLASHONLY|Rotation=180.000|XOffset=0mm|YOffset=0mm|HoleType=Round|Shape=RoundedRectangle|*
%AMROUNDEDRECTD75*
21,1,2.1000,0.7500,0,0,180.0*
21,1,1.3500,1.5000,0,0,180.0*
1,1,0.7500,-0.6750,0.3750*
1,1,0.7500,0.6750,0.3750*
1,1,0.7500,0.6750,-0.3750*
1,1,0.7500,-0.6750,-0.3750*
%
%ADD75ROUNDEDRECTD75*%
G04:AMPARAMS|DCode=76|XSize=2.1mm|YSize=1.5mm|CornerRadius=0.375mm|HoleSize=0mm|Usage=FLASHONLY|Rotation=90.000|XOffset=0mm|YOffset=0mm|HoleType=Round|Shape=RoundedRectangle|*
%AMROUNDEDRECTD76*
21,1,2.1000,0.7500,0,0,90.0*
21,1,1.3500,1.5000,0,0,90.0*
1,1,0.7500,0.3750,0.6750*
1,1,0.7500,0.3750,-0.6750*
1,1,0.7500,-0.3750,-0.6750*
1,1,0.7500,-0.3750,0.6750*
%
%ADD76ROUNDEDRECTD76*%
G04:AMPARAMS|DCode=77|XSize=1.55mm|YSize=1.55mm|CornerRadius=0.3875mm|HoleSize=0mm|Usage=FLASHONLY|Rotation=0.000|XOffset=0mm|YOffset=0mm|HoleType=Round|Shape=RoundedRectangle|*
%AMROUNDEDRECTD77*
21,1,1.5500,0.7750,0,0,0.0*
21,1,0.7750,1.5500,0,0,0.0*
1,1,0.7750,0.3875,-0.3875*
1,1,0.7750,-0.3875,-0.3875*
1,1,0.7750,-0.3875,0.3875*
1,1,0.7750,0.3875,0.3875*
%
%ADD77ROUNDEDRECTD77*%
%ADD78C,1.5500*%
%ADD79C,0.6000*%
%ADD93R,0.4000X0.6000*%
G04:AMPARAMS|DCode=94|XSize=0.65mm|YSize=1.65mm|CornerRadius=0.0488mm|HoleSize=0mm|Usage=FLASHONLY|Rotation=270.000|XOffset=0mm|YOffset=0mm|HoleType=Round|Shape=RoundedRectangle|*
%AMROUNDEDRECTD94*
21,1,0.6500,1.5525,0,0,270.0*
21,1,0.5525,1.6500,0,0,270.0*
1,1,0.0975,-0.7763,-0.2763*
1,1,0.0975,-0.7763,0.2763*
1,1,0.0975,0.7763,0.2763*
1,1,0.0975,0.7763,-0.2763*
%
%ADD94ROUNDEDRECTD94*%
%ADD95R,2.4500X2.5500*%
%ADD96R,5.7000X1.8000*%
%ADD97R,1.5500X0.6000*%
%ADD98R,0.7000X0.9000*%
%ADD99R,2.1500X2.4500*%
%ADD100R,1.2500X1.6500*%
%ADD101C,0.2540*%
G36*
X298196Y552467D02*
X296926Y552127D01*
X296302Y553208D01*
X294208Y555302D01*
X291642Y556783D01*
X288781Y557550D01*
X285819D01*
X282958Y556783D01*
X280392Y555302D01*
X278298Y553208D01*
X276817Y550642D01*
X276050Y547781D01*
Y544819D01*
X276817Y541958D01*
X278298Y539392D01*
X280392Y537298D01*
X282958Y535817D01*
X285819Y535050D01*
X288781D01*
X291642Y535817D01*
X294208Y537298D01*
X296302Y539392D01*
X296926Y540473D01*
X298196Y540132D01*
Y535178D01*
X310741D01*
X311219Y535050D01*
X314181D01*
X314659Y535178D01*
X315170D01*
X344642Y505706D01*
X346627Y504380D01*
X348968Y503914D01*
X383167D01*
X394378Y492703D01*
Y489020D01*
X393108Y488287D01*
X392907Y488403D01*
X391254Y488846D01*
X389542D01*
X387889Y488403D01*
X386407Y487547D01*
X385197Y486337D01*
X384458Y485057D01*
X379207Y479806D01*
X358336D01*
X358172Y480018D01*
X358498Y481672D01*
X358575Y481717D01*
X359785Y482927D01*
X360641Y484409D01*
X361084Y486062D01*
Y487774D01*
X360641Y489427D01*
X359785Y490909D01*
X358575Y492119D01*
X357093Y492975D01*
X355440Y493418D01*
X353728D01*
X352075Y492975D01*
X350593Y492119D01*
X349383Y490909D01*
X348644Y489629D01*
X338820Y479806D01*
X303729D01*
X303141Y481076D01*
X303745Y482123D01*
X304188Y483776D01*
Y485488D01*
X303745Y487141D01*
X302889Y488623D01*
X301679Y489833D01*
X300197Y490689D01*
X298544Y491132D01*
X296832D01*
X295405Y490750D01*
X174492D01*
X164613Y500628D01*
Y574554D01*
X175508Y585448D01*
X298196D01*
Y552467D01*
D02*
G37*
G36*
X594360Y205430D02*
X544538D01*
Y198118D01*
X497096D01*
X483130Y212084D01*
Y376936D01*
X482664Y379277D01*
X481338Y381262D01*
X460523Y402076D01*
Y447173D01*
X477782Y464431D01*
X479108Y466416D01*
X479574Y468757D01*
Y515665D01*
X479108Y518006D01*
X478237Y519310D01*
X478227Y531114D01*
X466659D01*
X466143Y531630D01*
X464158Y532956D01*
X461817Y533422D01*
X448460D01*
X446118Y532956D01*
X444908Y532147D01*
X443765Y532910D01*
X444013Y534162D01*
Y538737D01*
X444396Y540164D01*
Y541876D01*
X443953Y543529D01*
X443272Y544708D01*
X443594Y546109D01*
X443707Y546139D01*
X445189Y546995D01*
X446399Y548205D01*
X447255Y549687D01*
X447698Y551340D01*
Y553052D01*
X447255Y554705D01*
X446399Y556187D01*
X445189Y557397D01*
X443707Y558253D01*
X442054Y558696D01*
X440342D01*
X438915Y558313D01*
X435356D01*
X433015Y557848D01*
X431030Y556522D01*
X425848Y551339D01*
X424260Y551548D01*
X423302Y553208D01*
X421208Y555302D01*
X418642Y556783D01*
X415781Y557550D01*
X412819D01*
X409958Y556783D01*
X407392Y555302D01*
X405298Y553208D01*
X403817Y550642D01*
X403050Y547781D01*
Y544819D01*
X403817Y541958D01*
X405298Y539392D01*
X406047Y538643D01*
X405923Y537379D01*
X405170Y536876D01*
X402596Y534301D01*
X392495D01*
X392328Y535572D01*
X393242Y535817D01*
X395808Y537298D01*
X397902Y539392D01*
X399383Y541958D01*
X400150Y544819D01*
Y547781D01*
X399383Y550642D01*
X397902Y553208D01*
X395808Y555302D01*
X393242Y556783D01*
X390381Y557550D01*
X387419D01*
X384558Y556783D01*
X381992Y555302D01*
X379898Y553208D01*
X378417Y550642D01*
X377650Y547781D01*
Y544819D01*
X378417Y541958D01*
X378590Y541658D01*
X377574Y540878D01*
X374514Y543938D01*
X374750Y544819D01*
Y547781D01*
X373983Y550642D01*
X372502Y553208D01*
X370408Y555302D01*
X367842Y556783D01*
X364981Y557550D01*
X362019D01*
X359158Y556783D01*
X356592Y555302D01*
X354498Y553208D01*
X353017Y550642D01*
X352250Y547781D01*
Y544819D01*
X353017Y541958D01*
X353190Y541658D01*
X352174Y540878D01*
X349114Y543938D01*
X349350Y544819D01*
Y547781D01*
X348583Y550642D01*
X347102Y553208D01*
X345008Y555302D01*
X342442Y556783D01*
X339581Y557550D01*
X336619D01*
X333758Y556783D01*
X331192Y555302D01*
X329098Y553208D01*
X327617Y550642D01*
X326850Y547781D01*
Y544819D01*
X327617Y541958D01*
X327790Y541658D01*
X326773Y540878D01*
X323714Y543938D01*
X323950Y544819D01*
Y547781D01*
X323183Y550642D01*
X321702Y553208D01*
X319608Y555302D01*
X317042Y556783D01*
X314181Y557550D01*
X311219D01*
X308358Y556783D01*
X305792Y555302D01*
X303698Y553208D01*
X303022Y552037D01*
X301752Y552378D01*
Y552404D01*
X301765Y552467D01*
Y585448D01*
X447046D01*
X460989Y571506D01*
Y549907D01*
X460606Y548480D01*
Y546768D01*
X461049Y545115D01*
X461905Y543633D01*
X463115Y542423D01*
X464597Y541567D01*
X466250Y541124D01*
X467962D01*
X469615Y541567D01*
X471097Y542423D01*
X472307Y543633D01*
X473163Y545115D01*
X473606Y546768D01*
Y548480D01*
X473223Y549907D01*
Y574040D01*
X472758Y576381D01*
X471432Y578366D01*
X456611Y593187D01*
X457097Y594360D01*
X594360D01*
X594360Y205430D01*
D02*
G37*
G36*
X145542Y521683D02*
X144272Y520950D01*
X142457Y521997D01*
X139469Y522798D01*
X136375D01*
X133387Y521997D01*
X130707Y520450D01*
X128520Y518263D01*
X126973Y515583D01*
X126172Y512595D01*
Y509501D01*
X126973Y506513D01*
X128520Y503833D01*
X130707Y501646D01*
X133387Y500099D01*
X136375Y499298D01*
X139469D01*
X142457Y500099D01*
X144272Y501147D01*
X145542Y500413D01*
Y497398D01*
X126172D01*
Y473898D01*
X135259D01*
X135644Y472628D01*
X135374Y472448D01*
X114560Y451633D01*
X111069D01*
Y454881D01*
X48951D01*
Y434927D01*
X111069D01*
Y439398D01*
X114463D01*
X114585Y439328D01*
X115062Y439200D01*
X115442Y437783D01*
X112768Y435110D01*
X111442Y433125D01*
X110976Y430784D01*
Y419881D01*
X48951D01*
Y399927D01*
X111069D01*
Y403268D01*
X115045D01*
X116238Y402948D01*
X117950D01*
X119603Y403391D01*
X121085Y404247D01*
X122295Y405457D01*
X122638Y406050D01*
X123908Y405710D01*
Y401472D01*
X124714D01*
Y397866D01*
X123908D01*
Y394483D01*
X123444D01*
X121103Y394018D01*
X119118Y392692D01*
X114992Y388565D01*
X113665Y386580D01*
X113200Y384239D01*
Y380179D01*
X113069Y379953D01*
X112626Y378300D01*
Y376588D01*
X113069Y374935D01*
X113925Y373453D01*
X115135Y372243D01*
X116617Y371387D01*
X118270Y370944D01*
X119982D01*
X121635Y371387D01*
X122638Y371966D01*
X123908Y371346D01*
Y359308D01*
X124714D01*
Y356718D01*
X123908D01*
Y337718D01*
X124714D01*
Y316954D01*
X123602Y316733D01*
X122445Y315959D01*
X121671Y314802D01*
X121399Y313436D01*
Y312067D01*
X121445Y311836D01*
X121430Y311601D01*
X121580Y311159D01*
X121671Y310701D01*
X121802Y310505D01*
X121878Y310282D01*
X122182Y309936D01*
X121291Y309045D01*
X120435Y307563D01*
X119992Y305910D01*
Y304198D01*
X120435Y302545D01*
X121291Y301063D01*
X122182Y300172D01*
X121878Y299825D01*
X121802Y299603D01*
X121671Y299407D01*
X121580Y298949D01*
X121430Y298507D01*
X121445Y298272D01*
X121399Y298041D01*
Y265060D01*
X120129Y264438D01*
X118712Y264818D01*
X117000D01*
X115347Y264375D01*
X113865Y263519D01*
X112655Y262309D01*
X112365Y261807D01*
X111095Y261945D01*
Y261945D01*
X84653D01*
X84362Y262425D01*
X84193Y263215D01*
X85211Y264233D01*
X86067Y265715D01*
X86510Y267368D01*
Y269080D01*
X86128Y270507D01*
Y276991D01*
X111095D01*
Y296945D01*
X48977D01*
Y276991D01*
X73892D01*
Y270507D01*
X73510Y269080D01*
Y267368D01*
X73953Y265715D01*
X74809Y264233D01*
X75827Y263215D01*
X75658Y262425D01*
X75367Y261945D01*
X48977D01*
Y241991D01*
X111095D01*
Y246474D01*
X112130D01*
X114471Y246940D01*
X116456Y248266D01*
X120129Y251940D01*
X121399Y251414D01*
Y224037D01*
X121252Y223924D01*
X119540D01*
X117887Y223481D01*
X116405Y222625D01*
X115195Y221415D01*
X114339Y219933D01*
X113896Y218280D01*
Y216568D01*
X114339Y214915D01*
X115195Y213433D01*
X116405Y212223D01*
X117887Y211367D01*
X119540Y210924D01*
X121252D01*
X121399Y210811D01*
Y195261D01*
X121454Y194989D01*
X121442Y194712D01*
X121588Y194312D01*
X121671Y193895D01*
X121825Y193665D01*
X121920Y193405D01*
X122208Y193091D01*
X122445Y192737D01*
X122675Y192583D01*
X122862Y192379D01*
X123204Y192129D01*
X123698Y191900D01*
X124171Y191629D01*
X124714Y191446D01*
Y172786D01*
X123444Y172260D01*
X122609Y173095D01*
X121127Y173951D01*
X119474Y174394D01*
X117762D01*
X116109Y173951D01*
X114627Y173095D01*
X113417Y171885D01*
X112678Y170605D01*
X112339Y170266D01*
X111069Y170477D01*
Y174113D01*
X82188D01*
X82058Y174300D01*
X82437Y175985D01*
X82731Y176155D01*
X83941Y177365D01*
X84797Y178847D01*
X85240Y180500D01*
Y182212D01*
X84858Y183639D01*
Y189159D01*
X111069D01*
Y209113D01*
X48951D01*
Y189159D01*
X72622D01*
Y183639D01*
X72240Y182212D01*
Y180500D01*
X72683Y178847D01*
X73539Y177365D01*
X74749Y176155D01*
X75043Y175985D01*
X75422Y174300D01*
X75292Y174113D01*
X48951D01*
Y157746D01*
X6246D01*
X5349Y158645D01*
X5601Y594360D01*
X145542D01*
Y521683D01*
D02*
G37*
G36*
X182214Y450574D02*
X181012Y448492D01*
X180262Y445694D01*
Y442798D01*
X181012Y440000D01*
X182460Y437492D01*
X184508Y435444D01*
X187016Y433996D01*
X189814Y433246D01*
X191354D01*
X192488Y432918D01*
Y429027D01*
X188976D01*
X186635Y428562D01*
X184650Y427236D01*
X178498Y421084D01*
X177172Y419099D01*
X176707Y416758D01*
Y409370D01*
X176500Y409164D01*
X175061D01*
X173935Y408940D01*
X170958D01*
X164600Y415298D01*
X162615Y416624D01*
X160908Y416963D01*
X160908Y420171D01*
X161335Y420894D01*
X161810Y421362D01*
X162992Y422044D01*
X164202Y423254D01*
X165058Y424736D01*
X165501Y426390D01*
Y428101D01*
X165058Y429754D01*
X164202Y431236D01*
X162992Y432447D01*
X161510Y433302D01*
X159857Y433745D01*
X158145D01*
X156492Y433302D01*
X155010Y432447D01*
X153799Y431236D01*
X152944Y429754D01*
X152501Y428101D01*
Y426390D01*
X152944Y424736D01*
X153799Y423254D01*
X155010Y422044D01*
X155533Y421742D01*
X155193Y420472D01*
X144908D01*
Y408940D01*
X141091D01*
X139908Y410123D01*
Y420472D01*
X123908D01*
X123211Y421454D01*
Y428250D01*
X146806Y451844D01*
X156311D01*
X156822Y451221D01*
Y446746D01*
X174902D01*
Y451221D01*
X175413Y451844D01*
X181633D01*
X182214Y450574D01*
D02*
G37*
G36*
X425682Y453980D02*
Y381995D01*
X424373Y380685D01*
X423895Y380961D01*
X422242Y381404D01*
X420530D01*
X418877Y380961D01*
X417625Y380238D01*
X416814D01*
Y379524D01*
X416185Y378895D01*
X415329Y377413D01*
X414886Y375760D01*
Y374048D01*
X415269Y372621D01*
Y205574D01*
X414058Y205430D01*
Y205430D01*
X361961D01*
X361686Y206700D01*
X362893Y207397D01*
X364103Y208607D01*
X364959Y210089D01*
X365402Y211742D01*
Y213454D01*
X365093Y214608D01*
X365846Y215879D01*
X383289D01*
X384716Y215496D01*
X386428D01*
X388081Y215939D01*
X389563Y216795D01*
X390773Y218005D01*
X391629Y219487D01*
X392072Y221140D01*
Y222852D01*
X391629Y224505D01*
X390773Y225987D01*
X389563Y227197D01*
X388081Y228053D01*
X386428Y228496D01*
X384716D01*
X384401Y228412D01*
X383725Y229149D01*
X383528Y229492D01*
X383944Y231046D01*
Y232758D01*
X383501Y234411D01*
X382645Y235893D01*
X381435Y237103D01*
X379953Y237959D01*
X378300Y238402D01*
X376588D01*
X375161Y238020D01*
X351708D01*
X351222Y239193D01*
X381752Y269722D01*
X383078Y271707D01*
X383544Y274048D01*
Y413500D01*
X424509Y454466D01*
X425682Y453980D01*
D02*
G37*
G36*
X165204Y313342D02*
X165647Y311689D01*
X166503Y310207D01*
X167713Y308997D01*
X168993Y308258D01*
X172444Y304806D01*
Y253423D01*
X172910Y251082D01*
X174236Y249097D01*
X194660Y228673D01*
X194174Y227500D01*
X171500D01*
Y219500D01*
X199000D01*
Y222674D01*
X200173Y223160D01*
X201607Y221726D01*
Y217723D01*
X201416Y217010D01*
Y215298D01*
X201859Y213645D01*
X202715Y212163D01*
X203925Y210953D01*
X205407Y210097D01*
X207060Y209654D01*
X208772D01*
X209664Y209893D01*
X210935Y209009D01*
Y200712D01*
X210012Y200180D01*
X209664Y200142D01*
X208120Y200556D01*
X206408D01*
X204755Y200113D01*
X203273Y199257D01*
X202063Y198047D01*
X201207Y196565D01*
X200940Y195569D01*
X128500Y195569D01*
X127134Y195297D01*
X126238Y194698D01*
X125310Y195011D01*
X124968Y195261D01*
Y212804D01*
X125597Y213433D01*
X126453Y214915D01*
X126896Y216568D01*
Y218280D01*
X126453Y219933D01*
X125597Y221415D01*
X124968Y222044D01*
Y298041D01*
X125636Y298554D01*
X127348D01*
X129001Y298997D01*
X130483Y299853D01*
X131693Y301063D01*
X132549Y302545D01*
X132992Y304198D01*
Y305910D01*
X132549Y307563D01*
X131693Y309045D01*
X130483Y310255D01*
X129001Y311111D01*
X127348Y311554D01*
X125636D01*
X124968Y312067D01*
Y313436D01*
X165204D01*
Y313342D01*
D02*
G37*
G36*
X201207Y191547D02*
X202063Y190065D01*
X203273Y188855D01*
X204755Y187999D01*
X206408Y187556D01*
X208120D01*
X209664Y187970D01*
X210012Y187932D01*
X210935Y187400D01*
Y157435D01*
X209500Y156000D01*
X201683D01*
X200507Y156679D01*
X198854Y157122D01*
X197142D01*
X196873Y157050D01*
X174750D01*
Y156000D01*
X171000D01*
X170000Y155000D01*
Y132500D01*
X171000Y131500D01*
X174750D01*
Y131350D01*
X185909D01*
X186500Y131232D01*
X191678D01*
X191894Y130920D01*
X191228Y129650D01*
X188500D01*
Y125150D01*
X186000D01*
Y122650D01*
X175814D01*
X175480Y122423D01*
X174750Y122569D01*
X171500D01*
X170134Y122297D01*
X168977Y121523D01*
X168294Y120502D01*
X167945Y120322D01*
X166863Y120137D01*
X166000Y121000D01*
Y124500D01*
X165398Y125102D01*
X164500Y126000D01*
X164106Y127270D01*
X164360Y128216D01*
Y129927D01*
X163917Y131580D01*
X163061Y133063D01*
X161851Y134273D01*
X160368Y135129D01*
X158715Y135572D01*
X157004D01*
X155351Y135129D01*
X155270Y135082D01*
X154000Y135460D01*
Y138526D01*
X160504D01*
Y140026D01*
X160504D01*
Y144526D01*
Y149026D01*
X160504D01*
Y150526D01*
X150504D01*
Y149389D01*
X146026D01*
X145302Y150114D01*
Y150592D01*
X144859Y152245D01*
X144003Y153727D01*
X142793Y154937D01*
X141311Y155793D01*
X139657Y156236D01*
X137946D01*
X136293Y155793D01*
X134811Y154937D01*
X133600Y153727D01*
X132745Y152245D01*
X132302Y150592D01*
Y148880D01*
X132745Y147227D01*
X133600Y145745D01*
X133049Y144500D01*
X128500D01*
X128500Y144500D01*
Y153500D01*
X128500Y192000D01*
X201086Y192000D01*
X201207Y191547D01*
D02*
G37*
G36*
X244340Y217670D02*
X246325Y216344D01*
X248666Y215879D01*
X336124D01*
X336610Y214705D01*
X269143Y147239D01*
X267970Y147725D01*
Y158500D01*
X232500Y158500D01*
X231670Y158844D01*
Y162814D01*
Y184542D01*
X232750Y185000D01*
X232940Y185000D01*
X244000D01*
Y199250D01*
Y213500D01*
X232940D01*
X232750Y213500D01*
X231670Y213958D01*
Y228682D01*
X232843Y229168D01*
X244340Y217670D01*
D02*
G37*
G36*
X470900Y171196D02*
X457700Y157996D01*
X456374Y156011D01*
X455909Y153670D01*
Y111659D01*
X452049D01*
Y49541D01*
X472003D01*
Y111659D01*
X468144D01*
Y151136D01*
X482086Y165079D01*
X507749D01*
X509176Y164696D01*
X510888D01*
X512541Y165139D01*
X514023Y165995D01*
X515233Y167205D01*
X516089Y168687D01*
X516532Y170340D01*
Y172052D01*
X516089Y173705D01*
X515233Y175187D01*
X515182Y175238D01*
X515708Y176509D01*
X518166D01*
X528074Y166600D01*
X527700Y166226D01*
X526374Y164241D01*
X525909Y161900D01*
Y147110D01*
X524943Y146553D01*
X524638Y146544D01*
X523080Y146962D01*
X521368D01*
X519715Y146519D01*
X518233Y145663D01*
X517023Y144453D01*
X516284Y143173D01*
X510278Y137168D01*
X508952Y135183D01*
X508487Y132842D01*
Y49016D01*
X504260Y44790D01*
X503144Y45469D01*
Y49541D01*
X507003D01*
Y111659D01*
X487049D01*
Y49541D01*
X490909D01*
Y47694D01*
X482076Y38862D01*
X432562D01*
X432528Y48641D01*
X433424Y49541D01*
X437003D01*
Y111659D01*
X433144D01*
Y150680D01*
X447810Y165346D01*
X449136Y167331D01*
X449602Y169672D01*
Y187960D01*
X454137D01*
X470900Y171196D01*
D02*
G37*
G36*
X210935Y151422D02*
Y121500D01*
X205000D01*
X203500Y123000D01*
Y132000D01*
X202500Y133000D01*
X196375D01*
X195250Y133350D01*
Y135350D01*
X176750D01*
Y134918D01*
X175504D01*
X174750Y135069D01*
X173569D01*
Y143837D01*
X174750Y144050D01*
Y144050D01*
X197250D01*
Y144122D01*
X198854D01*
X200507Y144565D01*
X201260Y145000D01*
X204500D01*
X206000Y146500D01*
Y151000D01*
X207431Y152431D01*
X209500D01*
X209664Y152464D01*
X210935Y151422D01*
D02*
G37*
G36*
X436222Y176441D02*
X437366Y176045D01*
Y172206D01*
X422700Y157540D01*
X421374Y155555D01*
X420909Y153214D01*
Y111659D01*
X417049D01*
Y49541D01*
X419778D01*
Y47693D01*
X419647Y47467D01*
X419204Y45814D01*
Y44102D01*
X419647Y42449D01*
X420503Y40967D01*
X421570Y39899D01*
X421475Y39300D01*
X421125Y38630D01*
X372358D01*
X359686Y51302D01*
Y175839D01*
X360068Y176121D01*
X361338Y175479D01*
Y153218D01*
Y127818D01*
X362312D01*
X363338Y127230D01*
X363338Y126548D01*
Y118324D01*
X412058D01*
Y126548D01*
X412058Y127230D01*
X413084Y127818D01*
X414058D01*
Y153218D01*
Y160483D01*
X417600D01*
X419941Y160948D01*
X421926Y162274D01*
X436096Y176445D01*
X436222Y176441D01*
D02*
G37*
G36*
X48951Y154159D02*
X101500D01*
X101500Y123592D01*
X99853Y123151D01*
X98371Y122295D01*
X97161Y121085D01*
X96305Y119603D01*
X95862Y117950D01*
Y116238D01*
X96305Y114585D01*
X97161Y113103D01*
X98371Y111893D01*
X99853Y111037D01*
X101500Y110596D01*
X101500Y96000D01*
X119000Y96000D01*
X119000Y49000D01*
X76500Y49000D01*
X74500Y51000D01*
Y95000D01*
X71500Y98000D01*
X5334Y98000D01*
X5334Y154178D01*
X48951D01*
Y154159D01*
D02*
G37*
G36*
X124931Y144500D02*
X125203Y143134D01*
X125977Y141977D01*
X125977Y141977D01*
X127134Y141203D01*
X128500Y140931D01*
X131572D01*
Y136500D01*
X135500D01*
Y116652D01*
X131572Y112724D01*
X130920Y112072D01*
X129594Y110087D01*
X129128Y107746D01*
Y88965D01*
X128746Y87538D01*
Y85826D01*
X129189Y84173D01*
X130044Y82691D01*
X131255Y81481D01*
X131770Y81183D01*
X132737Y80625D01*
X134390Y80182D01*
X136102D01*
X137755Y80625D01*
X139237Y81481D01*
X140447Y82691D01*
X141303Y84173D01*
X141746Y85826D01*
Y87538D01*
X141363Y88965D01*
D01*
Y105212D01*
X146152Y110000D01*
X164500D01*
Y115968D01*
X164514Y115991D01*
X164863Y116293D01*
X165770Y116786D01*
X165794Y116781D01*
X166070Y116658D01*
X166470Y116647D01*
X166863Y116569D01*
X167160Y116628D01*
X167462Y116619D01*
X168544Y116804D01*
X169055Y116999D01*
X169580Y117150D01*
X169930Y117330D01*
X170089Y117457D01*
X170277Y117535D01*
X170629Y117887D01*
X171019Y118198D01*
X171118Y118376D01*
X171261Y118519D01*
X171500Y118877D01*
Y119000D01*
X174750D01*
Y118650D01*
X197250D01*
Y118650D01*
X198234Y117959D01*
X198281Y117856D01*
X198209Y117730D01*
D01*
X197677Y116809D01*
X197234Y115156D01*
Y113444D01*
X197677Y111791D01*
X198533Y110309D01*
X199743Y109099D01*
X201225Y108243D01*
X202878Y107800D01*
X204590D01*
X206243Y108243D01*
X207725Y109099D01*
X208935Y110309D01*
X209664Y111572D01*
X210512Y111515D01*
X210935Y111354D01*
Y102683D01*
X211400Y100342D01*
X212726Y98357D01*
X216411Y94673D01*
X215924Y93500D01*
X209500D01*
Y81750D01*
X220750D01*
Y88674D01*
X221923Y89160D01*
X225275Y85809D01*
Y48000D01*
X130500Y48000D01*
Y48082D01*
X129983Y48428D01*
X129944Y48467D01*
X129619Y48602D01*
X129327Y48797D01*
X128982Y48865D01*
X128657Y49000D01*
X128306Y49000D01*
X127961Y49069D01*
X123190D01*
X123190Y99822D01*
X120512Y102500D01*
X105500D01*
Y103160D01*
X105069Y103591D01*
Y110596D01*
X105023Y110827D01*
X105038Y111061D01*
X104888Y111503D01*
X104797Y111961D01*
X104666Y112157D01*
X104591Y112380D01*
X104283Y112731D01*
X104023Y113119D01*
X103828Y113250D01*
X103672Y113427D01*
X103254Y113633D01*
X102866Y113893D01*
X102635Y113939D01*
X102424Y114043D01*
X101230Y114362D01*
X100562Y114748D01*
X100016Y115294D01*
X99630Y115962D01*
X99568Y116195D01*
Y117993D01*
X99630Y118225D01*
X100016Y118894D01*
X100562Y119440D01*
X101230Y119826D01*
X102424Y120145D01*
X102635Y120250D01*
X102866Y120295D01*
X103254Y120555D01*
X103672Y120761D01*
X103828Y120938D01*
X104023Y121069D01*
X104283Y121457D01*
X104591Y121808D01*
X104666Y122031D01*
X104797Y122227D01*
X104888Y122684D01*
X105038Y123127D01*
X105023Y123362D01*
X105069Y123592D01*
X105069Y154159D01*
X111069D01*
Y154432D01*
X124931D01*
Y144500D01*
D02*
G37*
G36*
X261620Y154931D02*
Y139715D01*
X257346Y135442D01*
X256020Y133457D01*
X255555Y131116D01*
Y111069D01*
X251695D01*
Y48951D01*
X251777D01*
Y48941D01*
X251795Y43133D01*
X250526Y42606D01*
X247925Y45206D01*
Y89948D01*
X247460Y92289D01*
X246134Y94274D01*
X238254Y102154D01*
Y105500D01*
X237254Y106500D01*
X234891D01*
X234771Y106680D01*
X235450Y107950D01*
X237500D01*
Y112450D01*
Y116950D01*
X231670D01*
Y120650D01*
X237500D01*
Y125150D01*
Y129650D01*
X231670D01*
Y133350D01*
X237500D01*
Y137850D01*
Y142350D01*
X231670D01*
Y146050D01*
X237500D01*
Y150550D01*
X240000D01*
Y153050D01*
X249250D01*
Y154931D01*
X261620Y154931D01*
D02*
G37*
G36*
X358046Y206098D02*
X359758D01*
X360418Y206275D01*
X361338Y205207D01*
Y191320D01*
X359701D01*
X357360Y190855D01*
X355375Y189529D01*
X349242Y183396D01*
X347916Y181411D01*
X347450Y179070D01*
Y48768D01*
X347916Y46427D01*
X349242Y44443D01*
X365499Y28186D01*
X367483Y26860D01*
X369824Y26395D01*
X419381D01*
X419985Y25124D01*
X419393Y24099D01*
X418950Y22446D01*
Y20734D01*
X419393Y19081D01*
X420249Y17599D01*
X421459Y16389D01*
X422941Y15533D01*
X424594Y15090D01*
X426306D01*
X427733Y15473D01*
X489712D01*
X492053Y15938D01*
X494038Y17264D01*
X518930Y42156D01*
X520256Y44141D01*
X520722Y46482D01*
Y53340D01*
X522049D01*
Y49541D01*
X542003D01*
Y53340D01*
X544538D01*
Y51618D01*
X593852D01*
Y5588D01*
X271793Y5588D01*
Y20552D01*
X322834D01*
X325175Y21018D01*
X327160Y22344D01*
X336050Y31234D01*
X337376Y33219D01*
X337841Y35560D01*
Y48951D01*
X341649D01*
Y111069D01*
X330429D01*
X330088Y112339D01*
X330635Y112655D01*
X331845Y113865D01*
X332701Y115347D01*
X333144Y117000D01*
Y118712D01*
X332701Y120365D01*
X331845Y121847D01*
X330635Y123057D01*
X329153Y123913D01*
X327500Y124356D01*
X325788D01*
X324135Y123913D01*
X322653Y123057D01*
X321443Y121847D01*
X320587Y120365D01*
X320144Y118712D01*
Y117000D01*
X320587Y115347D01*
X321443Y113865D01*
X322653Y112655D01*
X323200Y112339D01*
X322859Y111069D01*
X321695D01*
Y48951D01*
X325606D01*
Y38094D01*
X320300Y32787D01*
X297352D01*
X296866Y33961D01*
X300872Y37966D01*
X302198Y39951D01*
X302663Y42292D01*
Y48951D01*
X306649D01*
Y111069D01*
X286695D01*
Y48951D01*
X290428D01*
Y44826D01*
X287280Y41677D01*
X267970D01*
X267970Y48951D01*
X271649D01*
Y111069D01*
X267970D01*
X267970Y128763D01*
X345688Y206481D01*
X356619D01*
X358046Y206098D01*
D02*
G37*
G36*
X70931Y92323D02*
Y51000D01*
X71203Y49634D01*
X71977Y48477D01*
X73977Y46477D01*
X75134Y45703D01*
X75654Y45600D01*
X75754Y45500D01*
X76155D01*
X76500Y45431D01*
X106006Y45431D01*
X106347Y44161D01*
X105737Y43809D01*
X104527Y42599D01*
X103788Y41319D01*
X88376Y25907D01*
X88272Y25947D01*
X87589Y27212D01*
X87997Y29260D01*
Y30510D01*
X75894D01*
X63791D01*
Y29260D01*
X64199Y27212D01*
X64716Y26437D01*
X64037Y25168D01*
X24889D01*
X23462Y25550D01*
X21750D01*
X20097Y25107D01*
X18615Y24251D01*
X17405Y23041D01*
X16549Y21559D01*
X16106Y19906D01*
Y18194D01*
X16549Y16541D01*
X17405Y15059D01*
X18615Y13849D01*
X20097Y12993D01*
X21750Y12550D01*
X23462D01*
X24889Y12932D01*
X90170D01*
X92511Y13398D01*
X94496Y14724D01*
X112439Y32668D01*
X113719Y33407D01*
X114929Y34617D01*
X115785Y36099D01*
X116228Y37752D01*
Y39464D01*
X115785Y41117D01*
X114929Y42599D01*
X113719Y43809D01*
X113109Y44161D01*
X113449Y45431D01*
X119000D01*
X119345Y45500D01*
X127961D01*
X127977Y45477D01*
X129134Y44703D01*
X130500Y44431D01*
X225275Y44431D01*
Y37340D01*
X225740Y34999D01*
X227066Y33014D01*
X237736Y22344D01*
X239721Y21018D01*
X242062Y20552D01*
X268224D01*
Y4826D01*
X220750D01*
Y16250D01*
X207000D01*
X193250D01*
Y4826D01*
X5334D01*
Y94431D01*
X5334Y94431D01*
X68823Y94431D01*
X70931Y92323D01*
D02*
G37*
%LPC*%
G36*
X289800Y580606D02*
Y574200D01*
X296206D01*
X295919Y575270D01*
X294702Y577379D01*
X292980Y579102D01*
X290870Y580320D01*
X289800Y580606D01*
D02*
G37*
G36*
X284800D02*
X283730Y580320D01*
X281620Y579102D01*
X279898Y577379D01*
X278680Y575270D01*
X278393Y574200D01*
X284800D01*
Y580606D01*
D02*
G37*
G36*
X264400D02*
Y574200D01*
X270806D01*
X270520Y575270D01*
X269302Y577379D01*
X267579Y579102D01*
X265470Y580320D01*
X264400Y580606D01*
D02*
G37*
G36*
X259400D02*
X258330Y580320D01*
X256220Y579102D01*
X254498Y577379D01*
X253280Y575270D01*
X252994Y574200D01*
X259400D01*
Y580606D01*
D02*
G37*
G36*
X239000D02*
Y574200D01*
X245406D01*
X245119Y575270D01*
X243902Y577379D01*
X242180Y579102D01*
X240070Y580320D01*
X239000Y580606D01*
D02*
G37*
G36*
X234000D02*
X232930Y580320D01*
X230820Y579102D01*
X229098Y577379D01*
X227880Y575270D01*
X227593Y574200D01*
X234000D01*
Y580606D01*
D02*
G37*
G36*
X213600D02*
Y574200D01*
X220006D01*
X219720Y575270D01*
X218502Y577379D01*
X216779Y579102D01*
X214670Y580320D01*
X213600Y580606D01*
D02*
G37*
G36*
X208600D02*
X207530Y580320D01*
X205420Y579102D01*
X203698Y577379D01*
X202480Y575270D01*
X202194Y574200D01*
X208600D01*
Y580606D01*
D02*
G37*
G36*
X188200D02*
Y574200D01*
X194606D01*
X194319Y575270D01*
X193102Y577379D01*
X191380Y579102D01*
X189270Y580320D01*
X188200Y580606D01*
D02*
G37*
G36*
X183200D02*
X182130Y580320D01*
X180020Y579102D01*
X178298Y577379D01*
X177080Y575270D01*
X176793Y574200D01*
X183200D01*
Y580606D01*
D02*
G37*
G36*
X296206Y569200D02*
X289800D01*
Y562794D01*
X290870Y563080D01*
X292980Y564298D01*
X294702Y566020D01*
X295919Y568130D01*
X296206Y569200D01*
D02*
G37*
G36*
X284800D02*
X278393D01*
X278680Y568130D01*
X279898Y566020D01*
X281620Y564298D01*
X283730Y563080D01*
X284800Y562794D01*
Y569200D01*
D02*
G37*
G36*
X270806D02*
X264400D01*
Y562794D01*
X265470Y563080D01*
X267579Y564298D01*
X269302Y566020D01*
X270520Y568130D01*
X270806Y569200D01*
D02*
G37*
G36*
X259400D02*
X252994D01*
X253280Y568130D01*
X254498Y566020D01*
X256220Y564298D01*
X258330Y563080D01*
X259400Y562794D01*
Y569200D01*
D02*
G37*
G36*
X245406D02*
X239000D01*
Y562794D01*
X240070Y563080D01*
X242180Y564298D01*
X243902Y566020D01*
X245119Y568130D01*
X245406Y569200D01*
D02*
G37*
G36*
X234000D02*
X227593D01*
X227880Y568130D01*
X229098Y566020D01*
X230820Y564298D01*
X232930Y563080D01*
X234000Y562794D01*
Y569200D01*
D02*
G37*
G36*
X220006D02*
X213600D01*
Y562794D01*
X214670Y563080D01*
X216779Y564298D01*
X218502Y566020D01*
X219720Y568130D01*
X220006Y569200D01*
D02*
G37*
G36*
X208600D02*
X202194D01*
X202480Y568130D01*
X203698Y566020D01*
X205420Y564298D01*
X207530Y563080D01*
X208600Y562794D01*
Y569200D01*
D02*
G37*
G36*
X194606D02*
X188200D01*
Y562794D01*
X189270Y563080D01*
X191380Y564298D01*
X193102Y566020D01*
X194319Y568130D01*
X194606Y569200D01*
D02*
G37*
G36*
X183200D02*
X176793D01*
X177080Y568130D01*
X178298Y566020D01*
X180020Y564298D01*
X182130Y563080D01*
X183200Y562794D01*
Y569200D01*
D02*
G37*
G36*
X263381Y557550D02*
X260419D01*
X257558Y556783D01*
X254992Y555302D01*
X252898Y553208D01*
X251417Y550642D01*
X250650Y547781D01*
Y544819D01*
X251417Y541958D01*
X252898Y539392D01*
X254992Y537298D01*
X257558Y535817D01*
X260419Y535050D01*
X263381D01*
X266242Y535817D01*
X268808Y537298D01*
X270902Y539392D01*
X272383Y541958D01*
X273150Y544819D01*
Y547781D01*
X272383Y550642D01*
X270902Y553208D01*
X268808Y555302D01*
X266242Y556783D01*
X263381Y557550D01*
D02*
G37*
G36*
X237981D02*
X235019D01*
X232158Y556783D01*
X229592Y555302D01*
X227498Y553208D01*
X226017Y550642D01*
X225250Y547781D01*
Y544819D01*
X226017Y541958D01*
X227498Y539392D01*
X229592Y537298D01*
X232158Y535817D01*
X235019Y535050D01*
X237981D01*
X240842Y535817D01*
X243408Y537298D01*
X245502Y539392D01*
X246983Y541958D01*
X247750Y544819D01*
Y547781D01*
X246983Y550642D01*
X245502Y553208D01*
X243408Y555302D01*
X240842Y556783D01*
X237981Y557550D01*
D02*
G37*
G36*
X212581D02*
X209619D01*
X206758Y556783D01*
X204192Y555302D01*
X202098Y553208D01*
X200617Y550642D01*
X199850Y547781D01*
Y544819D01*
X200617Y541958D01*
X202098Y539392D01*
X204192Y537298D01*
X206758Y535817D01*
X209619Y535050D01*
X212581D01*
X215442Y535817D01*
X218008Y537298D01*
X220102Y539392D01*
X221583Y541958D01*
X222350Y544819D01*
Y547781D01*
X221583Y550642D01*
X220102Y553208D01*
X218008Y555302D01*
X215442Y556783D01*
X212581Y557550D01*
D02*
G37*
G36*
X189575Y557613D02*
X181825D01*
X179900Y557360D01*
X178106Y556617D01*
X176565Y555435D01*
X175383Y553894D01*
X174640Y552100D01*
X174386Y550175D01*
Y542425D01*
X174640Y540500D01*
X175383Y538706D01*
X176565Y537165D01*
X178106Y535983D01*
X179900Y535240D01*
X181825Y534986D01*
X189575D01*
X191500Y535240D01*
X193294Y535983D01*
X194835Y537165D01*
X196017Y538706D01*
X196760Y540500D01*
X197013Y542425D01*
Y550175D01*
X196760Y552100D01*
X196017Y553894D01*
X194835Y555435D01*
X193294Y556617D01*
X191500Y557360D01*
X189575Y557613D01*
D02*
G37*
G36*
X265500Y530930D02*
X242500D01*
Y507930D01*
X265500D01*
Y530930D01*
D02*
G37*
G36*
X240100D02*
X217100D01*
Y507930D01*
X240100D01*
Y530930D01*
D02*
G37*
G36*
X283558Y508658D02*
X281846D01*
X280193Y508215D01*
X278711Y507359D01*
X277501Y506149D01*
X276645Y504667D01*
X276202Y503014D01*
Y501302D01*
X276645Y499649D01*
X277501Y498167D01*
X278711Y496957D01*
X280193Y496101D01*
X281846Y495658D01*
X283558D01*
X285211Y496101D01*
X286693Y496957D01*
X287903Y498167D01*
X288759Y499649D01*
X289202Y501302D01*
Y503014D01*
X288759Y504667D01*
X287903Y506149D01*
X286693Y507359D01*
X285211Y508215D01*
X283558Y508658D01*
D02*
G37*
G36*
X416800Y580606D02*
Y574200D01*
X423206D01*
X422920Y575270D01*
X421702Y577379D01*
X419980Y579102D01*
X417870Y580320D01*
X416800Y580606D01*
D02*
G37*
G36*
X411800D02*
X410730Y580320D01*
X408620Y579102D01*
X406898Y577379D01*
X405680Y575270D01*
X405393Y574200D01*
X411800D01*
Y580606D01*
D02*
G37*
G36*
X391400D02*
Y574200D01*
X397806D01*
X397519Y575270D01*
X396302Y577379D01*
X394580Y579102D01*
X392470Y580320D01*
X391400Y580606D01*
D02*
G37*
G36*
X386400D02*
X385330Y580320D01*
X383220Y579102D01*
X381498Y577379D01*
X380280Y575270D01*
X379994Y574200D01*
X386400D01*
Y580606D01*
D02*
G37*
G36*
X366000D02*
Y574200D01*
X372406D01*
X372119Y575270D01*
X370902Y577379D01*
X369179Y579102D01*
X367070Y580320D01*
X366000Y580606D01*
D02*
G37*
G36*
X361000D02*
X359930Y580320D01*
X357820Y579102D01*
X356098Y577379D01*
X354880Y575270D01*
X354594Y574200D01*
X361000D01*
Y580606D01*
D02*
G37*
G36*
X340600D02*
Y574200D01*
X347006D01*
X346720Y575270D01*
X345502Y577379D01*
X343779Y579102D01*
X341670Y580320D01*
X340600Y580606D01*
D02*
G37*
G36*
X335600D02*
X334530Y580320D01*
X332420Y579102D01*
X330698Y577379D01*
X329480Y575270D01*
X329193Y574200D01*
X335600D01*
Y580606D01*
D02*
G37*
G36*
X315200D02*
Y574200D01*
X321606D01*
X321320Y575270D01*
X320102Y577379D01*
X318379Y579102D01*
X316270Y580320D01*
X315200Y580606D01*
D02*
G37*
G36*
X310200D02*
X309130Y580320D01*
X307020Y579102D01*
X305298Y577379D01*
X304080Y575270D01*
X303794Y574200D01*
X310200D01*
Y580606D01*
D02*
G37*
G36*
X423206Y569200D02*
X416800D01*
Y562794D01*
X417870Y563080D01*
X419980Y564298D01*
X421702Y566020D01*
X422920Y568130D01*
X423206Y569200D01*
D02*
G37*
G36*
X411800D02*
X405393D01*
X405680Y568130D01*
X406898Y566020D01*
X408620Y564298D01*
X410730Y563080D01*
X411800Y562794D01*
Y569200D01*
D02*
G37*
G36*
X397806D02*
X391400D01*
Y562794D01*
X392470Y563080D01*
X394580Y564298D01*
X396302Y566020D01*
X397519Y568130D01*
X397806Y569200D01*
D02*
G37*
G36*
X386400D02*
X379994D01*
X380280Y568130D01*
X381498Y566020D01*
X383220Y564298D01*
X385330Y563080D01*
X386400Y562794D01*
Y569200D01*
D02*
G37*
G36*
X372406D02*
X366000D01*
Y562794D01*
X367070Y563080D01*
X369179Y564298D01*
X370902Y566020D01*
X372119Y568130D01*
X372406Y569200D01*
D02*
G37*
G36*
X361000D02*
X354594D01*
X354880Y568130D01*
X356098Y566020D01*
X357820Y564298D01*
X359930Y563080D01*
X361000Y562794D01*
Y569200D01*
D02*
G37*
G36*
X347006D02*
X340600D01*
Y562794D01*
X341670Y563080D01*
X343779Y564298D01*
X345502Y566020D01*
X346720Y568130D01*
X347006Y569200D01*
D02*
G37*
G36*
X335600D02*
X329193D01*
X329480Y568130D01*
X330698Y566020D01*
X332420Y564298D01*
X334530Y563080D01*
X335600Y562794D01*
Y569200D01*
D02*
G37*
G36*
X321606D02*
X315200D01*
Y562794D01*
X316270Y563080D01*
X318379Y564298D01*
X320102Y566020D01*
X321320Y568130D01*
X321606Y569200D01*
D02*
G37*
G36*
X310200D02*
X303794D01*
X304080Y568130D01*
X305298Y566020D01*
X307020Y564298D01*
X309130Y563080D01*
X310200Y562794D01*
Y569200D01*
D02*
G37*
G36*
X540860Y404772D02*
X539148D01*
X537495Y404329D01*
X536013Y403473D01*
X534803Y402263D01*
X533947Y400781D01*
X533504Y399128D01*
Y397416D01*
X533633Y396937D01*
Y394989D01*
X489895D01*
Y375035D01*
X552013D01*
Y394989D01*
X547081D01*
X546836Y395175D01*
X546194Y396259D01*
X546504Y397416D01*
Y399128D01*
X546061Y400781D01*
X545205Y402263D01*
X543995Y403473D01*
X542513Y404329D01*
X540860Y404772D01*
D02*
G37*
G36*
X552013Y359989D02*
X489895D01*
Y340035D01*
X552013D01*
Y343895D01*
X563124D01*
X578260Y328759D01*
X578999Y327479D01*
X580209Y326269D01*
X581691Y325413D01*
X583344Y324970D01*
X585056D01*
X586709Y325413D01*
X588191Y326269D01*
X589401Y327479D01*
X590257Y328961D01*
X590700Y330614D01*
Y332326D01*
X590257Y333979D01*
X589401Y335461D01*
X588191Y336671D01*
X586911Y337410D01*
X569984Y354338D01*
X567999Y355664D01*
X565658Y356129D01*
X552013D01*
Y359989D01*
D02*
G37*
G36*
X550013Y322989D02*
X523454D01*
Y317512D01*
X550013D01*
Y322989D01*
D02*
G37*
G36*
X518454D02*
X491895D01*
Y317512D01*
X518454D01*
Y322989D01*
D02*
G37*
G36*
X550013Y312512D02*
X523454D01*
Y307035D01*
X550013D01*
Y312512D01*
D02*
G37*
G36*
X518454D02*
X491895D01*
Y307035D01*
X518454D01*
Y312512D01*
D02*
G37*
G36*
X550013Y287989D02*
X523454D01*
Y282512D01*
X550013D01*
Y287989D01*
D02*
G37*
G36*
X518454D02*
X491895D01*
Y282512D01*
X518454D01*
Y287989D01*
D02*
G37*
G36*
X550013Y277512D02*
X523454D01*
Y272035D01*
X550013D01*
Y277512D01*
D02*
G37*
G36*
X518454D02*
X491895D01*
Y272035D01*
X518454D01*
Y277512D01*
D02*
G37*
G36*
X32134Y589097D02*
X28318D01*
X24574Y588352D01*
X21049Y586892D01*
X17875Y584772D01*
X15176Y582073D01*
X13056Y578899D01*
X11596Y575373D01*
X10851Y571630D01*
Y567814D01*
X11596Y564071D01*
X13056Y560545D01*
X15176Y557371D01*
X17875Y554672D01*
X21049Y552552D01*
X24574Y551092D01*
X28318Y550347D01*
X32134D01*
X35877Y551092D01*
X39404Y552552D01*
X42577Y554672D01*
X45276Y557371D01*
X47396Y560545D01*
X48856Y564071D01*
X49601Y567814D01*
Y571630D01*
X48856Y575373D01*
X47396Y578899D01*
X45276Y582073D01*
X42577Y584772D01*
X39404Y586892D01*
X35877Y588352D01*
X32134Y589097D01*
D02*
G37*
G36*
X115022Y520472D02*
Y513548D01*
X121946D01*
X121608Y514811D01*
X120324Y517035D01*
X118509Y518850D01*
X116285Y520134D01*
X115022Y520472D01*
D02*
G37*
G36*
X110022D02*
X108759Y520134D01*
X106535Y518850D01*
X104720Y517035D01*
X103436Y514811D01*
X103098Y513548D01*
X110022D01*
Y520472D01*
D02*
G37*
G36*
X121946Y508548D02*
X115022D01*
Y501624D01*
X116285Y501963D01*
X118509Y503246D01*
X120324Y505061D01*
X121608Y507285D01*
X121946Y508548D01*
D02*
G37*
G36*
X110022D02*
X103098D01*
X103436Y507285D01*
X104720Y505061D01*
X106535Y503246D01*
X108759Y501963D01*
X110022Y501624D01*
Y508548D01*
D02*
G37*
G36*
X88669Y522798D02*
X85575D01*
X82587Y521997D01*
X79907Y520450D01*
X77720Y518263D01*
X76173Y515583D01*
X75372Y512595D01*
Y509501D01*
X76173Y506513D01*
X77720Y503833D01*
X79907Y501646D01*
X82587Y500099D01*
X85575Y499298D01*
X88669D01*
X91657Y500099D01*
X94337Y501646D01*
X96524Y503833D01*
X98071Y506513D01*
X98872Y509501D01*
Y512595D01*
X98071Y515583D01*
X96524Y518263D01*
X94337Y520450D01*
X91657Y521997D01*
X88669Y522798D01*
D02*
G37*
G36*
X114069Y497398D02*
X110975D01*
X107987Y496597D01*
X105307Y495050D01*
X103120Y492863D01*
X101573Y490183D01*
X100772Y487195D01*
Y484101D01*
X101573Y481113D01*
X103120Y478433D01*
X105307Y476246D01*
X107987Y474699D01*
X110975Y473898D01*
X114069D01*
X117057Y474699D01*
X119737Y476246D01*
X121924Y478433D01*
X123471Y481113D01*
X124272Y484101D01*
Y487195D01*
X123471Y490183D01*
X121924Y492863D01*
X119737Y495050D01*
X117057Y496597D01*
X114069Y497398D01*
D02*
G37*
G36*
X88669D02*
X85575D01*
X82587Y496597D01*
X79907Y495050D01*
X77720Y492863D01*
X76173Y490183D01*
X75372Y487195D01*
Y484101D01*
X76173Y481113D01*
X77720Y478433D01*
X79907Y476246D01*
X82587Y474699D01*
X85575Y473898D01*
X88669D01*
X91657Y474699D01*
X94337Y476246D01*
X96524Y478433D01*
X98071Y481113D01*
X98872Y484101D01*
Y487195D01*
X98071Y490183D01*
X96524Y492863D01*
X94337Y495050D01*
X91657Y496597D01*
X88669Y497398D01*
D02*
G37*
G36*
X80866Y397660D02*
X79154D01*
X77501Y397217D01*
X76019Y396361D01*
X74809Y395151D01*
X73953Y393669D01*
X73510Y392016D01*
Y390304D01*
X73892Y388877D01*
Y384881D01*
X48951D01*
Y364927D01*
X111069D01*
Y384881D01*
X86128D01*
Y388877D01*
X86510Y390304D01*
Y392016D01*
X86067Y393669D01*
X85211Y395151D01*
X84001Y396361D01*
X82519Y397217D01*
X80866Y397660D01*
D02*
G37*
G36*
X80612Y361338D02*
X78900D01*
X77247Y360895D01*
X75765Y360039D01*
X74555Y358829D01*
X73699Y357347D01*
X73256Y355694D01*
Y353982D01*
X73639Y352555D01*
Y349881D01*
X48951D01*
Y329927D01*
X109590D01*
X109930Y328657D01*
X109293Y328289D01*
X108083Y327079D01*
X107227Y325597D01*
X106784Y323944D01*
Y322232D01*
X107227Y320579D01*
X108083Y319097D01*
X109293Y317887D01*
X110775Y317031D01*
X112428Y316588D01*
X114140D01*
X115793Y317031D01*
X117275Y317887D01*
X118485Y319097D01*
X119341Y320579D01*
X119784Y322232D01*
Y323944D01*
X119341Y325597D01*
X118485Y327079D01*
X117275Y328289D01*
X115793Y329145D01*
X114140Y329588D01*
X112428D01*
X112170Y329519D01*
X111069Y330539D01*
Y349881D01*
X85873D01*
Y352555D01*
X86256Y353982D01*
Y355694D01*
X85813Y357347D01*
X84957Y358829D01*
X83747Y360039D01*
X82265Y360895D01*
X80612Y361338D01*
D02*
G37*
G36*
X174902Y441746D02*
X168362D01*
Y435206D01*
X172837D01*
X173627Y435364D01*
X174297Y435811D01*
X174744Y436481D01*
X174902Y437271D01*
Y441746D01*
D02*
G37*
G36*
X163362D02*
X156822D01*
Y437271D01*
X156980Y436481D01*
X157427Y435811D01*
X158097Y435364D01*
X158887Y435206D01*
X163362D01*
Y441746D01*
D02*
G37*
G36*
X401668Y280820D02*
X399956D01*
X398303Y280377D01*
X396821Y279521D01*
X395611Y278311D01*
X394755Y276829D01*
X394312Y275176D01*
Y273464D01*
X394755Y271811D01*
X395611Y270329D01*
X396821Y269119D01*
X398303Y268263D01*
X399956Y267820D01*
X401668D01*
X403321Y268263D01*
X404803Y269119D01*
X406013Y270329D01*
X406869Y271811D01*
X407312Y273464D01*
Y275176D01*
X406869Y276829D01*
X406013Y278311D01*
X404803Y279521D01*
X403321Y280377D01*
X401668Y280820D01*
D02*
G37*
G36*
X379316Y259992D02*
X377604D01*
X375951Y259549D01*
X374469Y258693D01*
X373259Y257483D01*
X372403Y256001D01*
X371960Y254348D01*
Y252636D01*
X372403Y250983D01*
X373259Y249501D01*
X374469Y248291D01*
X375951Y247435D01*
X377604Y246992D01*
X379316D01*
X380969Y247435D01*
X382451Y248291D01*
X383661Y249501D01*
X384517Y250983D01*
X384960Y252636D01*
Y254348D01*
X384517Y256001D01*
X383661Y257483D01*
X382451Y258693D01*
X380969Y259549D01*
X379316Y259992D01*
D02*
G37*
G36*
X166500Y227500D02*
X139000D01*
Y219500D01*
X166500D01*
Y227500D01*
D02*
G37*
G36*
X199000Y214500D02*
X171500D01*
Y206500D01*
X199000D01*
Y214500D01*
D02*
G37*
G36*
X166500D02*
X139000D01*
Y206500D01*
X166500D01*
Y214500D01*
D02*
G37*
G36*
X199000Y181500D02*
X171500D01*
Y173500D01*
X199000D01*
Y181500D01*
D02*
G37*
G36*
X166500D02*
X139000D01*
Y173500D01*
X166500D01*
Y181500D01*
D02*
G37*
G36*
X199000Y168500D02*
X171500D01*
Y160500D01*
X199000D01*
Y168500D01*
D02*
G37*
G36*
X166500D02*
X139000D01*
Y160500D01*
X166500D01*
Y168500D01*
D02*
G37*
G36*
X166004Y149026D02*
X165004D01*
Y147026D01*
X166004D01*
Y149026D01*
D02*
G37*
G36*
Y142026D02*
X165004D01*
Y140026D01*
X166004D01*
Y142026D01*
D02*
G37*
G36*
X183500Y129650D02*
X176750D01*
Y127650D01*
X183500D01*
Y129650D01*
D02*
G37*
G36*
X249000Y213500D02*
Y201750D01*
X260250D01*
Y213500D01*
X249000D01*
D02*
G37*
G36*
X260250Y196750D02*
X249000D01*
Y185000D01*
X260250D01*
Y196750D01*
D02*
G37*
G36*
X287862Y183016D02*
X286150D01*
X284497Y182573D01*
X283015Y181717D01*
X281805Y180507D01*
X280949Y179025D01*
X280506Y177372D01*
Y175660D01*
X280949Y174007D01*
X281805Y172525D01*
X283015Y171315D01*
X284497Y170459D01*
X286150Y170016D01*
X287862D01*
X289515Y170459D01*
X290997Y171315D01*
X292207Y172525D01*
X293063Y174007D01*
X293506Y175660D01*
Y177372D01*
X293063Y179025D01*
X292207Y180507D01*
X290997Y181717D01*
X289515Y182573D01*
X287862Y183016D01*
D02*
G37*
G36*
X195250Y142350D02*
X188500D01*
Y140350D01*
X195250D01*
Y142350D01*
D02*
G37*
G36*
X183500D02*
X176750D01*
Y140350D01*
X183500D01*
Y142350D01*
D02*
G37*
G36*
X412058Y113324D02*
X390198D01*
Y104418D01*
X412058D01*
Y113324D01*
D02*
G37*
G36*
X385198D02*
X363338D01*
Y104418D01*
X385198D01*
Y113324D01*
D02*
G37*
G36*
X412058Y101830D02*
X390198D01*
Y92924D01*
X412058D01*
Y101830D01*
D02*
G37*
G36*
X385198D02*
X363338D01*
Y92924D01*
X385198D01*
Y101830D01*
D02*
G37*
G36*
X412058Y87924D02*
X363338D01*
Y79700D01*
X363338Y79018D01*
X362312Y78430D01*
X361338D01*
Y51618D01*
X414058D01*
Y78430D01*
X413084D01*
X412058Y79018D01*
X412058Y79700D01*
Y87924D01*
D02*
G37*
G36*
X93000Y126750D02*
X87750D01*
Y119500D01*
X93000D01*
Y126750D01*
D02*
G37*
G36*
X82750D02*
X77500D01*
Y119500D01*
X82750D01*
Y126750D01*
D02*
G37*
G36*
X93000Y114500D02*
X87750D01*
Y107250D01*
X93000D01*
Y114500D01*
D02*
G37*
G36*
X82750D02*
X77500D01*
Y107250D01*
X82750D01*
Y114500D01*
D02*
G37*
G36*
X109644Y92113D02*
X108394D01*
Y82510D01*
X114997D01*
Y86760D01*
X114589Y88808D01*
X113429Y90545D01*
X111692Y91705D01*
X109644Y92113D01*
D02*
G37*
G36*
X103394D02*
X102144D01*
X100096Y91705D01*
X98359Y90545D01*
X97199Y88808D01*
X96791Y86760D01*
Y82510D01*
X103394D01*
Y92113D01*
D02*
G37*
G36*
X114997Y77510D02*
X108394D01*
Y67907D01*
X109644D01*
X111692Y68315D01*
X113429Y69475D01*
X114589Y71212D01*
X114997Y73260D01*
Y77510D01*
D02*
G37*
G36*
X103394D02*
X96791D01*
Y73260D01*
X97199Y71212D01*
X98359Y69475D01*
X100096Y68315D01*
X102144Y67907D01*
X103394D01*
Y77510D01*
D02*
G37*
G36*
X127500Y126750D02*
X122250D01*
Y119500D01*
X127500D01*
Y126750D01*
D02*
G37*
G36*
X117250D02*
X112000D01*
Y119500D01*
X117250D01*
Y126750D01*
D02*
G37*
G36*
X195250Y116950D02*
X188500D01*
Y114950D01*
X195250D01*
Y116950D01*
D02*
G37*
G36*
X183500D02*
X176750D01*
Y114950D01*
X183500D01*
Y116950D01*
D02*
G37*
G36*
X195250Y109950D02*
X188500D01*
Y107950D01*
X195250D01*
Y109950D01*
D02*
G37*
G36*
X183500D02*
X176750D01*
Y107950D01*
X183500D01*
Y109950D01*
D02*
G37*
G36*
X127500Y114500D02*
X122250D01*
Y107250D01*
X127500D01*
Y114500D01*
D02*
G37*
G36*
X117250D02*
X112000D01*
Y107250D01*
X117250D01*
Y114500D01*
D02*
G37*
G36*
X156000Y105000D02*
X153500D01*
Y101500D01*
X156000D01*
Y105000D01*
D02*
G37*
G36*
X148500D02*
X146000D01*
Y101500D01*
X148500D01*
Y105000D01*
D02*
G37*
G36*
X156000Y96500D02*
X153500D01*
Y93000D01*
X156000D01*
Y96500D01*
D02*
G37*
G36*
X148500D02*
X146000D01*
Y93000D01*
X148500D01*
Y96500D01*
D02*
G37*
G36*
X204500Y93500D02*
X193250D01*
Y81750D01*
X204500D01*
Y93500D01*
D02*
G37*
G36*
X169250Y83250D02*
X159500D01*
Y72000D01*
X169250D01*
Y83250D01*
D02*
G37*
G36*
X154500D02*
X144750D01*
Y72000D01*
X154500D01*
Y83250D01*
D02*
G37*
G36*
X220750Y76750D02*
X209500D01*
Y65000D01*
X220750D01*
Y76750D01*
D02*
G37*
G36*
X204500D02*
X193250D01*
Y65000D01*
X204500D01*
Y76750D01*
D02*
G37*
G36*
X133190Y73048D02*
X131478D01*
X129825Y72605D01*
X128343Y71749D01*
X127133Y70539D01*
X126277Y69057D01*
X125834Y67404D01*
Y65692D01*
X126277Y64039D01*
X127133Y62557D01*
X128343Y61347D01*
X129825Y60491D01*
X131478Y60048D01*
X133190D01*
X134843Y60491D01*
X136325Y61347D01*
X137535Y62557D01*
X138391Y64039D01*
X138834Y65692D01*
Y67404D01*
X138391Y69057D01*
X137535Y70539D01*
X136325Y71749D01*
X134843Y72605D01*
X133190Y73048D01*
D02*
G37*
G36*
X169250Y67000D02*
X159500D01*
Y55750D01*
X169250D01*
Y67000D01*
D02*
G37*
G36*
X154500D02*
X144750D01*
Y55750D01*
X154500D01*
Y67000D01*
D02*
G37*
G36*
X249250Y148050D02*
X242500D01*
Y146050D01*
X249250D01*
Y148050D01*
D02*
G37*
G36*
Y142350D02*
X242500D01*
Y140350D01*
X249250D01*
Y142350D01*
D02*
G37*
G36*
Y135350D02*
X242500D01*
Y133350D01*
X249250D01*
Y135350D01*
D02*
G37*
G36*
Y129650D02*
X242500D01*
Y127650D01*
X249250D01*
Y129650D01*
D02*
G37*
G36*
Y122650D02*
X242500D01*
Y120650D01*
X249250D01*
Y122650D01*
D02*
G37*
G36*
Y116950D02*
X242500D01*
Y114950D01*
X249250D01*
Y116950D01*
D02*
G37*
G36*
Y109950D02*
X242500D01*
Y107950D01*
X249250D01*
Y109950D01*
D02*
G37*
G36*
X49644Y92113D02*
X48394D01*
Y82510D01*
X54997D01*
Y86760D01*
X54589Y88808D01*
X53429Y90545D01*
X51692Y91705D01*
X49644Y92113D01*
D02*
G37*
G36*
X43394D02*
X42144D01*
X40096Y91705D01*
X38359Y90545D01*
X37199Y88808D01*
X36791Y86760D01*
Y82510D01*
X43394D01*
Y92113D01*
D02*
G37*
G36*
X54997Y77510D02*
X48394D01*
Y67907D01*
X49644D01*
X51692Y68315D01*
X53429Y69475D01*
X54589Y71212D01*
X54997Y73260D01*
Y77510D01*
D02*
G37*
G36*
X43394D02*
X36791D01*
Y73260D01*
X37199Y71212D01*
X38359Y69475D01*
X40096Y68315D01*
X42144Y67907D01*
X43394D01*
Y77510D01*
D02*
G37*
G36*
X82644Y42113D02*
X78394D01*
Y35510D01*
X87997D01*
Y36760D01*
X87589Y38808D01*
X86429Y40545D01*
X84692Y41705D01*
X82644Y42113D01*
D02*
G37*
G36*
X73394D02*
X69144D01*
X67095Y41705D01*
X65359Y40545D01*
X64199Y38808D01*
X63791Y36760D01*
Y35510D01*
X73394D01*
Y42113D01*
D02*
G37*
G36*
X169250Y40250D02*
X159500D01*
Y29000D01*
X169250D01*
Y40250D01*
D02*
G37*
G36*
X154500D02*
X144750D01*
Y29000D01*
X154500D01*
Y40250D01*
D02*
G37*
G36*
X220750Y33000D02*
X209500D01*
Y21250D01*
X220750D01*
Y33000D01*
D02*
G37*
G36*
X204500D02*
X193250D01*
Y21250D01*
X204500D01*
Y33000D01*
D02*
G37*
G36*
X169250Y24000D02*
X159500D01*
Y12750D01*
X169250D01*
Y24000D01*
D02*
G37*
G36*
X154500D02*
X144750D01*
Y12750D01*
X154500D01*
Y24000D01*
D02*
G37*
%LPD*%
D10*
X0Y0D02*
X600000D01*
X0D02*
Y600000D01*
X600000Y0D02*
Y600000D01*
X0D02*
X600000D01*
D15*
X217052Y102683D02*
X231392Y88343D01*
X225552Y106204D02*
Y230900D01*
Y106204D02*
X241808Y89948D01*
X217052Y102683D02*
Y226954D01*
X200238Y256214D02*
X225552Y230900D01*
X189738Y254268D02*
X217052Y226954D01*
X343154Y212598D02*
X358902D01*
X261672Y131116D02*
X343154Y212598D01*
X261672Y80010D02*
Y131116D01*
X240000Y150550D02*
X240293Y150257D01*
X254254Y140970D02*
Y147066D01*
X240293Y150257D02*
X251063D01*
X254254Y147066D01*
X186036Y150586D02*
X197962D01*
X197998Y150622D01*
X186000Y150550D02*
X186036Y150586D01*
X178562Y253423D02*
X207725Y224260D01*
Y216345D02*
Y224260D01*
Y216345D02*
X207916Y216154D01*
X78740Y181356D02*
Y197740D01*
X80000Y199000D01*
X114724Y164000D02*
X118618Y167894D01*
X80000Y164000D02*
X114724D01*
X216296Y399220D02*
X232175Y415099D01*
X239839D01*
X216296Y399220D02*
Y399220D01*
X211496Y394420D02*
X216296Y399220D01*
X211496Y320225D02*
Y394420D01*
X239839Y415099D02*
X240030Y415290D01*
X219488Y419918D02*
X221488Y421918D01*
X199136Y354608D02*
Y402336D01*
X216718Y419918D02*
X219488D01*
X221488Y421918D02*
Y423418D01*
X199136Y402336D02*
X216718Y419918D01*
X182824Y416758D02*
X188976Y422910D01*
X182824Y402336D02*
Y416758D01*
X188976Y422910D02*
X198488D01*
X198996Y423418D01*
X200488D01*
X272932Y329352D02*
X293202D01*
X297236Y320852D02*
Y325318D01*
X293202Y329352D02*
X297236Y325318D01*
Y320852D02*
X299236Y318852D01*
X300736D01*
X151948Y391866D02*
X154178Y389636D01*
X131908Y409472D02*
X149514Y391866D01*
X151948D01*
X131908Y409472D02*
Y410972D01*
X152908D02*
X160274D01*
X237322Y303698D02*
X241046Y299974D01*
X237322Y303698D02*
Y308321D01*
X247314Y299974D02*
X247822Y300482D01*
X237322Y308321D02*
X237501Y308500D01*
X241046Y299974D02*
X247314D01*
X210738Y300482D02*
X226822D01*
X171704Y314198D02*
X178562Y307340D01*
Y253423D02*
Y307340D01*
X200238Y308967D02*
X211496Y320225D01*
X200238Y256214D02*
Y308967D01*
X189738Y254268D02*
Y300482D01*
Y311404D01*
X199136Y320802D01*
Y346964D01*
X226822Y300482D02*
Y312674D01*
X221996Y317500D02*
X226822Y312674D01*
X195314Y350786D02*
X199136Y346964D01*
X281432Y318852D02*
X282480D01*
X284480Y316852D01*
Y310134D02*
Y316852D01*
Y310134D02*
X287782Y306832D01*
X300736Y339852D02*
Y346144D01*
X295344Y351536D02*
X300736Y346144D01*
X265628Y315016D02*
Y316852D01*
X283718Y296926D02*
X313700D01*
X265628Y315016D02*
X283718Y296926D01*
X311585Y306832D02*
X314514Y309761D01*
X287782Y306832D02*
X311585D01*
X314514Y309761D02*
Y366313D01*
X323538Y306764D02*
Y355271D01*
X313700Y296926D02*
X323538Y306764D01*
X266020Y384786D02*
X283880Y402646D01*
X284938D01*
X266020Y383286D02*
Y384786D01*
X284938Y402646D02*
X286938Y404646D01*
X240074Y403086D02*
X254242D01*
X256867Y405711D02*
X265503D01*
X254242Y403086D02*
X256867Y405711D01*
X265503D02*
X265938Y406146D01*
X239324Y402336D02*
X240074Y403086D01*
X295656Y423164D02*
X339598Y379222D01*
X273304Y423164D02*
X295656D01*
X265938Y415798D02*
X273304Y423164D01*
X265938Y406146D02*
Y415798D01*
X286938Y404646D02*
Y406146D01*
X265159Y384147D02*
X266020Y383286D01*
X335788Y468122D02*
X354584Y486918D01*
X144272Y457962D02*
X366014D01*
X390398Y482346D01*
X117094Y430784D02*
X144272Y457962D01*
X139700Y468122D02*
X335788D01*
X117094Y445516D02*
X139700Y468122D01*
X139479Y350718D02*
X142408Y353647D01*
X131908Y347218D02*
Y348718D01*
X142408Y353647D02*
Y356808D01*
X131908Y348718D02*
X133908Y350718D01*
X139479D01*
X142408Y356808D02*
X152908Y367308D01*
X140841Y368879D02*
X140911Y368949D01*
X131979Y368879D02*
X140841D01*
X131908Y368808D02*
X131979Y368879D01*
X152908Y367308D02*
Y368808D01*
X153162Y341376D02*
X167386D01*
X152908Y341122D02*
X153162Y341376D01*
X167386D02*
X169926Y338836D01*
X182824D01*
X152908Y368808D02*
X161290D01*
X169418Y376936D02*
X182824D01*
X161290Y368808D02*
X169418Y376936D01*
X154178Y389636D02*
X182824D01*
X168910Y402336D02*
X182824D01*
X160274Y410972D02*
X168910Y402336D01*
X119317Y384239D02*
X123444Y388366D01*
X119126Y377444D02*
X119317Y377635D01*
Y384239D01*
X123444Y388366D02*
X131908D01*
X80000Y445000D02*
X80516Y445516D01*
X117094D01*
X79756Y340244D02*
Y354838D01*
X80615Y409385D02*
X117031D01*
X117094Y409448D02*
Y430784D01*
X117031Y409385D02*
X117094Y409448D01*
X158496Y498094D02*
X171958Y484632D01*
X158496Y577088D02*
X172974Y591566D01*
X158496Y498094D02*
Y577088D01*
X172974Y591566D02*
X449580D01*
X171958Y484632D02*
X297688D01*
X195008Y137350D02*
X203734Y128624D01*
X186500Y137350D02*
X195008D01*
X163068Y136591D02*
Y144526D01*
Y165068D01*
X214299Y256363D02*
X248666Y221996D01*
X214108Y260618D02*
X214299Y260427D01*
Y256363D02*
Y260427D01*
X231392Y37340D02*
Y88343D01*
X150470Y128880D02*
X157668D01*
X144500Y118000D02*
X145500Y119000D01*
Y123910D02*
X150470Y128880D01*
X145500Y119000D02*
Y123910D01*
X144500Y117000D02*
Y119000D01*
X157668Y128880D02*
X157860Y129072D01*
X174509Y125150D02*
X186000D01*
X163068Y136591D02*
X174509Y125150D01*
X462026Y153670D02*
X479552Y171196D01*
X425895Y79469D02*
X427026Y80600D01*
X479552Y171196D02*
X510032D01*
X462026Y80600D02*
Y153670D01*
X425895Y45149D02*
Y79469D01*
X425704Y44958D02*
X425895Y45149D01*
X514604Y46482D02*
Y132842D01*
X425450Y21590D02*
X489712D01*
X514604Y46482D01*
X454914Y195834D02*
X479552Y171196D01*
X450850Y372618D02*
X454914Y368554D01*
Y195834D02*
Y368554D01*
X454406Y399542D02*
Y449707D01*
X477012Y209550D02*
Y376936D01*
X454406Y399542D02*
X477012Y376936D01*
X473456Y468757D02*
Y515665D01*
X454406Y449707D02*
X473456Y468757D01*
X461817Y527304D02*
X473456Y515665D01*
X448108Y498550D02*
X462788Y483870D01*
X466090Y201422D02*
Y373634D01*
X444500Y395224D02*
Y454729D01*
X451000Y461229D02*
Y461500D01*
X444500Y454729D02*
X451000Y461229D01*
X444500Y395224D02*
X466090Y373634D01*
X540004Y397764D02*
Y398272D01*
X539750Y397510D02*
X540004Y397764D01*
X535773Y385012D02*
X539750Y388989D01*
Y397510D01*
X520954Y385012D02*
X535773D01*
X477012Y209550D02*
X494562Y192000D01*
X581000D01*
X520700Y182626D02*
X536726Y166600D01*
X484886Y182626D02*
X520700D01*
X466090Y201422D02*
X484886Y182626D01*
X296546Y42292D02*
Y79884D01*
X248920Y35560D02*
X289814D01*
X296546Y42292D01*
X242062Y26670D02*
X322834D01*
X331724Y35560D02*
Y79958D01*
X322834Y26670D02*
X331724Y35560D01*
X241808Y42672D02*
Y89948D01*
Y42672D02*
X248920Y35560D01*
X231392Y37340D02*
X242062Y26670D01*
X359701Y185203D02*
X371003D01*
X353568Y48768D02*
Y179070D01*
X359701Y185203D01*
X353568Y48768D02*
X369824Y32512D01*
X484378D02*
X497026Y45160D01*
X369824Y32512D02*
X484378D01*
X295235Y393001D02*
X299275D01*
X289020Y386786D02*
X295235Y393001D01*
X299275D02*
X299466Y393192D01*
X287020Y384786D02*
X289020Y386786D01*
X289020D01*
X287020Y364236D02*
Y384786D01*
X520954Y350012D02*
X565658D01*
X584200Y331470D01*
X227924Y376515D02*
X238902D01*
X221996Y370586D02*
X227924Y376515D01*
X238902D02*
X239324Y376936D01*
X221996Y317500D02*
Y370586D01*
X467106Y547624D02*
Y574040D01*
X449580Y591566D02*
X467106Y574040D01*
X443317Y347070D02*
X443484Y346902D01*
Y169672D02*
Y346902D01*
X249936Y242316D02*
Y256314D01*
X246500Y259750D02*
X249936Y256314D01*
X248666Y221996D02*
X385572D01*
X90170Y19050D02*
X109728Y38608D01*
X22606Y19050D02*
X90170D01*
X157158Y69342D02*
X158860Y67641D01*
X157000Y69500D02*
X157158Y69342D01*
X172212D01*
X272625Y231902D02*
X377190D01*
X377444Y232156D01*
X265684Y238843D02*
Y245193D01*
Y238843D02*
X272625Y231902D01*
X521046Y279954D02*
X559262D01*
X559308Y279908D01*
X521000Y280000D02*
X521046Y279954D01*
X226836Y273571D02*
X232157Y278892D01*
X226836Y260618D02*
Y273571D01*
X213931Y260795D02*
Y276317D01*
X225650Y288036D01*
X275590Y241808D02*
Y242079D01*
X276035Y242524D01*
Y243523D01*
X279077Y246565D01*
Y246565D01*
X288544Y268053D02*
Y272034D01*
X265684Y245193D02*
X288544Y268053D01*
X288269Y242803D02*
X305816Y260350D01*
X288269Y241958D02*
Y242803D01*
X288077Y241767D02*
X288269Y241958D01*
X300722Y241568D02*
X310360Y251206D01*
X305816Y260350D02*
X338074D01*
X310360Y251206D02*
X341884D01*
X232157Y278892D02*
X281686D01*
X288544Y272034D01*
X225650Y288036D02*
X323850D01*
X295148Y278638D02*
X328930D01*
X288544Y272034D02*
X295148Y278638D01*
X328930D02*
X341538Y291246D01*
X279077Y246565D02*
X301752Y269240D01*
X333502D02*
X351536Y287274D01*
X301752Y269240D02*
X333502D01*
X338074Y260350D02*
X360036Y282312D01*
X323850Y288036D02*
X332538Y296724D01*
X260628Y318852D02*
X263628D01*
X265628Y316852D01*
X579960Y116332D02*
X580492Y115800D01*
X437896Y534162D02*
Y541020D01*
X427784Y524050D02*
X437896Y534162D01*
X431800Y180800D02*
Y456018D01*
X443484Y467702D02*
Y487172D01*
X360036Y282312D02*
Y424526D01*
X411362Y475852D01*
X341884Y251206D02*
X368628Y277950D01*
X377426Y274048D02*
Y416034D01*
X368628Y420444D02*
X419862Y471678D01*
X344932Y241554D02*
X377426Y274048D01*
Y416034D02*
X430643Y469251D01*
X351536Y428754D02*
X398144Y475362D01*
X368628Y277950D02*
Y420444D01*
X351536Y287274D02*
Y428754D01*
X332538Y296724D02*
Y308974D01*
X341538Y291246D02*
Y316992D01*
X330454Y362187D02*
Y362458D01*
X323538Y355271D02*
X330454Y362187D01*
X400495Y495237D02*
X420808Y515550D01*
X400495Y485331D02*
Y495237D01*
X385701Y510032D02*
X400495Y495237D01*
X348968Y510032D02*
X385701D01*
X411988Y519684D02*
X416354Y524050D01*
X364716Y519684D02*
X411988D01*
X416354Y524050D02*
X427784D01*
X338100Y546300D02*
X364716Y519684D01*
X363500Y546300D02*
X381616Y528184D01*
X405130D01*
X312700Y546300D02*
X348968Y510032D01*
X405130Y528184D02*
X409496Y532550D01*
X422568D02*
X428498Y538480D01*
Y545338D01*
X409496Y532550D02*
X422568D01*
X419862Y471678D02*
Y489966D01*
X411362Y493487D02*
X424925Y507050D01*
X411362Y475852D02*
Y493487D01*
X419862Y489966D02*
X428446Y498550D01*
X424925Y507050D02*
X445946D01*
X428446Y498550D02*
X448108D01*
X435356Y552196D02*
X441198D01*
X428498Y545338D02*
X435356Y552196D01*
X445946Y507050D02*
X455930Y517034D01*
X430643Y469251D02*
Y487059D01*
X420808Y515550D02*
X436706D01*
X448460Y527304D01*
X461817D01*
X514604Y132842D02*
X522224Y140462D01*
X255074Y326136D02*
X258628Y322582D01*
X239324Y326136D02*
X255074D01*
X258628Y320852D02*
Y322582D01*
Y320852D02*
X260628Y318852D01*
X296546Y79884D02*
X296672Y80010D01*
X331672D02*
X331724Y79958D01*
X186000Y137850D02*
X186500Y137350D01*
X195314Y350786D02*
X199136Y354608D01*
X182824Y351536D02*
X183574Y350786D01*
X195314D01*
X313436Y241554D02*
X344932D01*
X135246Y86682D02*
Y107746D01*
X377800Y166600D02*
X417600D01*
X521294Y314706D02*
X560070D01*
X521000Y315000D02*
X521294Y314706D01*
X80000Y375000D02*
X80010Y375010D01*
Y391160D01*
Y268224D02*
Y286990D01*
X80000Y287000D02*
X80010Y286990D01*
X79756Y340244D02*
X80000Y340000D01*
X314514Y366313D02*
X321056Y372855D01*
Y373126D01*
X339598Y351790D02*
Y379222D01*
X421386Y200914D02*
Y374904D01*
X415231Y194759D02*
X421386Y200914D01*
X371003Y185203D02*
X380559Y194759D01*
X239324Y351536D02*
X239578Y351790D01*
X255074D01*
X266020Y362736D01*
X239324Y338836D02*
X261112D01*
X262382Y340106D01*
X171450Y364236D02*
X182824D01*
X380559Y194759D02*
X415231D01*
X532026Y161900D02*
X536726Y166600D01*
X532026Y80600D02*
Y161900D01*
X536726Y166600D02*
X581000D01*
X427026Y80600D02*
Y153214D01*
X443484Y169672D01*
X497026Y45160D02*
Y80600D01*
X163068Y165068D02*
X169000Y171000D01*
X135246Y107746D02*
X144500Y117000D01*
X431800Y456018D02*
X443484Y467702D01*
X417600Y166600D02*
X431800Y180800D01*
X400304Y485140D02*
X400495Y485331D01*
X390398Y482346D02*
X390398D01*
X262382Y340106D02*
X281178D01*
X281432Y340360D01*
X277220Y351536D02*
X295344D01*
X266020Y362736D02*
X277220Y351536D01*
X239324Y389636D02*
X239832Y389128D01*
X251968D02*
X256949Y384147D01*
X265159D01*
X239832Y389128D02*
X251968D01*
X182570Y325882D02*
X182824Y326136D01*
Y338836D01*
X80000Y410000D02*
X80615Y409385D01*
X117856Y258318D02*
Y258318D01*
X80000Y252000D02*
X80592Y252592D01*
X112130D02*
X117856Y258318D01*
X80592Y252592D02*
X112130D01*
D23*
X508586Y469672D02*
X512586D01*
Y504672D01*
X508586D02*
X512586D01*
X482586D02*
X486586D01*
X482586Y469672D02*
Y504672D01*
Y469672D02*
X486586D01*
Y463672D02*
Y469672D01*
Y463672D02*
X508586D01*
Y469672D01*
Y504672D02*
Y510672D01*
X486586D02*
X508586D01*
X486586Y504672D02*
Y510672D01*
X259064Y129726D02*
Y184726D01*
X333264Y129726D02*
Y184726D01*
X259064D02*
X333264D01*
X259064Y129726D02*
X333264D01*
D25*
X221488Y423418D02*
D03*
X200488D02*
D03*
X286938Y406146D02*
D03*
X265938D02*
D03*
X226822Y300482D02*
D03*
X247822D02*
D03*
X287020Y383286D02*
D03*
X266020D02*
D03*
X287020Y364236D02*
D03*
X266020D02*
D03*
X131908Y410972D02*
D03*
X152908D02*
D03*
X131908Y388366D02*
D03*
X152908D02*
D03*
X131908Y368808D02*
D03*
X152908D02*
D03*
X131908Y347218D02*
D03*
X152908D02*
D03*
X189738Y300482D02*
D03*
X210738D02*
D03*
D28*
X300736Y318852D02*
D03*
Y339852D02*
D03*
X281432Y318852D02*
D03*
Y339852D02*
D03*
X262128Y318852D02*
D03*
Y339852D02*
D03*
D29*
X80010Y164136D02*
D03*
Y199136D02*
D03*
X520954Y385012D02*
D03*
Y350012D02*
D03*
Y315012D02*
D03*
Y280012D02*
D03*
X80036Y286968D02*
D03*
Y251968D02*
D03*
X80010Y444904D02*
D03*
Y409904D02*
D03*
Y374904D02*
D03*
Y339904D02*
D03*
D30*
X261672Y80010D02*
D03*
X296672D02*
D03*
X331672D02*
D03*
X427026Y80600D02*
D03*
X462026D02*
D03*
X497026D02*
D03*
X532026D02*
D03*
D58*
X112522Y485648D02*
D03*
X87122Y511048D02*
D03*
Y485648D02*
D03*
X112522Y511048D02*
D03*
X137922Y511048D02*
D03*
D59*
Y485648D02*
D03*
D69*
X250784Y361442D02*
X251460D01*
X249489Y362736D02*
X250784Y361442D01*
X240824Y362736D02*
X249489D01*
X239324Y364236D02*
X240824Y362736D01*
D70*
X228600Y519430D02*
D03*
X254000D02*
D03*
X228600Y443230D02*
D03*
X254000D02*
D03*
D71*
X165862Y444246D02*
D03*
D72*
X191262D02*
D03*
D73*
X30226Y569722D02*
D03*
X569722D02*
D03*
D74*
X387698Y192024D02*
D03*
Y166624D02*
D03*
Y141224D02*
D03*
Y115824D02*
D03*
Y90424D02*
D03*
Y65024D02*
D03*
X570898Y192024D02*
D03*
Y166624D02*
D03*
Y141224D02*
D03*
Y115824D02*
D03*
Y90424D02*
D03*
Y65024D02*
D03*
D75*
X75894Y33010D02*
D03*
D76*
X45894Y80010D02*
D03*
X105894D02*
D03*
D77*
X185700Y546300D02*
D03*
D78*
X211100D02*
D03*
X236500D02*
D03*
X261900D02*
D03*
X287300D02*
D03*
X312700D02*
D03*
X338100D02*
D03*
X363500D02*
D03*
X388900D02*
D03*
X414300D02*
D03*
X185700Y571700D02*
D03*
X211100D02*
D03*
X236500D02*
D03*
X261900D02*
D03*
X287300D02*
D03*
X312700D02*
D03*
X338100D02*
D03*
X363500D02*
D03*
X388900D02*
D03*
X414300D02*
D03*
D79*
X328422Y212996D02*
D03*
X254254Y140970D02*
D03*
X287006Y176516D02*
D03*
X207264Y194056D02*
D03*
X197998Y150622D02*
D03*
X207916Y216154D02*
D03*
X358902Y212598D02*
D03*
X288544Y138176D02*
D03*
X78740Y181356D02*
D03*
X118618Y167894D02*
D03*
X225296Y395492D02*
D03*
X272932Y329352D02*
D03*
X237501Y308500D02*
D03*
X171704Y314198D02*
D03*
X303530Y356866D02*
D03*
X240030Y415290D02*
D03*
X102362Y117094D02*
D03*
X140911Y368949D02*
D03*
X119126Y377444D02*
D03*
X159001Y427245D02*
D03*
X117094Y445385D02*
D03*
X79756Y354838D02*
D03*
X117094Y409448D02*
D03*
X138802Y149736D02*
D03*
X203734Y128624D02*
D03*
X214108Y260618D02*
D03*
X203734Y114300D02*
D03*
X157860Y129072D02*
D03*
X425704Y44958D02*
D03*
X510032Y171196D02*
D03*
X462788Y483870D02*
D03*
X520192Y398272D02*
D03*
X540004D02*
D03*
X425450Y21590D02*
D03*
X251460Y361442D02*
D03*
X305562Y378460D02*
D03*
X299466Y393192D02*
D03*
X584200Y331470D02*
D03*
X467106Y547624D02*
D03*
X109728Y38608D02*
D03*
X132334Y66548D02*
D03*
X443317Y347070D02*
D03*
X249936Y242316D02*
D03*
X22606Y19050D02*
D03*
X73152Y7112D02*
D03*
X172212Y69342D02*
D03*
X400304Y244602D02*
D03*
X377444Y231902D02*
D03*
X378460Y253492D02*
D03*
X400812Y258572D02*
D03*
X559308Y279908D02*
D03*
X385572Y221996D02*
D03*
X275590Y241808D02*
D03*
X288077Y241767D02*
D03*
X300722Y241568D02*
D03*
X226836Y260618D02*
D03*
X282702Y502158D02*
D03*
X437896Y541020D02*
D03*
X297688Y484632D02*
D03*
X497586Y460248D02*
D03*
X451000Y461500D02*
D03*
X443484Y487172D02*
D03*
X346949Y436895D02*
D03*
X332538Y308974D02*
D03*
X341538Y316992D02*
D03*
X354584Y486918D02*
D03*
X430643Y487059D02*
D03*
X455930Y517034D02*
D03*
X441198Y552196D02*
D03*
X400812Y274320D02*
D03*
X313436Y241554D02*
D03*
X135246Y86682D02*
D03*
X560070Y314706D02*
D03*
X450850Y372618D02*
D03*
X144272Y245618D02*
D03*
Y271780D02*
D03*
X143764Y297180D02*
D03*
X80010Y391160D02*
D03*
Y268224D02*
D03*
X113284Y323088D02*
D03*
X330454Y362458D02*
D03*
X339598Y351790D02*
D03*
X321056Y373126D02*
D03*
X120396Y217424D02*
D03*
X126492Y305054D02*
D03*
X326644Y117856D02*
D03*
X400304Y485140D02*
D03*
X390398Y482346D02*
D03*
X335788Y407162D02*
D03*
X398144Y475362D02*
D03*
X421386Y374904D02*
D03*
X171450Y364236D02*
D03*
X446786Y80518D02*
D03*
X522224Y140462D02*
D03*
X230378Y7112D02*
D03*
X179070Y25654D02*
D03*
X166370Y6096D02*
D03*
X117856Y258318D02*
D03*
D93*
X155504Y144526D02*
D03*
X162504D02*
D03*
D94*
X239324Y402336D02*
D03*
Y389636D02*
D03*
Y376936D02*
D03*
Y364236D02*
D03*
Y351536D02*
D03*
Y338836D02*
D03*
Y326136D02*
D03*
X182824Y402336D02*
D03*
Y389636D02*
D03*
Y376936D02*
D03*
Y364236D02*
D03*
Y351536D02*
D03*
Y338836D02*
D03*
Y326136D02*
D03*
D95*
X246500Y259750D02*
D03*
Y199250D02*
D03*
X207000Y18750D02*
D03*
Y79250D02*
D03*
D96*
X169000Y171000D02*
D03*
Y217000D02*
D03*
D97*
X186000Y112450D02*
D03*
Y125150D02*
D03*
Y137850D02*
D03*
Y150550D02*
D03*
X240000D02*
D03*
Y137850D02*
D03*
Y125150D02*
D03*
Y112450D02*
D03*
D98*
X144500Y118000D02*
D03*
X157500D02*
D03*
X151000Y99000D02*
D03*
D99*
X157000Y26500D02*
D03*
Y69500D02*
D03*
D100*
X119750Y117000D02*
D03*
X85250D02*
D03*
D101*
X144012Y144526D02*
X155504D01*
X138802Y149736D02*
X144012Y144526D01*
M02*
