G04*
G04 #@! TF.GenerationSoftware,Altium Limited,Altium Designer,21.2.2 (38)*
G04*
G04 Layer_Color=16711935*
%FSLAX44Y44*%
%MOMM*%
G71*
G04*
G04 #@! TF.SameCoordinates,265A67D8-C3AC-4CD1-A284-A86046D17BEF*
G04*
G04*
G04 #@! TF.FilePolarity,Positive*
G04*
G01*
G75*
%ADD10C,0.2000*%
%ADD11C,0.5080*%
%ADD12C,0.4000*%
%ADD13C,1.0000*%
%ADD14C,0.2500*%
%ADD15C,0.5000*%
%ADD16C,0.1270*%
%ADD17C,0.1500*%
%ADD23C,0.0500*%
%ADD101C,0.2540*%
%ADD111C,0.1000*%
%ADD117R,2.9000X0.6500*%
D10*
X321264Y137926D02*
G03*
X321264Y137926I-1000J0D01*
G01*
X279004Y128388D02*
X314004D01*
Y111388D02*
Y128388D01*
X279004Y111388D02*
X314004D01*
X279004D02*
Y128388D01*
X131454Y416164D02*
Y451164D01*
X148454D01*
Y416164D02*
Y451164D01*
X131454Y416164D02*
X148454D01*
X131454Y379162D02*
X148454D01*
Y414162D01*
X131454D02*
X148454D01*
X131454Y379162D02*
Y414162D01*
X144662Y-6812D02*
Y30688D01*
Y-6812D02*
X225162D01*
Y30688D01*
X144662D02*
X225162D01*
X208814Y376818D02*
X243814D01*
X208814D02*
Y393818D01*
X243814D01*
Y376818D02*
Y393818D01*
X208474Y357514D02*
Y374514D01*
Y357514D02*
X243474D01*
Y374514D01*
X208474D02*
X243474D01*
X115452Y31690D02*
Y66690D01*
X132452D01*
Y31690D02*
Y66690D01*
X115452Y31690D02*
X132452D01*
X215500Y312500D02*
X232500D01*
Y347500D01*
X215500D02*
X232500D01*
X215500Y312500D02*
Y347500D01*
X140090Y111953D02*
X157090D01*
Y146954D01*
X140090D02*
X157090D01*
X140090Y111953D02*
Y146954D01*
X167014Y111954D02*
X184014D01*
Y146954D01*
X167014D02*
X184014D01*
X167014Y111954D02*
Y146954D01*
X2892Y15866D02*
X46892D01*
Y-1134D02*
Y15866D01*
X2892Y-1134D02*
X46892D01*
X2892D02*
Y15866D01*
X37892Y-1134D02*
Y15866D01*
X144750Y-6750D02*
Y30750D01*
Y-6750D02*
X225250D01*
Y30750D01*
X144750D02*
X225250D01*
X471100Y327150D02*
Y507150D01*
X279100D02*
X471100D01*
X279100Y327150D02*
Y507150D01*
Y327150D02*
X471100D01*
X126940Y278012D02*
X161940D01*
X126940D02*
Y295012D01*
X161940D01*
Y278012D02*
Y295012D01*
X162000Y249500D02*
Y266500D01*
X127000D02*
X162000D01*
X127000Y249500D02*
Y266500D01*
Y249500D02*
X162000D01*
Y189802D02*
Y206802D01*
X127000D02*
X162000D01*
X127000Y189802D02*
Y206802D01*
Y189802D02*
X162000D01*
X127000Y170930D02*
X162000D01*
X127000D02*
Y187930D01*
X162000D01*
Y170930D02*
Y187930D01*
X101032Y128152D02*
X136032D01*
X101032D02*
Y145152D01*
X136032D01*
Y128152D02*
Y145152D01*
X117746Y86182D02*
X134746D01*
X117746Y113682D02*
X134746D01*
X117746Y78682D02*
Y113682D01*
Y78682D02*
X134746D01*
Y113682D01*
X256930Y358080D02*
Y393080D01*
X273930D01*
Y358080D02*
Y393080D01*
X256930Y358080D02*
X273930D01*
X233000Y56500D02*
Y73500D01*
X198000D02*
X233000D01*
X198000Y56500D02*
Y73500D01*
Y56500D02*
X233000D01*
Y37000D02*
Y54000D01*
X198000D02*
X233000D01*
X198000Y37000D02*
Y54000D01*
Y37000D02*
X233000D01*
X321500Y249500D02*
Y266500D01*
Y249500D02*
X356500D01*
Y266500D01*
X321500D02*
X356500D01*
X422266Y267402D02*
Y302402D01*
X405266Y267402D02*
X422266D01*
X405266D02*
Y302402D01*
X422266D01*
X222500Y153000D02*
X239500D01*
Y188000D01*
X222500D02*
X239500D01*
X222500Y153000D02*
Y188000D01*
X203000Y153000D02*
X220000D01*
Y188000D01*
X203000D02*
X220000D01*
X203000Y153000D02*
Y188000D01*
X253500Y347500D02*
X270500D01*
X253500Y312500D02*
Y347500D01*
Y312500D02*
X270500D01*
Y347500D01*
X251500Y312500D02*
Y347500D01*
X234500Y312500D02*
X251500D01*
X234500D02*
Y347500D01*
X251500D01*
X47342Y15866D02*
X91342D01*
Y-1134D02*
Y15866D01*
X47342Y-1134D02*
X91342D01*
X47342D02*
Y15866D01*
X82342Y-1134D02*
Y15866D01*
X91792D02*
X135792D01*
Y-1134D02*
Y15866D01*
X91792Y-1134D02*
X135792D01*
X91792D02*
Y15866D01*
X126792Y-1134D02*
Y15866D01*
X0Y0D02*
X600000D01*
X0D02*
Y600000D01*
X600000Y0D02*
Y600000D01*
X0D02*
X600000D01*
D11*
X527584Y279172D02*
G03*
X527584Y279172I-3810J0D01*
G01*
X265482Y80010D02*
G03*
X265482Y80010I-3810J0D01*
G01*
X83820Y199084D02*
G03*
X83820Y199084I-3810J0D01*
G01*
X83846Y286968D02*
G03*
X83846Y286968I-3810J0D01*
G01*
X81000Y445744D02*
G03*
X81000Y445744I-3810J0D01*
G01*
X429996Y77780D02*
G03*
X429996Y77780I-3810J0D01*
G01*
X527630Y279160D02*
G03*
X527630Y279160I-3810J0D01*
G01*
X265310Y80000D02*
G03*
X265310Y80000I-3810J0D01*
G01*
X80990Y445840D02*
G03*
X80990Y445840I-3810J0D01*
G01*
X83810Y287000D02*
G03*
X83810Y287000I-3810J0D01*
G01*
Y199000D02*
G03*
X83810Y199000I-3810J0D01*
G01*
X382414Y205824D02*
X386646D01*
X388762Y207940D01*
Y212172D01*
X386646Y214288D01*
X382414D01*
X380298Y212172D01*
Y207940D01*
X382414Y205824D01*
D12*
X147862Y443246D02*
G03*
X147862Y443246I-2000J0D01*
G01*
X485648Y-30226D02*
G03*
X472948Y-30226I-6350J0D01*
G01*
X485750Y-30250D02*
G03*
X473050Y-30250I-6350J0D01*
G01*
X485648Y-30226D02*
X597598D01*
X361198Y1868D02*
X597598Y1868D01*
X361198Y251968D02*
X597598D01*
X361198Y-30226D02*
X472948D01*
X361198D02*
Y251968D01*
X597598Y-30226D02*
Y251968D01*
X485750Y-30250D02*
X597700D01*
X361300Y1844D02*
X597700D01*
X361300Y251944D02*
X597700D01*
X361300Y-30250D02*
X473050D01*
X361300D02*
Y251944D01*
X597700Y-30250D02*
Y251944D01*
D13*
X424180Y-10660D02*
Y32520D01*
X406146Y14486D02*
X424180Y32520D01*
X441706Y14994D01*
X535940Y33282D02*
X553466Y15756D01*
X517906Y15248D02*
X535940Y33282D01*
Y-9898D02*
Y33282D01*
X424282Y-10684D02*
Y32496D01*
X406248Y14462D02*
X424282Y32496D01*
X441808Y14970D01*
X536042Y33258D02*
X553568Y15732D01*
X518008Y15224D02*
X536042Y33258D01*
Y-9922D02*
Y33258D01*
D14*
X239750Y138000D02*
G03*
X239750Y138000I-1250J0D01*
G01*
X202600Y80600D02*
G03*
X202600Y80600I-1250J0D01*
G01*
D15*
X293214Y334500D02*
G03*
X293214Y334500I-2214J0D01*
G01*
D16*
X276164Y132226D02*
Y182226D01*
X316164Y132226D02*
Y182226D01*
X276164D02*
X316164D01*
X276164Y132226D02*
X316164D01*
X153162Y456946D02*
X203962D01*
Y431546D02*
Y456946D01*
X153162Y431546D02*
X203962D01*
X153162D02*
Y456946D01*
D17*
X280004Y116888D02*
Y124885D01*
X284003D01*
X285336Y123553D01*
Y120887D01*
X284003Y119554D01*
X280004D01*
X282670D02*
X285336Y116888D01*
X293333D02*
X288001D01*
X293333Y122220D01*
Y123553D01*
X292000Y124885D01*
X289334D01*
X288001Y123553D01*
X295999Y118221D02*
X297332Y116888D01*
X299998D01*
X301331Y118221D01*
Y123553D01*
X299998Y124885D01*
X297332D01*
X295999Y123553D01*
Y122220D01*
X297332Y120887D01*
X301331D01*
D23*
X259064Y129726D02*
Y184726D01*
X333264Y129726D02*
Y184726D01*
X259064D02*
X333264D01*
X259064Y129726D02*
X333264D01*
D101*
X630454Y255550D02*
Y409474D01*
X503454D02*
X630454D01*
X503454Y255550D02*
Y409474D01*
Y255550D02*
X630454D01*
X355872Y-29490D02*
Y97510D01*
X237210Y-29490D02*
X355872D01*
X237210Y97510D02*
X355872D01*
X237210Y-29490D02*
Y97510D01*
X-29490Y140934D02*
X97510D01*
X-29490D02*
Y223546D01*
X97510Y140934D02*
Y223546D01*
X-29490D02*
X97510D01*
X-29464Y228818D02*
X97536D01*
X-29464D02*
Y311430D01*
X97536Y228818D02*
Y311430D01*
X-29464D02*
X97536D01*
X-29490Y469366D02*
X97510D01*
Y315442D02*
Y469366D01*
X-29490Y315442D02*
X97510D01*
X-29490D02*
Y469366D01*
X402564Y-28900D02*
X556488D01*
Y98100D01*
X402564D02*
X556488D01*
X402564Y-28900D02*
Y98100D01*
X503500Y255538D02*
X630500D01*
X503500D02*
Y409462D01*
X630500D01*
Y255538D02*
Y409462D01*
X355700Y-29500D02*
Y97500D01*
X237037Y-29500D02*
X355700D01*
X237037Y97500D02*
X355700D01*
X237037Y-29500D02*
Y97500D01*
X-29500Y469462D02*
X97500D01*
Y315538D02*
Y469462D01*
X-29500Y315538D02*
X97500D01*
X-29500D02*
Y469462D01*
Y228850D02*
X97500D01*
X-29500D02*
Y311462D01*
X97500Y228850D02*
Y311462D01*
X-29500D02*
X97500D01*
X-29500Y223462D02*
X97500D01*
Y140850D02*
Y223462D01*
X-29500Y140850D02*
Y223462D01*
Y140850D02*
X97500D01*
X573186Y171108D02*
X571070Y173224D01*
X566838D01*
X564722Y171108D01*
Y162644D01*
X566838Y160528D01*
X571070D01*
X573186Y162644D01*
X585882Y171108D02*
X583766Y173224D01*
X579534D01*
X577418Y171108D01*
Y168992D01*
X579534Y166876D01*
X583766D01*
X585882Y164760D01*
Y162644D01*
X583766Y160528D01*
X579534D01*
X577418Y162644D01*
X543562Y110236D02*
Y122932D01*
X547794Y118700D01*
X552026Y122932D01*
Y110236D01*
X562606Y122932D02*
X558374D01*
X556258Y120816D01*
Y112352D01*
X558374Y110236D01*
X562606D01*
X564722Y112352D01*
Y120816D01*
X562606Y122932D01*
X577418Y120816D02*
X575302Y122932D01*
X571070D01*
X568954Y120816D01*
Y118700D01*
X571070Y116584D01*
X575302D01*
X577418Y114468D01*
Y112352D01*
X575302Y110236D01*
X571070D01*
X568954Y112352D01*
X581650Y122932D02*
X585882D01*
X583766D01*
Y110236D01*
X581650D01*
X585882D01*
X560490Y95416D02*
X558374Y97532D01*
X554142D01*
X552026Y95416D01*
Y86952D01*
X554142Y84836D01*
X558374D01*
X560490Y86952D01*
Y91184D01*
X556258D01*
X564722Y84836D02*
Y97532D01*
X573186Y84836D01*
Y97532D01*
X577418D02*
Y84836D01*
X583766D01*
X585882Y86952D01*
Y95416D01*
X583766Y97532D01*
X577418D01*
X554142Y198624D02*
X558374D01*
X556258D01*
Y185928D01*
X554142D01*
X558374D01*
X564722D02*
Y198624D01*
X573186Y185928D01*
Y198624D01*
X577418D02*
X585882D01*
X581650D01*
Y185928D01*
X560490Y70016D02*
X558374Y72132D01*
X554142D01*
X552026Y70016D01*
Y61552D01*
X554142Y59436D01*
X558374D01*
X560490Y61552D01*
Y65784D01*
X556258D01*
X564722Y59436D02*
Y72132D01*
X573186Y59436D01*
Y72132D01*
X577418D02*
Y59436D01*
X583766D01*
X585882Y61552D01*
Y70016D01*
X583766Y72132D01*
X577418D01*
X547794Y145454D02*
X545678Y147570D01*
X541446D01*
X539330Y145454D01*
Y143338D01*
X541446Y141222D01*
X545678D01*
X547794Y139106D01*
Y136990D01*
X545678Y134874D01*
X541446D01*
X539330Y136990D01*
X560490Y145454D02*
X558374Y147570D01*
X554142D01*
X552026Y145454D01*
Y136990D01*
X554142Y134874D01*
X558374D01*
X560490Y136990D01*
X564722Y147570D02*
Y134874D01*
X573186D01*
X577418Y147570D02*
Y134874D01*
Y139106D01*
X585882Y147570D01*
X579534Y141222D01*
X585882Y134874D01*
X381932Y70016D02*
X379816Y72132D01*
X375584D01*
X373468Y70016D01*
Y61552D01*
X375584Y59436D01*
X379816D01*
X381932Y61552D01*
Y65784D01*
X377700D01*
X386164Y59436D02*
Y72132D01*
X394628Y59436D01*
Y72132D01*
X398860D02*
Y59436D01*
X405208D01*
X407324Y61552D01*
Y70016D01*
X405208Y72132D01*
X398860D01*
X373468Y160528D02*
Y173224D01*
X379816D01*
X381932Y171108D01*
Y166876D01*
X379816Y164760D01*
X373468D01*
X377700D02*
X381932Y160528D01*
X394628Y171108D02*
X392512Y173224D01*
X388280D01*
X386164Y171108D01*
Y168992D01*
X388280Y166876D01*
X392512D01*
X394628Y164760D01*
Y162644D01*
X392512Y160528D01*
X388280D01*
X386164Y162644D01*
X398860Y173224D02*
X407324D01*
X403092D01*
Y160528D01*
X373468Y97532D02*
Y89068D01*
X377700Y84836D01*
X381932Y89068D01*
Y97532D01*
X394628Y95416D02*
X392512Y97532D01*
X388280D01*
X386164Y95416D01*
Y86952D01*
X388280Y84836D01*
X392512D01*
X394628Y86952D01*
X407324Y95416D02*
X405208Y97532D01*
X400976D01*
X398860Y95416D01*
Y86952D01*
X400976Y84836D01*
X405208D01*
X407324Y86952D01*
X373468Y122932D02*
Y114468D01*
X377700Y110236D01*
X381932Y114468D01*
Y122932D01*
X394628Y120816D02*
X392512Y122932D01*
X388280D01*
X386164Y120816D01*
Y112352D01*
X388280Y110236D01*
X392512D01*
X394628Y112352D01*
X407324Y120816D02*
X405208Y122932D01*
X400976D01*
X398860Y120816D01*
Y112352D01*
X400976Y110236D01*
X405208D01*
X407324Y112352D01*
X373468Y185928D02*
Y198624D01*
X377700Y194392D01*
X381932Y198624D01*
Y185928D01*
X386164Y198624D02*
X390396D01*
X388280D01*
Y185928D01*
X386164D01*
X390396D01*
X405208Y196508D02*
X403092Y198624D01*
X398860D01*
X396744Y196508D01*
Y194392D01*
X398860Y192276D01*
X403092D01*
X405208Y190160D01*
Y188044D01*
X403092Y185928D01*
X398860D01*
X396744Y188044D01*
X415788Y198624D02*
X411556D01*
X409440Y196508D01*
Y188044D01*
X411556Y185928D01*
X415788D01*
X417904Y188044D01*
Y196508D01*
X415788Y198624D01*
X373468Y134874D02*
Y147570D01*
X381932Y134874D01*
Y147570D01*
X394628Y145454D02*
X392512Y147570D01*
X388280D01*
X386164Y145454D01*
Y136990D01*
X388280Y134874D01*
X392512D01*
X394628Y136990D01*
D111*
X149526Y298304D02*
Y311804D01*
X135526Y298304D02*
X153526D01*
X135526Y311804D02*
X153526D01*
Y298304D02*
Y311804D01*
X135526Y298304D02*
Y311804D01*
X135500Y210052D02*
Y223552D01*
X153500Y210052D02*
Y223552D01*
X135500D02*
X153500D01*
X135500Y210052D02*
X153500D01*
X149500D02*
Y223552D01*
X149500Y154180D02*
Y167680D01*
X135500Y154180D02*
X153500D01*
X135500Y167680D02*
X153500D01*
Y154180D02*
Y167680D01*
X135500Y154180D02*
Y167680D01*
X135500Y232750D02*
Y246250D01*
X153500Y232750D02*
Y246250D01*
X135500D02*
X153500D01*
X135500Y232750D02*
X153500D01*
X149500D02*
Y246250D01*
X439398Y266492D02*
X468398D01*
Y303992D01*
X439398D02*
X468398D01*
X439398Y266492D02*
Y303992D01*
X274600Y538600D02*
X279600Y533600D01*
X330400D02*
X345800D01*
X198400Y579400D02*
X203400Y584400D01*
X173000Y538600D02*
Y579400D01*
X178000Y584400D02*
X193400D01*
X376200Y579400D02*
X381200Y584400D01*
X279600D02*
X295000D01*
X305000D02*
X320400D01*
X396600D02*
X401600Y579400D01*
X173000D02*
X178000Y584400D01*
X173000Y538600D02*
X178000Y533600D01*
X223800Y579400D02*
X228800Y584400D01*
X381200Y533600D02*
X396600D01*
X371200D02*
X376200Y538600D01*
X193400Y533600D02*
X198400Y538600D01*
X320400Y584400D02*
X325400Y579400D01*
X345800Y584400D02*
X350800Y579400D01*
X345800Y533600D02*
X350800Y538600D01*
X422000Y584400D02*
X427000Y579400D01*
X295000Y584400D02*
X300000Y579400D01*
X401600Y538600D02*
X406600Y533600D01*
X325400Y538600D02*
X330400Y533600D01*
X401600Y579400D02*
X406600Y584400D01*
X269600D02*
X274600Y579400D01*
X427000Y538600D02*
Y579400D01*
X376200Y538600D02*
X381200Y533600D01*
X244200D02*
X249200Y538600D01*
X254200Y533600D02*
X269600D01*
X355800Y584400D02*
X371200D01*
X320400Y533600D02*
X325400Y538600D01*
X381200Y584400D02*
X396600D01*
X249200Y538600D02*
X254200Y533600D01*
X406600Y584400D02*
X422000D01*
X295000Y533600D02*
X300000Y538600D01*
X203400Y584400D02*
X218800D01*
X300000Y538600D02*
X305000Y533600D01*
X228800Y584400D02*
X244200D01*
X279600Y533600D02*
X295000D01*
X305000D02*
X320400D01*
X406600D02*
X422000D01*
X350800Y579400D02*
X355800Y584400D01*
X244200D02*
X249200Y579400D01*
X218800Y584400D02*
X223800Y579400D01*
X249200D02*
X254200Y584400D01*
X218800Y533600D02*
X223800Y538600D01*
X371200Y584400D02*
X376200Y579400D01*
X325400D02*
X330400Y584400D01*
X300000Y579400D02*
X305000Y584400D01*
X330400D02*
X345800D01*
X203400Y533600D02*
X218800D01*
X254200Y584400D02*
X269600D01*
X274600Y579400D02*
X279600Y584400D01*
X350800Y538600D02*
X355800Y533600D01*
X396600D02*
X401600Y538600D01*
X228800Y533600D02*
X244200D01*
X198400Y538600D02*
X203400Y533600D01*
X223800Y538600D02*
X228800Y533600D01*
X269600D02*
X274600Y538600D01*
X193400Y584400D02*
X198400Y579400D01*
X422000Y533600D02*
X427000Y538600D01*
X178000Y533600D02*
X193400D01*
X355800D02*
X371200D01*
X355800Y533600D02*
X371200D01*
X178000D02*
X193400D01*
X422000D02*
X427000Y538600D01*
X193400Y584400D02*
X198400Y579400D01*
X269600Y533600D02*
X274600Y538600D01*
X223800D02*
X228800Y533600D01*
X198400Y538600D02*
X203400Y533600D01*
X228800D02*
X244200D01*
X396600D02*
X401600Y538600D01*
X350800D02*
X355800Y533600D01*
X274600Y579400D02*
X279600Y584400D01*
X254200D02*
X269600D01*
X203400Y533600D02*
X218800D01*
X330400Y584400D02*
X345800D01*
X300000Y579400D02*
X305000Y584400D01*
X325400Y579400D02*
X330400Y584400D01*
X371200D02*
X376200Y579400D01*
X218800Y533600D02*
X223800Y538600D01*
X249200Y579400D02*
X254200Y584400D01*
X218800D02*
X223800Y579400D01*
X244200Y584400D02*
X249200Y579400D01*
X350800D02*
X355800Y584400D01*
X406600Y533600D02*
X422000D01*
X305000D02*
X320400D01*
X279600D02*
X295000D01*
X228800Y584400D02*
X244200D01*
X300000Y538600D02*
X305000Y533600D01*
X203400Y584400D02*
X218800D01*
X295000Y533600D02*
X300000Y538600D01*
X406600Y584400D02*
X422000D01*
X249200Y538600D02*
X254200Y533600D01*
X381200Y584400D02*
X396600D01*
X320400Y533600D02*
X325400Y538600D01*
X355800Y584400D02*
X371200D01*
X254200Y533600D02*
X269600D01*
X244200D02*
X249200Y538600D01*
X376200D02*
X381200Y533600D01*
X427000Y538600D02*
Y579400D01*
X269600Y584400D02*
X274600Y579400D01*
X401600D02*
X406600Y584400D01*
X325400Y538600D02*
X330400Y533600D01*
X401600Y538600D02*
X406600Y533600D01*
X295000Y584400D02*
X300000Y579400D01*
X422000Y584400D02*
X427000Y579400D01*
X345800Y533600D02*
X350800Y538600D01*
X345800Y584400D02*
X350800Y579400D01*
X320400Y584400D02*
X325400Y579400D01*
X193400Y533600D02*
X198400Y538600D01*
X371200Y533600D02*
X376200Y538600D01*
X381200Y533600D02*
X396600D01*
X223800Y579400D02*
X228800Y584400D01*
X173000Y538600D02*
X178000Y533600D01*
X173000Y579400D02*
X178000Y584400D01*
X396600D02*
X401600Y579400D01*
X305000Y584400D02*
X320400D01*
X279600D02*
X295000D01*
X376200Y579400D02*
X381200Y584400D01*
X178000D02*
X193400D01*
X173000Y538600D02*
Y579400D01*
X198400D02*
X203400Y584400D01*
X330400Y533600D02*
X345800D01*
X274600Y538600D02*
X279600Y533600D01*
X209000Y135000D02*
X231000D01*
X209000D02*
Y149000D01*
X231000Y135000D02*
Y149000D01*
X209000D02*
X231000D01*
X226200Y96500D02*
Y110500D01*
X195800Y96500D02*
Y110500D01*
X226200D01*
X195800Y96500D02*
X226200D01*
D117*
X453897Y269728D02*
D03*
M02*
