M48
;Layer_Color=9474304
;FILE_FORMAT=4:4
METRIC,LZ
;TYPE=PLATED
T1F00S00C0.3000
T2F00S00C0.8000
T3F00S00C0.9000
T5F00S00C1.0160
T6F00S00C3.1750
%
T01
X00022606Y0001905
X00073152Y00007112
X00109728Y00038608
X00132334Y00066548
X00135246Y00086682
X00102362Y00117094
X0015786Y00129072
X00203734Y00128624
Y001143
X00172212Y00069342
X0017907Y00025654
X0016637Y00006096
X00230378Y00007112
X00254254Y0014097
X00288544Y00138176
X00326644Y00117856
X00446786Y00080518
X00425704Y00044958
X0042545Y0002159
X00522224Y00140462
X00559308Y00279908
X0056007Y00314706
X005842Y0033147
X00540004Y00398272
X00520192
X00497586Y0046101
X00451Y004615
X00443484Y00487172
X00430643Y00487059
X00400304Y0048514
X00398144Y00475362
X00390398Y00482346
X00354584Y00486918
X00346949Y00436895
X00335788Y00407162
X00321056Y00373126
X00330454Y00362458
X00339598Y0035179
X00341538Y00316992
X00332538Y00308974
X0030353Y00356866
X00305562Y0037846
X00299466Y00393192
X00225296Y00395492
X0024003Y0041529
X0025146Y00361442
X00272932Y00329352
X00237501Y003085
X00226836Y00260618
X00214108
X00207916Y00216154
X00207264Y00194056
X00197998Y00150622
X00287006Y00176516
X00288077Y00241767
X0027559Y00241808
X00300722Y00241568
X00313436Y00241554
X00328422Y00212996
X00358902Y00212598
X00385572Y00221996
X00377444Y00231902
X0037846Y00253492
X00400812Y00258572
X00400304Y00244602
X00400812Y0027432
X00443317Y0034707
X0045085Y00372618
X00421386Y00374904
X00462788Y0048387
X0045593Y00517034
X00282702Y00502158
X00297688Y00484632
X00159001Y00427245
X0017145Y00364236
X00171704Y00314198
X00143764Y0029718
X00144272Y0027178
Y00245618
X00249936Y00242316
X00510032Y00171196
X00138802Y00149736
X00118618Y00167894
X00120396Y00217424
X00117856Y00258318
X0008001Y00268224
X00126492Y00305054
X00113284Y00323088
X00119126Y00377444
X00140911Y00368949
X00117094Y00409448
Y00445385
X0008001Y0039116
X00079756Y00354838
X0007874Y00181356
X00437896Y0054102
X00441198Y00552196
X00467106Y00547624
T02
X002286Y0044323
X00254
Y0051943
X002286
T03
X00377698Y00065024
Y00090424
Y00115824
Y00141224
X00580898
Y00115824
Y00090424
Y00065024
Y00166624
Y00192024
X00377698
Y00166624
T05
X00165862Y00444246
X00191262
X00137922Y00485648
X00112522
Y00511048
X00087122Y00511048
Y00485648
X00137922Y00511048
X001857Y005463
X002111
X002365
X002619
X002873
X003127
X003381
X003635
X003889
X004143
Y005717
X003889
X003635
X003381
X003127
X002873
X002619
X002365
X002111
X001857
T06
X00030226Y00569722
X00569722
M30
