G04*
G04 #@! TF.GenerationSoftware,Altium Limited,Altium Designer,21.2.2 (38)*
G04*
G04 Layer_Color=16711935*
%FSLAX44Y44*%
%MOMM*%
G71*
G04*
G04 #@! TF.SameCoordinates,3448E1F9-FA4A-451A-BDEC-0E7D7F7EA446*
G04*
G04*
G04 #@! TF.FilePolarity,Negative*
G04*
G01*
G75*
%ADD10C,0.2000*%
%ADD43R,1.1032X1.4032*%
%ADD45R,1.4032X1.1032*%
%ADD46R,5.7150X1.4986*%
%ADD47R,1.4986X5.7150*%
G04:AMPARAMS|DCode=57|XSize=2.3032mm|YSize=1.7032mm|CornerRadius=0.4766mm|HoleSize=0mm|Usage=FLASHONLY|Rotation=90.000|XOffset=0mm|YOffset=0mm|HoleType=Round|Shape=RoundedRectangle|*
%AMROUNDEDRECTD57*
21,1,2.3032,0.7500,0,0,90.0*
21,1,1.3500,1.7032,0,0,90.0*
1,1,0.9532,0.3750,0.6750*
1,1,0.9532,0.3750,-0.6750*
1,1,0.9532,-0.3750,-0.6750*
1,1,0.9532,-0.3750,0.6750*
%
%ADD57ROUNDEDRECTD57*%
G04:AMPARAMS|DCode=58|XSize=2.3032mm|YSize=1.7032mm|CornerRadius=0.4766mm|HoleSize=0mm|Usage=FLASHONLY|Rotation=180.000|XOffset=0mm|YOffset=0mm|HoleType=Round|Shape=RoundedRectangle|*
%AMROUNDEDRECTD58*
21,1,2.3032,0.7500,0,0,180.0*
21,1,1.3500,1.7032,0,0,180.0*
1,1,0.9532,-0.6750,0.3750*
1,1,0.9532,0.6750,0.3750*
1,1,0.9532,0.6750,-0.3750*
1,1,0.9532,-0.6750,-0.3750*
%
%ADD58ROUNDEDRECTD58*%
%ADD59C,1.6500*%
%ADD60R,1.6500X1.6500*%
%ADD61R,1.8032X1.8032*%
G04:AMPARAMS|DCode=62|XSize=1.7032mm|YSize=1.7032mm|CornerRadius=0.1541mm|HoleSize=0mm|Usage=FLASHONLY|Rotation=0.000|XOffset=0mm|YOffset=0mm|HoleType=Round|Shape=RoundedRectangle|*
%AMROUNDEDRECTD62*
21,1,1.7032,1.3950,0,0,0.0*
21,1,1.3950,1.7032,0,0,0.0*
1,1,0.3082,0.6975,-0.6975*
1,1,0.3082,-0.6975,-0.6975*
1,1,0.3082,-0.6975,0.6975*
1,1,0.3082,0.6975,0.6975*
%
%ADD62ROUNDEDRECTD62*%
%ADD63C,1.7032*%
%ADD65R,4.7752X2.1844*%
G04:AMPARAMS|DCode=66|XSize=1.7532mm|YSize=1.7532mm|CornerRadius=0.4891mm|HoleSize=0mm|Usage=FLASHONLY|Rotation=0.000|XOffset=0mm|YOffset=0mm|HoleType=Round|Shape=RoundedRectangle|*
%AMROUNDEDRECTD66*
21,1,1.7532,0.7750,0,0,0.0*
21,1,0.7750,1.7532,0,0,0.0*
1,1,0.9782,0.3875,-0.3875*
1,1,0.9782,-0.3875,-0.3875*
1,1,0.9782,-0.3875,0.3875*
1,1,0.9782,0.3875,0.3875*
%
%ADD66ROUNDEDRECTD66*%
%ADD67C,1.7532*%
%ADD101R,0.6032X0.8032*%
G04:AMPARAMS|DCode=102|XSize=0.8532mm|YSize=1.8532mm|CornerRadius=0.1504mm|HoleSize=0mm|Usage=FLASHONLY|Rotation=270.000|XOffset=0mm|YOffset=0mm|HoleType=Round|Shape=RoundedRectangle|*
%AMROUNDEDRECTD102*
21,1,0.8532,1.5525,0,0,270.0*
21,1,0.5525,1.8532,0,0,270.0*
1,1,0.3007,-0.7763,-0.2763*
1,1,0.3007,-0.7763,0.2763*
1,1,0.3007,0.7763,0.2763*
1,1,0.3007,0.7763,-0.2763*
%
%ADD102ROUNDEDRECTD102*%
%ADD103R,2.6532X2.7532*%
%ADD104R,5.9032X2.0032*%
%ADD105R,1.7532X0.8032*%
%ADD106R,0.9032X1.1032*%
%ADD107R,2.3532X2.6532*%
%ADD108R,1.4532X1.8532*%
%ADD109C,3.2512*%
D10*
X0Y0D02*
X600000D01*
X0D02*
Y600000D01*
X600000Y0D02*
Y600000D01*
X0D02*
X600000D01*
D43*
X221488Y423418D02*
D03*
X200488D02*
D03*
X286938Y406146D02*
D03*
X265938D02*
D03*
X226822Y300482D02*
D03*
X247822D02*
D03*
X287020Y383286D02*
D03*
X266020D02*
D03*
X287020Y364236D02*
D03*
X266020D02*
D03*
X131908Y410972D02*
D03*
X152908D02*
D03*
X131908Y388366D02*
D03*
X152908D02*
D03*
X131908Y368808D02*
D03*
X152908D02*
D03*
X131908Y347218D02*
D03*
X152908D02*
D03*
X189738Y300482D02*
D03*
X210738D02*
D03*
D45*
X300736Y318852D02*
D03*
Y339852D02*
D03*
X281432Y318852D02*
D03*
Y339852D02*
D03*
X262128Y318852D02*
D03*
Y339852D02*
D03*
D46*
X80010Y164136D02*
D03*
Y199136D02*
D03*
X520954Y385012D02*
D03*
Y350012D02*
D03*
Y315012D02*
D03*
Y280012D02*
D03*
X80036Y286968D02*
D03*
Y251968D02*
D03*
X80010Y444904D02*
D03*
Y409904D02*
D03*
Y374904D02*
D03*
Y339904D02*
D03*
D47*
X261672Y80010D02*
D03*
X296672D02*
D03*
X331672D02*
D03*
X427026Y80600D02*
D03*
X462026D02*
D03*
X497026D02*
D03*
X532026D02*
D03*
D57*
X46000Y80000D02*
D03*
X106000D02*
D03*
D58*
X76000Y33000D02*
D03*
D59*
X112522Y485648D02*
D03*
X87122Y511048D02*
D03*
Y485648D02*
D03*
X112522Y511048D02*
D03*
X137922Y511048D02*
D03*
D60*
Y485648D02*
D03*
D61*
X228600Y519430D02*
D03*
X254000D02*
D03*
X228600Y443230D02*
D03*
X254000D02*
D03*
D62*
X165862Y444246D02*
D03*
D63*
X191262D02*
D03*
D65*
X387698Y192024D02*
D03*
Y166624D02*
D03*
Y141224D02*
D03*
Y115824D02*
D03*
Y90424D02*
D03*
Y65024D02*
D03*
X570898Y192024D02*
D03*
Y166624D02*
D03*
Y141224D02*
D03*
Y115824D02*
D03*
Y90424D02*
D03*
Y65024D02*
D03*
D66*
X185700Y546300D02*
D03*
D67*
X211100D02*
D03*
X236500D02*
D03*
X261900D02*
D03*
X287300D02*
D03*
X312700D02*
D03*
X338100D02*
D03*
X363500D02*
D03*
X388900D02*
D03*
X414300D02*
D03*
X185700Y571700D02*
D03*
X211100D02*
D03*
X236500D02*
D03*
X261900D02*
D03*
X287300D02*
D03*
X312700D02*
D03*
X338100D02*
D03*
X363500D02*
D03*
X388900D02*
D03*
X414300D02*
D03*
D101*
X155504Y144526D02*
D03*
X162504D02*
D03*
D102*
X239324Y402336D02*
D03*
Y389636D02*
D03*
Y376936D02*
D03*
Y364236D02*
D03*
Y351536D02*
D03*
Y338836D02*
D03*
Y326136D02*
D03*
X182824Y402336D02*
D03*
Y389636D02*
D03*
Y376936D02*
D03*
Y364236D02*
D03*
Y351536D02*
D03*
Y338836D02*
D03*
Y326136D02*
D03*
D103*
X246500Y259750D02*
D03*
Y199250D02*
D03*
X207000Y18750D02*
D03*
Y79250D02*
D03*
D104*
X169000Y171000D02*
D03*
Y217000D02*
D03*
D105*
X186000Y112450D02*
D03*
Y125150D02*
D03*
Y137850D02*
D03*
Y150550D02*
D03*
X240000D02*
D03*
Y137850D02*
D03*
Y125150D02*
D03*
Y112450D02*
D03*
D106*
X144500Y118000D02*
D03*
X157500D02*
D03*
X151000Y99000D02*
D03*
D107*
X157000Y26500D02*
D03*
Y69500D02*
D03*
D108*
X119750Y117000D02*
D03*
X85250D02*
D03*
D109*
X30226Y569722D02*
D03*
X569722D02*
D03*
M02*
