G04*
G04 #@! TF.GenerationSoftware,Altium Limited,Altium Designer,21.2.2 (38)*
G04*
G04 Layer_Color=8388736*
%FSLAX44Y44*%
%MOMM*%
G71*
G04*
G04 #@! TF.SameCoordinates,8F59D91E-1953-4D82-9988-75C83E7EF0EF*
G04*
G04*
G04 #@! TF.FilePolarity,Positive*
G04*
G01*
G75*
%ADD10C,0.2000*%
%ADD23C,0.0500*%
D10*
X0Y0D02*
X600000D01*
X0D02*
Y600000D01*
X600000Y0D02*
Y600000D01*
X0D02*
X600000D01*
X0Y0D02*
X600000D01*
X0D02*
Y600000D01*
X600000Y0D02*
Y600000D01*
X0D02*
X600000D01*
D23*
X508586Y469672D02*
X512586D01*
Y504672D01*
X508586D02*
X512586D01*
X482586D02*
X486586D01*
X482586Y469672D02*
Y504672D01*
Y469672D02*
X486586D01*
Y463672D02*
Y469672D01*
Y463672D02*
X508586D01*
Y469672D01*
Y504672D02*
Y510672D01*
X486586D02*
X508586D01*
X486586Y504672D02*
Y510672D01*
X259064Y129726D02*
Y184726D01*
X333264Y129726D02*
Y184726D01*
X259064D02*
X333264D01*
X259064Y129726D02*
X333264D01*
X508586Y469672D02*
X512586D01*
Y504672D01*
X508586D02*
X512586D01*
X482586D02*
X486586D01*
X482586Y469672D02*
Y504672D01*
Y469672D02*
X486586D01*
Y463672D02*
Y469672D01*
Y463672D02*
X508586D01*
Y469672D01*
Y504672D02*
Y510672D01*
X486586D02*
X508586D01*
X486586Y504672D02*
Y510672D01*
X259064Y129726D02*
Y184726D01*
X333264Y129726D02*
Y184726D01*
X259064D02*
X333264D01*
X259064Y129726D02*
X333264D01*
M02*
