G04*
G04 #@! TF.GenerationSoftware,Altium Limited,Altium Designer,21.2.2 (38)*
G04*
G04 Layer_Color=128*
%FSLAX44Y44*%
%MOMM*%
G71*
G04*
G04 #@! TF.SameCoordinates,265A67D8-C3AC-4CD1-A284-A86046D17BEF*
G04*
G04*
G04 #@! TF.FilePolarity,Positive*
G04*
G01*
G75*
%ADD10C,0.2000*%
%ADD23C,0.0500*%
%ADD124C,0.0508*%
D10*
X0Y0D02*
X600000D01*
X0D02*
Y600000D01*
X600000Y0D02*
Y600000D01*
X0D02*
X600000D01*
D23*
X259064Y129726D02*
Y184726D01*
X333264Y129726D02*
Y184726D01*
X259064D02*
X333264D01*
X259064Y129726D02*
X333264D01*
D124*
X224600Y519430D02*
X232600D01*
X228600Y515430D02*
Y523430D01*
X250000Y519430D02*
X258000D01*
X254000Y515430D02*
Y523430D01*
X224600Y443230D02*
X232600D01*
X228600Y439230D02*
Y447230D01*
X250000Y443230D02*
X258000D01*
X254000Y439230D02*
Y447230D01*
X160782Y444246D02*
X170942D01*
X165862Y439166D02*
Y449326D01*
X186182Y444246D02*
X196342D01*
X191262Y439166D02*
Y449326D01*
X82042Y511048D02*
X92202D01*
X87122Y505968D02*
Y516128D01*
X82042Y485648D02*
X92202D01*
X87122Y480568D02*
Y490728D01*
X107442Y511048D02*
X117602D01*
X112522Y505968D02*
Y516128D01*
X107442Y485648D02*
X117602D01*
X112522Y480568D02*
Y490728D01*
X132842Y511048D02*
X143002D01*
X137922Y505968D02*
Y516128D01*
X132842Y485648D02*
X143002D01*
X137922Y480568D02*
Y490728D01*
X14351Y569722D02*
X46101D01*
X30226Y553847D02*
Y585597D01*
X553847Y569722D02*
X585597D01*
X569722Y553847D02*
Y585597D01*
X373198Y192024D02*
X382198D01*
X377698Y187524D02*
Y196524D01*
X373198Y166624D02*
X382198D01*
X377698Y162124D02*
Y171124D01*
X373198Y141224D02*
X382198D01*
X377698Y136724D02*
Y145724D01*
X373198Y115824D02*
X382198D01*
X377698Y111324D02*
Y120324D01*
X373198Y90424D02*
X382198D01*
X377698Y85924D02*
Y94924D01*
X373198Y65024D02*
X382198D01*
X377698Y60524D02*
Y69524D01*
X576398Y192024D02*
X585398D01*
X580898Y187524D02*
Y196524D01*
X576398Y166624D02*
X585398D01*
X580898Y162124D02*
Y171124D01*
X576398Y141224D02*
X585398D01*
X580898Y136724D02*
Y145724D01*
X576398Y115824D02*
X585398D01*
X580898Y111324D02*
Y120324D01*
X576398Y90424D02*
X585398D01*
X580898Y85924D02*
Y94924D01*
X576398Y65024D02*
X585398D01*
X580898Y60524D02*
Y69524D01*
X70894Y33010D02*
X80894D01*
X75894Y28010D02*
Y38010D01*
X40894Y80010D02*
X50894D01*
X45894Y75010D02*
Y85010D01*
X100894Y80010D02*
X110894D01*
X105894Y75010D02*
Y85010D01*
X180620Y546300D02*
X190780D01*
X185700Y541220D02*
Y551380D01*
X206020Y546300D02*
X216180D01*
X211100Y541220D02*
Y551380D01*
X231420Y546300D02*
X241580D01*
X236500Y541220D02*
Y551380D01*
X256820Y546300D02*
X266980D01*
X261900Y541220D02*
Y551380D01*
X282220Y546300D02*
X292380D01*
X287300Y541220D02*
Y551380D01*
X307620Y546300D02*
X317780D01*
X312700Y541220D02*
Y551380D01*
X333020Y546300D02*
X343180D01*
X338100Y541220D02*
Y551380D01*
X358420Y546300D02*
X368580D01*
X363500Y541220D02*
Y551380D01*
X383820Y546300D02*
X393980D01*
X388900Y541220D02*
Y551380D01*
X409220Y546300D02*
X419380D01*
X414300Y541220D02*
Y551380D01*
X180620Y571700D02*
X190780D01*
X185700Y566620D02*
Y576780D01*
X206020Y571700D02*
X216180D01*
X211100Y566620D02*
Y576780D01*
X231420Y571700D02*
X241580D01*
X236500Y566620D02*
Y576780D01*
X256820Y571700D02*
X266980D01*
X261900Y566620D02*
Y576780D01*
X282220Y571700D02*
X292380D01*
X287300Y566620D02*
Y576780D01*
X307620Y571700D02*
X317780D01*
X312700Y566620D02*
Y576780D01*
X333020Y571700D02*
X343180D01*
X338100Y566620D02*
Y576780D01*
X358420Y571700D02*
X368580D01*
X363500Y566620D02*
Y576780D01*
X383820Y571700D02*
X393980D01*
X388900Y566620D02*
Y576780D01*
X409220Y571700D02*
X419380D01*
X414300Y566620D02*
Y576780D01*
X326922Y212996D02*
X329922D01*
X328422Y211496D02*
Y214496D01*
X252754Y140970D02*
X255754D01*
X254254Y139470D02*
Y142470D01*
X285506Y176516D02*
X288506D01*
X287006Y175016D02*
Y178016D01*
X205764Y194056D02*
X208764D01*
X207264Y192556D02*
Y195556D01*
X196498Y150622D02*
X199498D01*
X197998Y149122D02*
Y152122D01*
X206416Y216154D02*
X209416D01*
X207916Y214654D02*
Y217654D01*
X357402Y212598D02*
X360402D01*
X358902Y211098D02*
Y214098D01*
X287044Y138176D02*
X290044D01*
X288544Y136676D02*
Y139676D01*
X77240Y181356D02*
X80240D01*
X78740Y179856D02*
Y182856D01*
X117118Y167894D02*
X120118D01*
X118618Y166394D02*
Y169394D01*
X223796Y395492D02*
X226796D01*
X225296Y393992D02*
Y396992D01*
X271432Y329352D02*
X274432D01*
X272932Y327852D02*
Y330852D01*
X236001Y308500D02*
X239001D01*
X237501Y306999D02*
Y310000D01*
X170204Y314198D02*
X173204D01*
X171704Y312698D02*
Y315698D01*
X302030Y356866D02*
X305030D01*
X303530Y355366D02*
Y358366D01*
X238530Y415290D02*
X241530D01*
X240030Y413790D02*
Y416790D01*
X100862Y117094D02*
X103862D01*
X102362Y115594D02*
Y118594D01*
X139411Y368949D02*
X142411D01*
X140911Y367449D02*
Y370449D01*
X117626Y377444D02*
X120626D01*
X119126Y375944D02*
Y378944D01*
X157501Y427245D02*
X160501D01*
X159001Y425745D02*
Y428745D01*
X115594Y445385D02*
X118594D01*
X117094Y443885D02*
Y446885D01*
X78256Y354838D02*
X81256D01*
X79756Y353338D02*
Y356338D01*
X115594Y409448D02*
X118594D01*
X117094Y407948D02*
Y410948D01*
X137302Y149736D02*
X140302D01*
X138802Y148236D02*
Y151236D01*
X202234Y128624D02*
X205234D01*
X203734Y127124D02*
Y130124D01*
X212608Y260618D02*
X215608D01*
X214108Y259118D02*
Y262118D01*
X202234Y114300D02*
X205234D01*
X203734Y112800D02*
Y115800D01*
X156360Y129072D02*
X159360D01*
X157860Y127572D02*
Y130572D01*
X424204Y44958D02*
X427204D01*
X425704Y43458D02*
Y46458D01*
X508532Y171196D02*
X511532D01*
X510032Y169696D02*
Y172696D01*
X461288Y483870D02*
X464288D01*
X462788Y482370D02*
Y485370D01*
X518692Y398272D02*
X521692D01*
X520192Y396772D02*
Y399772D01*
X538504Y398272D02*
X541504D01*
X540004Y396772D02*
Y399772D01*
X423950Y21590D02*
X426950D01*
X425450Y20090D02*
Y23090D01*
X249960Y361442D02*
X252960D01*
X251460Y359942D02*
Y362942D01*
X304062Y378460D02*
X307062D01*
X305562Y376960D02*
Y379960D01*
X297966Y393192D02*
X300966D01*
X299466Y391692D02*
Y394692D01*
X582700Y331470D02*
X585700D01*
X584200Y329970D02*
Y332970D01*
X465606Y547624D02*
X468606D01*
X467106Y546124D02*
Y549124D01*
X108228Y38608D02*
X111228D01*
X109728Y37108D02*
Y40108D01*
X130834Y66548D02*
X133834D01*
X132334Y65048D02*
Y68048D01*
X441817Y347070D02*
X444817D01*
X443317Y345570D02*
Y348570D01*
X248436Y242316D02*
X251436D01*
X249936Y240816D02*
Y243816D01*
X21106Y19050D02*
X24106D01*
X22606Y17550D02*
Y20550D01*
X71652Y7112D02*
X74652D01*
X73152Y5612D02*
Y8612D01*
X170712Y69342D02*
X173712D01*
X172212Y67842D02*
Y70842D01*
X398804Y244602D02*
X401804D01*
X400304Y243102D02*
Y246102D01*
X375944Y231902D02*
X378944D01*
X377444Y230402D02*
Y233402D01*
X376960Y253492D02*
X379960D01*
X378460Y251992D02*
Y254992D01*
X399312Y258572D02*
X402312D01*
X400812Y257072D02*
Y260072D01*
X557808Y279908D02*
X560808D01*
X559308Y278408D02*
Y281408D01*
X384072Y221996D02*
X387072D01*
X385572Y220496D02*
Y223496D01*
X274090Y241808D02*
X277090D01*
X275590Y240308D02*
Y243308D01*
X286577Y241767D02*
X289577D01*
X288077Y240267D02*
Y243267D01*
X299222Y241568D02*
X302222D01*
X300722Y240068D02*
Y243068D01*
X225336Y260618D02*
X228336D01*
X226836Y259118D02*
Y262118D01*
X281202Y502158D02*
X284202D01*
X282702Y500658D02*
Y503658D01*
X436396Y541020D02*
X439396D01*
X437896Y539520D02*
Y542520D01*
X296188Y484632D02*
X299188D01*
X297688Y483132D02*
Y486132D01*
X496086Y461010D02*
X499086D01*
X497586Y459510D02*
Y462510D01*
X449500Y461500D02*
X452500D01*
X451000Y460000D02*
Y463000D01*
X441984Y487172D02*
X444984D01*
X443484Y485672D02*
Y488672D01*
X345449Y436895D02*
X348449D01*
X346949Y435395D02*
Y438395D01*
X331038Y308974D02*
X334038D01*
X332538Y307474D02*
Y310474D01*
X340038Y316992D02*
X343038D01*
X341538Y315492D02*
Y318492D01*
X353084Y486918D02*
X356084D01*
X354584Y485418D02*
Y488418D01*
X429143Y487059D02*
X432143D01*
X430643Y485559D02*
Y488559D01*
X454430Y517034D02*
X457430D01*
X455930Y515534D02*
Y518534D01*
X439698Y552196D02*
X442698D01*
X441198Y550696D02*
Y553696D01*
X399312Y274320D02*
X402312D01*
X400812Y272820D02*
Y275820D01*
X311936Y241554D02*
X314936D01*
X313436Y240054D02*
Y243054D01*
X133746Y86682D02*
X136746D01*
X135246Y85182D02*
Y88182D01*
X558570Y314706D02*
X561570D01*
X560070Y313206D02*
Y316206D01*
X449350Y372618D02*
X452350D01*
X450850Y371118D02*
Y374118D01*
X142772Y245618D02*
X145772D01*
X144272Y244118D02*
Y247118D01*
X142772Y271780D02*
X145772D01*
X144272Y270280D02*
Y273280D01*
X142264Y297180D02*
X145264D01*
X143764Y295680D02*
Y298680D01*
X78510Y391160D02*
X81510D01*
X80010Y389660D02*
Y392660D01*
X78510Y268224D02*
X81510D01*
X80010Y266724D02*
Y269724D01*
X111784Y323088D02*
X114784D01*
X113284Y321588D02*
Y324588D01*
X328954Y362458D02*
X331954D01*
X330454Y360958D02*
Y363958D01*
X338098Y351790D02*
X341098D01*
X339598Y350290D02*
Y353290D01*
X319556Y373126D02*
X322556D01*
X321056Y371626D02*
Y374626D01*
X118896Y217424D02*
X121896D01*
X120396Y215924D02*
Y218924D01*
X124992Y305054D02*
X127992D01*
X126492Y303554D02*
Y306554D01*
X325144Y117856D02*
X328144D01*
X326644Y116356D02*
Y119356D01*
X398804Y485140D02*
X401804D01*
X400304Y483640D02*
Y486640D01*
X388898Y482346D02*
X391898D01*
X390398Y480846D02*
Y483846D01*
X334288Y407162D02*
X337288D01*
X335788Y405662D02*
Y408662D01*
X396644Y475362D02*
X399644D01*
X398144Y473862D02*
Y476862D01*
X419886Y374904D02*
X422886D01*
X421386Y373404D02*
Y376404D01*
X169950Y364236D02*
X172950D01*
X171450Y362736D02*
Y365736D01*
X445286Y80518D02*
X448286D01*
X446786Y79018D02*
Y82018D01*
X520724Y140462D02*
X523724D01*
X522224Y138962D02*
Y141962D01*
X228878Y7112D02*
X231878D01*
X230378Y5612D02*
Y8612D01*
X177570Y25654D02*
X180570D01*
X179070Y24154D02*
Y27154D01*
X164870Y6096D02*
X167870D01*
X166370Y4596D02*
Y7596D01*
X116356Y258318D02*
X119356D01*
X117856Y256818D02*
Y259818D01*
M02*
