G04*
G04 #@! TF.GenerationSoftware,Altium Limited,Altium Designer,21.2.2 (38)*
G04*
G04 Layer_Color=128*
%FSLAX44Y44*%
%MOMM*%
G71*
G04*
G04 #@! TF.SameCoordinates,3448E1F9-FA4A-451A-BDEC-0E7D7F7EA446*
G04*
G04*
G04 #@! TF.FilePolarity,Positive*
G04*
G01*
G75*
%ADD10C,0.2000*%
%ADD25R,0.9000X1.2000*%
%ADD27R,1.2000X0.9000*%
%ADD28R,5.5118X1.2954*%
%ADD29R,1.2954X5.5118*%
%ADD92R,0.4000X0.6000*%
G04:AMPARAMS|DCode=93|XSize=0.65mm|YSize=1.65mm|CornerRadius=0.0488mm|HoleSize=0mm|Usage=FLASHONLY|Rotation=270.000|XOffset=0mm|YOffset=0mm|HoleType=Round|Shape=RoundedRectangle|*
%AMROUNDEDRECTD93*
21,1,0.6500,1.5525,0,0,270.0*
21,1,0.5525,1.6500,0,0,270.0*
1,1,0.0975,-0.7763,-0.2763*
1,1,0.0975,-0.7763,0.2763*
1,1,0.0975,0.7763,0.2763*
1,1,0.0975,0.7763,-0.2763*
%
%ADD93ROUNDEDRECTD93*%
%ADD94R,2.4500X2.5500*%
%ADD95R,5.7000X1.8000*%
%ADD96R,1.5500X0.6000*%
%ADD97R,0.7000X0.9000*%
%ADD98R,2.1500X2.4500*%
%ADD99R,1.2500X1.6500*%
D10*
X0Y0D02*
X600000D01*
X0D02*
Y600000D01*
X600000Y0D02*
Y600000D01*
X0D02*
X600000D01*
D25*
X221488Y423418D02*
D03*
X200488D02*
D03*
X286938Y406146D02*
D03*
X265938D02*
D03*
X226822Y300482D02*
D03*
X247822D02*
D03*
X287020Y383286D02*
D03*
X266020D02*
D03*
X287020Y364236D02*
D03*
X266020D02*
D03*
X131908Y410972D02*
D03*
X152908D02*
D03*
X131908Y388366D02*
D03*
X152908D02*
D03*
X131908Y368808D02*
D03*
X152908D02*
D03*
X131908Y347218D02*
D03*
X152908D02*
D03*
X189738Y300482D02*
D03*
X210738D02*
D03*
D27*
X300736Y318852D02*
D03*
Y339852D02*
D03*
X281432Y318852D02*
D03*
Y339852D02*
D03*
X262128Y318852D02*
D03*
Y339852D02*
D03*
D28*
X80010Y164136D02*
D03*
Y199136D02*
D03*
X520954Y385012D02*
D03*
Y350012D02*
D03*
Y315012D02*
D03*
Y280012D02*
D03*
X80036Y286968D02*
D03*
Y251968D02*
D03*
X80010Y444904D02*
D03*
Y409904D02*
D03*
Y374904D02*
D03*
Y339904D02*
D03*
D29*
X261672Y80010D02*
D03*
X296672D02*
D03*
X331672D02*
D03*
X427026Y80600D02*
D03*
X462026D02*
D03*
X497026D02*
D03*
X532026D02*
D03*
D92*
X155504Y144526D02*
D03*
X162504D02*
D03*
D93*
X239324Y402336D02*
D03*
Y389636D02*
D03*
Y376936D02*
D03*
Y364236D02*
D03*
Y351536D02*
D03*
Y338836D02*
D03*
Y326136D02*
D03*
X182824Y402336D02*
D03*
Y389636D02*
D03*
Y376936D02*
D03*
Y364236D02*
D03*
Y351536D02*
D03*
Y338836D02*
D03*
Y326136D02*
D03*
D94*
X246500Y259750D02*
D03*
Y199250D02*
D03*
X207000Y18750D02*
D03*
Y79250D02*
D03*
D95*
X169000Y171000D02*
D03*
Y217000D02*
D03*
D96*
X186000Y112450D02*
D03*
Y125150D02*
D03*
Y137850D02*
D03*
Y150550D02*
D03*
X240000D02*
D03*
Y137850D02*
D03*
Y125150D02*
D03*
Y112450D02*
D03*
D97*
X144500Y118000D02*
D03*
X157500D02*
D03*
X151000Y99000D02*
D03*
D98*
X157000Y26500D02*
D03*
Y69500D02*
D03*
D99*
X119750Y117000D02*
D03*
X85250D02*
D03*
M02*
