G04*
G04 #@! TF.GenerationSoftware,Altium Limited,Altium Designer,21.2.2 (38)*
G04*
G04 Layer_Color=2752767*
%FSLAX44Y44*%
%MOMM*%
G71*
G04*
G04 #@! TF.SameCoordinates,8F59D91E-1953-4D82-9988-75C83E7EF0EF*
G04*
G04*
G04 #@! TF.FilePolarity,Positive*
G04*
G01*
G75*
%ADD10C,0.2000*%
%ADD23C,0.0500*%
%ADD124C,0.0508*%
%ADD125C,0.0677*%
D10*
X0Y0D02*
X600000D01*
X0D02*
Y600000D01*
X600000Y0D02*
Y600000D01*
X0D02*
X600000D01*
D23*
X508586Y469672D02*
X512586D01*
Y504672D01*
X508586D02*
X512586D01*
X482586D02*
X486586D01*
X482586Y469672D02*
Y504672D01*
Y469672D02*
X486586D01*
Y463672D02*
Y469672D01*
Y463672D02*
X508586D01*
Y469672D01*
Y504672D02*
Y510672D01*
X486586D02*
X508586D01*
X486586Y504672D02*
Y510672D01*
X259064Y129726D02*
Y184726D01*
X333264Y129726D02*
Y184726D01*
X259064D02*
X333264D01*
X259064Y129726D02*
X333264D01*
D124*
X110490Y483616D02*
Y487680D01*
X114554D01*
Y483616D01*
X110490D01*
X85090Y509016D02*
Y513080D01*
X89154D01*
Y509016D01*
X85090D01*
Y483616D02*
Y487680D01*
X89154D01*
Y483616D01*
X85090D01*
X110490Y509016D02*
Y513080D01*
X114554D01*
Y509016D01*
X110490D01*
X135890Y509016D02*
Y513080D01*
X139954D01*
Y509016D01*
X135890D01*
Y483616D02*
Y487680D01*
X139954D01*
Y483616D01*
X135890D01*
X163830Y442214D02*
Y446278D01*
X167894D01*
Y442214D01*
X163830D01*
X189230D02*
Y446278D01*
X193294D01*
Y442214D01*
X189230D01*
X30226Y567690D02*
X28194Y571754D01*
X32258D01*
X30226Y567690D01*
X569722D02*
X567690Y571754D01*
X571754D01*
X569722Y567690D01*
X377698Y189992D02*
X378714Y191008D01*
X379730D01*
X378714Y192024D01*
X379730Y193040D01*
X378714D01*
X377698Y194056D01*
X376682Y193040D01*
X375666D01*
X376682Y192024D01*
X375666Y191008D01*
X376682D01*
X377698Y189992D01*
Y164592D02*
X378714Y165608D01*
X379730D01*
X378714Y166624D01*
X379730Y167640D01*
X378714D01*
X377698Y168656D01*
X376682Y167640D01*
X375666D01*
X376682Y166624D01*
X375666Y165608D01*
X376682D01*
X377698Y164592D01*
Y139192D02*
X378714Y140208D01*
X379730D01*
X378714Y141224D01*
X379730Y142240D01*
X378714D01*
X377698Y143256D01*
X376682Y142240D01*
X375666D01*
X376682Y141224D01*
X375666Y140208D01*
X376682D01*
X377698Y139192D01*
Y113792D02*
X378714Y114808D01*
X379730D01*
X378714Y115824D01*
X379730Y116840D01*
X378714D01*
X377698Y117856D01*
X376682Y116840D01*
X375666D01*
X376682Y115824D01*
X375666Y114808D01*
X376682D01*
X377698Y113792D01*
Y88392D02*
X378714Y89408D01*
X379730D01*
X378714Y90424D01*
X379730Y91440D01*
X378714D01*
X377698Y92456D01*
X376682Y91440D01*
X375666D01*
X376682Y90424D01*
X375666Y89408D01*
X376682D01*
X377698Y88392D01*
Y62992D02*
X378714Y64008D01*
X379730D01*
X378714Y65024D01*
X379730Y66040D01*
X378714D01*
X377698Y67056D01*
X376682Y66040D01*
X375666D01*
X376682Y65024D01*
X375666Y64008D01*
X376682D01*
X377698Y62992D01*
X580898Y189992D02*
X581914Y191008D01*
X582930D01*
X581914Y192024D01*
X582930Y193040D01*
X581914D01*
X580898Y194056D01*
X579882Y193040D01*
X578866D01*
X579882Y192024D01*
X578866Y191008D01*
X579882D01*
X580898Y189992D01*
Y164592D02*
X581914Y165608D01*
X582930D01*
X581914Y166624D01*
X582930Y167640D01*
X581914D01*
X580898Y168656D01*
X579882Y167640D01*
X578866D01*
X579882Y166624D01*
X578866Y165608D01*
X579882D01*
X580898Y164592D01*
Y139192D02*
X581914Y140208D01*
X582930D01*
X581914Y141224D01*
X582930Y142240D01*
X581914D01*
X580898Y143256D01*
X579882Y142240D01*
X578866D01*
X579882Y141224D01*
X578866Y140208D01*
X579882D01*
X580898Y139192D01*
Y113792D02*
X581914Y114808D01*
X582930D01*
X581914Y115824D01*
X582930Y116840D01*
X581914D01*
X580898Y117856D01*
X579882Y116840D01*
X578866D01*
X579882Y115824D01*
X578866Y114808D01*
X579882D01*
X580898Y113792D01*
Y88392D02*
X581914Y89408D01*
X582930D01*
X581914Y90424D01*
X582930Y91440D01*
X581914D01*
X580898Y92456D01*
X579882Y91440D01*
X578866D01*
X579882Y90424D01*
X578866Y89408D01*
X579882D01*
X580898Y88392D01*
Y62992D02*
X581914Y64008D01*
X582930D01*
X581914Y65024D01*
X582930Y66040D01*
X581914D01*
X580898Y67056D01*
X579882Y66040D01*
X578866D01*
X579882Y65024D01*
X578866Y64008D01*
X579882D01*
X580898Y62992D01*
X73862Y30978D02*
X74878Y33010D01*
X73862Y35042D01*
X75894Y34026D01*
X77926Y35042D01*
X76910Y33010D01*
X77926Y30978D01*
X75894Y31994D01*
X73862Y30978D01*
X43862Y77978D02*
X44878Y80010D01*
X43862Y82042D01*
X45894Y81026D01*
X47926Y82042D01*
X46910Y80010D01*
X47926Y77978D01*
X45894Y78994D01*
X43862Y77978D01*
X103862D02*
X104878Y80010D01*
X103862Y82042D01*
X105894Y81026D01*
X107926Y82042D01*
X106910Y80010D01*
X107926Y77978D01*
X105894Y78994D01*
X103862Y77978D01*
X183668Y544268D02*
Y548332D01*
X187732D01*
Y544268D01*
X183668D01*
X209068D02*
Y548332D01*
X213132D01*
Y544268D01*
X209068D01*
X234468D02*
Y548332D01*
X238532D01*
Y544268D01*
X234468D01*
X259868D02*
Y548332D01*
X263932D01*
Y544268D01*
X259868D01*
X285268D02*
Y548332D01*
X289332D01*
Y544268D01*
X285268D01*
X310668D02*
Y548332D01*
X314732D01*
Y544268D01*
X310668D01*
X336068D02*
Y548332D01*
X340132D01*
Y544268D01*
X336068D01*
X361468D02*
Y548332D01*
X365532D01*
Y544268D01*
X361468D01*
X386868D02*
Y548332D01*
X390932D01*
Y544268D01*
X386868D01*
X412268D02*
Y548332D01*
X416332D01*
Y544268D01*
X412268D01*
X183668Y569668D02*
Y573732D01*
X187732D01*
Y569668D01*
X183668D01*
X209068D02*
Y573732D01*
X213132D01*
Y569668D01*
X209068D01*
X234468D02*
Y573732D01*
X238532D01*
Y569668D01*
X234468D01*
X259868D02*
Y573732D01*
X263932D01*
Y569668D01*
X259868D01*
X285268D02*
Y573732D01*
X289332D01*
Y569668D01*
X285268D01*
X310668D02*
Y573732D01*
X314732D01*
Y569668D01*
X310668D01*
X336068D02*
Y573732D01*
X340132D01*
Y569668D01*
X336068D01*
X361468D02*
Y573732D01*
X365532D01*
Y569668D01*
X361468D01*
X386868D02*
Y573732D01*
X390932D01*
Y569668D01*
X386868D01*
X412268D02*
Y573732D01*
X416332D01*
Y569668D01*
X412268D01*
X327406Y211980D02*
Y210964D01*
X329438D01*
Y211980D01*
X330454D01*
Y214012D01*
X329438D01*
Y215028D01*
X327406D01*
Y214012D01*
X326390D01*
Y211980D01*
X327406D01*
X253238Y139954D02*
Y138938D01*
X255270D01*
Y139954D01*
X256286D01*
Y141986D01*
X255270D01*
Y143002D01*
X253238D01*
Y141986D01*
X252222D01*
Y139954D01*
X253238D01*
X285990Y175500D02*
Y174484D01*
X288022D01*
Y175500D01*
X289038D01*
Y177532D01*
X288022D01*
Y178548D01*
X285990D01*
Y177532D01*
X284974D01*
Y175500D01*
X285990D01*
X206248Y193040D02*
Y192024D01*
X208280D01*
Y193040D01*
X209296D01*
Y195072D01*
X208280D01*
Y196088D01*
X206248D01*
Y195072D01*
X205232D01*
Y193040D01*
X206248D01*
X196982Y149606D02*
Y148590D01*
X199014D01*
Y149606D01*
X200030D01*
Y151638D01*
X199014D01*
Y152654D01*
X196982D01*
Y151638D01*
X195966D01*
Y149606D01*
X196982D01*
X206900Y215138D02*
Y214122D01*
X208932D01*
Y215138D01*
X209948D01*
Y217170D01*
X208932D01*
Y218186D01*
X206900D01*
Y217170D01*
X205884D01*
Y215138D01*
X206900D01*
X357886Y211582D02*
Y210566D01*
X359918D01*
Y211582D01*
X360934D01*
Y213614D01*
X359918D01*
Y214630D01*
X357886D01*
Y213614D01*
X356870D01*
Y211582D01*
X357886D01*
X287528Y137160D02*
Y136144D01*
X289560D01*
Y137160D01*
X290576D01*
Y139192D01*
X289560D01*
Y140208D01*
X287528D01*
Y139192D01*
X286512D01*
Y137160D01*
X287528D01*
X77724Y180340D02*
Y179324D01*
X79756D01*
Y180340D01*
X80772D01*
Y182372D01*
X79756D01*
Y183388D01*
X77724D01*
Y182372D01*
X76708D01*
Y180340D01*
X77724D01*
X117602Y166878D02*
Y165862D01*
X119634D01*
Y166878D01*
X120650D01*
Y168910D01*
X119634D01*
Y169926D01*
X117602D01*
Y168910D01*
X116586D01*
Y166878D01*
X117602D01*
X224280Y394476D02*
Y393460D01*
X226312D01*
Y394476D01*
X227328D01*
Y396508D01*
X226312D01*
Y397524D01*
X224280D01*
Y396508D01*
X223264D01*
Y394476D01*
X224280D01*
X271916Y328336D02*
Y327320D01*
X273948D01*
Y328336D01*
X274964D01*
Y330368D01*
X273948D01*
Y331384D01*
X271916D01*
Y330368D01*
X270900D01*
Y328336D01*
X271916D01*
X236485Y307484D02*
Y306467D01*
X238517D01*
Y307484D01*
X239533D01*
Y309515D01*
X238517D01*
Y310532D01*
X236485D01*
Y309515D01*
X235469D01*
Y307484D01*
X236485D01*
X170688Y313182D02*
Y312166D01*
X172720D01*
Y313182D01*
X173736D01*
Y315214D01*
X172720D01*
Y316230D01*
X170688D01*
Y315214D01*
X169672D01*
Y313182D01*
X170688D01*
X302514Y355850D02*
Y354834D01*
X304546D01*
Y355850D01*
X305562D01*
Y357882D01*
X304546D01*
Y358898D01*
X302514D01*
Y357882D01*
X301498D01*
Y355850D01*
X302514D01*
X239014Y414274D02*
Y413258D01*
X241046D01*
Y414274D01*
X242062D01*
Y416306D01*
X241046D01*
Y417322D01*
X239014D01*
Y416306D01*
X237998D01*
Y414274D01*
X239014D01*
X101346Y116078D02*
Y115062D01*
X103378D01*
Y116078D01*
X104394D01*
Y118110D01*
X103378D01*
Y119126D01*
X101346D01*
Y118110D01*
X100330D01*
Y116078D01*
X101346D01*
X139895Y367933D02*
Y366917D01*
X141927D01*
Y367933D01*
X142943D01*
Y369965D01*
X141927D01*
Y370981D01*
X139895D01*
Y369965D01*
X138879D01*
Y367933D01*
X139895D01*
X118110Y376428D02*
Y375412D01*
X120142D01*
Y376428D01*
X121158D01*
Y378460D01*
X120142D01*
Y379476D01*
X118110D01*
Y378460D01*
X117094D01*
Y376428D01*
X118110D01*
X157985Y426229D02*
Y425213D01*
X160017D01*
Y426229D01*
X161033D01*
Y428261D01*
X160017D01*
Y429277D01*
X157985D01*
Y428261D01*
X156969D01*
Y426229D01*
X157985D01*
X116078Y444369D02*
Y443353D01*
X118110D01*
Y444369D01*
X119126D01*
Y446401D01*
X118110D01*
Y447417D01*
X116078D01*
Y446401D01*
X115062D01*
Y444369D01*
X116078D01*
X78740Y353822D02*
Y352806D01*
X80772D01*
Y353822D01*
X81788D01*
Y355854D01*
X80772D01*
Y356870D01*
X78740D01*
Y355854D01*
X77724D01*
Y353822D01*
X78740D01*
X116078Y408432D02*
Y407416D01*
X118110D01*
Y408432D01*
X119126D01*
Y410464D01*
X118110D01*
Y411480D01*
X116078D01*
Y410464D01*
X115062D01*
Y408432D01*
X116078D01*
X137786Y148720D02*
Y147704D01*
X139818D01*
Y148720D01*
X140834D01*
Y150752D01*
X139818D01*
Y151768D01*
X137786D01*
Y150752D01*
X136770D01*
Y148720D01*
X137786D01*
X202718Y127608D02*
Y126592D01*
X204750D01*
Y127608D01*
X205766D01*
Y129640D01*
X204750D01*
Y130656D01*
X202718D01*
Y129640D01*
X201702D01*
Y127608D01*
X202718D01*
X213092Y259602D02*
Y258586D01*
X215124D01*
Y259602D01*
X216140D01*
Y261634D01*
X215124D01*
Y262650D01*
X213092D01*
Y261634D01*
X212076D01*
Y259602D01*
X213092D01*
X202718Y113284D02*
Y112268D01*
X204750D01*
Y113284D01*
X205766D01*
Y115316D01*
X204750D01*
Y116332D01*
X202718D01*
Y115316D01*
X201702D01*
Y113284D01*
X202718D01*
X156844Y128056D02*
Y127040D01*
X158876D01*
Y128056D01*
X159892D01*
Y130088D01*
X158876D01*
Y131104D01*
X156844D01*
Y130088D01*
X155828D01*
Y128056D01*
X156844D01*
X424688Y43942D02*
Y42926D01*
X426720D01*
Y43942D01*
X427736D01*
Y45974D01*
X426720D01*
Y46990D01*
X424688D01*
Y45974D01*
X423672D01*
Y43942D01*
X424688D01*
X509016Y170180D02*
Y169164D01*
X511048D01*
Y170180D01*
X512064D01*
Y172212D01*
X511048D01*
Y173228D01*
X509016D01*
Y172212D01*
X508000D01*
Y170180D01*
X509016D01*
X461772Y482854D02*
Y481838D01*
X463804D01*
Y482854D01*
X464820D01*
Y484886D01*
X463804D01*
Y485902D01*
X461772D01*
Y484886D01*
X460756D01*
Y482854D01*
X461772D01*
X519176Y397256D02*
Y396240D01*
X521208D01*
Y397256D01*
X522224D01*
Y399288D01*
X521208D01*
Y400304D01*
X519176D01*
Y399288D01*
X518160D01*
Y397256D01*
X519176D01*
X538988D02*
Y396240D01*
X541020D01*
Y397256D01*
X542036D01*
Y399288D01*
X541020D01*
Y400304D01*
X538988D01*
Y399288D01*
X537972D01*
Y397256D01*
X538988D01*
X424434Y20574D02*
Y19558D01*
X426466D01*
Y20574D01*
X427482D01*
Y22606D01*
X426466D01*
Y23622D01*
X424434D01*
Y22606D01*
X423418D01*
Y20574D01*
X424434D01*
X250444Y360426D02*
Y359410D01*
X252476D01*
Y360426D01*
X253492D01*
Y362458D01*
X252476D01*
Y363474D01*
X250444D01*
Y362458D01*
X249428D01*
Y360426D01*
X250444D01*
X304546Y377444D02*
Y376428D01*
X306578D01*
Y377444D01*
X307594D01*
Y379476D01*
X306578D01*
Y380492D01*
X304546D01*
Y379476D01*
X303530D01*
Y377444D01*
X304546D01*
X298450Y392176D02*
Y391160D01*
X300482D01*
Y392176D01*
X301498D01*
Y394208D01*
X300482D01*
Y395224D01*
X298450D01*
Y394208D01*
X297434D01*
Y392176D01*
X298450D01*
X583184Y330454D02*
Y329438D01*
X585216D01*
Y330454D01*
X586232D01*
Y332486D01*
X585216D01*
Y333502D01*
X583184D01*
Y332486D01*
X582168D01*
Y330454D01*
X583184D01*
X466090Y546608D02*
Y545592D01*
X468122D01*
Y546608D01*
X469138D01*
Y548640D01*
X468122D01*
Y549656D01*
X466090D01*
Y548640D01*
X465074D01*
Y546608D01*
X466090D01*
X108712Y37592D02*
Y36576D01*
X110744D01*
Y37592D01*
X111760D01*
Y39624D01*
X110744D01*
Y40640D01*
X108712D01*
Y39624D01*
X107696D01*
Y37592D01*
X108712D01*
X131318Y65532D02*
Y64516D01*
X133350D01*
Y65532D01*
X134366D01*
Y67564D01*
X133350D01*
Y68580D01*
X131318D01*
Y67564D01*
X130302D01*
Y65532D01*
X131318D01*
X442301Y346054D02*
Y345038D01*
X444333D01*
Y346054D01*
X445349D01*
Y348086D01*
X444333D01*
Y349102D01*
X442301D01*
Y348086D01*
X441285D01*
Y346054D01*
X442301D01*
X248920Y241300D02*
Y240284D01*
X250952D01*
Y241300D01*
X251968D01*
Y243332D01*
X250952D01*
Y244348D01*
X248920D01*
Y243332D01*
X247904D01*
Y241300D01*
X248920D01*
X21590Y18034D02*
Y17018D01*
X23622D01*
Y18034D01*
X24638D01*
Y20066D01*
X23622D01*
Y21082D01*
X21590D01*
Y20066D01*
X20574D01*
Y18034D01*
X21590D01*
X72136Y6096D02*
Y5080D01*
X74168D01*
Y6096D01*
X75184D01*
Y8128D01*
X74168D01*
Y9144D01*
X72136D01*
Y8128D01*
X71120D01*
Y6096D01*
X72136D01*
X171196Y68326D02*
Y67310D01*
X173228D01*
Y68326D01*
X174244D01*
Y70358D01*
X173228D01*
Y71374D01*
X171196D01*
Y70358D01*
X170180D01*
Y68326D01*
X171196D01*
X399288Y243586D02*
Y242570D01*
X401320D01*
Y243586D01*
X402336D01*
Y245618D01*
X401320D01*
Y246634D01*
X399288D01*
Y245618D01*
X398272D01*
Y243586D01*
X399288D01*
X376428Y230886D02*
Y229870D01*
X378460D01*
Y230886D01*
X379476D01*
Y232918D01*
X378460D01*
Y233934D01*
X376428D01*
Y232918D01*
X375412D01*
Y230886D01*
X376428D01*
X377444Y252476D02*
Y251460D01*
X379476D01*
Y252476D01*
X380492D01*
Y254508D01*
X379476D01*
Y255524D01*
X377444D01*
Y254508D01*
X376428D01*
Y252476D01*
X377444D01*
X399796Y257556D02*
Y256540D01*
X401828D01*
Y257556D01*
X402844D01*
Y259588D01*
X401828D01*
Y260604D01*
X399796D01*
Y259588D01*
X398780D01*
Y257556D01*
X399796D01*
X558292Y278892D02*
Y277876D01*
X560324D01*
Y278892D01*
X561340D01*
Y280924D01*
X560324D01*
Y281940D01*
X558292D01*
Y280924D01*
X557276D01*
Y278892D01*
X558292D01*
X384556Y220980D02*
Y219964D01*
X386588D01*
Y220980D01*
X387604D01*
Y223012D01*
X386588D01*
Y224028D01*
X384556D01*
Y223012D01*
X383540D01*
Y220980D01*
X384556D01*
X274574Y240792D02*
Y239776D01*
X276606D01*
Y240792D01*
X277622D01*
Y242824D01*
X276606D01*
Y243840D01*
X274574D01*
Y242824D01*
X273558D01*
Y240792D01*
X274574D01*
X287061Y240751D02*
Y239735D01*
X289093D01*
Y240751D01*
X290109D01*
Y242783D01*
X289093D01*
Y243799D01*
X287061D01*
Y242783D01*
X286045D01*
Y240751D01*
X287061D01*
X299706Y240552D02*
Y239536D01*
X301738D01*
Y240552D01*
X302754D01*
Y242584D01*
X301738D01*
Y243600D01*
X299706D01*
Y242584D01*
X298690D01*
Y240552D01*
X299706D01*
X225820Y259602D02*
Y258586D01*
X227852D01*
Y259602D01*
X228868D01*
Y261634D01*
X227852D01*
Y262650D01*
X225820D01*
Y261634D01*
X224804D01*
Y259602D01*
X225820D01*
X281686Y501142D02*
Y500126D01*
X283718D01*
Y501142D01*
X284734D01*
Y503174D01*
X283718D01*
Y504190D01*
X281686D01*
Y503174D01*
X280670D01*
Y501142D01*
X281686D01*
X436880Y540004D02*
Y538988D01*
X438912D01*
Y540004D01*
X439928D01*
Y542036D01*
X438912D01*
Y543052D01*
X436880D01*
Y542036D01*
X435864D01*
Y540004D01*
X436880D01*
X296672Y483616D02*
Y482600D01*
X298704D01*
Y483616D01*
X299720D01*
Y485648D01*
X298704D01*
Y486664D01*
X296672D01*
Y485648D01*
X295656D01*
Y483616D01*
X296672D01*
X496570Y459232D02*
Y458216D01*
X498602D01*
Y459232D01*
X499618D01*
Y461264D01*
X498602D01*
Y462280D01*
X496570D01*
Y461264D01*
X495554D01*
Y459232D01*
X496570D01*
X449984Y460484D02*
Y459468D01*
X452016D01*
Y460484D01*
X453032D01*
Y462516D01*
X452016D01*
Y463532D01*
X449984D01*
Y462516D01*
X448968D01*
Y460484D01*
X449984D01*
X442468Y486156D02*
Y485140D01*
X444500D01*
Y486156D01*
X445516D01*
Y488188D01*
X444500D01*
Y489204D01*
X442468D01*
Y488188D01*
X441452D01*
Y486156D01*
X442468D01*
X345933Y435879D02*
Y434863D01*
X347965D01*
Y435879D01*
X348981D01*
Y437911D01*
X347965D01*
Y438927D01*
X345933D01*
Y437911D01*
X344917D01*
Y435879D01*
X345933D01*
X331522Y307958D02*
Y306942D01*
X333554D01*
Y307958D01*
X334570D01*
Y309990D01*
X333554D01*
Y311006D01*
X331522D01*
Y309990D01*
X330506D01*
Y307958D01*
X331522D01*
X340522Y315976D02*
Y314960D01*
X342554D01*
Y315976D01*
X343570D01*
Y318008D01*
X342554D01*
Y319024D01*
X340522D01*
Y318008D01*
X339506D01*
Y315976D01*
X340522D01*
X353568Y485902D02*
Y484886D01*
X355600D01*
Y485902D01*
X356616D01*
Y487934D01*
X355600D01*
Y488950D01*
X353568D01*
Y487934D01*
X352552D01*
Y485902D01*
X353568D01*
X429627Y486043D02*
Y485027D01*
X431659D01*
Y486043D01*
X432675D01*
Y488075D01*
X431659D01*
Y489091D01*
X429627D01*
Y488075D01*
X428611D01*
Y486043D01*
X429627D01*
X454914Y516018D02*
Y515002D01*
X456946D01*
Y516018D01*
X457962D01*
Y518050D01*
X456946D01*
Y519066D01*
X454914D01*
Y518050D01*
X453898D01*
Y516018D01*
X454914D01*
X440182Y551180D02*
Y550164D01*
X442214D01*
Y551180D01*
X443230D01*
Y553212D01*
X442214D01*
Y554228D01*
X440182D01*
Y553212D01*
X439166D01*
Y551180D01*
X440182D01*
X399796Y273304D02*
Y272288D01*
X401828D01*
Y273304D01*
X402844D01*
Y275336D01*
X401828D01*
Y276352D01*
X399796D01*
Y275336D01*
X398780D01*
Y273304D01*
X399796D01*
X312420Y240538D02*
Y239522D01*
X314452D01*
Y240538D01*
X315468D01*
Y242570D01*
X314452D01*
Y243586D01*
X312420D01*
Y242570D01*
X311404D01*
Y240538D01*
X312420D01*
X134230Y85666D02*
Y84650D01*
X136262D01*
Y85666D01*
X137278D01*
Y87698D01*
X136262D01*
Y88714D01*
X134230D01*
Y87698D01*
X133214D01*
Y85666D01*
X134230D01*
X559054Y313690D02*
Y312674D01*
X561086D01*
Y313690D01*
X562102D01*
Y315722D01*
X561086D01*
Y316738D01*
X559054D01*
Y315722D01*
X558038D01*
Y313690D01*
X559054D01*
X449834Y371602D02*
Y370586D01*
X451866D01*
Y371602D01*
X452882D01*
Y373634D01*
X451866D01*
Y374650D01*
X449834D01*
Y373634D01*
X448818D01*
Y371602D01*
X449834D01*
X143256Y244602D02*
Y243586D01*
X145288D01*
Y244602D01*
X146304D01*
Y246634D01*
X145288D01*
Y247650D01*
X143256D01*
Y246634D01*
X142240D01*
Y244602D01*
X143256D01*
Y270764D02*
Y269748D01*
X145288D01*
Y270764D01*
X146304D01*
Y272796D01*
X145288D01*
Y273812D01*
X143256D01*
Y272796D01*
X142240D01*
Y270764D01*
X143256D01*
X142748Y296164D02*
Y295148D01*
X144780D01*
Y296164D01*
X145796D01*
Y298196D01*
X144780D01*
Y299212D01*
X142748D01*
Y298196D01*
X141732D01*
Y296164D01*
X142748D01*
X78994Y390144D02*
Y389128D01*
X81026D01*
Y390144D01*
X82042D01*
Y392176D01*
X81026D01*
Y393192D01*
X78994D01*
Y392176D01*
X77978D01*
Y390144D01*
X78994D01*
Y267208D02*
Y266192D01*
X81026D01*
Y267208D01*
X82042D01*
Y269240D01*
X81026D01*
Y270256D01*
X78994D01*
Y269240D01*
X77978D01*
Y267208D01*
X78994D01*
X112268Y322072D02*
Y321056D01*
X114300D01*
Y322072D01*
X115316D01*
Y324104D01*
X114300D01*
Y325120D01*
X112268D01*
Y324104D01*
X111252D01*
Y322072D01*
X112268D01*
X329438Y361442D02*
Y360426D01*
X331470D01*
Y361442D01*
X332486D01*
Y363474D01*
X331470D01*
Y364490D01*
X329438D01*
Y363474D01*
X328422D01*
Y361442D01*
X329438D01*
X338582Y350774D02*
Y349758D01*
X340614D01*
Y350774D01*
X341630D01*
Y352806D01*
X340614D01*
Y353822D01*
X338582D01*
Y352806D01*
X337566D01*
Y350774D01*
X338582D01*
X320040Y372110D02*
Y371094D01*
X322072D01*
Y372110D01*
X323088D01*
Y374142D01*
X322072D01*
Y375158D01*
X320040D01*
Y374142D01*
X319024D01*
Y372110D01*
X320040D01*
X119380Y216408D02*
Y215392D01*
X121412D01*
Y216408D01*
X122428D01*
Y218440D01*
X121412D01*
Y219456D01*
X119380D01*
Y218440D01*
X118364D01*
Y216408D01*
X119380D01*
X125476Y304038D02*
Y303022D01*
X127508D01*
Y304038D01*
X128524D01*
Y306070D01*
X127508D01*
Y307086D01*
X125476D01*
Y306070D01*
X124460D01*
Y304038D01*
X125476D01*
X325628Y116840D02*
Y115824D01*
X327660D01*
Y116840D01*
X328676D01*
Y118872D01*
X327660D01*
Y119888D01*
X325628D01*
Y118872D01*
X324612D01*
Y116840D01*
X325628D01*
X399288Y484124D02*
Y483108D01*
X401320D01*
Y484124D01*
X402336D01*
Y486156D01*
X401320D01*
Y487172D01*
X399288D01*
Y486156D01*
X398272D01*
Y484124D01*
X399288D01*
X389382Y481330D02*
Y480314D01*
X391414D01*
Y481330D01*
X392430D01*
Y483362D01*
X391414D01*
Y484378D01*
X389382D01*
Y483362D01*
X388366D01*
Y481330D01*
X389382D01*
X334772Y406146D02*
Y405130D01*
X336804D01*
Y406146D01*
X337820D01*
Y408178D01*
X336804D01*
Y409194D01*
X334772D01*
Y408178D01*
X333756D01*
Y406146D01*
X334772D01*
X397128Y474346D02*
Y473330D01*
X399160D01*
Y474346D01*
X400176D01*
Y476378D01*
X399160D01*
Y477394D01*
X397128D01*
Y476378D01*
X396112D01*
Y474346D01*
X397128D01*
X420370Y373888D02*
Y372872D01*
X422402D01*
Y373888D01*
X423418D01*
Y375920D01*
X422402D01*
Y376936D01*
X420370D01*
Y375920D01*
X419354D01*
Y373888D01*
X420370D01*
X170434Y363220D02*
Y362204D01*
X172466D01*
Y363220D01*
X173482D01*
Y365252D01*
X172466D01*
Y366268D01*
X170434D01*
Y365252D01*
X169418D01*
Y363220D01*
X170434D01*
X445770Y79502D02*
Y78486D01*
X447802D01*
Y79502D01*
X448818D01*
Y81534D01*
X447802D01*
Y82550D01*
X445770D01*
Y81534D01*
X444754D01*
Y79502D01*
X445770D01*
X521208Y139446D02*
Y138430D01*
X523240D01*
Y139446D01*
X524256D01*
Y141478D01*
X523240D01*
Y142494D01*
X521208D01*
Y141478D01*
X520192D01*
Y139446D01*
X521208D01*
X229362Y6096D02*
Y5080D01*
X231394D01*
Y6096D01*
X232410D01*
Y8128D01*
X231394D01*
Y9144D01*
X229362D01*
Y8128D01*
X228346D01*
Y6096D01*
X229362D01*
X178054Y24638D02*
Y23622D01*
X180086D01*
Y24638D01*
X181102D01*
Y26670D01*
X180086D01*
Y27686D01*
X178054D01*
Y26670D01*
X177038D01*
Y24638D01*
X178054D01*
X165354Y5080D02*
Y4064D01*
X167386D01*
Y5080D01*
X168402D01*
Y7112D01*
X167386D01*
Y8128D01*
X165354D01*
Y7112D01*
X164338D01*
Y5080D01*
X165354D01*
X116840Y257302D02*
Y256286D01*
X118872D01*
Y257302D01*
X119888D01*
Y259334D01*
X118872D01*
Y260350D01*
X116840D01*
Y259334D01*
X115824D01*
Y257302D01*
X116840D01*
D125*
X230632Y519430D02*
G03*
X230632Y519430I-2032J0D01*
G01*
X256032D02*
G03*
X256032Y519430I-2032J0D01*
G01*
X230632Y443230D02*
G03*
X230632Y443230I-2032J0D01*
G01*
X256032D02*
G03*
X256032Y443230I-2032J0D01*
G01*
M02*
