G04*
G04 #@! TF.GenerationSoftware,Altium Limited,Altium Designer,21.2.2 (38)*
G04*
G04 Layer_Physical_Order=2*
G04 Layer_Color=32768*
%FSLAX44Y44*%
%MOMM*%
G71*
G04*
G04 #@! TF.SameCoordinates,3448E1F9-FA4A-451A-BDEC-0E7D7F7EA446*
G04*
G04*
G04 #@! TF.FilePolarity,Negative*
G04*
G01*
G75*
%ADD10C,0.2000*%
%ADD79C,1.0160*%
%AMTHOVALD80*
21,1,0.6000,2.5240,0,0,90.0*
1,1,2.5240,0.0000,-0.3000*
1,1,2.5240,0.0000,0.3000*
21,0,0.6000,2.0160,0,0,90.0*
1,0,2.0160,0.0000,-0.3000*
1,0,2.0160,0.0000,0.3000*
4,0,4,0.0898,-0.2102,0.9822,-1.1026,0.8026,-1.2822,-0.0898,-0.3898,0.0898,-0.2102,0.0*
4,0,4,0.0898,0.3898,-0.8026,1.2822,-0.9822,1.1026,-0.0898,0.2102,0.0898,0.3898,0.0*
4,0,4,0.0898,-0.3898,-0.8026,-1.2822,-0.9822,-1.1026,-0.0898,-0.2102,0.0898,-0.3898,0.0*
4,0,4,0.0898,0.2102,0.9822,1.1026,0.8026,1.2822,-0.0898,0.3898,0.0898,0.2102,0.0*
%
%ADD80THOVALD80*%

%AMTHOVALD81*
21,1,0.6000,2.5240,0,0,180.0*
1,1,2.5240,0.3000,0.0000*
1,1,2.5240,-0.3000,0.0000*
21,0,0.6000,2.0160,0,0,180.0*
1,0,2.0160,0.3000,0.0000*
1,0,2.0160,-0.3000,0.0000*
4,0,4,0.2102,0.0898,1.1026,0.9822,1.2822,0.8026,0.3898,-0.0898,0.2102,0.0898,0.0*
4,0,4,-0.3898,0.0898,-1.2822,-0.8026,-1.1026,-0.9822,-0.2102,-0.0898,-0.3898,0.0898,0.0*
4,0,4,0.3898,0.0898,1.2822,-0.8026,1.1026,-0.9822,0.2102,-0.0898,0.3898,0.0898,0.0*
4,0,4,-0.2102,0.0898,-1.1026,0.9822,-1.2822,0.8026,-0.3898,-0.0898,-0.2102,0.0898,0.0*
%
%ADD81THOVALD81*%

%ADD82O,2.0160X2.6160*%
%ADD83C,2.0320*%
G04:AMPARAMS|DCode=84|XSize=2.54mm|YSize=2.54mm|CornerRadius=0mm|HoleSize=0mm|Usage=FLASHONLY|Rotation=0.000|XOffset=0mm|YOffset=0mm|HoleType=Round|Shape=Relief|Width=0.254mm|Gap=0.254mm|Entries=4|*
%AMTHD84*
7,0,0,2.5400,2.0320,0.2540,45*
%
%ADD84THD84*%
%ADD85C,1.8160*%
G04:AMPARAMS|DCode=86|XSize=4.699mm|YSize=4.699mm|CornerRadius=0mm|HoleSize=0mm|Usage=FLASHONLY|Rotation=0.000|XOffset=0mm|YOffset=0mm|HoleType=Round|Shape=Relief|Width=0.254mm|Gap=0.254mm|Entries=4|*
%AMTHD86*
7,0,0,4.6990,4.1910,0.2540,45*
%
%ADD86THD86*%
%ADD87C,1.9160*%
G04:AMPARAMS|DCode=88|XSize=2.424mm|YSize=2.424mm|CornerRadius=0mm|HoleSize=0mm|Usage=FLASHONLY|Rotation=0.000|XOffset=0mm|YOffset=0mm|HoleType=Round|Shape=Relief|Width=0.254mm|Gap=0.254mm|Entries=4|*
%AMTHD88*
7,0,0,2.4240,1.9160,0.2540,45*
%
%ADD88THD88*%
%ADD89C,1.3160*%
D10*
X0Y0D02*
X600000D01*
X0D02*
Y600000D01*
X600000Y0D02*
Y600000D01*
X0D02*
X600000D01*
D79*
X0Y0D02*
X600000D01*
Y600000D01*
X0D02*
X600000D01*
X0Y0D02*
Y600000D01*
D80*
X46000Y80000D02*
D03*
D81*
X76000Y33000D02*
D03*
D82*
X106000Y80000D02*
D03*
D83*
X112522Y485648D02*
D03*
X87122D02*
D03*
X112522Y511048D02*
D03*
X137922Y485648D02*
D03*
X165862Y444246D02*
D03*
X191262D02*
D03*
X185700Y546300D02*
D03*
X211100D02*
D03*
X236500D02*
D03*
X261900D02*
D03*
X287300D02*
D03*
X312700D02*
D03*
X338100D02*
D03*
X363500D02*
D03*
X388900D02*
D03*
X414300D02*
D03*
X185700Y571700D02*
D03*
X211100D02*
D03*
X236500D02*
D03*
X261900D02*
D03*
X287300D02*
D03*
D84*
X87122Y511048D02*
D03*
X137922D02*
D03*
X312700Y571700D02*
D03*
X338100D02*
D03*
X363500D02*
D03*
X388900D02*
D03*
X414300D02*
D03*
D85*
X228600Y519430D02*
D03*
X254000D02*
D03*
X228600Y443230D02*
D03*
X254000D02*
D03*
D86*
X30226Y569722D02*
D03*
X569722D02*
D03*
D87*
X377698Y192024D02*
D03*
Y166624D02*
D03*
Y141224D02*
D03*
Y115824D02*
D03*
Y90424D02*
D03*
X580898Y192024D02*
D03*
Y166624D02*
D03*
Y141224D02*
D03*
Y115824D02*
D03*
D88*
X377698Y65024D02*
D03*
X580898Y90424D02*
D03*
Y65024D02*
D03*
D89*
X328422Y212996D02*
D03*
X207916Y216154D02*
D03*
X358902Y212598D02*
D03*
X288544Y138176D02*
D03*
X118618Y167894D02*
D03*
X171704Y314198D02*
D03*
X303530Y356866D02*
D03*
X240030Y415290D02*
D03*
X102362Y117094D02*
D03*
X140911Y368949D02*
D03*
X159001Y427245D02*
D03*
X117094Y445385D02*
D03*
X79756Y354838D02*
D03*
X117094Y409448D02*
D03*
X203734Y128624D02*
D03*
X214108Y260618D02*
D03*
X425704Y44958D02*
D03*
X510032Y171196D02*
D03*
X462788Y483870D02*
D03*
X540004Y398272D02*
D03*
X425450Y21590D02*
D03*
X251460Y361442D02*
D03*
X305562Y378460D02*
D03*
X299466Y393192D02*
D03*
X584200Y331470D02*
D03*
X467106Y547624D02*
D03*
X109728Y38608D02*
D03*
X132334Y66548D02*
D03*
X443317Y347070D02*
D03*
X22606Y19050D02*
D03*
X172212Y69342D02*
D03*
X400304Y244602D02*
D03*
X377444Y231902D02*
D03*
X400812Y258572D02*
D03*
X385572Y221996D02*
D03*
X275590Y241808D02*
D03*
X288077Y241767D02*
D03*
X300722Y241568D02*
D03*
X226836Y260618D02*
D03*
X437896Y541020D02*
D03*
X297688Y484632D02*
D03*
X451000Y461500D02*
D03*
X443484Y487172D02*
D03*
X332538Y308974D02*
D03*
X341538Y316992D02*
D03*
X354584Y486918D02*
D03*
X430643Y487059D02*
D03*
X455930Y517034D02*
D03*
X441198Y552196D02*
D03*
X313436Y241554D02*
D03*
X450850Y372618D02*
D03*
X144272Y245618D02*
D03*
Y271780D02*
D03*
X143764Y297180D02*
D03*
X113284Y323088D02*
D03*
X330454Y362458D02*
D03*
X339598Y351790D02*
D03*
X321056Y373126D02*
D03*
X400304Y485140D02*
D03*
X390398Y482346D02*
D03*
X398144Y475362D02*
D03*
X421386Y374904D02*
D03*
X522224Y140462D02*
D03*
X117856Y258318D02*
D03*
M02*
