G04*
G04 #@! TF.GenerationSoftware,Altium Limited,Altium Designer,21.2.2 (38)*
G04*
G04 Layer_Color=8388736*
%FSLAX44Y44*%
%MOMM*%
G71*
G04*
G04 #@! TF.SameCoordinates,265A67D8-C3AC-4CD1-A284-A86046D17BEF*
G04*
G04*
G04 #@! TF.FilePolarity,Negative*
G04*
G01*
G75*
%ADD10C,0.2000*%
%ADD23C,0.0500*%
%ADD30R,1.4500X0.8000*%
%ADD31R,0.9000X1.2700*%
%ADD42R,1.1032X1.4032*%
G04:AMPARAMS|DCode=43|XSize=2.1732mm|YSize=0.7932mm|CornerRadius=0.1754mm|HoleSize=0mm|Usage=FLASHONLY|Rotation=180.000|XOffset=0mm|YOffset=0mm|HoleType=Round|Shape=RoundedRectangle|*
%AMROUNDEDRECTD43*
21,1,2.1732,0.4425,0,0,180.0*
21,1,1.8225,0.7932,0,0,180.0*
1,1,0.3507,-0.9113,0.2213*
1,1,0.3507,0.9113,0.2213*
1,1,0.3507,0.9113,-0.2213*
1,1,0.3507,-0.9113,-0.2213*
%
%ADD43ROUNDEDRECTD43*%
%ADD44R,0.8282X1.0332*%
%ADD45R,1.4032X1.1032*%
%ADD46R,5.7150X1.4986*%
%ADD47R,1.4986X5.7150*%
%ADD48R,2.4332X2.0032*%
%ADD49R,1.2032X1.2032*%
%ADD50R,1.1032X2.2032*%
%ADD51R,2.2032X1.1032*%
%ADD52R,1.5332X1.5332*%
%ADD53R,1.4032X1.2532*%
%ADD54C,1.2032*%
%ADD55R,0.9532X0.6032*%
%ADD56R,1.2032X1.6032*%
%ADD57R,2.2032X0.7532*%
%ADD58R,1.8032X1.8032*%
G04:AMPARAMS|DCode=59|XSize=1.7032mm|YSize=1.7032mm|CornerRadius=0.1541mm|HoleSize=0mm|Usage=FLASHONLY|Rotation=0.000|XOffset=0mm|YOffset=0mm|HoleType=Round|Shape=RoundedRectangle|*
%AMROUNDEDRECTD59*
21,1,1.7032,1.3950,0,0,0.0*
21,1,1.3950,1.7032,0,0,0.0*
1,1,0.3082,0.6975,-0.6975*
1,1,0.3082,-0.6975,-0.6975*
1,1,0.3082,-0.6975,0.6975*
1,1,0.3082,0.6975,0.6975*
%
%ADD59ROUNDEDRECTD59*%
%ADD60C,1.7032*%
%ADD61C,1.6500*%
%ADD62R,1.6500X1.6500*%
%ADD63C,3.8100*%
%ADD64R,4.7752X2.1844*%
G04:AMPARAMS|DCode=65|XSize=2.3032mm|YSize=1.7032mm|CornerRadius=0.4766mm|HoleSize=0mm|Usage=FLASHONLY|Rotation=180.000|XOffset=0mm|YOffset=0mm|HoleType=Round|Shape=RoundedRectangle|*
%AMROUNDEDRECTD65*
21,1,2.3032,0.7500,0,0,180.0*
21,1,1.3500,1.7032,0,0,180.0*
1,1,0.9532,-0.6750,0.3750*
1,1,0.9532,0.6750,0.3750*
1,1,0.9532,0.6750,-0.3750*
1,1,0.9532,-0.6750,-0.3750*
%
%ADD65ROUNDEDRECTD65*%
G04:AMPARAMS|DCode=66|XSize=2.3032mm|YSize=1.7032mm|CornerRadius=0.4766mm|HoleSize=0mm|Usage=FLASHONLY|Rotation=90.000|XOffset=0mm|YOffset=0mm|HoleType=Round|Shape=RoundedRectangle|*
%AMROUNDEDRECTD66*
21,1,2.3032,0.7500,0,0,90.0*
21,1,1.3500,1.7032,0,0,90.0*
1,1,0.9532,0.3750,0.6750*
1,1,0.9532,0.3750,-0.6750*
1,1,0.9532,-0.3750,-0.6750*
1,1,0.9532,-0.3750,0.6750*
%
%ADD66ROUNDEDRECTD66*%
G04:AMPARAMS|DCode=67|XSize=1.7532mm|YSize=1.7532mm|CornerRadius=0.4891mm|HoleSize=0mm|Usage=FLASHONLY|Rotation=0.000|XOffset=0mm|YOffset=0mm|HoleType=Round|Shape=RoundedRectangle|*
%AMROUNDEDRECTD67*
21,1,1.7532,0.7750,0,0,0.0*
21,1,0.7750,1.7532,0,0,0.0*
1,1,0.9782,0.3875,-0.3875*
1,1,0.9782,-0.3875,-0.3875*
1,1,0.9782,-0.3875,0.3875*
1,1,0.9782,0.3875,0.3875*
%
%ADD67ROUNDEDRECTD67*%
%ADD68C,1.7532*%
D10*
X0Y0D02*
X600000D01*
X0D02*
Y600000D01*
X600000Y0D02*
Y600000D01*
X0D02*
X600000D01*
D23*
X259064Y129726D02*
Y184726D01*
X333264Y129726D02*
Y184726D01*
X259064D02*
X333264D01*
X259064Y129726D02*
X333264D01*
D30*
X218662Y6938D02*
D03*
X151162D02*
D03*
D31*
X205912Y25788D02*
D03*
X163912D02*
D03*
D42*
X307004Y119888D02*
D03*
X286004D02*
D03*
X236814Y385318D02*
D03*
X215814D02*
D03*
X215474Y366014D02*
D03*
X236474D02*
D03*
X133940Y286512D02*
D03*
X154940D02*
D03*
X155000Y258000D02*
D03*
X134000D02*
D03*
X155000Y198302D02*
D03*
X134000D02*
D03*
Y179430D02*
D03*
X155000D02*
D03*
X108032Y136652D02*
D03*
X129032D02*
D03*
X226000Y65000D02*
D03*
X205000D02*
D03*
X226000Y45500D02*
D03*
X205000D02*
D03*
X349500Y258000D02*
D03*
X328500D02*
D03*
D43*
X271414Y138176D02*
D03*
Y150876D02*
D03*
Y163576D02*
D03*
Y176276D02*
D03*
X320914D02*
D03*
Y163576D02*
D03*
Y150876D02*
D03*
Y138176D02*
D03*
D44*
X155651Y305054D02*
D03*
X133401D02*
D03*
X133375Y216802D02*
D03*
X155625D02*
D03*
X155625Y160930D02*
D03*
X133375D02*
D03*
X133375Y239500D02*
D03*
X155625D02*
D03*
D45*
X139954Y444164D02*
D03*
Y423164D02*
D03*
Y386162D02*
D03*
Y407162D02*
D03*
X123952Y59690D02*
D03*
Y38690D02*
D03*
X224000Y340500D02*
D03*
Y319500D02*
D03*
X148590Y118954D02*
D03*
Y139954D02*
D03*
X175514Y118954D02*
D03*
Y139954D02*
D03*
X265430Y386080D02*
D03*
Y365080D02*
D03*
X413766Y274402D02*
D03*
Y295402D02*
D03*
X231000Y181000D02*
D03*
Y160000D02*
D03*
X211500Y181000D02*
D03*
Y160000D02*
D03*
X262000Y319499D02*
D03*
Y340500D02*
D03*
X243000D02*
D03*
Y319499D02*
D03*
D46*
X520954Y280012D02*
D03*
Y315012D02*
D03*
Y350012D02*
D03*
Y385012D02*
D03*
X80010Y164084D02*
D03*
Y199084D02*
D03*
X80036Y251968D02*
D03*
Y286968D02*
D03*
X80010Y339904D02*
D03*
Y374904D02*
D03*
Y409904D02*
D03*
Y444904D02*
D03*
D47*
X331672Y80010D02*
D03*
X296672D02*
D03*
X261672D02*
D03*
X427026Y80600D02*
D03*
X462026D02*
D03*
X497026D02*
D03*
X532026D02*
D03*
D48*
X453898Y270642D02*
D03*
Y299842D02*
D03*
D49*
X10892Y7366D02*
D03*
X38892D02*
D03*
X55342D02*
D03*
X83342D02*
D03*
X99792D02*
D03*
X127792D02*
D03*
D50*
X291000Y332150D02*
D03*
X303700D02*
D03*
X316400D02*
D03*
X329100D02*
D03*
X341800D02*
D03*
X354500D02*
D03*
X367200D02*
D03*
X379900D02*
D03*
X392600D02*
D03*
X405300D02*
D03*
X418000D02*
D03*
X430700D02*
D03*
X443400D02*
D03*
X456100D02*
D03*
Y502150D02*
D03*
X443400D02*
D03*
X430700D02*
D03*
X418000D02*
D03*
X405300D02*
D03*
X392600D02*
D03*
X379900D02*
D03*
X367200D02*
D03*
X354500D02*
D03*
X341800D02*
D03*
X329100D02*
D03*
X316400D02*
D03*
X303700D02*
D03*
X291000D02*
D03*
D51*
X466100Y360000D02*
D03*
Y372700D02*
D03*
Y385400D02*
D03*
Y398100D02*
D03*
Y410800D02*
D03*
Y423500D02*
D03*
Y436200D02*
D03*
Y448900D02*
D03*
Y461600D02*
D03*
Y474300D02*
D03*
D52*
X366000Y407150D02*
D03*
Y425500D02*
D03*
X347650D02*
D03*
Y407150D02*
D03*
Y388800D02*
D03*
X366000D02*
D03*
X384350D02*
D03*
Y407150D02*
D03*
Y425500D02*
D03*
D53*
X126246Y86682D02*
D03*
Y105682D02*
D03*
D54*
X113284Y323088D02*
D03*
X163068Y48514D02*
D03*
D55*
X210750Y138000D02*
D03*
X229250Y146000D02*
D03*
X210750D02*
D03*
X229250Y138000D02*
D03*
D56*
X211000Y114500D02*
D03*
X220500Y92500D02*
D03*
X201500D02*
D03*
D57*
X497586Y504184D02*
D03*
Y471684D02*
D03*
D58*
X228600Y519430D02*
D03*
X254000D02*
D03*
X228600Y443230D02*
D03*
X254000D02*
D03*
D59*
X165862Y444246D02*
D03*
D60*
X191262D02*
D03*
D61*
X87122Y511048D02*
D03*
Y485648D02*
D03*
X112522Y511048D02*
D03*
Y485648D02*
D03*
X137922Y511048D02*
D03*
D62*
Y485648D02*
D03*
D63*
X30226Y569722D02*
D03*
X569722D02*
D03*
D64*
X387698Y192024D02*
D03*
Y166624D02*
D03*
Y141224D02*
D03*
Y115824D02*
D03*
Y90424D02*
D03*
Y65024D02*
D03*
X570898Y192024D02*
D03*
Y166624D02*
D03*
Y141224D02*
D03*
Y115824D02*
D03*
Y90424D02*
D03*
Y65024D02*
D03*
D65*
X75894Y33010D02*
D03*
D66*
X45894Y80010D02*
D03*
X105894D02*
D03*
D67*
X185700Y546300D02*
D03*
D68*
X211100D02*
D03*
X236500D02*
D03*
X261900D02*
D03*
X287300D02*
D03*
X312700D02*
D03*
X338100D02*
D03*
X363500D02*
D03*
X388900D02*
D03*
X414300D02*
D03*
X185700Y571700D02*
D03*
X211100D02*
D03*
X236500D02*
D03*
X261900D02*
D03*
X287300D02*
D03*
X312700D02*
D03*
X338100D02*
D03*
X363500D02*
D03*
X388900D02*
D03*
X414300D02*
D03*
M02*
