G04*
G04 #@! TF.GenerationSoftware,Altium Limited,Altium Designer,21.2.2 (38)*
G04*
G04 Layer_Color=8421504*
%FSLAX44Y44*%
%MOMM*%
G71*
G04*
G04 #@! TF.SameCoordinates,8F59D91E-1953-4D82-9988-75C83E7EF0EF*
G04*
G04*
G04 #@! TF.FilePolarity,Positive*
G04*
G01*
G75*
%ADD10C,0.2000*%
%ADD23C,0.0500*%
%ADD24R,1.7000X0.8000*%
%ADD25R,0.9000X1.2000*%
G04:AMPARAMS|DCode=26|XSize=1.97mm|YSize=0.59mm|CornerRadius=0.0738mm|HoleSize=0mm|Usage=FLASHONLY|Rotation=180.000|XOffset=0mm|YOffset=0mm|HoleType=Round|Shape=RoundedRectangle|*
%AMROUNDEDRECTD26*
21,1,1.9700,0.4425,0,0,180.0*
21,1,1.8225,0.5900,0,0,180.0*
1,1,0.1475,-0.9113,0.2213*
1,1,0.1475,0.9113,0.2213*
1,1,0.1475,0.9113,-0.2213*
1,1,0.1475,-0.9113,-0.2213*
%
%ADD26ROUNDEDRECTD26*%
%ADD27R,0.6250X0.8300*%
%ADD28R,1.2000X0.9000*%
%ADD29R,5.5118X1.2954*%
%ADD30R,1.2954X5.5118*%
%ADD31R,1.4500X0.8000*%
%ADD32R,0.9000X1.2700*%
%ADD33R,2.2300X1.8000*%
%ADD34R,1.0000X1.0000*%
%ADD35R,0.9000X2.0000*%
%ADD36R,2.0000X0.9000*%
%ADD37R,1.3300X1.3300*%
%ADD38R,1.2000X1.0500*%
%ADD39C,1.0000*%
%ADD40R,0.7500X0.4000*%
%ADD41R,1.0000X1.4000*%
D10*
X0Y0D02*
X600000D01*
X0D02*
Y600000D01*
X600000Y0D02*
Y600000D01*
X0D02*
X600000D01*
D23*
X508586Y469672D02*
X512586D01*
Y504672D01*
X508586D02*
X512586D01*
X482586D02*
X486586D01*
X482586Y469672D02*
Y504672D01*
Y469672D02*
X486586D01*
Y463672D02*
Y469672D01*
Y463672D02*
X508586D01*
Y469672D01*
Y504672D02*
Y510672D01*
X486586D02*
X508586D01*
X486586Y504672D02*
Y510672D01*
X259064Y129726D02*
Y184726D01*
X333264Y129726D02*
Y184726D01*
X259064D02*
X333264D01*
X259064Y129726D02*
X333264D01*
D24*
X497586Y470172D02*
D03*
Y504172D02*
D03*
D25*
X307004Y119888D02*
D03*
X286004D02*
D03*
X236814Y385318D02*
D03*
X215814D02*
D03*
X215474Y366014D02*
D03*
X236474D02*
D03*
X133940Y286512D02*
D03*
X154940D02*
D03*
X155000Y258000D02*
D03*
X134000D02*
D03*
X155000Y198302D02*
D03*
X134000D02*
D03*
Y179430D02*
D03*
X155000D02*
D03*
X108032Y136652D02*
D03*
X129032D02*
D03*
X226000Y65000D02*
D03*
X205000D02*
D03*
X226000Y45500D02*
D03*
X205000D02*
D03*
X349500Y258000D02*
D03*
X328500D02*
D03*
D26*
X271414Y138176D02*
D03*
Y150876D02*
D03*
Y163576D02*
D03*
Y176276D02*
D03*
X320914D02*
D03*
Y163576D02*
D03*
Y150876D02*
D03*
Y138176D02*
D03*
D27*
X155651Y305054D02*
D03*
X133401D02*
D03*
X133375Y216802D02*
D03*
X155625D02*
D03*
X155625Y160930D02*
D03*
X133375D02*
D03*
X133375Y239500D02*
D03*
X155625D02*
D03*
D28*
X139954Y444164D02*
D03*
Y423164D02*
D03*
Y386162D02*
D03*
Y407162D02*
D03*
X123952Y59690D02*
D03*
Y38690D02*
D03*
X224000Y340500D02*
D03*
Y319500D02*
D03*
X148590Y118954D02*
D03*
Y139954D02*
D03*
X175514Y118954D02*
D03*
Y139954D02*
D03*
X265430Y386080D02*
D03*
Y365080D02*
D03*
X413766Y274402D02*
D03*
Y295402D02*
D03*
X231000Y181000D02*
D03*
Y160000D02*
D03*
X211500Y181000D02*
D03*
Y160000D02*
D03*
X262000Y319499D02*
D03*
Y340500D02*
D03*
X243000D02*
D03*
Y319499D02*
D03*
D29*
X520954Y280012D02*
D03*
Y315012D02*
D03*
Y350012D02*
D03*
Y385012D02*
D03*
X80010Y164084D02*
D03*
Y199084D02*
D03*
X80036Y251968D02*
D03*
Y286968D02*
D03*
X80010Y339904D02*
D03*
Y374904D02*
D03*
Y409904D02*
D03*
Y444904D02*
D03*
D30*
X331672Y80010D02*
D03*
X296672D02*
D03*
X261672D02*
D03*
X427026Y80600D02*
D03*
X462026D02*
D03*
X497026D02*
D03*
X532026D02*
D03*
D31*
X218662Y6938D02*
D03*
X151162D02*
D03*
D32*
X205912Y25788D02*
D03*
X163912D02*
D03*
D33*
X453898Y270642D02*
D03*
Y299842D02*
D03*
D34*
X10892Y7366D02*
D03*
X38892D02*
D03*
X55342D02*
D03*
X83342D02*
D03*
X99792D02*
D03*
X127792D02*
D03*
D35*
X291000Y332150D02*
D03*
X303700D02*
D03*
X316400D02*
D03*
X329100D02*
D03*
X341800D02*
D03*
X354500D02*
D03*
X367200D02*
D03*
X379900D02*
D03*
X392600D02*
D03*
X405300D02*
D03*
X418000D02*
D03*
X430700D02*
D03*
X443400D02*
D03*
X456100D02*
D03*
Y502150D02*
D03*
X443400D02*
D03*
X430700D02*
D03*
X418000D02*
D03*
X405300D02*
D03*
X392600D02*
D03*
X379900D02*
D03*
X367200D02*
D03*
X354500D02*
D03*
X341800D02*
D03*
X329100D02*
D03*
X316400D02*
D03*
X303700D02*
D03*
X291000D02*
D03*
D36*
X466100Y360000D02*
D03*
Y372700D02*
D03*
Y385400D02*
D03*
Y398100D02*
D03*
Y410800D02*
D03*
Y423500D02*
D03*
Y436200D02*
D03*
Y448900D02*
D03*
Y461600D02*
D03*
Y474300D02*
D03*
D37*
X366000Y407150D02*
D03*
Y425500D02*
D03*
X347650D02*
D03*
Y407150D02*
D03*
Y388800D02*
D03*
X366000D02*
D03*
X384350D02*
D03*
Y407150D02*
D03*
Y425500D02*
D03*
D38*
X126246Y86682D02*
D03*
Y105682D02*
D03*
D39*
X113284Y323088D02*
D03*
X163068Y48514D02*
D03*
D40*
X210750Y138000D02*
D03*
X229250Y146000D02*
D03*
X210750D02*
D03*
X229250Y138000D02*
D03*
D41*
X211000Y114500D02*
D03*
X220500Y92500D02*
D03*
X201500D02*
D03*
M02*
