M48
;Layer_Color=9474304
;FILE_FORMAT=4:4
METRIC,LZ
;TYPE=PLATED
T1F00S00C0.3000
T2F00S00C0.9000
T3F00S00C1.0000
T4F00S00C1.0160
T5F00S00C1.1430
T6F00S00C1.2000
T7F00S00C1.4000
T8F00S00C3.1750
%
T01
X001384Y000915
X001452Y000847
X0015255Y0007735
X001599Y000699
X001684Y000618
X001812
X001937
X00206
X002182
X003516Y000944
X00542Y000941
X006005
X006386
X00791
X008672
X008672Y001745
X00796764Y00180264
X007417Y002659
X005642Y002748
X00552479Y00286974
X005431Y003009
X00542Y001745
X006005
X006386
X00610624Y00422811
X00627184Y00442148
X00609913Y00475473
X006239Y00491
X006263Y005214
X006093Y005212
X005988Y005086
X005773Y005005
X005726Y00529
X00561Y005321
X00550064Y00539046
X005463Y004666
X00584259Y00465494
X00675657Y00516077
X00522414Y005057
X004782Y0050424
X004637Y005048
X004576Y00515
X004121Y005301
X00392525Y00502893
X003651Y005231
X00431Y004682
X004224Y004212
X004202Y003619
X00376Y003797
X004722Y003997
X005042Y00397222
X00525333Y00399995
X005348Y004265
X00537083Y00364775
X005341Y003164
X0053331Y002398
X00517974
X0050495Y0024575
X00509436Y00262964
X005039Y001745
X004658
X004277
X003908Y002406
X004231Y002977
X0044Y002905
X001807Y004934
X001811Y005302
X00116Y0053
X001156Y004932
X000683Y004942
X000333Y004928
X000337Y005296
X000687Y00531
X000699Y005675
X000349Y005661
X000341Y006021
X000345Y006354
X000341Y006667
X000696Y006664
X000695Y006368
X000691Y006035
X001164Y006025
X001168Y006358
X001164Y006671
X001282Y007516
X001215Y008683
X00113
X001047
X000486Y008681
X000379Y008242
Y008115
Y007988
Y007861
X00055744Y00811544
X000744Y008354
X001172Y005665
X001823Y005667
X001815Y006027
X001819Y00636
X001815Y006673
X001958Y008206
X002496Y008301
X002709
X002816Y008194
X002969Y008347
X003123Y0085
X003257Y008634
X0025Y008649
X004102Y008729
X004741Y008717
X004995
X005249
X005074Y008047
X004704Y00802
X003957Y008043
X004063Y007618
X004447Y0072345
X004567Y00723674
X004696Y007246
X00507812Y00725113
X005108Y007152
X00519Y0070695
X004516Y0066605
Y006477
Y0062935
X004588Y006101
X00448749Y006011
X00440053Y00593336
X00394386Y00562014
X003796Y005483
X003565Y006039
X005137Y00554767
X005635Y006004
X0056475Y006591
X005547Y006869
X00548485Y00697836
X00558Y0075655
X00571645Y0075556
X005864Y007659
X006091Y00768
X0061Y007558
X006281Y007347
X006182Y007188
X0059107Y00726099
X005858Y007371
X005891Y008087
X00548359Y00813794
X00550733Y0078275
X005503Y008717
X007056Y008255
X00700226Y0071705
X007226Y007021
X006698Y006537
X006583Y006629
X00648Y006727
X00647148Y00587201
X00714489Y00575241
X007021Y005625
X007876Y005501
X00797394Y00610578
X008644Y006004
X008787Y005762
X00853053Y00686491
X00882644Y00714992
X008819Y007618
X008931Y007904
X008347Y007765
X00828975Y007252
X008765Y008672
T02
X005671Y003214
Y003468
Y003722
Y003976
X006333Y003815
Y003561
Y003307
X007107Y003033
X007361
X007615
X007869
X008123
X008377
Y005065
X008123
X007869
X007615
X007361
X007107
T03
X001626Y003977
X001026
X000426Y007337
X002226
T04
X004614Y008463
X004868
X005122
X005376
Y008717
X005122
X004868
X004614
X00563
Y008463
X005884
X006138
X006392
X006646
X0069
Y008717
X006646
X006392
X006138
X005884
X006897Y007118
Y006864
X007151
X007151Y00661
X006897
X007151Y007118
T05
X001696Y000321
Y001071
T06
X001757Y002656
Y003356
X000957
Y002656
T07
X000315Y000708
X000696
X001077
X002124Y000209
Y001209
X002753Y000708
X003134
X003515
X003896
X004277
X004658
X005039
X00542
X006005
X006386
X006767
X007148
X007529
X00791
X008291
X008672
Y001978
X008291
X00791
X007529
X007148
X006767
X006386
X006005
X00542
X005039
X004658
X004277
X003896
X003515
X003134
X002753
X002444Y002442
Y003442
X000251Y003441
Y002441
X000315Y001978
X000696
X001077
T08
X008612Y002523
X003064Y0029
X003501Y007726
X007462Y007764
M30
