G04*
G04 #@! TF.GenerationSoftware,Altium Limited,Altium Designer,21.2.2 (38)*
G04*
G04 Layer_Color=16711935*
%FSLAX25Y25*%
%MOIN*%
G70*
G04*
G04 #@! TF.SameCoordinates,6CE54949-C0DA-46BE-907D-7ABA0CCCE0FB*
G04*
G04*
G04 #@! TF.FilePolarity,Negative*
G04*
G01*
G75*
%ADD15C,0.00787*%
%ADD42R,0.02375X0.03162*%
%ADD47R,0.04343X0.05524*%
%ADD59C,0.06902*%
G04:AMPARAMS|DCode=60|XSize=69.02mil|YSize=69.02mil|CornerRadius=19.26mil|HoleSize=0mil|Usage=FLASHONLY|Rotation=0.000|XOffset=0mil|YOffset=0mil|HoleType=Round|Shape=RoundedRectangle|*
%AMROUNDEDRECTD60*
21,1,0.06902,0.03051,0,0,0.0*
21,1,0.03051,0.06902,0,0,0.0*
1,1,0.03851,0.01526,-0.01526*
1,1,0.03851,-0.01526,-0.01526*
1,1,0.03851,-0.01526,0.01526*
1,1,0.03851,0.01526,0.01526*
%
%ADD60ROUNDEDRECTD60*%
%ADD61O,0.04343X0.07099*%
%ADD62C,0.06000*%
%ADD63C,0.06700*%
%ADD64C,0.09800*%
%ADD65C,0.08000*%
%ADD95R,0.10446X0.10839*%
%ADD96R,0.06312X0.05918*%
%ADD97R,0.05524X0.04343*%
%ADD98R,0.08280X0.07887*%
G04:AMPARAMS|DCode=99|XSize=70.99mil|YSize=63.12mil|CornerRadius=17.78mil|HoleSize=0mil|Usage=FLASHONLY|Rotation=180.000|XOffset=0mil|YOffset=0mil|HoleType=Round|Shape=RoundedRectangle|*
%AMROUNDEDRECTD99*
21,1,0.07099,0.02756,0,0,180.0*
21,1,0.03543,0.06312,0,0,180.0*
1,1,0.03556,-0.01772,0.01378*
1,1,0.03556,0.01772,0.01378*
1,1,0.03556,0.01772,-0.01378*
1,1,0.03556,-0.01772,-0.01378*
%
%ADD99ROUNDEDRECTD99*%
%ADD100O,0.02375X0.06115*%
%ADD101R,0.05050X0.02178*%
%ADD102R,0.03950X0.04343*%
%ADD103R,0.02572X0.04934*%
D15*
X236221Y190925D02*
Y236221D01*
X0D02*
X236221D01*
Y158150D02*
Y190925D01*
X151358Y20D02*
Y93189D01*
X44587Y20D02*
X151358D01*
Y93189D02*
X236221D01*
X0Y0D02*
X44488D01*
X0Y181791D02*
X0Y0D01*
X236221Y93189D02*
Y158150D01*
X0Y181791D02*
Y236221D01*
X236201Y20D02*
X236201Y20D01*
D42*
X111161Y44941D02*
D03*
X113917D02*
D03*
X22854Y81299D02*
D03*
X25610D02*
D03*
D47*
X56083Y125807D02*
D03*
X47815D02*
D03*
X62736Y120098D02*
D03*
X71004D02*
D03*
X70965Y112382D02*
D03*
X62697D02*
D03*
X33652Y117864D02*
D03*
X41919D02*
D03*
X146181Y176299D02*
D03*
X137913D02*
D03*
X146221Y168760D02*
D03*
X137953D02*
D03*
X146142Y161221D02*
D03*
X137874D02*
D03*
X145059Y128130D02*
D03*
X136791D02*
D03*
X145059Y120630D02*
D03*
X136791D02*
D03*
X145000Y112598D02*
D03*
X136732D02*
D03*
X145039Y105098D02*
D03*
X136772D02*
D03*
D59*
X163110Y215079D02*
D03*
X153110D02*
D03*
X143110D02*
D03*
X133110D02*
D03*
X123110D02*
D03*
X113110D02*
D03*
X103110D02*
D03*
X93110D02*
D03*
X83110D02*
D03*
X73110D02*
D03*
X163110Y225079D02*
D03*
X153110D02*
D03*
X143110D02*
D03*
X133110D02*
D03*
X123110D02*
D03*
X113110D02*
D03*
X103110D02*
D03*
X93110D02*
D03*
X83110D02*
D03*
D60*
X73110D02*
D03*
D61*
X59842Y6752D02*
D03*
X85827D02*
D03*
D62*
X8996Y64114D02*
D03*
Y56240D02*
D03*
Y48366D02*
D03*
D63*
Y71988D02*
D03*
Y40492D02*
D03*
D64*
X8846Y208539D02*
D03*
X28846D02*
D03*
Y228539D02*
D03*
X8846D02*
D03*
D65*
X18846Y218539D02*
D03*
D95*
X60787Y159941D02*
D03*
Y136122D02*
D03*
X179469Y137382D02*
D03*
Y161201D02*
D03*
X40295Y159902D02*
D03*
Y136083D02*
D03*
X74154Y35453D02*
D03*
Y59272D02*
D03*
X94626Y35571D02*
D03*
Y59390D02*
D03*
D96*
X111417Y51555D02*
D03*
Y57854D02*
D03*
D97*
X124252Y50315D02*
D03*
Y58583D02*
D03*
X19468Y63937D02*
D03*
Y72205D02*
D03*
X19311Y48583D02*
D03*
Y40315D02*
D03*
X44961Y50709D02*
D03*
Y42441D02*
D03*
X52480Y50709D02*
D03*
Y42441D02*
D03*
X59961Y50709D02*
D03*
Y42441D02*
D03*
X49843Y18878D02*
D03*
Y10610D02*
D03*
X37776Y108780D02*
D03*
Y100512D02*
D03*
X51949Y105098D02*
D03*
Y96831D02*
D03*
X117972Y181378D02*
D03*
Y173110D02*
D03*
X91063Y176102D02*
D03*
Y184370D02*
D03*
D98*
X68110Y6752D02*
D03*
X77559D02*
D03*
D99*
X60236Y16398D02*
D03*
X85433D02*
D03*
D100*
X72835Y17284D02*
D03*
X75394D02*
D03*
X77953D02*
D03*
X67716D02*
D03*
X70276D02*
D03*
D101*
X55965Y58091D02*
D03*
Y63209D02*
D03*
X46415D02*
D03*
Y60650D02*
D03*
Y58091D02*
D03*
D102*
X52028Y111161D02*
D03*
X55768Y119035D02*
D03*
X48287D02*
D03*
D103*
X113839Y142205D02*
D03*
X111279D02*
D03*
X108721D02*
D03*
X106161D02*
D03*
X103602D02*
D03*
X101043D02*
D03*
X98484D02*
D03*
X95925D02*
D03*
X93366D02*
D03*
X90807D02*
D03*
X113839Y164055D02*
D03*
X111279D02*
D03*
X108721D02*
D03*
X106161D02*
D03*
X103602D02*
D03*
X101043D02*
D03*
X98484D02*
D03*
X95925D02*
D03*
X93366D02*
D03*
X90807D02*
D03*
M02*
