G04*
G04 #@! TF.GenerationSoftware,Altium Limited,Altium Designer,21.2.2 (38)*
G04*
G04 Layer_Color=65535*
%FSLAX25Y25*%
%MOIN*%
G70*
G04*
G04 #@! TF.SameCoordinates,6CE54949-C0DA-46BE-907D-7ABA0CCCE0FB*
G04*
G04*
G04 #@! TF.FilePolarity,Positive*
G04*
G01*
G75*
%ADD10C,0.01968*%
%ADD11C,0.05000*%
%ADD12C,0.00984*%
%ADD13C,0.03937*%
%ADD14C,0.00394*%
%ADD15C,0.00787*%
%ADD16C,0.01000*%
%ADD17C,0.00600*%
%ADD18C,0.00591*%
%ADD19C,0.01181*%
%ADD20C,0.00500*%
%ADD21C,0.00709*%
%ADD22R,0.02165X0.02657*%
G36*
X181636Y199521D02*
Y199432D01*
Y199343D01*
Y199253D01*
Y199164D01*
Y199075D01*
Y198986D01*
Y198896D01*
Y198807D01*
Y198718D01*
Y198628D01*
Y198539D01*
Y198450D01*
Y198361D01*
Y198271D01*
Y198182D01*
Y198093D01*
Y198003D01*
Y197914D01*
Y197825D01*
Y197736D01*
Y197646D01*
Y197557D01*
Y197468D01*
Y197379D01*
Y197289D01*
Y197200D01*
X179226D01*
Y197289D01*
Y197379D01*
Y197468D01*
Y197557D01*
Y197646D01*
Y197736D01*
Y197825D01*
Y197914D01*
Y198003D01*
Y198093D01*
Y198182D01*
Y198271D01*
Y198361D01*
Y198450D01*
Y198539D01*
Y198628D01*
Y198718D01*
Y198807D01*
Y198896D01*
Y198986D01*
Y199075D01*
Y199164D01*
Y199253D01*
Y199343D01*
Y199432D01*
Y199521D01*
Y199611D01*
X181636D01*
Y199521D01*
D02*
G37*
G36*
X175029D02*
Y199432D01*
Y199343D01*
Y199253D01*
Y199164D01*
Y199075D01*
Y198986D01*
Y198896D01*
Y198807D01*
Y198718D01*
Y198628D01*
Y198539D01*
Y198450D01*
Y198361D01*
Y198271D01*
Y198182D01*
Y198093D01*
Y198003D01*
Y197914D01*
Y197825D01*
Y197736D01*
Y197646D01*
Y197557D01*
Y197468D01*
Y197379D01*
Y197289D01*
Y197200D01*
X172618D01*
Y197289D01*
Y197379D01*
Y197468D01*
Y197557D01*
Y197646D01*
Y197736D01*
Y197825D01*
Y197914D01*
Y198003D01*
Y198093D01*
Y198182D01*
Y198271D01*
Y198361D01*
Y198450D01*
Y198539D01*
Y198628D01*
Y198718D01*
Y198807D01*
Y198896D01*
Y198986D01*
Y199075D01*
Y199164D01*
Y199253D01*
Y199343D01*
Y199432D01*
Y199521D01*
Y199611D01*
X175029D01*
Y199521D01*
D02*
G37*
G36*
X187708D02*
Y199432D01*
Y199343D01*
Y199253D01*
Y199164D01*
Y199075D01*
Y198986D01*
Y198896D01*
Y198807D01*
Y198718D01*
Y198628D01*
Y198539D01*
Y198450D01*
Y198361D01*
Y198271D01*
Y198182D01*
Y198093D01*
Y198003D01*
Y197914D01*
Y197825D01*
Y197736D01*
Y197646D01*
Y197557D01*
Y197468D01*
Y197379D01*
Y197289D01*
Y197200D01*
X186636D01*
Y197111D01*
X186458D01*
Y197200D01*
X185297D01*
Y197289D01*
Y197379D01*
Y197468D01*
Y197557D01*
Y197646D01*
Y197736D01*
Y197825D01*
Y197914D01*
Y198003D01*
Y198093D01*
Y198182D01*
Y198271D01*
Y198361D01*
Y198450D01*
Y198539D01*
Y198628D01*
Y198718D01*
Y198807D01*
Y198896D01*
Y198986D01*
Y199075D01*
Y199164D01*
Y199253D01*
Y199343D01*
Y199432D01*
Y199521D01*
Y199611D01*
X187708D01*
Y199521D01*
D02*
G37*
G36*
X171904Y199611D02*
Y199521D01*
Y199432D01*
Y199343D01*
Y199253D01*
Y199164D01*
Y199075D01*
Y198986D01*
Y198896D01*
Y198807D01*
Y198718D01*
Y198628D01*
Y198539D01*
Y198450D01*
Y198361D01*
Y198271D01*
Y198182D01*
Y198093D01*
Y198003D01*
Y197914D01*
Y197825D01*
Y197736D01*
Y197646D01*
Y197557D01*
Y197468D01*
Y197379D01*
Y197289D01*
Y197200D01*
Y197111D01*
Y197021D01*
Y196932D01*
Y196843D01*
Y196754D01*
Y196664D01*
Y196575D01*
Y196486D01*
X174404D01*
Y196396D01*
Y196307D01*
Y196218D01*
Y196128D01*
Y196039D01*
Y195950D01*
Y195861D01*
Y195771D01*
Y195682D01*
Y195593D01*
Y195503D01*
Y195414D01*
Y195325D01*
Y195236D01*
Y195146D01*
Y195057D01*
Y194968D01*
Y194878D01*
Y194789D01*
Y194700D01*
Y194611D01*
Y194521D01*
Y194432D01*
Y194343D01*
Y194253D01*
Y194164D01*
Y194075D01*
X174493D01*
Y193986D01*
X175922D01*
Y193896D01*
X176011D01*
Y193807D01*
Y193718D01*
Y193628D01*
X176190D01*
Y193539D01*
Y193450D01*
X176279D01*
Y193361D01*
Y193271D01*
Y193182D01*
X176368D01*
Y193093D01*
Y193003D01*
X176458D01*
Y192914D01*
X176547D01*
Y192825D01*
Y192736D01*
X176636D01*
Y192646D01*
Y192557D01*
X176726D01*
Y192468D01*
X176815D01*
Y192378D01*
X176726D01*
Y192289D01*
X176815D01*
Y192200D01*
X176904D01*
Y192111D01*
Y192021D01*
X176993D01*
Y191932D01*
Y191843D01*
X177172D01*
Y191753D01*
Y191664D01*
Y191575D01*
Y191486D01*
X177261D01*
Y191396D01*
X177351D01*
Y191307D01*
Y191218D01*
Y191128D01*
X177440D01*
Y191039D01*
X177529D01*
Y190950D01*
Y190860D01*
X177619D01*
Y190771D01*
Y190682D01*
X177708D01*
Y190593D01*
Y190503D01*
X177797D01*
Y190414D01*
X177886D01*
Y190325D01*
Y190235D01*
X177976D01*
Y190146D01*
Y190057D01*
X178065D01*
Y189968D01*
Y189878D01*
X178154D01*
Y189789D01*
X178244D01*
Y189700D01*
Y189611D01*
Y189521D01*
X178333D01*
Y189432D01*
Y189343D01*
Y189253D01*
X178511D01*
Y189164D01*
Y189075D01*
X178601D01*
Y188986D01*
Y188896D01*
X178690D01*
Y188807D01*
Y188718D01*
Y188628D01*
X178779D01*
Y188539D01*
X178868D01*
Y188450D01*
Y188361D01*
X178958D01*
Y188271D01*
Y188182D01*
Y188093D01*
X179136D01*
Y188003D01*
Y187914D01*
Y187825D01*
X179226D01*
Y187735D01*
X179315D01*
Y187646D01*
Y187557D01*
Y187468D01*
X179404D01*
Y187378D01*
Y187289D01*
X179493D01*
Y187200D01*
X179583D01*
Y187110D01*
Y187021D01*
X179672D01*
Y186932D01*
Y186843D01*
X179761D01*
Y186753D01*
X179851D01*
Y186664D01*
Y186575D01*
Y186486D01*
X179940D01*
Y186396D01*
Y186307D01*
X180029D01*
Y186218D01*
X180119D01*
Y186128D01*
Y186039D01*
Y185950D01*
X180208D01*
Y185861D01*
X180297D01*
Y185771D01*
Y185682D01*
X180386D01*
Y185593D01*
X180476D01*
Y185503D01*
Y185414D01*
Y185325D01*
X180565D01*
Y185236D01*
X180654D01*
Y185146D01*
Y185057D01*
X180744D01*
Y184968D01*
Y184878D01*
Y184789D01*
X180922D01*
Y184700D01*
Y184610D01*
Y184521D01*
X181011D01*
Y184432D01*
Y184343D01*
Y184253D01*
X181101D01*
Y184164D01*
X181190D01*
Y184075D01*
X181279D01*
Y183985D01*
X181190D01*
Y183896D01*
X181369D01*
Y183807D01*
Y183718D01*
Y183628D01*
X181458D01*
Y183539D01*
Y183450D01*
Y183360D01*
X181547D01*
Y183271D01*
X181458D01*
Y183182D01*
Y183093D01*
X181369D01*
Y183003D01*
X181190D01*
Y182914D01*
X178868D01*
Y183003D01*
X178333D01*
Y183093D01*
X178154D01*
Y183182D01*
X177708D01*
Y183271D01*
X177440D01*
Y183360D01*
X177172D01*
Y183450D01*
X177083D01*
Y183539D01*
X176815D01*
Y183628D01*
X176636D01*
Y183718D01*
X176458D01*
Y183807D01*
X176279D01*
Y183896D01*
X176101D01*
Y183985D01*
X176011D01*
Y184075D01*
X175922D01*
Y184164D01*
X175743D01*
Y184253D01*
X175565D01*
Y184343D01*
X175476D01*
Y184432D01*
X175386D01*
Y184521D01*
X175208D01*
Y184610D01*
X175118D01*
Y184700D01*
X175029D01*
Y184789D01*
X174940D01*
Y184878D01*
X174850D01*
Y184968D01*
X174761D01*
Y185057D01*
X174672D01*
Y185146D01*
X174583D01*
Y185236D01*
X174493D01*
Y185325D01*
X174404D01*
Y185414D01*
X174315D01*
Y185503D01*
X174225D01*
Y185593D01*
X174136D01*
Y185682D01*
Y185771D01*
Y185861D01*
X173958D01*
Y185950D01*
Y186039D01*
X173868D01*
Y186128D01*
X173779D01*
Y186218D01*
Y186307D01*
Y186396D01*
Y186486D01*
X173690D01*
Y186575D01*
X173600D01*
Y186664D01*
Y186753D01*
X173511D01*
Y186843D01*
Y186932D01*
X173422D01*
Y187021D01*
X173333D01*
Y187110D01*
Y187200D01*
Y187289D01*
X173243D01*
Y187378D01*
X173154D01*
Y187468D01*
Y187557D01*
Y187646D01*
X172976D01*
Y187735D01*
Y187825D01*
Y187914D01*
X172886D01*
Y188003D01*
Y188093D01*
X172797D01*
Y188182D01*
Y188271D01*
X172708D01*
Y188361D01*
X172618D01*
Y188450D01*
Y188539D01*
Y188628D01*
X172440D01*
Y188718D01*
Y188807D01*
Y188896D01*
Y188986D01*
X172351D01*
Y189075D01*
X172261D01*
Y189164D01*
Y189253D01*
Y189343D01*
X172172D01*
Y189432D01*
X172083D01*
Y189521D01*
X171993D01*
Y189611D01*
Y189700D01*
Y189789D01*
X171815D01*
Y189878D01*
X171904D01*
Y189968D01*
X171815D01*
Y190057D01*
X171725D01*
Y190146D01*
Y190235D01*
X171636D01*
Y190325D01*
Y190414D01*
X171458D01*
Y190503D01*
Y190593D01*
Y190682D01*
Y190771D01*
Y190860D01*
X171368D01*
Y190950D01*
X171279D01*
Y191039D01*
Y191128D01*
X171190D01*
Y191218D01*
X171100D01*
Y191307D01*
Y191396D01*
Y191486D01*
X171011D01*
Y191575D01*
X170922D01*
Y191664D01*
X170833D01*
Y191753D01*
X170922D01*
Y191843D01*
X170833D01*
Y191932D01*
X170743D01*
Y192021D01*
X170654D01*
Y192111D01*
Y192200D01*
Y192289D01*
X170475D01*
Y192378D01*
Y192468D01*
Y192557D01*
Y192646D01*
X170386D01*
Y192736D01*
X170297D01*
Y192825D01*
Y192914D01*
Y193003D01*
X170208D01*
Y193093D01*
X170118D01*
Y193182D01*
Y193271D01*
Y193361D01*
X170029D01*
Y193450D01*
X169940D01*
Y193539D01*
Y193628D01*
Y193718D01*
X169761D01*
Y193807D01*
Y193896D01*
X169672D01*
Y193986D01*
Y194075D01*
Y194164D01*
X169583D01*
Y194253D01*
X169493D01*
Y194343D01*
Y194432D01*
X169226D01*
Y194343D01*
Y194253D01*
Y194164D01*
X169136D01*
Y194075D01*
Y193986D01*
X169047D01*
Y193896D01*
X168958D01*
Y193807D01*
X169047D01*
Y193718D01*
X168958D01*
Y193628D01*
X168868D01*
Y193539D01*
X168779D01*
Y193450D01*
Y193361D01*
Y193271D01*
X168690D01*
Y193182D01*
Y193093D01*
X168600D01*
Y193003D01*
Y192914D01*
X168511D01*
Y192825D01*
Y192736D01*
X168422D01*
Y192646D01*
Y192557D01*
X168333D01*
Y192468D01*
Y192378D01*
X168243D01*
Y192289D01*
Y192200D01*
X168154D01*
Y192111D01*
Y192021D01*
Y191932D01*
Y191843D01*
Y191753D01*
X168243D01*
Y191664D01*
Y191575D01*
Y191486D01*
X168333D01*
Y191396D01*
X168422D01*
Y191307D01*
Y191218D01*
X168511D01*
Y191128D01*
Y191039D01*
X168600D01*
Y190950D01*
Y190860D01*
X168690D01*
Y190771D01*
Y190682D01*
X168779D01*
Y190593D01*
X168868D01*
Y190503D01*
Y190414D01*
X168958D01*
Y190325D01*
Y190235D01*
X169047D01*
Y190146D01*
Y190057D01*
X169136D01*
Y189968D01*
Y189878D01*
X169226D01*
Y189789D01*
X169315D01*
Y189700D01*
Y189611D01*
Y189521D01*
X169404D01*
Y189432D01*
Y189343D01*
X169583D01*
Y189253D01*
Y189164D01*
Y189075D01*
Y188986D01*
X169761D01*
Y188896D01*
Y188807D01*
Y188718D01*
Y188628D01*
X169940D01*
Y188539D01*
Y188450D01*
X170029D01*
Y188361D01*
X169940D01*
Y188271D01*
X170029D01*
Y188182D01*
X170118D01*
Y188093D01*
X170208D01*
Y188003D01*
Y187914D01*
X170297D01*
Y187825D01*
Y187735D01*
X170386D01*
Y187646D01*
Y187557D01*
X170475D01*
Y187468D01*
Y187378D01*
X170565D01*
Y187289D01*
Y187200D01*
Y187110D01*
X170654D01*
Y187021D01*
X170743D01*
Y186932D01*
Y186843D01*
Y186753D01*
X170922D01*
Y186664D01*
Y186575D01*
Y186486D01*
X171011D01*
Y186396D01*
Y186307D01*
X171100D01*
Y186218D01*
X171190D01*
Y186128D01*
Y186039D01*
Y185950D01*
X171368D01*
Y185861D01*
Y185771D01*
Y185682D01*
X171458D01*
Y185593D01*
X171547D01*
Y185503D01*
Y185414D01*
Y185325D01*
X171636D01*
Y185236D01*
X171725D01*
Y185146D01*
Y185057D01*
X171815D01*
Y184968D01*
Y184878D01*
X171904D01*
Y184789D01*
Y184700D01*
Y184610D01*
X171993D01*
Y184521D01*
X172083D01*
Y184432D01*
Y184343D01*
Y184253D01*
X172261D01*
Y184164D01*
Y184075D01*
X172351D01*
Y183985D01*
Y183896D01*
Y183807D01*
X172440D01*
Y183718D01*
X172529D01*
Y183628D01*
X172618D01*
Y183539D01*
Y183450D01*
Y183360D01*
Y183271D01*
Y183182D01*
X172529D01*
Y183093D01*
X172440D01*
Y183003D01*
X172261D01*
Y182914D01*
X169940D01*
Y183003D01*
X169493D01*
Y183093D01*
X169226D01*
Y183182D01*
X168779D01*
Y183271D01*
X168511D01*
Y183360D01*
X168333D01*
Y183450D01*
X168154D01*
Y183539D01*
X167886D01*
Y183628D01*
X167708D01*
Y183718D01*
X167529D01*
Y183807D01*
X167440D01*
Y183896D01*
X167261D01*
Y183985D01*
X167083D01*
Y184075D01*
X166993D01*
Y184164D01*
X166815D01*
Y184253D01*
X166636D01*
Y184343D01*
X166547D01*
Y184432D01*
X166458D01*
Y184521D01*
X166368D01*
Y184610D01*
X166190D01*
Y184700D01*
X166100D01*
Y184789D01*
X166011D01*
Y184878D01*
Y184968D01*
X165833D01*
Y185057D01*
X165743D01*
Y185146D01*
X165654D01*
Y185236D01*
X165565D01*
Y185325D01*
X165475D01*
Y185414D01*
Y185503D01*
X165386D01*
Y185593D01*
X165297D01*
Y185682D01*
X165208D01*
Y185771D01*
Y185861D01*
X165029D01*
Y185950D01*
Y186039D01*
Y186128D01*
X164850D01*
Y186218D01*
Y186307D01*
Y186396D01*
Y186486D01*
X164761D01*
Y186575D01*
X164672D01*
Y186664D01*
Y186753D01*
X164583D01*
Y186843D01*
Y186932D01*
X164493D01*
Y187021D01*
Y187110D01*
X164404D01*
Y187200D01*
Y187289D01*
X164315D01*
Y187378D01*
X164225D01*
Y187468D01*
Y187557D01*
X164136D01*
Y187646D01*
Y187735D01*
X164047D01*
Y187825D01*
Y187914D01*
Y188003D01*
X163868D01*
Y188093D01*
Y188182D01*
X163779D01*
Y188271D01*
Y188361D01*
Y188450D01*
X163690D01*
Y188539D01*
Y188628D01*
X163511D01*
Y188718D01*
Y188807D01*
Y188896D01*
X163422D01*
Y188986D01*
Y189075D01*
X163332D01*
Y189164D01*
Y189253D01*
X163243D01*
Y189343D01*
Y189432D01*
X163154D01*
Y189521D01*
X163065D01*
Y189611D01*
Y189700D01*
Y189789D01*
X162975D01*
Y189878D01*
X162886D01*
Y189968D01*
Y190057D01*
X162797D01*
Y190146D01*
Y190235D01*
X162707D01*
Y190325D01*
Y190414D01*
X162618D01*
Y190503D01*
X162529D01*
Y190593D01*
Y190682D01*
Y190771D01*
X162440D01*
Y190860D01*
Y190950D01*
X162350D01*
Y191039D01*
Y191128D01*
Y191218D01*
X162172D01*
Y191307D01*
Y191396D01*
Y191486D01*
X162083D01*
Y191575D01*
X161993D01*
Y191664D01*
Y191753D01*
X161904D01*
Y191843D01*
Y191932D01*
X161815D01*
Y192021D01*
X161725D01*
Y192111D01*
X161815D01*
Y192200D01*
X161725D01*
Y192289D01*
X161636D01*
Y192378D01*
X161547D01*
Y192468D01*
Y192557D01*
X161458D01*
Y192646D01*
Y192736D01*
X161368D01*
Y192825D01*
Y192914D01*
Y193003D01*
X161279D01*
Y193093D01*
Y193182D01*
X161190D01*
Y193271D01*
Y193361D01*
X161100D01*
Y193450D01*
X160833D01*
Y193361D01*
Y193271D01*
X160743D01*
Y193182D01*
Y193093D01*
X160654D01*
Y193003D01*
Y192914D01*
X160565D01*
Y192825D01*
X160475D01*
Y192736D01*
Y192646D01*
Y192557D01*
X160386D01*
Y192468D01*
X160297D01*
Y192378D01*
Y192289D01*
Y192200D01*
X160118D01*
Y192111D01*
Y192021D01*
Y191932D01*
X160029D01*
Y191843D01*
Y191753D01*
X159940D01*
Y191664D01*
Y191575D01*
X159850D01*
Y191486D01*
Y191396D01*
Y191307D01*
X159761D01*
Y191218D01*
X159672D01*
Y191128D01*
Y191039D01*
X159582D01*
Y190950D01*
X159493D01*
Y190860D01*
Y190771D01*
X159404D01*
Y190682D01*
Y190593D01*
X159315D01*
Y190503D01*
Y190414D01*
X159225D01*
Y190325D01*
Y190235D01*
X159136D01*
Y190146D01*
Y190057D01*
Y189968D01*
X158958D01*
Y189878D01*
Y189789D01*
Y189700D01*
X158868D01*
Y189611D01*
X158779D01*
Y189521D01*
Y189432D01*
Y189343D01*
X158690D01*
Y189253D01*
X158600D01*
Y189164D01*
Y189075D01*
X158511D01*
Y188986D01*
Y188896D01*
X158422D01*
Y188807D01*
X158333D01*
Y188718D01*
Y188628D01*
Y188539D01*
X158243D01*
Y188450D01*
Y188361D01*
X158154D01*
Y188271D01*
X158065D01*
Y188182D01*
Y188093D01*
X157975D01*
Y188003D01*
Y187914D01*
X157886D01*
Y187825D01*
Y187735D01*
X157797D01*
Y187646D01*
Y187557D01*
Y187468D01*
X157708D01*
Y187378D01*
Y187289D01*
X157618D01*
Y187200D01*
Y187110D01*
X157440D01*
Y187021D01*
Y186932D01*
X157350D01*
Y186843D01*
Y186753D01*
Y186664D01*
X157261D01*
Y186575D01*
X157172D01*
Y186486D01*
Y186396D01*
Y186307D01*
X157082D01*
Y186218D01*
X156993D01*
Y186128D01*
Y186039D01*
Y185950D01*
X156815D01*
Y185861D01*
Y185771D01*
Y185682D01*
X156725D01*
Y185593D01*
Y185503D01*
X156636D01*
Y185414D01*
Y185325D01*
X156547D01*
Y185236D01*
Y185146D01*
X156368D01*
Y185057D01*
Y184968D01*
Y184878D01*
X156279D01*
Y184789D01*
Y184700D01*
Y184610D01*
X156190D01*
Y184521D01*
X156100D01*
Y184432D01*
Y184343D01*
X156011D01*
Y184253D01*
Y184164D01*
X155922D01*
Y184075D01*
X155832D01*
Y183985D01*
Y183896D01*
Y183807D01*
X155743D01*
Y183718D01*
X155654D01*
Y183628D01*
Y183539D01*
X155565D01*
Y183450D01*
Y183360D01*
Y183271D01*
X155386D01*
Y183182D01*
Y183093D01*
Y183003D01*
X155207D01*
Y182914D01*
X149940D01*
Y183003D01*
X149761D01*
Y183093D01*
X149672D01*
Y183182D01*
X149493D01*
Y183271D01*
X149314D01*
Y183360D01*
Y183450D01*
X149225D01*
Y183539D01*
X149136D01*
Y183628D01*
Y183718D01*
Y183807D01*
X148957D01*
Y183896D01*
Y183985D01*
X148868D01*
Y184075D01*
Y184164D01*
X148779D01*
Y184253D01*
Y184343D01*
Y184432D01*
X148689D01*
Y184521D01*
X148600D01*
Y184610D01*
Y184700D01*
X148511D01*
Y184789D01*
Y184878D01*
Y184968D01*
X148332D01*
Y185057D01*
X148422D01*
Y185146D01*
X148332D01*
Y185236D01*
X148243D01*
Y185325D01*
X148154D01*
Y185414D01*
Y185503D01*
Y185593D01*
X147886D01*
Y185503D01*
X147797D01*
Y185414D01*
Y185325D01*
X147707D01*
Y185236D01*
Y185146D01*
X147618D01*
Y185057D01*
X147529D01*
Y184968D01*
X147440D01*
Y184878D01*
Y184789D01*
Y184700D01*
X147350D01*
Y184610D01*
Y184521D01*
X147261D01*
Y184432D01*
Y184343D01*
X147172D01*
Y184253D01*
Y184164D01*
X147082D01*
Y184075D01*
Y183985D01*
X146993D01*
Y183896D01*
X146904D01*
Y183807D01*
Y183718D01*
X146815D01*
Y183628D01*
Y183539D01*
Y183450D01*
X146725D01*
Y183360D01*
X146636D01*
Y183271D01*
Y183182D01*
X146547D01*
Y183093D01*
Y183003D01*
X146279D01*
Y182914D01*
X141189D01*
Y183003D01*
X140921D01*
Y183093D01*
X140832D01*
Y183182D01*
X140654D01*
Y183271D01*
X140564D01*
Y183360D01*
X140475D01*
Y183450D01*
X140386D01*
Y183539D01*
X140296D01*
Y183628D01*
Y183718D01*
X140207D01*
Y183807D01*
Y183896D01*
Y183985D01*
X140029D01*
Y184075D01*
Y184164D01*
Y184253D01*
X139939D01*
Y184343D01*
X139850D01*
Y184432D01*
Y184521D01*
Y184610D01*
X139761D01*
Y184700D01*
Y184789D01*
X139672D01*
Y184878D01*
X139582D01*
Y184968D01*
X139493D01*
Y185057D01*
Y185146D01*
X139404D01*
Y185236D01*
Y185325D01*
X139314D01*
Y185414D01*
Y185503D01*
X139225D01*
Y185593D01*
Y185682D01*
X139136D01*
Y185771D01*
X139047D01*
Y185861D01*
Y185950D01*
Y186039D01*
Y186128D01*
X138957D01*
Y186218D01*
X138868D01*
Y186307D01*
Y186396D01*
Y186486D01*
X138689D01*
Y186575D01*
Y186664D01*
Y186753D01*
X138600D01*
Y186843D01*
Y186932D01*
X138511D01*
Y187021D01*
X138421D01*
Y187110D01*
Y187200D01*
X138332D01*
Y187289D01*
X138243D01*
Y187378D01*
Y187468D01*
Y187557D01*
Y187646D01*
X138064D01*
Y187735D01*
Y187825D01*
X137975D01*
Y187914D01*
Y188003D01*
Y188093D01*
X137886D01*
Y188182D01*
Y188271D01*
X137796D01*
Y188361D01*
X137707D01*
Y188450D01*
Y188539D01*
X137618D01*
Y188628D01*
Y188718D01*
X137529D01*
Y188807D01*
Y188896D01*
Y188986D01*
X137350D01*
Y189075D01*
Y189164D01*
Y189253D01*
X137261D01*
Y189343D01*
Y189432D01*
X137171D01*
Y189521D01*
X137082D01*
Y189611D01*
Y189700D01*
X136993D01*
Y189789D01*
Y189878D01*
X136904D01*
Y189968D01*
Y190057D01*
Y190146D01*
X136725D01*
Y190235D01*
Y190325D01*
X136636D01*
Y190414D01*
Y190503D01*
Y190593D01*
X136547D01*
Y190682D01*
Y190771D01*
X136457D01*
Y190860D01*
Y190950D01*
X136368D01*
Y191039D01*
X136279D01*
Y191128D01*
Y191218D01*
X136189D01*
Y191307D01*
X136100D01*
Y191396D01*
X136189D01*
Y191486D01*
X136011D01*
Y191575D01*
Y191664D01*
Y191753D01*
X135922D01*
Y191843D01*
Y191932D01*
X135832D01*
Y192021D01*
Y192111D01*
X135743D01*
Y192200D01*
X135654D01*
Y192289D01*
X135564D01*
Y192378D01*
Y192468D01*
Y192557D01*
Y192646D01*
X135386D01*
Y192736D01*
Y192825D01*
Y192914D01*
X135296D01*
Y193003D01*
Y193093D01*
Y193182D01*
X135118D01*
Y193271D01*
Y193361D01*
Y193450D01*
X135029D01*
Y193539D01*
X134939D01*
Y193628D01*
Y193718D01*
Y193807D01*
X134850D01*
Y193896D01*
X134761D01*
Y193986D01*
X134671D01*
Y194075D01*
Y194164D01*
X134582D01*
Y194253D01*
Y194343D01*
Y194432D01*
Y194521D01*
X134404D01*
Y194611D01*
Y194700D01*
Y194789D01*
X134314D01*
Y194878D01*
X134225D01*
Y194968D01*
Y195057D01*
X134136D01*
Y195146D01*
Y195236D01*
Y195325D01*
X134046D01*
Y195414D01*
X133957D01*
Y195503D01*
Y195593D01*
Y195682D01*
X133779D01*
Y195771D01*
Y195861D01*
X133689D01*
Y195950D01*
Y196039D01*
X133600D01*
Y196128D01*
Y196218D01*
Y196307D01*
X133511D01*
Y196396D01*
Y196486D01*
X133421D01*
Y196575D01*
X133332D01*
Y196664D01*
Y196754D01*
Y196843D01*
X133243D01*
Y196932D01*
Y197021D01*
X133154D01*
Y197111D01*
X133064D01*
Y197200D01*
Y197289D01*
Y197379D01*
X132975D01*
Y197468D01*
X132796D01*
Y197557D01*
X132886D01*
Y197646D01*
X132796D01*
Y197736D01*
Y197825D01*
X132707D01*
Y197914D01*
X132618D01*
Y198003D01*
Y198093D01*
Y198182D01*
X132529D01*
Y198271D01*
X132439D01*
Y198361D01*
Y198450D01*
X132350D01*
Y198539D01*
Y198628D01*
X132261D01*
Y198718D01*
X132171D01*
Y198807D01*
Y198896D01*
Y198986D01*
X132082D01*
Y199075D01*
X131993D01*
Y199164D01*
Y199253D01*
Y199343D01*
Y199432D01*
X132082D01*
Y199521D01*
X132171D01*
Y199611D01*
X132439D01*
Y199700D01*
X134314D01*
Y199611D01*
X135029D01*
Y199521D01*
X135207D01*
Y199432D01*
X135654D01*
Y199343D01*
X135922D01*
Y199253D01*
X136189D01*
Y199164D01*
X136368D01*
Y199075D01*
X136636D01*
Y198986D01*
X136814D01*
Y198896D01*
X136993D01*
Y198807D01*
X137171D01*
Y198718D01*
X137350D01*
Y198628D01*
X137529D01*
Y198539D01*
X137707D01*
Y198450D01*
X137796D01*
Y198361D01*
X137886D01*
Y198271D01*
X138064D01*
Y198182D01*
X138154D01*
Y198093D01*
X138243D01*
Y198003D01*
X138421D01*
Y197914D01*
Y197825D01*
X138600D01*
Y197736D01*
X138689D01*
Y197646D01*
X138779D01*
Y197557D01*
Y197468D01*
X138957D01*
Y197379D01*
X139047D01*
Y197289D01*
X139136D01*
Y197200D01*
X139225D01*
Y197111D01*
X139314D01*
Y197021D01*
Y196932D01*
X139404D01*
Y196843D01*
X139493D01*
Y196754D01*
Y196664D01*
X139582D01*
Y196575D01*
Y196486D01*
X139672D01*
Y196396D01*
Y196307D01*
X139761D01*
Y196218D01*
X139850D01*
Y196128D01*
X139939D01*
Y196039D01*
Y195950D01*
Y195861D01*
X140029D01*
Y195771D01*
X140118D01*
Y195682D01*
Y195593D01*
Y195503D01*
X140207D01*
Y195414D01*
X140296D01*
Y195325D01*
Y195236D01*
Y195146D01*
X140386D01*
Y195057D01*
X140475D01*
Y194968D01*
Y194878D01*
X140564D01*
Y194789D01*
X140654D01*
Y194700D01*
Y194611D01*
Y194521D01*
X140743D01*
Y194432D01*
Y194343D01*
X140832D01*
Y194253D01*
Y194164D01*
X140921D01*
Y194075D01*
Y193986D01*
X141100D01*
Y193896D01*
X141011D01*
Y193807D01*
X141100D01*
Y193718D01*
X141189D01*
Y193628D01*
Y193539D01*
X141279D01*
Y193450D01*
Y193361D01*
X141368D01*
Y193271D01*
Y193182D01*
X141457D01*
Y193093D01*
X141546D01*
Y193003D01*
Y192914D01*
X141636D01*
Y192825D01*
Y192736D01*
Y192646D01*
X141725D01*
Y192557D01*
X141814D01*
Y192468D01*
Y192378D01*
X141904D01*
Y192289D01*
Y192200D01*
X141993D01*
Y192111D01*
Y192021D01*
X142082D01*
Y191932D01*
Y191843D01*
X142172D01*
Y191753D01*
X142261D01*
Y191664D01*
Y191575D01*
Y191486D01*
X142439D01*
Y191396D01*
Y191307D01*
Y191218D01*
X142529D01*
Y191128D01*
Y191039D01*
X142618D01*
Y190950D01*
Y190860D01*
X142707D01*
Y190771D01*
Y190682D01*
X142797D01*
Y190593D01*
Y190503D01*
X142886D01*
Y190414D01*
Y190325D01*
X142975D01*
Y190235D01*
Y190146D01*
X143064D01*
Y190057D01*
X143154D01*
Y189968D01*
Y189878D01*
X143243D01*
Y189789D01*
Y189700D01*
X143332D01*
Y189611D01*
X143422D01*
Y189521D01*
X143332D01*
Y189432D01*
X143422D01*
Y189343D01*
X143511D01*
Y189253D01*
Y189164D01*
X143600D01*
Y189075D01*
Y188986D01*
X143689D01*
Y188896D01*
X143779D01*
Y188807D01*
Y188718D01*
X143868D01*
Y188628D01*
Y188539D01*
X143957D01*
Y188450D01*
Y188361D01*
X144047D01*
Y188271D01*
Y188182D01*
X144136D01*
Y188093D01*
X144314D01*
Y188182D01*
Y188271D01*
X144404D01*
Y188361D01*
Y188450D01*
X144493D01*
Y188539D01*
Y188628D01*
Y188718D01*
X144582D01*
Y188807D01*
Y188896D01*
X144672D01*
Y188986D01*
Y189075D01*
X144761D01*
Y189164D01*
Y189253D01*
X144850D01*
Y189343D01*
Y189432D01*
X144939D01*
Y189521D01*
Y189611D01*
X145029D01*
Y189700D01*
Y189789D01*
Y189878D01*
X145118D01*
Y189968D01*
X145207D01*
Y190057D01*
X145297D01*
Y190146D01*
Y190235D01*
Y190325D01*
X145386D01*
Y190414D01*
Y190503D01*
Y190593D01*
Y190682D01*
Y190771D01*
X145207D01*
Y190860D01*
Y190950D01*
X145118D01*
Y191039D01*
Y191128D01*
Y191218D01*
X145029D01*
Y191307D01*
X144939D01*
Y191396D01*
Y191486D01*
Y191575D01*
X144850D01*
Y191664D01*
Y191753D01*
X144761D01*
Y191843D01*
Y191932D01*
X144672D01*
Y192021D01*
Y192111D01*
Y192200D01*
X144493D01*
Y192289D01*
Y192378D01*
Y192468D01*
X144314D01*
Y192557D01*
Y192646D01*
Y192736D01*
X144225D01*
Y192825D01*
Y192914D01*
X144136D01*
Y193003D01*
Y193093D01*
X144047D01*
Y193182D01*
Y193271D01*
X143957D01*
Y193361D01*
X143868D01*
Y193450D01*
Y193539D01*
Y193628D01*
X143779D01*
Y193718D01*
X143689D01*
Y193807D01*
Y193896D01*
X143600D01*
Y193986D01*
Y194075D01*
X143511D01*
Y194164D01*
Y194253D01*
Y194343D01*
X143422D01*
Y194432D01*
X143332D01*
Y194521D01*
Y194611D01*
X143243D01*
Y194700D01*
Y194789D01*
X143154D01*
Y194878D01*
Y194968D01*
X143064D01*
Y195057D01*
X142975D01*
Y195146D01*
X142886D01*
Y195236D01*
Y195325D01*
Y195414D01*
Y195503D01*
X142707D01*
Y195593D01*
Y195682D01*
Y195771D01*
X142618D01*
Y195861D01*
X142529D01*
Y195950D01*
Y196039D01*
Y196128D01*
X142439D01*
Y196218D01*
Y196307D01*
X142350D01*
Y196396D01*
X142261D01*
Y196486D01*
Y196575D01*
X142172D01*
Y196664D01*
X142082D01*
Y196754D01*
Y196843D01*
Y196932D01*
X141993D01*
Y197021D01*
Y197111D01*
X141904D01*
Y197200D01*
Y197289D01*
X141814D01*
Y197379D01*
Y197468D01*
X141725D01*
Y197557D01*
X141636D01*
Y197646D01*
Y197736D01*
X141546D01*
Y197825D01*
Y197914D01*
Y198003D01*
X141457D01*
Y198093D01*
X141368D01*
Y198182D01*
Y198271D01*
X141279D01*
Y198361D01*
Y198450D01*
X141189D01*
Y198539D01*
Y198628D01*
X141100D01*
Y198718D01*
X141011D01*
Y198807D01*
Y198896D01*
X140921D01*
Y198986D01*
Y199075D01*
Y199164D01*
X140832D01*
Y199253D01*
X140921D01*
Y199343D01*
Y199432D01*
Y199521D01*
X141100D01*
Y199611D01*
X141279D01*
Y199700D01*
X143154D01*
Y199611D01*
X143868D01*
Y199521D01*
X144047D01*
Y199432D01*
X144493D01*
Y199343D01*
X144850D01*
Y199253D01*
X145118D01*
Y199164D01*
X145207D01*
Y199075D01*
X145475D01*
Y198986D01*
X145743D01*
Y198896D01*
X145832D01*
Y198807D01*
X146011D01*
Y198718D01*
X146100D01*
Y198628D01*
X146368D01*
Y198539D01*
X146457D01*
Y198450D01*
X146636D01*
Y198361D01*
X146725D01*
Y198271D01*
X146904D01*
Y198182D01*
X146993D01*
Y198093D01*
X147082D01*
Y198003D01*
X147172D01*
Y197914D01*
X147261D01*
Y197825D01*
X147440D01*
Y197736D01*
X147529D01*
Y197646D01*
X147618D01*
Y197557D01*
X147707D01*
Y197468D01*
X147797D01*
Y197379D01*
X147886D01*
Y197289D01*
X147975D01*
Y197200D01*
X148064D01*
Y197111D01*
Y197021D01*
X148243D01*
Y196932D01*
Y196843D01*
X148332D01*
Y196754D01*
X148422D01*
Y196664D01*
Y196575D01*
X148511D01*
Y196486D01*
Y196396D01*
X148600D01*
Y196307D01*
Y196218D01*
Y196128D01*
X148689D01*
Y196039D01*
X148779D01*
Y195950D01*
Y195861D01*
Y195771D01*
X148957D01*
Y195682D01*
Y195593D01*
X149047D01*
Y195503D01*
Y195414D01*
Y195325D01*
X149225D01*
Y195236D01*
Y195146D01*
Y195057D01*
Y194968D01*
X149314D01*
Y194878D01*
X149404D01*
Y194789D01*
Y194700D01*
X149493D01*
Y194611D01*
Y194521D01*
X149582D01*
Y194432D01*
Y194343D01*
X149672D01*
Y194253D01*
Y194164D01*
X149761D01*
Y194075D01*
X149850D01*
Y193986D01*
X149940D01*
Y193896D01*
Y193807D01*
Y193718D01*
X150029D01*
Y193628D01*
X150118D01*
Y193539D01*
Y193450D01*
X150207D01*
Y193361D01*
Y193271D01*
X150297D01*
Y193182D01*
Y193093D01*
X150386D01*
Y193003D01*
Y192914D01*
X150475D01*
Y192825D01*
Y192736D01*
X150565D01*
Y192646D01*
Y192557D01*
Y192468D01*
X150654D01*
Y192378D01*
X150743D01*
Y192289D01*
Y192200D01*
Y192111D01*
X150922D01*
Y192021D01*
Y191932D01*
Y191843D01*
X151011D01*
Y191753D01*
X151100D01*
Y191664D01*
Y191575D01*
X151189D01*
Y191486D01*
Y191396D01*
X151279D01*
Y191307D01*
Y191218D01*
X151368D01*
Y191128D01*
Y191039D01*
X151457D01*
Y190950D01*
Y190860D01*
X151547D01*
Y190771D01*
Y190682D01*
X151636D01*
Y190593D01*
Y190503D01*
X151725D01*
Y190414D01*
Y190325D01*
Y190235D01*
X151904D01*
Y190146D01*
Y190057D01*
Y189968D01*
X151993D01*
Y189878D01*
X152082D01*
Y189789D01*
Y189700D01*
X152172D01*
Y189611D01*
Y189521D01*
Y189432D01*
X152350D01*
Y189343D01*
Y189253D01*
X152439D01*
Y189164D01*
Y189075D01*
X152618D01*
Y189164D01*
Y189253D01*
X152707D01*
Y189343D01*
X152797D01*
Y189432D01*
Y189521D01*
X152886D01*
Y189611D01*
Y189700D01*
X152975D01*
Y189789D01*
Y189878D01*
X153065D01*
Y189968D01*
Y190057D01*
Y190146D01*
X153243D01*
Y190235D01*
Y190325D01*
Y190414D01*
X153422D01*
Y190503D01*
Y190593D01*
Y190682D01*
Y190771D01*
X153511D01*
Y190860D01*
X153600D01*
Y190950D01*
Y191039D01*
X153690D01*
Y191128D01*
Y191218D01*
X153779D01*
Y191307D01*
Y191396D01*
X153868D01*
Y191486D01*
Y191575D01*
Y191664D01*
X153957D01*
Y191753D01*
Y191843D01*
X154136D01*
Y191932D01*
Y192021D01*
Y192111D01*
X154225D01*
Y192200D01*
X154315D01*
Y192289D01*
Y192378D01*
Y192468D01*
X154404D01*
Y192557D01*
X154493D01*
Y192646D01*
Y192736D01*
X154582D01*
Y192825D01*
Y192914D01*
Y193003D01*
X154761D01*
Y193093D01*
Y193182D01*
Y193271D01*
X154850D01*
Y193361D01*
X154940D01*
Y193450D01*
Y193539D01*
Y193628D01*
X155029D01*
Y193718D01*
Y193807D01*
X155207D01*
Y193896D01*
X155118D01*
Y193986D01*
X155207D01*
Y194075D01*
X155297D01*
Y194164D01*
X155386D01*
Y194253D01*
Y194343D01*
Y194432D01*
Y194521D01*
X155565D01*
Y194611D01*
Y194700D01*
Y194789D01*
X155654D01*
Y194878D01*
Y194968D01*
X155743D01*
Y195057D01*
Y195146D01*
X155832D01*
Y195236D01*
X155922D01*
Y195325D01*
Y195414D01*
X156011D01*
Y195503D01*
Y195593D01*
X156100D01*
Y195682D01*
Y195771D01*
X156190D01*
Y195861D01*
Y195950D01*
X156279D01*
Y196039D01*
Y196128D01*
X156368D01*
Y196218D01*
Y196307D01*
X156457D01*
Y196396D01*
X156547D01*
Y196486D01*
Y196575D01*
Y196664D01*
X156725D01*
Y196754D01*
Y196843D01*
Y196932D01*
Y197021D01*
Y197111D01*
X156904D01*
Y197200D01*
Y197289D01*
X156993D01*
Y197379D01*
Y197468D01*
X157082D01*
Y197557D01*
Y197646D01*
Y197736D01*
X157261D01*
Y197825D01*
Y197914D01*
Y198003D01*
X157350D01*
Y198093D01*
X157440D01*
Y198182D01*
Y198271D01*
Y198361D01*
X157529D01*
Y198450D01*
X157618D01*
Y198539D01*
Y198628D01*
X157708D01*
Y198718D01*
Y198807D01*
Y198896D01*
X157886D01*
Y198986D01*
Y199075D01*
X157797D01*
Y199164D01*
X157975D01*
Y199253D01*
X158065D01*
Y199343D01*
Y199432D01*
Y199521D01*
X158243D01*
Y199611D01*
X158511D01*
Y199700D01*
X163332D01*
Y199611D01*
X163600D01*
Y199521D01*
X163690D01*
Y199432D01*
X163958D01*
Y199343D01*
X164047D01*
Y199253D01*
X164136D01*
Y199164D01*
X164225D01*
Y199075D01*
X164315D01*
Y198986D01*
X164404D01*
Y198896D01*
Y198807D01*
Y198718D01*
X164493D01*
Y198628D01*
X164583D01*
Y198539D01*
Y198450D01*
Y198361D01*
X164672D01*
Y198271D01*
X164761D01*
Y198182D01*
Y198093D01*
X164850D01*
Y198003D01*
X164940D01*
Y197914D01*
Y197825D01*
X165029D01*
Y197736D01*
Y197646D01*
X165118D01*
Y197557D01*
Y197468D01*
Y197379D01*
X165208D01*
Y197289D01*
X165297D01*
Y197200D01*
Y197111D01*
Y197021D01*
X165386D01*
Y196932D01*
X165654D01*
Y197021D01*
X165743D01*
Y197111D01*
Y197200D01*
X165833D01*
Y197289D01*
Y197379D01*
X165922D01*
Y197468D01*
X166011D01*
Y197557D01*
Y197646D01*
Y197736D01*
X166100D01*
Y197825D01*
X166190D01*
Y197914D01*
Y198003D01*
Y198093D01*
X166368D01*
Y198182D01*
Y198271D01*
Y198361D01*
X166458D01*
Y198450D01*
X166547D01*
Y198539D01*
Y198628D01*
Y198718D01*
X166636D01*
Y198807D01*
Y198896D01*
X166815D01*
Y198986D01*
Y199075D01*
Y199164D01*
Y199253D01*
X166993D01*
Y199343D01*
Y199432D01*
X167083D01*
Y199521D01*
X167172D01*
Y199611D01*
X167440D01*
Y199700D01*
X171904D01*
Y199611D01*
D02*
G37*
G36*
X184851Y197289D02*
Y197200D01*
Y197111D01*
Y197021D01*
Y196932D01*
Y196843D01*
Y196754D01*
Y196664D01*
Y196575D01*
Y196486D01*
Y196396D01*
Y196307D01*
Y196218D01*
Y196128D01*
Y196039D01*
Y195950D01*
Y195861D01*
Y195771D01*
Y195682D01*
Y195593D01*
Y195503D01*
Y195414D01*
Y195325D01*
Y195236D01*
Y195146D01*
Y195057D01*
Y194968D01*
X184761D01*
Y195057D01*
X182440D01*
Y195146D01*
Y195236D01*
X182351D01*
Y195325D01*
Y195414D01*
Y195503D01*
Y195593D01*
Y195682D01*
Y195771D01*
Y195861D01*
Y195950D01*
Y196039D01*
Y196128D01*
Y196218D01*
Y196307D01*
Y196396D01*
Y196486D01*
Y196575D01*
Y196664D01*
Y196754D01*
Y196843D01*
Y196932D01*
Y197021D01*
Y197111D01*
X182440D01*
Y197200D01*
Y197289D01*
Y197379D01*
X184851D01*
Y197289D01*
D02*
G37*
G36*
X177529Y197021D02*
Y196932D01*
Y196843D01*
Y196754D01*
Y196664D01*
Y196575D01*
Y196486D01*
Y196396D01*
Y196307D01*
Y196218D01*
Y196128D01*
Y196039D01*
Y195950D01*
Y195861D01*
Y195771D01*
Y195682D01*
Y195593D01*
Y195503D01*
Y195414D01*
Y195325D01*
Y195236D01*
Y195146D01*
Y195057D01*
Y194968D01*
Y194878D01*
Y194789D01*
Y194700D01*
X175118D01*
Y194789D01*
Y194878D01*
Y194968D01*
Y195057D01*
Y195146D01*
Y195236D01*
Y195325D01*
Y195414D01*
Y195503D01*
Y195593D01*
Y195682D01*
Y195771D01*
Y195861D01*
Y195950D01*
Y196039D01*
Y196128D01*
Y196218D01*
Y196307D01*
Y196396D01*
Y196486D01*
Y196575D01*
Y196664D01*
Y196754D01*
Y196843D01*
Y196932D01*
Y197021D01*
Y197111D01*
X177529D01*
Y197021D01*
D02*
G37*
G36*
X181011Y194878D02*
Y194789D01*
Y194700D01*
Y194611D01*
Y194521D01*
Y194432D01*
Y194343D01*
Y194253D01*
Y194164D01*
Y194075D01*
Y193986D01*
Y193896D01*
Y193807D01*
Y193718D01*
Y193628D01*
Y193539D01*
Y193450D01*
Y193361D01*
Y193271D01*
Y193182D01*
Y193093D01*
Y193003D01*
Y192914D01*
Y192825D01*
Y192736D01*
Y192646D01*
Y192557D01*
X180744D01*
Y192468D01*
X180654D01*
Y192557D01*
X180208D01*
Y192468D01*
X180119D01*
Y192557D01*
X179851D01*
Y192468D01*
X179761D01*
Y192557D01*
X179047D01*
Y192468D01*
X178958D01*
Y192557D01*
X178690D01*
Y192468D01*
X178601D01*
Y192557D01*
Y192646D01*
Y192736D01*
Y192825D01*
Y192914D01*
Y193003D01*
Y193093D01*
Y193182D01*
Y193271D01*
Y193361D01*
Y193450D01*
Y193539D01*
Y193628D01*
Y193718D01*
Y193807D01*
Y193896D01*
Y193986D01*
Y194075D01*
Y194164D01*
Y194253D01*
Y194343D01*
Y194432D01*
Y194521D01*
Y194611D01*
Y194700D01*
Y194789D01*
Y194878D01*
Y194968D01*
X181011D01*
Y194878D01*
D02*
G37*
D10*
X25871Y26181D02*
G03*
X25871Y26181I-1895J0D01*
G01*
X200079Y164784D02*
G03*
X200079Y164784I-1043J0D01*
G01*
X33354Y2126D02*
Y20433D01*
Y2126D02*
X142020D01*
Y70236D01*
X33354D02*
X142020D01*
X33354Y51929D02*
Y70236D01*
X123031Y192854D02*
X123031Y91102D01*
X15827Y192854D02*
X123031D01*
X15827Y85650D02*
Y192854D01*
Y85650D02*
X117579D01*
X123031Y91102D01*
D11*
X23496Y64614D02*
G03*
X23496Y64614I-500J0D01*
G01*
D12*
X192165Y111221D02*
G03*
X192165Y111221I-492J0D01*
G01*
D13*
X137323Y101516D02*
G03*
X137323Y101516I-492J0D01*
G01*
D14*
X139173Y128917D02*
Y132638D01*
X144862Y128917D02*
Y132638D01*
X139173D02*
X144862D01*
X139173Y128917D02*
X144862D01*
X119724Y78445D02*
X125413D01*
X119724Y74724D02*
X125413D01*
X119724D02*
Y78445D01*
X125413Y74724D02*
Y78445D01*
X16594Y28996D02*
X20315D01*
X16594Y34685D02*
X20315D01*
X16594Y28996D02*
Y34685D01*
X20315Y28996D02*
Y34685D01*
D15*
X131437Y79547D02*
Y87421D01*
X139311Y79547D02*
Y87421D01*
X1138Y-445D02*
Y6248D01*
Y-445D02*
X18461D01*
Y6248D01*
X1138D02*
X18461D01*
X177382Y173976D02*
Y180669D01*
Y173976D02*
X191161D01*
Y180669D01*
X177382D02*
X191161D01*
X191240Y166024D02*
Y172716D01*
X177461D02*
X191240D01*
X177461Y166024D02*
Y172716D01*
Y166024D02*
X191240D01*
X176594Y165965D02*
Y172658D01*
X162815D02*
X176594D01*
X162815Y165965D02*
Y172658D01*
Y165965D02*
X176594D01*
X162795Y158327D02*
Y165020D01*
Y158327D02*
X176575D01*
Y165020D01*
X162795D02*
X176575D01*
X162874Y150728D02*
Y157421D01*
Y150728D02*
X176654D01*
Y157421D01*
X162874D02*
X176654D01*
X138681Y179469D02*
X152461D01*
Y172776D02*
Y179469D01*
X138681Y172776D02*
X152461D01*
X138681D02*
Y179469D01*
X138721Y165236D02*
X152500D01*
X138721D02*
Y171929D01*
X152500D01*
Y165236D02*
Y171929D01*
X138642Y157697D02*
X152421D01*
X138642D02*
Y164390D01*
X152421D01*
Y157697D02*
Y164390D01*
X138779Y147579D02*
Y151870D01*
Y147579D02*
X146201D01*
Y151870D01*
X138779D02*
X146201D01*
X146102Y146732D02*
X153524D01*
Y142441D02*
Y146732D01*
X146102Y142441D02*
X153524D01*
X146102D02*
Y146732D01*
X138760Y141555D02*
X146181D01*
Y137264D02*
Y141555D01*
X138760Y137264D02*
X146181D01*
X138760D02*
Y141555D01*
X147067Y119823D02*
Y121791D01*
X141555Y115098D02*
X144705D01*
X141555D02*
Y117953D01*
Y126516D02*
X144705D01*
X141555Y123661D02*
Y126516D01*
Y111063D02*
Y113917D01*
X144705D01*
X141555Y102500D02*
Y105354D01*
Y102500D02*
X144705D01*
X147067Y107224D02*
Y109193D01*
X6358Y20118D02*
Y27992D01*
X14232Y20118D02*
Y27992D01*
X194232Y113287D02*
X224153D01*
X194232Y95177D02*
X224153D01*
X194232Y110630D02*
Y113287D01*
X224153Y110630D02*
Y113287D01*
X194232Y95177D02*
Y97835D01*
X224153Y95177D02*
Y97835D01*
X194232D02*
X196398D01*
Y95177D02*
Y97835D01*
Y110630D02*
Y113287D01*
X194232Y110630D02*
X196398D01*
X176516Y173996D02*
Y180689D01*
X162736D02*
X176516D01*
X162736Y173996D02*
Y180689D01*
Y173996D02*
X176516D01*
X180591Y218406D02*
Y219587D01*
Y214862D02*
Y215650D01*
X178622Y218406D02*
X182165D01*
X178622D02*
X180591Y215650D01*
X182165Y218406D01*
X178622Y215650D02*
X182559D01*
X187677Y202264D02*
Y231398D01*
X186398D02*
X187677D01*
X182559Y202264D02*
X187677D01*
X173504Y231398D02*
X174784D01*
X182559Y202264D02*
Y202854D01*
X187677D01*
X173504D02*
X178622D01*
Y202264D02*
Y202854D01*
X173504Y202264D02*
Y231398D01*
Y202264D02*
X178622D01*
X236221Y190925D02*
Y236221D01*
X0D02*
X236221D01*
Y158150D02*
Y190925D01*
X151358Y20D02*
Y93189D01*
X44587Y20D02*
X151358D01*
Y93189D02*
X236221D01*
X0Y0D02*
X44488D01*
X0Y181791D02*
X0Y0D01*
X236221Y93189D02*
Y158150D01*
X0Y181791D02*
Y236221D01*
X236201Y20D02*
X236201Y20D01*
D16*
X137303Y147697D02*
Y151752D01*
X144626Y142559D02*
Y146614D01*
X137284Y137382D02*
Y141437D01*
D17*
X12901Y38790D02*
X18396D01*
X496D02*
Y73690D01*
Y38790D02*
X5091D01*
X18396D02*
Y73690D01*
X12901D02*
X18396D01*
X496D02*
X5091D01*
D18*
X165650Y130059D02*
Y139223D01*
X155020Y130059D02*
Y132815D01*
Y130059D02*
X176279D01*
Y132815D01*
Y136752D02*
Y139508D01*
X155020D02*
X176279D01*
X155020Y136752D02*
Y139508D01*
D19*
X183425Y162126D02*
X230669D01*
X183425Y114882D02*
X230669D01*
D20*
X232677Y189488D02*
Y198484D01*
X192677Y189488D02*
X232677D01*
X192677D02*
Y198484D01*
D21*
X146266Y132287D02*
Y129138D01*
X147840D01*
X148365Y129663D01*
Y131762D01*
X147840Y132287D01*
X146266D01*
X150989Y129138D02*
Y132287D01*
X149415Y130713D01*
X151514D01*
X142886Y84534D02*
X142361Y85059D01*
X141312D01*
X140787Y84534D01*
Y84009D01*
X141312Y83484D01*
X142361D01*
X142886Y82960D01*
Y82435D01*
X142361Y81910D01*
X141312D01*
X140787Y82435D01*
X143935Y81910D02*
X144985D01*
X144460D01*
Y85059D01*
X143935Y84534D01*
X186057Y192681D02*
Y190057D01*
X186582Y189532D01*
X187632D01*
X188156Y190057D01*
Y192681D01*
X189206Y192156D02*
X189731Y192681D01*
X190780D01*
X191305Y192156D01*
Y191631D01*
X190780Y191106D01*
X190255D01*
X190780D01*
X191305Y190582D01*
Y190057D01*
X190780Y189532D01*
X189731D01*
X189206Y190057D01*
X15877Y198185D02*
Y195561D01*
X16402Y195036D01*
X17452D01*
X17976Y195561D01*
Y198185D01*
X19026Y195036D02*
X20075D01*
X19551D01*
Y198185D01*
X19026Y197660D01*
X166616Y143700D02*
X168715D01*
X167666D01*
Y140552D01*
X169764D02*
Y143700D01*
X171339D01*
X171864Y143175D01*
Y142126D01*
X171339Y141601D01*
X169764D01*
X172913Y140552D02*
X173963D01*
X173438D01*
Y143700D01*
X172913Y143175D01*
X175537D02*
X176062Y143700D01*
X177111D01*
X177636Y143175D01*
Y142651D01*
X177111Y142126D01*
X176586D01*
X177111D01*
X177636Y141601D01*
Y141077D01*
X177111Y140552D01*
X176062D01*
X175537Y141077D01*
X156431Y149661D02*
X158530D01*
X157480D01*
Y146512D01*
X159580D02*
Y149661D01*
X161154D01*
X161679Y149136D01*
Y148087D01*
X161154Y147562D01*
X159580D01*
X162728Y146512D02*
X163778D01*
X163253D01*
Y149661D01*
X162728Y149136D01*
X167451Y146512D02*
X165352D01*
X167451Y148611D01*
Y149136D01*
X166926Y149661D01*
X165877D01*
X165352Y149136D01*
X150212Y156492D02*
X152311D01*
X151261D01*
Y153343D01*
X153360D02*
Y156492D01*
X154935D01*
X155459Y155967D01*
Y154917D01*
X154935Y154393D01*
X153360D01*
X156509Y153343D02*
X157558D01*
X157034D01*
Y156492D01*
X156509Y155967D01*
X159133Y153343D02*
X160182D01*
X159657D01*
Y156492D01*
X159133Y155967D01*
X165683Y110551D02*
X167782D01*
X166732D01*
Y107402D01*
X168832D02*
Y110551D01*
X170406D01*
X170931Y110026D01*
Y108976D01*
X170406Y108452D01*
X168832D01*
X171980Y107402D02*
X173030D01*
X172505D01*
Y110551D01*
X171980Y110026D01*
X174604D02*
X175129Y110551D01*
X176178D01*
X176703Y110026D01*
Y107927D01*
X176178Y107402D01*
X175129D01*
X174604Y107927D01*
Y110026D01*
X1371Y168007D02*
Y170106D01*
Y169056D01*
X4519D01*
Y171155D02*
X1371D01*
Y172730D01*
X1895Y173254D01*
X2945D01*
X3470Y172730D01*
Y171155D01*
X3994Y174304D02*
X4519Y174829D01*
Y175878D01*
X3994Y176403D01*
X1895D01*
X1371Y175878D01*
Y174829D01*
X1895Y174304D01*
X2420D01*
X2945Y174829D01*
Y176403D01*
X1284Y111542D02*
Y113641D01*
Y112592D01*
X4433D01*
Y114691D02*
X1284D01*
Y116265D01*
X1809Y116790D01*
X2858D01*
X3383Y116265D01*
Y114691D01*
X1809Y117839D02*
X1284Y118364D01*
Y119413D01*
X1809Y119938D01*
X2334D01*
X2858Y119413D01*
X3383Y119938D01*
X3908D01*
X4433Y119413D01*
Y118364D01*
X3908Y117839D01*
X3383D01*
X2858Y118364D01*
X2334Y117839D01*
X1809D01*
X2858Y118364D02*
Y119413D01*
X1367Y86377D02*
Y88476D01*
Y87426D01*
X4515D01*
Y89525D02*
X1367D01*
Y91100D01*
X1891Y91624D01*
X2941D01*
X3466Y91100D01*
Y89525D01*
X1367Y92674D02*
Y94773D01*
X1891D01*
X3990Y92674D01*
X4515D01*
X1473Y101668D02*
Y103767D01*
Y102718D01*
X4622D01*
Y104817D02*
X1473D01*
Y106391D01*
X1998Y106916D01*
X3047D01*
X3572Y106391D01*
Y104817D01*
X1473Y110064D02*
X1998Y109015D01*
X3047Y107965D01*
X4097D01*
X4622Y108490D01*
Y109539D01*
X4097Y110064D01*
X3572D01*
X3047Y109539D01*
Y107965D01*
X134355Y155885D02*
Y157984D01*
Y156934D01*
X137503D01*
Y159033D02*
X134355D01*
Y160607D01*
X134880Y161132D01*
X135929D01*
X136454Y160607D01*
Y159033D01*
X134355Y164281D02*
Y162182D01*
X135929D01*
X135404Y163231D01*
Y163756D01*
X135929Y164281D01*
X136979D01*
X137503Y163756D01*
Y162706D01*
X136979Y162182D01*
X1461Y179074D02*
Y181173D01*
Y180123D01*
X4610D01*
Y182222D02*
X1461D01*
Y183796D01*
X1986Y184321D01*
X3035D01*
X3560Y183796D01*
Y182222D01*
X4610Y186945D02*
X1461D01*
X3035Y185371D01*
Y187470D01*
X134776Y122495D02*
Y124594D01*
Y123544D01*
X137925D01*
Y125643D02*
X134776D01*
Y127218D01*
X135301Y127742D01*
X136350D01*
X136875Y127218D01*
Y125643D01*
X135301Y128792D02*
X134776Y129317D01*
Y130366D01*
X135301Y130891D01*
X135826D01*
X136350Y130366D01*
Y129841D01*
Y130366D01*
X136875Y130891D01*
X137400D01*
X137925Y130366D01*
Y129317D01*
X137400Y128792D01*
X1371Y148066D02*
Y150165D01*
Y149115D01*
X4519D01*
Y151214D02*
X1371D01*
Y152789D01*
X1895Y153313D01*
X2945D01*
X3470Y152789D01*
Y151214D01*
X4519Y156462D02*
Y154363D01*
X2420Y156462D01*
X1895D01*
X1371Y155937D01*
Y154888D01*
X1895Y154363D01*
X138075Y96433D02*
X140174D01*
X139124D01*
Y93284D01*
X141223D02*
Y96433D01*
X142798D01*
X143322Y95908D01*
Y94858D01*
X142798Y94333D01*
X141223D01*
X144372Y93284D02*
X145421D01*
X144897D01*
Y96433D01*
X144372Y95908D01*
X7296Y79711D02*
X6771Y80236D01*
X5722D01*
X5197Y79711D01*
Y79186D01*
X5722Y78661D01*
X6771D01*
X7296Y78137D01*
Y77612D01*
X6771Y77087D01*
X5722D01*
X5197Y77612D01*
X8345Y80236D02*
Y77087D01*
X9395Y78137D01*
X10444Y77087D01*
Y80236D01*
X11494Y77087D02*
X12543D01*
X12019D01*
Y80236D01*
X11494Y79711D01*
X17503Y20183D02*
X16978Y20708D01*
X15928D01*
X15404Y20183D01*
Y19659D01*
X15928Y19134D01*
X16978D01*
X17503Y18609D01*
Y18084D01*
X16978Y17560D01*
X15928D01*
X15404Y18084D01*
X20651Y17560D02*
X18552D01*
X20651Y19659D01*
Y20183D01*
X20127Y20708D01*
X19077D01*
X18552Y20183D01*
X195716Y164966D02*
X192567D01*
Y166540D01*
X193092Y167065D01*
X194142D01*
X194667Y166540D01*
Y164966D01*
Y166015D02*
X195716Y167065D01*
Y168114D02*
Y169164D01*
Y168639D01*
X192567D01*
X193092Y168114D01*
Y170738D02*
X192567Y171263D01*
Y172313D01*
X193092Y172837D01*
X193617D01*
X194142Y172313D01*
X194667Y172837D01*
X195191D01*
X195716Y172313D01*
Y171263D01*
X195191Y170738D01*
X194667D01*
X194142Y171263D01*
X193617Y170738D01*
X193092D01*
X194142Y171263D02*
Y172313D01*
X181000Y157076D02*
X177851D01*
Y158650D01*
X178376Y159175D01*
X179425D01*
X179950Y158650D01*
Y157076D01*
Y158126D02*
X181000Y159175D01*
Y160225D02*
Y161274D01*
Y160749D01*
X177851D01*
X178376Y160225D01*
X177851Y162848D02*
Y164948D01*
X178376D01*
X180475Y162848D01*
X181000D01*
X153962Y169504D02*
Y172653D01*
X155536D01*
X156061Y172128D01*
Y171079D01*
X155536Y170554D01*
X153962D01*
X155011D02*
X156061Y169504D01*
X157111D02*
X158160D01*
X157635D01*
Y172653D01*
X157111Y172128D01*
X161833Y172653D02*
X160784Y172128D01*
X159734Y171079D01*
Y170029D01*
X160259Y169504D01*
X161309D01*
X161833Y170029D01*
Y170554D01*
X161309Y171079D01*
X159734D01*
X153393Y119498D02*
Y121597D01*
X152868Y122122D01*
X151818D01*
X151294Y121597D01*
Y119498D01*
X151818Y118973D01*
X152868D01*
X152343Y120022D02*
X153393Y118973D01*
X152868D02*
X153393Y119498D01*
X154442Y121597D02*
X154967Y122122D01*
X156016D01*
X156541Y121597D01*
Y121072D01*
X156016Y120547D01*
X155492D01*
X156016D01*
X156541Y120022D01*
Y119498D01*
X156016Y118973D01*
X154967D01*
X154442Y119498D01*
X153610Y107077D02*
Y109176D01*
X153085Y109700D01*
X152036D01*
X151511Y109176D01*
Y107077D01*
X152036Y106552D01*
X153085D01*
X152561Y107601D02*
X153610Y106552D01*
X153085D02*
X153610Y107077D01*
X154660Y106552D02*
X155709D01*
X155184D01*
Y109700D01*
X154660Y109176D01*
X176590Y118692D02*
Y115544D01*
X178689D01*
X179738D02*
X180788D01*
X180263D01*
Y118692D01*
X179738Y118168D01*
X26708Y5196D02*
X25658D01*
X26183D01*
Y2572D01*
X25658Y2048D01*
X25133D01*
X24609Y2572D01*
X27757Y4672D02*
X28282Y5196D01*
X29331D01*
X29856Y4672D01*
Y4147D01*
X29331Y3622D01*
X28807D01*
X29331D01*
X29856Y3097D01*
Y2572D01*
X29331Y2048D01*
X28282D01*
X27757Y2572D01*
X157614Y128700D02*
X155515D01*
Y127126D01*
X156564D01*
X155515D01*
Y125552D01*
X158663Y128700D02*
Y125552D01*
X160237D01*
X160762Y126076D01*
Y126601D01*
X160237Y127126D01*
X158663D01*
X160237D01*
X160762Y127651D01*
Y128175D01*
X160237Y128700D01*
X158663D01*
X163911Y125552D02*
X161812D01*
X163911Y127651D01*
Y128175D01*
X163386Y128700D01*
X162336D01*
X161812Y128175D01*
X165231Y206440D02*
Y203292D01*
X166805D01*
X167330Y203817D01*
Y205916D01*
X166805Y206440D01*
X165231D01*
X168379Y203292D02*
X169429D01*
X168904D01*
Y206440D01*
X168379Y205916D01*
X171003Y203292D02*
X172053D01*
X171528D01*
Y206440D01*
X171003Y205916D01*
X169757Y149728D02*
Y146579D01*
X171332D01*
X171856Y147104D01*
Y149203D01*
X171332Y149728D01*
X169757D01*
X172906Y146579D02*
X173955D01*
X173431D01*
Y149728D01*
X172906Y149203D01*
X175530D02*
X176054Y149728D01*
X177104D01*
X177629Y149203D01*
Y147104D01*
X177104Y146579D01*
X176054D01*
X175530Y147104D01*
Y149203D01*
X137372Y146208D02*
Y143060D01*
X138946D01*
X139471Y143584D01*
Y145683D01*
X138946Y146208D01*
X137372D01*
X140521Y143584D02*
X141046Y143060D01*
X142095D01*
X142620Y143584D01*
Y145683D01*
X142095Y146208D01*
X141046D01*
X140521Y145683D01*
Y145159D01*
X141046Y144634D01*
X142620D01*
X154522Y145645D02*
Y142497D01*
X156096D01*
X156621Y143021D01*
Y145120D01*
X156096Y145645D01*
X154522D01*
X157670Y145120D02*
X158195Y145645D01*
X159245D01*
X159769Y145120D01*
Y144596D01*
X159245Y144071D01*
X159769Y143546D01*
Y143021D01*
X159245Y142497D01*
X158195D01*
X157670Y143021D01*
Y143546D01*
X158195Y144071D01*
X157670Y144596D01*
Y145120D01*
X158195Y144071D02*
X159245D01*
X147093Y141007D02*
Y137859D01*
X148667D01*
X149192Y138383D01*
Y140483D01*
X148667Y141007D01*
X147093D01*
X150241D02*
X152340D01*
Y140483D01*
X150241Y138383D01*
Y137859D01*
X21419Y33893D02*
Y30745D01*
X22994D01*
X23518Y31269D01*
Y33368D01*
X22994Y33893D01*
X21419D01*
X26667D02*
X25618Y33368D01*
X24568Y32319D01*
Y31269D01*
X25093Y30745D01*
X26142D01*
X26667Y31269D01*
Y31794D01*
X26142Y32319D01*
X24568D01*
X113258Y78078D02*
Y74930D01*
X114832D01*
X115357Y75454D01*
Y77553D01*
X114832Y78078D01*
X113258D01*
X116407Y77553D02*
X116931Y78078D01*
X117981D01*
X118506Y77553D01*
Y77029D01*
X117981Y76504D01*
X117456D01*
X117981D01*
X118506Y75979D01*
Y75454D01*
X117981Y74930D01*
X116931D01*
X116407Y75454D01*
X6506Y10484D02*
Y7335D01*
X8080D01*
X8605Y7860D01*
Y9959D01*
X8080Y10484D01*
X6506D01*
X11754Y7335D02*
X9655D01*
X11754Y9434D01*
Y9959D01*
X11229Y10484D01*
X10180D01*
X9655Y9959D01*
X155935Y179416D02*
X155410Y179940D01*
X154361D01*
X153836Y179416D01*
Y177317D01*
X154361Y176792D01*
X155410D01*
X155935Y177317D01*
X156984Y176792D02*
X158034D01*
X157509D01*
Y179940D01*
X156984Y179416D01*
X159608D02*
X160133Y179940D01*
X161183D01*
X161707Y179416D01*
Y178891D01*
X161183Y178366D01*
X161707Y177841D01*
Y177317D01*
X161183Y176792D01*
X160133D01*
X159608Y177317D01*
Y177841D01*
X160133Y178366D01*
X159608Y178891D01*
Y179416D01*
X160133Y178366D02*
X161183D01*
X192911Y176427D02*
X192386Y175902D01*
Y174853D01*
X192911Y174328D01*
X195010D01*
X195535Y174853D01*
Y175902D01*
X195010Y176427D01*
X195535Y177477D02*
Y178526D01*
Y178001D01*
X192386D01*
X192911Y177477D01*
X192386Y180101D02*
Y182200D01*
X192911D01*
X195010Y180101D01*
X195535D01*
X184553Y105227D02*
X184028Y105752D01*
X182979D01*
X182454Y105227D01*
Y103128D01*
X182979Y102603D01*
X184028D01*
X184553Y103128D01*
X185603Y102603D02*
X186652D01*
X186127D01*
Y105752D01*
X185603Y105227D01*
X190325Y105752D02*
X189276Y105227D01*
X188226Y104177D01*
Y103128D01*
X188751Y102603D01*
X189801D01*
X190325Y103128D01*
Y103652D01*
X189801Y104177D01*
X188226D01*
X155629Y167672D02*
X155104Y168196D01*
X154055D01*
X153530Y167672D01*
Y165573D01*
X154055Y165048D01*
X155104D01*
X155629Y165573D01*
X156679Y165048D02*
X157728D01*
X157203D01*
Y168196D01*
X156679Y167672D01*
X159302Y165048D02*
X160352D01*
X159827D01*
Y168196D01*
X159302Y167672D01*
X135080Y174801D02*
X134556Y174276D01*
Y173227D01*
X135080Y172702D01*
X137179D01*
X137704Y173227D01*
Y174276D01*
X137179Y174801D01*
X137704Y175851D02*
Y176900D01*
Y176375D01*
X134556D01*
X135080Y175851D01*
Y178474D02*
X134556Y178999D01*
Y180049D01*
X135080Y180573D01*
X137179D01*
X137704Y180049D01*
Y178999D01*
X137179Y178474D01*
X135080D01*
X155526Y161927D02*
X155002Y162452D01*
X153952D01*
X153427Y161927D01*
Y159828D01*
X153952Y159304D01*
X155002D01*
X155526Y159828D01*
X156576D02*
X157101Y159304D01*
X158150D01*
X158675Y159828D01*
Y161927D01*
X158150Y162452D01*
X157101D01*
X156576Y161927D01*
Y161403D01*
X157101Y160878D01*
X158675D01*
D22*
X195316Y96508D02*
D03*
X195314Y111956D02*
D03*
M02*
