G04*
G04 #@! TF.GenerationSoftware,Altium Limited,Altium Designer,21.2.2 (38)*
G04*
G04 Layer_Physical_Order=3*
G04 Layer_Color=128*
%FSLAX25Y25*%
%MOIN*%
G70*
G04*
G04 #@! TF.SameCoordinates,6CE54949-C0DA-46BE-907D-7ABA0CCCE0FB*
G04*
G04*
G04 #@! TF.FilePolarity,Negative*
G04*
G01*
G75*
%ADD13C,0.03937*%
%ADD15C,0.00787*%
%ADD65C,0.08000*%
%ADD76C,0.04000*%
G04:AMPARAMS|DCode=77|XSize=100mil|YSize=100mil|CornerRadius=0mil|HoleSize=0mil|Usage=FLASHONLY|Rotation=0.000|XOffset=0mil|YOffset=0mil|HoleType=Round|Shape=Relief|Width=10mil|Gap=10mil|Entries=4|*
%AMTHD77*
7,0,0,0.10000,0.08000,0.01000,45*
%
%ADD77THD77*%
%ADD79C,0.07200*%
%ADD80C,0.07900*%
%ADD82C,0.10000*%
%ADD83C,0.05181*%
%ADD84O,0.05969X0.08724*%
%ADD85C,0.11000*%
D13*
X124528Y374D02*
Y109764D01*
X124350Y172382D02*
Y207402D01*
Y172382D02*
X124409Y172323D01*
X124528Y109764D02*
X124606Y109843D01*
X182539D01*
X182520Y109862D02*
X182539Y109843D01*
X182520Y109862D02*
Y172303D01*
X182500Y172323D02*
X182520Y172303D01*
X124409Y172323D02*
X182500D01*
X64547Y207402D02*
X124350D01*
X64547D02*
Y236122D01*
D15*
X236221Y190925D02*
Y236221D01*
X0D02*
X236221D01*
Y158150D02*
Y190925D01*
X151358Y20D02*
Y93189D01*
X44587Y20D02*
X151358D01*
Y93189D02*
X236221D01*
X0Y0D02*
X44488D01*
X0Y181791D02*
X0Y0D01*
X236221Y93189D02*
Y158150D01*
X0Y181791D02*
Y236221D01*
X236201Y20D02*
X236201Y20D01*
D65*
X163110Y215079D02*
D03*
X153110D02*
D03*
X143110D02*
D03*
X133110D02*
D03*
X123110D02*
D03*
X113110D02*
D03*
X103110D02*
D03*
X93110D02*
D03*
X83110D02*
D03*
X73110D02*
D03*
X163110Y225079D02*
D03*
X153110D02*
D03*
X143110D02*
D03*
X133110D02*
D03*
X123110D02*
D03*
D76*
X44587Y20D02*
X151358D01*
Y93189D01*
X236221D01*
Y236221D01*
X0Y0D02*
X44488D01*
X44587Y20D01*
X0Y236221D02*
X236221D01*
X0Y181791D02*
Y236221D01*
Y181791D02*
X0Y0D01*
D77*
X113110Y225079D02*
D03*
X103110D02*
D03*
X93110D02*
D03*
X83110D02*
D03*
X73110D02*
D03*
D79*
X8996Y64114D02*
D03*
Y56240D02*
D03*
Y48366D02*
D03*
D80*
Y71988D02*
D03*
Y40492D02*
D03*
D82*
X18846Y218539D02*
D03*
D83*
X142457Y134099D02*
D03*
X177303Y148307D02*
D03*
X40295Y150965D02*
D03*
X135354Y81614D02*
D03*
X115433Y206142D02*
D03*
X109764D02*
D03*
X106929D02*
D03*
X101260D02*
D03*
X70079D02*
D03*
X67244D02*
D03*
X186300Y121103D02*
D03*
Y109764D02*
D03*
Y104095D02*
D03*
X183465Y115433D02*
D03*
Y109764D02*
D03*
Y104095D02*
D03*
Y98426D02*
D03*
X182048Y118268D02*
D03*
Y112599D02*
D03*
Y106929D02*
D03*
Y101260D02*
D03*
X177796Y109764D02*
D03*
Y104095D02*
D03*
Y98426D02*
D03*
X176378Y106929D02*
D03*
Y101260D02*
D03*
X172126Y109764D02*
D03*
Y98426D02*
D03*
X1661Y194287D02*
D03*
X3720Y176673D02*
D03*
X8339Y197071D02*
D03*
X5382Y202787D02*
D03*
X2866Y200847D02*
D03*
X1673Y197661D02*
D03*
X1669Y183988D02*
D03*
X1657Y190953D02*
D03*
X1665Y187547D02*
D03*
X7634Y189492D02*
D03*
Y193551D02*
D03*
X11791Y184614D02*
D03*
X7705Y185181D02*
D03*
X22240Y212303D02*
D03*
X21992Y202543D02*
D03*
X21937Y205988D02*
D03*
X21957Y209347D02*
D03*
X15697Y212150D02*
D03*
X15748Y209260D02*
D03*
X15646Y206012D02*
D03*
X13496Y203354D02*
D03*
X2087Y180276D02*
D03*
X20358Y198933D02*
D03*
X16453Y197189D02*
D03*
X12272Y197087D02*
D03*
X122539Y148374D02*
D03*
Y145618D02*
D03*
X152031Y115504D02*
D03*
X152224Y110413D02*
D03*
X153063Y106024D02*
D03*
X141575Y26181D02*
D03*
X59997Y50672D02*
D03*
X32500Y36260D02*
D03*
X60827Y55610D02*
D03*
X144665Y46083D02*
D03*
X149055Y69095D02*
D03*
X32362Y52441D02*
D03*
X165689Y97067D02*
D03*
X20071Y7776D02*
D03*
X221555Y195335D02*
D03*
X212657Y186260D02*
D03*
X209035Y195394D02*
D03*
X226181Y186221D02*
D03*
X202579Y195551D02*
D03*
X227894Y195335D02*
D03*
X215413Y195453D02*
D03*
X115748Y76555D02*
D03*
X3701Y102638D02*
D03*
X75354Y85748D02*
D03*
X122933Y156909D02*
D03*
X31929Y190945D02*
D03*
X47717Y72677D02*
D03*
X51693Y85847D02*
D03*
X128465Y97382D02*
D03*
X35000Y66890D02*
D03*
X3760Y170177D02*
D03*
X21240Y107520D02*
D03*
X9370Y137284D02*
D03*
X122539Y117579D02*
D03*
X122441Y137264D02*
D03*
X122776Y152972D02*
D03*
X111496Y68819D02*
D03*
X3996Y113681D02*
D03*
X134788Y183095D02*
D03*
X67461Y85847D02*
D03*
X43780Y72697D02*
D03*
X3878Y109724D02*
D03*
X55787Y85847D02*
D03*
X8819Y93228D02*
D03*
X66555Y73366D02*
D03*
X63543Y85866D02*
D03*
X71398Y73339D02*
D03*
X35925Y86457D02*
D03*
X220905Y110728D02*
D03*
X90787Y159606D02*
D03*
X28524Y157028D02*
D03*
X28425Y164154D02*
D03*
X43110Y108799D02*
D03*
X82067Y144272D02*
D03*
X44279Y223933D02*
D03*
X51228Y223973D02*
D03*
X44469Y211595D02*
D03*
X37795Y104449D02*
D03*
X72677Y132441D02*
D03*
X72716Y142342D02*
D03*
X50472Y141673D02*
D03*
X50354Y134488D02*
D03*
X40768Y56181D02*
D03*
X119134Y41417D02*
D03*
X119232Y35650D02*
D03*
X112008Y33445D02*
D03*
X104961Y35669D02*
D03*
X105098Y41516D02*
D03*
X84272Y41417D02*
D03*
X84429Y35965D02*
D03*
X121555Y180591D02*
D03*
X15098Y81339D02*
D03*
X156791Y178150D02*
D03*
X111594Y63642D02*
D03*
X103032Y61890D02*
D03*
X56024Y72224D02*
D03*
X61831Y68740D02*
D03*
X84460Y61782D02*
D03*
X70000Y68622D02*
D03*
X102835Y68760D02*
D03*
X96142Y68740D02*
D03*
X89547Y68681D02*
D03*
X82835D02*
D03*
X76319Y68622D02*
D03*
X67736Y22716D02*
D03*
X52402Y36772D02*
D03*
X22087Y33248D02*
D03*
X49862Y24468D02*
D03*
X19449Y68445D02*
D03*
X71004Y124646D02*
D03*
X170276Y177342D02*
D03*
X183701Y177628D02*
D03*
X188504Y164232D02*
D03*
X77972Y13307D02*
D03*
X100276Y184449D02*
D03*
X19331Y43524D02*
D03*
X171437Y103898D02*
D03*
X98405Y158898D02*
D03*
X49841Y6058D02*
D03*
X141417Y176142D02*
D03*
X141398Y161240D02*
D03*
X141358Y168720D02*
D03*
X3071Y123228D02*
D03*
X2716Y137126D02*
D03*
X51417Y211634D02*
D03*
X58162Y211638D02*
D03*
X44469Y217815D02*
D03*
X51417Y217854D02*
D03*
X58162Y217858D02*
D03*
X57972Y223976D02*
D03*
X57919Y230086D02*
D03*
X51174Y230083D02*
D03*
X44225Y230043D02*
D03*
X98760Y174114D02*
D03*
X138287Y208130D02*
D03*
X96398Y169567D02*
D03*
X3268Y32028D02*
D03*
D84*
X59842Y6752D02*
D03*
X85827D02*
D03*
D85*
X8846Y208539D02*
D03*
X28846D02*
D03*
Y228539D02*
D03*
X8846D02*
D03*
M02*
