G04*
G04 #@! TF.GenerationSoftware,Altium Limited,Altium Designer,21.2.2 (38)*
G04*
G04 Layer_Color=32896*
%FSLAX25Y25*%
%MOIN*%
G70*
G04*
G04 #@! TF.SameCoordinates,6CE54949-C0DA-46BE-907D-7ABA0CCCE0FB*
G04*
G04*
G04 #@! TF.FilePolarity,Positive*
G04*
G01*
G75*
%ADD12C,0.00984*%
%ADD14C,0.00394*%
%ADD15C,0.00787*%
%ADD16C,0.01000*%
%ADD17C,0.00600*%
%ADD18C,0.00591*%
%ADD21C,0.00709*%
%ADD104R,0.02657X0.02165*%
%ADD105R,0.03150X0.01417*%
G36*
X77030Y91540D02*
Y91371D01*
Y91202D01*
Y91034D01*
Y90865D01*
Y90696D01*
Y90527D01*
X76187D01*
Y90696D01*
Y90865D01*
Y91034D01*
Y91202D01*
Y91371D01*
Y91540D01*
Y91709D01*
X77030D01*
Y91540D01*
D02*
G37*
G36*
X123278D02*
Y91371D01*
Y91202D01*
Y91034D01*
Y90865D01*
Y90696D01*
Y90527D01*
Y90359D01*
Y90190D01*
X121759D01*
Y90359D01*
Y90527D01*
Y90696D01*
Y90865D01*
Y91034D01*
Y91202D01*
Y91371D01*
Y91540D01*
Y91709D01*
X123278D01*
Y91540D01*
D02*
G37*
G36*
X83107D02*
Y91371D01*
Y91202D01*
Y91034D01*
Y90865D01*
Y90696D01*
Y90527D01*
Y90359D01*
Y90190D01*
Y90021D01*
Y89852D01*
Y89683D01*
Y89515D01*
Y89346D01*
Y89177D01*
Y89008D01*
Y88839D01*
Y88671D01*
Y88502D01*
Y88333D01*
Y88164D01*
Y87995D01*
Y87827D01*
Y87658D01*
Y87489D01*
Y87320D01*
Y87151D01*
Y86983D01*
Y86814D01*
Y86645D01*
Y86476D01*
Y86308D01*
Y86139D01*
Y85970D01*
Y85801D01*
Y85632D01*
Y85464D01*
Y85295D01*
Y85126D01*
Y84957D01*
Y84789D01*
Y84620D01*
Y84451D01*
Y84282D01*
Y84113D01*
Y83945D01*
Y83776D01*
Y83607D01*
Y83438D01*
Y83269D01*
X82263D01*
Y83438D01*
Y83607D01*
Y83776D01*
Y83945D01*
Y84113D01*
Y84282D01*
Y84451D01*
Y84620D01*
Y84789D01*
Y84957D01*
Y85126D01*
Y85295D01*
Y85464D01*
Y85632D01*
Y85801D01*
Y85970D01*
Y86139D01*
Y86308D01*
Y86476D01*
Y86645D01*
Y86814D01*
Y86983D01*
Y87151D01*
Y87320D01*
Y87489D01*
Y87658D01*
X82094D01*
Y87827D01*
Y87995D01*
X81925D01*
Y88164D01*
X81757D01*
Y88333D01*
X81588D01*
Y88502D01*
X81250D01*
Y88671D01*
X79900D01*
Y88502D01*
X79731D01*
Y88333D01*
X79394D01*
Y88164D01*
Y87995D01*
X79225D01*
Y87827D01*
Y87658D01*
Y87489D01*
Y87320D01*
Y87151D01*
Y86983D01*
Y86814D01*
Y86645D01*
Y86476D01*
Y86308D01*
Y86139D01*
Y85970D01*
Y85801D01*
Y85632D01*
Y85464D01*
Y85295D01*
Y85126D01*
Y84957D01*
Y84789D01*
Y84620D01*
Y84451D01*
Y84282D01*
Y84113D01*
Y83945D01*
Y83776D01*
Y83607D01*
Y83438D01*
Y83269D01*
X78381D01*
Y83438D01*
Y83607D01*
Y83776D01*
Y83945D01*
Y84113D01*
Y84282D01*
Y84451D01*
Y84620D01*
Y84789D01*
Y84957D01*
Y85126D01*
Y85295D01*
Y85464D01*
Y85632D01*
Y85801D01*
Y85970D01*
Y86139D01*
Y86308D01*
Y86476D01*
Y86645D01*
Y86814D01*
Y86983D01*
Y87151D01*
Y87320D01*
Y87489D01*
Y87658D01*
Y87827D01*
Y87995D01*
Y88164D01*
Y88333D01*
X78549D01*
Y88502D01*
Y88671D01*
X78718D01*
Y88839D01*
X78887D01*
Y89008D01*
X79056D01*
Y89177D01*
X79225D01*
Y89346D01*
X79562D01*
Y89515D01*
X81081D01*
Y89346D01*
X81419D01*
Y89177D01*
X81757D01*
Y89008D01*
X81925D01*
Y88839D01*
X82263D01*
Y89008D01*
Y89177D01*
Y89346D01*
Y89515D01*
Y89683D01*
Y89852D01*
Y90021D01*
Y90190D01*
Y90359D01*
Y90527D01*
Y90696D01*
Y90865D01*
Y91034D01*
Y91202D01*
Y91371D01*
Y91540D01*
Y91709D01*
X83107D01*
Y91540D01*
D02*
G37*
G36*
X93234Y89346D02*
X93740D01*
Y89177D01*
X94078D01*
Y89008D01*
X94247D01*
Y88839D01*
X94416D01*
Y88671D01*
X94584D01*
Y88502D01*
Y88333D01*
X94753D01*
Y88164D01*
Y87995D01*
Y87827D01*
X94922D01*
Y87658D01*
X94247D01*
Y87489D01*
X94078D01*
Y87658D01*
X93909D01*
Y87827D01*
Y87995D01*
X93740D01*
Y88164D01*
Y88333D01*
X93572D01*
Y88502D01*
X93234D01*
Y88671D01*
X91546D01*
Y88502D01*
X91209D01*
Y88333D01*
X91040D01*
Y88164D01*
X90871D01*
Y87995D01*
Y87827D01*
Y87658D01*
X90702D01*
Y87489D01*
Y87320D01*
Y87151D01*
X91040D01*
Y86983D01*
X92053D01*
Y86814D01*
X93234D01*
Y86645D01*
X93909D01*
Y86476D01*
X94247D01*
Y86308D01*
X94416D01*
Y86139D01*
X94584D01*
Y85970D01*
X94753D01*
Y85801D01*
X94922D01*
Y85632D01*
Y85464D01*
Y85295D01*
X95091D01*
Y85126D01*
Y84957D01*
Y84789D01*
Y84620D01*
Y84451D01*
X94922D01*
Y84282D01*
Y84113D01*
X94753D01*
Y83945D01*
Y83776D01*
X94584D01*
Y83607D01*
X94416D01*
Y83438D01*
X94078D01*
Y83269D01*
X93572D01*
Y83101D01*
X92559D01*
Y83269D01*
X91884D01*
Y83438D01*
X91546D01*
Y83607D01*
X91377D01*
Y83776D01*
X91040D01*
Y83945D01*
X90702D01*
Y83776D01*
Y83607D01*
X90534D01*
Y83438D01*
Y83269D01*
X89690D01*
Y83438D01*
Y83607D01*
Y83776D01*
X89858D01*
Y83945D01*
Y84113D01*
Y84282D01*
Y84451D01*
Y84620D01*
Y84789D01*
Y84957D01*
Y85126D01*
Y85295D01*
Y85464D01*
Y85632D01*
Y85801D01*
Y85970D01*
Y86139D01*
Y86308D01*
Y86476D01*
Y86645D01*
Y86814D01*
Y86983D01*
Y87151D01*
Y87320D01*
Y87489D01*
Y87658D01*
Y87827D01*
Y87995D01*
X90027D01*
Y88164D01*
Y88333D01*
Y88502D01*
Y88671D01*
X90196D01*
Y88839D01*
X90365D01*
Y89008D01*
X90534D01*
Y89177D01*
X90702D01*
Y89346D01*
X91209D01*
Y89515D01*
X93234D01*
Y89346D01*
D02*
G37*
G36*
X134756Y91540D02*
Y91371D01*
X134587D01*
Y91202D01*
Y91034D01*
Y90865D01*
X134418D01*
Y90696D01*
Y90527D01*
Y90359D01*
Y90190D01*
Y90021D01*
X134250D01*
Y89852D01*
Y89683D01*
Y89515D01*
Y89346D01*
X134081D01*
Y89177D01*
Y89008D01*
Y88839D01*
Y88671D01*
X133912D01*
Y88502D01*
Y88333D01*
Y88164D01*
Y87995D01*
Y87827D01*
X133743D01*
Y87658D01*
Y87489D01*
Y87320D01*
Y87151D01*
X133574D01*
Y86983D01*
Y86814D01*
Y86645D01*
Y86476D01*
X133406D01*
Y86308D01*
Y86139D01*
Y85970D01*
Y85801D01*
X133237D01*
Y85632D01*
Y85464D01*
Y85295D01*
Y85126D01*
X133068D01*
Y84957D01*
Y84789D01*
Y84620D01*
Y84451D01*
X132899D01*
Y84282D01*
Y84113D01*
Y83945D01*
Y83776D01*
Y83607D01*
X132730D01*
Y83438D01*
Y83269D01*
X130874D01*
Y83438D01*
Y83607D01*
X130705D01*
Y83776D01*
Y83945D01*
Y84113D01*
X130536D01*
Y84282D01*
Y84451D01*
Y84620D01*
Y84789D01*
Y84957D01*
X130368D01*
Y85126D01*
Y85295D01*
Y85464D01*
X130199D01*
Y85632D01*
Y85801D01*
Y85970D01*
Y86139D01*
X130030D01*
Y86308D01*
Y86476D01*
Y86645D01*
Y86814D01*
X129861D01*
Y86983D01*
Y87151D01*
Y87320D01*
X129692D01*
Y87489D01*
Y87658D01*
Y87827D01*
Y87995D01*
X129524D01*
Y88164D01*
Y88333D01*
Y88502D01*
Y88671D01*
X129355D01*
Y88839D01*
Y89008D01*
Y89177D01*
Y89346D01*
X129017D01*
Y89177D01*
Y89008D01*
Y88839D01*
Y88671D01*
X128848D01*
Y88502D01*
Y88333D01*
Y88164D01*
Y87995D01*
X128680D01*
Y87827D01*
Y87658D01*
Y87489D01*
Y87320D01*
X128511D01*
Y87151D01*
Y86983D01*
Y86814D01*
X128342D01*
Y86645D01*
Y86476D01*
Y86308D01*
Y86139D01*
X128173D01*
Y85970D01*
Y85801D01*
Y85632D01*
Y85464D01*
X128005D01*
Y85295D01*
Y85126D01*
Y84957D01*
Y84789D01*
X127836D01*
Y84620D01*
Y84451D01*
Y84282D01*
X127667D01*
Y84113D01*
Y83945D01*
Y83776D01*
Y83607D01*
X127498D01*
Y83438D01*
Y83269D01*
X125641D01*
Y83438D01*
Y83607D01*
Y83776D01*
X125473D01*
Y83945D01*
Y84113D01*
Y84282D01*
Y84451D01*
X125304D01*
Y84620D01*
Y84789D01*
Y84957D01*
Y85126D01*
Y85295D01*
X125135D01*
Y85464D01*
Y85632D01*
Y85801D01*
Y85970D01*
X124966D01*
Y86139D01*
Y86308D01*
Y86476D01*
X124797D01*
Y86645D01*
Y86814D01*
Y86983D01*
Y87151D01*
Y87320D01*
X124629D01*
Y87489D01*
Y87658D01*
Y87827D01*
Y87995D01*
X124460D01*
Y88164D01*
Y88333D01*
Y88502D01*
Y88671D01*
X124291D01*
Y88839D01*
Y89008D01*
Y89177D01*
Y89346D01*
Y89515D01*
X124122D01*
Y89683D01*
Y89852D01*
Y90021D01*
X123953D01*
Y90190D01*
Y90359D01*
Y90527D01*
Y90696D01*
X123785D01*
Y90865D01*
Y91034D01*
Y91202D01*
Y91371D01*
Y91540D01*
X123616D01*
Y91709D01*
X125304D01*
Y91540D01*
X125473D01*
Y91371D01*
Y91202D01*
Y91034D01*
Y90865D01*
X125641D01*
Y90696D01*
Y90527D01*
Y90359D01*
Y90190D01*
Y90021D01*
X125810D01*
Y89852D01*
Y89683D01*
Y89515D01*
Y89346D01*
Y89177D01*
X125979D01*
Y89008D01*
Y88839D01*
Y88671D01*
Y88502D01*
X126148D01*
Y88333D01*
Y88164D01*
Y87995D01*
Y87827D01*
Y87658D01*
X126317D01*
Y87489D01*
Y87320D01*
Y87151D01*
Y86983D01*
X126485D01*
Y86814D01*
Y86645D01*
Y86476D01*
Y86308D01*
X126654D01*
Y86139D01*
X126823D01*
Y86308D01*
Y86476D01*
Y86645D01*
Y86814D01*
X126992D01*
Y86983D01*
Y87151D01*
Y87320D01*
Y87489D01*
X127161D01*
Y87658D01*
Y87827D01*
Y87995D01*
Y88164D01*
X127329D01*
Y88333D01*
Y88502D01*
Y88671D01*
Y88839D01*
X127498D01*
Y89008D01*
Y89177D01*
Y89346D01*
Y89515D01*
X127667D01*
Y89683D01*
Y89852D01*
Y90021D01*
Y90190D01*
X127836D01*
Y90359D01*
Y90527D01*
Y90696D01*
Y90865D01*
X128005D01*
Y91034D01*
Y91202D01*
Y91371D01*
Y91540D01*
X128173D01*
Y91709D01*
X130199D01*
Y91540D01*
Y91371D01*
X130368D01*
Y91202D01*
Y91034D01*
Y90865D01*
Y90696D01*
X130536D01*
Y90527D01*
Y90359D01*
Y90190D01*
Y90021D01*
X130705D01*
Y89852D01*
Y89683D01*
Y89515D01*
X130874D01*
Y89346D01*
Y89177D01*
Y89008D01*
Y88839D01*
X131043D01*
Y88671D01*
Y88502D01*
Y88333D01*
Y88164D01*
X131211D01*
Y87995D01*
Y87827D01*
Y87658D01*
Y87489D01*
X131380D01*
Y87320D01*
Y87151D01*
Y86983D01*
Y86814D01*
X131549D01*
Y86645D01*
Y86476D01*
Y86308D01*
Y86139D01*
X131718D01*
Y86308D01*
X131887D01*
Y86476D01*
Y86645D01*
Y86814D01*
Y86983D01*
Y87151D01*
X132055D01*
Y87320D01*
Y87489D01*
Y87658D01*
Y87827D01*
X132224D01*
Y87995D01*
Y88164D01*
Y88333D01*
Y88502D01*
X132393D01*
Y88671D01*
Y88839D01*
Y89008D01*
Y89177D01*
Y89346D01*
Y89515D01*
X132562D01*
Y89683D01*
Y89852D01*
Y90021D01*
Y90190D01*
X132730D01*
Y90359D01*
Y90527D01*
Y90696D01*
Y90865D01*
X132899D01*
Y91034D01*
Y91202D01*
Y91371D01*
Y91540D01*
Y91709D01*
X134756D01*
Y91540D01*
D02*
G37*
G36*
X104205D02*
Y91371D01*
Y91202D01*
Y91034D01*
Y90865D01*
Y90696D01*
Y90527D01*
Y90359D01*
Y90190D01*
Y90021D01*
Y89852D01*
Y89683D01*
Y89515D01*
Y89346D01*
Y89177D01*
Y89008D01*
Y88839D01*
Y88671D01*
Y88502D01*
Y88333D01*
Y88164D01*
Y87995D01*
Y87827D01*
Y87658D01*
Y87489D01*
Y87320D01*
Y87151D01*
Y86983D01*
Y86814D01*
Y86645D01*
Y86476D01*
Y86308D01*
Y86139D01*
Y85970D01*
Y85801D01*
Y85632D01*
Y85464D01*
Y85295D01*
Y85126D01*
Y84957D01*
Y84789D01*
Y84620D01*
Y84451D01*
Y84282D01*
Y84113D01*
Y83945D01*
Y83776D01*
Y83607D01*
Y83438D01*
Y83269D01*
X103024D01*
Y83438D01*
Y83607D01*
Y83776D01*
Y83945D01*
Y84113D01*
Y84282D01*
Y84451D01*
Y84620D01*
Y84789D01*
Y84957D01*
Y85126D01*
Y85295D01*
Y85464D01*
Y85632D01*
Y85801D01*
Y85970D01*
Y86139D01*
Y86308D01*
Y86476D01*
Y86645D01*
Y86814D01*
Y86983D01*
Y87151D01*
Y87320D01*
Y87489D01*
Y87658D01*
Y87827D01*
Y87995D01*
Y88164D01*
Y88333D01*
Y88502D01*
Y88671D01*
Y88839D01*
Y89008D01*
Y89177D01*
Y89346D01*
Y89515D01*
Y89683D01*
Y89852D01*
Y90021D01*
Y90190D01*
X102855D01*
Y90021D01*
Y89852D01*
Y89683D01*
Y89515D01*
X102686D01*
Y89346D01*
Y89177D01*
X102517D01*
Y89008D01*
Y88839D01*
Y88671D01*
X102349D01*
Y88502D01*
Y88333D01*
Y88164D01*
Y87995D01*
X102180D01*
Y87827D01*
Y87658D01*
X102011D01*
Y87489D01*
Y87320D01*
Y87151D01*
X101842D01*
Y86983D01*
Y86814D01*
Y86645D01*
X101673D01*
Y86476D01*
Y86308D01*
Y86139D01*
X101505D01*
Y85970D01*
Y85801D01*
Y85632D01*
X101336D01*
Y85464D01*
Y85295D01*
Y85126D01*
X101167D01*
Y84957D01*
Y84789D01*
Y84620D01*
X100998D01*
Y84451D01*
Y84282D01*
Y84113D01*
X100830D01*
Y83945D01*
Y83776D01*
Y83607D01*
X100661D01*
Y83438D01*
Y83269D01*
X99648D01*
Y83438D01*
X99479D01*
Y83607D01*
Y83776D01*
Y83945D01*
X99310D01*
Y84113D01*
Y84282D01*
Y84451D01*
X99142D01*
Y84620D01*
Y84789D01*
Y84957D01*
X98973D01*
Y85126D01*
Y85295D01*
Y85464D01*
X98804D01*
Y85632D01*
Y85801D01*
X98635D01*
Y85970D01*
Y86139D01*
Y86308D01*
X98466D01*
Y86476D01*
Y86645D01*
Y86814D01*
X98298D01*
Y86983D01*
Y87151D01*
Y87320D01*
X98129D01*
Y87489D01*
Y87658D01*
Y87827D01*
X97960D01*
Y87995D01*
Y88164D01*
Y88333D01*
X97791D01*
Y88502D01*
Y88671D01*
Y88839D01*
X97623D01*
Y89008D01*
Y89177D01*
Y89346D01*
X97454D01*
Y89515D01*
Y89683D01*
X97285D01*
Y89852D01*
Y90021D01*
X97116D01*
Y89852D01*
Y89683D01*
Y89515D01*
Y89346D01*
Y89177D01*
Y89008D01*
Y88839D01*
Y88671D01*
Y88502D01*
Y88333D01*
Y88164D01*
Y87995D01*
Y87827D01*
Y87658D01*
Y87489D01*
Y87320D01*
Y87151D01*
Y86983D01*
Y86814D01*
Y86645D01*
Y86476D01*
Y86308D01*
Y86139D01*
Y85970D01*
Y85801D01*
Y85632D01*
Y85464D01*
Y85295D01*
Y85126D01*
Y84957D01*
Y84789D01*
Y84620D01*
Y84451D01*
Y84282D01*
Y84113D01*
Y83945D01*
Y83776D01*
Y83607D01*
Y83438D01*
Y83269D01*
X96104D01*
Y83438D01*
Y83607D01*
Y83776D01*
Y83945D01*
Y84113D01*
Y84282D01*
Y84451D01*
Y84620D01*
Y84789D01*
Y84957D01*
Y85126D01*
Y85295D01*
Y85464D01*
Y85632D01*
Y85801D01*
Y85970D01*
Y86139D01*
Y86308D01*
Y86476D01*
Y86645D01*
Y86814D01*
Y86983D01*
Y87151D01*
Y87320D01*
Y87489D01*
Y87658D01*
Y87827D01*
Y87995D01*
Y88164D01*
Y88333D01*
Y88502D01*
Y88671D01*
Y88839D01*
Y89008D01*
Y89177D01*
Y89346D01*
Y89515D01*
Y89683D01*
Y89852D01*
Y90021D01*
Y90190D01*
Y90359D01*
Y90527D01*
Y90696D01*
Y90865D01*
Y91034D01*
Y91202D01*
Y91371D01*
Y91540D01*
Y91709D01*
X97623D01*
Y91540D01*
Y91371D01*
X97791D01*
Y91202D01*
Y91034D01*
Y90865D01*
X97960D01*
Y90696D01*
Y90527D01*
Y90359D01*
X98129D01*
Y90190D01*
Y90021D01*
Y89852D01*
X98298D01*
Y89683D01*
Y89515D01*
X98466D01*
Y89346D01*
Y89177D01*
Y89008D01*
X98635D01*
Y88839D01*
Y88671D01*
Y88502D01*
X98804D01*
Y88333D01*
Y88164D01*
Y87995D01*
X98973D01*
Y87827D01*
Y87658D01*
Y87489D01*
X99142D01*
Y87320D01*
Y87151D01*
Y86983D01*
X99310D01*
Y86814D01*
Y86645D01*
Y86476D01*
X99479D01*
Y86308D01*
Y86139D01*
Y85970D01*
X99648D01*
Y85801D01*
Y85632D01*
Y85464D01*
X99817D01*
Y85295D01*
Y85126D01*
Y84957D01*
X99986D01*
Y84789D01*
Y84620D01*
X100154D01*
Y84789D01*
Y84957D01*
Y85126D01*
X100323D01*
Y85295D01*
Y85464D01*
Y85632D01*
X100492D01*
Y85801D01*
Y85970D01*
Y86139D01*
X100661D01*
Y86308D01*
Y86476D01*
Y86645D01*
X100830D01*
Y86814D01*
Y86983D01*
Y87151D01*
X100998D01*
Y87320D01*
Y87489D01*
Y87658D01*
X101167D01*
Y87827D01*
Y87995D01*
Y88164D01*
X101336D01*
Y88333D01*
Y88502D01*
Y88671D01*
X101505D01*
Y88839D01*
Y89008D01*
Y89177D01*
X101673D01*
Y89346D01*
Y89515D01*
X101842D01*
Y89683D01*
Y89852D01*
Y90021D01*
Y90190D01*
X102011D01*
Y90359D01*
Y90527D01*
Y90696D01*
X102180D01*
Y90865D01*
Y91034D01*
X102349D01*
Y91202D01*
Y91371D01*
Y91540D01*
Y91709D01*
X104205D01*
Y91540D01*
D02*
G37*
G36*
X112813Y89346D02*
X113320D01*
Y89177D01*
X113657D01*
Y89008D01*
X113826D01*
Y88839D01*
X113995D01*
Y88671D01*
X114164D01*
Y88502D01*
X114333D01*
Y88333D01*
Y88164D01*
X114501D01*
Y87995D01*
X114670D01*
Y87827D01*
Y87658D01*
Y87489D01*
X114839D01*
Y87320D01*
Y87151D01*
Y86983D01*
Y86814D01*
Y86645D01*
Y86476D01*
Y86308D01*
Y86139D01*
Y85970D01*
Y85801D01*
Y85632D01*
Y85464D01*
Y85295D01*
Y85126D01*
X114670D01*
Y84957D01*
Y84789D01*
Y84620D01*
X114501D01*
Y84451D01*
X114333D01*
Y84282D01*
Y84113D01*
X114164D01*
Y83945D01*
X113995D01*
Y83776D01*
X113826D01*
Y83607D01*
X113489D01*
Y83438D01*
X113320D01*
Y83269D01*
X112645D01*
Y83101D01*
X111126D01*
Y83269D01*
X110619D01*
Y83438D01*
X110282D01*
Y83607D01*
X110113D01*
Y83776D01*
X109944D01*
Y83945D01*
X109775D01*
Y84113D01*
X109607D01*
Y84282D01*
Y84451D01*
X109438D01*
Y84620D01*
Y84789D01*
X109269D01*
Y84957D01*
X109775D01*
Y85126D01*
X110957D01*
Y84957D01*
Y84789D01*
X111126D01*
Y84620D01*
X111294D01*
Y84451D01*
X111632D01*
Y84282D01*
X112138D01*
Y84451D01*
X112645D01*
Y84620D01*
X112813D01*
Y84789D01*
X112982D01*
Y84957D01*
Y85126D01*
X113151D01*
Y85295D01*
Y85464D01*
Y85632D01*
X113320D01*
Y85801D01*
X109269D01*
Y85970D01*
X109100D01*
Y86139D01*
Y86308D01*
Y86476D01*
Y86645D01*
X109269D01*
Y86814D01*
Y86983D01*
Y87151D01*
Y87320D01*
Y87489D01*
X109438D01*
Y87658D01*
Y87827D01*
Y87995D01*
X109607D01*
Y88164D01*
Y88333D01*
X109775D01*
Y88502D01*
X109944D01*
Y88671D01*
X110113D01*
Y88839D01*
X110282D01*
Y89008D01*
X110450D01*
Y89177D01*
X110788D01*
Y89346D01*
X111294D01*
Y89515D01*
X112813D01*
Y89346D01*
D02*
G37*
G36*
X86989D02*
X87495D01*
Y89177D01*
X87664D01*
Y89008D01*
X88002D01*
Y88839D01*
X88170D01*
Y88671D01*
X88339D01*
Y88502D01*
Y88333D01*
X88508D01*
Y88164D01*
Y87995D01*
X88677D01*
Y87827D01*
Y87658D01*
X88846D01*
Y87489D01*
Y87320D01*
Y87151D01*
Y86983D01*
Y86814D01*
Y86645D01*
Y86476D01*
Y86308D01*
Y86139D01*
Y85970D01*
Y85801D01*
Y85632D01*
Y85464D01*
Y85295D01*
Y85126D01*
X88677D01*
Y84957D01*
Y84789D01*
Y84620D01*
X88508D01*
Y84451D01*
Y84282D01*
X88339D01*
Y84113D01*
X88170D01*
Y83945D01*
X88002D01*
Y83776D01*
X87833D01*
Y83607D01*
X87664D01*
Y83438D01*
X87327D01*
Y83269D01*
X86651D01*
Y83101D01*
X85807D01*
Y83269D01*
X85132D01*
Y83438D01*
X84964D01*
Y83607D01*
X84626D01*
Y83776D01*
X84457D01*
Y83945D01*
X84288D01*
Y84113D01*
X84120D01*
Y84282D01*
Y84451D01*
X83951D01*
Y84620D01*
Y84789D01*
X83782D01*
Y84957D01*
Y85126D01*
Y85295D01*
Y85464D01*
X84626D01*
Y85295D01*
Y85126D01*
Y84957D01*
X84795D01*
Y84789D01*
Y84620D01*
X84964D01*
Y84451D01*
X85132D01*
Y84282D01*
X85301D01*
Y84113D01*
X85807D01*
Y83945D01*
X86651D01*
Y84113D01*
X87158D01*
Y84282D01*
X87327D01*
Y84451D01*
X87495D01*
Y84620D01*
X87664D01*
Y84789D01*
Y84957D01*
X87833D01*
Y85126D01*
Y85295D01*
X88002D01*
Y85464D01*
Y85632D01*
Y85801D01*
Y85970D01*
Y86139D01*
Y86308D01*
Y86476D01*
Y86645D01*
Y86814D01*
Y86983D01*
Y87151D01*
Y87320D01*
X87833D01*
Y87489D01*
Y87658D01*
Y87827D01*
X87664D01*
Y87995D01*
X87495D01*
Y88164D01*
Y88333D01*
X87158D01*
Y88502D01*
X86820D01*
Y88671D01*
X85470D01*
Y88502D01*
X85301D01*
Y88333D01*
X85132D01*
Y88164D01*
X84964D01*
Y87995D01*
X84795D01*
Y87827D01*
Y87658D01*
X84626D01*
Y87489D01*
X83951D01*
Y87658D01*
X83782D01*
Y87827D01*
X83951D01*
Y87995D01*
Y88164D01*
X84120D01*
Y88333D01*
Y88502D01*
X84288D01*
Y88671D01*
Y88839D01*
X84457D01*
Y89008D01*
X84795D01*
Y89177D01*
X84964D01*
Y89346D01*
X85470D01*
Y89515D01*
X86989D01*
Y89346D01*
D02*
G37*
G36*
X67072D02*
X67578D01*
Y89177D01*
X67916D01*
Y89008D01*
X68085D01*
Y88839D01*
X68253D01*
Y88671D01*
X68422D01*
Y88502D01*
X68591D01*
Y88333D01*
X68760D01*
Y88164D01*
Y87995D01*
Y87827D01*
X68929D01*
Y87658D01*
Y87489D01*
Y87320D01*
X69097D01*
Y87151D01*
Y86983D01*
Y86814D01*
Y86645D01*
Y86476D01*
Y86308D01*
Y86139D01*
Y85970D01*
Y85801D01*
Y85632D01*
Y85464D01*
Y85295D01*
X68929D01*
Y85126D01*
Y84957D01*
Y84789D01*
X68760D01*
Y84620D01*
Y84451D01*
X68591D01*
Y84282D01*
Y84113D01*
X68422D01*
Y83945D01*
X68253D01*
Y83776D01*
X68085D01*
Y83607D01*
X67747D01*
Y83438D01*
X67409D01*
Y83269D01*
X66903D01*
Y83101D01*
X65722D01*
Y83269D01*
X65215D01*
Y83438D01*
X64878D01*
Y83607D01*
X64540D01*
Y83776D01*
X64371D01*
Y83945D01*
X64202D01*
Y84113D01*
X64034D01*
Y84282D01*
Y84451D01*
X63865D01*
Y84620D01*
Y84789D01*
X63696D01*
Y84957D01*
Y85126D01*
X64709D01*
Y84957D01*
Y84789D01*
X64878D01*
Y84620D01*
X65047D01*
Y84451D01*
X65215D01*
Y84282D01*
X65384D01*
Y84113D01*
X65890D01*
Y83945D01*
X66734D01*
Y84113D01*
X67241D01*
Y84282D01*
X67409D01*
Y84451D01*
X67578D01*
Y84620D01*
X67747D01*
Y84789D01*
X67916D01*
Y84957D01*
X68085D01*
Y85126D01*
Y85295D01*
Y85464D01*
Y85632D01*
X68253D01*
Y85801D01*
Y85970D01*
X68085D01*
Y86139D01*
X63696D01*
Y86308D01*
Y86476D01*
Y86645D01*
Y86814D01*
Y86983D01*
Y87151D01*
Y87320D01*
Y87489D01*
X63865D01*
Y87658D01*
Y87827D01*
Y87995D01*
X64034D01*
Y88164D01*
Y88333D01*
X64202D01*
Y88502D01*
X64371D01*
Y88671D01*
X64540D01*
Y88839D01*
X64709D01*
Y89008D01*
X64878D01*
Y89177D01*
X65047D01*
Y89346D01*
X65553D01*
Y89515D01*
X67072D01*
Y89346D01*
D02*
G37*
G36*
X123278Y89177D02*
Y89008D01*
Y88839D01*
Y88671D01*
Y88502D01*
Y88333D01*
Y88164D01*
Y87995D01*
Y87827D01*
Y87658D01*
Y87489D01*
Y87320D01*
Y87151D01*
Y86983D01*
Y86814D01*
Y86645D01*
Y86476D01*
Y86308D01*
Y86139D01*
Y85970D01*
Y85801D01*
Y85632D01*
Y85464D01*
Y85295D01*
Y85126D01*
Y84957D01*
Y84789D01*
Y84620D01*
Y84451D01*
Y84282D01*
Y84113D01*
Y83945D01*
Y83776D01*
Y83607D01*
Y83438D01*
Y83269D01*
X121759D01*
Y83438D01*
Y83607D01*
Y83776D01*
Y83945D01*
Y84113D01*
Y84282D01*
Y84451D01*
Y84620D01*
Y84789D01*
Y84957D01*
Y85126D01*
Y85295D01*
Y85464D01*
Y85632D01*
Y85801D01*
Y85970D01*
Y86139D01*
Y86308D01*
Y86476D01*
Y86645D01*
Y86814D01*
Y86983D01*
Y87151D01*
Y87320D01*
Y87489D01*
Y87658D01*
Y87827D01*
Y87995D01*
Y88164D01*
Y88333D01*
Y88502D01*
Y88671D01*
Y88839D01*
Y89008D01*
Y89177D01*
Y89346D01*
X123278D01*
Y89177D01*
D02*
G37*
G36*
X106062Y89346D02*
X106231D01*
Y89177D01*
X106568D01*
Y89008D01*
Y88839D01*
X106737D01*
Y88671D01*
X106906D01*
Y88839D01*
Y89008D01*
Y89177D01*
Y89346D01*
X108425D01*
Y89177D01*
Y89008D01*
Y88839D01*
Y88671D01*
Y88502D01*
Y88333D01*
Y88164D01*
Y87995D01*
Y87827D01*
Y87658D01*
Y87489D01*
Y87320D01*
Y87151D01*
Y86983D01*
Y86814D01*
Y86645D01*
Y86476D01*
Y86308D01*
Y86139D01*
Y85970D01*
Y85801D01*
Y85632D01*
Y85464D01*
Y85295D01*
Y85126D01*
Y84957D01*
Y84789D01*
Y84620D01*
Y84451D01*
Y84282D01*
Y84113D01*
Y83945D01*
Y83776D01*
Y83607D01*
Y83438D01*
Y83269D01*
X106737D01*
Y83438D01*
Y83607D01*
Y83776D01*
Y83945D01*
Y84113D01*
Y84282D01*
Y84451D01*
Y84620D01*
Y84789D01*
Y84957D01*
Y85126D01*
Y85295D01*
Y85464D01*
Y85632D01*
Y85801D01*
Y85970D01*
Y86139D01*
Y86308D01*
Y86476D01*
Y86645D01*
Y86814D01*
Y86983D01*
Y87151D01*
X106568D01*
Y87320D01*
Y87489D01*
Y87658D01*
X106400D01*
Y87827D01*
X106231D01*
Y87995D01*
X105724D01*
Y88164D01*
X105556D01*
Y87995D01*
X105049D01*
Y87827D01*
X104880D01*
Y87995D01*
Y88164D01*
X104712D01*
Y88333D01*
Y88502D01*
Y88671D01*
X104543D01*
Y88839D01*
Y89008D01*
X104374D01*
Y89177D01*
X104543D01*
Y89346D01*
X104880D01*
Y89515D01*
X106062D01*
Y89346D01*
D02*
G37*
G36*
X77030Y89177D02*
Y89008D01*
Y88839D01*
Y88671D01*
Y88502D01*
Y88333D01*
Y88164D01*
Y87995D01*
Y87827D01*
Y87658D01*
Y87489D01*
Y87320D01*
Y87151D01*
Y86983D01*
Y86814D01*
Y86645D01*
Y86476D01*
Y86308D01*
Y86139D01*
Y85970D01*
Y85801D01*
Y85632D01*
Y85464D01*
Y85295D01*
Y85126D01*
Y84957D01*
Y84789D01*
Y84620D01*
Y84451D01*
Y84282D01*
Y84113D01*
Y83945D01*
Y83776D01*
Y83607D01*
Y83438D01*
Y83269D01*
X76187D01*
Y83438D01*
Y83607D01*
Y83776D01*
Y83945D01*
Y84113D01*
Y84282D01*
Y84451D01*
Y84620D01*
Y84789D01*
Y84957D01*
Y85126D01*
Y85295D01*
Y85464D01*
Y85632D01*
Y85801D01*
Y85970D01*
Y86139D01*
Y86308D01*
Y86476D01*
Y86645D01*
Y86814D01*
Y86983D01*
Y87151D01*
Y87320D01*
Y87489D01*
Y87658D01*
Y87827D01*
Y87995D01*
Y88164D01*
Y88333D01*
Y88502D01*
Y88671D01*
Y88839D01*
Y89008D01*
Y89177D01*
Y89346D01*
X77030D01*
Y89177D01*
D02*
G37*
G36*
X72811Y89346D02*
X73148D01*
Y89177D01*
X73486D01*
Y89008D01*
X73655D01*
Y88839D01*
X73823D01*
Y88671D01*
X74161D01*
Y88839D01*
Y89008D01*
Y89177D01*
Y89346D01*
X74836D01*
Y89177D01*
Y89008D01*
Y88839D01*
Y88671D01*
Y88502D01*
Y88333D01*
Y88164D01*
Y87995D01*
Y87827D01*
Y87658D01*
Y87489D01*
Y87320D01*
Y87151D01*
Y86983D01*
Y86814D01*
Y86645D01*
Y86476D01*
Y86308D01*
Y86139D01*
Y85970D01*
Y85801D01*
Y85632D01*
Y85464D01*
Y85295D01*
Y85126D01*
Y84957D01*
Y84789D01*
Y84620D01*
Y84451D01*
Y84282D01*
Y84113D01*
Y83945D01*
Y83776D01*
Y83607D01*
Y83438D01*
Y83269D01*
X73992D01*
Y83438D01*
Y83607D01*
Y83776D01*
Y83945D01*
Y84113D01*
Y84282D01*
Y84451D01*
Y84620D01*
Y84789D01*
Y84957D01*
Y85126D01*
Y85295D01*
Y85464D01*
Y85632D01*
Y85801D01*
Y85970D01*
Y86139D01*
Y86308D01*
Y86476D01*
Y86645D01*
Y86814D01*
Y86983D01*
Y87151D01*
Y87320D01*
Y87489D01*
Y87658D01*
X73823D01*
Y87827D01*
Y87995D01*
X73655D01*
Y88164D01*
X73486D01*
Y88333D01*
X73317D01*
Y88502D01*
X72811D01*
Y88671D01*
X71798D01*
Y88502D01*
X71460D01*
Y88333D01*
X71292D01*
Y88164D01*
X71123D01*
Y87995D01*
Y87827D01*
X70954D01*
Y87658D01*
Y87489D01*
Y87320D01*
Y87151D01*
Y86983D01*
Y86814D01*
Y86645D01*
Y86476D01*
Y86308D01*
Y86139D01*
Y85970D01*
Y85801D01*
Y85632D01*
Y85464D01*
Y85295D01*
Y85126D01*
Y84957D01*
Y84789D01*
Y84620D01*
Y84451D01*
Y84282D01*
Y84113D01*
Y83945D01*
Y83776D01*
Y83607D01*
Y83438D01*
Y83269D01*
X70110D01*
Y83438D01*
Y83607D01*
Y83776D01*
Y83945D01*
Y84113D01*
Y84282D01*
Y84451D01*
Y84620D01*
Y84789D01*
Y84957D01*
Y85126D01*
Y85295D01*
Y85464D01*
Y85632D01*
Y85801D01*
Y85970D01*
Y86139D01*
Y86308D01*
Y86476D01*
Y86645D01*
Y86814D01*
Y86983D01*
Y87151D01*
Y87320D01*
Y87489D01*
Y87658D01*
Y87827D01*
Y87995D01*
Y88164D01*
Y88333D01*
X70279D01*
Y88502D01*
Y88671D01*
X70448D01*
Y88839D01*
X70617D01*
Y89008D01*
X70785D01*
Y89177D01*
X70954D01*
Y89346D01*
X71460D01*
Y89515D01*
X72811D01*
Y89346D01*
D02*
G37*
G36*
X119228D02*
X119903D01*
Y89177D01*
X120071D01*
Y89008D01*
X120409D01*
Y88839D01*
Y88671D01*
X120578D01*
Y88502D01*
X120747D01*
Y88333D01*
Y88164D01*
X120915D01*
Y87995D01*
Y87827D01*
Y87658D01*
Y87489D01*
Y87320D01*
Y87151D01*
X120747D01*
Y86983D01*
Y86814D01*
X120578D01*
Y86645D01*
X120409D01*
Y86476D01*
X120240D01*
Y86308D01*
X120071D01*
Y86139D01*
X119734D01*
Y85970D01*
X119228D01*
Y85801D01*
X118721D01*
Y85632D01*
X118046D01*
Y85464D01*
X117371D01*
Y85295D01*
X117033D01*
Y85126D01*
Y84957D01*
Y84789D01*
Y84620D01*
X117202D01*
Y84451D01*
X117540D01*
Y84282D01*
X118721D01*
Y84451D01*
X119059D01*
Y84620D01*
X119228D01*
Y84789D01*
X119396D01*
Y84957D01*
Y85126D01*
X120747D01*
Y84957D01*
X121084D01*
Y84789D01*
Y84620D01*
X120915D01*
Y84451D01*
Y84282D01*
X120747D01*
Y84113D01*
X120578D01*
Y83945D01*
X120409D01*
Y83776D01*
X120240D01*
Y83607D01*
X119903D01*
Y83438D01*
X119565D01*
Y83269D01*
X119059D01*
Y83101D01*
X117371D01*
Y83269D01*
X116696D01*
Y83438D01*
X116358D01*
Y83607D01*
X116189D01*
Y83776D01*
X116021D01*
Y83945D01*
X115852D01*
Y84113D01*
X115683D01*
Y84282D01*
X115514D01*
Y84451D01*
Y84620D01*
Y84789D01*
X115345D01*
Y84957D01*
Y85126D01*
Y85295D01*
Y85464D01*
Y85632D01*
X115514D01*
Y85801D01*
Y85970D01*
X115683D01*
Y86139D01*
Y86308D01*
X115852D01*
Y86476D01*
X116189D01*
Y86645D01*
X116527D01*
Y86814D01*
X116865D01*
Y86983D01*
X117540D01*
Y87151D01*
X118215D01*
Y87320D01*
X118890D01*
Y87489D01*
X119228D01*
Y87658D01*
X119396D01*
Y87827D01*
Y87995D01*
X119228D01*
Y88164D01*
X119059D01*
Y88333D01*
X117540D01*
Y88164D01*
X117371D01*
Y87995D01*
X117202D01*
Y87827D01*
Y87658D01*
X116696D01*
Y87827D01*
X115683D01*
Y87995D01*
Y88164D01*
Y88333D01*
X115852D01*
Y88502D01*
Y88671D01*
X116021D01*
Y88839D01*
X116189D01*
Y89008D01*
X116358D01*
Y89177D01*
X116696D01*
Y89346D01*
X117202D01*
Y89515D01*
X119228D01*
Y89346D01*
D02*
G37*
G36*
X61502D02*
X62008D01*
Y89177D01*
X62346D01*
Y89008D01*
X62515D01*
Y88839D01*
X62683D01*
Y88671D01*
Y88502D01*
X62852D01*
Y88333D01*
Y88164D01*
Y87995D01*
Y87827D01*
Y87658D01*
Y87489D01*
Y87320D01*
Y87151D01*
X62683D01*
Y86983D01*
Y86814D01*
X62515D01*
Y86645D01*
X62346D01*
Y86476D01*
X62008D01*
Y86308D01*
X61671D01*
Y86139D01*
X61164D01*
Y85970D01*
X60489D01*
Y85801D01*
X59814D01*
Y85632D01*
X59477D01*
Y85464D01*
X59139D01*
Y85295D01*
Y85126D01*
Y84957D01*
Y84789D01*
Y84620D01*
Y84451D01*
X59308D01*
Y84282D01*
X59477D01*
Y84113D01*
X60152D01*
Y83945D01*
X60996D01*
Y84113D01*
X61502D01*
Y84282D01*
X61839D01*
Y84451D01*
X62008D01*
Y84620D01*
Y84789D01*
X62177D01*
Y84957D01*
Y85126D01*
Y85295D01*
X62515D01*
Y85126D01*
X63021D01*
Y84957D01*
Y84789D01*
Y84620D01*
Y84451D01*
X62852D01*
Y84282D01*
Y84113D01*
X62683D01*
Y83945D01*
X62515D01*
Y83776D01*
X62346D01*
Y83607D01*
X62177D01*
Y83438D01*
X61839D01*
Y83269D01*
X61164D01*
Y83101D01*
X59983D01*
Y83269D01*
X59477D01*
Y83438D01*
X59139D01*
Y83607D01*
X58801D01*
Y83776D01*
X58633D01*
Y83945D01*
X58464D01*
Y84113D01*
Y84282D01*
X58295D01*
Y84451D01*
Y84620D01*
Y84789D01*
X58126D01*
Y84957D01*
Y85126D01*
Y85295D01*
Y85464D01*
X58295D01*
Y85632D01*
Y85801D01*
Y85970D01*
X58464D01*
Y86139D01*
X58633D01*
Y86308D01*
X58801D01*
Y86476D01*
X59308D01*
Y86645D01*
X59645D01*
Y86814D01*
X60320D01*
Y86983D01*
X60996D01*
Y87151D01*
X61502D01*
Y87320D01*
X61839D01*
Y87489D01*
X62008D01*
Y87658D01*
Y87827D01*
Y87995D01*
Y88164D01*
Y88333D01*
X61839D01*
Y88502D01*
X61502D01*
Y88671D01*
X59983D01*
Y88502D01*
X59645D01*
Y88333D01*
X59477D01*
Y88164D01*
X59308D01*
Y87995D01*
Y87827D01*
X58464D01*
Y87995D01*
Y88164D01*
Y88333D01*
X58633D01*
Y88502D01*
Y88671D01*
X58801D01*
Y88839D01*
Y89008D01*
X59139D01*
Y89177D01*
X59308D01*
Y89346D01*
X59814D01*
Y89515D01*
X61502D01*
Y89346D01*
D02*
G37*
G36*
X70733Y80875D02*
X71232D01*
Y80625D01*
Y80376D01*
X71481D01*
Y80127D01*
Y79878D01*
Y79629D01*
Y79380D01*
Y79131D01*
Y78882D01*
Y78632D01*
Y78383D01*
X71730D01*
Y78134D01*
Y77885D01*
Y77636D01*
Y77387D01*
Y77138D01*
Y76889D01*
Y76639D01*
X71481D01*
Y76390D01*
X70982D01*
Y76639D01*
X70733D01*
Y76889D01*
Y77138D01*
Y77387D01*
X70484D01*
Y77636D01*
Y77885D01*
Y78134D01*
Y78383D01*
Y78632D01*
Y78882D01*
Y79131D01*
Y79380D01*
Y79629D01*
Y79878D01*
X70235D01*
Y79629D01*
Y79380D01*
X69986D01*
Y79131D01*
Y78882D01*
Y78632D01*
X69737D01*
Y78383D01*
Y78134D01*
Y77885D01*
Y77636D01*
Y77387D01*
Y77138D01*
X69488D01*
Y76889D01*
X68989D01*
Y76639D01*
X68491D01*
Y76889D01*
X67993D01*
Y77138D01*
X67744D01*
Y77387D01*
Y77636D01*
Y77885D01*
X67494D01*
Y78134D01*
Y78383D01*
Y78632D01*
Y78882D01*
Y79131D01*
X67245D01*
Y79380D01*
Y79629D01*
X66996D01*
Y79380D01*
Y79131D01*
Y78882D01*
X66747D01*
Y78632D01*
Y78383D01*
Y78134D01*
Y77885D01*
Y77636D01*
Y77387D01*
Y77138D01*
Y76889D01*
X66498D01*
Y76639D01*
X66249D01*
Y76390D01*
X65751D01*
Y76639D01*
X65501D01*
Y76889D01*
X65751D01*
Y77138D01*
Y77387D01*
Y77636D01*
Y77885D01*
Y78134D01*
Y78383D01*
Y78632D01*
Y78882D01*
Y79131D01*
Y79380D01*
Y79629D01*
X66000D01*
Y79878D01*
Y80127D01*
Y80376D01*
Y80625D01*
Y80875D01*
X66498D01*
Y81124D01*
X67494D01*
Y80875D01*
X67993D01*
Y80625D01*
Y80376D01*
Y80127D01*
X68242D01*
Y79878D01*
Y79629D01*
Y79380D01*
Y79131D01*
Y78882D01*
X68491D01*
Y78632D01*
Y78383D01*
Y78134D01*
X68740D01*
Y78383D01*
X68989D01*
Y78632D01*
Y78882D01*
Y79131D01*
Y79380D01*
Y79629D01*
Y79878D01*
X69239D01*
Y80127D01*
Y80376D01*
Y80625D01*
X69488D01*
Y80875D01*
X69737D01*
Y81124D01*
X70733D01*
Y80875D01*
D02*
G37*
G36*
X75218D02*
X75467D01*
Y80625D01*
Y80376D01*
X75218D01*
Y80127D01*
X74221D01*
Y79878D01*
Y79629D01*
Y79380D01*
Y79131D01*
Y78882D01*
Y78632D01*
Y78383D01*
Y78134D01*
Y77885D01*
Y77636D01*
Y77387D01*
Y77138D01*
Y76889D01*
Y76639D01*
X73972D01*
Y76390D01*
X73225D01*
Y76639D01*
X72975D01*
Y76889D01*
Y77138D01*
Y77387D01*
Y77636D01*
Y77885D01*
Y78134D01*
Y78383D01*
Y78632D01*
Y78882D01*
Y79131D01*
Y79380D01*
Y79629D01*
Y79878D01*
Y80127D01*
X71730D01*
Y80376D01*
Y80625D01*
X71481D01*
Y80875D01*
X71730D01*
Y81124D01*
X75218D01*
Y80875D01*
D02*
G37*
G36*
X114830Y78632D02*
X116076D01*
Y78383D01*
X116823D01*
Y78134D01*
X117073D01*
Y77885D01*
X117322D01*
Y77636D01*
X117571D01*
Y77387D01*
Y77138D01*
X117820D01*
Y76889D01*
Y76639D01*
Y76390D01*
X118069D01*
Y76141D01*
Y75892D01*
Y75643D01*
Y75394D01*
Y75145D01*
Y74895D01*
Y74646D01*
Y74397D01*
Y74148D01*
Y73899D01*
Y73650D01*
Y73401D01*
Y73151D01*
X117820D01*
Y72902D01*
Y72653D01*
Y72404D01*
X117571D01*
Y72155D01*
Y71906D01*
X117322D01*
Y71657D01*
X117073D01*
Y71408D01*
X116823D01*
Y71158D01*
X116325D01*
Y70909D01*
X114830D01*
Y70660D01*
X113336D01*
Y70909D01*
X112090D01*
Y71158D01*
X111592D01*
Y71408D01*
Y71657D01*
X111342D01*
Y71906D01*
Y72155D01*
Y72404D01*
X111592D01*
Y72155D01*
X115578D01*
Y72404D01*
X115827D01*
Y72653D01*
X116076D01*
Y72902D01*
Y73151D01*
X116325D01*
Y73401D01*
Y73650D01*
Y73899D01*
Y74148D01*
Y74397D01*
X111093D01*
Y74646D01*
X110844D01*
Y74895D01*
Y75145D01*
Y75394D01*
Y75643D01*
Y75892D01*
Y76141D01*
Y76390D01*
X111093D01*
Y76639D01*
Y76889D01*
Y77138D01*
Y77387D01*
X111342D01*
Y77636D01*
Y77885D01*
X111592D01*
Y78134D01*
X111841D01*
Y78383D01*
X112339D01*
Y78632D01*
X113585D01*
Y78882D01*
X114830D01*
Y78632D01*
D02*
G37*
G36*
X97640D02*
X98886D01*
Y78383D01*
X99384D01*
Y78134D01*
X99882D01*
Y77885D01*
X100131D01*
Y77636D01*
X100381D01*
Y77387D01*
Y77138D01*
X100630D01*
Y76889D01*
Y76639D01*
Y76390D01*
X100879D01*
Y76141D01*
Y75892D01*
Y75643D01*
Y75394D01*
Y75145D01*
Y74895D01*
Y74646D01*
Y74397D01*
Y74148D01*
Y73899D01*
Y73650D01*
Y73401D01*
Y73151D01*
Y72902D01*
X100630D01*
Y72653D01*
Y72404D01*
Y72155D01*
X100381D01*
Y71906D01*
X100131D01*
Y71657D01*
X99882D01*
Y71408D01*
X99633D01*
Y71158D01*
X99135D01*
Y70909D01*
X97889D01*
Y70660D01*
X96394D01*
Y70909D01*
X95149D01*
Y71158D01*
X94899D01*
Y71408D01*
X94650D01*
Y71657D01*
Y71906D01*
X94401D01*
Y72155D01*
X94650D01*
Y72404D01*
X94899D01*
Y72155D01*
X98387D01*
Y72404D01*
X98637D01*
Y72653D01*
X98886D01*
Y72902D01*
X99135D01*
Y73151D01*
Y73401D01*
Y73650D01*
Y73899D01*
Y74148D01*
Y74397D01*
Y74646D01*
Y74895D01*
Y75145D01*
Y75394D01*
Y75643D01*
Y75892D01*
Y76141D01*
Y76390D01*
Y76639D01*
X98886D01*
Y76889D01*
X98637D01*
Y77138D01*
X98387D01*
Y77387D01*
X94650D01*
Y77636D01*
X94401D01*
Y77885D01*
Y78134D01*
X94650D01*
Y78383D01*
X94899D01*
Y78632D01*
X96145D01*
Y78882D01*
X97640D01*
Y78632D01*
D02*
G37*
G36*
X127038Y80875D02*
X127536D01*
Y80625D01*
Y80376D01*
Y80127D01*
Y79878D01*
Y79629D01*
Y79380D01*
Y79131D01*
Y78882D01*
Y78632D01*
Y78383D01*
Y78134D01*
Y77885D01*
Y77636D01*
Y77387D01*
Y77138D01*
Y76889D01*
Y76639D01*
Y76390D01*
Y76141D01*
Y75892D01*
Y75643D01*
Y75394D01*
Y75145D01*
Y74895D01*
Y74646D01*
Y74397D01*
Y74148D01*
Y73899D01*
Y73650D01*
Y73401D01*
Y73151D01*
Y72902D01*
Y72653D01*
Y72404D01*
Y72155D01*
Y71906D01*
Y71657D01*
Y71408D01*
X127287D01*
Y71158D01*
X127038D01*
Y70909D01*
X122803D01*
Y71158D01*
X121059D01*
Y71408D01*
X120560D01*
Y71657D01*
X120311D01*
Y71906D01*
X120062D01*
Y72155D01*
Y72404D01*
X119813D01*
Y72653D01*
Y72902D01*
Y73151D01*
X119564D01*
Y73401D01*
Y73650D01*
Y73899D01*
Y74148D01*
Y74397D01*
Y74646D01*
Y74895D01*
X119813D01*
Y75145D01*
Y75394D01*
X120062D01*
Y75643D01*
Y75892D01*
X120311D01*
Y76141D01*
X120560D01*
Y76390D01*
Y76639D01*
Y76889D01*
X120311D01*
Y77138D01*
Y77387D01*
X120062D01*
Y77636D01*
Y77885D01*
Y78134D01*
X119813D01*
Y78383D01*
Y78632D01*
Y78882D01*
Y79131D01*
X120062D01*
Y79380D01*
Y79629D01*
Y79878D01*
X120311D01*
Y80127D01*
Y80376D01*
X120560D01*
Y80625D01*
X121059D01*
Y80875D01*
X122554D01*
Y81124D01*
X127038D01*
Y80875D01*
D02*
G37*
G36*
X81197Y78632D02*
X83688D01*
Y78383D01*
Y78134D01*
Y77885D01*
Y77636D01*
Y77387D01*
Y77138D01*
Y76889D01*
Y76639D01*
Y76390D01*
Y76141D01*
Y75892D01*
Y75643D01*
Y75394D01*
Y75145D01*
Y74895D01*
Y74646D01*
Y74397D01*
Y74148D01*
Y73899D01*
Y73650D01*
Y73401D01*
Y73151D01*
Y72902D01*
Y72653D01*
Y72404D01*
Y72155D01*
Y71906D01*
Y71657D01*
Y71408D01*
Y71158D01*
X83439D01*
Y70909D01*
X82194D01*
Y71158D01*
X81944D01*
Y71408D01*
Y71657D01*
Y71906D01*
Y72155D01*
Y72404D01*
Y72653D01*
Y72902D01*
Y73151D01*
Y73401D01*
Y73650D01*
Y73899D01*
Y74148D01*
Y74397D01*
Y74646D01*
Y74895D01*
Y75145D01*
Y75394D01*
Y75643D01*
Y75892D01*
Y76141D01*
Y76390D01*
Y76639D01*
Y76889D01*
Y77138D01*
Y77387D01*
X78706D01*
Y77138D01*
X78456D01*
Y76889D01*
Y76639D01*
Y76390D01*
Y76141D01*
Y75892D01*
Y75643D01*
Y75394D01*
Y75145D01*
Y74895D01*
Y74646D01*
Y74397D01*
Y74148D01*
Y73899D01*
Y73650D01*
Y73401D01*
Y73151D01*
Y72902D01*
Y72653D01*
Y72404D01*
Y72155D01*
Y71906D01*
Y71657D01*
Y71408D01*
Y71158D01*
X77958D01*
Y70909D01*
X76962D01*
Y71158D01*
X76713D01*
Y71408D01*
Y71657D01*
Y71906D01*
Y72155D01*
Y72404D01*
Y72653D01*
Y72902D01*
Y73151D01*
Y73401D01*
Y73650D01*
Y73899D01*
Y74148D01*
Y74397D01*
Y74646D01*
Y74895D01*
Y75145D01*
Y75394D01*
Y75643D01*
Y75892D01*
Y76141D01*
Y76390D01*
Y76639D01*
Y76889D01*
Y77138D01*
Y77387D01*
X76962D01*
Y77636D01*
Y77885D01*
X77211D01*
Y78134D01*
X77460D01*
Y78383D01*
X77958D01*
Y78632D01*
X79204D01*
Y78882D01*
X81197D01*
Y78632D01*
D02*
G37*
G36*
X106858D02*
X108353D01*
Y78383D01*
X108851D01*
Y78134D01*
Y77885D01*
X109100D01*
Y77636D01*
Y77387D01*
X104865D01*
Y77138D01*
X104616D01*
Y76889D01*
Y76639D01*
Y76390D01*
Y76141D01*
Y75892D01*
Y75643D01*
Y75394D01*
X107605D01*
Y75145D01*
X108851D01*
Y74895D01*
X109100D01*
Y74646D01*
X109349D01*
Y74397D01*
Y74148D01*
X109599D01*
Y73899D01*
Y73650D01*
Y73401D01*
Y73151D01*
Y72902D01*
Y72653D01*
Y72404D01*
X109349D01*
Y72155D01*
Y71906D01*
Y71657D01*
X109100D01*
Y71408D01*
X108851D01*
Y71158D01*
X108353D01*
Y70909D01*
X106858D01*
Y70660D01*
X104865D01*
Y70909D01*
X102872D01*
Y71158D01*
Y71408D01*
Y71657D01*
Y71906D01*
Y72155D01*
Y72404D01*
Y72653D01*
Y72902D01*
Y73151D01*
Y73401D01*
Y73650D01*
Y73899D01*
Y74148D01*
Y74397D01*
Y74646D01*
Y74895D01*
Y75145D01*
Y75394D01*
Y75643D01*
Y75892D01*
Y76141D01*
Y76390D01*
Y76639D01*
Y76889D01*
Y77138D01*
Y77387D01*
X103121D01*
Y77636D01*
Y77885D01*
X103370D01*
Y78134D01*
X103619D01*
Y78383D01*
X103868D01*
Y78632D01*
X105114D01*
Y78882D01*
X106858D01*
Y78632D01*
D02*
G37*
G36*
X89917D02*
X91412D01*
Y78383D01*
X91910D01*
Y78134D01*
X92159D01*
Y77885D01*
X92408D01*
Y77636D01*
X92657D01*
Y77387D01*
X92906D01*
Y77138D01*
Y76889D01*
Y76639D01*
X93155D01*
Y76390D01*
Y76141D01*
Y75892D01*
Y75643D01*
X93405D01*
Y75394D01*
Y75145D01*
Y74895D01*
Y74646D01*
Y74397D01*
Y74148D01*
Y73899D01*
X93155D01*
Y73650D01*
Y73401D01*
Y73151D01*
Y72902D01*
Y72653D01*
X92906D01*
Y72404D01*
Y72155D01*
X92657D01*
Y71906D01*
X92408D01*
Y71657D01*
X92159D01*
Y71408D01*
X91910D01*
Y71158D01*
X91412D01*
Y70909D01*
X90166D01*
Y70660D01*
X88920D01*
Y70909D01*
X87674D01*
Y71158D01*
X87176D01*
Y71408D01*
X86678D01*
Y71657D01*
X86429D01*
Y71906D01*
Y72155D01*
X86180D01*
Y72404D01*
X85931D01*
Y72653D01*
Y72902D01*
Y73151D01*
X85681D01*
Y73401D01*
Y73650D01*
Y73899D01*
Y74148D01*
Y74397D01*
Y74646D01*
Y74895D01*
Y75145D01*
Y75394D01*
Y75643D01*
Y75892D01*
Y76141D01*
Y76390D01*
Y76639D01*
X85931D01*
Y76889D01*
Y77138D01*
Y77387D01*
X86180D01*
Y77636D01*
Y77885D01*
X86429D01*
Y78134D01*
X86678D01*
Y78383D01*
X87425D01*
Y78632D01*
X88671D01*
Y78882D01*
X89917D01*
Y78632D01*
D02*
G37*
G36*
X135904Y27968D02*
X137529D01*
Y27787D01*
X138613D01*
Y27607D01*
X139154D01*
Y27426D01*
X139696D01*
Y27246D01*
X140238D01*
Y27065D01*
X140599D01*
Y26884D01*
X140960D01*
Y26704D01*
X141321D01*
Y26523D01*
X141683D01*
Y26343D01*
X142044D01*
Y26162D01*
X142224D01*
Y25982D01*
X142586D01*
Y25801D01*
X142766D01*
Y25620D01*
X143127D01*
Y25440D01*
X143308D01*
Y25259D01*
X143489D01*
Y25079D01*
X143669D01*
Y24898D01*
X143850D01*
Y24717D01*
X144211D01*
Y24537D01*
X144391D01*
Y24356D01*
X144572D01*
Y24176D01*
X144753D01*
Y23995D01*
X144933D01*
Y23814D01*
Y23634D01*
X145114D01*
Y23453D01*
X145294D01*
Y23273D01*
X145475D01*
Y23092D01*
X145656D01*
Y22912D01*
Y22731D01*
X145836D01*
Y22550D01*
X146017D01*
Y22370D01*
Y22189D01*
X146197D01*
Y22009D01*
X146378D01*
Y21828D01*
Y21647D01*
X146558D01*
Y21467D01*
Y21286D01*
X146739D01*
Y21106D01*
Y20925D01*
X146920D01*
Y20744D01*
Y20564D01*
X147100D01*
Y20383D01*
Y20203D01*
X147281D01*
Y20022D01*
Y19842D01*
X147461D01*
Y19661D01*
Y19480D01*
Y19300D01*
X147642D01*
Y19119D01*
Y18939D01*
Y18758D01*
Y18577D01*
X147822D01*
Y18397D01*
Y18216D01*
Y18036D01*
Y17855D01*
X148003D01*
Y17675D01*
Y17494D01*
Y17313D01*
Y17133D01*
Y16952D01*
Y16772D01*
Y16591D01*
X148184D01*
Y16410D01*
Y16230D01*
Y16049D01*
Y15869D01*
Y15688D01*
Y15507D01*
Y15327D01*
Y15146D01*
Y14966D01*
Y14785D01*
Y14605D01*
Y14424D01*
Y14243D01*
Y14063D01*
Y13882D01*
X148003D01*
Y13702D01*
Y13521D01*
Y13340D01*
Y13160D01*
Y12979D01*
Y12799D01*
X147822D01*
Y12618D01*
Y12438D01*
Y12257D01*
Y12076D01*
Y11896D01*
X147642D01*
Y11715D01*
Y11535D01*
Y11354D01*
X147461D01*
Y11174D01*
Y10993D01*
Y10812D01*
X147281D01*
Y10632D01*
Y10451D01*
X147100D01*
Y10271D01*
Y10090D01*
Y9909D01*
X146920D01*
Y9729D01*
Y9548D01*
X146739D01*
Y9368D01*
Y9187D01*
X146558D01*
Y9006D01*
Y8826D01*
X146378D01*
Y8645D01*
X146197D01*
Y8465D01*
Y8284D01*
X146017D01*
Y8104D01*
X145836D01*
Y7923D01*
Y7742D01*
X145656D01*
Y7562D01*
X145475D01*
Y7381D01*
X145294D01*
Y7201D01*
Y7020D01*
X145114D01*
Y6839D01*
X144933D01*
Y6659D01*
X144753D01*
Y6478D01*
X144572D01*
Y6298D01*
X144391D01*
Y6117D01*
X144211D01*
Y5937D01*
X144030D01*
Y5756D01*
X143850D01*
Y5575D01*
X143669D01*
Y5395D01*
X143308D01*
Y5214D01*
X143127D01*
Y5034D01*
X142947D01*
Y4853D01*
X142586D01*
Y4672D01*
X142405D01*
Y4492D01*
X142044D01*
Y4311D01*
X141863D01*
Y4131D01*
X141502D01*
Y3950D01*
X141141D01*
Y3769D01*
X140780D01*
Y3589D01*
X140238D01*
Y3408D01*
X139877D01*
Y3228D01*
X139335D01*
Y3047D01*
X138793D01*
Y2867D01*
X137890D01*
Y2686D01*
X136807D01*
Y2505D01*
X133917D01*
Y2686D01*
X132834D01*
Y2867D01*
X131931D01*
Y3047D01*
X131389D01*
Y3228D01*
X130847D01*
Y3408D01*
X130306D01*
Y3589D01*
X129945D01*
Y3769D01*
X129583D01*
Y3950D01*
X129222D01*
Y4131D01*
X128861D01*
Y4311D01*
X128680D01*
Y4492D01*
X128500D01*
Y4672D01*
X128680D01*
Y4853D01*
X129403D01*
Y5034D01*
X129945D01*
Y4853D01*
X130125D01*
Y4672D01*
X130486D01*
Y4492D01*
X131028D01*
Y4311D01*
X131389D01*
Y4131D01*
X132112D01*
Y3950D01*
X132834D01*
Y3769D01*
X133917D01*
Y3589D01*
X136807D01*
Y3769D01*
X137890D01*
Y3950D01*
X138613D01*
Y4131D01*
X139154D01*
Y4311D01*
X139696D01*
Y4492D01*
X140057D01*
Y4672D01*
X140419D01*
Y4853D01*
X140780D01*
Y5034D01*
X141141D01*
Y5214D01*
X141502D01*
Y5395D01*
X141863D01*
Y5575D01*
X142044D01*
Y5756D01*
X142224D01*
Y5937D01*
X142586D01*
Y6117D01*
X142766D01*
Y6298D01*
X142947D01*
Y6478D01*
X143127D01*
Y6659D01*
X143308D01*
Y6839D01*
X143489D01*
Y7020D01*
X143669D01*
Y7201D01*
X143850D01*
Y7381D01*
X144030D01*
Y7562D01*
X144211D01*
Y7742D01*
X144391D01*
Y7923D01*
X144572D01*
Y8104D01*
X144753D01*
Y8284D01*
Y8465D01*
X144933D01*
Y8645D01*
X145114D01*
Y8826D01*
X145294D01*
Y9006D01*
Y9187D01*
X145475D01*
Y9368D01*
Y9548D01*
X145656D01*
Y9729D01*
Y9909D01*
X145836D01*
Y10090D01*
Y10271D01*
X146017D01*
Y10451D01*
Y10632D01*
X146197D01*
Y10812D01*
Y10993D01*
X146378D01*
Y11174D01*
Y11354D01*
Y11535D01*
X146558D01*
Y11715D01*
Y11896D01*
Y12076D01*
X146739D01*
Y12257D01*
Y12438D01*
Y12618D01*
Y12799D01*
X146920D01*
Y12979D01*
Y13160D01*
Y13340D01*
Y13521D01*
Y13702D01*
Y13882D01*
X147100D01*
Y14063D01*
Y14243D01*
Y14424D01*
Y14605D01*
Y14785D01*
Y14966D01*
Y15146D01*
Y15327D01*
Y15507D01*
Y15688D01*
Y15869D01*
Y16049D01*
Y16230D01*
Y16410D01*
Y16591D01*
Y16772D01*
X146920D01*
Y16952D01*
Y17133D01*
Y17313D01*
Y17494D01*
Y17675D01*
Y17855D01*
X146739D01*
Y18036D01*
Y18216D01*
Y18397D01*
Y18577D01*
X146558D01*
Y18758D01*
Y18939D01*
Y19119D01*
X146378D01*
Y19300D01*
Y19480D01*
Y19661D01*
X146197D01*
Y19842D01*
Y20022D01*
X146017D01*
Y20203D01*
Y20383D01*
X145836D01*
Y20564D01*
Y20744D01*
X145656D01*
Y20925D01*
Y21106D01*
X145475D01*
Y21286D01*
Y21467D01*
X145294D01*
Y21647D01*
X145114D01*
Y21828D01*
Y22009D01*
X144933D01*
Y22189D01*
X144753D01*
Y22370D01*
X144572D01*
Y22550D01*
Y22731D01*
X144391D01*
Y22912D01*
X144211D01*
Y23092D01*
X144030D01*
Y23273D01*
X143850D01*
Y23453D01*
X143669D01*
Y23634D01*
X143489D01*
Y23814D01*
X143308D01*
Y23995D01*
X143127D01*
Y24176D01*
X142947D01*
Y24356D01*
X142766D01*
Y24537D01*
X142405D01*
Y24717D01*
X142224D01*
Y24898D01*
X142044D01*
Y25079D01*
X141683D01*
Y25259D01*
X141321D01*
Y25440D01*
X141141D01*
Y25620D01*
X140780D01*
Y25801D01*
X140419D01*
Y25982D01*
X140057D01*
Y26162D01*
X139516D01*
Y26343D01*
X138974D01*
Y26523D01*
X138432D01*
Y26704D01*
X137529D01*
Y26884D01*
X136265D01*
Y27065D01*
X134640D01*
Y26884D01*
X133195D01*
Y26704D01*
X132473D01*
Y26523D01*
X131750D01*
Y26343D01*
X131209D01*
Y26162D01*
X130847D01*
Y25982D01*
X130486D01*
Y25801D01*
X130125D01*
Y25620D01*
X129764D01*
Y25440D01*
X129583D01*
Y25259D01*
Y25079D01*
X129764D01*
Y24898D01*
X130125D01*
Y24717D01*
X130306D01*
Y24537D01*
X130486D01*
Y24356D01*
X130667D01*
Y24176D01*
X130847D01*
Y23995D01*
X131028D01*
Y23814D01*
X131209D01*
Y23634D01*
X131389D01*
Y23453D01*
X131750D01*
Y23273D01*
X131931D01*
Y23092D01*
X132112D01*
Y22912D01*
X132292D01*
Y22731D01*
X132473D01*
Y22550D01*
X132653D01*
Y22370D01*
X132834D01*
Y22189D01*
X133015D01*
Y22009D01*
X133195D01*
Y21828D01*
X133556D01*
Y21647D01*
X133737D01*
Y21467D01*
X133917D01*
Y21286D01*
X134098D01*
Y21106D01*
X134279D01*
Y20925D01*
X134459D01*
Y20744D01*
X134640D01*
Y20564D01*
X134820D01*
Y20383D01*
X135001D01*
Y20203D01*
X135181D01*
Y20022D01*
X135362D01*
Y19842D01*
X135543D01*
Y19661D01*
X135723D01*
Y19480D01*
X135904D01*
Y19300D01*
X136084D01*
Y19119D01*
X136265D01*
Y18939D01*
X136446D01*
Y18758D01*
X136626D01*
Y18577D01*
X136807D01*
Y18397D01*
X136987D01*
Y18216D01*
X137168D01*
Y18036D01*
X137348D01*
Y17855D01*
X137529D01*
Y17675D01*
Y17494D01*
X137710D01*
Y17313D01*
X137890D01*
Y17133D01*
X138071D01*
Y16952D01*
Y16772D01*
X138432D01*
Y16952D01*
X138613D01*
Y17133D01*
X138793D01*
Y17313D01*
X138974D01*
Y17494D01*
X139154D01*
Y17675D01*
X139335D01*
Y17855D01*
X139516D01*
Y18036D01*
X139696D01*
Y18216D01*
X139877D01*
Y18397D01*
X140057D01*
Y18577D01*
X140238D01*
Y18758D01*
X140419D01*
Y18939D01*
X140599D01*
Y19119D01*
X140780D01*
Y19300D01*
X140960D01*
Y19480D01*
Y19661D01*
X141141D01*
Y19842D01*
X141321D01*
Y20022D01*
X141502D01*
Y20203D01*
X141683D01*
Y20383D01*
X141863D01*
Y20564D01*
X142044D01*
Y20744D01*
X142224D01*
Y20925D01*
X142405D01*
Y21106D01*
X142586D01*
Y21286D01*
X142766D01*
Y21467D01*
X142947D01*
Y21647D01*
X143127D01*
Y21828D01*
X143308D01*
Y22009D01*
X143669D01*
Y21828D01*
Y21647D01*
Y21467D01*
Y21286D01*
Y21106D01*
Y20925D01*
Y20744D01*
Y20564D01*
Y20383D01*
Y20203D01*
X143850D01*
Y20022D01*
Y19842D01*
Y19661D01*
Y19480D01*
Y19300D01*
Y19119D01*
Y18939D01*
Y18758D01*
Y18577D01*
Y18397D01*
X144030D01*
Y18216D01*
Y18036D01*
Y17855D01*
Y17675D01*
Y17494D01*
Y17313D01*
Y17133D01*
Y16952D01*
Y16772D01*
Y16591D01*
Y16410D01*
Y16230D01*
X144211D01*
Y16049D01*
Y15869D01*
Y15688D01*
Y15507D01*
X144030D01*
Y15327D01*
X143850D01*
Y15146D01*
X143669D01*
Y14966D01*
X143489D01*
Y14785D01*
X143308D01*
Y14605D01*
X143127D01*
Y14424D01*
X142947D01*
Y14243D01*
X142766D01*
Y14063D01*
X142586D01*
Y13882D01*
X142405D01*
Y13702D01*
X142224D01*
Y13521D01*
X142044D01*
Y13340D01*
X141863D01*
Y13160D01*
X141683D01*
Y12979D01*
X141502D01*
Y12799D01*
X141321D01*
Y12618D01*
X141141D01*
Y12438D01*
X140960D01*
Y12257D01*
Y12076D01*
X140780D01*
Y11896D01*
X140599D01*
Y11715D01*
X140419D01*
Y11535D01*
X140238D01*
Y11354D01*
Y11174D01*
X140057D01*
Y10993D01*
X139877D01*
Y10812D01*
Y10632D01*
X139696D01*
Y10451D01*
X139516D01*
Y10271D01*
Y10090D01*
X139335D01*
Y9909D01*
X139154D01*
Y9729D01*
Y9548D01*
X138974D01*
Y9368D01*
Y9187D01*
X138793D01*
Y9006D01*
Y8826D01*
X138613D01*
Y8645D01*
X138432D01*
Y8465D01*
Y8284D01*
Y8104D01*
X138251D01*
Y7923D01*
Y7742D01*
X138071D01*
Y7562D01*
Y7381D01*
X137890D01*
Y7201D01*
Y7020D01*
X137710D01*
Y6839D01*
Y6659D01*
Y6478D01*
X137529D01*
Y6659D01*
X137348D01*
Y6839D01*
Y7020D01*
Y7201D01*
Y7381D01*
Y7562D01*
X137168D01*
Y7742D01*
Y7923D01*
Y8104D01*
Y8284D01*
X136987D01*
Y8465D01*
Y8645D01*
Y8826D01*
X136807D01*
Y9006D01*
Y9187D01*
Y9368D01*
X136626D01*
Y9548D01*
Y9729D01*
Y9909D01*
X136446D01*
Y10090D01*
Y10271D01*
X136265D01*
Y10451D01*
Y10632D01*
Y10812D01*
X136084D01*
Y10993D01*
Y11174D01*
X135904D01*
Y11354D01*
Y11535D01*
X135723D01*
Y11715D01*
Y11896D01*
X135543D01*
Y12076D01*
Y12257D01*
X135362D01*
Y12438D01*
Y12618D01*
X135181D01*
Y12799D01*
X135001D01*
Y12979D01*
Y13160D01*
X134820D01*
Y13340D01*
Y13521D01*
X134640D01*
Y13702D01*
X134459D01*
Y13882D01*
Y14063D01*
X134279D01*
Y14243D01*
X134098D01*
Y14424D01*
X133917D01*
Y14605D01*
Y14785D01*
X133737D01*
Y14966D01*
X133556D01*
Y15146D01*
X133376D01*
Y15327D01*
Y15507D01*
X133195D01*
Y15688D01*
X133015D01*
Y15869D01*
X132834D01*
Y16049D01*
X132653D01*
Y16230D01*
X132473D01*
Y16410D01*
X132292D01*
Y16591D01*
Y16772D01*
X132112D01*
Y16952D01*
X131931D01*
Y17133D01*
X131750D01*
Y17313D01*
X131570D01*
Y17494D01*
X131389D01*
Y17675D01*
X131209D01*
Y17855D01*
X131028D01*
Y18036D01*
X130667D01*
Y18216D01*
X130486D01*
Y18397D01*
X130306D01*
Y18577D01*
X130125D01*
Y18758D01*
X129945D01*
Y18939D01*
X129764D01*
Y19119D01*
X129403D01*
Y19300D01*
X129222D01*
Y19480D01*
X129042D01*
Y19661D01*
X128680D01*
Y19842D01*
X128500D01*
Y20022D01*
X128319D01*
Y20203D01*
X127958D01*
Y20383D01*
X127778D01*
Y20564D01*
X127416D01*
Y20744D01*
X127236D01*
Y20925D01*
X126874D01*
Y21106D01*
X126513D01*
Y21286D01*
X126333D01*
Y21467D01*
X125972D01*
Y21647D01*
X125430D01*
Y21467D01*
Y21286D01*
X125249D01*
Y21106D01*
Y20925D01*
X125069D01*
Y20744D01*
Y20564D01*
X124888D01*
Y20383D01*
Y20203D01*
X124707D01*
Y20022D01*
Y19842D01*
X124527D01*
Y19661D01*
Y19480D01*
X124346D01*
Y19300D01*
Y19119D01*
Y18939D01*
X124166D01*
Y18758D01*
Y18577D01*
Y18397D01*
Y18216D01*
X123985D01*
Y18036D01*
Y17855D01*
Y17675D01*
Y17494D01*
X123805D01*
Y17313D01*
Y17133D01*
Y16952D01*
Y16772D01*
Y16591D01*
Y16410D01*
Y16230D01*
X123624D01*
Y16049D01*
X122902D01*
Y16230D01*
X122721D01*
Y16410D01*
Y16591D01*
Y16772D01*
Y16952D01*
Y17133D01*
Y17313D01*
Y17494D01*
X122902D01*
Y17675D01*
Y17855D01*
Y18036D01*
Y18216D01*
Y18397D01*
X123082D01*
Y18577D01*
Y18758D01*
Y18939D01*
X123263D01*
Y19119D01*
Y19300D01*
Y19480D01*
Y19661D01*
X123443D01*
Y19842D01*
Y20022D01*
X123624D01*
Y20203D01*
Y20383D01*
X123805D01*
Y20564D01*
Y20744D01*
Y20925D01*
X123985D01*
Y21106D01*
Y21286D01*
X124166D01*
Y21467D01*
Y21647D01*
X124346D01*
Y21828D01*
X124527D01*
Y22009D01*
Y22189D01*
Y22370D01*
X124346D01*
Y22550D01*
X123985D01*
Y22731D01*
X123624D01*
Y22912D01*
X123082D01*
Y23092D01*
X122721D01*
Y23273D01*
X122360D01*
Y23453D01*
X121999D01*
Y23634D01*
X121457D01*
Y23814D01*
X121637D01*
Y23995D01*
X121818D01*
Y24176D01*
X121999D01*
Y24356D01*
X122179D01*
Y24537D01*
X122360D01*
Y24717D01*
X122540D01*
Y24898D01*
X122721D01*
Y25079D01*
X122902D01*
Y25259D01*
X123082D01*
Y25440D01*
X123263D01*
Y25620D01*
X123443D01*
Y25801D01*
X123805D01*
Y25982D01*
X123985D01*
Y26162D01*
X124166D01*
Y26343D01*
X124346D01*
Y26523D01*
X124527D01*
Y26704D01*
X124707D01*
Y26884D01*
X124888D01*
Y27065D01*
X125069D01*
Y27246D01*
X125249D01*
Y27426D01*
X125430D01*
Y27607D01*
X125610D01*
Y27787D01*
X125791D01*
Y27968D01*
X126152D01*
Y28149D01*
X126333D01*
Y27968D01*
X126513D01*
Y27787D01*
X126694D01*
Y27607D01*
X126874D01*
Y27426D01*
X127055D01*
Y27246D01*
X127236D01*
Y27065D01*
X127597D01*
Y26884D01*
X127778D01*
Y26704D01*
X127958D01*
Y26523D01*
X128139D01*
Y26343D01*
X128319D01*
Y26162D01*
X128861D01*
Y26343D01*
X129042D01*
Y26523D01*
X129403D01*
Y26704D01*
X129764D01*
Y26884D01*
X130306D01*
Y27065D01*
X130667D01*
Y27246D01*
X131028D01*
Y27426D01*
X131570D01*
Y27607D01*
X132292D01*
Y27787D01*
X133195D01*
Y27968D01*
X134820D01*
Y28149D01*
X135904D01*
Y27968D01*
D02*
G37*
G36*
X117123Y16952D02*
Y16772D01*
Y16591D01*
Y16410D01*
Y16230D01*
Y16049D01*
Y15869D01*
Y15688D01*
Y15507D01*
Y15327D01*
Y15146D01*
Y14966D01*
Y14785D01*
Y14605D01*
Y14424D01*
Y14243D01*
Y14063D01*
Y13882D01*
Y13702D01*
Y13521D01*
Y13340D01*
Y13160D01*
Y12979D01*
Y12799D01*
Y12618D01*
Y12438D01*
Y12257D01*
Y12076D01*
Y11896D01*
Y11715D01*
Y11535D01*
Y11354D01*
Y11174D01*
Y10993D01*
Y10812D01*
Y10632D01*
Y10451D01*
Y10271D01*
X116942D01*
Y10090D01*
X115136D01*
Y10271D01*
X114956D01*
Y10451D01*
Y10632D01*
Y10812D01*
Y10993D01*
Y11174D01*
Y11354D01*
Y11535D01*
Y11715D01*
Y11896D01*
Y12076D01*
Y12257D01*
Y12438D01*
Y12618D01*
Y12799D01*
Y12979D01*
X112608D01*
Y12799D01*
Y12618D01*
Y12438D01*
Y12257D01*
Y12076D01*
Y11896D01*
Y11715D01*
Y11535D01*
Y11354D01*
Y11174D01*
Y10993D01*
Y10812D01*
Y10632D01*
Y10451D01*
Y10271D01*
X112428D01*
Y10090D01*
X110441D01*
Y10271D01*
Y10451D01*
Y10632D01*
Y10812D01*
Y10993D01*
Y11174D01*
Y11354D01*
Y11535D01*
Y11715D01*
Y11896D01*
Y12076D01*
Y12257D01*
Y12438D01*
Y12618D01*
Y12799D01*
Y12979D01*
Y13160D01*
Y13340D01*
Y13521D01*
Y13702D01*
Y13882D01*
Y14063D01*
Y14243D01*
Y14424D01*
Y14605D01*
Y14785D01*
Y14966D01*
Y15146D01*
Y15327D01*
Y15507D01*
Y15688D01*
Y15869D01*
Y16049D01*
Y16230D01*
Y16410D01*
Y16591D01*
Y16772D01*
Y16952D01*
Y17133D01*
X112608D01*
Y16952D01*
Y16772D01*
Y16591D01*
Y16410D01*
Y16230D01*
Y16049D01*
Y15869D01*
Y15688D01*
Y15507D01*
Y15327D01*
Y15146D01*
Y14966D01*
Y14785D01*
Y14605D01*
X114956D01*
Y14785D01*
Y14966D01*
Y15146D01*
Y15327D01*
Y15507D01*
Y15688D01*
Y15869D01*
Y16049D01*
Y16230D01*
Y16410D01*
Y16591D01*
Y16772D01*
Y16952D01*
Y17133D01*
X117123D01*
Y16952D01*
D02*
G37*
G36*
X130847D02*
Y16772D01*
Y16591D01*
Y16410D01*
Y16230D01*
Y16049D01*
Y15869D01*
Y15688D01*
Y15507D01*
Y15327D01*
Y15146D01*
Y14966D01*
Y14785D01*
Y14605D01*
Y14424D01*
Y14243D01*
Y14063D01*
Y13882D01*
Y13702D01*
Y13521D01*
Y13340D01*
Y13160D01*
Y12979D01*
Y12799D01*
Y12618D01*
Y12438D01*
Y12257D01*
Y12076D01*
Y11896D01*
Y11715D01*
Y11535D01*
Y11354D01*
Y11174D01*
Y10993D01*
Y10812D01*
Y10632D01*
Y10451D01*
Y10271D01*
Y10090D01*
X128861D01*
Y10271D01*
X128680D01*
Y10451D01*
Y10632D01*
Y10812D01*
Y10993D01*
Y11174D01*
Y11354D01*
Y11535D01*
Y11715D01*
Y11896D01*
Y12076D01*
Y12257D01*
Y12438D01*
Y12618D01*
Y12799D01*
Y12979D01*
X128139D01*
Y12799D01*
X127958D01*
Y12618D01*
X127778D01*
Y12438D01*
X127597D01*
Y12257D01*
Y12076D01*
X127416D01*
Y11896D01*
Y11715D01*
X127236D01*
Y11535D01*
Y11354D01*
X127055D01*
Y11174D01*
Y10993D01*
X126874D01*
Y10812D01*
X126694D01*
Y10632D01*
Y10451D01*
X126513D01*
Y10271D01*
X126333D01*
Y10090D01*
X124166D01*
Y10271D01*
Y10451D01*
Y10632D01*
X124346D01*
Y10812D01*
Y10993D01*
X124527D01*
Y11174D01*
Y11354D01*
X124707D01*
Y11535D01*
X124888D01*
Y11715D01*
Y11896D01*
X125069D01*
Y12076D01*
Y12257D01*
X125249D01*
Y12438D01*
Y12618D01*
X125430D01*
Y12799D01*
X125610D01*
Y12979D01*
X125972D01*
Y13160D01*
X126152D01*
Y13340D01*
X125610D01*
Y13521D01*
X125430D01*
Y13702D01*
X125069D01*
Y13882D01*
Y14063D01*
X124888D01*
Y14243D01*
X124707D01*
Y14424D01*
Y14605D01*
Y14785D01*
Y14966D01*
X124527D01*
Y15146D01*
Y15327D01*
X124707D01*
Y15507D01*
Y15688D01*
Y15869D01*
Y16049D01*
X124888D01*
Y16230D01*
Y16410D01*
X125069D01*
Y16591D01*
X125249D01*
Y16772D01*
X125610D01*
Y16952D01*
X126152D01*
Y17133D01*
X130847D01*
Y16952D01*
D02*
G37*
G36*
X121818Y15146D02*
X122360D01*
Y14966D01*
X122721D01*
Y14785D01*
X123082D01*
Y14605D01*
X123263D01*
Y14424D01*
X123443D01*
Y14243D01*
Y14063D01*
X123624D01*
Y13882D01*
X123805D01*
Y13702D01*
Y13521D01*
Y13340D01*
Y13160D01*
X123985D01*
Y12979D01*
Y12799D01*
Y12618D01*
Y12438D01*
Y12257D01*
Y12076D01*
X123805D01*
Y11896D01*
Y11715D01*
Y11535D01*
X123624D01*
Y11354D01*
Y11174D01*
X123443D01*
Y10993D01*
X123263D01*
Y10812D01*
X123082D01*
Y10632D01*
X122902D01*
Y10451D01*
X122540D01*
Y10271D01*
X121999D01*
Y10090D01*
X120012D01*
Y10271D01*
X119471D01*
Y10451D01*
X119290D01*
Y10632D01*
X118929D01*
Y10812D01*
X118748D01*
Y10993D01*
Y11174D01*
X118568D01*
Y11354D01*
X118387D01*
Y11535D01*
Y11715D01*
Y11896D01*
X118206D01*
Y12076D01*
Y12257D01*
Y12438D01*
Y12618D01*
Y12799D01*
Y12979D01*
Y13160D01*
Y13340D01*
Y13521D01*
X118387D01*
Y13702D01*
Y13882D01*
Y14063D01*
X118568D01*
Y14243D01*
X118748D01*
Y14424D01*
X118929D01*
Y14605D01*
X119109D01*
Y14785D01*
X119290D01*
Y14966D01*
X119651D01*
Y15146D01*
X120193D01*
Y15327D01*
X121818D01*
Y15146D01*
D02*
G37*
G36*
X106649Y17133D02*
X107732D01*
Y16952D01*
X108094D01*
Y16772D01*
X108274D01*
Y16591D01*
X108635D01*
Y16410D01*
Y16230D01*
X108816D01*
Y16049D01*
X108996D01*
Y15869D01*
Y15688D01*
Y15507D01*
Y15327D01*
X109177D01*
Y15146D01*
X108996D01*
Y14966D01*
Y14785D01*
Y14605D01*
Y14424D01*
X108816D01*
Y14243D01*
Y14063D01*
X108635D01*
Y13882D01*
X108455D01*
Y13702D01*
X108094D01*
Y13521D01*
X107732D01*
Y13340D01*
X107371D01*
Y13160D01*
X106649D01*
Y12979D01*
X105746D01*
Y12799D01*
X105385D01*
Y12618D01*
X105024D01*
Y12438D01*
Y12257D01*
Y12076D01*
Y11896D01*
Y11715D01*
X105204D01*
Y11535D01*
X105565D01*
Y11354D01*
X106468D01*
Y11535D01*
X106830D01*
Y11715D01*
X107010D01*
Y11896D01*
X107191D01*
Y12076D01*
Y12257D01*
Y12438D01*
X107371D01*
Y12618D01*
X108094D01*
Y12438D01*
X109358D01*
Y12257D01*
Y12076D01*
Y11896D01*
X109177D01*
Y11715D01*
Y11535D01*
Y11354D01*
X108996D01*
Y11174D01*
X108816D01*
Y10993D01*
Y10812D01*
X108635D01*
Y10632D01*
X108274D01*
Y10451D01*
X108094D01*
Y10271D01*
X107552D01*
Y10090D01*
X104843D01*
Y10271D01*
X104482D01*
Y10451D01*
X104121D01*
Y10632D01*
X103760D01*
Y10812D01*
X103579D01*
Y10993D01*
X103398D01*
Y11174D01*
Y11354D01*
X103218D01*
Y11535D01*
Y11715D01*
Y11896D01*
X103037D01*
Y12076D01*
Y12257D01*
Y12438D01*
Y12618D01*
Y12799D01*
Y12979D01*
X103218D01*
Y13160D01*
Y13340D01*
X103398D01*
Y13521D01*
Y13702D01*
X103579D01*
Y13882D01*
X103760D01*
Y14063D01*
X104121D01*
Y14243D01*
X104482D01*
Y14424D01*
X105024D01*
Y14605D01*
X105746D01*
Y14785D01*
X106468D01*
Y14966D01*
X106830D01*
Y15146D01*
X107010D01*
Y15327D01*
X107191D01*
Y15507D01*
X107010D01*
Y15688D01*
Y15869D01*
X106468D01*
Y16049D01*
X106107D01*
Y15869D01*
X105565D01*
Y15688D01*
X105385D01*
Y15507D01*
X105204D01*
Y15327D01*
Y15146D01*
X103398D01*
Y15327D01*
Y15507D01*
Y15688D01*
Y15869D01*
Y16049D01*
X103579D01*
Y16230D01*
X103760D01*
Y16410D01*
Y16591D01*
X103940D01*
Y16772D01*
X104301D01*
Y16952D01*
X104663D01*
Y17133D01*
X105746D01*
Y17313D01*
X106649D01*
Y17133D01*
D02*
G37*
G36*
X113692Y9548D02*
Y9368D01*
Y9187D01*
Y9006D01*
X112969D01*
Y9187D01*
Y9368D01*
Y9548D01*
Y9729D01*
X113692D01*
Y9548D01*
D02*
G37*
G36*
X123805Y8465D02*
X123985D01*
Y8284D01*
Y8104D01*
Y7923D01*
Y7742D01*
Y7562D01*
Y7381D01*
Y7201D01*
Y7020D01*
Y6839D01*
Y6659D01*
Y6478D01*
Y6298D01*
Y6117D01*
Y5937D01*
Y5756D01*
X123805D01*
Y5575D01*
X123263D01*
Y5756D01*
X123082D01*
Y5937D01*
Y6117D01*
Y6298D01*
Y6478D01*
Y6659D01*
Y6839D01*
Y7020D01*
Y7201D01*
Y7381D01*
Y7562D01*
Y7742D01*
Y7923D01*
X122721D01*
Y8104D01*
X122360D01*
Y7923D01*
X122179D01*
Y7742D01*
Y7562D01*
Y7381D01*
Y7201D01*
Y7020D01*
Y6839D01*
Y6659D01*
Y6478D01*
Y6298D01*
Y6117D01*
Y5937D01*
Y5756D01*
X121999D01*
Y5575D01*
X121457D01*
Y5756D01*
X121276D01*
Y5937D01*
Y6117D01*
Y6298D01*
Y6478D01*
Y6659D01*
Y6839D01*
Y7020D01*
Y7201D01*
Y7381D01*
Y7562D01*
Y7742D01*
Y7923D01*
X120915D01*
Y8104D01*
X120554D01*
Y7923D01*
X120373D01*
Y7742D01*
Y7562D01*
Y7381D01*
Y7201D01*
Y7020D01*
Y6839D01*
Y6659D01*
Y6478D01*
Y6298D01*
Y6117D01*
Y5937D01*
Y5756D01*
X120193D01*
Y5575D01*
X119651D01*
Y5756D01*
Y5937D01*
Y6117D01*
Y6298D01*
Y6478D01*
Y6659D01*
Y6839D01*
Y7020D01*
Y7201D01*
Y7381D01*
Y7562D01*
Y7742D01*
Y7923D01*
Y8104D01*
Y8284D01*
X119832D01*
Y8465D01*
X120193D01*
Y8645D01*
X120915D01*
Y8465D01*
X121276D01*
Y8284D01*
X121637D01*
Y8465D01*
X121818D01*
Y8645D01*
X122721D01*
Y8465D01*
X122902D01*
Y8284D01*
X123263D01*
Y8465D01*
Y8645D01*
X123805D01*
Y8465D01*
D02*
G37*
G36*
X118748D02*
Y8284D01*
Y8104D01*
Y7923D01*
Y7742D01*
Y7562D01*
Y7381D01*
Y7201D01*
Y7020D01*
Y6839D01*
Y6659D01*
Y6478D01*
Y6298D01*
Y6117D01*
Y5937D01*
Y5756D01*
Y5575D01*
Y5395D01*
Y5214D01*
Y5034D01*
Y4853D01*
Y4672D01*
Y4492D01*
X118026D01*
Y4672D01*
Y4853D01*
Y5034D01*
Y5214D01*
Y5395D01*
Y5575D01*
Y5756D01*
Y5937D01*
X117845D01*
Y5756D01*
X117665D01*
Y5575D01*
X116762D01*
Y5756D01*
X116401D01*
Y5937D01*
X116220D01*
Y6117D01*
Y6298D01*
X116039D01*
Y6478D01*
Y6659D01*
Y6839D01*
X115859D01*
Y7020D01*
Y7201D01*
Y7381D01*
X116039D01*
Y7562D01*
Y7742D01*
Y7923D01*
X116220D01*
Y8104D01*
Y8284D01*
X116401D01*
Y8465D01*
X116762D01*
Y8645D01*
X117665D01*
Y8465D01*
X117845D01*
Y8284D01*
X118026D01*
Y8465D01*
X118206D01*
Y8645D01*
X118748D01*
Y8465D01*
D02*
G37*
G36*
X108816D02*
X108996D01*
Y8284D01*
Y8104D01*
Y7923D01*
Y7742D01*
Y7562D01*
Y7381D01*
Y7201D01*
Y7020D01*
Y6839D01*
Y6659D01*
Y6478D01*
Y6298D01*
Y6117D01*
Y5937D01*
Y5756D01*
X108816D01*
Y5575D01*
X108274D01*
Y5756D01*
Y5937D01*
Y6117D01*
Y6298D01*
Y6478D01*
Y6659D01*
Y6839D01*
Y7020D01*
X108094D01*
Y7201D01*
Y7381D01*
Y7562D01*
Y7742D01*
Y7923D01*
X107732D01*
Y8104D01*
X107371D01*
Y7923D01*
X107191D01*
Y7742D01*
X107010D01*
Y7562D01*
Y7381D01*
Y7201D01*
Y7020D01*
Y6839D01*
Y6659D01*
Y6478D01*
Y6298D01*
Y6117D01*
Y5937D01*
Y5756D01*
Y5575D01*
X106288D01*
Y5756D01*
Y5937D01*
Y6117D01*
Y6298D01*
Y6478D01*
Y6659D01*
Y6839D01*
Y7020D01*
Y7201D01*
Y7381D01*
Y7562D01*
Y7742D01*
Y7923D01*
Y8104D01*
X106468D01*
Y8284D01*
Y8465D01*
X106830D01*
Y8645D01*
X107732D01*
Y8465D01*
X107913D01*
Y8284D01*
X108274D01*
Y8465D01*
X108455D01*
Y8645D01*
X108816D01*
Y8465D01*
D02*
G37*
G36*
X111525D02*
X111886D01*
Y8284D01*
X112066D01*
Y8104D01*
X112247D01*
Y7923D01*
Y7742D01*
X111525D01*
Y7923D01*
X111344D01*
Y8104D01*
X110802D01*
Y7923D01*
X110622D01*
Y7742D01*
X110441D01*
Y7562D01*
X110622D01*
Y7381D01*
X111525D01*
Y7201D01*
X111886D01*
Y7020D01*
X112247D01*
Y6839D01*
Y6659D01*
Y6478D01*
Y6298D01*
Y6117D01*
Y5937D01*
X112066D01*
Y5756D01*
X111886D01*
Y5575D01*
X110802D01*
Y5756D01*
X110622D01*
Y5937D01*
X110441D01*
Y5756D01*
X110261D01*
Y5575D01*
X109719D01*
Y5756D01*
Y5937D01*
Y6117D01*
Y6298D01*
Y6478D01*
Y6659D01*
Y6839D01*
Y7020D01*
Y7201D01*
Y7381D01*
Y7562D01*
Y7742D01*
Y7923D01*
Y8104D01*
X109899D01*
Y8284D01*
X110080D01*
Y8465D01*
X110261D01*
Y8645D01*
X111525D01*
Y8465D01*
D02*
G37*
G36*
X129764D02*
X130125D01*
Y8284D01*
X130306D01*
Y8104D01*
X130486D01*
Y7923D01*
Y7742D01*
X130667D01*
Y7562D01*
Y7381D01*
Y7201D01*
Y7020D01*
Y6839D01*
Y6659D01*
Y6478D01*
Y6298D01*
X130486D01*
Y6117D01*
X130306D01*
Y5937D01*
X130125D01*
Y5756D01*
X129945D01*
Y5575D01*
X128680D01*
Y5756D01*
X128319D01*
Y5937D01*
X128139D01*
Y6117D01*
Y6298D01*
X127958D01*
Y6478D01*
Y6659D01*
X128680D01*
Y6478D01*
X128861D01*
Y6298D01*
X129042D01*
Y6117D01*
X129403D01*
Y6298D01*
X129764D01*
Y6478D01*
Y6659D01*
X129945D01*
Y6839D01*
Y7020D01*
Y7201D01*
Y7381D01*
Y7562D01*
X129764D01*
Y7742D01*
Y7923D01*
X129403D01*
Y8104D01*
X129042D01*
Y7923D01*
X128861D01*
Y7742D01*
X128680D01*
Y7562D01*
X128319D01*
Y7742D01*
X127958D01*
Y7923D01*
X128139D01*
Y8104D01*
Y8284D01*
X128319D01*
Y8465D01*
X128680D01*
Y8645D01*
X129764D01*
Y8465D01*
D02*
G37*
G36*
X126513D02*
X126874D01*
Y8284D01*
X127055D01*
Y8104D01*
X127236D01*
Y7923D01*
X127416D01*
Y7742D01*
Y7562D01*
Y7381D01*
X127597D01*
Y7201D01*
Y7020D01*
Y6839D01*
X127416D01*
Y6659D01*
Y6478D01*
Y6298D01*
X127236D01*
Y6117D01*
Y5937D01*
X126874D01*
Y5756D01*
X126513D01*
Y5575D01*
X125430D01*
Y5756D01*
X125069D01*
Y5937D01*
X124888D01*
Y6117D01*
X124707D01*
Y6298D01*
Y6478D01*
X124527D01*
Y6659D01*
Y6839D01*
Y7020D01*
Y7201D01*
Y7381D01*
Y7562D01*
Y7742D01*
X124707D01*
Y7923D01*
Y8104D01*
X124888D01*
Y8284D01*
X125069D01*
Y8465D01*
X125430D01*
Y8645D01*
X126513D01*
Y8465D01*
D02*
G37*
G36*
X115317Y9548D02*
Y9368D01*
Y9187D01*
Y9006D01*
Y8826D01*
Y8645D01*
Y8465D01*
Y8284D01*
Y8104D01*
Y7923D01*
Y7742D01*
Y7562D01*
Y7381D01*
Y7201D01*
Y7020D01*
Y6839D01*
Y6659D01*
Y6478D01*
Y6298D01*
Y6117D01*
Y5937D01*
Y5756D01*
Y5575D01*
X114595D01*
Y5756D01*
Y5937D01*
Y6117D01*
Y6298D01*
Y6478D01*
Y6659D01*
Y6839D01*
Y7020D01*
Y7201D01*
Y7381D01*
Y7562D01*
Y7742D01*
Y7923D01*
Y8104D01*
Y8284D01*
Y8465D01*
Y8645D01*
Y8826D01*
Y9006D01*
Y9187D01*
Y9368D01*
Y9548D01*
Y9729D01*
X115317D01*
Y9548D01*
D02*
G37*
G36*
X113692Y8465D02*
Y8284D01*
Y8104D01*
Y7923D01*
Y7742D01*
Y7562D01*
Y7381D01*
Y7201D01*
Y7020D01*
Y6839D01*
Y6659D01*
Y6478D01*
Y6298D01*
Y6117D01*
Y5937D01*
Y5756D01*
Y5575D01*
X112969D01*
Y5756D01*
Y5937D01*
Y6117D01*
Y6298D01*
Y6478D01*
Y6659D01*
Y6839D01*
Y7020D01*
Y7201D01*
Y7381D01*
Y7562D01*
Y7742D01*
Y7923D01*
Y8104D01*
Y8284D01*
Y8465D01*
Y8645D01*
X113692D01*
Y8465D01*
D02*
G37*
G36*
X105024Y9187D02*
X105204D01*
Y9006D01*
Y8826D01*
Y8645D01*
X105565D01*
Y8465D01*
Y8284D01*
Y8104D01*
Y7923D01*
X105204D01*
Y7742D01*
Y7562D01*
Y7381D01*
Y7201D01*
Y7020D01*
Y6839D01*
Y6659D01*
Y6478D01*
Y6298D01*
Y6117D01*
Y5937D01*
Y5756D01*
X104843D01*
Y5575D01*
X104121D01*
Y5756D01*
Y5937D01*
Y6117D01*
X104482D01*
Y6298D01*
X104663D01*
Y6478D01*
Y6659D01*
Y6839D01*
Y7020D01*
Y7201D01*
Y7381D01*
Y7562D01*
Y7742D01*
Y7923D01*
X104121D01*
Y8104D01*
Y8284D01*
Y8465D01*
Y8645D01*
X104663D01*
Y8826D01*
Y9006D01*
Y9187D01*
Y9368D01*
X105024D01*
Y9187D01*
D02*
G37*
G36*
X28963Y197507D02*
X29546Y197434D01*
X29801Y197380D01*
X30057Y197325D01*
X30293Y197270D01*
X30494Y197215D01*
X30676Y197143D01*
X30858Y197088D01*
X30986Y197033D01*
X31113Y196997D01*
X31204Y196942D01*
X31277Y196924D01*
X31314Y196888D01*
X31332D01*
X31897Y196560D01*
X32134Y196359D01*
X32370Y196177D01*
X32589Y195976D01*
X32789Y195776D01*
X32972Y195576D01*
X33136Y195394D01*
X33263Y195211D01*
X33391Y195047D01*
X33500Y194902D01*
X33591Y194774D01*
X33646Y194665D01*
X33700Y194592D01*
X33719Y194537D01*
X33737Y194519D01*
X33883Y194227D01*
X34010Y193936D01*
X34211Y193335D01*
X34356Y192733D01*
X34448Y192205D01*
X34484Y191950D01*
X34520Y191731D01*
X34539Y191531D01*
Y191349D01*
X34557Y191221D01*
Y191112D01*
Y191039D01*
Y191021D01*
X34520Y190347D01*
X34448Y189727D01*
X34320Y189162D01*
X34265Y188889D01*
X34192Y188652D01*
X34119Y188433D01*
X34065Y188233D01*
X33992Y188069D01*
X33937Y187923D01*
X33901Y187814D01*
X33864Y187723D01*
X33828Y187668D01*
Y187650D01*
X33518Y187103D01*
X33172Y186630D01*
X32808Y186211D01*
X32443Y185883D01*
X32279Y185737D01*
X32115Y185609D01*
X31988Y185500D01*
X31860Y185427D01*
X31769Y185354D01*
X31678Y185300D01*
X31642Y185281D01*
X31623Y185263D01*
X31332Y185117D01*
X31059Y184990D01*
X30457Y184790D01*
X29874Y184644D01*
X29346Y184553D01*
X29091Y184516D01*
X28872Y184480D01*
X28672Y184461D01*
X28490D01*
X28362Y184443D01*
X28162D01*
X27579Y184461D01*
X27032Y184534D01*
X26504Y184625D01*
X26048Y184735D01*
X25848Y184790D01*
X25665Y184844D01*
X25501Y184899D01*
X25356Y184935D01*
X25246Y184972D01*
X25174Y185008D01*
X25119Y185026D01*
X25101D01*
X24554Y185245D01*
X24099Y185482D01*
X23698Y185719D01*
X23351Y185919D01*
X23096Y186101D01*
X23005Y186174D01*
X22914Y186247D01*
X22860Y186302D01*
X22805Y186338D01*
X22769Y186375D01*
Y191440D01*
X28253D01*
Y189308D01*
X25337D01*
Y187686D01*
X25556Y187522D01*
X25793Y187377D01*
X26030Y187249D01*
X26248Y187140D01*
X26431Y187049D01*
X26595Y186976D01*
X26686Y186939D01*
X26704Y186921D01*
X26722D01*
X27014Y186812D01*
X27305Y186739D01*
X27579Y186684D01*
X27815Y186648D01*
X28034Y186630D01*
X28180Y186611D01*
X28326D01*
X28617Y186630D01*
X28909Y186666D01*
X29164Y186721D01*
X29419Y186794D01*
X29874Y186976D01*
X30057Y187067D01*
X30239Y187176D01*
X30403Y187286D01*
X30548Y187377D01*
X30658Y187486D01*
X30767Y187559D01*
X30840Y187632D01*
X30895Y187686D01*
X30931Y187723D01*
X30949Y187741D01*
X31113Y187960D01*
X31277Y188215D01*
X31405Y188470D01*
X31514Y188743D01*
X31696Y189308D01*
X31806Y189855D01*
X31842Y190110D01*
X31879Y190365D01*
X31897Y190565D01*
X31915Y190766D01*
X31933Y190911D01*
Y191039D01*
Y191112D01*
Y191130D01*
X31915Y191513D01*
X31897Y191859D01*
X31842Y192205D01*
X31787Y192515D01*
X31714Y192788D01*
X31623Y193043D01*
X31532Y193280D01*
X31441Y193499D01*
X31368Y193681D01*
X31277Y193845D01*
X31186Y193972D01*
X31113Y194082D01*
X31059Y194173D01*
X31004Y194227D01*
X30986Y194264D01*
X30968Y194282D01*
X30767Y194464D01*
X30567Y194647D01*
X30348Y194774D01*
X30129Y194902D01*
X29911Y195011D01*
X29692Y195102D01*
X29273Y195229D01*
X29073Y195266D01*
X28890Y195302D01*
X28726Y195321D01*
X28581Y195339D01*
X28471Y195357D01*
X28307D01*
X27907Y195339D01*
X27560Y195266D01*
X27251Y195193D01*
X26977Y195084D01*
X26777Y194993D01*
X26613Y194902D01*
X26522Y194829D01*
X26485Y194810D01*
X26230Y194592D01*
X26012Y194355D01*
X25829Y194118D01*
X25702Y193881D01*
X25593Y193663D01*
X25520Y193499D01*
X25483Y193389D01*
X25465Y193371D01*
Y193353D01*
X22932Y193827D01*
X23005Y194136D01*
X23115Y194446D01*
X23224Y194719D01*
X23370Y194974D01*
X23497Y195229D01*
X23643Y195448D01*
X23789Y195649D01*
X23934Y195831D01*
X24080Y195995D01*
X24208Y196141D01*
X24317Y196268D01*
X24427Y196359D01*
X24518Y196432D01*
X24590Y196505D01*
X24627Y196523D01*
X24645Y196541D01*
X24900Y196724D01*
X25174Y196869D01*
X25465Y196997D01*
X25775Y197106D01*
X26376Y197288D01*
X26959Y197398D01*
X27232Y197452D01*
X27487Y197471D01*
X27724Y197489D01*
X27925Y197507D01*
X28089Y197525D01*
X28307D01*
X28963Y197507D01*
D02*
G37*
G36*
X44869Y189308D02*
Y187213D01*
X39695D01*
Y184680D01*
X37363D01*
Y187213D01*
X35796D01*
Y189326D01*
X37363D01*
Y197343D01*
X39403D01*
X44869Y189308D01*
D02*
G37*
G36*
X21989Y184454D02*
X18044D01*
Y185201D01*
X21151D01*
Y190758D01*
X21989D01*
Y184454D01*
D02*
G37*
G36*
X17525Y190011D02*
X15448D01*
Y184454D01*
X14610D01*
Y190011D01*
X12533D01*
Y190758D01*
X17525D01*
Y190011D01*
D02*
G37*
G36*
X11658Y184454D02*
X6948D01*
Y185201D01*
X10820D01*
Y187342D01*
X7331D01*
Y188089D01*
X10820D01*
Y190011D01*
X7094D01*
Y190758D01*
X11658D01*
Y184454D01*
D02*
G37*
%LPC*%
G36*
X91377Y86308D02*
X90702D01*
Y86139D01*
Y85970D01*
Y85801D01*
X90871D01*
Y85632D01*
Y85464D01*
Y85295D01*
Y85126D01*
Y84957D01*
X91040D01*
Y84789D01*
Y84620D01*
X91209D01*
Y84451D01*
X91377D01*
Y84282D01*
X91715D01*
Y84113D01*
X92053D01*
Y83945D01*
X93403D01*
Y84113D01*
X93740D01*
Y84282D01*
X93909D01*
Y84451D01*
X94078D01*
Y84620D01*
Y84789D01*
Y84957D01*
Y85126D01*
Y85295D01*
Y85464D01*
X93909D01*
Y85632D01*
X93572D01*
Y85801D01*
X93234D01*
Y85970D01*
X92053D01*
Y86139D01*
X91377D01*
Y86308D01*
D02*
G37*
G36*
X112307Y88333D02*
X111632D01*
Y88164D01*
X111294D01*
Y87995D01*
X111126D01*
Y87827D01*
X110957D01*
Y87658D01*
Y87489D01*
X110788D01*
Y87320D01*
Y87151D01*
Y86983D01*
Y86814D01*
X113151D01*
Y86983D01*
Y87151D01*
Y87320D01*
Y87489D01*
Y87658D01*
X112982D01*
Y87827D01*
X112813D01*
Y87995D01*
X112645D01*
Y88164D01*
X112307D01*
Y88333D01*
D02*
G37*
G36*
X67072Y88671D02*
X65553D01*
Y88502D01*
X65384D01*
Y88333D01*
X65047D01*
Y88164D01*
X64878D01*
Y87995D01*
Y87827D01*
X64709D01*
Y87658D01*
Y87489D01*
Y87320D01*
X64540D01*
Y87151D01*
Y86983D01*
X68085D01*
Y87151D01*
Y87320D01*
Y87489D01*
Y87658D01*
X67916D01*
Y87827D01*
Y87995D01*
X67747D01*
Y88164D01*
X67578D01*
Y88333D01*
X67409D01*
Y88502D01*
X67072D01*
Y88671D01*
D02*
G37*
G36*
X115329Y77636D02*
X113336D01*
Y77387D01*
X113086D01*
Y77138D01*
X112837D01*
Y76889D01*
Y76639D01*
X112588D01*
Y76390D01*
Y76141D01*
Y75892D01*
Y75643D01*
X116325D01*
Y75892D01*
Y76141D01*
Y76390D01*
Y76639D01*
X116076D01*
Y76889D01*
Y77138D01*
X115827D01*
Y77387D01*
X115329D01*
Y77636D01*
D02*
G37*
G36*
X125792Y79629D02*
X122055D01*
Y79380D01*
X121806D01*
Y79131D01*
Y78882D01*
Y78632D01*
Y78383D01*
Y78134D01*
Y77885D01*
Y77636D01*
Y77387D01*
Y77138D01*
X122055D01*
Y76889D01*
X125792D01*
Y77138D01*
Y77387D01*
Y77636D01*
Y77885D01*
Y78134D01*
Y78383D01*
Y78632D01*
Y78882D01*
Y79131D01*
Y79380D01*
Y79629D01*
D02*
G37*
G36*
Y75394D02*
X121806D01*
Y75145D01*
X121557D01*
Y74895D01*
Y74646D01*
Y74397D01*
X121308D01*
Y74148D01*
Y73899D01*
Y73650D01*
X121557D01*
Y73401D01*
Y73151D01*
Y72902D01*
X121806D01*
Y72653D01*
X122055D01*
Y72404D01*
X125792D01*
Y72653D01*
Y72902D01*
Y73151D01*
Y73401D01*
Y73650D01*
Y73899D01*
Y74148D01*
Y74397D01*
Y74646D01*
Y74895D01*
Y75145D01*
Y75394D01*
D02*
G37*
G36*
X107605Y74148D02*
X104616D01*
Y73899D01*
Y73650D01*
Y73401D01*
Y73151D01*
Y72902D01*
Y72653D01*
Y72404D01*
Y72155D01*
X104865D01*
Y71906D01*
X107356D01*
Y72155D01*
X107605D01*
Y72404D01*
X107854D01*
Y72653D01*
Y72902D01*
Y73151D01*
Y73401D01*
Y73650D01*
Y73899D01*
X107605D01*
Y74148D01*
D02*
G37*
G36*
X89917Y77636D02*
X88671D01*
Y77387D01*
X87924D01*
Y77138D01*
X87674D01*
Y76889D01*
Y76639D01*
X87425D01*
Y76390D01*
Y76141D01*
Y75892D01*
Y75643D01*
Y75394D01*
Y75145D01*
Y74895D01*
Y74646D01*
Y74397D01*
Y74148D01*
Y73899D01*
Y73650D01*
Y73401D01*
Y73151D01*
X87674D01*
Y72902D01*
Y72653D01*
X87924D01*
Y72404D01*
X88173D01*
Y72155D01*
X90664D01*
Y72404D01*
X91162D01*
Y72653D01*
Y72902D01*
X91412D01*
Y73151D01*
Y73401D01*
Y73650D01*
Y73899D01*
X91661D01*
Y74148D01*
Y74397D01*
Y74646D01*
Y74895D01*
Y75145D01*
Y75394D01*
Y75643D01*
Y75892D01*
X91412D01*
Y76141D01*
Y76390D01*
Y76639D01*
X91162D01*
Y76889D01*
Y77138D01*
X90913D01*
Y77387D01*
X89917D01*
Y77636D01*
D02*
G37*
G36*
X128680Y15688D02*
X127055D01*
Y15507D01*
X126874D01*
Y15327D01*
X126694D01*
Y15146D01*
Y14966D01*
Y14785D01*
X126874D01*
Y14605D01*
X127055D01*
Y14424D01*
X127416D01*
Y14243D01*
X128680D01*
Y14424D01*
Y14605D01*
Y14785D01*
Y14966D01*
Y15146D01*
Y15327D01*
Y15507D01*
Y15688D01*
D02*
G37*
G36*
X121276Y14063D02*
X120735D01*
Y13882D01*
X120554D01*
Y13702D01*
X120373D01*
Y13521D01*
X120193D01*
Y13340D01*
Y13160D01*
Y12979D01*
X120012D01*
Y12799D01*
Y12618D01*
Y12438D01*
X120193D01*
Y12257D01*
Y12076D01*
Y11896D01*
Y11715D01*
X120373D01*
Y11535D01*
X120554D01*
Y11354D01*
X121457D01*
Y11535D01*
X121637D01*
Y11715D01*
X121818D01*
Y11896D01*
X121999D01*
Y12076D01*
Y12257D01*
Y12438D01*
Y12618D01*
Y12799D01*
Y12979D01*
Y13160D01*
Y13340D01*
X121818D01*
Y13521D01*
Y13702D01*
X121637D01*
Y13882D01*
X121276D01*
Y14063D01*
D02*
G37*
G36*
X117484Y8104D02*
X117304D01*
Y7923D01*
X116942D01*
Y7742D01*
X116762D01*
Y7562D01*
Y7381D01*
Y7201D01*
Y7020D01*
Y6839D01*
Y6659D01*
Y6478D01*
X116942D01*
Y6298D01*
X117123D01*
Y6117D01*
X117665D01*
Y6298D01*
X117845D01*
Y6478D01*
X118026D01*
Y6659D01*
Y6839D01*
Y7020D01*
Y7201D01*
Y7381D01*
Y7562D01*
Y7742D01*
X117845D01*
Y7923D01*
X117484D01*
Y8104D01*
D02*
G37*
G36*
X110983Y7020D02*
X110441D01*
Y6839D01*
Y6659D01*
Y6478D01*
X110622D01*
Y6298D01*
X110802D01*
Y6117D01*
X111344D01*
Y6298D01*
X111525D01*
Y6478D01*
Y6659D01*
Y6839D01*
X110983D01*
Y7020D01*
D02*
G37*
G36*
X126513Y7923D02*
X125610D01*
Y7742D01*
X125430D01*
Y7562D01*
X125249D01*
Y7381D01*
Y7201D01*
Y7020D01*
Y6839D01*
Y6659D01*
X125430D01*
Y6478D01*
X125610D01*
Y6298D01*
X125791D01*
Y6117D01*
X126333D01*
Y6298D01*
X126513D01*
Y6478D01*
X126694D01*
Y6659D01*
Y6839D01*
Y7020D01*
Y7201D01*
Y7381D01*
Y7562D01*
Y7742D01*
X126513D01*
Y7923D01*
D02*
G37*
G36*
X39695Y193663D02*
Y189326D01*
X42628D01*
X39695Y193663D01*
D02*
G37*
%LPD*%
D12*
X54291Y165551D02*
G03*
X54291Y165551I-492J0D01*
G01*
X172973Y166811D02*
G03*
X172973Y166811I-492J0D01*
G01*
X33799Y165512D02*
G03*
X33799Y165512I-492J0D01*
G01*
X67658Y64882D02*
G03*
X67658Y64882I-492J0D01*
G01*
X88130Y65000D02*
G03*
X88130Y65000I-492J0D01*
G01*
D14*
X109685Y43091D02*
Y46811D01*
X115374Y43091D02*
Y46811D01*
X109685Y43091D02*
X115374D01*
X109685Y46811D02*
X115374D01*
X21398Y79429D02*
X27087D01*
X21398Y83150D02*
X27087D01*
X21398Y79429D02*
Y83150D01*
X27087Y79429D02*
Y83150D01*
D15*
X115118Y153770D02*
G03*
X115118Y152490I0J-640D01*
G01*
X51732Y133071D02*
Y162992D01*
X69842Y133071D02*
Y162992D01*
X51732D02*
X54390D01*
X51732Y133071D02*
X54390D01*
X67185Y162992D02*
X69842D01*
X67185Y133071D02*
X69842D01*
X67185Y160827D02*
Y162992D01*
Y160827D02*
X69842D01*
X51732D02*
X54390D01*
Y162992D01*
X173071Y162087D02*
Y164252D01*
X170413Y162087D02*
X173071D01*
X185866D02*
X188524D01*
X185866D02*
Y164252D01*
Y134331D02*
X188524D01*
X185866Y164252D02*
X188524D01*
X170413Y134331D02*
X173071D01*
X170413Y164252D02*
X173071D01*
X188524Y134331D02*
Y164252D01*
X170413Y134331D02*
Y164252D01*
X31240Y133031D02*
Y162953D01*
X49350Y133031D02*
Y162953D01*
X31240D02*
X33898D01*
X31240Y133031D02*
X33898D01*
X46693Y162953D02*
X49350D01*
X46693Y133031D02*
X49350D01*
X46693Y160787D02*
Y162953D01*
Y160787D02*
X49350D01*
X31240D02*
X33898D01*
Y162953D01*
X108110Y228110D02*
X110079Y230079D01*
X130079D02*
X136142D01*
X78110Y212047D02*
X80079Y210079D01*
X68110Y212047D02*
Y228110D01*
X70079Y210079D02*
X76142D01*
X148110Y212047D02*
X150079Y210079D01*
X110079D02*
X116142D01*
X120079D02*
X126142D01*
X156142D02*
X158110Y212047D01*
X68110D02*
X70079Y210079D01*
X68110Y228110D02*
X70079Y230079D01*
X88110Y212047D02*
X90079Y210079D01*
X150079Y230079D02*
X156142D01*
X146142D02*
X148110Y228110D01*
X76142Y230079D02*
X78110Y228110D01*
X126142Y210079D02*
X128110Y212047D01*
X136142Y210079D02*
X138110Y212047D01*
X136142Y230079D02*
X138110Y228110D01*
X166142Y210079D02*
X168110Y212047D01*
X116142Y210079D02*
X118110Y212047D01*
X158110Y228110D02*
X160079Y230079D01*
X128110Y228110D02*
X130079Y230079D01*
X158110Y212047D02*
X160079Y210079D01*
X106142D02*
X108110Y212047D01*
X168110D02*
Y228110D01*
X148110D02*
X150079Y230079D01*
X96142D02*
X98110Y228110D01*
X100079Y230079D02*
X106142D01*
X140079Y210079D02*
X146142D01*
X126142Y230079D02*
X128110Y228110D01*
X150079Y210079D02*
X156142D01*
X98110Y228110D02*
X100079Y230079D01*
X160079Y210079D02*
X166142D01*
X116142Y230079D02*
X118110Y228110D01*
X80079Y210079D02*
X86142D01*
X118110Y228110D02*
X120079Y230079D01*
X90079Y210079D02*
X96142D01*
X110079Y230079D02*
X116142D01*
X120079D02*
X126142D01*
X160079D02*
X166142D01*
X138110Y212047D02*
X140079Y210079D01*
X96142D02*
X98110Y212047D01*
X86142Y210079D02*
X88110Y212047D01*
X98110D02*
X100079Y210079D01*
X86142Y230079D02*
X88110Y228110D01*
X146142Y210079D02*
X148110Y212047D01*
X128110D02*
X130079Y210079D01*
X118110Y212047D02*
X120079Y210079D01*
X130079D02*
X136142D01*
X80079Y230079D02*
X86142D01*
X100079Y210079D02*
X106142D01*
X108110Y212047D02*
X110079Y210079D01*
X138110Y228110D02*
X140079Y230079D01*
X156142D02*
X158110Y228110D01*
X90079Y230079D02*
X96142D01*
X78110Y228110D02*
X80079Y230079D01*
X88110Y228110D02*
X90079Y230079D01*
X106142D02*
X108110Y228110D01*
X76142Y210079D02*
X78110Y212047D01*
X166142Y230079D02*
X168110Y228110D01*
X70079Y230079D02*
X76142D01*
X140079D02*
X146142D01*
X67756Y60158D02*
Y62323D01*
X65098Y60158D02*
X67756D01*
X80551D02*
X83209D01*
X80551D02*
Y62323D01*
Y32402D02*
X83209D01*
X80551Y62323D02*
X83209D01*
X65098Y32402D02*
X67756D01*
X65098Y62323D02*
X67756D01*
X83209Y32402D02*
Y62323D01*
X65098Y32402D02*
Y62323D01*
X88228Y60276D02*
Y62441D01*
X85571Y60276D02*
X88228D01*
X101024D02*
X103681D01*
X101024D02*
Y62441D01*
Y32520D02*
X103681D01*
X101024Y62441D02*
X103681D01*
X85571Y32520D02*
X88228D01*
X85571Y62441D02*
X88228D01*
X103681Y32520D02*
Y62441D01*
X85571Y32520D02*
Y62441D01*
X120905Y47559D02*
X127598D01*
X120905D02*
Y61339D01*
X127598D01*
Y47559D02*
Y61339D01*
X58268Y256D02*
Y3012D01*
Y10492D02*
Y12461D01*
X64567Y17972D02*
X65748D01*
X79921D02*
X81102D01*
X87402Y10492D02*
Y12461D01*
Y256D02*
Y3012D01*
X58268Y256D02*
X87402D01*
Y-4075D02*
Y256D01*
X58268Y-4075D02*
X87402D01*
X58268D02*
Y256D01*
X22815Y61181D02*
Y74961D01*
X16122D02*
X22815D01*
X16122Y61181D02*
Y74961D01*
Y61181D02*
X22815D01*
X15965Y37559D02*
X22658D01*
X15965D02*
Y51339D01*
X22658D01*
Y37559D02*
Y51339D01*
X48307Y39685D02*
Y53465D01*
X41614D02*
X48307D01*
X41614Y39685D02*
Y53465D01*
Y39685D02*
X48307D01*
X55827D02*
Y53465D01*
X49134D02*
X55827D01*
X49134Y39685D02*
Y53465D01*
Y39685D02*
X55827D01*
X63307D02*
Y53465D01*
X56614D02*
X63307D01*
X56614Y39685D02*
Y53465D01*
Y39685D02*
X63307D01*
X46496Y7854D02*
X53189D01*
X46496D02*
Y21634D01*
X53189D01*
Y7854D02*
Y21634D01*
X45059Y122461D02*
Y129154D01*
X58839D01*
Y122461D02*
Y129154D01*
X45059Y122461D02*
X58839D01*
X54882Y112343D02*
X57736D01*
Y115492D01*
X46319Y112343D02*
X49173D01*
X46319D02*
Y115492D01*
X51043Y117854D02*
X53012D01*
X59980Y116752D02*
Y123445D01*
X73760D01*
Y116752D02*
Y123445D01*
X59980Y116752D02*
X73760D01*
X59941Y109035D02*
Y115728D01*
X73721D01*
Y109035D02*
Y115728D01*
X59941Y109035D02*
X73721D01*
X44675Y114518D02*
Y121211D01*
X30896Y114518D02*
X44675D01*
X30896D02*
Y121211D01*
X44675D01*
X34429Y111535D02*
X41122D01*
Y97756D02*
Y111535D01*
X34429Y97756D02*
X41122D01*
X34429D02*
Y111535D01*
X48602Y94075D02*
X55295D01*
X48602D02*
Y107854D01*
X55295D01*
Y94075D02*
Y107854D01*
X135158Y172953D02*
Y179646D01*
X148937D01*
Y172953D02*
Y179646D01*
X135158Y172953D02*
X148937D01*
X135197Y165413D02*
Y172106D01*
X148976D01*
Y165413D02*
Y172106D01*
X135197Y165413D02*
X148976D01*
X135118Y157874D02*
Y164567D01*
X148898D01*
Y157874D02*
Y164567D01*
X135118Y157874D02*
X148898D01*
X134035Y131476D02*
X147815D01*
X134035Y124784D02*
Y131476D01*
Y124784D02*
X147815D01*
Y131476D01*
X134035Y123976D02*
X147815D01*
X134035Y117283D02*
Y123976D01*
Y117283D02*
X147815D01*
Y123976D01*
X133976Y115945D02*
X147756D01*
X133976Y109252D02*
Y115945D01*
Y109252D02*
X147756D01*
Y115945D01*
X134016Y108445D02*
X147795D01*
X134016Y101752D02*
Y108445D01*
Y101752D02*
X147795D01*
Y108445D01*
X115118Y145768D02*
Y152490D01*
Y153770D02*
Y160473D01*
X89527D02*
X115118D01*
X89527Y145768D02*
Y160473D01*
Y145768D02*
X115118D01*
X114626Y184134D02*
X121319D01*
Y170354D02*
Y184134D01*
X114626Y170354D02*
X121319D01*
X114626D02*
Y184134D01*
X87717Y187126D02*
X94410D01*
Y173346D02*
Y187126D01*
X87717Y173346D02*
X94410D01*
X87717D02*
Y187126D01*
X236221Y190925D02*
Y236221D01*
X0D02*
X236221D01*
Y158150D02*
Y190925D01*
X151358Y20D02*
Y93189D01*
X44587Y20D02*
X151358D01*
Y93189D02*
X236221D01*
X0Y0D02*
X44488D01*
X0Y181791D02*
X0Y0D01*
X236221Y93189D02*
Y158150D01*
X0Y181791D02*
Y236221D01*
X236201Y20D02*
X236201Y20D01*
D16*
X45397Y55150D02*
G03*
X45397Y55150I-707J0D01*
G01*
X115340Y137067D02*
G03*
X115340Y137067I-950J0D01*
G01*
D17*
X48040Y55800D02*
X54340D01*
Y60001D02*
Y61299D01*
X48040Y65500D02*
X54340D01*
X4346Y212214D02*
Y224864D01*
X33347Y204039D02*
Y204864D01*
X12521Y204039D02*
X25171D01*
X32522Y233039D02*
X33347D01*
Y212214D02*
Y224864D01*
X12521Y233039D02*
X25171D01*
X4346Y232214D02*
Y233039D01*
X5171D01*
X4346Y204039D02*
Y204864D01*
X32522Y204039D02*
X33347D01*
Y232214D02*
Y233039D01*
X-27654Y228089D02*
X3054D01*
X-27654Y208989D02*
Y228089D01*
Y208989D02*
X3054D01*
X5347Y213177D02*
Y223902D01*
X4346Y204039D02*
X5171D01*
D18*
X113386Y48012D02*
X114961D01*
Y61398D01*
X113386D02*
X114961D01*
X107874D02*
X109449D01*
X107874Y48012D02*
Y61398D01*
Y48012D02*
X109449D01*
X107874Y54705D02*
X114961D01*
D21*
X61296Y169290D02*
X61821Y169815D01*
X62871D01*
X63396Y169290D01*
Y167191D01*
X62871Y166666D01*
X61821D01*
X61296Y167191D01*
X60247Y169815D02*
X58148D01*
Y169290D01*
X60247Y167191D01*
Y166666D01*
X181254Y170809D02*
X181779Y171334D01*
X182828D01*
X183353Y170809D01*
Y168710D01*
X182828Y168185D01*
X181779D01*
X181254Y168710D01*
X180204Y168185D02*
X179155D01*
X179680D01*
Y171334D01*
X180204Y170809D01*
X175482Y171334D02*
X177581D01*
Y169760D01*
X176531Y170285D01*
X176006D01*
X175482Y169760D01*
Y168710D01*
X176006Y168185D01*
X177056D01*
X177581Y168710D01*
X40729Y169502D02*
X41254Y170027D01*
X42304D01*
X42829Y169502D01*
Y167403D01*
X42304Y166878D01*
X41254D01*
X40729Y167403D01*
X37581Y170027D02*
X38630Y169502D01*
X39680Y168453D01*
Y167403D01*
X39155Y166878D01*
X38106D01*
X37581Y167403D01*
Y167928D01*
X38106Y168453D01*
X39680D01*
X43878Y204847D02*
Y206946D01*
X42829Y207996D01*
X41779Y206946D01*
Y204847D01*
Y206421D01*
X43878D01*
X38630Y207996D02*
X40729D01*
Y204847D01*
X38630D01*
X40729Y206421D02*
X39680D01*
X37581Y204847D02*
X36531D01*
X37056D01*
Y207996D01*
X37581Y207471D01*
X121848Y154925D02*
Y152301D01*
X121324Y151776D01*
X120274D01*
X119749Y152301D01*
Y154925D01*
X116601Y151776D02*
X118700D01*
X116601Y153875D01*
Y154400D01*
X117125Y154925D01*
X118175D01*
X118700Y154400D01*
X157703Y159524D02*
Y162673D01*
X156129D01*
X155604Y162148D01*
Y161098D01*
X156129Y160574D01*
X157703D01*
X156654D02*
X155604Y159524D01*
X154555D02*
X153505D01*
X154030D01*
Y162673D01*
X154555Y162148D01*
X149832Y162673D02*
X151931D01*
Y161098D01*
X150882Y161623D01*
X150357D01*
X149832Y161098D01*
Y160049D01*
X150357Y159524D01*
X151406D01*
X151931Y160049D01*
X157703Y174961D02*
Y178110D01*
X156129D01*
X155604Y177585D01*
Y176535D01*
X156129Y176011D01*
X157703D01*
X156654D02*
X155604Y174961D01*
X154555D02*
X153505D01*
X154030D01*
Y178110D01*
X154555Y177585D01*
X150357Y174961D02*
Y178110D01*
X151931Y176535D01*
X149832D01*
X157755Y167268D02*
Y170417D01*
X156180D01*
X155656Y169892D01*
Y168842D01*
X156180Y168318D01*
X157755D01*
X156705D02*
X155656Y167268D01*
X154606D02*
X153557D01*
X154081D01*
Y170417D01*
X154606Y169892D01*
X151982D02*
X151457Y170417D01*
X150408D01*
X149883Y169892D01*
Y169367D01*
X150408Y168842D01*
X150933D01*
X150408D01*
X149883Y168318D01*
Y167793D01*
X150408Y167268D01*
X151457D01*
X151982Y167793D01*
X53491Y22611D02*
Y25759D01*
X51917D01*
X51392Y25235D01*
Y24185D01*
X51917Y23660D01*
X53491D01*
X52441D02*
X51392Y22611D01*
X50342D02*
X49293D01*
X49817D01*
Y25759D01*
X50342Y25235D01*
X45619Y22611D02*
X47718D01*
X45619Y24710D01*
Y25235D01*
X46144Y25759D01*
X47194D01*
X47718Y25235D01*
X22635Y52638D02*
Y55787D01*
X21061D01*
X20536Y55262D01*
Y54213D01*
X21061Y53688D01*
X22635D01*
X21586D02*
X20536Y52638D01*
X19487D02*
X18437D01*
X18962D01*
Y55787D01*
X19487Y55262D01*
X16863Y52638D02*
X15813D01*
X16338D01*
Y55787D01*
X16863Y55262D01*
X23333Y57091D02*
Y60240D01*
X21759D01*
X21234Y59715D01*
Y58665D01*
X21759Y58141D01*
X23333D01*
X22284D02*
X21234Y57091D01*
X20185D02*
X19135D01*
X19660D01*
Y60240D01*
X20185Y59715D01*
X17561D02*
X17036Y60240D01*
X15987D01*
X15462Y59715D01*
Y57616D01*
X15987Y57091D01*
X17036D01*
X17561Y57616D01*
Y59715D01*
X154545Y126650D02*
Y129799D01*
X152971D01*
X152446Y129274D01*
Y128224D01*
X152971Y127700D01*
X154545D01*
X153496D02*
X152446Y126650D01*
X151397Y127175D02*
X150872Y126650D01*
X149822D01*
X149297Y127175D01*
Y129274D01*
X149822Y129799D01*
X150872D01*
X151397Y129274D01*
Y128749D01*
X150872Y128224D01*
X149297D01*
X154612Y119115D02*
Y122263D01*
X153038D01*
X152513Y121739D01*
Y120689D01*
X153038Y120164D01*
X154612D01*
X153562D02*
X152513Y119115D01*
X151463Y121739D02*
X150939Y122263D01*
X149889D01*
X149364Y121739D01*
Y121214D01*
X149889Y120689D01*
X149364Y120164D01*
Y119640D01*
X149889Y119115D01*
X150939D01*
X151463Y119640D01*
Y120164D01*
X150939Y120689D01*
X151463Y121214D01*
Y121739D01*
X150939Y120689D02*
X149889D01*
X64994Y126036D02*
Y129184D01*
X63420D01*
X62895Y128660D01*
Y127610D01*
X63420Y127085D01*
X64994D01*
X63944D02*
X62895Y126036D01*
X61845Y129184D02*
X59746D01*
Y128660D01*
X61845Y126561D01*
Y126036D01*
X40297Y122300D02*
Y125448D01*
X38723D01*
X38198Y124924D01*
Y123874D01*
X38723Y123349D01*
X40297D01*
X39248D02*
X38198Y122300D01*
X35049Y125448D02*
X36099Y124924D01*
X37148Y123874D01*
Y122825D01*
X36624Y122300D01*
X35574D01*
X35049Y122825D01*
Y123349D01*
X35574Y123874D01*
X37148D01*
X79943Y110792D02*
Y113940D01*
X78368D01*
X77844Y113416D01*
Y112366D01*
X78368Y111841D01*
X79943D01*
X78893D02*
X77844Y110792D01*
X74695Y113940D02*
X76794D01*
Y112366D01*
X75745Y112891D01*
X75220D01*
X74695Y112366D01*
Y111317D01*
X75220Y110792D01*
X76269D01*
X76794Y111317D01*
X93557Y188752D02*
Y191901D01*
X91983D01*
X91458Y191376D01*
Y190327D01*
X91983Y189802D01*
X93557D01*
X92507D02*
X91458Y188752D01*
X88834D02*
Y191901D01*
X90408Y190327D01*
X88309D01*
X154411Y110981D02*
Y114129D01*
X152837D01*
X152312Y113605D01*
Y112555D01*
X152837Y112030D01*
X154411D01*
X153362D02*
X152312Y110981D01*
X151263Y113605D02*
X150738Y114129D01*
X149688D01*
X149164Y113605D01*
Y113080D01*
X149688Y112555D01*
X150213D01*
X149688D01*
X149164Y112030D01*
Y111506D01*
X149688Y110981D01*
X150738D01*
X151263Y111506D01*
X54596Y89851D02*
Y93000D01*
X53022D01*
X52497Y92475D01*
Y91425D01*
X53022Y90900D01*
X54596D01*
X53547D02*
X52497Y89851D01*
X49349D02*
X51448D01*
X49349Y91950D01*
Y92475D01*
X49873Y93000D01*
X50923D01*
X51448Y92475D01*
X153886Y103579D02*
Y106728D01*
X152312D01*
X151787Y106203D01*
Y105154D01*
X152312Y104629D01*
X153886D01*
X152837D02*
X151787Y103579D01*
X150738D02*
X149688D01*
X150213D01*
Y106728D01*
X150738Y106203D01*
X45485Y108321D02*
Y110420D01*
X46010Y110944D01*
X47060D01*
X47584Y110420D01*
Y108321D01*
X47060Y107796D01*
X46010D01*
X46535Y108845D02*
X45485Y107796D01*
X46010D02*
X45485Y108321D01*
X42337Y107796D02*
X44436D01*
X42337Y109895D01*
Y110420D01*
X42862Y110944D01*
X43911D01*
X44436Y110420D01*
X86890Y20464D02*
X87939D01*
X87414D01*
Y17840D01*
X87939Y17315D01*
X88464D01*
X88989Y17840D01*
X85840Y17315D02*
X84791D01*
X85316D01*
Y20464D01*
X85840Y19939D01*
X112621Y65720D02*
X114721D01*
Y64146D01*
X113671D01*
X114721D01*
Y62571D01*
X111572Y65720D02*
Y62571D01*
X109998D01*
X109473Y63096D01*
Y63621D01*
X109998Y64146D01*
X111572D01*
X109998D01*
X109473Y64670D01*
Y65195D01*
X109998Y65720D01*
X111572D01*
X108423Y62571D02*
X107374D01*
X107899D01*
Y65720D01*
X108423Y65195D01*
X26651Y87102D02*
Y83953D01*
X25077D01*
X24552Y84478D01*
Y86577D01*
X25077Y87102D01*
X26651D01*
X21404D02*
X23503D01*
Y85528D01*
X22453Y86052D01*
X21928D01*
X21404Y85528D01*
Y84478D01*
X21928Y83953D01*
X22978D01*
X23503Y84478D01*
X114575Y42252D02*
Y39103D01*
X113001D01*
X112476Y39628D01*
Y41727D01*
X113001Y42252D01*
X114575D01*
X111427Y39103D02*
X110377D01*
X110902D01*
Y42252D01*
X111427Y41727D01*
X52606Y69451D02*
X53131Y69976D01*
X54180D01*
X54705Y69451D01*
Y67352D01*
X54180Y66827D01*
X53131D01*
X52606Y67352D01*
X51556Y66827D02*
Y69976D01*
X49982D01*
X49457Y69451D01*
Y68402D01*
X49982Y67877D01*
X51556D01*
X50507D02*
X49457Y66827D01*
X48408D02*
X47358D01*
X47883D01*
Y69976D01*
X48408Y69451D01*
X61309Y32884D02*
X61834Y32359D01*
Y31310D01*
X61309Y30785D01*
X59210D01*
X58685Y31310D01*
Y32359D01*
X59210Y32884D01*
X58685Y33933D02*
Y34983D01*
Y34458D01*
X61834D01*
X61309Y33933D01*
X58685Y38131D02*
X61834D01*
X60260Y36557D01*
Y38656D01*
X53526Y32907D02*
X54051Y32383D01*
Y31333D01*
X53526Y30808D01*
X51427D01*
X50902Y31333D01*
Y32383D01*
X51427Y32907D01*
X50902Y33957D02*
Y35006D01*
Y34482D01*
X54051D01*
X53526Y33957D01*
Y36581D02*
X54051Y37106D01*
Y38155D01*
X53526Y38680D01*
X53001D01*
X52476Y38155D01*
Y37630D01*
Y38155D01*
X51952Y38680D01*
X51427D01*
X50902Y38155D01*
Y37106D01*
X51427Y36581D01*
X46089Y32974D02*
X46614Y32450D01*
Y31400D01*
X46089Y30875D01*
X43990D01*
X43465Y31400D01*
Y32450D01*
X43990Y32974D01*
X43465Y34024D02*
Y35073D01*
Y34549D01*
X46614D01*
X46089Y34024D01*
X43465Y38747D02*
Y36648D01*
X45564Y38747D01*
X46089D01*
X46614Y38222D01*
Y37172D01*
X46089Y36648D01*
X38296Y96026D02*
X38821Y96551D01*
X39871D01*
X40396Y96026D01*
Y93927D01*
X39871Y93402D01*
X38821D01*
X38296Y93927D01*
X37247Y96026D02*
X36722Y96551D01*
X35673D01*
X35148Y96026D01*
Y95501D01*
X35673Y94976D01*
X35148Y94452D01*
Y93927D01*
X35673Y93402D01*
X36722D01*
X37247Y93927D01*
Y94452D01*
X36722Y94976D01*
X37247Y95501D01*
Y96026D01*
X36722Y94976D02*
X35673D01*
X118493Y188152D02*
X119018Y188677D01*
X120068D01*
X120592Y188152D01*
Y186053D01*
X120068Y185528D01*
X119018D01*
X118493Y186053D01*
X115345Y188677D02*
X117444D01*
Y187102D01*
X116394Y187627D01*
X115869D01*
X115345Y187102D01*
Y186053D01*
X115869Y185528D01*
X116919D01*
X117444Y186053D01*
X77651Y121136D02*
X78175Y121661D01*
X79225D01*
X79750Y121136D01*
Y119037D01*
X79225Y118512D01*
X78175D01*
X77651Y119037D01*
X75027Y118512D02*
Y121661D01*
X76601Y120087D01*
X74502D01*
X95048Y28077D02*
X95573Y28602D01*
X96623D01*
X97147Y28077D01*
Y25978D01*
X96623Y25453D01*
X95573D01*
X95048Y25978D01*
X93999Y28077D02*
X93474Y28602D01*
X92424D01*
X91900Y28077D01*
Y27552D01*
X92424Y27028D01*
X92949D01*
X92424D01*
X91900Y26503D01*
Y25978D01*
X92424Y25453D01*
X93474D01*
X93999Y25978D01*
X74214Y28191D02*
X74739Y28716D01*
X75788D01*
X76313Y28191D01*
Y26092D01*
X75788Y25567D01*
X74739D01*
X74214Y26092D01*
X71065Y25567D02*
X73164D01*
X71065Y27667D01*
Y28191D01*
X71590Y28716D01*
X72639D01*
X73164Y28191D01*
X124295Y45939D02*
X124820Y46464D01*
X125870D01*
X126394Y45939D01*
Y43840D01*
X125870Y43316D01*
X124820D01*
X124295Y43840D01*
X123246Y43316D02*
X122196D01*
X122721D01*
Y46464D01*
X123246Y45939D01*
X165733Y207425D02*
X166783D01*
X166258D01*
Y204801D01*
X166783Y204276D01*
X167308D01*
X167833Y204801D01*
X163110Y204276D02*
Y207425D01*
X164684Y205850D01*
X162585D01*
D104*
X68515Y161911D02*
D03*
X53059Y161908D02*
D03*
X171743Y163169D02*
D03*
X187194Y163170D02*
D03*
X48023Y161872D02*
D03*
X32567Y161869D02*
D03*
X66425Y61239D02*
D03*
X81881Y61241D02*
D03*
X86897Y61358D02*
D03*
X102355Y61358D02*
D03*
D105*
X73228Y230789D02*
D03*
M02*
