G04*
G04 #@! TF.GenerationSoftware,Altium Limited,Altium Designer,21.2.2 (38)*
G04*
G04 Layer_Color=8388736*
%FSLAX25Y25*%
%MOIN*%
G70*
G04*
G04 #@! TF.SameCoordinates,6CE54949-C0DA-46BE-907D-7ABA0CCCE0FB*
G04*
G04*
G04 #@! TF.FilePolarity,Negative*
G04*
G01*
G75*
%ADD15C,0.00787*%
%ADD41R,0.07493X0.05918*%
%ADD42R,0.02375X0.03162*%
%ADD43R,0.03162X0.02375*%
%ADD44R,0.08674X0.02965*%
%ADD45R,0.04737X0.04737*%
%ADD46C,0.04737*%
%ADD47R,0.04343X0.05524*%
%ADD48R,0.04934X0.05524*%
%ADD49R,0.02965X0.03162*%
%ADD50R,0.04343X0.03950*%
%ADD51R,0.06312X0.08674*%
%ADD52R,0.13398X0.22060*%
%ADD53R,0.10839X0.10446*%
%ADD54R,0.09265X0.10446*%
%ADD55R,0.08674X0.03162*%
%ADD56R,0.05131X0.07099*%
%ADD57R,0.07099X0.05131*%
%ADD58R,0.03162X0.08674*%
%ADD59C,0.06902*%
G04:AMPARAMS|DCode=60|XSize=69.02mil|YSize=69.02mil|CornerRadius=19.26mil|HoleSize=0mil|Usage=FLASHONLY|Rotation=0.000|XOffset=0mil|YOffset=0mil|HoleType=Round|Shape=RoundedRectangle|*
%AMROUNDEDRECTD60*
21,1,0.06902,0.03051,0,0,0.0*
21,1,0.03051,0.06902,0,0,0.0*
1,1,0.03851,0.01526,-0.01526*
1,1,0.03851,-0.01526,-0.01526*
1,1,0.03851,-0.01526,0.01526*
1,1,0.03851,0.01526,0.01526*
%
%ADD60ROUNDEDRECTD60*%
%ADD61O,0.04343X0.07099*%
%ADD62C,0.06000*%
%ADD63C,0.06700*%
%ADD64C,0.09800*%
%ADD65C,0.08000*%
G36*
X234016Y199469D02*
X191339D01*
Y233878D01*
X234016D01*
Y199469D01*
D02*
G37*
G36*
X228307Y167972D02*
X223819D01*
Y181909D01*
X228307D01*
Y167972D01*
D02*
G37*
G36*
X221614D02*
X217126D01*
Y181909D01*
X221614D01*
Y167972D01*
D02*
G37*
G36*
X214921D02*
X210433D01*
Y181909D01*
X214921D01*
Y167972D01*
D02*
G37*
G36*
X208228D02*
X203740D01*
Y181909D01*
X208228D01*
Y167972D01*
D02*
G37*
G36*
X201535D02*
X197047D01*
Y181909D01*
X201535D01*
Y167972D01*
D02*
G37*
D15*
X236221Y190925D02*
Y236221D01*
X0D02*
X236221D01*
Y158150D02*
Y190925D01*
X151358Y20D02*
Y93189D01*
X44587Y20D02*
X151358D01*
Y93189D02*
X236221D01*
X0Y0D02*
X44488D01*
X0Y181791D02*
X0Y0D01*
X236221Y93189D02*
Y158150D01*
X0Y181791D02*
Y236221D01*
X236201Y20D02*
X236201Y20D01*
D41*
X133555Y46181D02*
D03*
Y36181D02*
D03*
Y26181D02*
D03*
X32370Y46181D02*
D03*
Y36181D02*
D03*
Y26181D02*
D03*
D42*
X140650Y130787D02*
D03*
X143405D02*
D03*
X121181Y76575D02*
D03*
X123937D02*
D03*
D43*
X18445Y30472D02*
D03*
Y33228D02*
D03*
D44*
X135374Y89882D02*
D03*
Y77087D02*
D03*
X10295Y30453D02*
D03*
Y17658D02*
D03*
D45*
X4287Y2902D02*
D03*
X15311D02*
D03*
D46*
X2913Y164803D02*
D03*
X147559Y154764D02*
D03*
X139488Y154803D02*
D03*
X153524Y149705D02*
D03*
X136161Y134272D02*
D03*
X135374Y94784D02*
D03*
X164389Y141791D02*
D03*
X171437Y103898D02*
D03*
X3071Y145197D02*
D03*
X2776Y137165D02*
D03*
X3248Y129626D02*
D03*
X2736Y97894D02*
D03*
X3130Y123248D02*
D03*
D47*
X180138Y177323D02*
D03*
X188406D02*
D03*
X180217Y169370D02*
D03*
X188484D02*
D03*
X165571Y169311D02*
D03*
X173839D02*
D03*
X173819Y161673D02*
D03*
X165551D02*
D03*
X149705Y176122D02*
D03*
X141437D02*
D03*
X141476Y168583D02*
D03*
X149744D02*
D03*
X141398Y161043D02*
D03*
X149665D02*
D03*
X173760Y177342D02*
D03*
X165492D02*
D03*
D48*
X166024Y154075D02*
D03*
X173504D02*
D03*
D49*
X144153Y149724D02*
D03*
X140807D02*
D03*
X151476Y144587D02*
D03*
X148130D02*
D03*
X144134Y139409D02*
D03*
X140787D02*
D03*
D50*
X148248Y117067D02*
D03*
Y124547D02*
D03*
X140374Y120807D02*
D03*
Y108209D02*
D03*
X148248Y111949D02*
D03*
Y104469D02*
D03*
D51*
X158563Y134784D02*
D03*
X172736D02*
D03*
D52*
X187165Y138504D02*
D03*
X226929D02*
D03*
D53*
X197283Y104232D02*
D03*
X221102D02*
D03*
D54*
X180591Y225689D02*
D03*
Y208760D02*
D03*
D55*
X128484Y145158D02*
D03*
Y149094D02*
D03*
X10374Y180591D02*
D03*
Y176654D02*
D03*
Y172717D02*
D03*
Y168780D02*
D03*
Y164842D02*
D03*
X128484Y101850D02*
D03*
X128484Y105787D02*
D03*
Y109724D02*
D03*
Y113661D02*
D03*
Y117598D02*
D03*
Y121535D02*
D03*
Y125472D02*
D03*
Y129409D02*
D03*
Y133346D02*
D03*
Y137284D02*
D03*
Y141220D02*
D03*
Y153032D02*
D03*
Y156968D02*
D03*
Y160906D02*
D03*
Y164842D02*
D03*
X128484Y168780D02*
D03*
X128484Y172717D02*
D03*
Y176654D02*
D03*
Y180591D02*
D03*
X10374Y160906D02*
D03*
Y156968D02*
D03*
Y153032D02*
D03*
Y149094D02*
D03*
Y145158D02*
D03*
Y141220D02*
D03*
Y137284D02*
D03*
Y133346D02*
D03*
Y129409D02*
D03*
Y125472D02*
D03*
Y121535D02*
D03*
Y117598D02*
D03*
Y113661D02*
D03*
Y109724D02*
D03*
Y105787D02*
D03*
Y101850D02*
D03*
Y97913D02*
D03*
D56*
X94232Y92008D02*
D03*
X87146Y92008D02*
D03*
X80059D02*
D03*
X72973D02*
D03*
X65886Y92008D02*
D03*
X58799D02*
D03*
X51713D02*
D03*
X44626Y186496D02*
D03*
X51713D02*
D03*
X58799D02*
D03*
X65886D02*
D03*
X72972D02*
D03*
X80059D02*
D03*
X87146D02*
D03*
X44626Y92008D02*
D03*
X94232Y186496D02*
D03*
D57*
X22185Y114449D02*
D03*
Y121535D02*
D03*
Y128622D02*
D03*
Y135709D02*
D03*
X22185Y142795D02*
D03*
Y149882D02*
D03*
X22185Y156968D02*
D03*
Y164055D02*
D03*
X116673Y121535D02*
D03*
Y128622D02*
D03*
Y135709D02*
D03*
Y142795D02*
D03*
Y149882D02*
D03*
Y156968D02*
D03*
Y164055D02*
D03*
Y114449D02*
D03*
D58*
X110768Y198307D02*
D03*
X106831D02*
D03*
X102894D02*
D03*
X98957D02*
D03*
X95020D02*
D03*
X91083D02*
D03*
X87146D02*
D03*
X83209D02*
D03*
X79272D02*
D03*
X75335D02*
D03*
X71398D02*
D03*
X67461D02*
D03*
X63524D02*
D03*
X59587D02*
D03*
X55650D02*
D03*
X51713D02*
D03*
X47776D02*
D03*
X43839D02*
D03*
X39902Y198307D02*
D03*
X35965Y198307D02*
D03*
X32028D02*
D03*
X28091D02*
D03*
X55650Y80197D02*
D03*
X59587D02*
D03*
X63524D02*
D03*
X67461D02*
D03*
X71398D02*
D03*
X75335D02*
D03*
X79272D02*
D03*
X83209D02*
D03*
X87146D02*
D03*
X91083D02*
D03*
X95020D02*
D03*
X98957D02*
D03*
X102894D02*
D03*
X106831D02*
D03*
X110768D02*
D03*
X28091D02*
D03*
X32028D02*
D03*
X35965D02*
D03*
X39902D02*
D03*
X43839D02*
D03*
X47776D02*
D03*
X51713D02*
D03*
D59*
X163110Y215079D02*
D03*
X153110D02*
D03*
X143110D02*
D03*
X133110D02*
D03*
X123110D02*
D03*
X113110D02*
D03*
X103110D02*
D03*
X93110D02*
D03*
X83110D02*
D03*
X73110D02*
D03*
X163110Y225079D02*
D03*
X153110D02*
D03*
X143110D02*
D03*
X133110D02*
D03*
X123110D02*
D03*
X113110D02*
D03*
X103110D02*
D03*
X93110D02*
D03*
X83110D02*
D03*
D60*
X73110D02*
D03*
D61*
X59842Y6752D02*
D03*
X85827D02*
D03*
D62*
X8996Y64114D02*
D03*
Y56240D02*
D03*
Y48366D02*
D03*
D63*
Y71988D02*
D03*
Y40492D02*
D03*
D64*
X8846Y208539D02*
D03*
X28846D02*
D03*
Y228539D02*
D03*
X8846D02*
D03*
D65*
X18846Y218539D02*
D03*
M02*
