G04*
G04 #@! TF.GenerationSoftware,Altium Limited,Altium Designer,21.2.2 (38)*
G04*
G04 Layer_Color=8388736*
%FSLAX44Y44*%
%MOMM*%
G71*
G04*
G04 #@! TF.SameCoordinates,5D373D79-2AE2-4A4B-8A42-8ECBCE4D18FA*
G04*
G04*
G04 #@! TF.FilePolarity,Negative*
G04*
G01*
G75*
%ADD10C,0.2000*%
%ADD43R,1.0032X1.2032*%
%ADD44R,1.7032X0.9032*%
%ADD45R,1.9032X1.0032*%
%ADD46R,1.9032X1.5032*%
%ADD47R,0.6032X0.8032*%
%ADD48R,0.8032X0.6032*%
%ADD49R,1.2032X1.2032*%
%ADD50C,1.2032*%
%ADD51R,1.1032X1.4032*%
%ADD52R,1.2532X1.4032*%
%ADD53R,0.7532X0.8032*%
%ADD54R,1.1032X1.0032*%
%ADD55R,1.6032X2.2032*%
%ADD56R,3.4032X5.6032*%
%ADD57R,2.7532X2.6532*%
%ADD58R,2.3532X2.6532*%
%ADD59R,2.2032X0.8032*%
%ADD60R,1.3032X1.8032*%
%ADD61R,1.8032X1.3032*%
%ADD62R,0.8032X2.2032*%
%ADD63C,0.5032*%
%ADD64C,2.3032*%
%ADD65C,2.4532*%
%ADD66C,1.7532*%
G04:AMPARAMS|DCode=67|XSize=1.7532mm|YSize=1.7532mm|CornerRadius=0.4891mm|HoleSize=0mm|Usage=FLASHONLY|Rotation=0.000|XOffset=0mm|YOffset=0mm|HoleType=Round|Shape=RoundedRectangle|*
%AMROUNDEDRECTD67*
21,1,1.7532,0.7750,0,0,0.0*
21,1,0.7750,1.7532,0,0,0.0*
1,1,0.9782,0.3875,-0.3875*
1,1,0.9782,-0.3875,-0.3875*
1,1,0.9782,-0.3875,0.3875*
1,1,0.9782,0.3875,0.3875*
%
%ADD67ROUNDEDRECTD67*%
%ADD68O,1.1032X1.8032*%
%ADD69C,0.8032*%
G36*
X594400Y506650D02*
X486000D01*
Y594050D01*
X594400D01*
Y506650D01*
D02*
G37*
G36*
X579900Y426650D02*
X568500D01*
Y462050D01*
X579900D01*
Y426650D01*
D02*
G37*
G36*
X562900D02*
X551500D01*
Y462050D01*
X562900D01*
Y426650D01*
D02*
G37*
G36*
X545900D02*
X534500D01*
Y462050D01*
X545900D01*
Y426650D01*
D02*
G37*
G36*
X528900D02*
X517500D01*
Y462050D01*
X528900D01*
Y426650D01*
D02*
G37*
G36*
X511900D02*
X500500D01*
Y462050D01*
X511900D01*
Y426650D01*
D02*
G37*
D10*
X600000Y484950D02*
Y600000D01*
X0D02*
X600000D01*
Y401700D02*
Y484950D01*
X384450Y50D02*
Y236700D01*
X113250Y50D02*
X384450D01*
Y236700D02*
X600000D01*
X0Y0D02*
X113000D01*
X0Y461750D02*
X0Y0D01*
X600000Y236700D02*
Y401700D01*
X0Y461750D02*
Y600000D01*
D43*
X28320Y100350D02*
D03*
X6320Y173350D02*
D03*
X28320D02*
D03*
X6320Y100350D02*
D03*
D44*
X34820Y159350D02*
D03*
Y129350D02*
D03*
Y114350D02*
D03*
D45*
X343850Y195050D02*
D03*
Y229050D02*
D03*
X26150Y44100D02*
D03*
Y78100D02*
D03*
D46*
X82220Y66500D02*
D03*
Y91900D02*
D03*
Y117300D02*
D03*
X339230Y66500D02*
D03*
Y91900D02*
D03*
Y117300D02*
D03*
D47*
X357250Y332200D02*
D03*
X364250D02*
D03*
X307800Y194500D02*
D03*
X314800D02*
D03*
D48*
X46850Y77400D02*
D03*
Y84400D02*
D03*
D49*
X10890Y7370D02*
D03*
X38890D02*
D03*
D50*
X7400Y418600D02*
D03*
X374800Y393100D02*
D03*
X354300Y393200D02*
D03*
X389950Y380250D02*
D03*
X345850Y341050D02*
D03*
X343850Y240750D02*
D03*
X417548Y360150D02*
D03*
X435450Y263900D02*
D03*
X7800Y368800D02*
D03*
X7050Y348400D02*
D03*
X8250Y329250D02*
D03*
X6950Y248650D02*
D03*
X7950Y313050D02*
D03*
D51*
X457550Y450400D02*
D03*
X478550D02*
D03*
X457750Y430200D02*
D03*
X478750D02*
D03*
X420550Y430050D02*
D03*
X441550D02*
D03*
X441500Y410650D02*
D03*
X420500D02*
D03*
X380250Y447350D02*
D03*
X359250D02*
D03*
X359350Y428200D02*
D03*
X380350D02*
D03*
X359150Y409050D02*
D03*
X380150D02*
D03*
X441350Y450450D02*
D03*
X420350D02*
D03*
D52*
X421700Y391350D02*
D03*
X440700D02*
D03*
D53*
X366150Y380300D02*
D03*
X357650D02*
D03*
X384750Y367250D02*
D03*
X376250D02*
D03*
X366100Y354100D02*
D03*
X357600D02*
D03*
D54*
X376550Y297350D02*
D03*
Y316350D02*
D03*
X356550Y306850D02*
D03*
Y274850D02*
D03*
X376550Y284350D02*
D03*
Y265350D02*
D03*
D55*
X402750Y342352D02*
D03*
X438750D02*
D03*
D56*
X475400Y351800D02*
D03*
X576400D02*
D03*
D57*
X501100Y264750D02*
D03*
X561600D02*
D03*
D58*
X458700Y573250D02*
D03*
Y530250D02*
D03*
D59*
X326350Y368700D02*
D03*
Y378700D02*
D03*
X26350Y458700D02*
D03*
Y448700D02*
D03*
Y438700D02*
D03*
Y428700D02*
D03*
Y418700D02*
D03*
X326350Y258700D02*
D03*
X326350Y268700D02*
D03*
Y278700D02*
D03*
Y288700D02*
D03*
Y298700D02*
D03*
Y308700D02*
D03*
Y318700D02*
D03*
Y328700D02*
D03*
Y338700D02*
D03*
Y348700D02*
D03*
Y358700D02*
D03*
Y388700D02*
D03*
Y398700D02*
D03*
Y408700D02*
D03*
Y418700D02*
D03*
X326350Y428700D02*
D03*
X326350Y438700D02*
D03*
Y448700D02*
D03*
Y458700D02*
D03*
X26350Y408700D02*
D03*
Y398700D02*
D03*
Y388700D02*
D03*
Y378700D02*
D03*
Y368700D02*
D03*
Y358700D02*
D03*
Y348700D02*
D03*
Y338700D02*
D03*
Y328700D02*
D03*
Y318700D02*
D03*
Y308700D02*
D03*
Y298700D02*
D03*
Y288700D02*
D03*
Y278700D02*
D03*
Y268700D02*
D03*
Y258700D02*
D03*
Y248700D02*
D03*
D60*
X239350Y233700D02*
D03*
X221350Y233700D02*
D03*
X203350D02*
D03*
X185350D02*
D03*
X167350Y233700D02*
D03*
X149350D02*
D03*
X131350D02*
D03*
X113350Y473700D02*
D03*
X131350D02*
D03*
X149350D02*
D03*
X167350D02*
D03*
X185350D02*
D03*
X203350D02*
D03*
X221350D02*
D03*
X113350Y233700D02*
D03*
X239350Y473700D02*
D03*
D61*
X56350Y290700D02*
D03*
Y308700D02*
D03*
Y326700D02*
D03*
Y344700D02*
D03*
X56350Y362700D02*
D03*
Y380700D02*
D03*
X56350Y398700D02*
D03*
Y416700D02*
D03*
X296350Y308700D02*
D03*
Y326700D02*
D03*
Y344700D02*
D03*
Y362700D02*
D03*
Y380700D02*
D03*
Y398700D02*
D03*
Y416700D02*
D03*
Y290700D02*
D03*
D62*
X281350Y503700D02*
D03*
X271350D02*
D03*
X261350D02*
D03*
X251350D02*
D03*
X241350D02*
D03*
X231350D02*
D03*
X221350D02*
D03*
X211350D02*
D03*
X201350D02*
D03*
X191350D02*
D03*
X181350D02*
D03*
X171350D02*
D03*
X161350D02*
D03*
X151350D02*
D03*
X141350D02*
D03*
X131350D02*
D03*
X121350D02*
D03*
X111350D02*
D03*
X101350Y503700D02*
D03*
X91350Y503700D02*
D03*
X81350D02*
D03*
X71350D02*
D03*
X141350Y203700D02*
D03*
X151350D02*
D03*
X161350D02*
D03*
X171350D02*
D03*
X181350D02*
D03*
X191350D02*
D03*
X201350D02*
D03*
X211350D02*
D03*
X221350D02*
D03*
X231350D02*
D03*
X241350D02*
D03*
X251350D02*
D03*
X261350D02*
D03*
X271350D02*
D03*
X281350D02*
D03*
X71350D02*
D03*
X81350D02*
D03*
X91350D02*
D03*
X101350D02*
D03*
X111350D02*
D03*
X121350D02*
D03*
X131350D02*
D03*
D63*
X17320Y121850D02*
D03*
Y151850D02*
D03*
D64*
X43920Y556210D02*
D03*
D65*
X69420Y530710D02*
D03*
X18420D02*
D03*
Y581710D02*
D03*
X69420D02*
D03*
D66*
X414300Y546300D02*
D03*
X388900D02*
D03*
X363500D02*
D03*
X338100D02*
D03*
X312700D02*
D03*
X287300D02*
D03*
X261900D02*
D03*
X236500D02*
D03*
X211100D02*
D03*
X185700D02*
D03*
X414300Y571700D02*
D03*
X388900D02*
D03*
X363500D02*
D03*
X338100D02*
D03*
X312700D02*
D03*
X287300D02*
D03*
X261900D02*
D03*
X236500D02*
D03*
X211100D02*
D03*
D67*
X185700D02*
D03*
D68*
X152000Y17150D02*
D03*
X218000D02*
D03*
D69*
X28560Y67110D02*
D03*
X48030Y149000D02*
D03*
X49350Y138200D02*
D03*
X39530Y102680D02*
D03*
M02*
