G04*
G04 #@! TF.GenerationSoftware,Altium Limited,Altium Designer,21.2.2 (38)*
G04*
G04 Layer_Physical_Order=1*
G04 Layer_Color=255*
%FSLAX25Y25*%
%MOIN*%
G70*
G04*
G04 #@! TF.SameCoordinates,3B8D8C8F-B8B0-4305-BFF5-38056C6EFB40*
G04*
G04*
G04 #@! TF.FilePolarity,Positive*
G04*
G01*
G75*
%ADD10C,0.00787*%
%ADD11C,0.00984*%
%ADD12C,0.01968*%
%ADD17C,0.01000*%
%ADD23C,0.00197*%
%ADD24R,0.06693X0.05118*%
%ADD25R,0.03150X0.03937*%
%ADD26R,0.05906X0.02756*%
%ADD27R,0.06693X0.03150*%
%ADD28R,0.01575X0.02362*%
%ADD29R,0.02362X0.01575*%
%ADD30R,0.03937X0.03937*%
%ADD31C,0.03937*%
%ADD32R,0.03543X0.04724*%
%ADD33R,0.04134X0.04724*%
%ADD34R,0.02165X0.02362*%
%ADD35R,0.03543X0.03150*%
%ADD36R,0.05512X0.07874*%
%ADD37R,0.12598X0.21260*%
%ADD38R,0.10039X0.09646*%
%ADD39R,0.08465X0.09646*%
%ADD40R,0.07874X0.02362*%
%ADD41R,0.04331X0.06299*%
%ADD42R,0.06299X0.04331*%
%ADD43R,0.02362X0.07874*%
%ADD71R,0.42126X0.33858*%
%ADD72R,0.03937X0.13386*%
%ADD73C,0.01378*%
%ADD74C,0.01181*%
%ADD75C,0.06102*%
G04:AMPARAMS|DCode=76|XSize=61.02mil|YSize=61.02mil|CornerRadius=15.26mil|HoleSize=0mil|Usage=FLASHONLY|Rotation=0.000|XOffset=0mil|YOffset=0mil|HoleType=Round|Shape=RoundedRectangle|*
%AMROUNDEDRECTD76*
21,1,0.06102,0.03051,0,0,0.0*
21,1,0.03051,0.06102,0,0,0.0*
1,1,0.03051,0.01526,-0.01526*
1,1,0.03051,-0.01526,-0.01526*
1,1,0.03051,-0.01526,0.01526*
1,1,0.03051,0.01526,0.01526*
%
%ADD76ROUNDEDRECTD76*%
%ADD77C,0.08858*%
%ADD78C,0.08268*%
%ADD79O,0.03543X0.06299*%
%ADD80C,0.02362*%
G36*
X116929Y227567D02*
X116429Y227433D01*
X116352Y227566D01*
X115598Y228321D01*
X114674Y228854D01*
X114094Y229009D01*
Y225079D01*
Y221148D01*
X114674Y221304D01*
X115598Y221837D01*
X116352Y222591D01*
X116429Y222725D01*
X116929Y222591D01*
Y218231D01*
X116429Y218024D01*
X115830Y218623D01*
X114820Y219206D01*
X113693Y219508D01*
X112527D01*
X111401Y219206D01*
X110391Y218623D01*
X109566Y217798D01*
X108983Y216788D01*
X108681Y215662D01*
Y214496D01*
X108983Y213369D01*
X109566Y212359D01*
X110391Y211535D01*
X111401Y210951D01*
X112527Y210650D01*
X113693D01*
X114544Y210878D01*
X116929Y208493D01*
Y202776D01*
X113327D01*
Y203622D01*
X65945D01*
Y233898D01*
X116929D01*
Y227567D01*
D02*
G37*
G36*
X190614Y233917D02*
Y217717D01*
X170472D01*
Y206693D01*
X154158D01*
X153966Y207155D01*
X154616Y207805D01*
X155139Y208586D01*
X155322Y209508D01*
Y211241D01*
X155830Y211535D01*
X156654Y212359D01*
X157238Y213369D01*
X157539Y214496D01*
Y215662D01*
X157238Y216788D01*
X156654Y217798D01*
X155830Y218623D01*
X154820Y219206D01*
X153693Y219508D01*
X152527D01*
X151401Y219206D01*
X150391Y218623D01*
X149566Y217798D01*
X148983Y216788D01*
X148681Y215662D01*
Y214496D01*
X148983Y213369D01*
X149566Y212359D01*
X150391Y211535D01*
X150505Y211469D01*
Y210538D01*
X145104D01*
X144970Y211038D01*
X145830Y211535D01*
X146654Y212359D01*
X147238Y213369D01*
X147539Y214496D01*
Y215662D01*
X147238Y216788D01*
X146654Y217798D01*
X145830Y218623D01*
X144820Y219206D01*
X143693Y219508D01*
X142527D01*
X141401Y219206D01*
X140391Y218623D01*
X139566Y217798D01*
X138983Y216788D01*
X138681Y215662D01*
Y214496D01*
X138983Y213369D01*
X139566Y212359D01*
X140391Y211535D01*
X141250Y211038D01*
X141116Y210538D01*
X139186D01*
X138624Y210689D01*
X137951D01*
X137300Y210515D01*
X136716Y210178D01*
X136240Y209701D01*
X135903Y209118D01*
X135728Y208467D01*
Y207793D01*
X135889Y207193D01*
X135849Y207017D01*
X135662Y206693D01*
X128470D01*
Y207731D01*
X131630Y210890D01*
X132527Y210650D01*
X133693D01*
X134820Y210951D01*
X135830Y211535D01*
X136654Y212359D01*
X137238Y213369D01*
X137539Y214496D01*
Y215662D01*
X137238Y216788D01*
X136654Y217798D01*
X135830Y218623D01*
X134820Y219206D01*
X133693Y219508D01*
X132527D01*
X131401Y219206D01*
X130391Y218623D01*
X129566Y217798D01*
X128983Y216788D01*
X128681Y215662D01*
Y214496D01*
X128922Y213598D01*
X125525Y210201D01*
X125025Y210408D01*
Y211070D01*
X125830Y211535D01*
X126654Y212359D01*
X127237Y213369D01*
X127539Y214496D01*
Y215662D01*
X127237Y216788D01*
X126654Y217798D01*
X125830Y218623D01*
X124820Y219206D01*
X123693Y219508D01*
X122527D01*
X121401Y219206D01*
X120391Y218623D01*
X119791Y218024D01*
X119291Y218231D01*
Y222591D01*
X119791Y222725D01*
X119869Y222591D01*
X120623Y221837D01*
X121546Y221304D01*
X122126Y221148D01*
Y225079D01*
Y229009D01*
X121546Y228854D01*
X120623Y228321D01*
X119869Y227566D01*
X119791Y227433D01*
X119291Y227567D01*
Y233917D01*
X190614Y233917D01*
D02*
G37*
G36*
X64114Y203622D02*
X41280D01*
Y203244D01*
X40886D01*
Y198307D01*
Y193370D01*
X41102D01*
Y191024D01*
X41083D01*
Y181968D01*
X41102D01*
Y171043D01*
X19252D01*
Y191535D01*
X19842Y192126D01*
X29111D01*
X29462Y191626D01*
X29370Y191282D01*
Y190608D01*
X29544Y189957D01*
X29881Y189374D01*
X30358Y188897D01*
X30941Y188560D01*
X31592Y188386D01*
X32266D01*
X32917Y188560D01*
X33500Y188897D01*
X33977Y189374D01*
X34314Y189957D01*
X34488Y190608D01*
Y191282D01*
X34314Y191933D01*
X34135Y192242D01*
Y192992D01*
X34587D01*
Y193370D01*
X34980D01*
Y198307D01*
Y203244D01*
X34587D01*
Y203622D01*
X34016D01*
Y205602D01*
X37595D01*
X37610Y205587D01*
Y233748D01*
X37622Y233819D01*
X64114D01*
X64114Y203622D01*
D02*
G37*
G36*
X190236Y198366D02*
X200170D01*
Y196424D01*
X200086Y196219D01*
X199998Y195551D01*
X200086Y194883D01*
X200343Y194261D01*
X200754Y193726D01*
X201288Y193316D01*
X201911Y193058D01*
X202579Y192970D01*
X203247Y193058D01*
X203869Y193316D01*
X204404Y193726D01*
X204814Y194261D01*
X205072Y194883D01*
X205160Y195551D01*
X205072Y196219D01*
X204987Y196424D01*
Y198366D01*
X206627D01*
Y196266D01*
X206542Y196062D01*
X206454Y195394D01*
X206542Y194726D01*
X206800Y194103D01*
X207210Y193569D01*
X207745Y193158D01*
X208367Y192901D01*
X209035Y192813D01*
X209703Y192901D01*
X210326Y193158D01*
X210861Y193569D01*
X211271Y194103D01*
X211529Y194726D01*
X211617Y195394D01*
X211529Y196062D01*
X211444Y196266D01*
Y198366D01*
X213005D01*
Y196325D01*
X212920Y196121D01*
X212832Y195453D01*
X212920Y194785D01*
X213178Y194162D01*
X213588Y193628D01*
X214123Y193217D01*
X214745Y192960D01*
X215413Y192872D01*
X216081Y192960D01*
X216704Y193217D01*
X217238Y193628D01*
X217649Y194162D01*
X217907Y194785D01*
X217994Y195453D01*
X217907Y196121D01*
X217822Y196325D01*
Y198366D01*
X219147D01*
Y196207D01*
X219062Y196003D01*
X218974Y195335D01*
X219062Y194667D01*
X219320Y194044D01*
X219730Y193509D01*
X220265Y193099D01*
X220887Y192841D01*
X221555Y192754D01*
X222223Y192841D01*
X222846Y193099D01*
X223380Y193509D01*
X223790Y194044D01*
X224048Y194667D01*
X224136Y195335D01*
X224048Y196003D01*
X223964Y196207D01*
Y198366D01*
X225485D01*
Y196207D01*
X225400Y196003D01*
X225313Y195335D01*
X225400Y194667D01*
X225658Y194044D01*
X226069Y193509D01*
X226603Y193099D01*
X227226Y192841D01*
X227894Y192754D01*
X228562Y192841D01*
X229184Y193099D01*
X229719Y193509D01*
X230129Y194044D01*
X230387Y194667D01*
X230475Y195335D01*
X230387Y196003D01*
X230302Y196207D01*
Y198366D01*
X234193D01*
X234193Y150134D01*
X227913D01*
Y138504D01*
Y126874D01*
X234193D01*
Y120728D01*
X203051Y120728D01*
X203051Y125236D01*
X203012Y125276D01*
Y157539D01*
X203655Y158182D01*
X216161D01*
X217083Y158365D01*
X217864Y158888D01*
X221073Y162096D01*
X221595Y162878D01*
X221779Y163799D01*
Y165394D01*
X228642D01*
Y166870D01*
X229410D01*
Y183012D01*
X228642D01*
Y183051D01*
X228471D01*
Y185063D01*
X228674Y185552D01*
X228762Y186221D01*
X228674Y186889D01*
X228416Y187511D01*
X228006Y188046D01*
X227472Y188456D01*
X226849Y188714D01*
X226181Y188802D01*
X225513Y188714D01*
X224890Y188456D01*
X224356Y188046D01*
X223946Y187511D01*
X223688Y186889D01*
X223600Y186221D01*
X223655Y185806D01*
Y183051D01*
X215076D01*
Y185411D01*
X215151Y185592D01*
X215239Y186260D01*
X215151Y186928D01*
X214893Y187550D01*
X214483Y188085D01*
X213948Y188495D01*
X213326Y188753D01*
X212657Y188841D01*
X211989Y188753D01*
X211367Y188495D01*
X210832Y188085D01*
X210422Y187550D01*
X210164Y186928D01*
X210076Y186260D01*
X210164Y185592D01*
X210259Y185364D01*
Y183012D01*
X209331D01*
Y182929D01*
X208953Y182634D01*
X206968D01*
Y174941D01*
Y167248D01*
X208953D01*
X209331Y166953D01*
Y166870D01*
X209705D01*
X211181Y165394D01*
X216962D01*
Y164797D01*
X215164Y162999D01*
X204837D01*
X204395Y163329D01*
X204393Y163331D01*
X204392Y166748D01*
X204544Y167005D01*
X204820Y167248D01*
X205000D01*
Y174941D01*
Y182634D01*
X204711D01*
X204710Y182634D01*
X204348Y183069D01*
X204340Y183134D01*
X204383Y183353D01*
X204383Y183353D01*
X204383Y183353D01*
X204382Y184942D01*
X204329Y185209D01*
X204275Y185479D01*
X204275Y185479D01*
X204275Y185479D01*
X204122Y185708D01*
X203971Y185934D01*
X203971Y185935D01*
X203970Y185935D01*
X203744Y186086D01*
X203515Y186239D01*
X203515Y186239D01*
X203515Y186239D01*
X203244Y186293D01*
X202977Y186346D01*
X189259D01*
Y195037D01*
X189206Y195307D01*
X189153Y195574D01*
X189153Y195574D01*
X189152Y195575D01*
X189000Y195803D01*
X188849Y196030D01*
X188848Y196030D01*
X188848Y196031D01*
X188619Y196184D01*
X188393Y196335D01*
X188393Y196335D01*
X188392Y196335D01*
X188123Y196389D01*
X187856Y196442D01*
X128825Y196512D01*
X128822Y196515D01*
X128470Y196952D01*
Y205288D01*
X135662D01*
X135842Y205324D01*
X136026Y205336D01*
X136109Y205377D01*
X136200Y205395D01*
X136353Y205497D01*
X136517Y205578D01*
X136579Y205648D01*
X136656Y205699D01*
X136758Y205852D01*
X136772Y205869D01*
X137058Y205869D01*
X137619Y205637D01*
X138287Y205549D01*
X138955Y205637D01*
X139160Y205721D01*
X151535D01*
X152315Y205877D01*
X153046Y205877D01*
X153164Y205699D01*
X153620Y205395D01*
X154158Y205288D01*
X170472D01*
X171010Y205395D01*
X171466Y205699D01*
X171770Y206155D01*
X171877Y206693D01*
Y216312D01*
X190236D01*
Y198366D01*
D02*
G37*
G36*
X36205Y216012D02*
Y207007D01*
X34016D01*
X33478Y206900D01*
X33022Y206596D01*
X32718Y206140D01*
X32611Y205602D01*
Y203622D01*
X32301Y203244D01*
X30650D01*
Y203622D01*
X29976D01*
X29842Y204122D01*
X30664Y204597D01*
X31675Y205607D01*
X32390Y206845D01*
X32688Y207957D01*
X27331D01*
X21974D01*
X22272Y206845D01*
X22986Y205607D01*
X23997Y204597D01*
X25158Y203926D01*
X25532Y203622D01*
Y193531D01*
X19842D01*
X19305Y193424D01*
X18849Y193119D01*
X18731Y193001D01*
X15264Y193000D01*
X15263Y183150D01*
X6440D01*
Y197365D01*
X6438Y197374D01*
X6511Y197738D01*
X6722Y198054D01*
X6884Y198162D01*
X7322Y198321D01*
D01*
X7791Y198324D01*
X13973D01*
Y198316D01*
X15264Y198486D01*
X16467Y198984D01*
X17499Y199776D01*
X17496Y199779D01*
X18211Y200711D01*
X18661Y201796D01*
X18814Y202960D01*
X18810D01*
Y213681D01*
X19419Y213844D01*
X20676Y214570D01*
X21702Y215596D01*
X22427Y216853D01*
X22803Y218255D01*
Y219706D01*
X22427Y221108D01*
X21702Y222365D01*
X20676Y223391D01*
X19419Y224116D01*
X18017Y224492D01*
X16566D01*
X15164Y224116D01*
X13907Y223391D01*
X12881Y222365D01*
X12155Y221108D01*
X11779Y219706D01*
Y218255D01*
X12155Y216853D01*
X12881Y215596D01*
X13907Y214570D01*
X15164Y213844D01*
X15198Y213835D01*
Y202960D01*
X15198Y202956D01*
X15132Y202622D01*
X14943Y202339D01*
X14939Y202336D01*
X14923Y202312D01*
X14500Y202030D01*
X14002Y201931D01*
X13973Y201936D01*
X7479D01*
X7156Y201936D01*
X6992Y201904D01*
Y201904D01*
X6899Y201885D01*
X6223Y201796D01*
X5117Y201338D01*
X4167Y200609D01*
X3438Y199659D01*
X2979Y198552D01*
X2823Y197365D01*
X2827D01*
X2827Y197365D01*
Y181824D01*
X2852Y181702D01*
X2941Y181021D01*
X3251Y180272D01*
X3670Y179727D01*
X3739Y179624D01*
X3868Y179538D01*
X4338Y179177D01*
X5027Y178892D01*
X5059Y178888D01*
Y178032D01*
X5437D01*
Y177638D01*
X10374D01*
Y175669D01*
X5437D01*
Y175276D01*
X5059D01*
Y170158D01*
X5437D01*
Y169764D01*
X10374D01*
Y167795D01*
X5437D01*
Y167685D01*
X5117Y167546D01*
X4937Y167499D01*
X4665Y167656D01*
X4205Y167922D01*
X3354Y168150D01*
X2473D01*
X1622Y167922D01*
X991Y167557D01*
X491Y167761D01*
X494Y235780D01*
X36165Y235780D01*
X36205Y216012D01*
D02*
G37*
G36*
X187854Y195037D02*
Y184941D01*
X202977D01*
X202978Y183352D01*
X202638Y183012D01*
X202638Y183012D01*
X202289Y182656D01*
X202260Y182634D01*
X202138Y182634D01*
X200276D01*
Y174941D01*
Y167248D01*
X202138D01*
X202260Y167248D01*
X202638Y166953D01*
Y166870D01*
X202987D01*
X202988Y163330D01*
X202658Y162999D01*
X201736Y162816D01*
X200954Y162294D01*
X194573Y155912D01*
X183635D01*
X182625Y156923D01*
Y165630D01*
X183366D01*
Y166290D01*
X184981Y166293D01*
X185335Y165940D01*
Y165630D01*
X186076D01*
Y165058D01*
X185945Y164569D01*
Y163895D01*
X186119Y163244D01*
X186456Y162661D01*
X186933Y162185D01*
X187516Y161848D01*
X188167Y161673D01*
X188841D01*
X189492Y161848D01*
X190075Y162185D01*
X190552Y162661D01*
X190889Y163244D01*
X191063Y163895D01*
Y164569D01*
X190913Y165130D01*
X191149Y165630D01*
X191634D01*
Y173110D01*
X185335D01*
Y172500D01*
X183701D01*
Y175069D01*
X184038D01*
X184688Y175243D01*
X185134Y175500D01*
X185634Y175293D01*
Y173961D01*
X187421D01*
Y177323D01*
Y180685D01*
X185634D01*
Y179963D01*
X185134Y179755D01*
X184688Y180013D01*
X184038Y180187D01*
X183701D01*
Y182756D01*
X160749Y182756D01*
X159813Y183691D01*
X159032Y184213D01*
X158110Y184397D01*
X138917D01*
X137996Y184213D01*
X137651Y183983D01*
X137097Y184214D01*
X136836Y184666D01*
X136359Y185143D01*
X135775Y185479D01*
X135125Y185654D01*
X134451D01*
X133800Y185479D01*
X133216Y185143D01*
X132972Y184898D01*
X132750Y184853D01*
X132066Y184397D01*
X130819Y183150D01*
X124193D01*
Y186702D01*
X127909Y190418D01*
X128324Y191039D01*
X128470Y191772D01*
X128470Y191772D01*
Y194754D01*
X128824Y195107D01*
X187854Y195037D01*
D02*
G37*
G36*
X114251Y192314D02*
X98611Y176673D01*
X98423D01*
X97772Y176499D01*
X97189Y176162D01*
X96712Y175686D01*
X96375Y175102D01*
X96201Y174451D01*
Y173777D01*
X96375Y173126D01*
X96664Y172626D01*
X96566Y172333D01*
X96422Y172126D01*
X96061D01*
X95410Y171952D01*
X94826Y171615D01*
X94350Y171138D01*
X94013Y170555D01*
X93839Y169904D01*
Y169230D01*
X94013Y168579D01*
X94350Y167996D01*
X94826Y167519D01*
X95410Y167182D01*
X96061Y167008D01*
X96735D01*
X97385Y167182D01*
X97969Y167519D01*
X98102Y167652D01*
X99021D01*
X99228Y167152D01*
X97052Y164976D01*
X96636Y164355D01*
X96491Y163622D01*
X96491Y163622D01*
Y160602D01*
X96358Y160469D01*
X96021Y159885D01*
X95846Y159234D01*
Y158561D01*
X96021Y157910D01*
X96358Y157326D01*
X96834Y156850D01*
X97418Y156513D01*
X98069Y156339D01*
X98742D01*
X99393Y156513D01*
X99977Y156850D01*
X100453Y157326D01*
X100790Y157910D01*
X100965Y158561D01*
Y159234D01*
X100790Y159885D01*
X100453Y160469D01*
X100320Y160602D01*
Y162829D01*
X122326Y184835D01*
X122788Y184643D01*
Y183150D01*
X122895Y182612D01*
X123049Y182381D01*
X123045Y159468D01*
X122596D01*
X121945Y159294D01*
X121362Y158957D01*
X121323Y158918D01*
X120823Y159125D01*
Y160134D01*
X117657D01*
Y156968D01*
Y153803D01*
X120823D01*
Y154694D01*
X121323Y154901D01*
X121362Y154862D01*
X121945Y154525D01*
X122596Y154350D01*
X122690D01*
X123044Y153997D01*
X123044Y150738D01*
X122923Y150657D01*
X122156D01*
X121447Y150364D01*
X121323Y150240D01*
X120823Y150447D01*
Y153047D01*
X117657D01*
Y149882D01*
Y146717D01*
X120120D01*
X120417Y146238D01*
X120269Y145961D01*
X117657D01*
Y143780D01*
X120823D01*
Y143899D01*
X121323Y144106D01*
X121447Y143983D01*
X122156Y143689D01*
X122542D01*
X123042Y143238D01*
X123032Y89969D01*
X122447Y89384D01*
X121990Y88700D01*
X121830Y87894D01*
Y85768D01*
X77913D01*
Y86085D01*
X77739Y86736D01*
X77598Y86980D01*
X77886Y87480D01*
X83602D01*
Y87564D01*
X83980Y87858D01*
X84102Y87858D01*
X86161D01*
Y92008D01*
Y96157D01*
X84102D01*
X83980Y96157D01*
X83602Y96452D01*
Y96535D01*
X76516D01*
Y96535D01*
X76016Y96535D01*
X69429D01*
X69429Y96535D01*
X69429D01*
X68957Y96535D01*
X62843D01*
X62343Y96535D01*
Y96535D01*
X62343D01*
Y96535D01*
X55756D01*
X55256Y96535D01*
Y96535D01*
X55256D01*
Y96535D01*
X48669D01*
X48169Y96535D01*
X47669Y96535D01*
X41083D01*
Y87480D01*
X47669D01*
X48169Y87480D01*
X49104Y87480D01*
X49393Y86980D01*
X49308Y86834D01*
X49134Y86183D01*
Y85768D01*
X38754D01*
X38484Y86120D01*
Y86794D01*
X38310Y87444D01*
X37973Y88028D01*
X37497Y88504D01*
X36913Y88841D01*
X36262Y89016D01*
X35588D01*
X34937Y88841D01*
X34354Y88504D01*
X33877Y88028D01*
X33541Y87444D01*
X33366Y86794D01*
Y86120D01*
X33096Y85768D01*
X21857D01*
Y87998D01*
X32336Y98477D01*
X57579D01*
X58500Y98661D01*
X59282Y99183D01*
X72707Y112608D01*
X73229Y113389D01*
X73412Y114311D01*
Y123747D01*
X73563Y124309D01*
Y124983D01*
X73389Y125633D01*
X73052Y126217D01*
X72575Y126693D01*
X71992Y127030D01*
X71341Y127205D01*
X70667D01*
X70016Y127030D01*
X69433Y126693D01*
X68956Y126217D01*
X68619Y125633D01*
X68445Y124983D01*
Y124309D01*
X68595Y123747D01*
Y115309D01*
X56581Y103294D01*
X40634D01*
X40269Y103794D01*
X40354Y104112D01*
Y104786D01*
X40204Y105348D01*
Y125485D01*
X42018Y127299D01*
X42540Y128080D01*
X42723Y129002D01*
Y150139D01*
X42854Y150628D01*
Y151302D01*
X42723Y151790D01*
Y166909D01*
X42540Y167831D01*
X42018Y168613D01*
X41436Y169195D01*
X41600Y169737D01*
X41640Y169745D01*
X42096Y170050D01*
X42400Y170506D01*
X42507Y171043D01*
Y181968D01*
X42857Y182346D01*
X43642D01*
Y186496D01*
Y190646D01*
X42857D01*
X42507Y191024D01*
Y192776D01*
X114060Y192776D01*
X114251Y192314D01*
D02*
G37*
G36*
X201607Y125276D02*
X201614Y125239D01*
Y120138D01*
X201788D01*
X202058Y119735D01*
X202514Y119430D01*
X203051Y119323D01*
X234193Y119323D01*
X234232Y119291D01*
Y95394D01*
X189154Y95394D01*
X189113Y125024D01*
X167666Y125024D01*
X167313Y125377D01*
X167321Y140177D01*
X167508Y140500D01*
X167736Y141351D01*
Y142232D01*
X167508Y143083D01*
X167323Y143402D01*
X167327Y150335D01*
X169468D01*
Y150394D01*
X170059D01*
Y150335D01*
X173543D01*
X174819Y149058D01*
Y148925D01*
X174744Y148644D01*
Y147970D01*
X174918Y147319D01*
X175255Y146736D01*
X175732Y146259D01*
X176315Y145922D01*
X176966Y145748D01*
X177640D01*
X178291Y145922D01*
X178874Y146259D01*
X179351Y146736D01*
X179366Y146762D01*
X179866Y146628D01*
Y139488D01*
X187165D01*
X194465D01*
Y149894D01*
X194465Y150134D01*
X194857Y150394D01*
X201607D01*
Y125276D01*
D02*
G37*
G36*
X165373Y138982D02*
X165416Y138993D01*
X165916Y138735D01*
X165908Y125378D01*
X165908Y125378D01*
X165908Y125378D01*
X165961Y125111D01*
X166014Y124840D01*
X166014Y124840D01*
X166014Y124840D01*
X166162Y124619D01*
X166318Y124384D01*
X166319Y124384D01*
X166319Y124384D01*
X166672Y124030D01*
X166672Y124030D01*
X166673Y124030D01*
X166914Y123869D01*
X167128Y123726D01*
X167128Y123726D01*
X167128Y123726D01*
X167398Y123672D01*
X167666Y123619D01*
X167666Y123619D01*
X167666Y123619D01*
X187710Y123619D01*
X187748Y95748D01*
X187395Y95394D01*
X168255D01*
X167967Y95894D01*
X168074Y96079D01*
X168248Y96730D01*
Y97404D01*
X168074Y98055D01*
X167737Y98638D01*
X167260Y99115D01*
X166677Y99452D01*
X166026Y99626D01*
X165352D01*
X164790Y99475D01*
X156121D01*
X155930Y99937D01*
X158656Y102663D01*
X159178Y103445D01*
X159361Y104366D01*
Y116437D01*
X159178Y117359D01*
X158656Y118140D01*
X154904Y121891D01*
Y129847D01*
X157579D01*
Y134784D01*
X158563D01*
Y135768D01*
X162319D01*
Y138981D01*
X162819Y139270D01*
X163243Y139025D01*
X163405Y138982D01*
Y141791D01*
X165373D01*
Y138982D01*
D02*
G37*
G36*
X18089Y192276D02*
X17954Y192073D01*
X17847Y191535D01*
Y171043D01*
X17954Y170506D01*
X18259Y170050D01*
X18714Y169745D01*
X19252Y169638D01*
X34180D01*
X37907Y165912D01*
Y151937D01*
X37736Y151302D01*
Y150628D01*
X37907Y149992D01*
Y129999D01*
X36092Y128185D01*
X35570Y127404D01*
X35387Y126482D01*
Y105348D01*
X35236Y104786D01*
Y104112D01*
X35321Y103794D01*
X34956Y103294D01*
X31339D01*
X30417Y103111D01*
X29636Y102589D01*
X17746Y90699D01*
X17224Y89918D01*
X17040Y88996D01*
Y85768D01*
Y79610D01*
X17224Y78689D01*
X17746Y77907D01*
X18481Y77172D01*
Y69576D01*
X18331Y69014D01*
Y68340D01*
X18505Y67689D01*
X18842Y67106D01*
X19319Y66629D01*
X19822Y66338D01*
X23674Y62487D01*
Y30860D01*
X23199Y30384D01*
X22676Y29603D01*
X22493Y28681D01*
Y21004D01*
X22676Y20082D01*
X23199Y19301D01*
X26683Y15817D01*
X27464Y15294D01*
X28386Y15111D01*
X42913D01*
X43835Y15294D01*
X44616Y15817D01*
X50930Y22130D01*
X51433Y22421D01*
X51910Y22897D01*
X52247Y23481D01*
X52421Y24132D01*
Y24805D01*
X52247Y25456D01*
X51910Y26040D01*
X51433Y26516D01*
X50850Y26853D01*
X50199Y27028D01*
X49525D01*
X48874Y26853D01*
X48291Y26516D01*
X47814Y26040D01*
X47524Y25536D01*
X41916Y19928D01*
X29383D01*
X27512Y21799D01*
X27775Y22244D01*
X37095D01*
Y24792D01*
X37495D01*
X38417Y24975D01*
X39198Y25497D01*
X46565Y32864D01*
X47087Y33645D01*
X47271Y34567D01*
Y45892D01*
X49642Y48263D01*
X59099D01*
X59661Y48113D01*
X60334D01*
X60985Y48287D01*
X61569Y48624D01*
X62045Y49101D01*
X62382Y49684D01*
X62437Y49887D01*
X62994Y50037D01*
X68868Y44163D01*
X69649Y43641D01*
X70571Y43458D01*
X128831D01*
Y42244D01*
X138279D01*
Y43723D01*
X143634D01*
X143678Y43698D01*
X144328Y43524D01*
X145002D01*
X145653Y43698D01*
X146237Y44035D01*
X146713Y44511D01*
X147050Y45095D01*
X147224Y45746D01*
Y46420D01*
X147050Y47070D01*
X146713Y47654D01*
X146237Y48130D01*
X145653Y48467D01*
X145002Y48642D01*
X144328D01*
X143950Y48540D01*
X138279D01*
Y50118D01*
X130066D01*
X129798Y50618D01*
X129828Y50662D01*
X133031D01*
X133953Y50846D01*
X134734Y51368D01*
X135926Y52559D01*
X149232D01*
Y2146D01*
X86370D01*
X86337Y2646D01*
X86550Y2674D01*
X87225Y2953D01*
X87804Y3397D01*
X88248Y3976D01*
X88527Y4651D01*
X88622Y5374D01*
Y5768D01*
X85827D01*
X83031D01*
Y5374D01*
X83126Y4651D01*
X83406Y3976D01*
X83850Y3397D01*
X84429Y2953D01*
X85103Y2674D01*
X85316Y2646D01*
X85283Y2146D01*
X60386D01*
X60353Y2646D01*
X60566Y2674D01*
X61240Y2953D01*
X61819Y3397D01*
X62264Y3976D01*
X62543Y4651D01*
X62638Y5374D01*
Y5768D01*
X59842D01*
X57047D01*
Y5374D01*
X57142Y4651D01*
X57421Y3976D01*
X57866Y3397D01*
X58445Y2953D01*
X59119Y2674D01*
X59332Y2646D01*
X59299Y2146D01*
X18657D01*
Y2842D01*
X21408Y5593D01*
X21642Y5728D01*
X22119Y6204D01*
X22456Y6788D01*
X22630Y7439D01*
Y8112D01*
X22456Y8763D01*
X22119Y9347D01*
X21642Y9823D01*
X21059Y10160D01*
X20408Y10335D01*
X19734D01*
X19083Y10160D01*
X18500Y9823D01*
X18023Y9347D01*
X17686Y8763D01*
X17657Y8653D01*
X15251Y6248D01*
X11965D01*
Y2146D01*
X7634D01*
Y6248D01*
X6911D01*
X6630Y6748D01*
X6760Y7234D01*
Y7908D01*
X6585Y8559D01*
X6248Y9142D01*
X5772Y9619D01*
X5189Y9956D01*
X4538Y10130D01*
X3864D01*
X3213Y9956D01*
X2630Y9619D01*
X2626Y9615D01*
X2126Y9822D01*
Y36161D01*
X5441D01*
Y42854D01*
X2126D01*
Y64902D01*
X5441D01*
Y71595D01*
X2126D01*
Y94417D01*
X2296Y94547D01*
X3177D01*
X4028Y94775D01*
X4219Y94886D01*
X6410D01*
Y94127D01*
X6260Y93565D01*
Y92891D01*
X6434Y92241D01*
X6771Y91657D01*
X7248Y91181D01*
X7831Y90844D01*
X8482Y90669D01*
X9156D01*
X9807Y90844D01*
X10390Y91181D01*
X10867Y91657D01*
X11203Y92241D01*
X11378Y92891D01*
Y93565D01*
X11227Y94127D01*
Y94886D01*
X15512D01*
Y95354D01*
X15689D01*
Y100472D01*
X15512D01*
Y103228D01*
X15689D01*
Y108346D01*
X15512D01*
X15512Y115039D01*
X15689D01*
Y118976D01*
Y122913D01*
Y126850D01*
Y130787D01*
Y134724D01*
Y138661D01*
Y142598D01*
Y146535D01*
Y150472D01*
Y154410D01*
Y158346D01*
Y162284D01*
Y167402D01*
X15512D01*
Y170158D01*
X15689D01*
Y175276D01*
X15512D01*
Y178032D01*
X15689D01*
Y183150D01*
X15512D01*
Y192776D01*
X17822D01*
X18089Y192276D01*
D02*
G37*
G36*
X40886Y75260D02*
X41280D01*
Y74882D01*
X41430D01*
Y73746D01*
X41395Y73685D01*
X41221Y73034D01*
Y72360D01*
X41395Y71709D01*
X41732Y71126D01*
X42208Y70649D01*
X42792Y70312D01*
X43443Y70138D01*
X44116D01*
X44767Y70312D01*
X45351Y70649D01*
X45738Y71036D01*
X46145Y70629D01*
X46729Y70293D01*
X47380Y70118D01*
X48053D01*
X48704Y70293D01*
X49288Y70629D01*
X49764Y71106D01*
X50101Y71689D01*
X50276Y72340D01*
Y73014D01*
X50125Y73576D01*
Y74587D01*
X57205D01*
X59842Y71949D01*
X59922D01*
X60448Y71597D01*
X61181Y71451D01*
X64851D01*
X64984Y71318D01*
X65567Y70982D01*
X66218Y70807D01*
X66892D01*
X67543Y70982D01*
X68126Y71318D01*
X68603Y71795D01*
X68692Y71949D01*
X69245D01*
X69350Y71767D01*
X69826Y71291D01*
X70410Y70954D01*
X71061Y70780D01*
X71735D01*
X72385Y70954D01*
X72969Y71291D01*
X73445Y71767D01*
X73550Y71949D01*
X117597D01*
X117698Y71632D01*
X117356Y71208D01*
X112468D01*
X111833Y71378D01*
X111159D01*
X110508Y71204D01*
X109925Y70867D01*
X109448Y70390D01*
X109111Y69807D01*
X108937Y69156D01*
Y68482D01*
X109111Y67831D01*
X109448Y67248D01*
X109925Y66771D01*
X110508Y66434D01*
X111159Y66260D01*
X111833D01*
X112321Y66391D01*
X117875D01*
X117884Y57113D01*
X117531Y56759D01*
X76706D01*
X68317Y65148D01*
X67536Y65670D01*
X66614Y65853D01*
X41791D01*
X40870Y65670D01*
X40088Y65148D01*
X32125Y57185D01*
X28491D01*
Y63484D01*
X28308Y64406D01*
X27786Y65187D01*
X26693Y66280D01*
X26726Y74882D01*
X29619D01*
Y69862D01*
X29802Y68941D01*
X30325Y68159D01*
X32661Y65822D01*
X32952Y65319D01*
X33429Y64842D01*
X34012Y64505D01*
X34663Y64331D01*
X35337D01*
X35988Y64505D01*
X36571Y64842D01*
X37048Y65319D01*
X37385Y65902D01*
X37559Y66553D01*
Y67227D01*
X37385Y67878D01*
X37048Y68461D01*
X36571Y68937D01*
X36068Y69228D01*
X34436Y70860D01*
Y74882D01*
X34587D01*
Y75260D01*
X34980D01*
Y80197D01*
X36949D01*
Y75260D01*
X38917D01*
Y80197D01*
X40886D01*
Y75260D01*
D02*
G37*
%LPC*%
G36*
X112126Y229009D02*
X111547Y228854D01*
X110623Y228321D01*
X109869Y227566D01*
X109335Y226642D01*
X109180Y226063D01*
X112126D01*
Y229009D01*
D02*
G37*
G36*
X104095D02*
Y226063D01*
X107041D01*
X106885Y226642D01*
X106352Y227566D01*
X105598Y228321D01*
X104674Y228854D01*
X104095Y229009D01*
D02*
G37*
G36*
X102126D02*
X101547Y228854D01*
X100623Y228321D01*
X99869Y227566D01*
X99335Y226642D01*
X99180Y226063D01*
X102126D01*
Y229009D01*
D02*
G37*
G36*
X94095D02*
Y226063D01*
X97041D01*
X96885Y226642D01*
X96352Y227566D01*
X95598Y228321D01*
X94674Y228854D01*
X94095Y229009D01*
D02*
G37*
G36*
X92126D02*
X91546Y228854D01*
X90623Y228321D01*
X89868Y227566D01*
X89335Y226642D01*
X89180Y226063D01*
X92126D01*
Y229009D01*
D02*
G37*
G36*
X84095D02*
Y226063D01*
X87041D01*
X86885Y226642D01*
X86352Y227566D01*
X85598Y228321D01*
X84674Y228854D01*
X84095Y229009D01*
D02*
G37*
G36*
X82126D02*
X81546Y228854D01*
X80623Y228321D01*
X79869Y227566D01*
X79335Y226642D01*
X79180Y226063D01*
X82126D01*
Y229009D01*
D02*
G37*
G36*
X74636Y229179D02*
X74094D01*
Y226063D01*
X77211D01*
Y226604D01*
X77015Y227590D01*
X76457Y228425D01*
X75621Y228983D01*
X74636Y229179D01*
D02*
G37*
G36*
X72126D02*
X71585D01*
X70599Y228983D01*
X69764Y228425D01*
X69206Y227590D01*
X69010Y226604D01*
Y226063D01*
X72126D01*
Y229179D01*
D02*
G37*
G36*
X112126Y224095D02*
X109180D01*
X109335Y223515D01*
X109869Y222591D01*
X110623Y221837D01*
X111547Y221304D01*
X112126Y221148D01*
Y224095D01*
D02*
G37*
G36*
X107041D02*
X104095D01*
Y221148D01*
X104674Y221304D01*
X105598Y221837D01*
X106352Y222591D01*
X106885Y223515D01*
X107041Y224095D01*
D02*
G37*
G36*
X102126D02*
X99180D01*
X99335Y223515D01*
X99869Y222591D01*
X100623Y221837D01*
X101547Y221304D01*
X102126Y221148D01*
Y224095D01*
D02*
G37*
G36*
X97041D02*
X94095D01*
Y221148D01*
X94674Y221304D01*
X95598Y221837D01*
X96352Y222591D01*
X96885Y223515D01*
X97041Y224095D01*
D02*
G37*
G36*
X92126D02*
X89180D01*
X89335Y223515D01*
X89868Y222591D01*
X90623Y221837D01*
X91546Y221304D01*
X92126Y221148D01*
Y224095D01*
D02*
G37*
G36*
X87041D02*
X84095D01*
Y221148D01*
X84674Y221304D01*
X85598Y221837D01*
X86352Y222591D01*
X86885Y223515D01*
X87041Y224095D01*
D02*
G37*
G36*
X82126D02*
X79180D01*
X79335Y223515D01*
X79869Y222591D01*
X80623Y221837D01*
X81546Y221304D01*
X82126Y221148D01*
Y224095D01*
D02*
G37*
G36*
X77211D02*
X74094D01*
Y220978D01*
X74636D01*
X75621Y221174D01*
X76457Y221732D01*
X77015Y222568D01*
X77211Y223553D01*
Y224095D01*
D02*
G37*
G36*
X72126D02*
X69010D01*
Y223553D01*
X69206Y222568D01*
X69764Y221732D01*
X70599Y221174D01*
X71585Y220978D01*
X72126D01*
Y224095D01*
D02*
G37*
G36*
X103693Y219508D02*
X102527D01*
X101401Y219206D01*
X100391Y218623D01*
X99566Y217798D01*
X98983Y216788D01*
X98681Y215662D01*
Y214496D01*
X98983Y213369D01*
X99566Y212359D01*
X100391Y211535D01*
X101401Y210951D01*
X102527Y210650D01*
X103693D01*
X104820Y210951D01*
X105830Y211535D01*
X106654Y212359D01*
X107238Y213369D01*
X107539Y214496D01*
Y215662D01*
X107238Y216788D01*
X106654Y217798D01*
X105830Y218623D01*
X104820Y219206D01*
X103693Y219508D01*
D02*
G37*
G36*
X93693D02*
X92527D01*
X91401Y219206D01*
X90391Y218623D01*
X89566Y217798D01*
X88983Y216788D01*
X88681Y215662D01*
Y214496D01*
X88983Y213369D01*
X89566Y212359D01*
X90391Y211535D01*
X91401Y210951D01*
X92527Y210650D01*
X93693D01*
X94820Y210951D01*
X95830Y211535D01*
X96654Y212359D01*
X97237Y213369D01*
X97539Y214496D01*
Y215662D01*
X97237Y216788D01*
X96654Y217798D01*
X95830Y218623D01*
X94820Y219206D01*
X93693Y219508D01*
D02*
G37*
G36*
X83693D02*
X82527D01*
X81401Y219206D01*
X80391Y218623D01*
X79566Y217798D01*
X78983Y216788D01*
X78681Y215662D01*
Y214496D01*
X78983Y213369D01*
X79566Y212359D01*
X80391Y211535D01*
X81401Y210951D01*
X82527Y210650D01*
X83693D01*
X84820Y210951D01*
X85830Y211535D01*
X86654Y212359D01*
X87238Y213369D01*
X87539Y214496D01*
Y215662D01*
X87238Y216788D01*
X86654Y217798D01*
X85830Y218623D01*
X84820Y219206D01*
X83693Y219508D01*
D02*
G37*
G36*
X73693D02*
X72527D01*
X71401Y219206D01*
X70391Y218623D01*
X69566Y217798D01*
X68983Y216788D01*
X68681Y215662D01*
Y214496D01*
X68983Y213369D01*
X69566Y212359D01*
X70391Y211535D01*
X71401Y210951D01*
X72527Y210650D01*
X73693D01*
X74820Y210951D01*
X75830Y211535D01*
X76654Y212359D01*
X77237Y213369D01*
X77539Y214496D01*
Y215662D01*
X77237Y216788D01*
X76654Y217798D01*
X75830Y218623D01*
X74820Y219206D01*
X73693Y219508D01*
D02*
G37*
G36*
X185823Y231512D02*
X181575D01*
Y226673D01*
X185823D01*
Y231512D01*
D02*
G37*
G36*
X179606D02*
X175358D01*
Y226673D01*
X179606D01*
Y231512D01*
D02*
G37*
G36*
X164094Y229009D02*
Y226063D01*
X167041D01*
X166885Y226642D01*
X166352Y227566D01*
X165598Y228321D01*
X164674Y228854D01*
X164094Y229009D01*
D02*
G37*
G36*
X162126D02*
X161547Y228854D01*
X160623Y228321D01*
X159869Y227566D01*
X159335Y226642D01*
X159180Y226063D01*
X162126D01*
Y229009D01*
D02*
G37*
G36*
X154095D02*
Y226063D01*
X157041D01*
X156885Y226642D01*
X156352Y227566D01*
X155598Y228321D01*
X154674Y228854D01*
X154095Y229009D01*
D02*
G37*
G36*
X152126D02*
X151547Y228854D01*
X150623Y228321D01*
X149869Y227566D01*
X149335Y226642D01*
X149180Y226063D01*
X152126D01*
Y229009D01*
D02*
G37*
G36*
X144095D02*
Y226063D01*
X147041D01*
X146885Y226642D01*
X146352Y227566D01*
X145598Y228321D01*
X144674Y228854D01*
X144095Y229009D01*
D02*
G37*
G36*
X142126D02*
X141546Y228854D01*
X140623Y228321D01*
X139868Y227566D01*
X139335Y226642D01*
X139180Y226063D01*
X142126D01*
Y229009D01*
D02*
G37*
G36*
X134095D02*
Y226063D01*
X137041D01*
X136885Y226642D01*
X136352Y227566D01*
X135598Y228321D01*
X134674Y228854D01*
X134095Y229009D01*
D02*
G37*
G36*
X132126D02*
X131546Y228854D01*
X130623Y228321D01*
X129868Y227566D01*
X129335Y226642D01*
X129180Y226063D01*
X132126D01*
Y229009D01*
D02*
G37*
G36*
X124094D02*
Y226063D01*
X127041D01*
X126885Y226642D01*
X126352Y227566D01*
X125598Y228321D01*
X124674Y228854D01*
X124094Y229009D01*
D02*
G37*
G36*
X167041Y224095D02*
X164094D01*
Y221148D01*
X164674Y221304D01*
X165598Y221837D01*
X166352Y222591D01*
X166885Y223515D01*
X167041Y224095D01*
D02*
G37*
G36*
X162126D02*
X159180D01*
X159335Y223515D01*
X159869Y222591D01*
X160623Y221837D01*
X161547Y221304D01*
X162126Y221148D01*
Y224095D01*
D02*
G37*
G36*
X157041D02*
X154095D01*
Y221148D01*
X154674Y221304D01*
X155598Y221837D01*
X156352Y222591D01*
X156885Y223515D01*
X157041Y224095D01*
D02*
G37*
G36*
X152126D02*
X149180D01*
X149335Y223515D01*
X149869Y222591D01*
X150623Y221837D01*
X151547Y221304D01*
X152126Y221148D01*
Y224095D01*
D02*
G37*
G36*
X147041D02*
X144095D01*
Y221148D01*
X144674Y221304D01*
X145598Y221837D01*
X146352Y222591D01*
X146885Y223515D01*
X147041Y224095D01*
D02*
G37*
G36*
X142126D02*
X139180D01*
X139335Y223515D01*
X139868Y222591D01*
X140623Y221837D01*
X141546Y221304D01*
X142126Y221148D01*
Y224095D01*
D02*
G37*
G36*
X137041D02*
X134095D01*
Y221148D01*
X134674Y221304D01*
X135598Y221837D01*
X136352Y222591D01*
X136885Y223515D01*
X137041Y224095D01*
D02*
G37*
G36*
X132126D02*
X129180D01*
X129335Y223515D01*
X129868Y222591D01*
X130623Y221837D01*
X131546Y221304D01*
X132126Y221148D01*
Y224095D01*
D02*
G37*
G36*
X127041D02*
X124094D01*
Y221148D01*
X124674Y221304D01*
X125598Y221837D01*
X126352Y222591D01*
X126885Y223515D01*
X127041Y224095D01*
D02*
G37*
G36*
X185823Y224705D02*
X181575D01*
Y219866D01*
X185823D01*
Y224705D01*
D02*
G37*
G36*
X179606D02*
X175358D01*
Y219866D01*
X179606D01*
Y224705D01*
D02*
G37*
G36*
X163693Y219508D02*
X162527D01*
X161401Y219206D01*
X160391Y218623D01*
X159566Y217798D01*
X158983Y216788D01*
X158681Y215662D01*
Y214496D01*
X158983Y213369D01*
X159566Y212359D01*
X160391Y211535D01*
X161401Y210951D01*
X162527Y210650D01*
X163693D01*
X164820Y210951D01*
X165830Y211535D01*
X166654Y212359D01*
X167237Y213369D01*
X167539Y214496D01*
Y215662D01*
X167237Y216788D01*
X166654Y217798D01*
X165830Y218623D01*
X164820Y219206D01*
X163693Y219508D01*
D02*
G37*
G36*
X38146Y203244D02*
X36949D01*
Y198307D01*
Y193370D01*
X37721D01*
Y193370D01*
X38917D01*
Y198307D01*
Y203244D01*
X38146D01*
Y203244D01*
D02*
G37*
G36*
X185823Y214583D02*
X181575D01*
Y209744D01*
X185823D01*
Y214583D01*
D02*
G37*
G36*
X179606D02*
X175358D01*
Y209744D01*
X179606D01*
Y214583D01*
D02*
G37*
G36*
X185823Y207776D02*
X181575D01*
Y202937D01*
X185823D01*
Y207776D01*
D02*
G37*
G36*
X179606D02*
X175358D01*
Y202937D01*
X179606D01*
Y207776D01*
D02*
G37*
G36*
X225945Y150134D02*
X219630D01*
Y139488D01*
X225945D01*
Y150134D01*
D02*
G37*
G36*
Y137520D02*
X219630D01*
Y126874D01*
X225945D01*
Y137520D01*
D02*
G37*
G36*
X28315Y234377D02*
Y230004D01*
X32688D01*
X32390Y231115D01*
X31675Y232353D01*
X30664Y233364D01*
X29426Y234079D01*
X28315Y234377D01*
D02*
G37*
G36*
X8236D02*
Y230004D01*
X12609D01*
X12311Y231115D01*
X11596Y232353D01*
X10586Y233364D01*
X9347Y234079D01*
X8236Y234377D01*
D02*
G37*
G36*
X26346D02*
X25235Y234079D01*
X23997Y233364D01*
X22986Y232353D01*
X22272Y231115D01*
X21974Y230004D01*
X26346D01*
Y234377D01*
D02*
G37*
G36*
X6268D02*
X5156Y234079D01*
X3918Y233364D01*
X2908Y232353D01*
X2193Y231115D01*
X1895Y230004D01*
X6268D01*
Y234377D01*
D02*
G37*
G36*
X32688Y228035D02*
X28315D01*
Y223663D01*
X29426Y223960D01*
X30664Y224675D01*
X31675Y225686D01*
X32390Y226924D01*
X32688Y228035D01*
D02*
G37*
G36*
X12609D02*
X8236D01*
Y223663D01*
X9347Y223960D01*
X10586Y224675D01*
X11596Y225686D01*
X12311Y226924D01*
X12609Y228035D01*
D02*
G37*
G36*
X26346D02*
X21974D01*
X22272Y226924D01*
X22986Y225686D01*
X23997Y224675D01*
X25235Y223960D01*
X26346Y223663D01*
Y228035D01*
D02*
G37*
G36*
X6268D02*
X1895D01*
X2193Y226924D01*
X2908Y225686D01*
X3918Y224675D01*
X5156Y223960D01*
X6268Y223663D01*
Y228035D01*
D02*
G37*
G36*
X28315Y214298D02*
Y209925D01*
X32688D01*
X32390Y211036D01*
X31675Y212275D01*
X30664Y213285D01*
X29426Y214000D01*
X28315Y214298D01*
D02*
G37*
G36*
X8236D02*
Y209925D01*
X12609D01*
X12311Y211036D01*
X11596Y212275D01*
X10586Y213285D01*
X9347Y214000D01*
X8236Y214298D01*
D02*
G37*
G36*
X26346D02*
X25235Y214000D01*
X23997Y213285D01*
X22986Y212275D01*
X22272Y211036D01*
X21974Y209925D01*
X26346D01*
Y214298D01*
D02*
G37*
G36*
X6268D02*
X5156Y214000D01*
X3918Y213285D01*
X2908Y212275D01*
X2193Y211036D01*
X1895Y209925D01*
X6268D01*
Y214298D01*
D02*
G37*
G36*
X12609Y207957D02*
X8236D01*
Y203584D01*
X9347Y203882D01*
X10586Y204597D01*
X11596Y205607D01*
X12311Y206845D01*
X12609Y207957D01*
D02*
G37*
G36*
X6268D02*
X1895D01*
X2193Y206845D01*
X2908Y205607D01*
X3918Y204597D01*
X5156Y203882D01*
X6268Y203584D01*
Y207957D01*
D02*
G37*
G36*
X191177Y180685D02*
X189390D01*
Y178307D01*
X191177D01*
Y180685D01*
D02*
G37*
G36*
X198307Y182634D02*
X196323D01*
Y175925D01*
X198307D01*
Y182634D01*
D02*
G37*
G36*
X191177Y176339D02*
X189390D01*
Y173961D01*
X191177D01*
Y176339D01*
D02*
G37*
G36*
X198307Y173957D02*
X196323D01*
Y167248D01*
X198307D01*
Y173957D01*
D02*
G37*
G36*
X83224Y190646D02*
X81043D01*
Y187480D01*
X83224D01*
Y190646D01*
D02*
G37*
G36*
X97398D02*
X95217D01*
Y187480D01*
X97398D01*
Y190646D01*
D02*
G37*
G36*
X76138D02*
X73957D01*
Y187480D01*
X76138D01*
Y190646D01*
D02*
G37*
G36*
X69051D02*
X66870D01*
Y187480D01*
X69051D01*
Y190646D01*
D02*
G37*
G36*
X61964D02*
X59783D01*
Y187480D01*
X61964D01*
Y190646D01*
D02*
G37*
G36*
X54878D02*
X52697D01*
Y187480D01*
X54878D01*
Y190646D01*
D02*
G37*
G36*
X47791D02*
X45610D01*
Y187480D01*
X47791D01*
Y190646D01*
D02*
G37*
G36*
X90311D02*
X88130D01*
Y187480D01*
X90311D01*
Y190646D01*
D02*
G37*
G36*
X86161D02*
X83980D01*
Y187480D01*
X86161D01*
Y190646D01*
D02*
G37*
G36*
X93248D02*
X91067D01*
Y187480D01*
X93248D01*
Y190646D01*
D02*
G37*
G36*
X71988D02*
X69807D01*
Y187480D01*
X71988D01*
Y190646D01*
D02*
G37*
G36*
X64902D02*
X62721D01*
Y187480D01*
X64902D01*
Y190646D01*
D02*
G37*
G36*
X57815D02*
X55634D01*
Y187480D01*
X57815D01*
Y190646D01*
D02*
G37*
G36*
X50728D02*
X48547D01*
Y187480D01*
X50728D01*
Y190646D01*
D02*
G37*
G36*
X79075D02*
X76894D01*
Y187480D01*
X79075D01*
Y190646D01*
D02*
G37*
G36*
X97398Y185512D02*
X95217D01*
Y182346D01*
X97398D01*
Y185512D01*
D02*
G37*
G36*
X93248D02*
X91067D01*
Y182346D01*
X93248D01*
Y185512D01*
D02*
G37*
G36*
X90311D02*
X88130D01*
Y182346D01*
X90311D01*
Y185512D01*
D02*
G37*
G36*
X86161D02*
X83980D01*
Y182346D01*
X86161D01*
Y185512D01*
D02*
G37*
G36*
X83224D02*
X81043D01*
Y182346D01*
X83224D01*
Y185512D01*
D02*
G37*
G36*
X79075D02*
X76894D01*
Y182346D01*
X79075D01*
Y185512D01*
D02*
G37*
G36*
X76138D02*
X73957D01*
Y182346D01*
X76138D01*
Y185512D01*
D02*
G37*
G36*
X71988D02*
X69807D01*
Y182346D01*
X71988D01*
Y185512D01*
D02*
G37*
G36*
X69051D02*
X66870D01*
Y182346D01*
X69051D01*
Y185512D01*
D02*
G37*
G36*
X64902D02*
X62721D01*
Y182346D01*
X64902D01*
Y185512D01*
D02*
G37*
G36*
X61964D02*
X59783D01*
Y182346D01*
X61964D01*
Y185512D01*
D02*
G37*
G36*
X57815D02*
X55634D01*
Y182346D01*
X57815D01*
Y185512D01*
D02*
G37*
G36*
X54878D02*
X52697D01*
Y182346D01*
X54878D01*
Y185512D01*
D02*
G37*
G36*
X50728D02*
X48547D01*
Y182346D01*
X50728D01*
Y185512D01*
D02*
G37*
G36*
X47791D02*
X45610D01*
Y182346D01*
X47791D01*
Y185512D01*
D02*
G37*
G36*
X120823Y167220D02*
X117657D01*
Y165039D01*
X120823D01*
Y167220D01*
D02*
G37*
G36*
X115689D02*
X112524D01*
Y165039D01*
X115689D01*
Y167220D01*
D02*
G37*
G36*
X120823Y163071D02*
X117657D01*
Y160890D01*
X120823D01*
Y163071D01*
D02*
G37*
G36*
X115689D02*
X112524D01*
Y160890D01*
X115689D01*
Y163071D01*
D02*
G37*
G36*
X115689Y160134D02*
X112524D01*
Y157953D01*
X115689D01*
Y160134D01*
D02*
G37*
G36*
Y155984D02*
X112524D01*
Y153803D01*
X115689D01*
Y155984D01*
D02*
G37*
G36*
X115689Y153047D02*
X112524D01*
Y150866D01*
X115689D01*
Y153047D01*
D02*
G37*
G36*
Y148898D02*
X112524D01*
Y146717D01*
X115689D01*
Y148898D01*
D02*
G37*
G36*
X115689Y145961D02*
X112524D01*
Y143780D01*
X115689D01*
Y145961D01*
D02*
G37*
G36*
X120823Y141811D02*
X117657D01*
Y139630D01*
X120823D01*
Y141811D01*
D02*
G37*
G36*
X115689D02*
X112524D01*
Y139630D01*
X115689D01*
Y141811D01*
D02*
G37*
G36*
X120823Y138874D02*
X117657D01*
Y136693D01*
X120823D01*
Y138874D01*
D02*
G37*
G36*
X115689D02*
X112524D01*
Y136693D01*
X115689D01*
Y138874D01*
D02*
G37*
G36*
X120823Y134724D02*
X117657D01*
Y132543D01*
X120823D01*
Y134724D01*
D02*
G37*
G36*
X115689D02*
X112524D01*
Y132543D01*
X115689D01*
Y134724D01*
D02*
G37*
G36*
X120823Y131787D02*
X117657D01*
Y129606D01*
X120823D01*
Y131787D01*
D02*
G37*
G36*
X115689D02*
X112524D01*
Y129606D01*
X115689D01*
Y131787D01*
D02*
G37*
G36*
X120823Y127638D02*
X117657D01*
Y125457D01*
X120823D01*
Y127638D01*
D02*
G37*
G36*
X115689D02*
X112524D01*
Y125457D01*
X115689D01*
Y127638D01*
D02*
G37*
G36*
X120823Y124701D02*
X117657D01*
Y122520D01*
X120823D01*
Y124701D01*
D02*
G37*
G36*
X115689D02*
X112524D01*
Y122520D01*
X115689D01*
Y124701D01*
D02*
G37*
G36*
X120823Y120551D02*
X117657D01*
Y118370D01*
X120823D01*
Y120551D01*
D02*
G37*
G36*
X115689D02*
X112524D01*
Y118370D01*
X115689D01*
Y120551D01*
D02*
G37*
G36*
X120823Y117614D02*
X117657D01*
Y115433D01*
X120823D01*
Y117614D01*
D02*
G37*
G36*
X115689D02*
X112524D01*
Y115433D01*
X115689D01*
Y117614D01*
D02*
G37*
G36*
X120823Y113465D02*
X117657D01*
Y111284D01*
X120823D01*
Y113465D01*
D02*
G37*
G36*
X115689D02*
X112524D01*
Y111284D01*
X115689D01*
Y113465D01*
D02*
G37*
G36*
X97776Y96535D02*
X90689D01*
Y96452D01*
X90311Y96157D01*
X90189Y96157D01*
X88130D01*
Y92008D01*
Y87858D01*
X90189D01*
X90311Y87858D01*
X90689Y87564D01*
Y87480D01*
X97776D01*
Y96535D01*
D02*
G37*
G36*
X176492Y139721D02*
X173721D01*
Y135768D01*
X176492D01*
Y139721D01*
D02*
G37*
G36*
X171752D02*
X168980D01*
Y135768D01*
X171752D01*
Y139721D01*
D02*
G37*
G36*
X176492Y133800D02*
X173721D01*
Y129847D01*
X176492D01*
Y133800D01*
D02*
G37*
G36*
X171752D02*
X168980D01*
Y129847D01*
X171752D01*
Y133800D01*
D02*
G37*
G36*
X194465Y137520D02*
X188150D01*
Y126874D01*
X194465D01*
Y137520D01*
D02*
G37*
G36*
X186181D02*
X179866D01*
Y126874D01*
X186181D01*
Y137520D01*
D02*
G37*
G36*
X203303Y110055D02*
X198268D01*
Y105217D01*
X203303D01*
Y110055D01*
D02*
G37*
G36*
X196299D02*
X191264D01*
Y105217D01*
X196299D01*
Y110055D01*
D02*
G37*
G36*
X203303Y103248D02*
X198268D01*
Y98409D01*
X203303D01*
Y103248D01*
D02*
G37*
G36*
X196299D02*
X191264D01*
Y98409D01*
X196299D01*
Y103248D01*
D02*
G37*
G36*
X221242Y113287D02*
X220569D01*
X219918Y113113D01*
X219334Y112776D01*
X218858Y112300D01*
X218521Y111716D01*
X218347Y111065D01*
Y110433D01*
X214705D01*
Y98032D01*
X227500D01*
Y110433D01*
X223465D01*
Y111065D01*
X223290Y111716D01*
X222953Y112300D01*
X222477Y112776D01*
X221893Y113113D01*
X221242Y113287D01*
D02*
G37*
G36*
X162319Y133800D02*
X159547D01*
Y129847D01*
X162319D01*
Y133800D01*
D02*
G37*
G36*
X171878Y107244D02*
X170996D01*
X170145Y107016D01*
X169382Y106576D01*
X168759Y105952D01*
X168319Y105189D01*
X168091Y104338D01*
Y103457D01*
X168319Y102606D01*
X168759Y101843D01*
X169382Y101220D01*
X170145Y100779D01*
X170996Y100551D01*
X171878D01*
X172729Y100779D01*
X173492Y101220D01*
X174115Y101843D01*
X174555Y102606D01*
X174784Y103457D01*
Y104338D01*
X174555Y105189D01*
X174115Y105952D01*
X173492Y106576D01*
X172729Y107016D01*
X171878Y107244D01*
D02*
G37*
G36*
X26335Y167220D02*
X23169D01*
Y165039D01*
X26335D01*
Y167220D01*
D02*
G37*
G36*
X21201D02*
X18035D01*
Y165039D01*
X21201D01*
Y167220D01*
D02*
G37*
G36*
X26335Y163071D02*
X23169D01*
Y160890D01*
X26335D01*
Y163071D01*
D02*
G37*
G36*
X21201D02*
X18035D01*
Y160890D01*
X21201D01*
Y163071D01*
D02*
G37*
G36*
X26335Y160134D02*
X23169D01*
Y157953D01*
X26335D01*
Y160134D01*
D02*
G37*
G36*
X21201D02*
X18035D01*
Y157953D01*
X21201D01*
Y160134D01*
D02*
G37*
G36*
X26335Y155984D02*
X22185D01*
X18035D01*
Y153925D01*
X18035Y153803D01*
X17741Y153425D01*
X17658D01*
Y146839D01*
X17658Y146339D01*
X17658Y145839D01*
Y139752D01*
X17658Y139252D01*
X17658Y138752D01*
Y132665D01*
X17658Y132165D01*
X17658Y131665D01*
Y125079D01*
X17741D01*
X18035Y124701D01*
X18035Y124579D01*
Y122520D01*
X22185D01*
X26335D01*
Y124579D01*
X26335Y124701D01*
X26629Y125079D01*
X26713D01*
Y131665D01*
X26713Y132165D01*
X26713Y132665D01*
Y138752D01*
X26713Y139252D01*
X26713Y139752D01*
Y145839D01*
X26713Y146339D01*
X26713Y146839D01*
Y153425D01*
X26629D01*
X26335Y153803D01*
X26335Y153925D01*
Y155984D01*
D02*
G37*
G36*
Y120551D02*
X23169D01*
Y118370D01*
X26335D01*
Y120551D01*
D02*
G37*
G36*
X21201D02*
X18035D01*
Y118370D01*
X21201D01*
Y120551D01*
D02*
G37*
G36*
X26335Y117614D02*
X23169D01*
Y115433D01*
X26335D01*
Y117614D01*
D02*
G37*
G36*
X21201D02*
X18035D01*
Y115433D01*
X21201D01*
Y117614D01*
D02*
G37*
G36*
X26335Y113465D02*
X23169D01*
Y111283D01*
X26335D01*
Y113465D01*
D02*
G37*
G36*
X21201D02*
X18035D01*
Y111283D01*
X21201D01*
Y113465D01*
D02*
G37*
G36*
X14102Y71595D02*
X8197D01*
Y64902D01*
X9378D01*
Y62386D01*
X8878Y62179D01*
X8753Y62304D01*
X8035Y62718D01*
X7233Y62933D01*
X6404D01*
X5603Y62718D01*
X4885Y62304D01*
X4299Y61717D01*
X3884Y60999D01*
X3669Y60198D01*
Y59369D01*
X3884Y58568D01*
X4299Y57850D01*
X4885Y57263D01*
X5603Y56849D01*
X6404Y56634D01*
X7233D01*
X8035Y56849D01*
X8753Y57263D01*
X9339Y57850D01*
X9754Y58568D01*
X9968Y59369D01*
Y59980D01*
X13951D01*
X14011Y59681D01*
X14467Y58997D01*
X16105Y57360D01*
X16618Y57017D01*
X16553Y56643D01*
X16481Y56507D01*
X15725Y56356D01*
X15041Y55900D01*
X14137Y54995D01*
X13680Y54311D01*
X13555Y53681D01*
X9378D01*
Y50575D01*
X8878Y50368D01*
X8753Y50493D01*
X8035Y50907D01*
X7233Y51122D01*
X6404D01*
X5603Y50907D01*
X4885Y50493D01*
X4299Y49906D01*
X3884Y49188D01*
X3669Y48387D01*
Y47558D01*
X3884Y46757D01*
X4299Y46038D01*
X4885Y45452D01*
X5603Y45037D01*
X6404Y44823D01*
X7233D01*
X8035Y45037D01*
X8753Y45452D01*
X8878Y45577D01*
X9378Y45370D01*
Y42854D01*
X8197D01*
Y36161D01*
X14102D01*
Y37765D01*
X14507Y38045D01*
X14602Y38033D01*
X15226Y37866D01*
X15900D01*
X16551Y38041D01*
X17134Y38377D01*
X17611Y38854D01*
X17948Y39437D01*
X18122Y40088D01*
Y40762D01*
X17948Y41413D01*
X17745Y41764D01*
X17946Y42264D01*
X18039D01*
Y47776D01*
X18039D01*
Y48169D01*
X18039D01*
Y51751D01*
X18539Y51999D01*
X19092Y51850D01*
X19766D01*
X20417Y52025D01*
X21000Y52362D01*
X21477Y52838D01*
X21814Y53422D01*
X21988Y54072D01*
Y54746D01*
X21814Y55397D01*
X21477Y55981D01*
X21000Y56457D01*
X20927Y56499D01*
X20862Y56995D01*
X20957Y57090D01*
X21294Y57674D01*
X21468Y58324D01*
Y58998D01*
X21294Y59649D01*
X20957Y60233D01*
X20481Y60709D01*
X19897Y61046D01*
X19246Y61221D01*
X18573D01*
X18499Y61201D01*
X18065Y61558D01*
Y62047D01*
X18039Y62176D01*
Y65492D01*
X14102D01*
Y71595D01*
D02*
G37*
G36*
X111498Y42185D02*
X110825D01*
X110174Y42011D01*
X109590Y41674D01*
X109114Y41197D01*
X108777Y40614D01*
X108602Y39963D01*
Y39289D01*
X108777Y38638D01*
X109114Y38055D01*
X109590Y37578D01*
X110174Y37241D01*
X110825Y37067D01*
X111498D01*
X112149Y37241D01*
X112733Y37578D01*
X113209Y38055D01*
X113546Y38638D01*
X113721Y39289D01*
Y39963D01*
X113546Y40614D01*
X113209Y41197D01*
X112733Y41674D01*
X112149Y42011D01*
X111498Y42185D01*
D02*
G37*
G36*
X20626Y35016D02*
X19429D01*
Y34213D01*
X20626D01*
Y35016D01*
D02*
G37*
G36*
X17461D02*
X16264D01*
Y32560D01*
X15020D01*
Y33701D01*
X5571D01*
Y27795D01*
X8836D01*
Y27320D01*
X8685Y26758D01*
Y26084D01*
X8859Y25433D01*
X9196Y24850D01*
X9673Y24374D01*
X10256Y24037D01*
X10907Y23862D01*
X11581D01*
X12232Y24037D01*
X12815Y24374D01*
X13292Y24850D01*
X13629Y25433D01*
X13803Y26084D01*
Y26758D01*
X13653Y27320D01*
Y27795D01*
X15020D01*
Y28345D01*
X18030D01*
X18827Y28504D01*
X20807D01*
Y32441D01*
X20626D01*
Y32441D01*
X18630D01*
X18445Y32478D01*
Y33228D01*
X17461D01*
Y35016D01*
D02*
G37*
G36*
X138279Y40118D02*
X128831D01*
Y32244D01*
X138279D01*
Y40118D01*
D02*
G37*
G36*
X137902Y29740D02*
X134539D01*
Y27165D01*
X137902D01*
Y29740D01*
D02*
G37*
G36*
X132571D02*
X129209D01*
Y27165D01*
X132571D01*
Y29740D01*
D02*
G37*
G36*
X137902Y25197D02*
X134539D01*
Y22622D01*
X137902D01*
Y25197D01*
D02*
G37*
G36*
X132571D02*
X129209D01*
Y22622D01*
X132571D01*
Y25197D01*
D02*
G37*
G36*
X78309Y15866D02*
X77636D01*
X76985Y15692D01*
X76401Y15355D01*
X75925Y14878D01*
X75588Y14295D01*
X75413Y13644D01*
Y12970D01*
X75588Y12319D01*
X75925Y11736D01*
X76401Y11259D01*
X76985Y10922D01*
X77636Y10748D01*
X78309D01*
X78871Y10899D01*
X84061D01*
X84230Y10399D01*
X83850Y10107D01*
X83406Y9528D01*
X83126Y8854D01*
X83031Y8130D01*
Y7736D01*
X85827D01*
X88622D01*
Y8130D01*
X88527Y8854D01*
X88248Y9528D01*
X87804Y10107D01*
X87423Y10399D01*
X87593Y10899D01*
X133316D01*
X133343Y10883D01*
X133994Y10709D01*
X134668D01*
X135319Y10883D01*
X135902Y11220D01*
X136379Y11696D01*
X136715Y12280D01*
X136890Y12931D01*
Y13605D01*
X136715Y14255D01*
X136379Y14839D01*
X135902Y15315D01*
X135319Y15652D01*
X134668Y15827D01*
X133994D01*
X133579Y15716D01*
X78871D01*
X78309Y15866D01*
D02*
G37*
G36*
X60827Y10722D02*
Y7736D01*
X62638D01*
Y8130D01*
X62543Y8854D01*
X62264Y9528D01*
X61819Y10107D01*
X61240Y10551D01*
X60827Y10722D01*
D02*
G37*
G36*
X58858D02*
X58445Y10551D01*
X57866Y10107D01*
X57421Y9528D01*
X57142Y8854D01*
X57047Y8130D01*
Y7736D01*
X58858D01*
Y10722D01*
D02*
G37*
G36*
X15020Y20315D02*
X5571D01*
Y14410D01*
X15020D01*
Y15249D01*
X17947D01*
X28842Y4355D01*
X29623Y3833D01*
X30545Y3649D01*
X48942D01*
X49504Y3499D01*
X50178D01*
X50829Y3673D01*
X51412Y4010D01*
X51889Y4487D01*
X52226Y5070D01*
X52400Y5721D01*
Y6395D01*
X52226Y7046D01*
X51889Y7629D01*
X51412Y8106D01*
X50829Y8443D01*
X50178Y8617D01*
X49504D01*
X48942Y8466D01*
X31542D01*
X20648Y19361D01*
X19867Y19883D01*
X18945Y20066D01*
X15020D01*
Y20315D01*
D02*
G37*
%LPD*%
D10*
X16217Y201059D02*
G03*
X17004Y202960I-1901J1901D01*
G01*
X17291Y218980D02*
G03*
X17004Y218286I694J-694D01*
G01*
X13973Y200130D02*
G03*
X16217Y201059I0J3172D01*
G01*
X7156Y200130D02*
G03*
X4634Y197365I255J-2765D01*
G01*
X4634Y181824D02*
G03*
X5016Y180902I1304J0D01*
G01*
D02*
G03*
X5767Y180591I751J751D01*
G01*
X17004Y202960D02*
Y218286D01*
X7156Y200130D02*
X13973D01*
X4634Y181824D02*
Y197365D01*
X5767Y180591D02*
X10374D01*
X10370Y180595D02*
X10374Y180591D01*
X236221Y190925D02*
Y236221D01*
X0D02*
X236221D01*
Y158150D02*
Y190925D01*
X151358Y20D02*
Y93189D01*
X44587Y20D02*
X151358D01*
Y93189D02*
X236221D01*
X0Y0D02*
X44488D01*
X0Y181791D02*
X0Y0D01*
X236221Y93189D02*
Y158150D01*
X0Y181791D02*
Y236221D01*
D11*
X133898Y146240D02*
X137434D01*
X144032Y145013D02*
X147703D01*
X132323Y146240D02*
X133898D01*
X133898Y146240D01*
X131240Y145158D02*
X132323Y146240D01*
X128484Y145158D02*
X131240D01*
X128254Y145388D02*
X128484Y145158D01*
X142936Y143918D02*
X144032Y145013D01*
X137434Y146240D02*
X139756Y143918D01*
X147703Y145013D02*
X148130Y144587D01*
X139756Y143918D02*
X142936D01*
X122770Y145388D02*
X128254D01*
X122539Y145618D02*
X122770Y145388D01*
X140807Y149626D02*
X141831Y148602D01*
Y148030D02*
Y148602D01*
X140807Y149626D02*
Y149724D01*
X132323Y148012D02*
X134632D01*
X131240Y149094D02*
X132323Y148012D01*
X134632Y148012D02*
X138168D01*
X134632Y148012D02*
X134632Y148012D01*
X141831Y148030D02*
X142779Y147081D01*
Y146266D02*
Y147081D01*
X138168Y148012D02*
X140490Y145689D01*
X142202D01*
X142779Y146266D01*
X128301Y148911D02*
X128484Y149094D01*
X131240D01*
X122722Y148911D02*
X128301D01*
X122539Y148728D02*
X122722Y148911D01*
X152959Y149140D02*
X153524Y149705D01*
X152012Y149140D02*
X152959D01*
X149153Y146281D02*
X152012Y149140D01*
X149153Y145709D02*
Y146281D01*
X148130Y144685D02*
X149153Y145709D01*
X144610Y154199D02*
X146994D01*
X141831Y150847D02*
Y151419D01*
X144610Y154199D01*
X148130Y144587D02*
Y144685D01*
X140807Y149823D02*
X141831Y150847D01*
X140807Y149724D02*
Y149823D01*
X146994Y154199D02*
X147559Y154764D01*
D12*
X122559Y117598D02*
X128484D01*
X122539Y117579D02*
X122559Y117598D01*
X11244Y26421D02*
Y30409D01*
X11287Y30453D01*
X20890Y68677D02*
X26083Y63484D01*
X19449Y79610D02*
X20890Y78169D01*
X26083Y29862D02*
Y63484D01*
X20890Y68677D02*
Y78169D01*
X19449Y79610D02*
Y88996D01*
X138878Y109705D02*
X140374Y108209D01*
X158563Y134784D02*
X159489Y135710D01*
Y140521D01*
X160760Y141791D01*
X164389D01*
X152496Y139161D02*
X157658Y144323D01*
Y172831D01*
X142457Y134099D02*
X144134Y135776D01*
X152118Y110413D02*
X152224D01*
X151173Y111358D02*
X152118Y110413D01*
X148839Y116476D02*
X150952D01*
X148839Y111358D02*
X151173D01*
X151925Y115504D02*
X152031D01*
X148248Y111949D02*
X148839Y111358D01*
X150952Y116476D02*
X151925Y115504D01*
X152496Y120894D02*
Y139161D01*
Y120894D02*
X156953Y116437D01*
X147106Y100413D02*
X153000D01*
X156953Y104366D01*
Y116437D01*
X151992Y105059D02*
X152956Y106024D01*
X153063D01*
X148839Y105059D02*
X151992D01*
X133604Y46132D02*
X144616D01*
X33667Y37426D02*
X37269D01*
X133555Y46181D02*
X133604Y46132D01*
X51653Y59153D02*
X64370D01*
X125453Y50118D02*
X128405Y53071D01*
X70571Y45866D02*
X133240D01*
X41791Y63445D02*
X66614D01*
X64370Y59153D02*
X73405Y50118D01*
X39902Y40059D02*
Y47402D01*
X33389Y27200D02*
X37495D01*
X144616Y46132D02*
X144665Y46083D01*
X150118Y97067D02*
X165689D01*
X32500Y36260D02*
X33667Y37426D01*
X39902Y47402D02*
X51653Y59153D01*
X133240Y45866D02*
X133555Y46181D01*
X32438Y54091D02*
X41791Y63445D01*
X73405Y50118D02*
X125453D01*
X60827Y55610D02*
X70571Y45866D01*
X133555Y26181D02*
X141575D01*
X32362Y52441D02*
X32438Y52516D01*
X123327Y54350D02*
X126516Y57539D01*
X146673Y93622D02*
X150118Y97067D01*
X44862Y34567D02*
Y46890D01*
X37269Y37426D02*
X39902Y40059D01*
X133031Y53071D02*
X149055Y69095D01*
X75709Y54350D02*
X123327D01*
X146673Y72677D02*
Y93622D01*
X32362Y46189D02*
X32370Y46181D01*
X128405Y53071D02*
X133031D01*
X44862Y46890D02*
X48644Y50672D01*
X32362Y46189D02*
Y52441D01*
X32370Y26181D02*
X33389Y27200D01*
X32438Y52516D02*
Y54091D01*
X37495Y27200D02*
X44862Y34567D01*
X66614Y63445D02*
X75709Y54350D01*
X126516Y57539D02*
X131535D01*
X146673Y72677D01*
X48644Y50672D02*
X59997D01*
X19996Y7586D02*
Y7700D01*
X15311Y2902D02*
X19996Y7586D01*
Y7700D02*
X20071Y7776D01*
X221555Y195335D02*
Y202520D01*
X212667Y174951D02*
X212677Y174941D01*
X212657Y186260D02*
X212667Y186250D01*
X209035Y195394D02*
Y202579D01*
X210157Y216673D02*
X212677D01*
X226063Y174941D02*
Y186102D01*
X212667Y174951D02*
Y186250D01*
X226063Y186102D02*
X226181Y186221D01*
X196122Y202638D02*
X210157Y216673D01*
X202579Y195551D02*
Y202736D01*
X215413Y195453D02*
Y202638D01*
X227894Y195335D02*
Y202323D01*
X142126Y95433D02*
X147106Y100413D01*
X142126Y74783D02*
Y95433D01*
X148248Y104469D02*
X148839Y105059D01*
X136142Y68799D02*
X142126Y74783D01*
X140177Y108209D02*
X140374D01*
X139587Y107618D02*
X140177Y108209D01*
X135374Y102933D02*
X139587Y107146D01*
Y107618D01*
X135374Y94784D02*
Y102933D01*
Y89882D02*
Y94784D01*
X148248Y117067D02*
X148839Y116476D01*
X144134Y135776D02*
Y139409D01*
X94961Y80256D02*
X95020Y80197D01*
X106634Y80394D02*
X106831Y80197D01*
X122776Y152972D02*
X128425D01*
X32028Y69862D02*
Y80197D01*
X111496Y68819D02*
X111516Y68799D01*
X98957Y86496D02*
X105053D01*
X3720Y176673D02*
X3740Y176654D01*
X89480Y86496D02*
X94961D01*
X157658Y172831D02*
X160846Y176021D01*
X10177Y168976D02*
X10374Y168780D01*
X160846Y176021D02*
Y179252D01*
X128465Y97382D02*
Y101831D01*
X21240Y107520D02*
X22185Y108465D01*
X88327Y87649D02*
X89480Y86496D01*
X32028Y69862D02*
X35000Y66890D01*
X3740Y176654D02*
X10374D01*
X98957Y80197D02*
Y86496D01*
X158110Y181988D02*
X160846Y179252D01*
X105053Y86496D02*
X106634Y84916D01*
X122963Y156939D02*
X128455D01*
X22185Y108465D02*
Y114449D01*
X87146Y92008D02*
X88327Y90827D01*
X138917Y181988D02*
X158110D01*
X88327Y87649D02*
Y90827D01*
X94961Y80256D02*
Y86496D01*
X98957D01*
X111516Y68799D02*
X136142D01*
X8819Y97716D02*
X9006Y97904D01*
X43780Y72697D02*
X43839Y72756D01*
X106634Y80394D02*
Y84916D01*
X3760Y170177D02*
X4961Y168976D01*
X10177D01*
X47717Y72677D02*
Y80138D01*
X35925Y80236D02*
Y86457D01*
X122461Y137284D02*
X128484D01*
X122933Y156909D02*
X122963Y156939D01*
X128465Y101831D02*
X128484Y101850D01*
X128484Y101850D02*
Y105787D01*
X9006Y97904D02*
X10364D01*
X35925Y80236D02*
X35965Y80197D01*
X8819Y93228D02*
Y97716D01*
X122441Y137264D02*
X122461Y137284D01*
X128425Y152972D02*
X128484Y153032D01*
X128455Y156939D02*
X128484Y156968D01*
X133780Y176850D02*
X138917Y181988D01*
X130039Y176850D02*
X133780D01*
X129842Y176654D02*
X130039Y176850D01*
X128484Y176654D02*
X129842D01*
X10364Y97904D02*
X10374Y97913D01*
X47717Y80138D02*
X47776Y80197D01*
X43839Y72756D02*
Y80197D01*
X220905Y104429D02*
Y110728D01*
X182638Y153504D02*
X195571D01*
X202658Y160591D01*
X216161D01*
X180217Y155925D02*
X182638Y153504D01*
X220905Y104429D02*
X221102Y104232D01*
X173504Y153779D02*
X177228Y150056D01*
Y148382D02*
X177303Y148307D01*
X177228Y148382D02*
Y150056D01*
X173504Y153779D02*
Y154075D01*
X162157Y148091D02*
X170661D01*
X172736Y134784D02*
Y146015D01*
X170661Y148091D02*
X172736Y146015D01*
X40315Y150984D02*
Y166909D01*
X40295Y150965D02*
X40315Y150984D01*
Y129002D02*
Y150945D01*
X40295Y150965D02*
X40315Y150945D01*
X22618Y177130D02*
X30094D01*
X40315Y166909D01*
X19449Y88996D02*
X31339Y100886D01*
X57579D02*
X71004Y114311D01*
X31339Y100886D02*
X57579D01*
X37795Y104449D02*
Y126482D01*
X40315Y129002D01*
X144134Y139409D02*
X148012D01*
X151378Y142776D01*
Y144488D01*
X151476Y144587D01*
X154598Y176063D02*
X156685Y178150D01*
X156791D01*
X150492Y176063D02*
X154598D01*
X150433Y176122D02*
X150492Y176063D01*
X149705Y176122D02*
X150433D01*
X149705D02*
X149724Y176102D01*
X149705Y168543D02*
X149744Y168583D01*
X149665Y161043D02*
X149705Y161083D01*
Y168543D01*
X149724Y168602D02*
Y176102D01*
Y168602D02*
X149744Y168583D01*
X139221Y113661D02*
X140374Y114814D01*
X128484Y113661D02*
X139221D01*
X140374Y114814D02*
Y119291D01*
X24902Y28681D02*
X26083Y29862D01*
X24902Y21004D02*
Y28681D01*
Y21004D02*
X28386Y17520D01*
X42913D01*
X49862Y24468D01*
X71004Y114311D02*
Y124646D01*
X128504Y109705D02*
X138878D01*
X165532Y169100D02*
Y177303D01*
X161004Y167199D02*
X162157Y168352D01*
X161004Y149244D02*
Y167199D01*
Y149244D02*
X162157Y148091D01*
Y168352D02*
X164783D01*
X165532Y169100D01*
X180965Y225079D02*
X181398Y225512D01*
X170276Y177342D02*
X173760D01*
X180443Y177628D02*
X183701D01*
X180138Y177323D02*
X180443Y177628D01*
X188484Y164252D02*
X188504Y164232D01*
X188484Y164252D02*
Y169370D01*
X77972Y13307D02*
X134291D01*
X134331Y13268D01*
X138955Y154803D02*
X139488D01*
X30545Y6058D02*
X49841D01*
X18945Y17658D02*
X30545Y6058D01*
X136890Y174744D02*
X140650D01*
X128484Y172717D02*
X128681Y172913D01*
X135059D01*
X136890Y174744D01*
X128583Y168681D02*
X141358D01*
X128484Y156968D02*
X136790D01*
X138955Y154803D01*
X10295Y17658D02*
X18945D01*
X152913Y209508D02*
Y214882D01*
X153110Y215079D01*
X151535Y208130D02*
X152913Y209508D01*
X138287Y208130D02*
X151535D01*
X128484Y109724D02*
X128504Y109705D01*
X128681Y164646D02*
X135512D01*
X138070Y162088D02*
X140610D01*
X135512Y164646D02*
X138070Y162088D01*
X128484Y164842D02*
X128681Y164646D01*
X128484Y168780D02*
X128583Y168681D01*
X128681Y141024D02*
X135295D01*
X136909Y139409D02*
X140787D01*
X135295Y141024D02*
X136909Y139409D01*
X128484Y141220D02*
X128681Y141024D01*
X180217Y155925D02*
Y169370D01*
X2746Y97904D02*
X9006D01*
X2736Y97894D02*
X2746Y97904D01*
X181220Y225689D02*
X181398Y225512D01*
X180591Y225689D02*
X181220D01*
X165787Y154311D02*
X166024Y154075D01*
X165551Y161673D02*
X165787Y161437D01*
Y154311D02*
Y161437D01*
X165492Y177342D02*
X165532Y177303D01*
X173868Y169341D02*
X180187D01*
X180217Y169370D01*
X173839Y169311D02*
X173868Y169341D01*
X216161Y160591D02*
X219370Y163799D01*
Y174941D01*
D17*
X121171Y76565D02*
X121181Y76575D01*
X115748Y76555D02*
X115758Y76565D01*
X121171D01*
X67461Y80197D02*
X67461Y80197D01*
X71398Y73339D02*
X71398Y73339D01*
X67461Y85847D02*
X67461Y85847D01*
X75335Y80197D02*
X75345Y80207D01*
X71398Y73339D02*
Y80197D01*
X55718Y80266D02*
Y85777D01*
X61181Y73366D02*
X66555D01*
X71398Y80197D02*
X71398Y80197D01*
X75345Y85738D02*
X75354Y85748D01*
X59587Y74961D02*
X61181Y73366D01*
X59587Y74961D02*
Y80197D01*
X55650D02*
X55718Y80266D01*
Y85777D02*
X55787Y85847D01*
X67461Y80197D02*
Y85847D01*
X51703Y80207D02*
X51713Y80197D01*
X75345Y80207D02*
Y85738D01*
X51693Y85847D02*
X51703Y85837D01*
Y80207D02*
Y85837D01*
X63524Y80197D02*
Y85846D01*
X63543Y85866D01*
X10354Y129429D02*
X10374Y129409D01*
X3445Y129429D02*
X10354D01*
X3248Y129626D02*
X3445Y129429D01*
X98405Y158898D02*
Y163622D01*
X3130Y123287D02*
X5315Y125472D01*
X10374D01*
X3071Y123228D02*
X3110D01*
X3130Y123248D02*
Y123287D01*
X3110Y123228D02*
X3130Y123248D01*
X99272Y169567D02*
X123110Y193405D01*
Y215079D01*
X96398Y169567D02*
X99272D01*
X2913Y164803D02*
X2933Y164823D01*
X10354D01*
X10374Y164842D01*
X10354Y145177D02*
X10374Y145158D01*
X3071Y145197D02*
X3091Y145177D01*
X10354D01*
X126555Y191772D02*
Y208524D01*
X98405Y163622D02*
X126555Y191772D01*
X98760Y174114D02*
X119547Y194902D01*
X126555Y208524D02*
X133110Y215079D01*
X113110Y215020D02*
Y215079D01*
Y215020D02*
X119547Y208583D01*
Y194902D02*
Y208583D01*
D23*
X14626Y17165D02*
X16201D01*
Y30945D01*
X14626D02*
X16201D01*
X4390D02*
X5965D01*
X4390Y17165D02*
Y30945D01*
Y17165D02*
X5965D01*
Y14803D02*
Y17165D01*
Y14803D02*
X14626D01*
Y17165D01*
Y30945D02*
Y33307D01*
X5965D02*
X14626D01*
X5965Y30945D02*
Y33307D01*
X129469Y90374D02*
X131043D01*
X129469Y76595D02*
Y90374D01*
Y76595D02*
X131043D01*
X139705D02*
X141279D01*
Y90374D01*
X139705D02*
X141279D01*
X139705D02*
Y92736D01*
X131043D02*
X139705D01*
X131043Y90374D02*
Y92736D01*
Y74232D02*
Y76595D01*
Y74232D02*
X139705D01*
Y76595D01*
X-29756Y203508D02*
X32764D01*
X-29756D02*
Y234453D01*
X32764D01*
Y203508D02*
Y234453D01*
D24*
X32370Y26181D02*
D03*
Y36181D02*
D03*
Y46181D02*
D03*
X133555Y26181D02*
D03*
Y36181D02*
D03*
Y46181D02*
D03*
D25*
X11150Y39508D02*
D03*
X2488Y68248D02*
D03*
X11150D02*
D03*
X2488Y39508D02*
D03*
D26*
X13709Y62736D02*
D03*
Y50925D02*
D03*
Y45020D02*
D03*
D27*
X10295Y17362D02*
D03*
Y30748D02*
D03*
X135374Y90177D02*
D03*
Y76791D02*
D03*
D28*
X140650Y130787D02*
D03*
X143405D02*
D03*
X121181Y76575D02*
D03*
X123937D02*
D03*
D29*
X18445Y30472D02*
D03*
Y33228D02*
D03*
D30*
X4287Y2902D02*
D03*
X15311D02*
D03*
D31*
X2913Y164803D02*
D03*
X147559Y154764D02*
D03*
X139488Y154803D02*
D03*
X153524Y149705D02*
D03*
X136161Y134272D02*
D03*
X135374Y94784D02*
D03*
X164389Y141791D02*
D03*
X171437Y103898D02*
D03*
X3071Y145197D02*
D03*
X2776Y137165D02*
D03*
X3248Y129626D02*
D03*
X2736Y97894D02*
D03*
X3130Y123248D02*
D03*
D32*
X180138Y177323D02*
D03*
X188406D02*
D03*
X180217Y169370D02*
D03*
X188484D02*
D03*
X165571Y169311D02*
D03*
X173839D02*
D03*
X173819Y161673D02*
D03*
X165551D02*
D03*
X149705Y176122D02*
D03*
X141437D02*
D03*
X141476Y168583D02*
D03*
X149744D02*
D03*
X141398Y161043D02*
D03*
X149665D02*
D03*
X173760Y177342D02*
D03*
X165492D02*
D03*
D33*
X166024Y154075D02*
D03*
X173504D02*
D03*
D34*
X144153Y149724D02*
D03*
X140807D02*
D03*
X151476Y144587D02*
D03*
X148130D02*
D03*
X144134Y139409D02*
D03*
X140787D02*
D03*
D35*
X148248Y117067D02*
D03*
Y124547D02*
D03*
X140374Y120807D02*
D03*
Y108209D02*
D03*
X148248Y111949D02*
D03*
Y104469D02*
D03*
D36*
X158563Y134784D02*
D03*
X172736D02*
D03*
D37*
X187165Y138504D02*
D03*
X226929D02*
D03*
D38*
X197283Y104232D02*
D03*
X221102D02*
D03*
D39*
X180591Y225689D02*
D03*
Y208760D02*
D03*
D40*
X128484Y145158D02*
D03*
Y149094D02*
D03*
X10374Y180591D02*
D03*
Y176654D02*
D03*
Y172717D02*
D03*
Y168780D02*
D03*
Y164842D02*
D03*
X128484Y101850D02*
D03*
X128484Y105787D02*
D03*
Y109724D02*
D03*
Y113661D02*
D03*
Y117598D02*
D03*
Y121535D02*
D03*
Y125472D02*
D03*
Y129409D02*
D03*
Y133346D02*
D03*
Y137284D02*
D03*
Y141220D02*
D03*
Y153032D02*
D03*
Y156968D02*
D03*
Y160906D02*
D03*
Y164842D02*
D03*
X128484Y168780D02*
D03*
X128484Y172717D02*
D03*
Y176654D02*
D03*
Y180591D02*
D03*
X10374Y160906D02*
D03*
Y156968D02*
D03*
Y153032D02*
D03*
Y149094D02*
D03*
Y145158D02*
D03*
Y141220D02*
D03*
Y137284D02*
D03*
Y133346D02*
D03*
Y129409D02*
D03*
Y125472D02*
D03*
Y121535D02*
D03*
Y117598D02*
D03*
Y113661D02*
D03*
Y109724D02*
D03*
Y105787D02*
D03*
Y101850D02*
D03*
Y97913D02*
D03*
D41*
X94232Y92008D02*
D03*
X87146Y92008D02*
D03*
X80059D02*
D03*
X72973D02*
D03*
X65886Y92008D02*
D03*
X58799D02*
D03*
X51713D02*
D03*
X44626Y186496D02*
D03*
X51713D02*
D03*
X58799D02*
D03*
X65886D02*
D03*
X72972D02*
D03*
X80059D02*
D03*
X87146D02*
D03*
X44626Y92008D02*
D03*
X94232Y186496D02*
D03*
D42*
X22185Y114449D02*
D03*
Y121535D02*
D03*
Y128622D02*
D03*
Y135709D02*
D03*
X22185Y142795D02*
D03*
Y149882D02*
D03*
X22185Y156968D02*
D03*
Y164055D02*
D03*
X116673Y121535D02*
D03*
Y128622D02*
D03*
Y135709D02*
D03*
Y142795D02*
D03*
Y149882D02*
D03*
Y156968D02*
D03*
Y164055D02*
D03*
Y114449D02*
D03*
D43*
X110768Y198307D02*
D03*
X106831D02*
D03*
X102894D02*
D03*
X98957D02*
D03*
X95020D02*
D03*
X91083D02*
D03*
X87146D02*
D03*
X83209D02*
D03*
X79272D02*
D03*
X75335D02*
D03*
X71398D02*
D03*
X67461D02*
D03*
X63524D02*
D03*
X59587D02*
D03*
X55650D02*
D03*
X51713D02*
D03*
X47776D02*
D03*
X43839D02*
D03*
X39902Y198307D02*
D03*
X35965Y198307D02*
D03*
X32028D02*
D03*
X28091D02*
D03*
X55650Y80197D02*
D03*
X59587D02*
D03*
X63524D02*
D03*
X67461D02*
D03*
X71398D02*
D03*
X75335D02*
D03*
X79272D02*
D03*
X83209D02*
D03*
X87146D02*
D03*
X91083D02*
D03*
X95020D02*
D03*
X98957D02*
D03*
X102894D02*
D03*
X106831D02*
D03*
X110768D02*
D03*
X28091D02*
D03*
X32028D02*
D03*
X35965D02*
D03*
X39902D02*
D03*
X43839D02*
D03*
X47776D02*
D03*
X51713D02*
D03*
D71*
X212677Y216673D02*
D03*
D72*
X226063Y174941D02*
D03*
X219370D02*
D03*
X212677D02*
D03*
X205984D02*
D03*
X199291D02*
D03*
D73*
X148181Y149803D02*
X151319Y152941D01*
X144153Y149724D02*
X144232Y149803D01*
X151319Y152941D02*
Y156516D01*
X150118Y157717D02*
Y160591D01*
X144232Y149803D02*
X148181D01*
X149665Y161043D02*
X150118Y160591D01*
Y157717D02*
X151319Y156516D01*
X11287Y30453D02*
X18030D01*
X15269Y62736D02*
X15958Y62047D01*
X17595Y58850D02*
X18721D01*
X15958Y60487D02*
Y62047D01*
X13709Y62736D02*
X15269D01*
X15958Y60487D02*
X17595Y58850D01*
X18721D02*
X18910Y58661D01*
X13709Y50925D02*
X14938D01*
X15627Y51614D02*
Y53505D01*
X16532Y54409D01*
X19429D01*
X14938Y50925D02*
X15627Y51614D01*
X15563Y40425D02*
Y44331D01*
X13709Y45020D02*
X14874D01*
X15563Y44331D01*
X136161Y134272D02*
X136161D01*
X139154Y131280D02*
X140551D01*
X136161Y134272D02*
X139154Y131280D01*
X140551D02*
X140650Y131181D01*
Y130787D02*
Y131181D01*
X143405Y130787D02*
Y132884D01*
X142457Y133833D02*
X143405Y132884D01*
X142457Y133833D02*
Y134099D01*
X135354Y81614D02*
X135374Y81595D01*
Y77087D02*
Y81595D01*
X4201Y7571D02*
X4244Y7528D01*
Y2945D02*
Y7528D01*
Y2945D02*
X4287Y2902D01*
X136161Y122067D02*
Y133782D01*
Y134272D01*
Y122067D02*
X137343Y120886D01*
X139488Y120177D02*
Y120689D01*
X139291Y120886D02*
X139488Y120689D01*
X137343Y120886D02*
X139291D01*
X143504Y129095D02*
Y130689D01*
Y129095D02*
X148051Y124547D01*
X143405Y130787D02*
X143504Y130689D01*
X148051Y124547D02*
X148248D01*
X139488Y120177D02*
X140374Y119291D01*
X125925Y89882D02*
X135374D01*
X123937Y76575D02*
Y87894D01*
X125925Y89882D01*
X31929Y190945D02*
X32028Y191043D01*
X43839Y192559D02*
Y198307D01*
X44626Y186496D02*
X44705Y186575D01*
X9370Y137284D02*
X10374D01*
X44705Y186575D02*
Y191693D01*
X3701Y102638D02*
X4488Y101850D01*
X43839Y192559D02*
X44705Y191693D01*
X10374Y137284D02*
X10374Y137284D01*
X133556Y182906D02*
X134599D01*
X32028Y191043D02*
Y198307D01*
X131240Y180591D02*
X133556Y182906D01*
X128484Y180591D02*
X131240D01*
X134599Y182906D02*
X134788Y183095D01*
X4016Y113661D02*
X10374D01*
X4488Y101850D02*
X10374D01*
X3996Y113681D02*
X4016Y113661D01*
X3858Y109724D02*
X3878D01*
X3858D02*
X3858Y109724D01*
X10374D01*
X170236Y161673D02*
X170236Y161673D01*
X173819D01*
X22067Y33228D02*
X22087Y33248D01*
X18445Y33228D02*
X22067D01*
X141417Y176142D02*
X141437Y176122D01*
X2716Y137126D02*
X2736D01*
X2776Y137165D01*
D74*
X6819Y47972D02*
D03*
Y59784D02*
D03*
D75*
X163110Y215079D02*
D03*
X153110D02*
D03*
X143110D02*
D03*
X133110D02*
D03*
X123110D02*
D03*
X113110D02*
D03*
X103110D02*
D03*
X93110D02*
D03*
X83110D02*
D03*
X73110D02*
D03*
X163110Y225079D02*
D03*
X153110D02*
D03*
X143110D02*
D03*
X133110D02*
D03*
X123110D02*
D03*
X113110D02*
D03*
X103110D02*
D03*
X93110D02*
D03*
X83110D02*
D03*
D76*
X73110D02*
D03*
D77*
X27331Y229020D02*
D03*
X7252D02*
D03*
Y208941D02*
D03*
X27331D02*
D03*
D78*
X17291Y218980D02*
D03*
D79*
X59842Y6752D02*
D03*
X85827D02*
D03*
D80*
X122539Y145618D02*
D03*
Y148728D02*
D03*
X122539Y117579D02*
D03*
X11244Y26421D02*
D03*
X18910Y58661D02*
D03*
X19429Y54409D02*
D03*
X15563Y40425D02*
D03*
X20835Y43756D02*
D03*
X20890Y68677D02*
D03*
X111161Y39626D02*
D03*
X13850Y209835D02*
D03*
X13827Y206480D02*
D03*
Y213008D02*
D03*
X20181Y212925D02*
D03*
Y209949D02*
D03*
X20169Y206764D02*
D03*
X20181Y203429D02*
D03*
X13543Y203378D02*
D03*
X10067Y203311D02*
D03*
X11197Y184453D02*
D03*
X7905Y184701D02*
D03*
X7842Y187803D02*
D03*
X7823Y191114D02*
D03*
X7866Y194508D02*
D03*
X9902Y196874D02*
D03*
X13500Y196913D02*
D03*
X17102Y197689D02*
D03*
X19555Y200118D02*
D03*
X5197Y202913D02*
D03*
X2433Y200783D02*
D03*
X1484Y197272D02*
D03*
Y194008D02*
D03*
X1461Y190697D02*
D03*
X1484Y187173D02*
D03*
X1492Y183551D02*
D03*
X1902Y179720D02*
D03*
X142457Y134099D02*
D03*
X177303Y148307D02*
D03*
X40295Y150965D02*
D03*
X135354Y81614D02*
D03*
X113847Y231327D02*
D03*
X106252Y231264D02*
D03*
X97823D02*
D03*
X68713Y231197D02*
D03*
X78224Y231008D02*
D03*
X87866Y230941D02*
D03*
X191969Y183465D02*
D03*
X143780Y189134D02*
D03*
X199056Y163622D02*
D03*
X197638Y160788D02*
D03*
X194804Y177796D02*
D03*
Y172126D02*
D03*
Y166457D02*
D03*
X193386Y163622D02*
D03*
Y157953D02*
D03*
X186300Y183465D02*
D03*
X187717Y157953D02*
D03*
X157953Y189134D02*
D03*
X149449D02*
D03*
X135276D02*
D03*
X115433Y206142D02*
D03*
X109764D02*
D03*
X106929D02*
D03*
X101260D02*
D03*
X98426Y211811D02*
D03*
X70079Y206142D02*
D03*
X67244D02*
D03*
X176378Y118268D02*
D03*
X186300Y121103D02*
D03*
Y109764D02*
D03*
Y104095D02*
D03*
X183465Y115433D02*
D03*
Y109764D02*
D03*
Y104095D02*
D03*
Y98426D02*
D03*
X182048Y118268D02*
D03*
Y112599D02*
D03*
Y106929D02*
D03*
Y101260D02*
D03*
X177796Y121103D02*
D03*
Y109764D02*
D03*
Y104095D02*
D03*
Y98426D02*
D03*
X174961Y115433D02*
D03*
X176378Y106929D02*
D03*
Y101260D02*
D03*
X172126Y121103D02*
D03*
Y109764D02*
D03*
Y98426D02*
D03*
X170709Y118268D02*
D03*
X3720Y176673D02*
D03*
X4201Y7571D02*
D03*
X152031Y115504D02*
D03*
X152224Y110413D02*
D03*
X153063Y106024D02*
D03*
X141575Y26181D02*
D03*
X59997Y50672D02*
D03*
X32500Y36260D02*
D03*
X60827Y55610D02*
D03*
X144665Y46083D02*
D03*
X149055Y69095D02*
D03*
X32362Y52441D02*
D03*
X165689Y97067D02*
D03*
X20071Y7776D02*
D03*
X221555Y195335D02*
D03*
X212657Y186260D02*
D03*
X209035Y195394D02*
D03*
X226181Y186221D02*
D03*
X202579Y195551D02*
D03*
X227894Y195335D02*
D03*
X215413Y195453D02*
D03*
X115748Y76555D02*
D03*
X3701Y102638D02*
D03*
X75354Y85748D02*
D03*
X122933Y156909D02*
D03*
X31929Y190945D02*
D03*
X47717Y72677D02*
D03*
X51693Y85847D02*
D03*
X128465Y97382D02*
D03*
X35000Y66890D02*
D03*
X3760Y170177D02*
D03*
X21240Y107520D02*
D03*
X9370Y137284D02*
D03*
X122441Y137264D02*
D03*
X122776Y152972D02*
D03*
X111496Y68819D02*
D03*
X3996Y113681D02*
D03*
X134788Y183095D02*
D03*
X67461Y85847D02*
D03*
X43780Y72697D02*
D03*
X3878Y109724D02*
D03*
X55787Y85847D02*
D03*
X8819Y93228D02*
D03*
X66555Y73366D02*
D03*
X63543Y85866D02*
D03*
X71398Y73339D02*
D03*
X35925Y86457D02*
D03*
X220905Y110728D02*
D03*
X90787Y159606D02*
D03*
X28524Y157028D02*
D03*
X28425Y164154D02*
D03*
X170236Y161673D02*
D03*
X43110Y108799D02*
D03*
X82067Y144272D02*
D03*
X44279Y223933D02*
D03*
X51228Y223973D02*
D03*
X44469Y211595D02*
D03*
X160709Y192008D02*
D03*
X138878Y187205D02*
D03*
X174646Y192067D02*
D03*
X138878Y192106D02*
D03*
X182027Y191969D02*
D03*
X167421Y187165D02*
D03*
X160709Y187106D02*
D03*
X153484Y192098D02*
D03*
X174646Y187165D02*
D03*
X182027Y187067D02*
D03*
X167421Y192067D02*
D03*
X146102Y192130D02*
D03*
X153496Y187201D02*
D03*
X37795Y104449D02*
D03*
X72677Y132441D02*
D03*
X72716Y142342D02*
D03*
X50472Y141673D02*
D03*
X50354Y134488D02*
D03*
X40768Y56181D02*
D03*
X119134Y41417D02*
D03*
X119232Y35650D02*
D03*
X112008Y33445D02*
D03*
X104961Y35669D02*
D03*
X105098Y41516D02*
D03*
X84272Y41417D02*
D03*
X84429Y35965D02*
D03*
X121555Y180591D02*
D03*
X15098Y81339D02*
D03*
X156791Y178150D02*
D03*
X111594Y63642D02*
D03*
X103032Y61890D02*
D03*
X56024Y72224D02*
D03*
X61831Y68740D02*
D03*
X84460Y61782D02*
D03*
X70000Y68622D02*
D03*
X102835Y68760D02*
D03*
X96142Y68740D02*
D03*
X89547Y68681D02*
D03*
X82835D02*
D03*
X76319Y68622D02*
D03*
X67736Y22716D02*
D03*
X52402Y36772D02*
D03*
X22087Y33248D02*
D03*
X49862Y24468D02*
D03*
X71004Y124646D02*
D03*
X164389Y141791D02*
D03*
X170276Y177342D02*
D03*
X183701Y177628D02*
D03*
X188504Y164232D02*
D03*
X134331Y13268D02*
D03*
X77972Y13307D02*
D03*
X100276Y184449D02*
D03*
X171437Y103898D02*
D03*
X98405Y158898D02*
D03*
X49841Y6058D02*
D03*
X141417Y176142D02*
D03*
X141398Y161240D02*
D03*
X141358Y168720D02*
D03*
X3071Y123228D02*
D03*
X2716Y137126D02*
D03*
X51417Y211634D02*
D03*
X58162Y211638D02*
D03*
X44469Y217815D02*
D03*
X51417Y217854D02*
D03*
X58162Y217858D02*
D03*
X57972Y223976D02*
D03*
X57919Y230086D02*
D03*
X51174Y230083D02*
D03*
X44225Y230043D02*
D03*
X98760Y174114D02*
D03*
X138287Y208130D02*
D03*
X96398Y169567D02*
D03*
M02*
