G04*
G04 #@! TF.GenerationSoftware,Altium Limited,Altium Designer,21.2.2 (38)*
G04*
G04 Layer_Physical_Order=1*
G04 Layer_Color=255*
%FSLAX44Y44*%
%MOMM*%
G71*
G04*
G04 #@! TF.SameCoordinates,5D373D79-2AE2-4A4B-8A42-8ECBCE4D18FA*
G04*
G04*
G04 #@! TF.FilePolarity,Positive*
G04*
G01*
G75*
%ADD10C,0.2000*%
%ADD11C,0.2500*%
%ADD12C,0.5000*%
%ADD17C,0.2540*%
%ADD23R,0.8000X1.0000*%
%ADD24R,1.5000X0.7000*%
%ADD25R,1.7000X0.8000*%
%ADD26R,1.7000X1.3000*%
%ADD27R,0.4000X0.6000*%
%ADD28R,0.6000X0.4000*%
%ADD29R,1.0000X1.0000*%
%ADD30C,1.0000*%
%ADD31R,0.9000X1.2000*%
%ADD32R,1.0500X1.2000*%
%ADD33R,0.5500X0.6000*%
%ADD34R,0.9000X0.8000*%
%ADD35R,1.4000X2.0000*%
%ADD36R,3.2000X5.4000*%
%ADD37R,2.5500X2.4500*%
%ADD38R,2.1500X2.4500*%
%ADD39R,2.0000X0.6000*%
%ADD40R,1.1000X1.6000*%
%ADD41R,1.6000X1.1000*%
%ADD42R,0.6000X2.0000*%
%ADD70R,10.7000X8.6000*%
%ADD71R,1.0000X3.4000*%
%ADD72C,0.3500*%
%ADD73C,0.3000*%
%ADD74C,2.1000*%
%ADD75C,2.2500*%
%ADD76C,1.5500*%
G04:AMPARAMS|DCode=77|XSize=1.55mm|YSize=1.55mm|CornerRadius=0.3875mm|HoleSize=0mm|Usage=FLASHONLY|Rotation=0.000|XOffset=0mm|YOffset=0mm|HoleType=Round|Shape=RoundedRectangle|*
%AMROUNDEDRECTD77*
21,1,1.5500,0.7750,0,0,0.0*
21,1,0.7750,1.5500,0,0,0.0*
1,1,0.7750,0.3875,-0.3875*
1,1,0.7750,-0.3875,-0.3875*
1,1,0.7750,-0.3875,0.3875*
1,1,0.7750,0.3875,0.3875*
%
%ADD77ROUNDEDRECTD77*%
%ADD78O,0.9000X1.6000*%
%ADD79C,0.6000*%
G36*
X297000Y578019D02*
X295730Y577679D01*
X295534Y578018D01*
X293618Y579934D01*
X291272Y581289D01*
X289800Y581683D01*
Y571700D01*
Y561717D01*
X291272Y562111D01*
X293618Y563466D01*
X295534Y565382D01*
X295730Y565721D01*
X297000Y565381D01*
Y554306D01*
X295730Y553780D01*
X294208Y555302D01*
X291642Y556783D01*
X288781Y557550D01*
X285819D01*
X282958Y556783D01*
X280392Y555302D01*
X278298Y553208D01*
X276817Y550642D01*
X276050Y547781D01*
Y544819D01*
X276817Y541958D01*
X278298Y539392D01*
X280392Y537298D01*
X282958Y535817D01*
X285819Y535050D01*
X288781D01*
X290943Y535629D01*
X297000Y529572D01*
Y515050D01*
X287850D01*
Y517200D01*
X167500D01*
Y594100D01*
X297000D01*
Y578019D01*
D02*
G37*
G36*
X484160Y594150D02*
Y553000D01*
X433000D01*
Y525000D01*
X391561D01*
X391075Y526173D01*
X392726Y527824D01*
X394052Y529809D01*
X394518Y532150D01*
Y536553D01*
X395808Y537298D01*
X397902Y539392D01*
X399383Y541958D01*
X400150Y544819D01*
Y547781D01*
X399383Y550642D01*
X397902Y553208D01*
X395808Y555302D01*
X393242Y556783D01*
X390381Y557550D01*
X387419D01*
X384558Y556783D01*
X381992Y555302D01*
X379898Y553208D01*
X378417Y550642D01*
X377650Y547781D01*
Y544819D01*
X378417Y541958D01*
X379898Y539392D01*
X381992Y537298D01*
X382282Y537130D01*
Y534767D01*
X368565D01*
X368225Y536037D01*
X370408Y537298D01*
X372502Y539392D01*
X373983Y541958D01*
X374750Y544819D01*
Y547781D01*
X373983Y550642D01*
X372502Y553208D01*
X370408Y555302D01*
X367842Y556783D01*
X364981Y557550D01*
X362019D01*
X359158Y556783D01*
X356592Y555302D01*
X354498Y553208D01*
X353017Y550642D01*
X352250Y547781D01*
Y544819D01*
X353017Y541958D01*
X354498Y539392D01*
X356592Y537298D01*
X358775Y536037D01*
X358435Y534767D01*
X353533D01*
X352106Y535150D01*
X350394D01*
X348741Y534707D01*
X347259Y533851D01*
X346049Y532641D01*
X345193Y531159D01*
X344750Y529506D01*
Y527794D01*
X345158Y526270D01*
X345058Y525824D01*
X344582Y525000D01*
X326313D01*
Y527635D01*
X334339Y535661D01*
X336619Y535050D01*
X339581D01*
X342442Y535817D01*
X345008Y537298D01*
X347102Y539392D01*
X348583Y541958D01*
X349350Y544819D01*
Y547781D01*
X348583Y550642D01*
X347102Y553208D01*
X345008Y555302D01*
X342442Y556783D01*
X339581Y557550D01*
X336619D01*
X333758Y556783D01*
X331192Y555302D01*
X329098Y553208D01*
X327617Y550642D01*
X326850Y547781D01*
Y544819D01*
X327461Y542539D01*
X318833Y533911D01*
X317563Y534437D01*
Y536118D01*
X319608Y537298D01*
X321702Y539392D01*
X323183Y541958D01*
X323950Y544819D01*
Y547781D01*
X323183Y550642D01*
X321702Y553208D01*
X319608Y555302D01*
X317042Y556783D01*
X314181Y557550D01*
X311219D01*
X308358Y556783D01*
X305792Y555302D01*
X304270Y553780D01*
X303000Y554306D01*
Y565381D01*
X304270Y565721D01*
X304466Y565382D01*
X306382Y563466D01*
X308728Y562111D01*
X310200Y561717D01*
Y571700D01*
Y581683D01*
X308728Y581289D01*
X306382Y579934D01*
X304466Y578018D01*
X304270Y577679D01*
X303000Y578019D01*
Y594150D01*
X484160Y594150D01*
D02*
G37*
G36*
X162850Y517200D02*
X104850D01*
Y516240D01*
X103850D01*
Y503700D01*
Y491160D01*
X104400D01*
Y485200D01*
X104350D01*
Y462200D01*
X104400D01*
Y434450D01*
X48900D01*
Y486500D01*
X50400Y488000D01*
X73941D01*
X74834Y486730D01*
X74600Y485856D01*
Y484144D01*
X75043Y482491D01*
X75899Y481009D01*
X77109Y479799D01*
X78591Y478943D01*
X80244Y478500D01*
X81956D01*
X83609Y478943D01*
X85091Y479799D01*
X86301Y481009D01*
X87157Y482491D01*
X87600Y484144D01*
Y485856D01*
X87157Y487509D01*
X86703Y488296D01*
Y490200D01*
X87850D01*
Y491160D01*
X88850D01*
Y503700D01*
Y516240D01*
X87850D01*
Y517200D01*
X86400D01*
Y522230D01*
X95490D01*
X95530Y522190D01*
Y593720D01*
X95560Y593900D01*
X162850D01*
X162850Y517200D01*
D02*
G37*
G36*
X483200Y503850D02*
X508433D01*
Y498916D01*
X508217Y498397D01*
X507994Y496700D01*
X508217Y495003D01*
X508872Y493422D01*
X509914Y492064D01*
X511272Y491022D01*
X512853Y490367D01*
X514550Y490144D01*
X516247Y490367D01*
X517828Y491022D01*
X519186Y492064D01*
X520228Y493422D01*
X520883Y495003D01*
X521106Y496700D01*
X520883Y498397D01*
X520667Y498916D01*
Y503850D01*
X524832D01*
Y498516D01*
X524617Y497997D01*
X524394Y496300D01*
X524617Y494603D01*
X525272Y493022D01*
X526314Y491664D01*
X527672Y490622D01*
X529253Y489967D01*
X530950Y489744D01*
X532647Y489967D01*
X534228Y490622D01*
X535586Y491664D01*
X536628Y493022D01*
X537283Y494603D01*
X537506Y496300D01*
X537283Y497997D01*
X537067Y498516D01*
Y503850D01*
X541032D01*
Y498666D01*
X540817Y498147D01*
X540594Y496450D01*
X540817Y494753D01*
X541472Y493172D01*
X542514Y491814D01*
X543872Y490772D01*
X545453Y490117D01*
X547150Y489894D01*
X548847Y490117D01*
X550428Y490772D01*
X551786Y491814D01*
X552828Y493172D01*
X553483Y494753D01*
X553706Y496450D01*
X553483Y498147D01*
X553268Y498666D01*
Y503850D01*
X556632D01*
Y498366D01*
X556417Y497847D01*
X556194Y496150D01*
X556417Y494453D01*
X557072Y492872D01*
X558114Y491514D01*
X559472Y490472D01*
X561053Y489817D01*
X562750Y489594D01*
X564447Y489817D01*
X566028Y490472D01*
X567386Y491514D01*
X568428Y492872D01*
X569083Y494453D01*
X569306Y496150D01*
X569083Y497847D01*
X568867Y498366D01*
Y503850D01*
X572733D01*
Y498366D01*
X572517Y497847D01*
X572294Y496150D01*
X572517Y494453D01*
X573172Y492872D01*
X574214Y491514D01*
X575572Y490472D01*
X577153Y489817D01*
X578850Y489594D01*
X580547Y489817D01*
X582128Y490472D01*
X583486Y491514D01*
X584528Y492872D01*
X585183Y494453D01*
X585406Y496150D01*
X585183Y497847D01*
X584967Y498366D01*
Y503850D01*
X594850D01*
X594850Y381340D01*
X578900D01*
Y351800D01*
Y322260D01*
X594850D01*
Y306650D01*
X515750Y306650D01*
X515750Y318100D01*
X515650Y318200D01*
Y400149D01*
X517284Y401782D01*
X549050D01*
X551391Y402248D01*
X553376Y403574D01*
X561526Y411724D01*
X562852Y413709D01*
X563317Y416050D01*
Y420100D01*
X580750D01*
Y423850D01*
X582700D01*
Y464850D01*
X580750D01*
Y464950D01*
X580318D01*
Y470060D01*
X580833Y471303D01*
X581056Y473000D01*
X580833Y474697D01*
X580178Y476278D01*
X579136Y477636D01*
X577778Y478678D01*
X576197Y479333D01*
X574500Y479556D01*
X572803Y479333D01*
X571222Y478678D01*
X569864Y477636D01*
X568822Y476278D01*
X568167Y474697D01*
X567944Y473000D01*
X568083Y471948D01*
Y464950D01*
X546292D01*
Y470944D01*
X546483Y471403D01*
X546706Y473100D01*
X546483Y474797D01*
X545828Y476378D01*
X544786Y477736D01*
X543428Y478778D01*
X541847Y479433D01*
X540150Y479656D01*
X538453Y479433D01*
X536872Y478778D01*
X535514Y477736D01*
X534472Y476378D01*
X533817Y474797D01*
X533594Y473100D01*
X533817Y471403D01*
X534058Y470823D01*
Y464850D01*
X531700D01*
Y464638D01*
X530740Y463890D01*
X525700D01*
Y444350D01*
Y424810D01*
X530740D01*
X531700Y424062D01*
Y423850D01*
X532650D01*
X536400Y420100D01*
X551082D01*
Y418584D01*
X546516Y414017D01*
X520286D01*
X519162Y414856D01*
X519159Y414860D01*
X519154Y423540D01*
X519541Y424192D01*
X520244Y424810D01*
X520700D01*
Y444350D01*
Y463890D01*
X519967D01*
X519964Y463891D01*
X519044Y464996D01*
X519023Y465160D01*
X519133Y465716D01*
X519133Y465717D01*
X519133Y465717D01*
X519131Y469752D01*
X518996Y470431D01*
X518860Y471116D01*
X518859Y471116D01*
X518859Y471117D01*
X518470Y471699D01*
X518086Y472273D01*
X518085Y472274D01*
X518085Y472275D01*
X517509Y472659D01*
X516928Y473047D01*
X516927Y473047D01*
X516927Y473048D01*
X516240Y473184D01*
X515563Y473319D01*
X480719D01*
Y495395D01*
X480583Y496079D01*
X480448Y496757D01*
X480447Y496759D01*
X480447Y496761D01*
X480060Y497339D01*
X479676Y497916D01*
X479675Y497917D01*
X479673Y497919D01*
X479094Y498306D01*
X478520Y498691D01*
X478517Y498691D01*
X478516Y498692D01*
X477831Y498828D01*
X477154Y498964D01*
X327216Y499141D01*
X327209Y499148D01*
X326313Y500257D01*
Y521431D01*
X344582D01*
X345040Y521522D01*
X345505Y521553D01*
X345717Y521657D01*
X345947Y521703D01*
X346336Y521962D01*
X346754Y522169D01*
X346909Y522346D01*
X347105Y522477D01*
X347365Y522865D01*
X347402Y522907D01*
X348128Y522908D01*
X349553Y522317D01*
X351250Y522094D01*
X352947Y522317D01*
X353466Y522533D01*
X384900D01*
X386881Y522927D01*
X388736Y522928D01*
X389038Y522477D01*
X390195Y521703D01*
X391561Y521431D01*
X433000D01*
X434366Y521703D01*
X435523Y522477D01*
X436297Y523634D01*
X436569Y525000D01*
Y549431D01*
X483200D01*
Y503850D01*
D02*
G37*
G36*
X91961Y548671D02*
Y525799D01*
X86400D01*
X85034Y525527D01*
X83877Y524753D01*
X83103Y523596D01*
X82831Y522230D01*
Y517200D01*
X82044Y516240D01*
X77850D01*
Y517200D01*
X76140D01*
X75800Y518470D01*
X77887Y519675D01*
X80455Y522243D01*
X82270Y525387D01*
X83027Y528210D01*
X69420D01*
X55813D01*
X56570Y525387D01*
X58385Y522243D01*
X60953Y519675D01*
X63900Y517973D01*
X64850Y517200D01*
Y491569D01*
X50400D01*
X49034Y491297D01*
X47877Y490523D01*
X47576Y490223D01*
X38770Y490220D01*
X38768Y465200D01*
X16358D01*
Y501307D01*
X16354Y501329D01*
X16538Y502253D01*
X17074Y503056D01*
X17486Y503331D01*
X18599Y503736D01*
D01*
X19789Y503742D01*
X35492D01*
Y503722D01*
X38771Y504153D01*
X41825Y505419D01*
X44449Y507431D01*
X44441Y507439D01*
X46257Y509805D01*
X47398Y512561D01*
X47788Y515518D01*
X47778D01*
Y542750D01*
X49324Y543164D01*
X52516Y545007D01*
X55123Y547614D01*
X56966Y550806D01*
X57920Y554367D01*
Y558053D01*
X56966Y561614D01*
X55123Y564806D01*
X52516Y567413D01*
X49324Y569256D01*
X45763Y570210D01*
X42077D01*
X38516Y569256D01*
X35324Y567413D01*
X32717Y564806D01*
X30874Y561614D01*
X29920Y558053D01*
Y554367D01*
X30874Y550806D01*
X32717Y547614D01*
X35324Y545007D01*
X38516Y543164D01*
X38602Y543141D01*
Y515518D01*
X38604Y515508D01*
X38435Y514659D01*
X37955Y513941D01*
X37946Y513934D01*
X37905Y513874D01*
X36831Y513156D01*
X35564Y512904D01*
X35492Y512918D01*
X18996D01*
X18176Y512918D01*
X17760Y512836D01*
Y512836D01*
X17522Y512788D01*
X15807Y512562D01*
X12997Y511398D01*
X10583Y509547D01*
X8731Y507133D01*
X7567Y504323D01*
X7170Y501307D01*
X7182D01*
X7182Y501307D01*
Y461832D01*
X7243Y461523D01*
X7471Y459793D01*
X8258Y457892D01*
X9321Y456507D01*
X9496Y456246D01*
X9824Y456026D01*
X11018Y455111D01*
X12768Y454385D01*
X12850Y454375D01*
Y452200D01*
X13810D01*
Y451200D01*
X26350D01*
Y446200D01*
X13810D01*
Y445200D01*
X12850D01*
Y432200D01*
X13810D01*
Y431200D01*
X26350D01*
Y426200D01*
X13810D01*
Y425919D01*
X12998Y425566D01*
X12540Y425447D01*
X11848Y425847D01*
X10681Y426521D01*
X8519Y427100D01*
X6281D01*
X4119Y426521D01*
X2517Y425596D01*
X1247Y426112D01*
X1255Y598880D01*
X91860Y598880D01*
X91961Y548671D01*
D02*
G37*
G36*
X477150Y495395D02*
Y469750D01*
X515563D01*
X515565Y465715D01*
X514700Y464850D01*
X514700Y464850D01*
X513813Y463947D01*
X513740Y463890D01*
X513430Y463890D01*
X508700D01*
Y444350D01*
Y424810D01*
X513430D01*
X513740Y424810D01*
X514700Y424062D01*
Y423850D01*
X515586D01*
X515590Y414858D01*
X514750Y414017D01*
X512409Y413552D01*
X510424Y412226D01*
X494216Y396017D01*
X466434D01*
X463868Y398584D01*
Y420700D01*
X465750D01*
Y422376D01*
X469851Y422385D01*
X470750Y421488D01*
Y420700D01*
X472632D01*
Y419246D01*
X472300Y418006D01*
Y416294D01*
X472743Y414641D01*
X473599Y413159D01*
X474809Y411949D01*
X476291Y411093D01*
X477944Y410650D01*
X479656D01*
X481309Y411093D01*
X482791Y411949D01*
X484001Y413159D01*
X484857Y414641D01*
X485300Y416294D01*
Y418006D01*
X484918Y419430D01*
X485517Y420700D01*
X486750D01*
Y439700D01*
X470750D01*
Y438150D01*
X466600D01*
Y444675D01*
X467456D01*
X469109Y445118D01*
X470240Y445771D01*
X471510Y445244D01*
Y441860D01*
X476050D01*
Y450400D01*
Y458940D01*
X471510D01*
Y457106D01*
X470240Y456579D01*
X469109Y457232D01*
X467456Y457675D01*
X466600D01*
Y464200D01*
X408302Y464200D01*
X405926Y466576D01*
X403941Y467902D01*
X401600Y468368D01*
X352850D01*
X350509Y467902D01*
X349635Y467318D01*
X348225Y467903D01*
X347562Y469052D01*
X346352Y470262D01*
X344870Y471118D01*
X343217Y471561D01*
X341505D01*
X339852Y471118D01*
X338370Y470262D01*
X337748Y469640D01*
X337184Y469528D01*
X335448Y468368D01*
X332280Y465200D01*
X315450D01*
Y474222D01*
X324889Y483661D01*
X325943Y485239D01*
X326314Y487100D01*
X326313Y487100D01*
Y494675D01*
X327212Y495573D01*
X477150Y495395D01*
D02*
G37*
G36*
X290199Y488477D02*
X250472Y448750D01*
X249994D01*
X248341Y448307D01*
X246859Y447451D01*
X245649Y446241D01*
X244793Y444759D01*
X244350Y443106D01*
Y441394D01*
X244793Y439741D01*
X245527Y438470D01*
X245277Y437725D01*
X244912Y437200D01*
X243994D01*
X242341Y436757D01*
X240859Y435901D01*
X239649Y434691D01*
X238793Y433209D01*
X238350Y431556D01*
Y429844D01*
X238793Y428191D01*
X239649Y426709D01*
X240859Y425499D01*
X242341Y424643D01*
X243994Y424200D01*
X245706D01*
X247359Y424643D01*
X248841Y425499D01*
X249179Y425837D01*
X251513D01*
X252039Y424567D01*
X246511Y419039D01*
X245457Y417461D01*
X245086Y415600D01*
X245087Y415600D01*
Y407929D01*
X244749Y407591D01*
X243893Y406109D01*
X243450Y404456D01*
Y402744D01*
X243893Y401091D01*
X244749Y399609D01*
X245959Y398399D01*
X247441Y397543D01*
X249094Y397100D01*
X250806D01*
X252459Y397543D01*
X253941Y398399D01*
X255151Y399609D01*
X256007Y401091D01*
X256450Y402744D01*
Y404456D01*
X256007Y406109D01*
X255151Y407591D01*
X254813Y407929D01*
Y413586D01*
X310708Y469480D01*
X311881Y468994D01*
Y465200D01*
X312153Y463834D01*
X312545Y463248D01*
X312535Y405050D01*
X311394D01*
X309741Y404607D01*
X308259Y403751D01*
X308160Y403652D01*
X306890Y404178D01*
Y406740D01*
X298850D01*
Y398700D01*
Y390660D01*
X306890D01*
Y392922D01*
X308160Y393448D01*
X308259Y393349D01*
X309741Y392493D01*
X311394Y392050D01*
X311634D01*
X312532Y391152D01*
X312530Y382874D01*
X312225Y382670D01*
X310275D01*
X308474Y381924D01*
X308160Y381609D01*
X306890Y382135D01*
Y388740D01*
X298850D01*
Y380700D01*
Y372660D01*
X305104D01*
X305860Y371445D01*
X305483Y370740D01*
X298850D01*
Y365200D01*
X306890D01*
Y365504D01*
X308160Y366030D01*
X308474Y365716D01*
X310275Y364970D01*
X311257D01*
X312527Y363825D01*
X312502Y228522D01*
X311015Y227035D01*
X309855Y225298D01*
X309447Y223250D01*
Y217850D01*
X197900D01*
Y218656D01*
X197457Y220309D01*
X197098Y220930D01*
X197832Y222200D01*
X212350D01*
Y222412D01*
X213310Y223160D01*
X213620Y223160D01*
X218850D01*
Y233700D01*
Y244240D01*
X213620D01*
X213310Y244240D01*
X212350Y244988D01*
Y245200D01*
X194350D01*
Y245200D01*
X193080Y245200D01*
X176350D01*
X176350Y245200D01*
X176350D01*
X175150Y245200D01*
X159620D01*
X158350Y245200D01*
Y245200D01*
X158350D01*
Y245200D01*
X141620D01*
X140350Y245200D01*
Y245200D01*
X140350D01*
Y245200D01*
X123620D01*
X122350Y245200D01*
X121080Y245200D01*
X104350D01*
Y222200D01*
X121080D01*
X122350Y222200D01*
X124724Y222200D01*
X125457Y220930D01*
X125243Y220559D01*
X124800Y218906D01*
Y217850D01*
X98436D01*
X97750Y218744D01*
Y220456D01*
X97307Y222109D01*
X96451Y223591D01*
X95241Y224801D01*
X93759Y225657D01*
X92106Y226100D01*
X90394D01*
X88741Y225657D01*
X87259Y224801D01*
X86049Y223591D01*
X85193Y222109D01*
X84750Y220456D01*
Y218744D01*
X84064Y217850D01*
X55518D01*
Y223516D01*
X82134Y250133D01*
X146250D01*
X148591Y250598D01*
X150576Y251924D01*
X184676Y286024D01*
X186002Y288009D01*
X186467Y290350D01*
Y314317D01*
X186850Y315744D01*
Y317456D01*
X186407Y319109D01*
X185551Y320591D01*
X184341Y321801D01*
X182859Y322657D01*
X181206Y323100D01*
X179494D01*
X177841Y322657D01*
X176359Y321801D01*
X175149Y320591D01*
X174293Y319109D01*
X173850Y317456D01*
Y315744D01*
X174233Y314317D01*
Y292884D01*
X143716Y262367D01*
X103211D01*
X102284Y263638D01*
X102500Y264444D01*
Y266156D01*
X102118Y267583D01*
Y318731D01*
X106726Y323339D01*
X108052Y325324D01*
X108518Y327665D01*
Y381353D01*
X108850Y382594D01*
Y384306D01*
X108518Y385546D01*
Y423950D01*
X108052Y426291D01*
X106726Y428276D01*
X105247Y429755D01*
X105665Y431133D01*
X105766Y431153D01*
X106923Y431927D01*
X107697Y433084D01*
X107969Y434450D01*
Y462200D01*
X108856Y463160D01*
X110850D01*
Y473700D01*
Y484240D01*
X108856D01*
X107969Y485200D01*
Y489650D01*
X289713Y489650D01*
X290199Y488477D01*
D02*
G37*
G36*
X512081Y318200D02*
X512100Y318107D01*
Y305150D01*
X512543D01*
X513227Y304127D01*
X514384Y303353D01*
X515750Y303081D01*
X594850Y303081D01*
X594950Y302999D01*
Y242300D01*
X480450Y242300D01*
X480348Y317560D01*
X425871Y317560D01*
X424974Y318458D01*
X424996Y356050D01*
X425469Y356869D01*
X426048Y359031D01*
Y361269D01*
X425469Y363431D01*
X425001Y364242D01*
X425011Y381850D01*
X430450D01*
Y382000D01*
X431950D01*
Y381850D01*
X440798D01*
X444041Y378607D01*
Y378269D01*
X443850Y377556D01*
Y375844D01*
X444293Y374191D01*
X445149Y372709D01*
X446359Y371499D01*
X447841Y370643D01*
X449494Y370200D01*
X451206D01*
X452859Y370643D01*
X454341Y371499D01*
X455551Y372709D01*
X455590Y372776D01*
X456860Y372436D01*
Y354300D01*
X475400D01*
X493940D01*
Y380730D01*
X493940Y381340D01*
X494937Y382000D01*
X512081D01*
Y318200D01*
D02*
G37*
G36*
X420048Y353014D02*
X420156Y353043D01*
X421425Y352387D01*
X421405Y318460D01*
X421405Y318460D01*
X421405Y318459D01*
X421540Y317782D01*
X421676Y317095D01*
X421676Y317094D01*
X421676Y317094D01*
X422051Y316533D01*
X422449Y315936D01*
X422449Y315936D01*
X422449Y315936D01*
X423347Y315037D01*
X423348Y315037D01*
X423348Y315037D01*
X423962Y314627D01*
X424505Y314263D01*
X424505Y314263D01*
X424506Y314263D01*
X425191Y314127D01*
X425870Y313991D01*
X425871Y313992D01*
X425871Y313991D01*
X476784Y313991D01*
X476880Y243199D01*
X475983Y242300D01*
X427368D01*
X426635Y243570D01*
X426907Y244041D01*
X427350Y245694D01*
Y247406D01*
X426907Y249059D01*
X426051Y250541D01*
X424841Y251751D01*
X423359Y252607D01*
X421706Y253050D01*
X419994D01*
X418567Y252668D01*
X396548D01*
X396062Y253841D01*
X402986Y260764D01*
X404312Y262749D01*
X404777Y265090D01*
Y295750D01*
X404312Y298091D01*
X402986Y300076D01*
X393457Y309604D01*
Y329812D01*
X400250D01*
Y342352D01*
X402750D01*
Y344852D01*
X412290D01*
Y353013D01*
X413560Y353746D01*
X414638Y353124D01*
X415048Y353014D01*
Y360150D01*
X420048D01*
Y353014D01*
D02*
G37*
G36*
X45947Y488380D02*
X45603Y487866D01*
X45331Y486500D01*
Y434450D01*
X45603Y433084D01*
X46377Y431927D01*
X47534Y431153D01*
X48900Y430881D01*
X86817D01*
X96283Y421416D01*
Y385920D01*
X95850Y384306D01*
Y382594D01*
X96283Y380980D01*
Y330199D01*
X91674Y325590D01*
X90348Y323606D01*
X89882Y321265D01*
Y267583D01*
X89500Y266156D01*
Y264444D01*
X89716Y263638D01*
X88789Y262367D01*
X79600D01*
X77259Y261902D01*
X75274Y260576D01*
X45074Y230376D01*
X43748Y228391D01*
X43282Y226050D01*
Y217850D01*
Y202210D01*
X43748Y199869D01*
X45074Y197885D01*
X46943Y196016D01*
Y176723D01*
X46560Y175296D01*
Y173584D01*
X47003Y171931D01*
X47859Y170449D01*
X49069Y169239D01*
X50349Y168500D01*
X60132Y158716D01*
Y78384D01*
X58924Y77176D01*
X57598Y75191D01*
X57132Y72850D01*
Y53350D01*
X57598Y51009D01*
X58924Y49024D01*
X67774Y40174D01*
X69759Y38848D01*
X72100Y38382D01*
X109000D01*
X111341Y38848D01*
X113326Y40174D01*
X129361Y56210D01*
X130641Y56949D01*
X131851Y58159D01*
X132707Y59641D01*
X133150Y61294D01*
Y63006D01*
X132707Y64659D01*
X131851Y66141D01*
X130641Y67351D01*
X129159Y68207D01*
X127506Y68650D01*
X125794D01*
X124141Y68207D01*
X122659Y67351D01*
X121449Y66141D01*
X120710Y64861D01*
X106466Y50618D01*
X74634D01*
X69881Y55370D01*
X70547Y56500D01*
X94220D01*
Y62971D01*
X95238D01*
X97579Y63436D01*
X99564Y64763D01*
X118276Y83474D01*
X119602Y85459D01*
X120068Y87800D01*
Y116566D01*
X126090Y122589D01*
X150111D01*
X151538Y122206D01*
X153250D01*
X154903Y122649D01*
X156385Y123505D01*
X157595Y124715D01*
X158451Y126197D01*
X158589Y126713D01*
X160005Y127093D01*
X174924Y112174D01*
X176909Y110848D01*
X179250Y110382D01*
X327230D01*
Y107300D01*
X351230D01*
Y111058D01*
X364829D01*
X364941Y110993D01*
X366594Y110550D01*
X368306D01*
X369959Y110993D01*
X371441Y111849D01*
X372651Y113059D01*
X373507Y114541D01*
X373950Y116194D01*
Y117906D01*
X373507Y119559D01*
X372651Y121041D01*
X371441Y122251D01*
X369959Y123107D01*
X368306Y123550D01*
X366594D01*
X365633Y123293D01*
X351230D01*
Y127300D01*
X330367D01*
X329688Y128570D01*
X329763Y128682D01*
X337900D01*
X340241Y129148D01*
X342226Y130474D01*
X345252Y133500D01*
X379050D01*
Y5450D01*
X219380D01*
X219297Y6720D01*
X219838Y6791D01*
X221550Y7501D01*
X223021Y8629D01*
X224149Y10100D01*
X224859Y11812D01*
X225101Y13650D01*
Y14650D01*
X218000D01*
X210899D01*
Y13650D01*
X211141Y11812D01*
X211851Y10100D01*
X212979Y8629D01*
X214450Y7501D01*
X216162Y6791D01*
X216703Y6720D01*
X216620Y5450D01*
X153380D01*
X153297Y6720D01*
X153838Y6791D01*
X155550Y7501D01*
X157021Y8629D01*
X158149Y10100D01*
X158859Y11812D01*
X159101Y13650D01*
Y14650D01*
X152000D01*
X144899D01*
Y13650D01*
X145141Y11812D01*
X145851Y10100D01*
X146979Y8629D01*
X148450Y7501D01*
X150162Y6791D01*
X150703Y6720D01*
X150620Y5450D01*
X47390D01*
Y7218D01*
X54378Y14206D01*
X54971Y14549D01*
X56181Y15759D01*
X57037Y17241D01*
X57480Y18894D01*
Y20606D01*
X57037Y22259D01*
X56181Y23741D01*
X54971Y24951D01*
X53489Y25807D01*
X51836Y26250D01*
X50124D01*
X48471Y25807D01*
X46989Y24951D01*
X45779Y23741D01*
X44923Y22259D01*
X44848Y21980D01*
X38739Y15870D01*
X30390D01*
Y5450D01*
X19390D01*
Y15870D01*
X17553D01*
X16839Y17140D01*
X17170Y18374D01*
Y20086D01*
X16727Y21739D01*
X15871Y23221D01*
X14661Y24431D01*
X13179Y25287D01*
X11526Y25730D01*
X9814D01*
X8161Y25287D01*
X6679Y24431D01*
X6670Y24422D01*
X5400Y24948D01*
Y91850D01*
X13820D01*
Y108850D01*
X5400D01*
Y164850D01*
X13820D01*
Y181850D01*
X5400D01*
Y239819D01*
X5831Y240150D01*
X8069D01*
X10231Y240729D01*
X10717Y241010D01*
X16283D01*
Y239083D01*
X15900Y237656D01*
Y235944D01*
X16343Y234291D01*
X17199Y232809D01*
X18409Y231599D01*
X19891Y230743D01*
X21544Y230300D01*
X23256D01*
X24909Y230743D01*
X26391Y231599D01*
X27601Y232809D01*
X28457Y234291D01*
X28900Y235944D01*
Y237656D01*
X28517Y239083D01*
Y241010D01*
X39400D01*
Y242200D01*
X39850D01*
Y255200D01*
X39400D01*
Y262200D01*
X39850D01*
Y275200D01*
X39400D01*
X39400Y292200D01*
X39850D01*
Y302200D01*
Y312200D01*
Y322200D01*
Y332200D01*
Y342200D01*
Y352200D01*
Y362200D01*
Y372200D01*
Y382200D01*
Y392200D01*
Y402200D01*
Y412200D01*
Y425200D01*
X39400D01*
Y432200D01*
X39850D01*
Y445200D01*
X39400D01*
Y452200D01*
X39850D01*
Y465200D01*
X39400D01*
Y489650D01*
X45268D01*
X45947Y488380D01*
D02*
G37*
G36*
X103850Y191160D02*
X104850D01*
Y190200D01*
X105232D01*
Y187314D01*
X105143Y187159D01*
X104700Y185506D01*
Y183794D01*
X105143Y182141D01*
X105999Y180659D01*
X107209Y179449D01*
X108691Y178593D01*
X110344Y178150D01*
X112056D01*
X113709Y178593D01*
X115191Y179449D01*
X116175Y180433D01*
X117209Y179399D01*
X118691Y178543D01*
X120344Y178100D01*
X122056D01*
X123709Y178543D01*
X125191Y179399D01*
X126401Y180609D01*
X127257Y182091D01*
X127700Y183744D01*
Y185456D01*
X127317Y186883D01*
Y189450D01*
X145300D01*
X152000Y182750D01*
X152202D01*
X153539Y181857D01*
X155400Y181487D01*
X164721D01*
X165059Y181149D01*
X166541Y180293D01*
X168194Y179850D01*
X169906D01*
X171559Y180293D01*
X173041Y181149D01*
X174251Y182359D01*
X174477Y182750D01*
X175882D01*
X176149Y182289D01*
X177359Y181079D01*
X178841Y180223D01*
X180494Y179780D01*
X182206D01*
X183859Y180223D01*
X185341Y181079D01*
X186551Y182289D01*
X186817Y182750D01*
X298698D01*
X298954Y181945D01*
X298084Y180868D01*
X285670D01*
X284056Y181300D01*
X282344D01*
X280691Y180857D01*
X279209Y180001D01*
X277999Y178791D01*
X277143Y177309D01*
X276700Y175656D01*
Y173944D01*
X277143Y172291D01*
X277999Y170809D01*
X279209Y169599D01*
X280691Y168743D01*
X282344Y168300D01*
X284056D01*
X285296Y168633D01*
X299402D01*
X299426Y145066D01*
X298529Y144167D01*
X194834D01*
X173526Y165476D01*
X171541Y166802D01*
X169200Y167267D01*
X106150D01*
X103809Y166802D01*
X101824Y165476D01*
X81599Y145250D01*
X72368D01*
Y161250D01*
X71902Y163591D01*
X70576Y165576D01*
X67800Y168351D01*
X67884Y190200D01*
X75232D01*
Y177450D01*
X75698Y175109D01*
X77024Y173124D01*
X82960Y167189D01*
X83699Y165909D01*
X84909Y164699D01*
X86391Y163843D01*
X88044Y163400D01*
X89756D01*
X91409Y163843D01*
X92891Y164699D01*
X94101Y165909D01*
X94957Y167391D01*
X95400Y169044D01*
Y170756D01*
X94957Y172409D01*
X94101Y173891D01*
X92891Y175101D01*
X91611Y175840D01*
X87467Y179984D01*
Y190200D01*
X87850D01*
Y191160D01*
X88850D01*
Y203700D01*
X93850D01*
Y191160D01*
X98850D01*
Y203700D01*
X103850D01*
Y191160D01*
D02*
G37*
%LPC*%
G36*
X284800Y581683D02*
X283328Y581289D01*
X280982Y579934D01*
X279066Y578018D01*
X277711Y575672D01*
X277317Y574200D01*
X284800D01*
Y581683D01*
D02*
G37*
G36*
X264400D02*
Y574200D01*
X271883D01*
X271489Y575672D01*
X270134Y578018D01*
X268218Y579934D01*
X265872Y581289D01*
X264400Y581683D01*
D02*
G37*
G36*
X259400D02*
X257928Y581289D01*
X255582Y579934D01*
X253666Y578018D01*
X252311Y575672D01*
X251917Y574200D01*
X259400D01*
Y581683D01*
D02*
G37*
G36*
X239000D02*
Y574200D01*
X246483D01*
X246089Y575672D01*
X244734Y578018D01*
X242818Y579934D01*
X240472Y581289D01*
X239000Y581683D01*
D02*
G37*
G36*
X234000D02*
X232528Y581289D01*
X230182Y579934D01*
X228266Y578018D01*
X226911Y575672D01*
X226517Y574200D01*
X234000D01*
Y581683D01*
D02*
G37*
G36*
X213600D02*
Y574200D01*
X221083D01*
X220689Y575672D01*
X219334Y578018D01*
X217418Y579934D01*
X215072Y581289D01*
X213600Y581683D01*
D02*
G37*
G36*
X208600D02*
X207128Y581289D01*
X204782Y579934D01*
X202866Y578018D01*
X201511Y575672D01*
X201117Y574200D01*
X208600D01*
Y581683D01*
D02*
G37*
G36*
X189575Y582116D02*
X188200D01*
Y574200D01*
X196116D01*
Y575575D01*
X195618Y578078D01*
X194200Y580200D01*
X192078Y581618D01*
X189575Y582116D01*
D02*
G37*
G36*
X183200D02*
X181825D01*
X179322Y581618D01*
X177200Y580200D01*
X175782Y578078D01*
X175284Y575575D01*
Y574200D01*
X183200D01*
Y582116D01*
D02*
G37*
G36*
X284800Y569200D02*
X277317D01*
X277711Y567728D01*
X279066Y565382D01*
X280982Y563466D01*
X283328Y562111D01*
X284800Y561717D01*
Y569200D01*
D02*
G37*
G36*
X271883D02*
X264400D01*
Y561717D01*
X265872Y562111D01*
X268218Y563466D01*
X270134Y565382D01*
X271489Y567728D01*
X271883Y569200D01*
D02*
G37*
G36*
X259400D02*
X251917D01*
X252311Y567728D01*
X253666Y565382D01*
X255582Y563466D01*
X257928Y562111D01*
X259400Y561717D01*
Y569200D01*
D02*
G37*
G36*
X246483D02*
X239000D01*
Y561717D01*
X240472Y562111D01*
X242818Y563466D01*
X244734Y565382D01*
X246089Y567728D01*
X246483Y569200D01*
D02*
G37*
G36*
X234000D02*
X226517D01*
X226911Y567728D01*
X228266Y565382D01*
X230182Y563466D01*
X232528Y562111D01*
X234000Y561717D01*
Y569200D01*
D02*
G37*
G36*
X221083D02*
X213600D01*
Y561717D01*
X215072Y562111D01*
X217418Y563466D01*
X219334Y565382D01*
X220689Y567728D01*
X221083Y569200D01*
D02*
G37*
G36*
X208600D02*
X201117D01*
X201511Y567728D01*
X202866Y565382D01*
X204782Y563466D01*
X207128Y562111D01*
X208600Y561717D01*
Y569200D01*
D02*
G37*
G36*
X196116D02*
X188200D01*
Y561284D01*
X189575D01*
X192078Y561782D01*
X194200Y563200D01*
X195618Y565322D01*
X196116Y567825D01*
Y569200D01*
D02*
G37*
G36*
X183200D02*
X175284D01*
Y567825D01*
X175782Y565322D01*
X177200Y563200D01*
X179322Y561782D01*
X181825Y561284D01*
X183200D01*
Y569200D01*
D02*
G37*
G36*
X263381Y557550D02*
X260419D01*
X257558Y556783D01*
X254992Y555302D01*
X252898Y553208D01*
X251417Y550642D01*
X250650Y547781D01*
Y544819D01*
X251417Y541958D01*
X252898Y539392D01*
X254992Y537298D01*
X257558Y535817D01*
X260419Y535050D01*
X263381D01*
X266242Y535817D01*
X268808Y537298D01*
X270902Y539392D01*
X272383Y541958D01*
X273150Y544819D01*
Y547781D01*
X272383Y550642D01*
X270902Y553208D01*
X268808Y555302D01*
X266242Y556783D01*
X263381Y557550D01*
D02*
G37*
G36*
X237981D02*
X235019D01*
X232158Y556783D01*
X229592Y555302D01*
X227498Y553208D01*
X226017Y550642D01*
X225250Y547781D01*
Y544819D01*
X226017Y541958D01*
X227498Y539392D01*
X229592Y537298D01*
X232158Y535817D01*
X235019Y535050D01*
X237981D01*
X240842Y535817D01*
X243408Y537298D01*
X245502Y539392D01*
X246983Y541958D01*
X247750Y544819D01*
Y547781D01*
X246983Y550642D01*
X245502Y553208D01*
X243408Y555302D01*
X240842Y556783D01*
X237981Y557550D01*
D02*
G37*
G36*
X212581D02*
X209619D01*
X206758Y556783D01*
X204192Y555302D01*
X202098Y553208D01*
X200617Y550642D01*
X199850Y547781D01*
Y544819D01*
X200617Y541958D01*
X202098Y539392D01*
X204192Y537298D01*
X206758Y535817D01*
X209619Y535050D01*
X212581D01*
X215442Y535817D01*
X218008Y537298D01*
X220102Y539392D01*
X221583Y541958D01*
X222350Y544819D01*
Y547781D01*
X221583Y550642D01*
X220102Y553208D01*
X218008Y555302D01*
X215442Y556783D01*
X212581Y557550D01*
D02*
G37*
G36*
X187181D02*
X184219D01*
X181358Y556783D01*
X178792Y555302D01*
X176698Y553208D01*
X175217Y550642D01*
X174450Y547781D01*
Y544819D01*
X175217Y541958D01*
X176698Y539392D01*
X178792Y537298D01*
X181358Y535817D01*
X184219Y535050D01*
X187181D01*
X190042Y535817D01*
X192608Y537298D01*
X194702Y539392D01*
X196183Y541958D01*
X196950Y544819D01*
Y547781D01*
X196183Y550642D01*
X194702Y553208D01*
X192608Y555302D01*
X190042Y556783D01*
X187181Y557550D01*
D02*
G37*
G36*
X471990Y588040D02*
X461200D01*
Y575750D01*
X471990D01*
Y588040D01*
D02*
G37*
G36*
X456200D02*
X445410D01*
Y575750D01*
X456200D01*
Y588040D01*
D02*
G37*
G36*
X416800Y581683D02*
Y574200D01*
X424283D01*
X423889Y575672D01*
X422534Y578018D01*
X420618Y579934D01*
X418272Y581289D01*
X416800Y581683D01*
D02*
G37*
G36*
X411800D02*
X410328Y581289D01*
X407982Y579934D01*
X406066Y578018D01*
X404711Y575672D01*
X404317Y574200D01*
X411800D01*
Y581683D01*
D02*
G37*
G36*
X391400D02*
Y574200D01*
X398883D01*
X398489Y575672D01*
X397134Y578018D01*
X395218Y579934D01*
X392872Y581289D01*
X391400Y581683D01*
D02*
G37*
G36*
X386400D02*
X384928Y581289D01*
X382582Y579934D01*
X380666Y578018D01*
X379311Y575672D01*
X378917Y574200D01*
X386400D01*
Y581683D01*
D02*
G37*
G36*
X366000D02*
Y574200D01*
X373483D01*
X373089Y575672D01*
X371734Y578018D01*
X369818Y579934D01*
X367472Y581289D01*
X366000Y581683D01*
D02*
G37*
G36*
X361000D02*
X359528Y581289D01*
X357182Y579934D01*
X355266Y578018D01*
X353911Y575672D01*
X353517Y574200D01*
X361000D01*
Y581683D01*
D02*
G37*
G36*
X340600D02*
Y574200D01*
X348083D01*
X347689Y575672D01*
X346334Y578018D01*
X344418Y579934D01*
X342072Y581289D01*
X340600Y581683D01*
D02*
G37*
G36*
X335600D02*
X334128Y581289D01*
X331782Y579934D01*
X329866Y578018D01*
X328511Y575672D01*
X328117Y574200D01*
X335600D01*
Y581683D01*
D02*
G37*
G36*
X315200D02*
Y574200D01*
X322683D01*
X322289Y575672D01*
X320934Y578018D01*
X319018Y579934D01*
X316672Y581289D01*
X315200Y581683D01*
D02*
G37*
G36*
X424283Y569200D02*
X416800D01*
Y561717D01*
X418272Y562111D01*
X420618Y563466D01*
X422534Y565382D01*
X423889Y567728D01*
X424283Y569200D01*
D02*
G37*
G36*
X411800D02*
X404317D01*
X404711Y567728D01*
X406066Y565382D01*
X407982Y563466D01*
X410328Y562111D01*
X411800Y561717D01*
Y569200D01*
D02*
G37*
G36*
X398883D02*
X391400D01*
Y561717D01*
X392872Y562111D01*
X395218Y563466D01*
X397134Y565382D01*
X398489Y567728D01*
X398883Y569200D01*
D02*
G37*
G36*
X386400D02*
X378917D01*
X379311Y567728D01*
X380666Y565382D01*
X382582Y563466D01*
X384928Y562111D01*
X386400Y561717D01*
Y569200D01*
D02*
G37*
G36*
X373483D02*
X366000D01*
Y561717D01*
X367472Y562111D01*
X369818Y563466D01*
X371734Y565382D01*
X373089Y567728D01*
X373483Y569200D01*
D02*
G37*
G36*
X361000D02*
X353517D01*
X353911Y567728D01*
X355266Y565382D01*
X357182Y563466D01*
X359528Y562111D01*
X361000Y561717D01*
Y569200D01*
D02*
G37*
G36*
X348083D02*
X340600D01*
Y561717D01*
X342072Y562111D01*
X344418Y563466D01*
X346334Y565382D01*
X347689Y567728D01*
X348083Y569200D01*
D02*
G37*
G36*
X335600D02*
X328117D01*
X328511Y567728D01*
X329866Y565382D01*
X331782Y563466D01*
X334128Y562111D01*
X335600Y561717D01*
Y569200D01*
D02*
G37*
G36*
X322683D02*
X315200D01*
Y561717D01*
X316672Y562111D01*
X319018Y563466D01*
X320934Y565382D01*
X322289Y567728D01*
X322683Y569200D01*
D02*
G37*
G36*
X471990Y570750D02*
X461200D01*
Y558460D01*
X471990D01*
Y570750D01*
D02*
G37*
G36*
X456200D02*
X445410D01*
Y558460D01*
X456200D01*
Y570750D01*
D02*
G37*
G36*
X415781Y557550D02*
X412819D01*
X409958Y556783D01*
X407392Y555302D01*
X405298Y553208D01*
X403817Y550642D01*
X403050Y547781D01*
Y544819D01*
X403817Y541958D01*
X405298Y539392D01*
X407392Y537298D01*
X409958Y535817D01*
X412819Y535050D01*
X415781D01*
X418642Y535817D01*
X421208Y537298D01*
X423302Y539392D01*
X424783Y541958D01*
X425550Y544819D01*
Y547781D01*
X424783Y550642D01*
X423302Y553208D01*
X421208Y555302D01*
X418642Y556783D01*
X415781Y557550D01*
D02*
G37*
G36*
X96890Y516240D02*
X93850D01*
Y503700D01*
Y491160D01*
X95810D01*
Y491160D01*
X98850D01*
Y503700D01*
Y516240D01*
X96890D01*
Y516240D01*
D02*
G37*
G36*
X471990Y545040D02*
X461200D01*
Y532750D01*
X471990D01*
Y545040D01*
D02*
G37*
G36*
X456200D02*
X445410D01*
Y532750D01*
X456200D01*
Y545040D01*
D02*
G37*
G36*
X471990Y527750D02*
X461200D01*
Y515460D01*
X471990D01*
Y527750D01*
D02*
G37*
G36*
X456200D02*
X445410D01*
Y515460D01*
X456200D01*
Y527750D01*
D02*
G37*
G36*
X573900Y381340D02*
X557860D01*
Y354300D01*
X573900D01*
Y381340D01*
D02*
G37*
G36*
Y349300D02*
X557860D01*
Y322260D01*
X573900D01*
Y349300D01*
D02*
G37*
G36*
X71920Y595317D02*
Y584210D01*
X83027D01*
X82270Y587033D01*
X80455Y590177D01*
X77887Y592745D01*
X74743Y594560D01*
X71920Y595317D01*
D02*
G37*
G36*
X20920D02*
Y584210D01*
X32027D01*
X31270Y587033D01*
X29455Y590177D01*
X26887Y592745D01*
X23743Y594560D01*
X20920Y595317D01*
D02*
G37*
G36*
X66920D02*
X64097Y594560D01*
X60953Y592745D01*
X58385Y590177D01*
X56570Y587033D01*
X55813Y584210D01*
X66920D01*
Y595317D01*
D02*
G37*
G36*
X15920D02*
X13097Y594560D01*
X9953Y592745D01*
X7385Y590177D01*
X5570Y587033D01*
X4813Y584210D01*
X15920D01*
Y595317D01*
D02*
G37*
G36*
X83027Y579210D02*
X71920D01*
Y568103D01*
X74743Y568860D01*
X77887Y570675D01*
X80455Y573243D01*
X82270Y576387D01*
X83027Y579210D01*
D02*
G37*
G36*
X32027D02*
X20920D01*
Y568103D01*
X23743Y568860D01*
X26887Y570675D01*
X29455Y573243D01*
X31270Y576387D01*
X32027Y579210D01*
D02*
G37*
G36*
X66920D02*
X55813D01*
X56570Y576387D01*
X58385Y573243D01*
X60953Y570675D01*
X64097Y568860D01*
X66920Y568103D01*
Y579210D01*
D02*
G37*
G36*
X15920D02*
X4813D01*
X5570Y576387D01*
X7385Y573243D01*
X9953Y570675D01*
X13097Y568860D01*
X15920Y568103D01*
Y579210D01*
D02*
G37*
G36*
X71920Y544317D02*
Y533210D01*
X83027D01*
X82270Y536033D01*
X80455Y539177D01*
X77887Y541745D01*
X74743Y543560D01*
X71920Y544317D01*
D02*
G37*
G36*
X20920D02*
Y533210D01*
X32027D01*
X31270Y536033D01*
X29455Y539177D01*
X26887Y541745D01*
X23743Y543560D01*
X20920Y544317D01*
D02*
G37*
G36*
X66920D02*
X64097Y543560D01*
X60953Y541745D01*
X58385Y539177D01*
X56570Y536033D01*
X55813Y533210D01*
X66920D01*
Y544317D01*
D02*
G37*
G36*
X15920D02*
X13097Y543560D01*
X9953Y541745D01*
X7385Y539177D01*
X5570Y536033D01*
X4813Y533210D01*
X15920D01*
Y544317D01*
D02*
G37*
G36*
X32027Y528210D02*
X20920D01*
Y517103D01*
X23743Y517860D01*
X26887Y519675D01*
X29455Y522243D01*
X31270Y525387D01*
X32027Y528210D01*
D02*
G37*
G36*
X15920D02*
X4813D01*
X5570Y525387D01*
X7385Y522243D01*
X9953Y519675D01*
X13097Y517860D01*
X15920Y517103D01*
Y528210D01*
D02*
G37*
G36*
X485590Y458940D02*
X481050D01*
Y452900D01*
X485590D01*
Y458940D01*
D02*
G37*
G36*
X503700Y463890D02*
X498660D01*
Y446850D01*
X503700D01*
Y463890D01*
D02*
G37*
G36*
X485590Y447900D02*
X481050D01*
Y441860D01*
X485590D01*
Y447900D01*
D02*
G37*
G36*
X503700Y441850D02*
X498660D01*
Y424810D01*
X503700D01*
Y441850D01*
D02*
G37*
G36*
X211390Y484240D02*
X205850D01*
Y476200D01*
X211390D01*
Y484240D01*
D02*
G37*
G36*
X247390D02*
X241850D01*
Y476200D01*
X247390D01*
Y484240D01*
D02*
G37*
G36*
X193390D02*
X187850D01*
Y476200D01*
X193390D01*
Y484240D01*
D02*
G37*
G36*
X175390D02*
X169850D01*
Y476200D01*
X175390D01*
Y484240D01*
D02*
G37*
G36*
X157390D02*
X151850D01*
Y476200D01*
X157390D01*
Y484240D01*
D02*
G37*
G36*
X139390D02*
X133850D01*
Y476200D01*
X139390D01*
Y484240D01*
D02*
G37*
G36*
X121390D02*
X115850D01*
Y476200D01*
X121390D01*
Y484240D01*
D02*
G37*
G36*
X229390D02*
X223850D01*
Y476200D01*
X229390D01*
Y484240D01*
D02*
G37*
G36*
X218850D02*
X213310D01*
Y476200D01*
X218850D01*
Y484240D01*
D02*
G37*
G36*
X236850D02*
X231310D01*
Y476200D01*
X236850D01*
Y484240D01*
D02*
G37*
G36*
X182850D02*
X177310D01*
Y476200D01*
X182850D01*
Y484240D01*
D02*
G37*
G36*
X164850D02*
X159310D01*
Y476200D01*
X164850D01*
Y484240D01*
D02*
G37*
G36*
X146850D02*
X141310D01*
Y476200D01*
X146850D01*
Y484240D01*
D02*
G37*
G36*
X128850D02*
X123310D01*
Y476200D01*
X128850D01*
Y484240D01*
D02*
G37*
G36*
X200850D02*
X195310D01*
Y476200D01*
X200850D01*
Y484240D01*
D02*
G37*
G36*
X247390Y471200D02*
X241850D01*
Y463160D01*
X247390D01*
Y471200D01*
D02*
G37*
G36*
X236850D02*
X231310D01*
Y463160D01*
X236850D01*
Y471200D01*
D02*
G37*
G36*
X229390D02*
X223850D01*
Y463160D01*
X229390D01*
Y471200D01*
D02*
G37*
G36*
X218850D02*
X213310D01*
Y463160D01*
X218850D01*
Y471200D01*
D02*
G37*
G36*
X211390D02*
X205850D01*
Y463160D01*
X211390D01*
Y471200D01*
D02*
G37*
G36*
X200850D02*
X195310D01*
Y463160D01*
X200850D01*
Y471200D01*
D02*
G37*
G36*
X193390D02*
X187850D01*
Y463160D01*
X193390D01*
Y471200D01*
D02*
G37*
G36*
X182850D02*
X177310D01*
Y463160D01*
X182850D01*
Y471200D01*
D02*
G37*
G36*
X175390D02*
X169850D01*
Y463160D01*
X175390D01*
Y471200D01*
D02*
G37*
G36*
X164850D02*
X159310D01*
Y463160D01*
X164850D01*
Y471200D01*
D02*
G37*
G36*
X157390D02*
X151850D01*
Y463160D01*
X157390D01*
Y471200D01*
D02*
G37*
G36*
X146850D02*
X141310D01*
Y463160D01*
X146850D01*
Y471200D01*
D02*
G37*
G36*
X139390D02*
X133850D01*
Y463160D01*
X139390D01*
Y471200D01*
D02*
G37*
G36*
X128850D02*
X123310D01*
Y463160D01*
X128850D01*
Y471200D01*
D02*
G37*
G36*
X121390D02*
X115850D01*
Y463160D01*
X121390D01*
Y471200D01*
D02*
G37*
G36*
X306890Y424740D02*
X298850D01*
Y419200D01*
X306890D01*
Y424740D01*
D02*
G37*
G36*
X293850D02*
X285810D01*
Y419200D01*
X293850D01*
Y424740D01*
D02*
G37*
G36*
X306890Y414200D02*
X298850D01*
Y408660D01*
X306890D01*
Y414200D01*
D02*
G37*
G36*
X293850D02*
X285810D01*
Y408660D01*
X293850D01*
Y414200D01*
D02*
G37*
G36*
X293850Y406740D02*
X285810D01*
Y401200D01*
X293850D01*
Y406740D01*
D02*
G37*
G36*
Y396200D02*
X285810D01*
Y390660D01*
X293850D01*
Y396200D01*
D02*
G37*
G36*
X293850Y388740D02*
X285810D01*
Y383200D01*
X293850D01*
Y388740D01*
D02*
G37*
G36*
Y378200D02*
X285810D01*
Y372660D01*
X293850D01*
Y378200D01*
D02*
G37*
G36*
X293850Y370740D02*
X285810D01*
Y365200D01*
X293850D01*
Y370740D01*
D02*
G37*
G36*
X306890Y360200D02*
X298850D01*
Y354660D01*
X306890D01*
Y360200D01*
D02*
G37*
G36*
X293850D02*
X285810D01*
Y354660D01*
X293850D01*
Y360200D01*
D02*
G37*
G36*
X306890Y352740D02*
X298850D01*
Y347200D01*
X306890D01*
Y352740D01*
D02*
G37*
G36*
X293850D02*
X285810D01*
Y347200D01*
X293850D01*
Y352740D01*
D02*
G37*
G36*
X306890Y342200D02*
X298850D01*
Y336660D01*
X306890D01*
Y342200D01*
D02*
G37*
G36*
X293850D02*
X285810D01*
Y336660D01*
X293850D01*
Y342200D01*
D02*
G37*
G36*
X306890Y334740D02*
X298850D01*
Y329200D01*
X306890D01*
Y334740D01*
D02*
G37*
G36*
X293850D02*
X285810D01*
Y329200D01*
X293850D01*
Y334740D01*
D02*
G37*
G36*
X306890Y324200D02*
X298850D01*
Y318660D01*
X306890D01*
Y324200D01*
D02*
G37*
G36*
X293850D02*
X285810D01*
Y318660D01*
X293850D01*
Y324200D01*
D02*
G37*
G36*
X306890Y316740D02*
X298850D01*
Y311200D01*
X306890D01*
Y316740D01*
D02*
G37*
G36*
X293850D02*
X285810D01*
Y311200D01*
X293850D01*
Y316740D01*
D02*
G37*
G36*
X306890Y306200D02*
X298850D01*
Y300660D01*
X306890D01*
Y306200D01*
D02*
G37*
G36*
X293850D02*
X285810D01*
Y300660D01*
X293850D01*
Y306200D01*
D02*
G37*
G36*
X306890Y298740D02*
X298850D01*
Y293200D01*
X306890D01*
Y298740D01*
D02*
G37*
G36*
X293850D02*
X285810D01*
Y293200D01*
X293850D01*
Y298740D01*
D02*
G37*
G36*
X306890Y288200D02*
X298850D01*
Y282660D01*
X306890D01*
Y288200D01*
D02*
G37*
G36*
X293850D02*
X285810D01*
Y282660D01*
X293850D01*
Y288200D01*
D02*
G37*
G36*
X248350Y245200D02*
X230350D01*
Y244988D01*
X229390Y244240D01*
X229080Y244240D01*
X223850D01*
Y233700D01*
Y223160D01*
X229080D01*
X229390Y223160D01*
X230350Y222412D01*
Y222200D01*
X248350D01*
Y245200D01*
D02*
G37*
G36*
X448290Y354892D02*
X441250D01*
Y344852D01*
X448290D01*
Y354892D01*
D02*
G37*
G36*
X436250D02*
X429210D01*
Y344852D01*
X436250D01*
Y354892D01*
D02*
G37*
G36*
X448290Y339852D02*
X441250D01*
Y329812D01*
X448290D01*
Y339852D01*
D02*
G37*
G36*
X436250D02*
X429210D01*
Y329812D01*
X436250D01*
Y339852D01*
D02*
G37*
G36*
X493940Y349300D02*
X477900D01*
Y322260D01*
X493940D01*
Y349300D01*
D02*
G37*
G36*
X472900D02*
X456860D01*
Y322260D01*
X472900D01*
Y349300D01*
D02*
G37*
G36*
X516390Y279540D02*
X503600D01*
Y267250D01*
X516390D01*
Y279540D01*
D02*
G37*
G36*
X498600D02*
X485810D01*
Y267250D01*
X498600D01*
Y279540D01*
D02*
G37*
G36*
X516390Y262250D02*
X503600D01*
Y249960D01*
X516390D01*
Y262250D01*
D02*
G37*
G36*
X498600D02*
X485810D01*
Y249960D01*
X498600D01*
Y262250D01*
D02*
G37*
G36*
X561956Y287750D02*
X560244D01*
X558591Y287307D01*
X557109Y286451D01*
X555899Y285241D01*
X555043Y283759D01*
X554600Y282106D01*
Y280500D01*
X545350D01*
Y249000D01*
X577850D01*
Y280500D01*
X567600D01*
Y282106D01*
X567157Y283759D01*
X566301Y285241D01*
X565091Y286451D01*
X563609Y287307D01*
X561956Y287750D01*
D02*
G37*
G36*
X412290Y339852D02*
X405250D01*
Y329812D01*
X412290D01*
Y339852D01*
D02*
G37*
G36*
X436569Y272400D02*
X434331D01*
X432169Y271821D01*
X430231Y270702D01*
X428648Y269119D01*
X427529Y267181D01*
X426950Y265019D01*
Y262781D01*
X427529Y260619D01*
X428648Y258681D01*
X430231Y257098D01*
X432169Y255979D01*
X434331Y255400D01*
X436569D01*
X438731Y255979D01*
X440669Y257098D01*
X442252Y258681D01*
X443371Y260619D01*
X443950Y262781D01*
Y265019D01*
X443371Y267181D01*
X442252Y269119D01*
X440669Y270702D01*
X438731Y271821D01*
X436569Y272400D01*
D02*
G37*
G36*
X66890Y424740D02*
X58850D01*
Y419200D01*
X66890D01*
Y424740D01*
D02*
G37*
G36*
X53850D02*
X45810D01*
Y419200D01*
X53850D01*
Y424740D01*
D02*
G37*
G36*
X66890Y414200D02*
X58850D01*
Y408660D01*
X66890D01*
Y414200D01*
D02*
G37*
G36*
X53850D02*
X45810D01*
Y408660D01*
X53850D01*
Y414200D01*
D02*
G37*
G36*
X66890Y406740D02*
X58850D01*
Y401200D01*
X66890D01*
Y406740D01*
D02*
G37*
G36*
X53850D02*
X45810D01*
Y401200D01*
X53850D01*
Y406740D01*
D02*
G37*
G36*
X66890Y396200D02*
X56350D01*
X45810D01*
Y390970D01*
X45810Y390660D01*
X45062Y389700D01*
X44850D01*
Y372970D01*
X44850Y371700D01*
X44850Y370430D01*
Y354970D01*
X44850Y353700D01*
X44850Y352430D01*
Y336970D01*
X44850Y335700D01*
X44850Y334430D01*
Y317700D01*
X45062D01*
X45810Y316740D01*
X45810Y316430D01*
Y311200D01*
X56350D01*
X66890D01*
Y316430D01*
X66890Y316740D01*
X67638Y317700D01*
X67850D01*
Y334430D01*
X67850Y335700D01*
X67850Y336970D01*
Y352430D01*
X67850Y353700D01*
X67850Y354970D01*
Y370430D01*
X67850Y371700D01*
X67850Y372970D01*
Y389700D01*
X67638D01*
X66890Y390660D01*
X66890Y390970D01*
Y396200D01*
D02*
G37*
G36*
Y306200D02*
X58850D01*
Y300660D01*
X66890D01*
Y306200D01*
D02*
G37*
G36*
X53850D02*
X45810D01*
Y300660D01*
X53850D01*
Y306200D01*
D02*
G37*
G36*
X66890Y298740D02*
X58850D01*
Y293200D01*
X66890D01*
Y298740D01*
D02*
G37*
G36*
X53850D02*
X45810D01*
Y293200D01*
X53850D01*
Y298740D01*
D02*
G37*
G36*
X66890Y288200D02*
X58850D01*
Y282660D01*
X66890D01*
Y288200D01*
D02*
G37*
G36*
X53850D02*
X45810D01*
Y282660D01*
X53850D01*
Y288200D01*
D02*
G37*
G36*
X35820Y181850D02*
X20820D01*
Y164850D01*
X23820D01*
Y158460D01*
X22550Y157934D01*
X22232Y158252D01*
X20408Y159305D01*
X18373Y159850D01*
X16267D01*
X14232Y159305D01*
X12408Y158252D01*
X10918Y156762D01*
X9865Y154938D01*
X9320Y152903D01*
Y150797D01*
X9865Y148762D01*
X10918Y146938D01*
X12408Y145448D01*
X14232Y144395D01*
X16267Y143850D01*
X18373D01*
X20408Y144395D01*
X22232Y145448D01*
X23722Y146938D01*
X24775Y148762D01*
X25320Y150797D01*
Y152350D01*
X35436D01*
X35587Y151589D01*
X36747Y149853D01*
X40907Y145693D01*
X42210Y144823D01*
X42045Y143873D01*
X41862Y143527D01*
X39942Y143145D01*
X38205Y141985D01*
X35907Y139687D01*
X34747Y137951D01*
X34429Y136350D01*
X23820D01*
Y128460D01*
X22550Y127934D01*
X22232Y128252D01*
X20408Y129305D01*
X18373Y129850D01*
X16267D01*
X14232Y129305D01*
X12408Y128252D01*
X10918Y126762D01*
X9865Y124938D01*
X9320Y122903D01*
Y120797D01*
X9865Y118762D01*
X10918Y116938D01*
X12408Y115448D01*
X14232Y114395D01*
X16267Y113850D01*
X18373D01*
X20408Y114395D01*
X22232Y115448D01*
X22550Y115766D01*
X23820Y115240D01*
Y108850D01*
X20820D01*
Y91850D01*
X35820D01*
Y95922D01*
X36847Y96634D01*
X37090Y96604D01*
X38674Y96180D01*
X40386D01*
X42039Y96623D01*
X43521Y97479D01*
X44731Y98689D01*
X45587Y100171D01*
X46030Y101824D01*
Y103536D01*
X45587Y105189D01*
X45073Y106080D01*
X45583Y107350D01*
X45820D01*
Y121350D01*
X45820D01*
Y122350D01*
X45820D01*
Y131448D01*
X47090Y132076D01*
X48494Y131700D01*
X50206D01*
X51859Y132143D01*
X53341Y132999D01*
X54551Y134209D01*
X55407Y135691D01*
X55850Y137344D01*
Y139056D01*
X55407Y140709D01*
X54551Y142191D01*
X53341Y143401D01*
X53156Y143508D01*
X52990Y144768D01*
X53231Y145009D01*
X54087Y146491D01*
X54530Y148144D01*
Y149856D01*
X54087Y151509D01*
X53231Y152991D01*
X52021Y154201D01*
X50539Y155057D01*
X48886Y155500D01*
X47174D01*
X46987Y155450D01*
X45885Y156358D01*
Y157600D01*
X45820Y157928D01*
Y166350D01*
X35820D01*
Y181850D01*
D02*
G37*
G36*
X283206Y107150D02*
X281494D01*
X279841Y106707D01*
X278359Y105851D01*
X277149Y104641D01*
X276293Y103159D01*
X275850Y101506D01*
Y99794D01*
X276293Y98141D01*
X277149Y96659D01*
X278359Y95449D01*
X279841Y94593D01*
X281494Y94150D01*
X283206D01*
X284859Y94593D01*
X286341Y95449D01*
X287551Y96659D01*
X288407Y98141D01*
X288850Y99794D01*
Y101506D01*
X288407Y103159D01*
X287551Y104641D01*
X286341Y105851D01*
X284859Y106707D01*
X283206Y107150D01*
D02*
G37*
G36*
X52390Y88940D02*
X49350D01*
Y86900D01*
X52390D01*
Y88940D01*
D02*
G37*
G36*
X44350D02*
X41310D01*
Y82703D01*
X38150D01*
Y85600D01*
X14150D01*
Y70600D01*
X22442D01*
Y69393D01*
X22060Y67966D01*
Y66254D01*
X22503Y64601D01*
X23359Y63119D01*
X24569Y61909D01*
X26051Y61053D01*
X27704Y60610D01*
X29416D01*
X31069Y61053D01*
X32551Y61909D01*
X33761Y63119D01*
X34617Y64601D01*
X35060Y66254D01*
Y67966D01*
X34678Y69393D01*
Y70600D01*
X38150D01*
Y71997D01*
X45797D01*
X47821Y72400D01*
X52850D01*
Y82400D01*
X52390D01*
Y82401D01*
X47319D01*
X46850Y82494D01*
Y84400D01*
X44350D01*
Y88940D01*
D02*
G37*
G36*
X351230Y101900D02*
X327230D01*
Y81900D01*
X351230D01*
Y101900D01*
D02*
G37*
G36*
X350270Y75540D02*
X341730D01*
Y69000D01*
X350270D01*
Y75540D01*
D02*
G37*
G36*
X336730D02*
X328190D01*
Y69000D01*
X336730D01*
Y75540D01*
D02*
G37*
G36*
X350270Y64000D02*
X341730D01*
Y57460D01*
X350270D01*
Y64000D01*
D02*
G37*
G36*
X336730D02*
X328190D01*
Y57460D01*
X336730D01*
Y64000D01*
D02*
G37*
G36*
X198906Y40300D02*
X197194D01*
X195541Y39857D01*
X194059Y39001D01*
X192849Y37791D01*
X191993Y36309D01*
X191550Y34656D01*
Y32944D01*
X191993Y31291D01*
X192849Y29809D01*
X194059Y28599D01*
X195541Y27743D01*
X197194Y27300D01*
X198906D01*
X200333Y27682D01*
X213514D01*
X213945Y26412D01*
X212979Y25671D01*
X211851Y24200D01*
X211141Y22488D01*
X210899Y20650D01*
Y19650D01*
X218000D01*
X225101D01*
Y20650D01*
X224859Y22488D01*
X224149Y24200D01*
X223021Y25671D01*
X222055Y26412D01*
X222486Y27682D01*
X338623D01*
X338691Y27643D01*
X340344Y27200D01*
X342056D01*
X343709Y27643D01*
X345191Y28499D01*
X346401Y29709D01*
X347257Y31191D01*
X347700Y32844D01*
Y34556D01*
X347257Y36209D01*
X346401Y37691D01*
X345191Y38901D01*
X343709Y39757D01*
X342056Y40200D01*
X340344D01*
X339290Y39918D01*
X200333D01*
X198906Y40300D01*
D02*
G37*
G36*
X154500Y27234D02*
Y19650D01*
X159101D01*
Y20650D01*
X158859Y22488D01*
X158149Y24200D01*
X157021Y25671D01*
X155550Y26799D01*
X154500Y27234D01*
D02*
G37*
G36*
X149500D02*
X148450Y26799D01*
X146979Y25671D01*
X145851Y24200D01*
X145141Y22488D01*
X144899Y20650D01*
Y19650D01*
X149500D01*
Y27234D01*
D02*
G37*
G36*
X38150Y51600D02*
X14150D01*
Y36600D01*
X38150D01*
Y38733D01*
X45587D01*
X73258Y11061D01*
X75242Y9735D01*
X77583Y9270D01*
X124313D01*
X125740Y8887D01*
X127452D01*
X129105Y9330D01*
X130587Y10186D01*
X131797Y11396D01*
X132653Y12878D01*
X133096Y14531D01*
Y16243D01*
X132653Y17896D01*
X131797Y19378D01*
X130587Y20588D01*
X129105Y21444D01*
X127452Y21887D01*
X125740D01*
X124313Y21505D01*
X80118D01*
X52446Y49176D01*
X50462Y50502D01*
X48121Y50967D01*
X38150D01*
Y51600D01*
D02*
G37*
%LPD*%
D10*
X41190Y510690D02*
G03*
X43190Y515518I-4828J4828D01*
G01*
X43920Y556210D02*
G03*
X43190Y554448I1762J-1762D01*
G01*
X35492Y508330D02*
G03*
X41190Y510690I0J8058D01*
G01*
X18176Y508330D02*
G03*
X11770Y501307I647J-7023D01*
G01*
X11770Y461832D02*
G03*
X12740Y459490I3312J0D01*
G01*
D02*
G03*
X14647Y458700I1907J1907D01*
G01*
X43190Y515518D02*
Y554448D01*
X18176Y508330D02*
X35492D01*
X11770Y461832D02*
Y501307D01*
X14647Y458700D02*
X26350D01*
X26340Y458710D02*
X26350Y458700D01*
X600000Y484950D02*
Y600000D01*
X0D02*
X600000D01*
Y401700D02*
Y484950D01*
X384450Y50D02*
Y236700D01*
X113250Y50D02*
X384450D01*
Y236700D02*
X600000D01*
X0Y0D02*
X113000D01*
X0Y461750D02*
X0Y0D01*
X600000Y236700D02*
Y401700D01*
X0Y461750D02*
Y600000D01*
D11*
X340100Y371450D02*
X349083D01*
X365840Y368334D02*
X375166D01*
X336100Y371450D02*
X340100D01*
X340100Y371450D01*
X333350Y368700D02*
X336100Y371450D01*
X326350Y368700D02*
X333350D01*
X325765Y369285D02*
X326350Y368700D01*
X363058Y365551D02*
X365840Y368334D01*
X349083Y371450D02*
X354981Y365551D01*
X375166Y368334D02*
X376250Y367250D01*
X354981Y365551D02*
X363058D01*
X311835Y369285D02*
X325765D01*
X311250Y369870D02*
X311835Y369285D01*
X357650Y380050D02*
X360250Y377450D01*
Y375995D02*
Y377450D01*
X357650Y380050D02*
Y380300D01*
X336100Y375950D02*
X341964D01*
X333350Y378700D02*
X336100Y375950D01*
X341964Y375950D02*
X350947D01*
X341964Y375950D02*
X341964Y375950D01*
X360250Y375995D02*
X362658Y373587D01*
Y371516D02*
Y373587D01*
X350947Y375950D02*
X356845Y370051D01*
X361194D01*
X362658Y371516D01*
X325885Y378235D02*
X326350Y378700D01*
X333350D01*
X311715Y378235D02*
X325885D01*
X311250Y377770D02*
X311715Y378235D01*
X388515Y378815D02*
X389950Y380250D01*
X386110Y378815D02*
X388515D01*
X378850Y371555D02*
X386110Y378815D01*
X378850Y370100D02*
Y371555D01*
X376250Y367500D02*
X378850Y370100D01*
X367310Y391665D02*
X373365D01*
X360250Y383150D02*
Y384605D01*
X367310Y391665D01*
X376250Y367250D02*
Y367500D01*
X357650Y380550D02*
X360250Y383150D01*
X357650Y380300D02*
Y380550D01*
X373365Y391665D02*
X374800Y393100D01*
D12*
X311300Y298700D02*
X326350D01*
X311250Y298650D02*
X311300Y298700D01*
X28560Y67110D02*
Y77240D01*
X28670Y77350D01*
X53060Y174440D02*
X66250Y161250D01*
X49400Y202210D02*
X53060Y198550D01*
X66250Y75850D02*
Y161250D01*
X53060Y174440D02*
Y198550D01*
X49400Y202210D02*
Y226050D01*
X352750Y278650D02*
X356550Y274850D01*
X402750Y342352D02*
X405103Y344704D01*
Y356923D01*
X408330Y360150D01*
X417548D01*
X387340Y353469D02*
X400450Y366579D01*
Y438992D01*
X361841Y340612D02*
X366100Y344871D01*
X386379Y280450D02*
X386650D01*
X383979Y282850D02*
X386379Y280450D01*
X378050Y295850D02*
X383418D01*
X378050Y282850D02*
X383979D01*
X385888Y293379D02*
X386159D01*
X376550Y284350D02*
X378050Y282850D01*
X383418Y295850D02*
X385888Y293379D01*
X387340Y307070D02*
Y353469D01*
Y307070D02*
X398660Y295750D01*
X373650Y255050D02*
X388620D01*
X398660Y265090D01*
Y295750D01*
X386059Y266850D02*
X388509Y269300D01*
X388779D01*
X378050Y266850D02*
X386059D01*
X339355Y117175D02*
X367325D01*
X85513Y95063D02*
X94663D01*
X339230Y117300D02*
X339355Y117175D01*
X131200Y150250D02*
X163500D01*
X318650Y127300D02*
X326150Y134800D01*
X179250Y116500D02*
X338430D01*
X106150Y161150D02*
X169200D01*
X163500Y150250D02*
X186450Y127300D01*
X101350Y101750D02*
Y120400D01*
X84808Y69088D02*
X95238D01*
X367325Y117175D02*
X367450Y117050D01*
X381300Y246550D02*
X420850D01*
X82550Y92100D02*
X85513Y95063D01*
X101350Y120400D02*
X131200Y150250D01*
X338430Y116500D02*
X339230Y117300D01*
X82391Y137391D02*
X106150Y161150D01*
X186450Y127300D02*
X318650D01*
X154500Y141250D02*
X179250Y116500D01*
X339230Y66500D02*
X359600D01*
X82200Y133200D02*
X82391Y133391D01*
X313250Y138050D02*
X321350Y146150D01*
X372550Y237800D02*
X381300Y246550D01*
X113950Y87800D02*
Y119100D01*
X94663Y95063D02*
X101350Y101750D01*
X337900Y134800D02*
X378600Y175500D01*
X192300Y138050D02*
X313250D01*
X372550Y184600D02*
Y237800D01*
X82200Y117320D02*
X82220Y117300D01*
X326150Y134800D02*
X337900D01*
X113950Y119100D02*
X123556Y128706D01*
X82200Y117320D02*
Y133200D01*
X82220Y66500D02*
X84808Y69088D01*
X82391Y133391D02*
Y137391D01*
X95238Y69088D02*
X113950Y87800D01*
X169200Y161150D02*
X192300Y138050D01*
X321350Y146150D02*
X334100D01*
X372550Y184600D01*
X123556Y128706D02*
X152394D01*
X50789Y19269D02*
Y19559D01*
X38890Y7370D02*
X50789Y19269D01*
Y19559D02*
X50980Y19750D01*
X562750Y496150D02*
Y514400D01*
X540175Y444375D02*
X540200Y444350D01*
X540150Y473100D02*
X540175Y473075D01*
X530950Y496300D02*
Y514550D01*
X533800Y550350D02*
X540200D01*
X574200Y444350D02*
Y472700D01*
X540175Y444375D02*
Y473075D01*
X574200Y472700D02*
X574500Y473000D01*
X498150Y514700D02*
X533800Y550350D01*
X514550Y496700D02*
Y514950D01*
X547150Y496450D02*
Y514700D01*
X578850Y496150D02*
Y513900D01*
X361000Y242400D02*
X373650Y255050D01*
X361000Y189950D02*
Y242400D01*
X376550Y265350D02*
X378050Y266850D01*
X345800Y174750D02*
X361000Y189950D01*
X356050Y274850D02*
X356550D01*
X354550Y273350D02*
X356050Y274850D01*
X343850Y261450D02*
X354550Y272150D01*
Y273350D01*
X343850Y240750D02*
Y261450D01*
Y228300D02*
Y240750D01*
X376550Y297350D02*
X378050Y295850D01*
X366100Y344871D02*
Y354100D01*
X241200Y203850D02*
X241350Y203700D01*
X270850Y204200D02*
X271350Y203700D01*
X311850Y388550D02*
X326200D01*
X81350Y177450D02*
Y203700D01*
X283200Y174800D02*
X283250Y174750D01*
X251350Y219700D02*
X266835D01*
X9450Y448750D02*
X9500Y448700D01*
X227279Y219700D02*
X241200D01*
X400450Y438992D02*
X408550Y447092D01*
X25850Y429200D02*
X26350Y428700D01*
X408550Y447092D02*
Y455300D01*
X326300Y247350D02*
Y258650D01*
X53950Y273100D02*
X56350Y275500D01*
X224350Y222629D02*
X227279Y219700D01*
X81350Y177450D02*
X88900Y169900D01*
X9500Y448700D02*
X26350D01*
X251350Y203700D02*
Y219700D01*
X401600Y462250D02*
X408550Y455300D01*
X266835Y219700D02*
X270850Y215685D01*
X312325Y398625D02*
X326275D01*
X56350Y275500D02*
Y290700D01*
X221350Y233700D02*
X224350Y230700D01*
X352850Y462250D02*
X401600D01*
X224350Y222629D02*
Y230700D01*
X241200Y203850D02*
Y219700D01*
X251350D01*
X283250Y174750D02*
X345800D01*
X22400Y248200D02*
X22875Y248675D01*
X111200Y184650D02*
X111350Y184800D01*
X270850Y204200D02*
Y215685D01*
X9550Y432250D02*
X12600Y429200D01*
X25850D01*
X121200Y184600D02*
Y203550D01*
X91250Y203800D02*
Y219600D01*
X311050Y348700D02*
X326350D01*
X312250Y398550D02*
X312325Y398625D01*
X326300Y258650D02*
X326350Y258700D01*
X326350Y258700D02*
Y268700D01*
X22875Y248675D02*
X26325D01*
X91250Y203800D02*
X91350Y203700D01*
X22400Y236800D02*
Y248200D01*
X311000Y348650D02*
X311050Y348700D01*
X326200Y388550D02*
X326350Y388700D01*
X326275Y398625D02*
X326350Y398700D01*
X339800Y449200D02*
X352850Y462250D01*
X330300Y449200D02*
X339800D01*
X329800Y448700D02*
X330300Y449200D01*
X326350Y448700D02*
X329800D01*
X26325Y248675D02*
X26350Y248700D01*
X121200Y203550D02*
X121350Y203700D01*
X111350Y184800D02*
Y203700D01*
X561100Y265250D02*
Y281250D01*
X463900Y389900D02*
X496750D01*
X514750Y407900D01*
X549050D01*
X457750Y396050D02*
X463900Y389900D01*
X561100Y265250D02*
X561600Y264750D01*
X440700Y390600D02*
X450159Y381141D01*
Y376891D02*
X450350Y376700D01*
X450159Y376891D02*
Y381141D01*
X440700Y390600D02*
Y391350D01*
X411879Y376150D02*
X433479D01*
X438750Y342352D02*
Y370879D01*
X433479Y376150D02*
X438750Y370879D01*
X102400Y383500D02*
Y423950D01*
X102350Y383450D02*
X102400Y383500D01*
Y327665D02*
Y383400D01*
X102350Y383450D02*
X102400Y383400D01*
X57450Y449911D02*
X76439D01*
X102400Y423950D01*
X49400Y226050D02*
X79600Y256250D01*
X146250D02*
X180350Y290350D01*
X79600Y256250D02*
X146250D01*
X96000Y265300D02*
Y321265D01*
X102400Y327665D01*
X366100Y354100D02*
X375950D01*
X384500Y362650D01*
Y367000D01*
X384750Y367250D01*
X392679Y447200D02*
X397979Y452500D01*
X398250D01*
X382250Y447200D02*
X392679D01*
X382100Y447350D02*
X382250Y447200D01*
X380250Y447350D02*
X382100D01*
X380250D02*
X380300Y447300D01*
X380250Y428100D02*
X380350Y428200D01*
X380150Y409050D02*
X380250Y409150D01*
Y428100D01*
X380300Y428250D02*
Y447300D01*
Y428250D02*
X380350Y428200D01*
X353621Y288700D02*
X356550Y291629D01*
X326350Y288700D02*
X353621D01*
X356550Y291629D02*
Y303000D01*
X63250Y72850D02*
X66250Y75850D01*
X63250Y53350D02*
Y72850D01*
Y53350D02*
X72100Y44500D01*
X109000D01*
X126650Y62150D01*
X180350Y290350D02*
Y316600D01*
X326400Y278650D02*
X352750D01*
X420450Y429515D02*
Y450350D01*
X408950Y424686D02*
X411879Y427614D01*
X408950Y379079D02*
Y424686D01*
Y379079D02*
X411879Y376150D01*
Y427614D02*
X418550D01*
X420450Y429515D01*
X459650Y571700D02*
X460750Y572800D01*
X432500Y450450D02*
X441350D01*
X458325Y451175D02*
X466600D01*
X457550Y450400D02*
X458325Y451175D01*
X478750Y417200D02*
X478800Y417150D01*
X478750Y417200D02*
Y430200D01*
X198050Y33800D02*
X341100D01*
X341200Y33700D01*
X352947Y393200D02*
X354300D01*
X77583Y15387D02*
X126596D01*
X48121Y44850D02*
X77583Y15387D01*
X347700Y443850D02*
X357250D01*
X326350Y438700D02*
X326850Y439200D01*
X343050D01*
X347700Y443850D01*
X326600Y428450D02*
X359050D01*
X326350Y398700D02*
X347447D01*
X352947Y393200D01*
X26150Y44850D02*
X48121D01*
X388400Y532150D02*
Y545800D01*
X388900Y546300D01*
X384900Y528650D02*
X388400Y532150D01*
X351250Y528650D02*
X384900D01*
X326350Y278700D02*
X326400Y278650D01*
X326850Y418200D02*
X344200D01*
X350697Y411703D02*
X357150D01*
X344200Y418200D02*
X350697Y411703D01*
X326350Y418700D02*
X326850Y418200D01*
X326350Y428700D02*
X326600Y428450D01*
X326850Y358200D02*
X343650D01*
X347750Y354100D02*
X357600D01*
X343650Y358200D02*
X347750Y354100D01*
X326350Y358700D02*
X326850Y358200D01*
X457750Y396050D02*
Y430200D01*
X6975Y248675D02*
X22875D01*
X6950Y248650D02*
X6975Y248675D01*
X460300Y573250D02*
X460750Y572800D01*
X458700Y573250D02*
X460300D01*
X421100Y391950D02*
X421700Y391350D01*
X420500Y410650D02*
X421100Y410050D01*
Y391950D02*
Y410050D01*
X420350Y450450D02*
X420450Y450350D01*
X441625Y430125D02*
X457675D01*
X457750Y430200D01*
X441550Y430050D02*
X441625Y430125D01*
X549050Y407900D02*
X557200Y416050D01*
Y444350D01*
D17*
X307775Y194475D02*
X307800Y194500D01*
X294000Y194450D02*
X294025Y194475D01*
X307775D01*
X171350Y203700D02*
X171350Y203700D01*
X181350Y186280D02*
X181350Y186280D01*
X171350Y218050D02*
X171350Y218050D01*
X191350Y203700D02*
X191375Y203725D01*
X181350Y186280D02*
Y203700D01*
X141525Y203875D02*
Y217875D01*
X155400Y186350D02*
X169050D01*
X181350Y203700D02*
X181350Y203700D01*
X191375Y217775D02*
X191400Y217800D01*
X151350Y190400D02*
X155400Y186350D01*
X151350Y190400D02*
Y203700D01*
X141350D02*
X141525Y203875D01*
Y217875D02*
X141700Y218050D01*
X171350Y203700D02*
Y218050D01*
X131325Y203725D02*
X131350Y203700D01*
X191375Y203725D02*
Y217775D01*
X131300Y218050D02*
X131325Y218025D01*
Y203725D02*
Y218025D01*
X161350Y203700D02*
Y218050D01*
X161400Y218100D01*
X26300Y328750D02*
X26350Y328700D01*
X8750Y328750D02*
X26300D01*
X8250Y329250D02*
X8750Y328750D01*
X249950Y403600D02*
Y415600D01*
X7950Y313150D02*
X13500Y318700D01*
X26350D01*
X7800Y313000D02*
X7900D01*
X7950Y313050D02*
Y313150D01*
X7900Y313000D02*
X7950Y313050D01*
X252150Y430700D02*
X312700Y491250D01*
Y546300D01*
X244850Y430700D02*
X252150D01*
X7400Y418600D02*
X7450Y418650D01*
X26300D01*
X26350Y418700D01*
X26300Y368750D02*
X26350Y368700D01*
X7800Y368800D02*
X7850Y368750D01*
X26300D01*
X321450Y487100D02*
Y529650D01*
X249950Y415600D02*
X321450Y487100D01*
X250850Y442250D02*
X303650Y495050D01*
X321450Y529650D02*
X338100Y546300D01*
X287300Y546150D02*
Y546300D01*
Y546150D02*
X303650Y529800D01*
Y495050D02*
Y529800D01*
D23*
X28320Y100350D02*
D03*
X6320Y173350D02*
D03*
X28320D02*
D03*
X6320Y100350D02*
D03*
D24*
X34820Y159350D02*
D03*
Y129350D02*
D03*
Y114350D02*
D03*
D25*
X343850Y195050D02*
D03*
Y229050D02*
D03*
X26150Y44100D02*
D03*
Y78100D02*
D03*
D26*
X82220Y66500D02*
D03*
Y91900D02*
D03*
Y117300D02*
D03*
X339230Y66500D02*
D03*
Y91900D02*
D03*
Y117300D02*
D03*
D27*
X357250Y332200D02*
D03*
X364250D02*
D03*
X307800Y194500D02*
D03*
X314800D02*
D03*
D28*
X46850Y77400D02*
D03*
Y84400D02*
D03*
D29*
X10890Y7370D02*
D03*
X38890D02*
D03*
D30*
X7400Y418600D02*
D03*
X374800Y393100D02*
D03*
X354300Y393200D02*
D03*
X389950Y380250D02*
D03*
X345850Y341050D02*
D03*
X343850Y240750D02*
D03*
X417548Y360150D02*
D03*
X435450Y263900D02*
D03*
X7800Y368800D02*
D03*
X7050Y348400D02*
D03*
X8250Y329250D02*
D03*
X6950Y248650D02*
D03*
X7950Y313050D02*
D03*
D31*
X457550Y450400D02*
D03*
X478550D02*
D03*
X457750Y430200D02*
D03*
X478750D02*
D03*
X420550Y430050D02*
D03*
X441550D02*
D03*
X441500Y410650D02*
D03*
X420500D02*
D03*
X380250Y447350D02*
D03*
X359250D02*
D03*
X359350Y428200D02*
D03*
X380350D02*
D03*
X359150Y409050D02*
D03*
X380150D02*
D03*
X441350Y450450D02*
D03*
X420350D02*
D03*
D32*
X421700Y391350D02*
D03*
X440700D02*
D03*
D33*
X366150Y380300D02*
D03*
X357650D02*
D03*
X384750Y367250D02*
D03*
X376250D02*
D03*
X366100Y354100D02*
D03*
X357600D02*
D03*
D34*
X376550Y297350D02*
D03*
Y316350D02*
D03*
X356550Y306850D02*
D03*
Y274850D02*
D03*
X376550Y284350D02*
D03*
Y265350D02*
D03*
D35*
X402750Y342352D02*
D03*
X438750D02*
D03*
D36*
X475400Y351800D02*
D03*
X576400D02*
D03*
D37*
X501100Y264750D02*
D03*
X561600D02*
D03*
D38*
X458700Y573250D02*
D03*
Y530250D02*
D03*
D39*
X326350Y368700D02*
D03*
Y378700D02*
D03*
X26350Y458700D02*
D03*
Y448700D02*
D03*
Y438700D02*
D03*
Y428700D02*
D03*
Y418700D02*
D03*
X326350Y258700D02*
D03*
X326350Y268700D02*
D03*
Y278700D02*
D03*
Y288700D02*
D03*
Y298700D02*
D03*
Y308700D02*
D03*
Y318700D02*
D03*
Y328700D02*
D03*
Y338700D02*
D03*
Y348700D02*
D03*
Y358700D02*
D03*
Y388700D02*
D03*
Y398700D02*
D03*
Y408700D02*
D03*
Y418700D02*
D03*
X326350Y428700D02*
D03*
X326350Y438700D02*
D03*
Y448700D02*
D03*
Y458700D02*
D03*
X26350Y408700D02*
D03*
Y398700D02*
D03*
Y388700D02*
D03*
Y378700D02*
D03*
Y368700D02*
D03*
Y358700D02*
D03*
Y348700D02*
D03*
Y338700D02*
D03*
Y328700D02*
D03*
Y318700D02*
D03*
Y308700D02*
D03*
Y298700D02*
D03*
Y288700D02*
D03*
Y278700D02*
D03*
Y268700D02*
D03*
Y258700D02*
D03*
Y248700D02*
D03*
D40*
X239350Y233700D02*
D03*
X221350Y233700D02*
D03*
X203350D02*
D03*
X185350D02*
D03*
X167350Y233700D02*
D03*
X149350D02*
D03*
X131350D02*
D03*
X113350Y473700D02*
D03*
X131350D02*
D03*
X149350D02*
D03*
X167350D02*
D03*
X185350D02*
D03*
X203350D02*
D03*
X221350D02*
D03*
X113350Y233700D02*
D03*
X239350Y473700D02*
D03*
D41*
X56350Y290700D02*
D03*
Y308700D02*
D03*
Y326700D02*
D03*
Y344700D02*
D03*
X56350Y362700D02*
D03*
Y380700D02*
D03*
X56350Y398700D02*
D03*
Y416700D02*
D03*
X296350Y308700D02*
D03*
Y326700D02*
D03*
Y344700D02*
D03*
Y362700D02*
D03*
Y380700D02*
D03*
Y398700D02*
D03*
Y416700D02*
D03*
Y290700D02*
D03*
D42*
X281350Y503700D02*
D03*
X271350D02*
D03*
X261350D02*
D03*
X251350D02*
D03*
X241350D02*
D03*
X231350D02*
D03*
X221350D02*
D03*
X211350D02*
D03*
X201350D02*
D03*
X191350D02*
D03*
X181350D02*
D03*
X171350D02*
D03*
X161350D02*
D03*
X151350D02*
D03*
X141350D02*
D03*
X131350D02*
D03*
X121350D02*
D03*
X111350D02*
D03*
X101350Y503700D02*
D03*
X91350Y503700D02*
D03*
X81350D02*
D03*
X71350D02*
D03*
X141350Y203700D02*
D03*
X151350D02*
D03*
X161350D02*
D03*
X171350D02*
D03*
X181350D02*
D03*
X191350D02*
D03*
X201350D02*
D03*
X211350D02*
D03*
X221350D02*
D03*
X231350D02*
D03*
X241350D02*
D03*
X251350D02*
D03*
X261350D02*
D03*
X271350D02*
D03*
X281350D02*
D03*
X71350D02*
D03*
X81350D02*
D03*
X91350D02*
D03*
X101350D02*
D03*
X111350D02*
D03*
X121350D02*
D03*
X131350D02*
D03*
D70*
X540200Y550350D02*
D03*
D71*
X574200Y444350D02*
D03*
X557200D02*
D03*
X540200D02*
D03*
X523200D02*
D03*
X506200D02*
D03*
D72*
X376380Y380500D02*
X384350Y388470D01*
X366150Y380300D02*
X366350Y380500D01*
X384350Y388470D02*
Y397550D01*
X381300Y400600D02*
Y407900D01*
X366350Y380500D02*
X376380D01*
X380150Y409050D02*
X381300Y407900D01*
Y400600D02*
X384350Y397550D01*
X28670Y77350D02*
X45797D01*
X38782Y159350D02*
X40532Y157600D01*
X44692Y149478D02*
X47552D01*
X40532Y153638D02*
Y157600D01*
X34820Y159350D02*
X38782D01*
X40532Y153638D02*
X44692Y149478D01*
X47552D02*
X48030Y149000D01*
X34820Y129350D02*
X37942D01*
X39692Y131100D02*
Y135902D01*
X41990Y138200D01*
X49350D01*
X37942Y129350D02*
X39692Y131100D01*
X39530Y102680D02*
Y112600D01*
X34820Y114350D02*
X37780D01*
X39530Y112600D01*
X345850Y341050D02*
X345850D01*
X353450Y333450D02*
X357000D01*
X345850Y341050D02*
X353450Y333450D01*
X357000D02*
X357250Y333200D01*
Y332200D02*
Y333200D01*
X364250Y332200D02*
Y337526D01*
X361841Y339935D02*
X364250Y337526D01*
X361841Y339935D02*
Y340612D01*
X343800Y207300D02*
X343850Y207250D01*
Y195800D02*
Y207250D01*
X10670Y19230D02*
X10780Y19120D01*
Y7480D02*
Y19120D01*
Y7480D02*
X10890Y7370D01*
X345850Y310050D02*
Y339806D01*
Y341050D01*
Y310050D02*
X348850Y307050D01*
X354300Y305250D02*
Y306550D01*
X353800Y307050D02*
X354300Y306550D01*
X348850Y307050D02*
X353800D01*
X364500Y327900D02*
Y331950D01*
Y327900D02*
X376050Y316350D01*
X364250Y332200D02*
X364500Y331950D01*
X376050Y316350D02*
X376550D01*
X354300Y305250D02*
X356550Y303000D01*
X319850Y228300D02*
X343850D01*
X314800Y194500D02*
Y223250D01*
X319850Y228300D01*
X81100Y485000D02*
X81350Y485250D01*
X111350Y489100D02*
Y503700D01*
X113350Y473700D02*
X113550Y473900D01*
X23800Y348700D02*
X26350D01*
X113550Y473900D02*
Y486900D01*
X9400Y260700D02*
X11400Y258700D01*
X111350Y489100D02*
X113550Y486900D01*
X26350Y348700D02*
X26350Y348700D01*
X339232Y464582D02*
X341883D01*
X81350Y485250D02*
Y503700D01*
X333350Y458700D02*
X339232Y464582D01*
X326350Y458700D02*
X333350D01*
X341883Y464582D02*
X342361Y465061D01*
X10200Y288700D02*
X26350D01*
X11400Y258700D02*
X26350D01*
X10150Y288750D02*
X10200Y288700D01*
X9800Y278700D02*
X9850D01*
X9800D02*
X9800Y278700D01*
X26350D01*
X432400Y410650D02*
X432400Y410650D01*
X441500D01*
X56050Y84400D02*
X56100Y84450D01*
X46850Y84400D02*
X56050D01*
X359200Y447400D02*
X359250Y447350D01*
X6900Y348300D02*
X6950D01*
X7050Y348400D01*
D73*
X17320Y121850D02*
D03*
Y151850D02*
D03*
D74*
X43920Y556210D02*
D03*
D75*
X69420Y530710D02*
D03*
X18420D02*
D03*
Y581710D02*
D03*
X69420D02*
D03*
D76*
X414300Y546300D02*
D03*
X388900D02*
D03*
X363500D02*
D03*
X338100D02*
D03*
X312700D02*
D03*
X287300D02*
D03*
X261900D02*
D03*
X236500D02*
D03*
X211100D02*
D03*
X185700D02*
D03*
X414300Y571700D02*
D03*
X388900D02*
D03*
X363500D02*
D03*
X338100D02*
D03*
X312700D02*
D03*
X287300D02*
D03*
X261900D02*
D03*
X236500D02*
D03*
X211100D02*
D03*
D77*
X185700D02*
D03*
D78*
X152000Y17150D02*
D03*
X218000D02*
D03*
D79*
X311250Y369870D02*
D03*
Y377770D02*
D03*
X311250Y298650D02*
D03*
X28560Y67110D02*
D03*
X48030Y149000D02*
D03*
X49350Y138200D02*
D03*
X39530Y102680D02*
D03*
X52920Y111140D02*
D03*
X53060Y174440D02*
D03*
X282350Y100650D02*
D03*
X35180Y532980D02*
D03*
X35120Y524460D02*
D03*
Y541040D02*
D03*
X51260Y540830D02*
D03*
Y533270D02*
D03*
X51230Y525180D02*
D03*
X51260Y516710D02*
D03*
X34400Y516580D02*
D03*
X25570Y516410D02*
D03*
X28440Y468510D02*
D03*
X20080Y469140D02*
D03*
X19920Y477020D02*
D03*
X19870Y485430D02*
D03*
X19980Y494050D02*
D03*
X25150Y500060D02*
D03*
X34290Y500160D02*
D03*
X43440Y502130D02*
D03*
X49670Y508300D02*
D03*
X13200Y515400D02*
D03*
X6180Y509990D02*
D03*
X3770Y501070D02*
D03*
Y492780D02*
D03*
X3710Y484370D02*
D03*
X3770Y475420D02*
D03*
X3790Y466220D02*
D03*
X4830Y456490D02*
D03*
X361841Y340612D02*
D03*
X450350Y376700D02*
D03*
X102350Y383450D02*
D03*
X343800Y207300D02*
D03*
X289170Y587570D02*
D03*
X269880Y587410D02*
D03*
X248470D02*
D03*
X174530Y587240D02*
D03*
X198690Y586760D02*
D03*
X223180Y586590D02*
D03*
X487601Y466001D02*
D03*
X365201Y480401D02*
D03*
X505601Y415601D02*
D03*
X502001Y408401D02*
D03*
X494801Y451601D02*
D03*
Y437201D02*
D03*
Y422801D02*
D03*
X491201Y415601D02*
D03*
Y401201D02*
D03*
X473201Y466001D02*
D03*
X476801Y401201D02*
D03*
X401201Y480401D02*
D03*
X379601D02*
D03*
X343601D02*
D03*
X293201Y523601D02*
D03*
X278801D02*
D03*
X271601D02*
D03*
X257201D02*
D03*
X250001Y538001D02*
D03*
X178001Y523601D02*
D03*
X170801D02*
D03*
X448001Y300401D02*
D03*
X473201Y307601D02*
D03*
Y278801D02*
D03*
Y264401D02*
D03*
X466001Y293201D02*
D03*
Y278801D02*
D03*
Y264401D02*
D03*
Y250001D02*
D03*
X462401Y300401D02*
D03*
Y286001D02*
D03*
Y271601D02*
D03*
Y257201D02*
D03*
X451601Y307601D02*
D03*
Y278801D02*
D03*
Y264401D02*
D03*
Y250001D02*
D03*
X444401Y293201D02*
D03*
X448001Y271601D02*
D03*
Y257201D02*
D03*
X437201Y307601D02*
D03*
Y278801D02*
D03*
Y250001D02*
D03*
X433601Y300401D02*
D03*
X9450Y448750D02*
D03*
X10670Y19230D02*
D03*
X386159Y293379D02*
D03*
X386650Y280450D02*
D03*
X388779Y269300D02*
D03*
X359600Y66500D02*
D03*
X152394Y128706D02*
D03*
X82550Y92100D02*
D03*
X154500Y141250D02*
D03*
X367450Y117050D02*
D03*
X378600Y175500D02*
D03*
X82200Y133200D02*
D03*
X420850Y246550D02*
D03*
X50980Y19750D02*
D03*
X562750Y496150D02*
D03*
X540150Y473100D02*
D03*
X530950Y496300D02*
D03*
X574500Y473000D02*
D03*
X514550Y496700D02*
D03*
X578850Y496150D02*
D03*
X547150Y496450D02*
D03*
X294000Y194450D02*
D03*
X9400Y260700D02*
D03*
X191400Y217800D02*
D03*
X312250Y398550D02*
D03*
X81100Y485000D02*
D03*
X121200Y184600D02*
D03*
X131300Y218050D02*
D03*
X326300Y247350D02*
D03*
X88900Y169900D02*
D03*
X9550Y432250D02*
D03*
X53950Y273100D02*
D03*
X23800Y348700D02*
D03*
X311000Y348650D02*
D03*
X311850Y388550D02*
D03*
X283200Y174800D02*
D03*
X10150Y288750D02*
D03*
X342361Y465061D02*
D03*
X171350Y218050D02*
D03*
X111200Y184650D02*
D03*
X9850Y278700D02*
D03*
X141700Y218050D02*
D03*
X22400Y236800D02*
D03*
X169050Y186350D02*
D03*
X161400Y218100D02*
D03*
X181350Y186280D02*
D03*
X91250Y219600D02*
D03*
X561100Y281250D02*
D03*
X230600Y405400D02*
D03*
X72450Y398850D02*
D03*
X72200Y416950D02*
D03*
X432400Y410650D02*
D03*
X109500Y276350D02*
D03*
X208450Y366450D02*
D03*
X112468Y568790D02*
D03*
X130118Y568890D02*
D03*
X112950Y537450D02*
D03*
X408200Y487700D02*
D03*
X352750Y475500D02*
D03*
X443600Y487850D02*
D03*
X352750Y487950D02*
D03*
X462350Y487600D02*
D03*
X425250Y475400D02*
D03*
X408200Y475250D02*
D03*
X389850Y487930D02*
D03*
X443600Y475400D02*
D03*
X462350Y475150D02*
D03*
X425250Y487850D02*
D03*
X371100Y488010D02*
D03*
X389880Y475490D02*
D03*
X96000Y265300D02*
D03*
X184600Y336400D02*
D03*
X184700Y361550D02*
D03*
X128200Y359850D02*
D03*
X127900Y341600D02*
D03*
X103550Y142700D02*
D03*
X302600Y105200D02*
D03*
X302850Y90550D02*
D03*
X284500Y84950D02*
D03*
X266600Y90600D02*
D03*
X266950Y105450D02*
D03*
X214050Y105200D02*
D03*
X214450Y91350D02*
D03*
X308750Y458700D02*
D03*
X38350Y206600D02*
D03*
X398250Y452500D02*
D03*
X283450Y161650D02*
D03*
X261700Y157200D02*
D03*
X142300Y183450D02*
D03*
X157050Y174600D02*
D03*
X214529Y156926D02*
D03*
X177800Y174300D02*
D03*
X261200Y174650D02*
D03*
X244200Y174600D02*
D03*
X227450Y174450D02*
D03*
X210400D02*
D03*
X193850Y174300D02*
D03*
X172050Y57700D02*
D03*
X133100Y93400D02*
D03*
X56100Y84450D02*
D03*
X126650Y62150D02*
D03*
X180350Y316600D02*
D03*
X417548Y360150D02*
D03*
X432500Y450450D02*
D03*
X466600Y451175D02*
D03*
X478800Y417150D02*
D03*
X341200Y33700D02*
D03*
X198050Y33800D02*
D03*
X254700Y468500D02*
D03*
X435450Y263900D02*
D03*
X249950Y403600D02*
D03*
X126596Y15387D02*
D03*
X359200Y447400D02*
D03*
X359150Y409550D02*
D03*
X359050Y428550D02*
D03*
X7800Y313000D02*
D03*
X6900Y348300D02*
D03*
X130600Y537550D02*
D03*
X147732Y537560D02*
D03*
X112950Y553250D02*
D03*
X130600Y553350D02*
D03*
X147732Y553360D02*
D03*
X147250Y568900D02*
D03*
X147113Y584420D02*
D03*
X129982Y584410D02*
D03*
X112332Y584310D02*
D03*
X250850Y442250D02*
D03*
X351250Y528650D02*
D03*
X244850Y430700D02*
D03*
M02*
