G04*
G04 #@! TF.GenerationSoftware,Altium Limited,Altium Designer,21.2.0 (30)*
G04*
G04 Layer_Color=8421504*
%FSLAX44Y44*%
%MOMM*%
G71*
G04*
G04 #@! TF.SameCoordinates,3BC8F3D4-7935-4982-82F0-2F2C798F560B*
G04*
G04*
G04 #@! TF.FilePolarity,Positive*
G04*
G01*
G75*
%ADD10C,0.2000*%
%ADD23R,0.8000X1.0000*%
%ADD24R,1.5000X0.7000*%
%ADD25R,1.7000X0.8000*%
%ADD26R,1.7000X1.3000*%
%ADD27R,0.4000X0.6000*%
%ADD28R,0.6000X0.4000*%
%ADD29R,1.0000X1.0000*%
%ADD30C,1.0000*%
%ADD31R,0.9000X1.2000*%
%ADD32R,1.0500X1.2000*%
%ADD33R,0.5500X0.6000*%
%ADD34R,0.9000X0.8000*%
%ADD35R,1.4000X2.0000*%
%ADD36R,3.2000X5.4000*%
%ADD37R,2.5500X2.4500*%
%ADD38R,2.1500X2.4500*%
%ADD39R,2.0000X0.6000*%
%ADD40R,1.1000X1.6000*%
%ADD41R,1.6000X1.1000*%
%ADD42R,0.6000X2.0000*%
G36*
X593200Y507850D02*
X487200D01*
Y592850D01*
X593200D01*
Y507850D01*
D02*
G37*
G36*
X578700Y427850D02*
X569700D01*
Y460850D01*
X578700D01*
Y427850D01*
D02*
G37*
G36*
X561700D02*
X552700D01*
Y460850D01*
X561700D01*
Y427850D01*
D02*
G37*
G36*
X544700D02*
X535700D01*
Y460850D01*
X544700D01*
Y427850D01*
D02*
G37*
G36*
X527700D02*
X518700D01*
Y460850D01*
X527700D01*
Y427850D01*
D02*
G37*
G36*
X510700D02*
X501700D01*
Y460850D01*
X510700D01*
Y427850D01*
D02*
G37*
D10*
X600000Y484950D02*
Y600000D01*
X0D02*
X600000D01*
Y401700D02*
Y484950D01*
X384450Y50D02*
Y236700D01*
X113250Y50D02*
X384450D01*
Y236700D02*
X600000D01*
X0Y0D02*
X113000D01*
X0Y461750D02*
X0Y0D01*
X600000Y236700D02*
Y401700D01*
X0Y461750D02*
Y600000D01*
D23*
X28320Y100350D02*
D03*
X6320Y173350D02*
D03*
X28320D02*
D03*
X6320Y100350D02*
D03*
D24*
X34820Y159350D02*
D03*
Y129350D02*
D03*
Y114350D02*
D03*
D25*
X343850Y195050D02*
D03*
Y229050D02*
D03*
X26150Y44100D02*
D03*
Y78100D02*
D03*
D26*
X82220Y66500D02*
D03*
Y91900D02*
D03*
Y117300D02*
D03*
X339230Y66500D02*
D03*
Y91900D02*
D03*
Y117300D02*
D03*
D27*
X357250Y332200D02*
D03*
X364250D02*
D03*
X307800Y194500D02*
D03*
X314800D02*
D03*
D28*
X46850Y77400D02*
D03*
Y84400D02*
D03*
D29*
X10890Y7370D02*
D03*
X38890D02*
D03*
D30*
X7400Y418600D02*
D03*
X374800Y393100D02*
D03*
X354300Y393200D02*
D03*
X389950Y380250D02*
D03*
X345850Y341050D02*
D03*
X343850Y240750D02*
D03*
X417548Y360150D02*
D03*
X435450Y263900D02*
D03*
X7800Y368800D02*
D03*
X7050Y348400D02*
D03*
X8250Y329250D02*
D03*
X6950Y248650D02*
D03*
X7950Y313050D02*
D03*
D31*
X457550Y450400D02*
D03*
X478550D02*
D03*
X457750Y430200D02*
D03*
X478750D02*
D03*
X420550Y430050D02*
D03*
X441550D02*
D03*
X441500Y410650D02*
D03*
X420500D02*
D03*
X380250Y447350D02*
D03*
X359250D02*
D03*
X359350Y428200D02*
D03*
X380350D02*
D03*
X359150Y409050D02*
D03*
X380150D02*
D03*
X441350Y450450D02*
D03*
X420350D02*
D03*
D32*
X421700Y391350D02*
D03*
X440700D02*
D03*
D33*
X366150Y380300D02*
D03*
X357650D02*
D03*
X384750Y367250D02*
D03*
X376250D02*
D03*
X366100Y354100D02*
D03*
X357600D02*
D03*
D34*
X376550Y297350D02*
D03*
Y316350D02*
D03*
X356550Y306850D02*
D03*
Y274850D02*
D03*
X376550Y284350D02*
D03*
Y265350D02*
D03*
D35*
X402750Y342352D02*
D03*
X438750D02*
D03*
D36*
X475400Y351800D02*
D03*
X576400D02*
D03*
D37*
X501100Y264750D02*
D03*
X561600D02*
D03*
D38*
X458700Y573250D02*
D03*
Y530250D02*
D03*
D39*
X326350Y368700D02*
D03*
Y378700D02*
D03*
X26350Y458700D02*
D03*
Y448700D02*
D03*
Y438700D02*
D03*
Y428700D02*
D03*
Y418700D02*
D03*
X326350Y258700D02*
D03*
X326350Y268700D02*
D03*
Y278700D02*
D03*
Y288700D02*
D03*
Y298700D02*
D03*
Y308700D02*
D03*
Y318700D02*
D03*
Y328700D02*
D03*
Y338700D02*
D03*
Y348700D02*
D03*
Y358700D02*
D03*
Y388700D02*
D03*
Y398700D02*
D03*
Y408700D02*
D03*
Y418700D02*
D03*
X326350Y428700D02*
D03*
X326350Y438700D02*
D03*
Y448700D02*
D03*
Y458700D02*
D03*
X26350Y408700D02*
D03*
Y398700D02*
D03*
Y388700D02*
D03*
Y378700D02*
D03*
Y368700D02*
D03*
Y358700D02*
D03*
Y348700D02*
D03*
Y338700D02*
D03*
Y328700D02*
D03*
Y318700D02*
D03*
Y308700D02*
D03*
Y298700D02*
D03*
Y288700D02*
D03*
Y278700D02*
D03*
Y268700D02*
D03*
Y258700D02*
D03*
Y248700D02*
D03*
D40*
X239350Y233700D02*
D03*
X221350Y233700D02*
D03*
X203350D02*
D03*
X185350D02*
D03*
X167350Y233700D02*
D03*
X149350D02*
D03*
X131350D02*
D03*
X113350Y473700D02*
D03*
X131350D02*
D03*
X149350D02*
D03*
X167350D02*
D03*
X185350D02*
D03*
X203350D02*
D03*
X221350D02*
D03*
X113350Y233700D02*
D03*
X239350Y473700D02*
D03*
D41*
X56350Y290700D02*
D03*
Y308700D02*
D03*
Y326700D02*
D03*
Y344700D02*
D03*
X56350Y362700D02*
D03*
Y380700D02*
D03*
X56350Y398700D02*
D03*
Y416700D02*
D03*
X296350Y308700D02*
D03*
Y326700D02*
D03*
Y344700D02*
D03*
Y362700D02*
D03*
Y380700D02*
D03*
Y398700D02*
D03*
Y416700D02*
D03*
Y290700D02*
D03*
D42*
X281350Y503700D02*
D03*
X271350D02*
D03*
X261350D02*
D03*
X251350D02*
D03*
X241350D02*
D03*
X231350D02*
D03*
X221350D02*
D03*
X211350D02*
D03*
X201350D02*
D03*
X191350D02*
D03*
X181350D02*
D03*
X171350D02*
D03*
X161350D02*
D03*
X151350D02*
D03*
X141350D02*
D03*
X131350D02*
D03*
X121350D02*
D03*
X111350D02*
D03*
X101350Y503700D02*
D03*
X91350Y503700D02*
D03*
X81350D02*
D03*
X71350D02*
D03*
X141350Y203700D02*
D03*
X151350D02*
D03*
X161350D02*
D03*
X171350D02*
D03*
X181350D02*
D03*
X191350D02*
D03*
X201350D02*
D03*
X211350D02*
D03*
X221350D02*
D03*
X231350D02*
D03*
X241350D02*
D03*
X251350D02*
D03*
X261350D02*
D03*
X271350D02*
D03*
X281350D02*
D03*
X71350D02*
D03*
X81350D02*
D03*
X91350D02*
D03*
X101350D02*
D03*
X111350D02*
D03*
X121350D02*
D03*
X131350D02*
D03*
M02*
