G04*
G04 #@! TF.GenerationSoftware,Altium Limited,Altium Designer,21.2.2 (38)*
G04*
G04 Layer_Color=128*
%FSLAX25Y25*%
%MOIN*%
G70*
G04*
G04 #@! TF.SameCoordinates,1EE3EA90-B843-4F6A-96F8-F7B062EE76D3*
G04*
G04*
G04 #@! TF.FilePolarity,Positive*
G04*
G01*
G75*
%ADD15C,0.00787*%
%ADD24R,0.01575X0.02362*%
%ADD29R,0.03543X0.04724*%
%ADD87R,0.09646X0.10039*%
%ADD88R,0.05512X0.05118*%
%ADD89R,0.04724X0.03543*%
%ADD90R,0.07480X0.07087*%
G04:AMPARAMS|DCode=91|XSize=62.99mil|YSize=55.12mil|CornerRadius=13.78mil|HoleSize=0mil|Usage=FLASHONLY|Rotation=180.000|XOffset=0mil|YOffset=0mil|HoleType=Round|Shape=RoundedRectangle|*
%AMROUNDEDRECTD91*
21,1,0.06299,0.02756,0,0,180.0*
21,1,0.03543,0.05512,0,0,180.0*
1,1,0.02756,-0.01772,0.01378*
1,1,0.02756,0.01772,0.01378*
1,1,0.02756,0.01772,-0.01378*
1,1,0.02756,-0.01772,-0.01378*
%
%ADD91ROUNDEDRECTD91*%
%ADD92O,0.01575X0.05315*%
%ADD93R,0.04250X0.01378*%
%ADD94R,0.03150X0.03543*%
%ADD95R,0.01772X0.04134*%
D15*
X236221Y190925D02*
Y236221D01*
X0D02*
X236221D01*
Y158150D02*
Y190925D01*
X151358Y20D02*
Y93189D01*
X44587Y20D02*
X151358D01*
Y93189D02*
X236221D01*
X0Y0D02*
X44488D01*
X0Y181791D02*
X0Y0D01*
X236221Y93189D02*
Y158150D01*
X0Y181791D02*
Y236221D01*
D24*
X111161Y44941D02*
D03*
X113917D02*
D03*
X22854Y81299D02*
D03*
X25610D02*
D03*
D29*
X56083Y125807D02*
D03*
X47815D02*
D03*
X62736Y120098D02*
D03*
X71004D02*
D03*
X70965Y112382D02*
D03*
X62697D02*
D03*
X33652Y117864D02*
D03*
X41919D02*
D03*
X146181Y176299D02*
D03*
X137913D02*
D03*
X146221Y168760D02*
D03*
X137953D02*
D03*
X146142Y161221D02*
D03*
X137874D02*
D03*
X145059Y128130D02*
D03*
X136791D02*
D03*
X145059Y120630D02*
D03*
X136791D02*
D03*
X145000Y112598D02*
D03*
X136732D02*
D03*
X145039Y105098D02*
D03*
X136772D02*
D03*
D87*
X60787Y159941D02*
D03*
Y136122D02*
D03*
X179469Y137382D02*
D03*
Y161201D02*
D03*
X40295Y159902D02*
D03*
Y136083D02*
D03*
X74154Y35453D02*
D03*
Y59272D02*
D03*
X94626Y35571D02*
D03*
Y59390D02*
D03*
D88*
X111417Y51555D02*
D03*
Y57854D02*
D03*
D89*
X124252Y50315D02*
D03*
Y58583D02*
D03*
X19468Y63937D02*
D03*
Y72205D02*
D03*
X19311Y48583D02*
D03*
Y40315D02*
D03*
X44961Y50709D02*
D03*
Y42441D02*
D03*
X52480Y50709D02*
D03*
Y42441D02*
D03*
X59961Y50709D02*
D03*
Y42441D02*
D03*
X49843Y18878D02*
D03*
Y10610D02*
D03*
X37776Y108780D02*
D03*
Y100512D02*
D03*
X51949Y105098D02*
D03*
Y96831D02*
D03*
X117972Y181378D02*
D03*
Y173110D02*
D03*
X91063Y176102D02*
D03*
Y184370D02*
D03*
D90*
X68110Y6752D02*
D03*
X77559D02*
D03*
D91*
X60236Y16398D02*
D03*
X85433D02*
D03*
D92*
X72835Y17284D02*
D03*
X75394D02*
D03*
X77953D02*
D03*
X67716D02*
D03*
X70276D02*
D03*
D93*
X55965Y58091D02*
D03*
Y63209D02*
D03*
X46415D02*
D03*
Y60650D02*
D03*
Y58091D02*
D03*
D94*
X52028Y111161D02*
D03*
X55768Y119035D02*
D03*
X48287D02*
D03*
D95*
X113839Y142205D02*
D03*
X111279D02*
D03*
X108721D02*
D03*
X106161D02*
D03*
X103602D02*
D03*
X101043D02*
D03*
X98484D02*
D03*
X95925D02*
D03*
X93366D02*
D03*
X90807D02*
D03*
X113839Y164055D02*
D03*
X111279D02*
D03*
X108721D02*
D03*
X106161D02*
D03*
X103602D02*
D03*
X101043D02*
D03*
X98484D02*
D03*
X95925D02*
D03*
X93366D02*
D03*
X90807D02*
D03*
M02*
