G04*
G04 #@! TF.GenerationSoftware,Altium Limited,Altium Designer,21.2.0 (30)*
G04*
G04 Layer_Color=32896*
%FSLAX44Y44*%
%MOMM*%
G71*
G04*
G04 #@! TF.SameCoordinates,3BC8F3D4-7935-4982-82F0-2F2C798F560B*
G04*
G04*
G04 #@! TF.FilePolarity,Positive*
G04*
G01*
G75*
%ADD10C,0.2000*%
%ADD11C,0.2500*%
%ADD15C,0.1270*%
%ADD16C,0.1000*%
%ADD17C,0.2540*%
%ADD18C,0.1500*%
%ADD20C,0.1800*%
%ADD110C,0.1524*%
%ADD111R,0.8000X0.3600*%
%ADD112R,0.6750X0.5500*%
G36*
X195657Y232512D02*
Y232083D01*
Y231654D01*
Y231225D01*
Y230797D01*
Y230368D01*
Y229939D01*
X193514D01*
Y230368D01*
Y230797D01*
Y231225D01*
Y231654D01*
Y232083D01*
Y232512D01*
Y232940D01*
X195657D01*
Y232512D01*
D02*
G37*
G36*
X313127D02*
Y232083D01*
Y231654D01*
Y231225D01*
Y230797D01*
Y230368D01*
Y229939D01*
Y229511D01*
Y229082D01*
X309269D01*
Y229511D01*
Y229939D01*
Y230368D01*
Y230797D01*
Y231225D01*
Y231654D01*
Y232083D01*
Y232512D01*
Y232940D01*
X313127D01*
Y232512D01*
D02*
G37*
G36*
X211091D02*
Y232083D01*
Y231654D01*
Y231225D01*
Y230797D01*
Y230368D01*
Y229939D01*
Y229511D01*
Y229082D01*
Y228653D01*
Y228224D01*
Y227796D01*
Y227367D01*
Y226938D01*
Y226510D01*
Y226081D01*
Y225652D01*
Y225223D01*
Y224795D01*
Y224366D01*
Y223937D01*
Y223508D01*
Y223080D01*
Y222651D01*
Y222222D01*
Y221794D01*
Y221365D01*
Y220936D01*
Y220507D01*
Y220079D01*
Y219650D01*
Y219221D01*
Y218793D01*
Y218364D01*
Y217935D01*
Y217506D01*
Y217078D01*
Y216649D01*
Y216220D01*
Y215791D01*
Y215363D01*
Y214934D01*
Y214505D01*
Y214077D01*
Y213648D01*
Y213219D01*
Y212791D01*
Y212362D01*
Y211933D01*
Y211504D01*
X208948D01*
Y211933D01*
Y212362D01*
Y212791D01*
Y213219D01*
Y213648D01*
Y214077D01*
Y214505D01*
Y214934D01*
Y215363D01*
Y215791D01*
Y216220D01*
Y216649D01*
Y217078D01*
Y217506D01*
Y217935D01*
Y218364D01*
Y218793D01*
Y219221D01*
Y219650D01*
Y220079D01*
Y220507D01*
Y220936D01*
Y221365D01*
Y221794D01*
Y222222D01*
Y222651D01*
X208519D01*
Y223080D01*
Y223508D01*
X208090D01*
Y223937D01*
X207662D01*
Y224366D01*
X207233D01*
Y224795D01*
X206375D01*
Y225223D01*
X202946D01*
Y224795D01*
X202517D01*
Y224366D01*
X201660D01*
Y223937D01*
Y223508D01*
X201231D01*
Y223080D01*
Y222651D01*
Y222222D01*
Y221794D01*
Y221365D01*
Y220936D01*
Y220507D01*
Y220079D01*
Y219650D01*
Y219221D01*
Y218793D01*
Y218364D01*
Y217935D01*
Y217506D01*
Y217078D01*
Y216649D01*
Y216220D01*
Y215791D01*
Y215363D01*
Y214934D01*
Y214505D01*
Y214077D01*
Y213648D01*
Y213219D01*
Y212791D01*
Y212362D01*
Y211933D01*
Y211504D01*
X199087D01*
Y211933D01*
Y212362D01*
Y212791D01*
Y213219D01*
Y213648D01*
Y214077D01*
Y214505D01*
Y214934D01*
Y215363D01*
Y215791D01*
Y216220D01*
Y216649D01*
Y217078D01*
Y217506D01*
Y217935D01*
Y218364D01*
Y218793D01*
Y219221D01*
Y219650D01*
Y220079D01*
Y220507D01*
Y220936D01*
Y221365D01*
Y221794D01*
Y222222D01*
Y222651D01*
Y223080D01*
Y223508D01*
Y223937D01*
Y224366D01*
X199516D01*
Y224795D01*
Y225223D01*
X199945D01*
Y225652D01*
X200373D01*
Y226081D01*
X200802D01*
Y226510D01*
X201231D01*
Y226938D01*
X202088D01*
Y227367D01*
X205947D01*
Y226938D01*
X206804D01*
Y226510D01*
X207662D01*
Y226081D01*
X208090D01*
Y225652D01*
X208948D01*
Y226081D01*
Y226510D01*
Y226938D01*
Y227367D01*
Y227796D01*
Y228224D01*
Y228653D01*
Y229082D01*
Y229511D01*
Y229939D01*
Y230368D01*
Y230797D01*
Y231225D01*
Y231654D01*
Y232083D01*
Y232512D01*
Y232940D01*
X211091D01*
Y232512D01*
D02*
G37*
G36*
X236815Y226938D02*
X238101D01*
Y226510D01*
X238958D01*
Y226081D01*
X239387D01*
Y225652D01*
X239816D01*
Y225223D01*
X240244D01*
Y224795D01*
Y224366D01*
X240673D01*
Y223937D01*
Y223508D01*
Y223080D01*
X241102D01*
Y222651D01*
X239387D01*
Y222222D01*
X238958D01*
Y222651D01*
X238529D01*
Y223080D01*
Y223508D01*
X238101D01*
Y223937D01*
Y224366D01*
X237672D01*
Y224795D01*
X236815D01*
Y225223D01*
X232527D01*
Y224795D01*
X231670D01*
Y224366D01*
X231241D01*
Y223937D01*
X230812D01*
Y223508D01*
Y223080D01*
Y222651D01*
X230384D01*
Y222222D01*
Y221794D01*
Y221365D01*
X231241D01*
Y220936D01*
X233814D01*
Y220507D01*
X236815D01*
Y220079D01*
X238529D01*
Y219650D01*
X239387D01*
Y219221D01*
X239816D01*
Y218793D01*
X240244D01*
Y218364D01*
X240673D01*
Y217935D01*
X241102D01*
Y217506D01*
Y217078D01*
Y216649D01*
X241531D01*
Y216220D01*
Y215791D01*
Y215363D01*
Y214934D01*
Y214505D01*
X241102D01*
Y214077D01*
Y213648D01*
X240673D01*
Y213219D01*
Y212791D01*
X240244D01*
Y212362D01*
X239816D01*
Y211933D01*
X238958D01*
Y211504D01*
X237672D01*
Y211076D01*
X235100D01*
Y211504D01*
X233385D01*
Y211933D01*
X232527D01*
Y212362D01*
X232099D01*
Y212791D01*
X231241D01*
Y213219D01*
X230384D01*
Y212791D01*
Y212362D01*
X229955D01*
Y211933D01*
Y211504D01*
X227812D01*
Y211933D01*
Y212362D01*
Y212791D01*
X228240D01*
Y213219D01*
Y213648D01*
Y214077D01*
Y214505D01*
Y214934D01*
Y215363D01*
Y215791D01*
Y216220D01*
Y216649D01*
Y217078D01*
Y217506D01*
Y217935D01*
Y218364D01*
Y218793D01*
Y219221D01*
Y219650D01*
Y220079D01*
Y220507D01*
Y220936D01*
Y221365D01*
Y221794D01*
Y222222D01*
Y222651D01*
Y223080D01*
Y223508D01*
X228669D01*
Y223937D01*
Y224366D01*
Y224795D01*
Y225223D01*
X229098D01*
Y225652D01*
X229526D01*
Y226081D01*
X229955D01*
Y226510D01*
X230384D01*
Y226938D01*
X231670D01*
Y227367D01*
X236815D01*
Y226938D01*
D02*
G37*
G36*
X342280Y232512D02*
Y232083D01*
X341852D01*
Y231654D01*
Y231225D01*
Y230797D01*
X341423D01*
Y230368D01*
Y229939D01*
Y229511D01*
Y229082D01*
Y228653D01*
X340994D01*
Y228224D01*
Y227796D01*
Y227367D01*
Y226938D01*
X340565D01*
Y226510D01*
Y226081D01*
Y225652D01*
Y225223D01*
X340137D01*
Y224795D01*
Y224366D01*
Y223937D01*
Y223508D01*
Y223080D01*
X339708D01*
Y222651D01*
Y222222D01*
Y221794D01*
Y221365D01*
X339279D01*
Y220936D01*
Y220507D01*
Y220079D01*
Y219650D01*
X338850D01*
Y219221D01*
Y218793D01*
Y218364D01*
Y217935D01*
X338422D01*
Y217506D01*
Y217078D01*
Y216649D01*
Y216220D01*
X337993D01*
Y215791D01*
Y215363D01*
Y214934D01*
Y214505D01*
X337564D01*
Y214077D01*
Y213648D01*
Y213219D01*
Y212791D01*
Y212362D01*
X337136D01*
Y211933D01*
Y211504D01*
X332420D01*
Y211933D01*
Y212362D01*
X331991D01*
Y212791D01*
Y213219D01*
Y213648D01*
X331562D01*
Y214077D01*
Y214505D01*
Y214934D01*
Y215363D01*
Y215791D01*
X331133D01*
Y216220D01*
Y216649D01*
Y217078D01*
X330705D01*
Y217506D01*
Y217935D01*
Y218364D01*
Y218793D01*
X330276D01*
Y219221D01*
Y219650D01*
Y220079D01*
Y220507D01*
X329847D01*
Y220936D01*
Y221365D01*
Y221794D01*
X329419D01*
Y222222D01*
Y222651D01*
Y223080D01*
Y223508D01*
X328990D01*
Y223937D01*
Y224366D01*
Y224795D01*
Y225223D01*
X328561D01*
Y225652D01*
Y226081D01*
Y226510D01*
Y226938D01*
X327704D01*
Y226510D01*
Y226081D01*
Y225652D01*
Y225223D01*
X327275D01*
Y224795D01*
Y224366D01*
Y223937D01*
Y223508D01*
X326846D01*
Y223080D01*
Y222651D01*
Y222222D01*
Y221794D01*
X326418D01*
Y221365D01*
Y220936D01*
Y220507D01*
X325989D01*
Y220079D01*
Y219650D01*
Y219221D01*
Y218793D01*
X325560D01*
Y218364D01*
Y217935D01*
Y217506D01*
Y217078D01*
X325131D01*
Y216649D01*
Y216220D01*
Y215791D01*
Y215363D01*
X324703D01*
Y214934D01*
Y214505D01*
Y214077D01*
X324274D01*
Y213648D01*
Y213219D01*
Y212791D01*
Y212362D01*
X323845D01*
Y211933D01*
Y211504D01*
X319129D01*
Y211933D01*
Y212362D01*
Y212791D01*
X318701D01*
Y213219D01*
Y213648D01*
Y214077D01*
Y214505D01*
X318272D01*
Y214934D01*
Y215363D01*
Y215791D01*
Y216220D01*
Y216649D01*
X317843D01*
Y217078D01*
Y217506D01*
Y217935D01*
Y218364D01*
X317414D01*
Y218793D01*
Y219221D01*
Y219650D01*
X316986D01*
Y220079D01*
Y220507D01*
Y220936D01*
Y221365D01*
Y221794D01*
X316557D01*
Y222222D01*
Y222651D01*
Y223080D01*
Y223508D01*
X316128D01*
Y223937D01*
Y224366D01*
Y224795D01*
Y225223D01*
X315699D01*
Y225652D01*
Y226081D01*
Y226510D01*
Y226938D01*
Y227367D01*
X315271D01*
Y227796D01*
Y228224D01*
Y228653D01*
X314842D01*
Y229082D01*
Y229511D01*
Y229939D01*
Y230368D01*
X314413D01*
Y230797D01*
Y231225D01*
Y231654D01*
Y232083D01*
Y232512D01*
X313985D01*
Y232940D01*
X318272D01*
Y232512D01*
X318701D01*
Y232083D01*
Y231654D01*
Y231225D01*
Y230797D01*
X319129D01*
Y230368D01*
Y229939D01*
Y229511D01*
Y229082D01*
Y228653D01*
X319558D01*
Y228224D01*
Y227796D01*
Y227367D01*
Y226938D01*
Y226510D01*
X319987D01*
Y226081D01*
Y225652D01*
Y225223D01*
Y224795D01*
X320415D01*
Y224366D01*
Y223937D01*
Y223508D01*
Y223080D01*
Y222651D01*
X320844D01*
Y222222D01*
Y221794D01*
Y221365D01*
Y220936D01*
X321273D01*
Y220507D01*
Y220079D01*
Y219650D01*
Y219221D01*
X321702D01*
Y218793D01*
X322130D01*
Y219221D01*
Y219650D01*
Y220079D01*
Y220507D01*
X322559D01*
Y220936D01*
Y221365D01*
Y221794D01*
Y222222D01*
X322988D01*
Y222651D01*
Y223080D01*
Y223508D01*
Y223937D01*
X323416D01*
Y224366D01*
Y224795D01*
Y225223D01*
Y225652D01*
X323845D01*
Y226081D01*
Y226510D01*
Y226938D01*
Y227367D01*
X324274D01*
Y227796D01*
Y228224D01*
Y228653D01*
Y229082D01*
X324703D01*
Y229511D01*
Y229939D01*
Y230368D01*
Y230797D01*
X325131D01*
Y231225D01*
Y231654D01*
Y232083D01*
Y232512D01*
X325560D01*
Y232940D01*
X330705D01*
Y232512D01*
Y232083D01*
X331133D01*
Y231654D01*
Y231225D01*
Y230797D01*
Y230368D01*
X331562D01*
Y229939D01*
Y229511D01*
Y229082D01*
Y228653D01*
X331991D01*
Y228224D01*
Y227796D01*
Y227367D01*
X332420D01*
Y226938D01*
Y226510D01*
Y226081D01*
Y225652D01*
X332848D01*
Y225223D01*
Y224795D01*
Y224366D01*
Y223937D01*
X333277D01*
Y223508D01*
Y223080D01*
Y222651D01*
Y222222D01*
X333706D01*
Y221794D01*
Y221365D01*
Y220936D01*
Y220507D01*
X334134D01*
Y220079D01*
Y219650D01*
Y219221D01*
Y218793D01*
X334563D01*
Y219221D01*
X334992D01*
Y219650D01*
Y220079D01*
Y220507D01*
Y220936D01*
Y221365D01*
X335421D01*
Y221794D01*
Y222222D01*
Y222651D01*
Y223080D01*
X335849D01*
Y223508D01*
Y223937D01*
Y224366D01*
Y224795D01*
X336278D01*
Y225223D01*
Y225652D01*
Y226081D01*
Y226510D01*
Y226938D01*
Y227367D01*
X336707D01*
Y227796D01*
Y228224D01*
Y228653D01*
Y229082D01*
X337136D01*
Y229511D01*
Y229939D01*
Y230368D01*
Y230797D01*
X337564D01*
Y231225D01*
Y231654D01*
Y232083D01*
Y232512D01*
Y232940D01*
X342280D01*
Y232512D01*
D02*
G37*
G36*
X264682D02*
Y232083D01*
Y231654D01*
Y231225D01*
Y230797D01*
Y230368D01*
Y229939D01*
Y229511D01*
Y229082D01*
Y228653D01*
Y228224D01*
Y227796D01*
Y227367D01*
Y226938D01*
Y226510D01*
Y226081D01*
Y225652D01*
Y225223D01*
Y224795D01*
Y224366D01*
Y223937D01*
Y223508D01*
Y223080D01*
Y222651D01*
Y222222D01*
Y221794D01*
Y221365D01*
Y220936D01*
Y220507D01*
Y220079D01*
Y219650D01*
Y219221D01*
Y218793D01*
Y218364D01*
Y217935D01*
Y217506D01*
Y217078D01*
Y216649D01*
Y216220D01*
Y215791D01*
Y215363D01*
Y214934D01*
Y214505D01*
Y214077D01*
Y213648D01*
Y213219D01*
Y212791D01*
Y212362D01*
Y211933D01*
Y211504D01*
X261681D01*
Y211933D01*
Y212362D01*
Y212791D01*
Y213219D01*
Y213648D01*
Y214077D01*
Y214505D01*
Y214934D01*
Y215363D01*
Y215791D01*
Y216220D01*
Y216649D01*
Y217078D01*
Y217506D01*
Y217935D01*
Y218364D01*
Y218793D01*
Y219221D01*
Y219650D01*
Y220079D01*
Y220507D01*
Y220936D01*
Y221365D01*
Y221794D01*
Y222222D01*
Y222651D01*
Y223080D01*
Y223508D01*
Y223937D01*
Y224366D01*
Y224795D01*
Y225223D01*
Y225652D01*
Y226081D01*
Y226510D01*
Y226938D01*
Y227367D01*
Y227796D01*
Y228224D01*
Y228653D01*
Y229082D01*
X261252D01*
Y228653D01*
Y228224D01*
Y227796D01*
Y227367D01*
X260823D01*
Y226938D01*
Y226510D01*
X260394D01*
Y226081D01*
Y225652D01*
Y225223D01*
X259966D01*
Y224795D01*
Y224366D01*
Y223937D01*
Y223508D01*
X259537D01*
Y223080D01*
Y222651D01*
X259108D01*
Y222222D01*
Y221794D01*
Y221365D01*
X258679D01*
Y220936D01*
Y220507D01*
Y220079D01*
X258251D01*
Y219650D01*
Y219221D01*
Y218793D01*
X257822D01*
Y218364D01*
Y217935D01*
Y217506D01*
X257393D01*
Y217078D01*
Y216649D01*
Y216220D01*
X256965D01*
Y215791D01*
Y215363D01*
Y214934D01*
X256536D01*
Y214505D01*
Y214077D01*
Y213648D01*
X256107D01*
Y213219D01*
Y212791D01*
Y212362D01*
X255678D01*
Y211933D01*
Y211504D01*
X253106D01*
Y211933D01*
X252677D01*
Y212362D01*
Y212791D01*
Y213219D01*
X252249D01*
Y213648D01*
Y214077D01*
Y214505D01*
X251820D01*
Y214934D01*
Y215363D01*
Y215791D01*
X251391D01*
Y216220D01*
Y216649D01*
Y217078D01*
X250962D01*
Y217506D01*
Y217935D01*
X250534D01*
Y218364D01*
Y218793D01*
Y219221D01*
X250105D01*
Y219650D01*
Y220079D01*
Y220507D01*
X249676D01*
Y220936D01*
Y221365D01*
Y221794D01*
X249248D01*
Y222222D01*
Y222651D01*
Y223080D01*
X248819D01*
Y223508D01*
Y223937D01*
Y224366D01*
X248390D01*
Y224795D01*
Y225223D01*
Y225652D01*
X247961D01*
Y226081D01*
Y226510D01*
Y226938D01*
X247533D01*
Y227367D01*
Y227796D01*
X247104D01*
Y228224D01*
Y228653D01*
X246675D01*
Y228224D01*
Y227796D01*
Y227367D01*
Y226938D01*
Y226510D01*
Y226081D01*
Y225652D01*
Y225223D01*
Y224795D01*
Y224366D01*
Y223937D01*
Y223508D01*
Y223080D01*
Y222651D01*
Y222222D01*
Y221794D01*
Y221365D01*
Y220936D01*
Y220507D01*
Y220079D01*
Y219650D01*
Y219221D01*
Y218793D01*
Y218364D01*
Y217935D01*
Y217506D01*
Y217078D01*
Y216649D01*
Y216220D01*
Y215791D01*
Y215363D01*
Y214934D01*
Y214505D01*
Y214077D01*
Y213648D01*
Y213219D01*
Y212791D01*
Y212362D01*
Y211933D01*
Y211504D01*
X244103D01*
Y211933D01*
Y212362D01*
Y212791D01*
Y213219D01*
Y213648D01*
Y214077D01*
Y214505D01*
Y214934D01*
Y215363D01*
Y215791D01*
Y216220D01*
Y216649D01*
Y217078D01*
Y217506D01*
Y217935D01*
Y218364D01*
Y218793D01*
Y219221D01*
Y219650D01*
Y220079D01*
Y220507D01*
Y220936D01*
Y221365D01*
Y221794D01*
Y222222D01*
Y222651D01*
Y223080D01*
Y223508D01*
Y223937D01*
Y224366D01*
Y224795D01*
Y225223D01*
Y225652D01*
Y226081D01*
Y226510D01*
Y226938D01*
Y227367D01*
Y227796D01*
Y228224D01*
Y228653D01*
Y229082D01*
Y229511D01*
Y229939D01*
Y230368D01*
Y230797D01*
Y231225D01*
Y231654D01*
Y232083D01*
Y232512D01*
Y232940D01*
X247961D01*
Y232512D01*
Y232083D01*
X248390D01*
Y231654D01*
Y231225D01*
Y230797D01*
X248819D01*
Y230368D01*
Y229939D01*
Y229511D01*
X249248D01*
Y229082D01*
Y228653D01*
Y228224D01*
X249676D01*
Y227796D01*
Y227367D01*
X250105D01*
Y226938D01*
Y226510D01*
Y226081D01*
X250534D01*
Y225652D01*
Y225223D01*
Y224795D01*
X250962D01*
Y224366D01*
Y223937D01*
Y223508D01*
X251391D01*
Y223080D01*
Y222651D01*
Y222222D01*
X251820D01*
Y221794D01*
Y221365D01*
Y220936D01*
X252249D01*
Y220507D01*
Y220079D01*
Y219650D01*
X252677D01*
Y219221D01*
Y218793D01*
Y218364D01*
X253106D01*
Y217935D01*
Y217506D01*
Y217078D01*
X253535D01*
Y216649D01*
Y216220D01*
Y215791D01*
X253964D01*
Y215363D01*
Y214934D01*
X254392D01*
Y215363D01*
Y215791D01*
Y216220D01*
X254821D01*
Y216649D01*
Y217078D01*
Y217506D01*
X255250D01*
Y217935D01*
Y218364D01*
Y218793D01*
X255678D01*
Y219221D01*
Y219650D01*
Y220079D01*
X256107D01*
Y220507D01*
Y220936D01*
Y221365D01*
X256536D01*
Y221794D01*
Y222222D01*
Y222651D01*
X256965D01*
Y223080D01*
Y223508D01*
Y223937D01*
X257393D01*
Y224366D01*
Y224795D01*
Y225223D01*
X257822D01*
Y225652D01*
Y226081D01*
Y226510D01*
X258251D01*
Y226938D01*
Y227367D01*
X258679D01*
Y227796D01*
Y228224D01*
Y228653D01*
Y229082D01*
X259108D01*
Y229511D01*
Y229939D01*
Y230368D01*
X259537D01*
Y230797D01*
Y231225D01*
X259966D01*
Y231654D01*
Y232083D01*
Y232512D01*
Y232940D01*
X264682D01*
Y232512D01*
D02*
G37*
G36*
X286546Y226938D02*
X287833D01*
Y226510D01*
X288690D01*
Y226081D01*
X289119D01*
Y225652D01*
X289547D01*
Y225223D01*
X289976D01*
Y224795D01*
X290405D01*
Y224366D01*
Y223937D01*
X290834D01*
Y223508D01*
X291262D01*
Y223080D01*
Y222651D01*
Y222222D01*
X291691D01*
Y221794D01*
Y221365D01*
Y220936D01*
Y220507D01*
Y220079D01*
Y219650D01*
Y219221D01*
Y218793D01*
Y218364D01*
Y217935D01*
Y217506D01*
Y217078D01*
Y216649D01*
Y216220D01*
X291262D01*
Y215791D01*
Y215363D01*
Y214934D01*
X290834D01*
Y214505D01*
X290405D01*
Y214077D01*
Y213648D01*
X289976D01*
Y213219D01*
X289547D01*
Y212791D01*
X289119D01*
Y212362D01*
X288261D01*
Y211933D01*
X287833D01*
Y211504D01*
X286118D01*
Y211076D01*
X282259D01*
Y211504D01*
X280973D01*
Y211933D01*
X280116D01*
Y212362D01*
X279687D01*
Y212791D01*
X279258D01*
Y213219D01*
X278829D01*
Y213648D01*
X278401D01*
Y214077D01*
Y214505D01*
X277972D01*
Y214934D01*
Y215363D01*
X277543D01*
Y215791D01*
X278829D01*
Y216220D01*
X281830D01*
Y215791D01*
Y215363D01*
X282259D01*
Y214934D01*
X282688D01*
Y214505D01*
X283545D01*
Y214077D01*
X284832D01*
Y214505D01*
X286118D01*
Y214934D01*
X286546D01*
Y215363D01*
X286975D01*
Y215791D01*
Y216220D01*
X287404D01*
Y216649D01*
Y217078D01*
Y217506D01*
X287833D01*
Y217935D01*
X277543D01*
Y218364D01*
X277115D01*
Y218793D01*
Y219221D01*
Y219650D01*
Y220079D01*
X277543D01*
Y220507D01*
Y220936D01*
Y221365D01*
Y221794D01*
Y222222D01*
X277972D01*
Y222651D01*
Y223080D01*
Y223508D01*
X278401D01*
Y223937D01*
Y224366D01*
X278829D01*
Y224795D01*
X279258D01*
Y225223D01*
X279687D01*
Y225652D01*
X280116D01*
Y226081D01*
X280544D01*
Y226510D01*
X281402D01*
Y226938D01*
X282688D01*
Y227367D01*
X286546D01*
Y226938D01*
D02*
G37*
G36*
X220952D02*
X222238D01*
Y226510D01*
X222667D01*
Y226081D01*
X223524D01*
Y225652D01*
X223953D01*
Y225223D01*
X224382D01*
Y224795D01*
Y224366D01*
X224810D01*
Y223937D01*
Y223508D01*
X225239D01*
Y223080D01*
Y222651D01*
X225668D01*
Y222222D01*
Y221794D01*
Y221365D01*
Y220936D01*
Y220507D01*
Y220079D01*
Y219650D01*
Y219221D01*
Y218793D01*
Y218364D01*
Y217935D01*
Y217506D01*
Y217078D01*
Y216649D01*
Y216220D01*
X225239D01*
Y215791D01*
Y215363D01*
Y214934D01*
X224810D01*
Y214505D01*
Y214077D01*
X224382D01*
Y213648D01*
X223953D01*
Y213219D01*
X223524D01*
Y212791D01*
X223095D01*
Y212362D01*
X222667D01*
Y211933D01*
X221809D01*
Y211504D01*
X220095D01*
Y211076D01*
X217951D01*
Y211504D01*
X216236D01*
Y211933D01*
X215807D01*
Y212362D01*
X214950D01*
Y212791D01*
X214521D01*
Y213219D01*
X214092D01*
Y213648D01*
X213664D01*
Y214077D01*
Y214505D01*
X213235D01*
Y214934D01*
Y215363D01*
X212806D01*
Y215791D01*
Y216220D01*
Y216649D01*
Y217078D01*
X214950D01*
Y216649D01*
Y216220D01*
Y215791D01*
X215379D01*
Y215363D01*
Y214934D01*
X215807D01*
Y214505D01*
X216236D01*
Y214077D01*
X216665D01*
Y213648D01*
X217951D01*
Y213219D01*
X220095D01*
Y213648D01*
X221381D01*
Y214077D01*
X221809D01*
Y214505D01*
X222238D01*
Y214934D01*
X222667D01*
Y215363D01*
Y215791D01*
X223095D01*
Y216220D01*
Y216649D01*
X223524D01*
Y217078D01*
Y217506D01*
Y217935D01*
Y218364D01*
Y218793D01*
Y219221D01*
Y219650D01*
Y220079D01*
Y220507D01*
Y220936D01*
Y221365D01*
Y221794D01*
X223095D01*
Y222222D01*
Y222651D01*
Y223080D01*
X222667D01*
Y223508D01*
X222238D01*
Y223937D01*
Y224366D01*
X221381D01*
Y224795D01*
X220523D01*
Y225223D01*
X217093D01*
Y224795D01*
X216665D01*
Y224366D01*
X216236D01*
Y223937D01*
X215807D01*
Y223508D01*
X215379D01*
Y223080D01*
Y222651D01*
X214950D01*
Y222222D01*
X213235D01*
Y222651D01*
X212806D01*
Y223080D01*
X213235D01*
Y223508D01*
Y223937D01*
X213664D01*
Y224366D01*
Y224795D01*
X214092D01*
Y225223D01*
Y225652D01*
X214521D01*
Y226081D01*
X215379D01*
Y226510D01*
X215807D01*
Y226938D01*
X217093D01*
Y227367D01*
X220952D01*
Y226938D01*
D02*
G37*
G36*
X170363D02*
X171649D01*
Y226510D01*
X172506D01*
Y226081D01*
X172935D01*
Y225652D01*
X173364D01*
Y225223D01*
X173792D01*
Y224795D01*
X174221D01*
Y224366D01*
X174650D01*
Y223937D01*
Y223508D01*
Y223080D01*
X175079D01*
Y222651D01*
Y222222D01*
Y221794D01*
X175507D01*
Y221365D01*
Y220936D01*
Y220507D01*
Y220079D01*
Y219650D01*
Y219221D01*
Y218793D01*
Y218364D01*
Y217935D01*
Y217506D01*
Y217078D01*
Y216649D01*
X175079D01*
Y216220D01*
Y215791D01*
Y215363D01*
X174650D01*
Y214934D01*
Y214505D01*
X174221D01*
Y214077D01*
Y213648D01*
X173792D01*
Y213219D01*
X173364D01*
Y212791D01*
X172935D01*
Y212362D01*
X172078D01*
Y211933D01*
X171220D01*
Y211504D01*
X169934D01*
Y211076D01*
X166933D01*
Y211504D01*
X165647D01*
Y211933D01*
X164789D01*
Y212362D01*
X163932D01*
Y212791D01*
X163503D01*
Y213219D01*
X163074D01*
Y213648D01*
X162646D01*
Y214077D01*
Y214505D01*
X162217D01*
Y214934D01*
Y215363D01*
X161788D01*
Y215791D01*
Y216220D01*
X164361D01*
Y215791D01*
Y215363D01*
X164789D01*
Y214934D01*
X165218D01*
Y214505D01*
X165647D01*
Y214077D01*
X166075D01*
Y213648D01*
X167362D01*
Y213219D01*
X169505D01*
Y213648D01*
X170791D01*
Y214077D01*
X171220D01*
Y214505D01*
X171649D01*
Y214934D01*
X172078D01*
Y215363D01*
X172506D01*
Y215791D01*
X172935D01*
Y216220D01*
Y216649D01*
Y217078D01*
Y217506D01*
X173364D01*
Y217935D01*
Y218364D01*
X172935D01*
Y218793D01*
X161788D01*
Y219221D01*
Y219650D01*
Y220079D01*
Y220507D01*
Y220936D01*
Y221365D01*
Y221794D01*
Y222222D01*
X162217D01*
Y222651D01*
Y223080D01*
Y223508D01*
X162646D01*
Y223937D01*
Y224366D01*
X163074D01*
Y224795D01*
X163503D01*
Y225223D01*
X163932D01*
Y225652D01*
X164361D01*
Y226081D01*
X164789D01*
Y226510D01*
X165218D01*
Y226938D01*
X166504D01*
Y227367D01*
X170363D01*
Y226938D01*
D02*
G37*
G36*
X313127Y226510D02*
Y226081D01*
Y225652D01*
Y225223D01*
Y224795D01*
Y224366D01*
Y223937D01*
Y223508D01*
Y223080D01*
Y222651D01*
Y222222D01*
Y221794D01*
Y221365D01*
Y220936D01*
Y220507D01*
Y220079D01*
Y219650D01*
Y219221D01*
Y218793D01*
Y218364D01*
Y217935D01*
Y217506D01*
Y217078D01*
Y216649D01*
Y216220D01*
Y215791D01*
Y215363D01*
Y214934D01*
Y214505D01*
Y214077D01*
Y213648D01*
Y213219D01*
Y212791D01*
Y212362D01*
Y211933D01*
Y211504D01*
X309269D01*
Y211933D01*
Y212362D01*
Y212791D01*
Y213219D01*
Y213648D01*
Y214077D01*
Y214505D01*
Y214934D01*
Y215363D01*
Y215791D01*
Y216220D01*
Y216649D01*
Y217078D01*
Y217506D01*
Y217935D01*
Y218364D01*
Y218793D01*
Y219221D01*
Y219650D01*
Y220079D01*
Y220507D01*
Y220936D01*
Y221365D01*
Y221794D01*
Y222222D01*
Y222651D01*
Y223080D01*
Y223508D01*
Y223937D01*
Y224366D01*
Y224795D01*
Y225223D01*
Y225652D01*
Y226081D01*
Y226510D01*
Y226938D01*
X313127D01*
Y226510D01*
D02*
G37*
G36*
X269398Y226938D02*
X269826D01*
Y226510D01*
X270684D01*
Y226081D01*
Y225652D01*
X271112D01*
Y225223D01*
X271541D01*
Y225652D01*
Y226081D01*
Y226510D01*
Y226938D01*
X275400D01*
Y226510D01*
Y226081D01*
Y225652D01*
Y225223D01*
Y224795D01*
Y224366D01*
Y223937D01*
Y223508D01*
Y223080D01*
Y222651D01*
Y222222D01*
Y221794D01*
Y221365D01*
Y220936D01*
Y220507D01*
Y220079D01*
Y219650D01*
Y219221D01*
Y218793D01*
Y218364D01*
Y217935D01*
Y217506D01*
Y217078D01*
Y216649D01*
Y216220D01*
Y215791D01*
Y215363D01*
Y214934D01*
Y214505D01*
Y214077D01*
Y213648D01*
Y213219D01*
Y212791D01*
Y212362D01*
Y211933D01*
Y211504D01*
X271112D01*
Y211933D01*
Y212362D01*
Y212791D01*
Y213219D01*
Y213648D01*
Y214077D01*
Y214505D01*
Y214934D01*
Y215363D01*
Y215791D01*
Y216220D01*
Y216649D01*
Y217078D01*
Y217506D01*
Y217935D01*
Y218364D01*
Y218793D01*
Y219221D01*
Y219650D01*
Y220079D01*
Y220507D01*
Y220936D01*
Y221365D01*
X270684D01*
Y221794D01*
Y222222D01*
Y222651D01*
X270255D01*
Y223080D01*
X269826D01*
Y223508D01*
X268540D01*
Y223937D01*
X268111D01*
Y223508D01*
X266825D01*
Y223080D01*
X266396D01*
Y223508D01*
Y223937D01*
X265968D01*
Y224366D01*
Y224795D01*
Y225223D01*
X265539D01*
Y225652D01*
Y226081D01*
X265110D01*
Y226510D01*
X265539D01*
Y226938D01*
X266396D01*
Y227367D01*
X269398D01*
Y226938D01*
D02*
G37*
G36*
X195657Y226510D02*
Y226081D01*
Y225652D01*
Y225223D01*
Y224795D01*
Y224366D01*
Y223937D01*
Y223508D01*
Y223080D01*
Y222651D01*
Y222222D01*
Y221794D01*
Y221365D01*
Y220936D01*
Y220507D01*
Y220079D01*
Y219650D01*
Y219221D01*
Y218793D01*
Y218364D01*
Y217935D01*
Y217506D01*
Y217078D01*
Y216649D01*
Y216220D01*
Y215791D01*
Y215363D01*
Y214934D01*
Y214505D01*
Y214077D01*
Y213648D01*
Y213219D01*
Y212791D01*
Y212362D01*
Y211933D01*
Y211504D01*
X193514D01*
Y211933D01*
Y212362D01*
Y212791D01*
Y213219D01*
Y213648D01*
Y214077D01*
Y214505D01*
Y214934D01*
Y215363D01*
Y215791D01*
Y216220D01*
Y216649D01*
Y217078D01*
Y217506D01*
Y217935D01*
Y218364D01*
Y218793D01*
Y219221D01*
Y219650D01*
Y220079D01*
Y220507D01*
Y220936D01*
Y221365D01*
Y221794D01*
Y222222D01*
Y222651D01*
Y223080D01*
Y223508D01*
Y223937D01*
Y224366D01*
Y224795D01*
Y225223D01*
Y225652D01*
Y226081D01*
Y226510D01*
Y226938D01*
X195657D01*
Y226510D01*
D02*
G37*
G36*
X184939Y226938D02*
X185797D01*
Y226510D01*
X186654D01*
Y226081D01*
X187083D01*
Y225652D01*
X187512D01*
Y225223D01*
X188369D01*
Y225652D01*
Y226081D01*
Y226510D01*
Y226938D01*
X190084D01*
Y226510D01*
Y226081D01*
Y225652D01*
Y225223D01*
Y224795D01*
Y224366D01*
Y223937D01*
Y223508D01*
Y223080D01*
Y222651D01*
Y222222D01*
Y221794D01*
Y221365D01*
Y220936D01*
Y220507D01*
Y220079D01*
Y219650D01*
Y219221D01*
Y218793D01*
Y218364D01*
Y217935D01*
Y217506D01*
Y217078D01*
Y216649D01*
Y216220D01*
Y215791D01*
Y215363D01*
Y214934D01*
Y214505D01*
Y214077D01*
Y213648D01*
Y213219D01*
Y212791D01*
Y212362D01*
Y211933D01*
Y211504D01*
X187940D01*
Y211933D01*
Y212362D01*
Y212791D01*
Y213219D01*
Y213648D01*
Y214077D01*
Y214505D01*
Y214934D01*
Y215363D01*
Y215791D01*
Y216220D01*
Y216649D01*
Y217078D01*
Y217506D01*
Y217935D01*
Y218364D01*
Y218793D01*
Y219221D01*
Y219650D01*
Y220079D01*
Y220507D01*
Y220936D01*
Y221365D01*
Y221794D01*
Y222222D01*
Y222651D01*
X187512D01*
Y223080D01*
Y223508D01*
X187083D01*
Y223937D01*
X186654D01*
Y224366D01*
X186225D01*
Y224795D01*
X184939D01*
Y225223D01*
X182367D01*
Y224795D01*
X181509D01*
Y224366D01*
X181081D01*
Y223937D01*
X180652D01*
Y223508D01*
Y223080D01*
X180223D01*
Y222651D01*
Y222222D01*
Y221794D01*
Y221365D01*
Y220936D01*
Y220507D01*
Y220079D01*
Y219650D01*
Y219221D01*
Y218793D01*
Y218364D01*
Y217935D01*
Y217506D01*
Y217078D01*
Y216649D01*
Y216220D01*
Y215791D01*
Y215363D01*
Y214934D01*
Y214505D01*
Y214077D01*
Y213648D01*
Y213219D01*
Y212791D01*
Y212362D01*
Y211933D01*
Y211504D01*
X178080D01*
Y211933D01*
Y212362D01*
Y212791D01*
Y213219D01*
Y213648D01*
Y214077D01*
Y214505D01*
Y214934D01*
Y215363D01*
Y215791D01*
Y216220D01*
Y216649D01*
Y217078D01*
Y217506D01*
Y217935D01*
Y218364D01*
Y218793D01*
Y219221D01*
Y219650D01*
Y220079D01*
Y220507D01*
Y220936D01*
Y221365D01*
Y221794D01*
Y222222D01*
Y222651D01*
Y223080D01*
Y223508D01*
Y223937D01*
Y224366D01*
X178508D01*
Y224795D01*
Y225223D01*
X178937D01*
Y225652D01*
X179366D01*
Y226081D01*
X179795D01*
Y226510D01*
X180223D01*
Y226938D01*
X181509D01*
Y227367D01*
X184939D01*
Y226938D01*
D02*
G37*
G36*
X302838D02*
X304553D01*
Y226510D01*
X304981D01*
Y226081D01*
X305839D01*
Y225652D01*
Y225223D01*
X306268D01*
Y224795D01*
X306696D01*
Y224366D01*
Y223937D01*
X307125D01*
Y223508D01*
Y223080D01*
Y222651D01*
Y222222D01*
Y221794D01*
Y221365D01*
X306696D01*
Y220936D01*
Y220507D01*
X306268D01*
Y220079D01*
X305839D01*
Y219650D01*
X305410D01*
Y219221D01*
X304981D01*
Y218793D01*
X304124D01*
Y218364D01*
X302838D01*
Y217935D01*
X301552D01*
Y217506D01*
X299837D01*
Y217078D01*
X298122D01*
Y216649D01*
X297264D01*
Y216220D01*
Y215791D01*
Y215363D01*
Y214934D01*
X297693D01*
Y214505D01*
X298551D01*
Y214077D01*
X301552D01*
Y214505D01*
X302409D01*
Y214934D01*
X302838D01*
Y215363D01*
X303267D01*
Y215791D01*
Y216220D01*
X306696D01*
Y215791D01*
X307554D01*
Y215363D01*
Y214934D01*
X307125D01*
Y214505D01*
Y214077D01*
X306696D01*
Y213648D01*
X306268D01*
Y213219D01*
X305839D01*
Y212791D01*
X305410D01*
Y212362D01*
X304553D01*
Y211933D01*
X303695D01*
Y211504D01*
X302409D01*
Y211076D01*
X298122D01*
Y211504D01*
X296407D01*
Y211933D01*
X295550D01*
Y212362D01*
X295121D01*
Y212791D01*
X294692D01*
Y213219D01*
X294263D01*
Y213648D01*
X293835D01*
Y214077D01*
X293406D01*
Y214505D01*
Y214934D01*
Y215363D01*
X292977D01*
Y215791D01*
Y216220D01*
Y216649D01*
Y217078D01*
Y217506D01*
X293406D01*
Y217935D01*
Y218364D01*
X293835D01*
Y218793D01*
Y219221D01*
X294263D01*
Y219650D01*
X295121D01*
Y220079D01*
X295978D01*
Y220507D01*
X296836D01*
Y220936D01*
X298551D01*
Y221365D01*
X300266D01*
Y221794D01*
X301980D01*
Y222222D01*
X302838D01*
Y222651D01*
X303267D01*
Y223080D01*
Y223508D01*
X302838D01*
Y223937D01*
X302409D01*
Y224366D01*
X298551D01*
Y223937D01*
X298122D01*
Y223508D01*
X297693D01*
Y223080D01*
Y222651D01*
X296407D01*
Y223080D01*
X293835D01*
Y223508D01*
Y223937D01*
Y224366D01*
X294263D01*
Y224795D01*
Y225223D01*
X294692D01*
Y225652D01*
X295121D01*
Y226081D01*
X295550D01*
Y226510D01*
X296407D01*
Y226938D01*
X297693D01*
Y227367D01*
X302838D01*
Y226938D01*
D02*
G37*
G36*
X156215D02*
X157501D01*
Y226510D01*
X158358D01*
Y226081D01*
X158787D01*
Y225652D01*
X159216D01*
Y225223D01*
Y224795D01*
X159645D01*
Y224366D01*
Y223937D01*
Y223508D01*
Y223080D01*
Y222651D01*
Y222222D01*
Y221794D01*
Y221365D01*
X159216D01*
Y220936D01*
Y220507D01*
X158787D01*
Y220079D01*
X158358D01*
Y219650D01*
X157501D01*
Y219221D01*
X156644D01*
Y218793D01*
X155358D01*
Y218364D01*
X153643D01*
Y217935D01*
X151928D01*
Y217506D01*
X151070D01*
Y217078D01*
X150213D01*
Y216649D01*
Y216220D01*
Y215791D01*
Y215363D01*
Y214934D01*
Y214505D01*
X150642D01*
Y214077D01*
X151070D01*
Y213648D01*
X152785D01*
Y213219D01*
X154929D01*
Y213648D01*
X156215D01*
Y214077D01*
X157072D01*
Y214505D01*
X157501D01*
Y214934D01*
Y215363D01*
X157930D01*
Y215791D01*
Y216220D01*
Y216649D01*
X158787D01*
Y216220D01*
X160073D01*
Y215791D01*
Y215363D01*
Y214934D01*
Y214505D01*
X159645D01*
Y214077D01*
Y213648D01*
X159216D01*
Y213219D01*
X158787D01*
Y212791D01*
X158358D01*
Y212362D01*
X157930D01*
Y211933D01*
X157072D01*
Y211504D01*
X155358D01*
Y211076D01*
X152356D01*
Y211504D01*
X151070D01*
Y211933D01*
X150213D01*
Y212362D01*
X149355D01*
Y212791D01*
X148927D01*
Y213219D01*
X148498D01*
Y213648D01*
Y214077D01*
X148069D01*
Y214505D01*
Y214934D01*
Y215363D01*
X147640D01*
Y215791D01*
Y216220D01*
Y216649D01*
Y217078D01*
X148069D01*
Y217506D01*
Y217935D01*
Y218364D01*
X148498D01*
Y218793D01*
X148927D01*
Y219221D01*
X149355D01*
Y219650D01*
X150642D01*
Y220079D01*
X151499D01*
Y220507D01*
X153214D01*
Y220936D01*
X154929D01*
Y221365D01*
X156215D01*
Y221794D01*
X157072D01*
Y222222D01*
X157501D01*
Y222651D01*
Y223080D01*
Y223508D01*
Y223937D01*
Y224366D01*
X157072D01*
Y224795D01*
X156215D01*
Y225223D01*
X152356D01*
Y224795D01*
X151499D01*
Y224366D01*
X151070D01*
Y223937D01*
X150642D01*
Y223508D01*
Y223080D01*
X148498D01*
Y223508D01*
Y223937D01*
Y224366D01*
X148927D01*
Y224795D01*
Y225223D01*
X149355D01*
Y225652D01*
Y226081D01*
X150213D01*
Y226510D01*
X150642D01*
Y226938D01*
X151928D01*
Y227367D01*
X156215D01*
Y226938D01*
D02*
G37*
G36*
X179663Y205422D02*
X180928D01*
Y204789D01*
Y204156D01*
X181561D01*
Y203523D01*
Y202890D01*
Y202258D01*
Y201625D01*
Y200992D01*
Y200359D01*
Y199726D01*
Y199094D01*
X182194D01*
Y198461D01*
Y197828D01*
Y197195D01*
Y196562D01*
Y195930D01*
Y195297D01*
Y194664D01*
X181561D01*
Y194031D01*
X180295D01*
Y194664D01*
X179663D01*
Y195297D01*
Y195930D01*
Y196562D01*
X179030D01*
Y197195D01*
Y197828D01*
Y198461D01*
Y199094D01*
Y199726D01*
Y200359D01*
Y200992D01*
Y201625D01*
Y202258D01*
Y202890D01*
X178397D01*
Y202258D01*
Y201625D01*
X177764D01*
Y200992D01*
Y200359D01*
Y199726D01*
X177131D01*
Y199094D01*
Y198461D01*
Y197828D01*
Y197195D01*
Y196562D01*
Y195930D01*
X176499D01*
Y195297D01*
X175233D01*
Y194664D01*
X173967D01*
Y195297D01*
X172702D01*
Y195930D01*
X172069D01*
Y196562D01*
Y197195D01*
Y197828D01*
X171436D01*
Y198461D01*
Y199094D01*
Y199726D01*
Y200359D01*
Y200992D01*
X170803D01*
Y201625D01*
Y202258D01*
X170170D01*
Y201625D01*
Y200992D01*
Y200359D01*
X169538D01*
Y199726D01*
Y199094D01*
Y198461D01*
Y197828D01*
Y197195D01*
Y196562D01*
Y195930D01*
Y195297D01*
X168905D01*
Y194664D01*
X168272D01*
Y194031D01*
X167006D01*
Y194664D01*
X166374D01*
Y195297D01*
X167006D01*
Y195930D01*
Y196562D01*
Y197195D01*
Y197828D01*
Y198461D01*
Y199094D01*
Y199726D01*
Y200359D01*
Y200992D01*
Y201625D01*
Y202258D01*
X167639D01*
Y202890D01*
Y203523D01*
Y204156D01*
Y204789D01*
Y205422D01*
X168905D01*
Y206054D01*
X171436D01*
Y205422D01*
X172702D01*
Y204789D01*
Y204156D01*
Y203523D01*
X173335D01*
Y202890D01*
Y202258D01*
Y201625D01*
Y200992D01*
Y200359D01*
X173967D01*
Y199726D01*
Y199094D01*
Y198461D01*
X174600D01*
Y199094D01*
X175233D01*
Y199726D01*
Y200359D01*
Y200992D01*
Y201625D01*
Y202258D01*
Y202890D01*
X175866D01*
Y203523D01*
Y204156D01*
Y204789D01*
X176499D01*
Y205422D01*
X177131D01*
Y206054D01*
X179663D01*
Y205422D01*
D02*
G37*
G36*
X191053D02*
X191686D01*
Y204789D01*
Y204156D01*
X191053D01*
Y203523D01*
X188522D01*
Y202890D01*
Y202258D01*
Y201625D01*
Y200992D01*
Y200359D01*
Y199726D01*
Y199094D01*
Y198461D01*
Y197828D01*
Y197195D01*
Y196562D01*
Y195930D01*
Y195297D01*
Y194664D01*
X187889D01*
Y194031D01*
X185991D01*
Y194664D01*
X185358D01*
Y195297D01*
Y195930D01*
Y196562D01*
Y197195D01*
Y197828D01*
Y198461D01*
Y199094D01*
Y199726D01*
Y200359D01*
Y200992D01*
Y201625D01*
Y202258D01*
Y202890D01*
Y203523D01*
X182194D01*
Y204156D01*
Y204789D01*
X181561D01*
Y205422D01*
X182194D01*
Y206054D01*
X191053D01*
Y205422D01*
D02*
G37*
G36*
X291669Y199726D02*
X294833D01*
Y199094D01*
X296731D01*
Y198461D01*
X297364D01*
Y197828D01*
X297997D01*
Y197195D01*
X298630D01*
Y196562D01*
Y195930D01*
X299263D01*
Y195297D01*
Y194664D01*
Y194031D01*
X299895D01*
Y193398D01*
Y192766D01*
Y192133D01*
Y191500D01*
Y190867D01*
Y190234D01*
Y189602D01*
Y188969D01*
Y188336D01*
Y187703D01*
Y187070D01*
Y186437D01*
Y185805D01*
X299263D01*
Y185172D01*
Y184539D01*
Y183906D01*
X298630D01*
Y183274D01*
Y182641D01*
X297997D01*
Y182008D01*
X297364D01*
Y181375D01*
X296731D01*
Y180742D01*
X295466D01*
Y180110D01*
X291669D01*
Y179477D01*
X287872D01*
Y180110D01*
X284708D01*
Y180742D01*
X283443D01*
Y181375D01*
Y182008D01*
X282810D01*
Y182641D01*
Y183274D01*
Y183906D01*
X283443D01*
Y183274D01*
X293567D01*
Y183906D01*
X294200D01*
Y184539D01*
X294833D01*
Y185172D01*
Y185805D01*
X295466D01*
Y186437D01*
Y187070D01*
Y187703D01*
Y188336D01*
Y188969D01*
X282177D01*
Y189602D01*
X281544D01*
Y190234D01*
Y190867D01*
Y191500D01*
Y192133D01*
Y192766D01*
Y193398D01*
Y194031D01*
X282177D01*
Y194664D01*
Y195297D01*
Y195930D01*
Y196562D01*
X282810D01*
Y197195D01*
Y197828D01*
X283443D01*
Y198461D01*
X284075D01*
Y199094D01*
X285341D01*
Y199726D01*
X288505D01*
Y200359D01*
X291669D01*
Y199726D01*
D02*
G37*
G36*
X248006D02*
X251169D01*
Y199094D01*
X252435D01*
Y198461D01*
X253701D01*
Y197828D01*
X254334D01*
Y197195D01*
X254966D01*
Y196562D01*
Y195930D01*
X255599D01*
Y195297D01*
Y194664D01*
Y194031D01*
X256232D01*
Y193398D01*
Y192766D01*
Y192133D01*
Y191500D01*
Y190867D01*
Y190234D01*
Y189602D01*
Y188969D01*
Y188336D01*
Y187703D01*
Y187070D01*
Y186437D01*
Y185805D01*
Y185172D01*
X255599D01*
Y184539D01*
Y183906D01*
Y183274D01*
X254966D01*
Y182641D01*
X254334D01*
Y182008D01*
X253701D01*
Y181375D01*
X253068D01*
Y180742D01*
X251802D01*
Y180110D01*
X248638D01*
Y179477D01*
X244841D01*
Y180110D01*
X241677D01*
Y180742D01*
X241045D01*
Y181375D01*
X240412D01*
Y182008D01*
Y182641D01*
X239779D01*
Y183274D01*
X240412D01*
Y183906D01*
X241045D01*
Y183274D01*
X249904D01*
Y183906D01*
X250537D01*
Y184539D01*
X251169D01*
Y185172D01*
X251802D01*
Y185805D01*
Y186437D01*
Y187070D01*
Y187703D01*
Y188336D01*
Y188969D01*
Y189602D01*
Y190234D01*
Y190867D01*
Y191500D01*
Y192133D01*
Y192766D01*
Y193398D01*
Y194031D01*
Y194664D01*
X251169D01*
Y195297D01*
X250537D01*
Y195930D01*
X249904D01*
Y196562D01*
X240412D01*
Y197195D01*
X239779D01*
Y197828D01*
Y198461D01*
X240412D01*
Y199094D01*
X241045D01*
Y199726D01*
X244209D01*
Y200359D01*
X248006D01*
Y199726D01*
D02*
G37*
G36*
X322677Y205422D02*
X323942D01*
Y204789D01*
Y204156D01*
Y203523D01*
Y202890D01*
Y202258D01*
Y201625D01*
Y200992D01*
Y200359D01*
Y199726D01*
Y199094D01*
Y198461D01*
Y197828D01*
Y197195D01*
Y196562D01*
Y195930D01*
Y195297D01*
Y194664D01*
Y194031D01*
Y193398D01*
Y192766D01*
Y192133D01*
Y191500D01*
Y190867D01*
Y190234D01*
Y189602D01*
Y188969D01*
Y188336D01*
Y187703D01*
Y187070D01*
Y186437D01*
Y185805D01*
Y185172D01*
Y184539D01*
Y183906D01*
Y183274D01*
Y182641D01*
Y182008D01*
Y181375D01*
X323309D01*
Y180742D01*
X322677D01*
Y180110D01*
X311919D01*
Y180742D01*
X307489D01*
Y181375D01*
X306224D01*
Y182008D01*
X305591D01*
Y182641D01*
X304958D01*
Y183274D01*
Y183906D01*
X304325D01*
Y184539D01*
Y185172D01*
Y185805D01*
X303692D01*
Y186437D01*
Y187070D01*
Y187703D01*
Y188336D01*
Y188969D01*
Y189602D01*
Y190234D01*
X304325D01*
Y190867D01*
Y191500D01*
X304958D01*
Y192133D01*
Y192766D01*
X305591D01*
Y193398D01*
X306224D01*
Y194031D01*
Y194664D01*
Y195297D01*
X305591D01*
Y195930D01*
Y196562D01*
X304958D01*
Y197195D01*
Y197828D01*
Y198461D01*
X304325D01*
Y199094D01*
Y199726D01*
Y200359D01*
Y200992D01*
X304958D01*
Y201625D01*
Y202258D01*
Y202890D01*
X305591D01*
Y203523D01*
Y204156D01*
X306224D01*
Y204789D01*
X307489D01*
Y205422D01*
X311286D01*
Y206054D01*
X322677D01*
Y205422D01*
D02*
G37*
G36*
X206240Y199726D02*
X212568D01*
Y199094D01*
Y198461D01*
Y197828D01*
Y197195D01*
Y196562D01*
Y195930D01*
Y195297D01*
Y194664D01*
Y194031D01*
Y193398D01*
Y192766D01*
Y192133D01*
Y191500D01*
Y190867D01*
Y190234D01*
Y189602D01*
Y188969D01*
Y188336D01*
Y187703D01*
Y187070D01*
Y186437D01*
Y185805D01*
Y185172D01*
Y184539D01*
Y183906D01*
Y183274D01*
Y182641D01*
Y182008D01*
Y181375D01*
Y180742D01*
X211936D01*
Y180110D01*
X208772D01*
Y180742D01*
X208139D01*
Y181375D01*
Y182008D01*
Y182641D01*
Y183274D01*
Y183906D01*
Y184539D01*
Y185172D01*
Y185805D01*
Y186437D01*
Y187070D01*
Y187703D01*
Y188336D01*
Y188969D01*
Y189602D01*
Y190234D01*
Y190867D01*
Y191500D01*
Y192133D01*
Y192766D01*
Y193398D01*
Y194031D01*
Y194664D01*
Y195297D01*
Y195930D01*
Y196562D01*
X199912D01*
Y195930D01*
X199279D01*
Y195297D01*
Y194664D01*
Y194031D01*
Y193398D01*
Y192766D01*
Y192133D01*
Y191500D01*
Y190867D01*
Y190234D01*
Y189602D01*
Y188969D01*
Y188336D01*
Y187703D01*
Y187070D01*
Y186437D01*
Y185805D01*
Y185172D01*
Y184539D01*
Y183906D01*
Y183274D01*
Y182641D01*
Y182008D01*
Y181375D01*
Y180742D01*
X198014D01*
Y180110D01*
X195483D01*
Y180742D01*
X194850D01*
Y181375D01*
Y182008D01*
Y182641D01*
Y183274D01*
Y183906D01*
Y184539D01*
Y185172D01*
Y185805D01*
Y186437D01*
Y187070D01*
Y187703D01*
Y188336D01*
Y188969D01*
Y189602D01*
Y190234D01*
Y190867D01*
Y191500D01*
Y192133D01*
Y192766D01*
Y193398D01*
Y194031D01*
Y194664D01*
Y195297D01*
Y195930D01*
Y196562D01*
X195483D01*
Y197195D01*
Y197828D01*
X196115D01*
Y198461D01*
X196748D01*
Y199094D01*
X198014D01*
Y199726D01*
X201178D01*
Y200359D01*
X206240D01*
Y199726D01*
D02*
G37*
G36*
X271419D02*
X275216D01*
Y199094D01*
X276482D01*
Y198461D01*
Y197828D01*
X277115D01*
Y197195D01*
Y196562D01*
X266357D01*
Y195930D01*
X265724D01*
Y195297D01*
Y194664D01*
Y194031D01*
Y193398D01*
Y192766D01*
Y192133D01*
Y191500D01*
X273318D01*
Y190867D01*
X276482D01*
Y190234D01*
X277115D01*
Y189602D01*
X277747D01*
Y188969D01*
Y188336D01*
X278380D01*
Y187703D01*
Y187070D01*
Y186437D01*
Y185805D01*
Y185172D01*
Y184539D01*
Y183906D01*
X277747D01*
Y183274D01*
Y182641D01*
Y182008D01*
X277115D01*
Y181375D01*
X276482D01*
Y180742D01*
X275216D01*
Y180110D01*
X271419D01*
Y179477D01*
X266357D01*
Y180110D01*
X261294D01*
Y180742D01*
Y181375D01*
Y182008D01*
Y182641D01*
Y183274D01*
Y183906D01*
Y184539D01*
Y185172D01*
Y185805D01*
Y186437D01*
Y187070D01*
Y187703D01*
Y188336D01*
Y188969D01*
Y189602D01*
Y190234D01*
Y190867D01*
Y191500D01*
Y192133D01*
Y192766D01*
Y193398D01*
Y194031D01*
Y194664D01*
Y195297D01*
Y195930D01*
Y196562D01*
X261927D01*
Y197195D01*
Y197828D01*
X262560D01*
Y198461D01*
X263193D01*
Y199094D01*
X263826D01*
Y199726D01*
X266990D01*
Y200359D01*
X271419D01*
Y199726D01*
D02*
G37*
G36*
X228389D02*
X232185D01*
Y199094D01*
X233451D01*
Y198461D01*
X234084D01*
Y197828D01*
X234717D01*
Y197195D01*
X235349D01*
Y196562D01*
X235982D01*
Y195930D01*
Y195297D01*
Y194664D01*
X236615D01*
Y194031D01*
Y193398D01*
Y192766D01*
Y192133D01*
X237248D01*
Y191500D01*
Y190867D01*
Y190234D01*
Y189602D01*
Y188969D01*
Y188336D01*
Y187703D01*
X236615D01*
Y187070D01*
Y186437D01*
Y185805D01*
Y185172D01*
Y184539D01*
X235982D01*
Y183906D01*
Y183274D01*
X235349D01*
Y182641D01*
X234717D01*
Y182008D01*
X234084D01*
Y181375D01*
X233451D01*
Y180742D01*
X232185D01*
Y180110D01*
X229021D01*
Y179477D01*
X225857D01*
Y180110D01*
X222693D01*
Y180742D01*
X221428D01*
Y181375D01*
X220162D01*
Y182008D01*
X219529D01*
Y182641D01*
Y183274D01*
X218897D01*
Y183906D01*
X218264D01*
Y184539D01*
Y185172D01*
Y185805D01*
X217631D01*
Y186437D01*
Y187070D01*
Y187703D01*
Y188336D01*
Y188969D01*
Y189602D01*
Y190234D01*
Y190867D01*
Y191500D01*
Y192133D01*
Y192766D01*
Y193398D01*
Y194031D01*
Y194664D01*
X218264D01*
Y195297D01*
Y195930D01*
Y196562D01*
X218897D01*
Y197195D01*
Y197828D01*
X219529D01*
Y198461D01*
X220162D01*
Y199094D01*
X222061D01*
Y199726D01*
X225224D01*
Y200359D01*
X228389D01*
Y199726D01*
D02*
G37*
G36*
X345196Y71039D02*
X349324D01*
Y70580D01*
X352076D01*
Y70121D01*
X353452D01*
Y69663D01*
X354828D01*
Y69204D01*
X356204D01*
Y68745D01*
X357122D01*
Y68287D01*
X358039D01*
Y67828D01*
X358956D01*
Y67369D01*
X359874D01*
Y66911D01*
X360791D01*
Y66452D01*
X361250D01*
Y65993D01*
X362167D01*
Y65534D01*
X362626D01*
Y65076D01*
X363543D01*
Y64617D01*
X364002D01*
Y64158D01*
X364461D01*
Y63700D01*
X364919D01*
Y63241D01*
X365378D01*
Y62782D01*
X366295D01*
Y62324D01*
X366754D01*
Y61865D01*
X367213D01*
Y61406D01*
X367672D01*
Y60947D01*
X368130D01*
Y60489D01*
Y60030D01*
X368589D01*
Y59571D01*
X369048D01*
Y59113D01*
X369506D01*
Y58654D01*
X369965D01*
Y58195D01*
Y57737D01*
X370424D01*
Y57278D01*
X370882D01*
Y56819D01*
Y56361D01*
X371341D01*
Y55902D01*
X371800D01*
Y55443D01*
Y54985D01*
X372258D01*
Y54526D01*
Y54067D01*
X372717D01*
Y53608D01*
Y53150D01*
X373176D01*
Y52691D01*
Y52232D01*
X373634D01*
Y51774D01*
Y51315D01*
X374093D01*
Y50856D01*
Y50398D01*
X374552D01*
Y49939D01*
Y49480D01*
Y49022D01*
X375010D01*
Y48563D01*
Y48104D01*
Y47646D01*
Y47187D01*
X375469D01*
Y46728D01*
Y46269D01*
Y45811D01*
Y45352D01*
X375928D01*
Y44893D01*
Y44435D01*
Y43976D01*
Y43517D01*
Y43059D01*
Y42600D01*
Y42141D01*
X376387D01*
Y41683D01*
Y41224D01*
Y40765D01*
Y40307D01*
Y39848D01*
Y39389D01*
Y38930D01*
Y38472D01*
Y38013D01*
Y37554D01*
Y37096D01*
Y36637D01*
Y36178D01*
Y35720D01*
Y35261D01*
X375928D01*
Y34802D01*
Y34344D01*
Y33885D01*
Y33426D01*
Y32968D01*
Y32509D01*
X375469D01*
Y32050D01*
Y31591D01*
Y31133D01*
Y30674D01*
Y30215D01*
X375010D01*
Y29757D01*
Y29298D01*
Y28839D01*
X374552D01*
Y28381D01*
Y27922D01*
Y27463D01*
X374093D01*
Y27005D01*
Y26546D01*
X373634D01*
Y26087D01*
Y25628D01*
Y25170D01*
X373176D01*
Y24711D01*
Y24253D01*
X372717D01*
Y23794D01*
Y23335D01*
X372258D01*
Y22876D01*
Y22418D01*
X371800D01*
Y21959D01*
X371341D01*
Y21500D01*
Y21042D01*
X370882D01*
Y20583D01*
X370424D01*
Y20124D01*
Y19666D01*
X369965D01*
Y19207D01*
X369506D01*
Y18748D01*
X369048D01*
Y18290D01*
Y17831D01*
X368589D01*
Y17372D01*
X368130D01*
Y16913D01*
X367672D01*
Y16455D01*
X367213D01*
Y15996D01*
X366754D01*
Y15537D01*
X366295D01*
Y15079D01*
X365837D01*
Y14620D01*
X365378D01*
Y14161D01*
X364919D01*
Y13703D01*
X364002D01*
Y13244D01*
X363543D01*
Y12785D01*
X363085D01*
Y12327D01*
X362167D01*
Y11868D01*
X361708D01*
Y11409D01*
X360791D01*
Y10950D01*
X360332D01*
Y10492D01*
X359415D01*
Y10033D01*
X358498D01*
Y9574D01*
X357580D01*
Y9116D01*
X356204D01*
Y8657D01*
X355287D01*
Y8198D01*
X353911D01*
Y7740D01*
X352535D01*
Y7281D01*
X350241D01*
Y6822D01*
X347489D01*
Y6364D01*
X340150D01*
Y6822D01*
X337398D01*
Y7281D01*
X335105D01*
Y7740D01*
X333728D01*
Y8198D01*
X332352D01*
Y8657D01*
X330976D01*
Y9116D01*
X330059D01*
Y9574D01*
X329142D01*
Y10033D01*
X328224D01*
Y10492D01*
X327307D01*
Y10950D01*
X326848D01*
Y11409D01*
X326390D01*
Y11868D01*
X326848D01*
Y12327D01*
X328683D01*
Y12785D01*
X330059D01*
Y12327D01*
X330518D01*
Y11868D01*
X331435D01*
Y11409D01*
X332811D01*
Y10950D01*
X333728D01*
Y10492D01*
X335563D01*
Y10033D01*
X337398D01*
Y9574D01*
X340150D01*
Y9116D01*
X347489D01*
Y9574D01*
X350241D01*
Y10033D01*
X352076D01*
Y10492D01*
X353452D01*
Y10950D01*
X354828D01*
Y11409D01*
X355746D01*
Y11868D01*
X356663D01*
Y12327D01*
X357580D01*
Y12785D01*
X358498D01*
Y13244D01*
X359415D01*
Y13703D01*
X360332D01*
Y14161D01*
X360791D01*
Y14620D01*
X361250D01*
Y15079D01*
X362167D01*
Y15537D01*
X362626D01*
Y15996D01*
X363085D01*
Y16455D01*
X363543D01*
Y16913D01*
X364002D01*
Y17372D01*
X364461D01*
Y17831D01*
X364919D01*
Y18290D01*
X365378D01*
Y18748D01*
X365837D01*
Y19207D01*
X366295D01*
Y19666D01*
X366754D01*
Y20124D01*
X367213D01*
Y20583D01*
X367672D01*
Y21042D01*
Y21500D01*
X368130D01*
Y21959D01*
X368589D01*
Y22418D01*
X369048D01*
Y22876D01*
Y23335D01*
X369506D01*
Y23794D01*
Y24253D01*
X369965D01*
Y24711D01*
Y25170D01*
X370424D01*
Y25628D01*
Y26087D01*
X370882D01*
Y26546D01*
Y27005D01*
X371341D01*
Y27463D01*
Y27922D01*
X371800D01*
Y28381D01*
Y28839D01*
Y29298D01*
X372258D01*
Y29757D01*
Y30215D01*
Y30674D01*
X372717D01*
Y31133D01*
Y31591D01*
Y32050D01*
Y32509D01*
X373176D01*
Y32968D01*
Y33426D01*
Y33885D01*
Y34344D01*
Y34802D01*
Y35261D01*
X373634D01*
Y35720D01*
Y36178D01*
Y36637D01*
Y37096D01*
Y37554D01*
Y38013D01*
Y38472D01*
Y38930D01*
Y39389D01*
Y39848D01*
Y40307D01*
Y40765D01*
Y41224D01*
Y41683D01*
Y42141D01*
Y42600D01*
X373176D01*
Y43059D01*
Y43517D01*
Y43976D01*
Y44435D01*
Y44893D01*
Y45352D01*
X372717D01*
Y45811D01*
Y46269D01*
Y46728D01*
Y47187D01*
X372258D01*
Y47646D01*
Y48104D01*
Y48563D01*
X371800D01*
Y49022D01*
Y49480D01*
Y49939D01*
X371341D01*
Y50398D01*
Y50856D01*
X370882D01*
Y51315D01*
Y51774D01*
X370424D01*
Y52232D01*
Y52691D01*
X369965D01*
Y53150D01*
Y53608D01*
X369506D01*
Y54067D01*
Y54526D01*
X369048D01*
Y54985D01*
X368589D01*
Y55443D01*
Y55902D01*
X368130D01*
Y56361D01*
X367672D01*
Y56819D01*
X367213D01*
Y57278D01*
Y57737D01*
X366754D01*
Y58195D01*
X366295D01*
Y58654D01*
X365837D01*
Y59113D01*
X365378D01*
Y59571D01*
X364919D01*
Y60030D01*
X364461D01*
Y60489D01*
X364002D01*
Y60947D01*
X363543D01*
Y61406D01*
X363085D01*
Y61865D01*
X362626D01*
Y62324D01*
X361708D01*
Y62782D01*
X361250D01*
Y63241D01*
X360791D01*
Y63700D01*
X359874D01*
Y64158D01*
X358956D01*
Y64617D01*
X358498D01*
Y65076D01*
X357580D01*
Y65534D01*
X356663D01*
Y65993D01*
X355746D01*
Y66452D01*
X354370D01*
Y66911D01*
X352994D01*
Y67369D01*
X351617D01*
Y67828D01*
X349324D01*
Y68287D01*
X346113D01*
Y68745D01*
X341985D01*
Y68287D01*
X338315D01*
Y67828D01*
X336481D01*
Y67369D01*
X334646D01*
Y66911D01*
X333270D01*
Y66452D01*
X332352D01*
Y65993D01*
X331435D01*
Y65534D01*
X330518D01*
Y65076D01*
X329600D01*
Y64617D01*
X329142D01*
Y64158D01*
Y63700D01*
X329600D01*
Y63241D01*
X330518D01*
Y62782D01*
X330976D01*
Y62324D01*
X331435D01*
Y61865D01*
X331894D01*
Y61406D01*
X332352D01*
Y60947D01*
X332811D01*
Y60489D01*
X333270D01*
Y60030D01*
X333728D01*
Y59571D01*
X334646D01*
Y59113D01*
X335105D01*
Y58654D01*
X335563D01*
Y58195D01*
X336022D01*
Y57737D01*
X336481D01*
Y57278D01*
X336939D01*
Y56819D01*
X337398D01*
Y56361D01*
X337857D01*
Y55902D01*
X338315D01*
Y55443D01*
X339233D01*
Y54985D01*
X339692D01*
Y54526D01*
X340150D01*
Y54067D01*
X340609D01*
Y53608D01*
X341068D01*
Y53150D01*
X341526D01*
Y52691D01*
X341985D01*
Y52232D01*
X342444D01*
Y51774D01*
X342902D01*
Y51315D01*
X343361D01*
Y50856D01*
X343820D01*
Y50398D01*
X344278D01*
Y49939D01*
X344737D01*
Y49480D01*
X345196D01*
Y49022D01*
X345654D01*
Y48563D01*
X346113D01*
Y48104D01*
X346572D01*
Y47646D01*
X347030D01*
Y47187D01*
X347489D01*
Y46728D01*
X347948D01*
Y46269D01*
X348407D01*
Y45811D01*
X348865D01*
Y45352D01*
X349324D01*
Y44893D01*
Y44435D01*
X349783D01*
Y43976D01*
X350241D01*
Y43517D01*
X350700D01*
Y43059D01*
Y42600D01*
X351617D01*
Y43059D01*
X352076D01*
Y43517D01*
X352535D01*
Y43976D01*
X352994D01*
Y44435D01*
X353452D01*
Y44893D01*
X353911D01*
Y45352D01*
X354370D01*
Y45811D01*
X354828D01*
Y46269D01*
X355287D01*
Y46728D01*
X355746D01*
Y47187D01*
X356204D01*
Y47646D01*
X356663D01*
Y48104D01*
X357122D01*
Y48563D01*
X357580D01*
Y49022D01*
X358039D01*
Y49480D01*
Y49939D01*
X358498D01*
Y50398D01*
X358956D01*
Y50856D01*
X359415D01*
Y51315D01*
X359874D01*
Y51774D01*
X360332D01*
Y52232D01*
X360791D01*
Y52691D01*
X361250D01*
Y53150D01*
X361708D01*
Y53608D01*
X362167D01*
Y54067D01*
X362626D01*
Y54526D01*
X363085D01*
Y54985D01*
X363543D01*
Y55443D01*
X364002D01*
Y55902D01*
X364919D01*
Y55443D01*
Y54985D01*
Y54526D01*
Y54067D01*
Y53608D01*
Y53150D01*
Y52691D01*
Y52232D01*
Y51774D01*
Y51315D01*
X365378D01*
Y50856D01*
Y50398D01*
Y49939D01*
Y49480D01*
Y49022D01*
Y48563D01*
Y48104D01*
Y47646D01*
Y47187D01*
Y46728D01*
X365837D01*
Y46269D01*
Y45811D01*
Y45352D01*
Y44893D01*
Y44435D01*
Y43976D01*
Y43517D01*
Y43059D01*
Y42600D01*
Y42141D01*
Y41683D01*
Y41224D01*
X366295D01*
Y40765D01*
Y40307D01*
Y39848D01*
Y39389D01*
X365837D01*
Y38930D01*
X365378D01*
Y38472D01*
X364919D01*
Y38013D01*
X364461D01*
Y37554D01*
X364002D01*
Y37096D01*
X363543D01*
Y36637D01*
X363085D01*
Y36178D01*
X362626D01*
Y35720D01*
X362167D01*
Y35261D01*
X361708D01*
Y34802D01*
X361250D01*
Y34344D01*
X360791D01*
Y33885D01*
X360332D01*
Y33426D01*
X359874D01*
Y32968D01*
X359415D01*
Y32509D01*
X358956D01*
Y32050D01*
X358498D01*
Y31591D01*
X358039D01*
Y31133D01*
Y30674D01*
X357580D01*
Y30215D01*
X357122D01*
Y29757D01*
X356663D01*
Y29298D01*
X356204D01*
Y28839D01*
Y28381D01*
X355746D01*
Y27922D01*
X355287D01*
Y27463D01*
Y27005D01*
X354828D01*
Y26546D01*
X354370D01*
Y26087D01*
Y25628D01*
X353911D01*
Y25170D01*
X353452D01*
Y24711D01*
Y24253D01*
X352994D01*
Y23794D01*
Y23335D01*
X352535D01*
Y22876D01*
Y22418D01*
X352076D01*
Y21959D01*
X351617D01*
Y21500D01*
Y21042D01*
Y20583D01*
X351159D01*
Y20124D01*
Y19666D01*
X350700D01*
Y19207D01*
Y18748D01*
X350241D01*
Y18290D01*
Y17831D01*
X349783D01*
Y17372D01*
Y16913D01*
Y16455D01*
X349324D01*
Y16913D01*
X348865D01*
Y17372D01*
Y17831D01*
Y18290D01*
Y18748D01*
Y19207D01*
X348407D01*
Y19666D01*
Y20124D01*
Y20583D01*
Y21042D01*
X347948D01*
Y21500D01*
Y21959D01*
Y22418D01*
X347489D01*
Y22876D01*
Y23335D01*
Y23794D01*
X347030D01*
Y24253D01*
Y24711D01*
Y25170D01*
X346572D01*
Y25628D01*
Y26087D01*
X346113D01*
Y26546D01*
Y27005D01*
Y27463D01*
X345654D01*
Y27922D01*
Y28381D01*
X345196D01*
Y28839D01*
Y29298D01*
X344737D01*
Y29757D01*
Y30215D01*
X344278D01*
Y30674D01*
Y31133D01*
X343820D01*
Y31591D01*
Y32050D01*
X343361D01*
Y32509D01*
X342902D01*
Y32968D01*
Y33426D01*
X342444D01*
Y33885D01*
Y34344D01*
X341985D01*
Y34802D01*
X341526D01*
Y35261D01*
Y35720D01*
X341068D01*
Y36178D01*
X340609D01*
Y36637D01*
X340150D01*
Y37096D01*
Y37554D01*
X339692D01*
Y38013D01*
X339233D01*
Y38472D01*
X338774D01*
Y38930D01*
Y39389D01*
X338315D01*
Y39848D01*
X337857D01*
Y40307D01*
X337398D01*
Y40765D01*
X336939D01*
Y41224D01*
X336481D01*
Y41683D01*
X336022D01*
Y42141D01*
Y42600D01*
X335563D01*
Y43059D01*
X335105D01*
Y43517D01*
X334646D01*
Y43976D01*
X334187D01*
Y44435D01*
X333728D01*
Y44893D01*
X333270D01*
Y45352D01*
X332811D01*
Y45811D01*
X331894D01*
Y46269D01*
X331435D01*
Y46728D01*
X330976D01*
Y47187D01*
X330518D01*
Y47646D01*
X330059D01*
Y48104D01*
X329600D01*
Y48563D01*
X328683D01*
Y49022D01*
X328224D01*
Y49480D01*
X327766D01*
Y49939D01*
X326848D01*
Y50398D01*
X326390D01*
Y50856D01*
X325931D01*
Y51315D01*
X325013D01*
Y51774D01*
X324555D01*
Y52232D01*
X323637D01*
Y52691D01*
X323179D01*
Y53150D01*
X322261D01*
Y53608D01*
X321344D01*
Y54067D01*
X320885D01*
Y54526D01*
X319968D01*
Y54985D01*
X318592D01*
Y54526D01*
Y54067D01*
X318133D01*
Y53608D01*
Y53150D01*
X317674D01*
Y52691D01*
Y52232D01*
X317216D01*
Y51774D01*
Y51315D01*
X316757D01*
Y50856D01*
Y50398D01*
X316298D01*
Y49939D01*
Y49480D01*
X315840D01*
Y49022D01*
Y48563D01*
Y48104D01*
X315381D01*
Y47646D01*
Y47187D01*
Y46728D01*
Y46269D01*
X314922D01*
Y45811D01*
Y45352D01*
Y44893D01*
Y44435D01*
X314464D01*
Y43976D01*
Y43517D01*
Y43059D01*
Y42600D01*
Y42141D01*
Y41683D01*
Y41224D01*
X314005D01*
Y40765D01*
X312170D01*
Y41224D01*
X311712D01*
Y41683D01*
Y42141D01*
Y42600D01*
Y43059D01*
Y43517D01*
Y43976D01*
Y44435D01*
X312170D01*
Y44893D01*
Y45352D01*
Y45811D01*
Y46269D01*
Y46728D01*
X312629D01*
Y47187D01*
Y47646D01*
Y48104D01*
X313088D01*
Y48563D01*
Y49022D01*
Y49480D01*
Y49939D01*
X313546D01*
Y50398D01*
Y50856D01*
X314005D01*
Y51315D01*
Y51774D01*
X314464D01*
Y52232D01*
Y52691D01*
Y53150D01*
X314922D01*
Y53608D01*
Y54067D01*
X315381D01*
Y54526D01*
Y54985D01*
X315840D01*
Y55443D01*
X316298D01*
Y55902D01*
Y56361D01*
Y56819D01*
X315840D01*
Y57278D01*
X314922D01*
Y57737D01*
X314005D01*
Y58195D01*
X312629D01*
Y58654D01*
X311712D01*
Y59113D01*
X310794D01*
Y59571D01*
X309877D01*
Y60030D01*
X308501D01*
Y60489D01*
X308959D01*
Y60947D01*
X309418D01*
Y61406D01*
X309877D01*
Y61865D01*
X310335D01*
Y62324D01*
X310794D01*
Y62782D01*
X311253D01*
Y63241D01*
X311712D01*
Y63700D01*
X312170D01*
Y64158D01*
X312629D01*
Y64617D01*
X313088D01*
Y65076D01*
X313546D01*
Y65534D01*
X314464D01*
Y65993D01*
X314922D01*
Y66452D01*
X315381D01*
Y66911D01*
X315840D01*
Y67369D01*
X316298D01*
Y67828D01*
X316757D01*
Y68287D01*
X317216D01*
Y68745D01*
X317674D01*
Y69204D01*
X318133D01*
Y69663D01*
X318592D01*
Y70121D01*
X319051D01*
Y70580D01*
X319509D01*
Y71039D01*
X320427D01*
Y71497D01*
X320885D01*
Y71039D01*
X321344D01*
Y70580D01*
X321803D01*
Y70121D01*
X322261D01*
Y69663D01*
X322720D01*
Y69204D01*
X323179D01*
Y68745D01*
X324096D01*
Y68287D01*
X324555D01*
Y67828D01*
X325013D01*
Y67369D01*
X325472D01*
Y66911D01*
X325931D01*
Y66452D01*
X327307D01*
Y66911D01*
X327766D01*
Y67369D01*
X328683D01*
Y67828D01*
X329600D01*
Y68287D01*
X330976D01*
Y68745D01*
X331894D01*
Y69204D01*
X332811D01*
Y69663D01*
X334187D01*
Y70121D01*
X336022D01*
Y70580D01*
X338315D01*
Y71039D01*
X342444D01*
Y71497D01*
X345196D01*
Y71039D01*
D02*
G37*
G36*
X297492Y43059D02*
Y42600D01*
Y42141D01*
Y41683D01*
Y41224D01*
Y40765D01*
Y40307D01*
Y39848D01*
Y39389D01*
Y38930D01*
Y38472D01*
Y38013D01*
Y37554D01*
Y37096D01*
Y36637D01*
Y36178D01*
Y35720D01*
Y35261D01*
Y34802D01*
Y34344D01*
Y33885D01*
Y33426D01*
Y32968D01*
Y32509D01*
Y32050D01*
Y31591D01*
Y31133D01*
Y30674D01*
Y30215D01*
Y29757D01*
Y29298D01*
Y28839D01*
Y28381D01*
Y27922D01*
Y27463D01*
Y27005D01*
Y26546D01*
Y26087D01*
X297033D01*
Y25628D01*
X292447D01*
Y26087D01*
X291988D01*
Y26546D01*
Y27005D01*
Y27463D01*
Y27922D01*
Y28381D01*
Y28839D01*
Y29298D01*
Y29757D01*
Y30215D01*
Y30674D01*
Y31133D01*
Y31591D01*
Y32050D01*
Y32509D01*
Y32968D01*
X286025D01*
Y32509D01*
Y32050D01*
Y31591D01*
Y31133D01*
Y30674D01*
Y30215D01*
Y29757D01*
Y29298D01*
Y28839D01*
Y28381D01*
Y27922D01*
Y27463D01*
Y27005D01*
Y26546D01*
Y26087D01*
X285566D01*
Y25628D01*
X280521D01*
Y26087D01*
Y26546D01*
Y27005D01*
Y27463D01*
Y27922D01*
Y28381D01*
Y28839D01*
Y29298D01*
Y29757D01*
Y30215D01*
Y30674D01*
Y31133D01*
Y31591D01*
Y32050D01*
Y32509D01*
Y32968D01*
Y33426D01*
Y33885D01*
Y34344D01*
Y34802D01*
Y35261D01*
Y35720D01*
Y36178D01*
Y36637D01*
Y37096D01*
Y37554D01*
Y38013D01*
Y38472D01*
Y38930D01*
Y39389D01*
Y39848D01*
Y40307D01*
Y40765D01*
Y41224D01*
Y41683D01*
Y42141D01*
Y42600D01*
Y43059D01*
Y43517D01*
X286025D01*
Y43059D01*
Y42600D01*
Y42141D01*
Y41683D01*
Y41224D01*
Y40765D01*
Y40307D01*
Y39848D01*
Y39389D01*
Y38930D01*
Y38472D01*
Y38013D01*
Y37554D01*
Y37096D01*
X291988D01*
Y37554D01*
Y38013D01*
Y38472D01*
Y38930D01*
Y39389D01*
Y39848D01*
Y40307D01*
Y40765D01*
Y41224D01*
Y41683D01*
Y42141D01*
Y42600D01*
Y43059D01*
Y43517D01*
X297492D01*
Y43059D01*
D02*
G37*
G36*
X332352D02*
Y42600D01*
Y42141D01*
Y41683D01*
Y41224D01*
Y40765D01*
Y40307D01*
Y39848D01*
Y39389D01*
Y38930D01*
Y38472D01*
Y38013D01*
Y37554D01*
Y37096D01*
Y36637D01*
Y36178D01*
Y35720D01*
Y35261D01*
Y34802D01*
Y34344D01*
Y33885D01*
Y33426D01*
Y32968D01*
Y32509D01*
Y32050D01*
Y31591D01*
Y31133D01*
Y30674D01*
Y30215D01*
Y29757D01*
Y29298D01*
Y28839D01*
Y28381D01*
Y27922D01*
Y27463D01*
Y27005D01*
Y26546D01*
Y26087D01*
Y25628D01*
X327307D01*
Y26087D01*
X326848D01*
Y26546D01*
Y27005D01*
Y27463D01*
Y27922D01*
Y28381D01*
Y28839D01*
Y29298D01*
Y29757D01*
Y30215D01*
Y30674D01*
Y31133D01*
Y31591D01*
Y32050D01*
Y32509D01*
Y32968D01*
X325472D01*
Y32509D01*
X325013D01*
Y32050D01*
X324555D01*
Y31591D01*
X324096D01*
Y31133D01*
Y30674D01*
X323637D01*
Y30215D01*
Y29757D01*
X323179D01*
Y29298D01*
Y28839D01*
X322720D01*
Y28381D01*
Y27922D01*
X322261D01*
Y27463D01*
X321803D01*
Y27005D01*
Y26546D01*
X321344D01*
Y26087D01*
X320885D01*
Y25628D01*
X315381D01*
Y26087D01*
Y26546D01*
Y27005D01*
X315840D01*
Y27463D01*
Y27922D01*
X316298D01*
Y28381D01*
Y28839D01*
X316757D01*
Y29298D01*
X317216D01*
Y29757D01*
Y30215D01*
X317674D01*
Y30674D01*
Y31133D01*
X318133D01*
Y31591D01*
Y32050D01*
X318592D01*
Y32509D01*
X319051D01*
Y32968D01*
X319968D01*
Y33426D01*
X320427D01*
Y33885D01*
X319051D01*
Y34344D01*
X318592D01*
Y34802D01*
X317674D01*
Y35261D01*
Y35720D01*
X317216D01*
Y36178D01*
X316757D01*
Y36637D01*
Y37096D01*
Y37554D01*
Y38013D01*
X316298D01*
Y38472D01*
Y38930D01*
X316757D01*
Y39389D01*
Y39848D01*
Y40307D01*
Y40765D01*
X317216D01*
Y41224D01*
Y41683D01*
X317674D01*
Y42141D01*
X318133D01*
Y42600D01*
X319051D01*
Y43059D01*
X320427D01*
Y43517D01*
X332352D01*
Y43059D01*
D02*
G37*
G36*
X309418Y38472D02*
X310794D01*
Y38013D01*
X311712D01*
Y37554D01*
X312629D01*
Y37096D01*
X313088D01*
Y36637D01*
X313546D01*
Y36178D01*
Y35720D01*
X314005D01*
Y35261D01*
X314464D01*
Y34802D01*
Y34344D01*
Y33885D01*
Y33426D01*
X314922D01*
Y32968D01*
Y32509D01*
Y32050D01*
Y31591D01*
Y31133D01*
Y30674D01*
X314464D01*
Y30215D01*
Y29757D01*
Y29298D01*
X314005D01*
Y28839D01*
Y28381D01*
X313546D01*
Y27922D01*
X313088D01*
Y27463D01*
X312629D01*
Y27005D01*
X312170D01*
Y26546D01*
X311253D01*
Y26087D01*
X309877D01*
Y25628D01*
X304831D01*
Y26087D01*
X303455D01*
Y26546D01*
X302996D01*
Y27005D01*
X302079D01*
Y27463D01*
X301620D01*
Y27922D01*
Y28381D01*
X301162D01*
Y28839D01*
X300703D01*
Y29298D01*
Y29757D01*
Y30215D01*
X300244D01*
Y30674D01*
Y31133D01*
Y31591D01*
Y32050D01*
Y32509D01*
Y32968D01*
Y33426D01*
Y33885D01*
Y34344D01*
X300703D01*
Y34802D01*
Y35261D01*
Y35720D01*
X301162D01*
Y36178D01*
X301620D01*
Y36637D01*
X302079D01*
Y37096D01*
X302538D01*
Y37554D01*
X302996D01*
Y38013D01*
X303914D01*
Y38472D01*
X305290D01*
Y38930D01*
X309418D01*
Y38472D01*
D02*
G37*
G36*
X270888Y43517D02*
X273640D01*
Y43059D01*
X274558D01*
Y42600D01*
X275016D01*
Y42141D01*
X275934D01*
Y41683D01*
Y41224D01*
X276392D01*
Y40765D01*
X276851D01*
Y40307D01*
Y39848D01*
Y39389D01*
Y38930D01*
X277310D01*
Y38472D01*
X276851D01*
Y38013D01*
Y37554D01*
Y37096D01*
Y36637D01*
X276392D01*
Y36178D01*
Y35720D01*
X275934D01*
Y35261D01*
X275475D01*
Y34802D01*
X274558D01*
Y34344D01*
X273640D01*
Y33885D01*
X272723D01*
Y33426D01*
X270888D01*
Y32968D01*
X268595D01*
Y32509D01*
X267677D01*
Y32050D01*
X266760D01*
Y31591D01*
Y31133D01*
Y30674D01*
Y30215D01*
Y29757D01*
X267219D01*
Y29298D01*
X268136D01*
Y28839D01*
X270429D01*
Y29298D01*
X271347D01*
Y29757D01*
X271806D01*
Y30215D01*
X272264D01*
Y30674D01*
Y31133D01*
Y31591D01*
X272723D01*
Y32050D01*
X274558D01*
Y31591D01*
X277768D01*
Y31133D01*
Y30674D01*
Y30215D01*
X277310D01*
Y29757D01*
Y29298D01*
Y28839D01*
X276851D01*
Y28381D01*
X276392D01*
Y27922D01*
Y27463D01*
X275934D01*
Y27005D01*
X275016D01*
Y26546D01*
X274558D01*
Y26087D01*
X273182D01*
Y25628D01*
X266301D01*
Y26087D01*
X265384D01*
Y26546D01*
X264467D01*
Y27005D01*
X263549D01*
Y27463D01*
X263090D01*
Y27922D01*
X262632D01*
Y28381D01*
Y28839D01*
X262173D01*
Y29298D01*
Y29757D01*
Y30215D01*
X261714D01*
Y30674D01*
Y31133D01*
Y31591D01*
Y32050D01*
Y32509D01*
Y32968D01*
X262173D01*
Y33426D01*
Y33885D01*
X262632D01*
Y34344D01*
Y34802D01*
X263090D01*
Y35261D01*
X263549D01*
Y35720D01*
X264467D01*
Y36178D01*
X265384D01*
Y36637D01*
X266760D01*
Y37096D01*
X268595D01*
Y37554D01*
X270429D01*
Y38013D01*
X271347D01*
Y38472D01*
X271806D01*
Y38930D01*
X272264D01*
Y39389D01*
X271806D01*
Y39848D01*
Y40307D01*
X270429D01*
Y40765D01*
X269512D01*
Y40307D01*
X268136D01*
Y39848D01*
X267677D01*
Y39389D01*
X267219D01*
Y38930D01*
Y38472D01*
X262632D01*
Y38930D01*
Y39389D01*
Y39848D01*
Y40307D01*
Y40765D01*
X263090D01*
Y41224D01*
X263549D01*
Y41683D01*
Y42141D01*
X264008D01*
Y42600D01*
X264925D01*
Y43059D01*
X265843D01*
Y43517D01*
X268595D01*
Y43976D01*
X270888D01*
Y43517D01*
D02*
G37*
G36*
X288777Y24253D02*
Y23794D01*
Y23335D01*
Y22876D01*
X286942D01*
Y23335D01*
Y23794D01*
Y24253D01*
Y24711D01*
X288777D01*
Y24253D01*
D02*
G37*
G36*
X314464Y21500D02*
X314922D01*
Y21042D01*
Y20583D01*
Y20124D01*
Y19666D01*
Y19207D01*
Y18748D01*
Y18290D01*
Y17831D01*
Y17372D01*
Y16913D01*
Y16455D01*
Y15996D01*
Y15537D01*
Y15079D01*
Y14620D01*
X314464D01*
Y14161D01*
X313088D01*
Y14620D01*
X312629D01*
Y15079D01*
Y15537D01*
Y15996D01*
Y16455D01*
Y16913D01*
Y17372D01*
Y17831D01*
Y18290D01*
Y18748D01*
Y19207D01*
Y19666D01*
Y20124D01*
X311712D01*
Y20583D01*
X310794D01*
Y20124D01*
X310335D01*
Y19666D01*
Y19207D01*
Y18748D01*
Y18290D01*
Y17831D01*
Y17372D01*
Y16913D01*
Y16455D01*
Y15996D01*
Y15537D01*
Y15079D01*
Y14620D01*
X309877D01*
Y14161D01*
X308501D01*
Y14620D01*
X308042D01*
Y15079D01*
Y15537D01*
Y15996D01*
Y16455D01*
Y16913D01*
Y17372D01*
Y17831D01*
Y18290D01*
Y18748D01*
Y19207D01*
Y19666D01*
Y20124D01*
X307125D01*
Y20583D01*
X306207D01*
Y20124D01*
X305749D01*
Y19666D01*
Y19207D01*
Y18748D01*
Y18290D01*
Y17831D01*
Y17372D01*
Y16913D01*
Y16455D01*
Y15996D01*
Y15537D01*
Y15079D01*
Y14620D01*
X305290D01*
Y14161D01*
X303914D01*
Y14620D01*
Y15079D01*
Y15537D01*
Y15996D01*
Y16455D01*
Y16913D01*
Y17372D01*
Y17831D01*
Y18290D01*
Y18748D01*
Y19207D01*
Y19666D01*
Y20124D01*
Y20583D01*
Y21042D01*
X304373D01*
Y21500D01*
X305290D01*
Y21959D01*
X307125D01*
Y21500D01*
X308042D01*
Y21042D01*
X308959D01*
Y21500D01*
X309418D01*
Y21959D01*
X311712D01*
Y21500D01*
X312170D01*
Y21042D01*
X313088D01*
Y21500D01*
Y21959D01*
X314464D01*
Y21500D01*
D02*
G37*
G36*
X301620D02*
Y21042D01*
Y20583D01*
Y20124D01*
Y19666D01*
Y19207D01*
Y18748D01*
Y18290D01*
Y17831D01*
Y17372D01*
Y16913D01*
Y16455D01*
Y15996D01*
Y15537D01*
Y15079D01*
Y14620D01*
Y14161D01*
Y13703D01*
Y13244D01*
Y12785D01*
Y12327D01*
Y11868D01*
Y11409D01*
X299786D01*
Y11868D01*
Y12327D01*
Y12785D01*
Y13244D01*
Y13703D01*
Y14161D01*
Y14620D01*
Y15079D01*
X299327D01*
Y14620D01*
X298868D01*
Y14161D01*
X296575D01*
Y14620D01*
X295657D01*
Y15079D01*
X295199D01*
Y15537D01*
Y15996D01*
X294740D01*
Y16455D01*
Y16913D01*
Y17372D01*
X294281D01*
Y17831D01*
Y18290D01*
Y18748D01*
X294740D01*
Y19207D01*
Y19666D01*
Y20124D01*
X295199D01*
Y20583D01*
Y21042D01*
X295657D01*
Y21500D01*
X296575D01*
Y21959D01*
X298868D01*
Y21500D01*
X299327D01*
Y21042D01*
X299786D01*
Y21500D01*
X300244D01*
Y21959D01*
X301620D01*
Y21500D01*
D02*
G37*
G36*
X276392D02*
X276851D01*
Y21042D01*
Y20583D01*
Y20124D01*
Y19666D01*
Y19207D01*
Y18748D01*
Y18290D01*
Y17831D01*
Y17372D01*
Y16913D01*
Y16455D01*
Y15996D01*
Y15537D01*
Y15079D01*
Y14620D01*
X276392D01*
Y14161D01*
X275016D01*
Y14620D01*
Y15079D01*
Y15537D01*
Y15996D01*
Y16455D01*
Y16913D01*
Y17372D01*
Y17831D01*
X274558D01*
Y18290D01*
Y18748D01*
Y19207D01*
Y19666D01*
Y20124D01*
X273640D01*
Y20583D01*
X272723D01*
Y20124D01*
X272264D01*
Y19666D01*
X271806D01*
Y19207D01*
Y18748D01*
Y18290D01*
Y17831D01*
Y17372D01*
Y16913D01*
Y16455D01*
Y15996D01*
Y15537D01*
Y15079D01*
Y14620D01*
Y14161D01*
X269971D01*
Y14620D01*
Y15079D01*
Y15537D01*
Y15996D01*
Y16455D01*
Y16913D01*
Y17372D01*
Y17831D01*
Y18290D01*
Y18748D01*
Y19207D01*
Y19666D01*
Y20124D01*
Y20583D01*
X270429D01*
Y21042D01*
Y21500D01*
X271347D01*
Y21959D01*
X273640D01*
Y21500D01*
X274099D01*
Y21042D01*
X275016D01*
Y21500D01*
X275475D01*
Y21959D01*
X276392D01*
Y21500D01*
D02*
G37*
G36*
X283273D02*
X284190D01*
Y21042D01*
X284649D01*
Y20583D01*
X285108D01*
Y20124D01*
Y19666D01*
X283273D01*
Y20124D01*
X282814D01*
Y20583D01*
X281438D01*
Y20124D01*
X280979D01*
Y19666D01*
X280521D01*
Y19207D01*
X280979D01*
Y18748D01*
X283273D01*
Y18290D01*
X284190D01*
Y17831D01*
X285108D01*
Y17372D01*
Y16913D01*
Y16455D01*
Y15996D01*
Y15537D01*
Y15079D01*
X284649D01*
Y14620D01*
X284190D01*
Y14161D01*
X281438D01*
Y14620D01*
X280979D01*
Y15079D01*
X280521D01*
Y14620D01*
X280062D01*
Y14161D01*
X278686D01*
Y14620D01*
Y15079D01*
Y15537D01*
Y15996D01*
Y16455D01*
Y16913D01*
Y17372D01*
Y17831D01*
Y18290D01*
Y18748D01*
Y19207D01*
Y19666D01*
Y20124D01*
Y20583D01*
X279145D01*
Y21042D01*
X279603D01*
Y21500D01*
X280062D01*
Y21959D01*
X283273D01*
Y21500D01*
D02*
G37*
G36*
X329600D02*
X330518D01*
Y21042D01*
X330976D01*
Y20583D01*
X331435D01*
Y20124D01*
Y19666D01*
X331894D01*
Y19207D01*
Y18748D01*
Y18290D01*
Y17831D01*
Y17372D01*
Y16913D01*
Y16455D01*
Y15996D01*
X331435D01*
Y15537D01*
X330976D01*
Y15079D01*
X330518D01*
Y14620D01*
X330059D01*
Y14161D01*
X326848D01*
Y14620D01*
X325931D01*
Y15079D01*
X325472D01*
Y15537D01*
Y15996D01*
X325013D01*
Y16455D01*
Y16913D01*
X326848D01*
Y16455D01*
X327307D01*
Y15996D01*
X327766D01*
Y15537D01*
X328683D01*
Y15996D01*
X329600D01*
Y16455D01*
Y16913D01*
X330059D01*
Y17372D01*
Y17831D01*
Y18290D01*
Y18748D01*
Y19207D01*
X329600D01*
Y19666D01*
Y20124D01*
X328683D01*
Y20583D01*
X327766D01*
Y20124D01*
X327307D01*
Y19666D01*
X326848D01*
Y19207D01*
X325931D01*
Y19666D01*
X325013D01*
Y20124D01*
X325472D01*
Y20583D01*
Y21042D01*
X325931D01*
Y21500D01*
X326848D01*
Y21959D01*
X329600D01*
Y21500D01*
D02*
G37*
G36*
X321344D02*
X322261D01*
Y21042D01*
X322720D01*
Y20583D01*
X323179D01*
Y20124D01*
X323637D01*
Y19666D01*
Y19207D01*
Y18748D01*
X324096D01*
Y18290D01*
Y17831D01*
Y17372D01*
X323637D01*
Y16913D01*
Y16455D01*
Y15996D01*
X323179D01*
Y15537D01*
Y15079D01*
X322261D01*
Y14620D01*
X321344D01*
Y14161D01*
X318592D01*
Y14620D01*
X317674D01*
Y15079D01*
X317216D01*
Y15537D01*
X316757D01*
Y15996D01*
Y16455D01*
X316298D01*
Y16913D01*
Y17372D01*
Y17831D01*
Y18290D01*
Y18748D01*
Y19207D01*
Y19666D01*
X316757D01*
Y20124D01*
Y20583D01*
X317216D01*
Y21042D01*
X317674D01*
Y21500D01*
X318592D01*
Y21959D01*
X321344D01*
Y21500D01*
D02*
G37*
G36*
X292905Y24253D02*
Y23794D01*
Y23335D01*
Y22876D01*
Y22418D01*
Y21959D01*
Y21500D01*
Y21042D01*
Y20583D01*
Y20124D01*
Y19666D01*
Y19207D01*
Y18748D01*
Y18290D01*
Y17831D01*
Y17372D01*
Y16913D01*
Y16455D01*
Y15996D01*
Y15537D01*
Y15079D01*
Y14620D01*
Y14161D01*
X291070D01*
Y14620D01*
Y15079D01*
Y15537D01*
Y15996D01*
Y16455D01*
Y16913D01*
Y17372D01*
Y17831D01*
Y18290D01*
Y18748D01*
Y19207D01*
Y19666D01*
Y20124D01*
Y20583D01*
Y21042D01*
Y21500D01*
Y21959D01*
Y22418D01*
Y22876D01*
Y23335D01*
Y23794D01*
Y24253D01*
Y24711D01*
X292905D01*
Y24253D01*
D02*
G37*
G36*
X288777Y21500D02*
Y21042D01*
Y20583D01*
Y20124D01*
Y19666D01*
Y19207D01*
Y18748D01*
Y18290D01*
Y17831D01*
Y17372D01*
Y16913D01*
Y16455D01*
Y15996D01*
Y15537D01*
Y15079D01*
Y14620D01*
Y14161D01*
X286942D01*
Y14620D01*
Y15079D01*
Y15537D01*
Y15996D01*
Y16455D01*
Y16913D01*
Y17372D01*
Y17831D01*
Y18290D01*
Y18748D01*
Y19207D01*
Y19666D01*
Y20124D01*
Y20583D01*
Y21042D01*
Y21500D01*
Y21959D01*
X288777D01*
Y21500D01*
D02*
G37*
G36*
X266760Y23335D02*
X267219D01*
Y22876D01*
Y22418D01*
Y21959D01*
X268136D01*
Y21500D01*
Y21042D01*
Y20583D01*
Y20124D01*
X267219D01*
Y19666D01*
Y19207D01*
Y18748D01*
Y18290D01*
Y17831D01*
Y17372D01*
Y16913D01*
Y16455D01*
Y15996D01*
Y15537D01*
Y15079D01*
Y14620D01*
X266301D01*
Y14161D01*
X264467D01*
Y14620D01*
Y15079D01*
Y15537D01*
X265384D01*
Y15996D01*
X265843D01*
Y16455D01*
Y16913D01*
Y17372D01*
Y17831D01*
Y18290D01*
Y18748D01*
Y19207D01*
Y19666D01*
Y20124D01*
X264467D01*
Y20583D01*
Y21042D01*
Y21500D01*
Y21959D01*
X265843D01*
Y22418D01*
Y22876D01*
Y23335D01*
Y23794D01*
X266760D01*
Y23335D01*
D02*
G37*
G36*
X73549Y501650D02*
X75013Y501454D01*
X75697Y501308D01*
X76332Y501210D01*
X76917Y501064D01*
X77454Y500917D01*
X77894Y500722D01*
X78333Y500576D01*
X78675Y500478D01*
X79017Y500331D01*
X79261Y500234D01*
X79407Y500136D01*
X79505Y500087D01*
X79554D01*
X80969Y499209D01*
X82239Y498281D01*
X83264Y497256D01*
X84143Y496279D01*
X84826Y495450D01*
X85070Y495059D01*
X85314Y494717D01*
X85461Y494473D01*
X85607Y494278D01*
X85656Y494132D01*
X85705Y494083D01*
X86388Y492569D01*
X86876Y491056D01*
X87267Y489543D01*
X87511Y488176D01*
X87560Y487541D01*
X87657Y487004D01*
X87706Y486467D01*
Y486028D01*
X87755Y485686D01*
Y485442D01*
Y485247D01*
Y485198D01*
X87657Y483489D01*
X87462Y481878D01*
X87169Y480462D01*
X87023Y479779D01*
X86828Y479144D01*
X86632Y478607D01*
X86486Y478119D01*
X86339Y477679D01*
X86193Y477289D01*
X86046Y476996D01*
X85998Y476801D01*
X85900Y476654D01*
Y476605D01*
X85119Y475239D01*
X84240Y474018D01*
X83313Y472993D01*
X82434Y472163D01*
X81604Y471479D01*
X81262Y471187D01*
X80920Y470991D01*
X80676Y470845D01*
X80481Y470698D01*
X80384Y470650D01*
X80335Y470601D01*
X79602Y470210D01*
X78870Y469917D01*
X77357Y469380D01*
X75892Y469039D01*
X74525Y468746D01*
X73891Y468697D01*
X73354Y468599D01*
X72817Y468550D01*
X72377D01*
X72035Y468502D01*
X71547D01*
X70083Y468550D01*
X68667Y468746D01*
X67349Y468990D01*
X66177Y469234D01*
X65640Y469380D01*
X65152Y469527D01*
X64762Y469624D01*
X64420Y469722D01*
X64127Y469820D01*
X63931Y469917D01*
X63785Y469966D01*
X63736D01*
X62369Y470552D01*
X61198Y471138D01*
X60173Y471724D01*
X59343Y472261D01*
X58659Y472749D01*
X58220Y473091D01*
X57927Y473335D01*
X57829Y473432D01*
Y486272D01*
X71743D01*
Y480853D01*
X64371D01*
Y476752D01*
X64957Y476313D01*
X65543Y475971D01*
X66128Y475629D01*
X66665Y475336D01*
X67154Y475092D01*
X67544Y474946D01*
X67788Y474848D01*
X67886Y474799D01*
X68667Y474555D01*
X69399Y474360D01*
X70083Y474213D01*
X70669Y474116D01*
X71206Y474067D01*
X71596Y474018D01*
X71938D01*
X72670Y474067D01*
X73402Y474165D01*
X74086Y474262D01*
X74721Y474458D01*
X75843Y474897D01*
X76771Y475434D01*
X77210Y475678D01*
X77552Y475971D01*
X77845Y476215D01*
X78138Y476410D01*
X78333Y476605D01*
X78479Y476752D01*
X78528Y476801D01*
X78577Y476850D01*
X79017Y477435D01*
X79407Y478070D01*
X79749Y478705D01*
X79993Y479388D01*
X80481Y480853D01*
X80774Y482220D01*
X80872Y482903D01*
X80920Y483489D01*
X80969Y484026D01*
X81018Y484514D01*
X81067Y484905D01*
Y485198D01*
Y485393D01*
Y485442D01*
X81018Y486418D01*
X80969Y487297D01*
X80823Y488176D01*
X80676Y488957D01*
X80481Y489640D01*
X80286Y490324D01*
X80091Y490909D01*
X79847Y491446D01*
X79602Y491935D01*
X79407Y492325D01*
X79212Y492667D01*
X79017Y492960D01*
X78870Y493155D01*
X78724Y493302D01*
X78675Y493399D01*
X78626Y493448D01*
X78138Y493936D01*
X77601Y494376D01*
X77064Y494717D01*
X76527Y495010D01*
X75404Y495498D01*
X74330Y495840D01*
X73354Y496035D01*
X72963Y496084D01*
X72572Y496133D01*
X72280Y496182D01*
X71889D01*
X70913Y496133D01*
X69985Y495987D01*
X69204Y495742D01*
X68520Y495498D01*
X67983Y495254D01*
X67593Y495010D01*
X67349Y494864D01*
X67251Y494815D01*
X66617Y494278D01*
X66080Y493643D01*
X65640Y493058D01*
X65299Y492472D01*
X65006Y491935D01*
X64859Y491495D01*
X64762Y491202D01*
X64713Y491153D01*
Y491105D01*
X58269Y492325D01*
X58464Y493106D01*
X58757Y493887D01*
X59343Y495205D01*
X59684Y495840D01*
X60075Y496377D01*
X60417Y496914D01*
X60807Y497354D01*
X61149Y497793D01*
X61491Y498135D01*
X61783Y498428D01*
X62076Y498720D01*
X62272Y498916D01*
X62467Y499062D01*
X62565Y499111D01*
X62613Y499160D01*
X63248Y499599D01*
X63980Y499990D01*
X64713Y500331D01*
X65445Y500624D01*
X67007Y501064D01*
X68472Y501405D01*
X69204Y501503D01*
X69839Y501552D01*
X70424Y501601D01*
X70913Y501650D01*
X71303Y501698D01*
X71889D01*
X73549Y501650D01*
D02*
G37*
G36*
X113971Y480853D02*
Y475532D01*
X100839D01*
Y469087D01*
X94883D01*
Y475532D01*
X90928D01*
Y480902D01*
X94883D01*
Y501259D01*
X100057D01*
X113971Y480853D01*
D02*
G37*
G36*
X55863Y468502D02*
X45855D01*
Y470381D01*
X53739D01*
Y484539D01*
X55863D01*
Y468502D01*
D02*
G37*
G36*
X44512Y482659D02*
X39240D01*
Y468502D01*
X37116D01*
Y482659D01*
X31844D01*
Y484539D01*
X44512D01*
Y482659D01*
D02*
G37*
G36*
X29598Y468502D02*
X17637D01*
Y470381D01*
X27474D01*
Y475849D01*
X18614D01*
Y477728D01*
X27474D01*
Y482659D01*
X18004D01*
Y484539D01*
X29598D01*
Y468502D01*
D02*
G37*
%LPC*%
G36*
X232099Y219221D02*
X230384D01*
Y218793D01*
Y218364D01*
Y217935D01*
X230812D01*
Y217506D01*
Y217078D01*
Y216649D01*
Y216220D01*
Y215791D01*
X231241D01*
Y215363D01*
Y214934D01*
X231670D01*
Y214505D01*
X232099D01*
Y214077D01*
X232956D01*
Y213648D01*
X233814D01*
Y213219D01*
X237243D01*
Y213648D01*
X238101D01*
Y214077D01*
X238529D01*
Y214505D01*
X238958D01*
Y214934D01*
Y215363D01*
Y215791D01*
Y216220D01*
Y216649D01*
Y217078D01*
X238529D01*
Y217506D01*
X237672D01*
Y217935D01*
X236815D01*
Y218364D01*
X233814D01*
Y218793D01*
X232099D01*
Y219221D01*
D02*
G37*
G36*
X285260Y224366D02*
X283545D01*
Y223937D01*
X282688D01*
Y223508D01*
X282259D01*
Y223080D01*
X281830D01*
Y222651D01*
Y222222D01*
X281402D01*
Y221794D01*
Y221365D01*
Y220936D01*
Y220507D01*
X287404D01*
Y220936D01*
Y221365D01*
Y221794D01*
Y222222D01*
Y222651D01*
X286975D01*
Y223080D01*
X286546D01*
Y223508D01*
X286118D01*
Y223937D01*
X285260D01*
Y224366D01*
D02*
G37*
G36*
X170363Y225223D02*
X166504D01*
Y224795D01*
X166075D01*
Y224366D01*
X165218D01*
Y223937D01*
X164789D01*
Y223508D01*
Y223080D01*
X164361D01*
Y222651D01*
Y222222D01*
Y221794D01*
X163932D01*
Y221365D01*
Y220936D01*
X172935D01*
Y221365D01*
Y221794D01*
Y222222D01*
Y222651D01*
X172506D01*
Y223080D01*
Y223508D01*
X172078D01*
Y223937D01*
X171649D01*
Y224366D01*
X171220D01*
Y224795D01*
X170363D01*
Y225223D01*
D02*
G37*
G36*
X292935Y197195D02*
X287872D01*
Y196562D01*
X287239D01*
Y195930D01*
X286607D01*
Y195297D01*
Y194664D01*
X285974D01*
Y194031D01*
Y193398D01*
Y192766D01*
Y192133D01*
X295466D01*
Y192766D01*
Y193398D01*
Y194031D01*
Y194664D01*
X294833D01*
Y195297D01*
Y195930D01*
X294200D01*
Y196562D01*
X292935D01*
Y197195D01*
D02*
G37*
G36*
X319512Y202258D02*
X310020D01*
Y201625D01*
X309388D01*
Y200992D01*
Y200359D01*
Y199726D01*
Y199094D01*
Y198461D01*
Y197828D01*
Y197195D01*
Y196562D01*
Y195930D01*
X310020D01*
Y195297D01*
X319512D01*
Y195930D01*
Y196562D01*
Y197195D01*
Y197828D01*
Y198461D01*
Y199094D01*
Y199726D01*
Y200359D01*
Y200992D01*
Y201625D01*
Y202258D01*
D02*
G37*
G36*
Y191500D02*
X309388D01*
Y190867D01*
X308755D01*
Y190234D01*
Y189602D01*
Y188969D01*
X308122D01*
Y188336D01*
Y187703D01*
Y187070D01*
X308755D01*
Y186437D01*
Y185805D01*
Y185172D01*
X309388D01*
Y184539D01*
X310020D01*
Y183906D01*
X319512D01*
Y184539D01*
Y185172D01*
Y185805D01*
Y186437D01*
Y187070D01*
Y187703D01*
Y188336D01*
Y188969D01*
Y189602D01*
Y190234D01*
Y190867D01*
Y191500D01*
D02*
G37*
G36*
X273318Y188336D02*
X265724D01*
Y187703D01*
Y187070D01*
Y186437D01*
Y185805D01*
Y185172D01*
Y184539D01*
Y183906D01*
Y183274D01*
X266357D01*
Y182641D01*
X272685D01*
Y183274D01*
X273318D01*
Y183906D01*
X273951D01*
Y184539D01*
Y185172D01*
Y185805D01*
Y186437D01*
Y187070D01*
Y187703D01*
X273318D01*
Y188336D01*
D02*
G37*
G36*
X228389Y197195D02*
X225224D01*
Y196562D01*
X223326D01*
Y195930D01*
X222693D01*
Y195297D01*
Y194664D01*
X222061D01*
Y194031D01*
Y193398D01*
Y192766D01*
Y192133D01*
Y191500D01*
Y190867D01*
Y190234D01*
Y189602D01*
Y188969D01*
Y188336D01*
Y187703D01*
Y187070D01*
Y186437D01*
Y185805D01*
X222693D01*
Y185172D01*
Y184539D01*
X223326D01*
Y183906D01*
X223959D01*
Y183274D01*
X230287D01*
Y183906D01*
X231553D01*
Y184539D01*
Y185172D01*
X232185D01*
Y185805D01*
Y186437D01*
Y187070D01*
Y187703D01*
X232818D01*
Y188336D01*
Y188969D01*
Y189602D01*
Y190234D01*
Y190867D01*
Y191500D01*
Y192133D01*
Y192766D01*
X232185D01*
Y193398D01*
Y194031D01*
Y194664D01*
X231553D01*
Y195297D01*
Y195930D01*
X230920D01*
Y196562D01*
X228389D01*
Y197195D01*
D02*
G37*
G36*
X326848Y39848D02*
X322720D01*
Y39389D01*
X322261D01*
Y38930D01*
X321803D01*
Y38472D01*
Y38013D01*
Y37554D01*
X322261D01*
Y37096D01*
X322720D01*
Y36637D01*
X323637D01*
Y36178D01*
X326848D01*
Y36637D01*
Y37096D01*
Y37554D01*
Y38013D01*
Y38472D01*
Y38930D01*
Y39389D01*
Y39848D01*
D02*
G37*
G36*
X308042Y35720D02*
X306666D01*
Y35261D01*
X306207D01*
Y34802D01*
X305749D01*
Y34344D01*
X305290D01*
Y33885D01*
Y33426D01*
Y32968D01*
X304831D01*
Y32509D01*
Y32050D01*
Y31591D01*
X305290D01*
Y31133D01*
Y30674D01*
Y30215D01*
Y29757D01*
X305749D01*
Y29298D01*
X306207D01*
Y28839D01*
X308501D01*
Y29298D01*
X308959D01*
Y29757D01*
X309418D01*
Y30215D01*
X309877D01*
Y30674D01*
Y31133D01*
Y31591D01*
Y32050D01*
Y32509D01*
Y32968D01*
Y33426D01*
Y33885D01*
X309418D01*
Y34344D01*
Y34802D01*
X308959D01*
Y35261D01*
X308042D01*
Y35720D01*
D02*
G37*
G36*
X298410Y20583D02*
X297951D01*
Y20124D01*
X297033D01*
Y19666D01*
X296575D01*
Y19207D01*
Y18748D01*
Y18290D01*
Y17831D01*
Y17372D01*
Y16913D01*
Y16455D01*
X297033D01*
Y15996D01*
X297492D01*
Y15537D01*
X298868D01*
Y15996D01*
X299327D01*
Y16455D01*
X299786D01*
Y16913D01*
Y17372D01*
Y17831D01*
Y18290D01*
Y18748D01*
Y19207D01*
Y19666D01*
X299327D01*
Y20124D01*
X298410D01*
Y20583D01*
D02*
G37*
G36*
X281897Y17831D02*
X280521D01*
Y17372D01*
Y16913D01*
Y16455D01*
X280979D01*
Y15996D01*
X281438D01*
Y15537D01*
X282814D01*
Y15996D01*
X283273D01*
Y16455D01*
Y16913D01*
Y17372D01*
X281897D01*
Y17831D01*
D02*
G37*
G36*
X321344Y20124D02*
X319051D01*
Y19666D01*
X318592D01*
Y19207D01*
X318133D01*
Y18748D01*
Y18290D01*
Y17831D01*
Y17372D01*
Y16913D01*
X318592D01*
Y16455D01*
X319051D01*
Y15996D01*
X319509D01*
Y15537D01*
X320885D01*
Y15996D01*
X321344D01*
Y16455D01*
X321803D01*
Y16913D01*
Y17372D01*
Y17831D01*
Y18290D01*
Y18748D01*
Y19207D01*
Y19666D01*
X321344D01*
Y20124D01*
D02*
G37*
G36*
X100839Y491886D02*
Y480902D01*
X108259D01*
X100839Y491886D01*
D02*
G37*
%LPD*%
D10*
X292400Y390575D02*
G03*
X292400Y387325I0J-1625D01*
G01*
X427000Y538600D02*
Y579400D01*
X422000Y584400D02*
X427000Y579400D01*
X422000Y533600D02*
X427000Y538600D01*
X406600Y533600D02*
X422000D01*
X406600Y584400D02*
X422000D01*
X401600Y579400D02*
X406600Y584400D01*
X401600Y538600D02*
X406600Y533600D01*
X396600Y584400D02*
X401600Y579400D01*
X396600Y533600D02*
X401600Y538600D01*
X381200Y533600D02*
X396600D01*
X381200Y584400D02*
X396600D01*
X376200Y579400D02*
X381200Y584400D01*
X376200Y538600D02*
X381200Y533600D01*
X371200Y584400D02*
X376200Y579400D01*
X371200Y533600D02*
X376200Y538600D01*
X355800Y533600D02*
X371200D01*
X355800Y584400D02*
X371200D01*
X350800Y538600D02*
X355800Y533600D01*
X350800Y579400D02*
X355800Y584400D01*
X345800D02*
X350800Y579400D01*
X345800Y533600D02*
X350800Y538600D01*
X330400Y584400D02*
X345800D01*
X330400Y533600D02*
X345800D01*
X325400Y579400D02*
X330400Y584400D01*
X325400Y538600D02*
X330400Y533600D01*
X320400Y584400D02*
X325400Y579400D01*
X320400Y533600D02*
X325400Y538600D01*
X305000Y533600D02*
X320400D01*
X305000Y584400D02*
X320400D01*
X300000Y579400D02*
X305000Y584400D01*
X300000Y538600D02*
X305000Y533600D01*
X295000D02*
X300000Y538600D01*
X295000Y584400D02*
X300000Y579400D01*
X279600Y584400D02*
X295000D01*
X279600Y533600D02*
X295000D01*
X274600Y579400D02*
X279600Y584400D01*
X274600Y538600D02*
X279600Y533600D01*
X269600Y584400D02*
X274600Y579400D01*
X269600Y533600D02*
X274600Y538600D01*
X254200Y584400D02*
X269600D01*
X254200Y533600D02*
X269600D01*
X249200Y579400D02*
X254200Y584400D01*
X249200Y538600D02*
X254200Y533600D01*
X244200D02*
X249200Y538600D01*
X244200Y584400D02*
X249200Y579400D01*
X228800Y584400D02*
X244200D01*
X228800Y533600D02*
X244200D01*
X223800Y538600D02*
X228800Y533600D01*
X223800Y579400D02*
X228800Y584400D01*
X218800D02*
X223800Y579400D01*
X218800Y533600D02*
X223800Y538600D01*
X203400Y584400D02*
X218800D01*
X203400Y533600D02*
X218800D01*
X198400Y538600D02*
X203400Y533600D01*
X198400Y579400D02*
X203400Y584400D01*
X193400D02*
X198400Y579400D01*
X193400Y533600D02*
X198400Y538600D01*
X178000Y584400D02*
X193400D01*
X178000Y533600D02*
X193400D01*
X173000Y538600D02*
X178000Y533600D01*
X173000Y579400D02*
X178000Y584400D01*
X173000Y538600D02*
Y579400D01*
X131400Y338000D02*
Y414000D01*
X177400Y338000D02*
Y414000D01*
X131400D02*
X138150D01*
X131400Y338000D02*
X138150D01*
X170650Y414000D02*
X177400D01*
X170650Y338000D02*
X177400D01*
X170650Y408500D02*
Y414000D01*
Y408500D02*
X177400D01*
X131400D02*
X138150D01*
Y414000D01*
X439600Y411700D02*
Y417200D01*
X432850Y411700D02*
X439600D01*
X472100D02*
X478850D01*
X472100D02*
Y417200D01*
Y341200D02*
X478850D01*
X472100Y417200D02*
X478850D01*
X432850Y341200D02*
X439600D01*
X432850Y417200D02*
X439600D01*
X478850Y341200D02*
Y417200D01*
X432850Y341200D02*
Y417200D01*
X79350Y337900D02*
Y413900D01*
X125350Y337900D02*
Y413900D01*
X79350D02*
X86100D01*
X79350Y337900D02*
X86100D01*
X118600Y413900D02*
X125350D01*
X118600Y337900D02*
X125350D01*
X118600Y408400D02*
Y413900D01*
Y408400D02*
X125350D01*
X79350D02*
X86100D01*
Y413900D01*
X172100Y152800D02*
Y158300D01*
X165350Y152800D02*
X172100D01*
X204600D02*
X211350D01*
X204600D02*
Y158300D01*
Y82300D02*
X211350D01*
X204600Y158300D02*
X211350D01*
X165350Y82300D02*
X172100D01*
X165350Y158300D02*
X172100D01*
X211350Y82300D02*
Y158300D01*
X165350Y82300D02*
Y158300D01*
X224100Y153100D02*
Y158600D01*
X217350Y153100D02*
X224100D01*
X256600D02*
X263350D01*
X256600D02*
Y158600D01*
Y82600D02*
X263350D01*
X256600Y158600D02*
X263350D01*
X217350Y82600D02*
X224100D01*
X217350Y158600D02*
X224100D01*
X263350Y82600D02*
Y158600D01*
X217350Y82600D02*
Y158600D01*
X307100Y120800D02*
X324100D01*
X307100D02*
Y155800D01*
X324100D01*
Y120800D02*
Y155800D01*
X148000Y650D02*
Y7650D01*
Y26650D02*
Y31650D01*
X164000Y45650D02*
X167000D01*
X203000D02*
X206000D01*
X222000Y26650D02*
Y31650D01*
Y650D02*
Y7650D01*
X148000Y650D02*
X222000D01*
Y-10350D02*
Y650D01*
X148000Y-10350D02*
X222000D01*
X148000D02*
Y650D01*
X61800Y155200D02*
Y190200D01*
X44800D02*
X61800D01*
X44800Y155200D02*
Y190200D01*
Y155200D02*
X61800D01*
X44400Y95200D02*
X61400D01*
X44400D02*
Y130200D01*
X61400D01*
Y95200D02*
Y130200D01*
X122700Y100800D02*
Y135800D01*
X105700D02*
X122700D01*
X105700Y100800D02*
Y135800D01*
Y100800D02*
X122700D01*
X141800D02*
Y135800D01*
X124800D02*
X141800D01*
X124800Y100800D02*
Y135800D01*
Y100800D02*
X141800D01*
X160800D02*
Y135800D01*
X143800D02*
X160800D01*
X143800Y100800D02*
Y135800D01*
Y100800D02*
X160800D01*
X118100Y19950D02*
X135100D01*
X118100D02*
Y54950D01*
X135100D01*
Y19950D02*
Y54950D01*
X114450Y311050D02*
Y328050D01*
X149450D01*
Y311050D02*
Y328050D01*
X114450Y311050D02*
X149450D01*
X139400Y285350D02*
X146650D01*
Y293350D01*
X117650Y285350D02*
X124900D01*
X117650D02*
Y293350D01*
X129650Y299350D02*
X134650D01*
X152350Y296550D02*
Y313550D01*
X187350D01*
Y296550D02*
Y313550D01*
X152350Y296550D02*
X187350D01*
X152250Y276950D02*
Y293950D01*
X187250D01*
Y276950D02*
Y293950D01*
X152250Y276950D02*
X187250D01*
X113475Y290875D02*
Y307875D01*
X78475Y290875D02*
X113475D01*
X78475D02*
Y307875D01*
X113475D01*
X87450Y283300D02*
X104450D01*
Y248300D02*
Y283300D01*
X87450Y248300D02*
X104450D01*
X87450D02*
Y283300D01*
X123450Y238950D02*
X140450D01*
X123450D02*
Y273950D01*
X140450D01*
Y238950D02*
Y273950D01*
X343300Y439300D02*
Y456300D01*
X378300D01*
Y439300D02*
Y456300D01*
X343300Y439300D02*
X378300D01*
X343400Y420150D02*
Y437150D01*
X378400D01*
Y420150D02*
Y437150D01*
X343400Y420150D02*
X378400D01*
X343200Y401000D02*
Y418000D01*
X378200D01*
Y401000D02*
Y418000D01*
X343200Y401000D02*
X378200D01*
X340450Y333950D02*
X375450D01*
X340450Y316950D02*
Y333950D01*
Y316950D02*
X375450D01*
Y333950D01*
X340450Y314900D02*
X375450D01*
X340450Y297900D02*
Y314900D01*
Y297900D02*
X375450D01*
Y314900D01*
X340300Y294500D02*
X375300D01*
X340300Y277500D02*
Y294500D01*
Y277500D02*
X375300D01*
Y294500D01*
X340400Y275450D02*
X375400D01*
X340400Y258450D02*
Y275450D01*
Y258450D02*
X375400D01*
Y275450D01*
X292400Y370250D02*
Y387325D01*
Y390575D02*
Y407600D01*
X227400D02*
X292400D01*
X227400Y370250D02*
Y407600D01*
Y370250D02*
X292400D01*
X291150Y467700D02*
X308150D01*
Y432700D02*
Y467700D01*
X291150Y432700D02*
X308150D01*
X291150D02*
Y467700D01*
X222800Y475300D02*
X239800D01*
Y440300D02*
Y475300D01*
X222800Y440300D02*
X239800D01*
X222800D02*
Y475300D01*
X600000Y484950D02*
Y600000D01*
X0D02*
X600000D01*
Y401700D02*
Y484950D01*
X384450Y50D02*
Y236700D01*
X113250Y50D02*
X384450D01*
Y236700D02*
X600000D01*
X0Y0D02*
X113000D01*
X0Y461750D02*
X0Y0D01*
X600000Y236700D02*
Y401700D01*
X0Y461750D02*
Y600000D01*
D11*
X137900Y420500D02*
G03*
X137900Y420500I-1250J0D01*
G01*
X439350Y423700D02*
G03*
X439350Y423700I-1250J0D01*
G01*
X85850Y420400D02*
G03*
X85850Y420400I-1250J0D01*
G01*
X171850Y164800D02*
G03*
X171850Y164800I-1250J0D01*
G01*
X223850Y165100D02*
G03*
X223850Y165100I-1250J0D01*
G01*
D15*
X8920Y545210D02*
Y567210D01*
X32920Y521210D02*
X54920D01*
X78920Y545210D02*
Y567210D01*
X32920Y591210D02*
X54920D01*
D16*
X278600Y118900D02*
X293050D01*
X278600Y109450D02*
X293050D01*
Y118900D01*
X278600Y109450D02*
Y118900D01*
X54350Y201750D02*
X68800D01*
X54350Y211200D02*
X68800D01*
X54350Y201750D02*
Y211200D01*
X68800Y201750D02*
Y211200D01*
D17*
X115308Y140080D02*
G03*
X115308Y140080I-1796J0D01*
G01*
X292963Y348150D02*
G03*
X292963Y348150I-2413J0D01*
G01*
D18*
X288000Y121950D02*
X292000D01*
Y155950D01*
X288000D02*
X292000D01*
X274000D02*
X278000D01*
X274000Y121950D02*
Y155950D01*
Y121950D02*
X278000D01*
X274000Y138950D02*
X292000D01*
D20*
X95373Y559659D02*
X98039D01*
X96706D01*
Y552994D01*
X98039Y551661D01*
X99372D01*
X100704Y552994D01*
X87375Y551661D02*
X92707D01*
X87375Y556993D01*
Y558326D01*
X88708Y559659D01*
X91374D01*
X92707Y558326D01*
X309494Y393509D02*
Y386844D01*
X308162Y385511D01*
X305496D01*
X304163Y386844D01*
Y393509D01*
X296166Y385511D02*
X301497D01*
X296166Y390843D01*
Y392176D01*
X297498Y393509D01*
X300164D01*
X301497Y392176D01*
X400567Y405191D02*
Y413189D01*
X396568D01*
X395235Y411856D01*
Y409190D01*
X396568Y407857D01*
X400567D01*
X397901D02*
X395235Y405191D01*
X392569D02*
X389904D01*
X391236D01*
Y413189D01*
X392569Y411856D01*
X380573Y413189D02*
X385905D01*
Y409190D01*
X383239Y410523D01*
X381906D01*
X380573Y409190D01*
Y406524D01*
X381906Y405191D01*
X384572D01*
X385905Y406524D01*
X400567Y444401D02*
Y452399D01*
X396568D01*
X395235Y451066D01*
Y448400D01*
X396568Y447067D01*
X400567D01*
X397901D02*
X395235Y444401D01*
X392569D02*
X389904D01*
X391236D01*
Y452399D01*
X392569Y451066D01*
X381906Y444401D02*
Y452399D01*
X385905Y448400D01*
X380573D01*
X400697Y424861D02*
Y432859D01*
X396698D01*
X395365Y431526D01*
Y428860D01*
X396698Y427527D01*
X400697D01*
X398031D02*
X395365Y424861D01*
X392699D02*
X390034D01*
X391367D01*
Y432859D01*
X392699Y431526D01*
X386035D02*
X384702Y432859D01*
X382036D01*
X380703Y431526D01*
Y430193D01*
X382036Y428860D01*
X383369D01*
X382036D01*
X380703Y427527D01*
Y426194D01*
X382036Y424861D01*
X384702D01*
X386035Y426194D01*
X135867Y57431D02*
Y65429D01*
X131868D01*
X130535Y64096D01*
Y61430D01*
X131868Y60097D01*
X135867D01*
X133201D02*
X130535Y57431D01*
X127869D02*
X125204D01*
X126536D01*
Y65429D01*
X127869Y64096D01*
X115873Y57431D02*
X121205D01*
X115873Y62763D01*
Y64096D01*
X117206Y65429D01*
X119872D01*
X121205Y64096D01*
X61344Y133501D02*
Y141499D01*
X57345D01*
X56012Y140166D01*
Y137500D01*
X57345Y136167D01*
X61344D01*
X58678D02*
X56012Y133501D01*
X53347D02*
X50681D01*
X52014D01*
Y141499D01*
X53347Y140166D01*
X46682Y133501D02*
X44016D01*
X45349D01*
Y141499D01*
X46682Y140166D01*
X63117Y144811D02*
Y152809D01*
X59118D01*
X57785Y151476D01*
Y148810D01*
X59118Y147477D01*
X63117D01*
X60451D02*
X57785Y144811D01*
X55119D02*
X52454D01*
X53787D01*
Y152809D01*
X55119Y151476D01*
X48455D02*
X47122Y152809D01*
X44456D01*
X43123Y151476D01*
Y146144D01*
X44456Y144811D01*
X47122D01*
X48455Y146144D01*
Y151476D01*
X392545Y321691D02*
Y329689D01*
X388546D01*
X387213Y328356D01*
Y325690D01*
X388546Y324357D01*
X392545D01*
X389879D02*
X387213Y321691D01*
X384547Y323024D02*
X383214Y321691D01*
X380548D01*
X379216Y323024D01*
Y328356D01*
X380548Y329689D01*
X383214D01*
X384547Y328356D01*
Y327023D01*
X383214Y325690D01*
X379216D01*
X392715Y302551D02*
Y310549D01*
X388716D01*
X387383Y309216D01*
Y306550D01*
X388716Y305217D01*
X392715D01*
X390049D02*
X387383Y302551D01*
X384717Y309216D02*
X383384Y310549D01*
X380718D01*
X379385Y309216D01*
Y307883D01*
X380718Y306550D01*
X379385Y305217D01*
Y303884D01*
X380718Y302551D01*
X383384D01*
X384717Y303884D01*
Y305217D01*
X383384Y306550D01*
X384717Y307883D01*
Y309216D01*
X383384Y306550D02*
X380718D01*
X165084Y320131D02*
Y328129D01*
X161086D01*
X159753Y326796D01*
Y324130D01*
X161086Y322797D01*
X165084D01*
X162419D02*
X159753Y320131D01*
X157087Y328129D02*
X151756D01*
Y326796D01*
X157087Y321464D01*
Y320131D01*
X102354Y310641D02*
Y318639D01*
X98356D01*
X97023Y317306D01*
Y314640D01*
X98356Y313307D01*
X102354D01*
X99689D02*
X97023Y310641D01*
X89025Y318639D02*
X91691Y317306D01*
X94357Y314640D01*
Y311974D01*
X93024Y310641D01*
X90358D01*
X89025Y311974D01*
Y313307D01*
X90358Y314640D01*
X94357D01*
X203055Y281411D02*
Y289409D01*
X199056D01*
X197723Y288076D01*
Y285410D01*
X199056Y284077D01*
X203055D01*
X200389D02*
X197723Y281411D01*
X189725Y289409D02*
X195057D01*
Y285410D01*
X192391Y286743D01*
X191058D01*
X189725Y285410D01*
Y282744D01*
X191058Y281411D01*
X193724D01*
X195057Y282744D01*
X237635Y479431D02*
Y487429D01*
X233636D01*
X232303Y486096D01*
Y483430D01*
X233636Y482097D01*
X237635D01*
X234969D02*
X232303Y479431D01*
X225638D02*
Y487429D01*
X229637Y483430D01*
X224305D01*
X392205Y281891D02*
Y289889D01*
X388206D01*
X386873Y288556D01*
Y285890D01*
X388206Y284557D01*
X392205D01*
X389539D02*
X386873Y281891D01*
X384207Y288556D02*
X382874Y289889D01*
X380208D01*
X378876Y288556D01*
Y287223D01*
X380208Y285890D01*
X381541D01*
X380208D01*
X378876Y284557D01*
Y283224D01*
X380208Y281891D01*
X382874D01*
X384207Y283224D01*
X138674Y228221D02*
Y236219D01*
X134676D01*
X133343Y234886D01*
Y232220D01*
X134676Y230887D01*
X138674D01*
X136009D02*
X133343Y228221D01*
X125345D02*
X130677D01*
X125345Y233553D01*
Y234886D01*
X126678Y236219D01*
X129344D01*
X130677Y234886D01*
X390872Y263091D02*
Y271089D01*
X386873D01*
X385540Y269756D01*
Y267090D01*
X386873Y265757D01*
X390872D01*
X388206D02*
X385540Y263091D01*
X382874D02*
X380208D01*
X381541D01*
Y271089D01*
X382874Y269756D01*
X115533Y275134D02*
Y280466D01*
X116866Y281799D01*
X119532D01*
X120864Y280466D01*
Y275134D01*
X119532Y273801D01*
X116866D01*
X118199Y276467D02*
X115533Y273801D01*
X116866D02*
X115533Y275134D01*
X107535Y273801D02*
X112867D01*
X107535Y279133D01*
Y280466D01*
X108868Y281799D01*
X111534D01*
X112867Y280466D01*
X220700Y51979D02*
X223366D01*
X222033D01*
Y45314D01*
X223366Y43981D01*
X224699D01*
X226032Y45314D01*
X218034Y43981D02*
X215368D01*
X216701D01*
Y51979D01*
X218034Y50646D01*
X286059Y166929D02*
X291390D01*
Y162930D01*
X288724D01*
X291390D01*
Y158931D01*
X283393Y166929D02*
Y158931D01*
X279394D01*
X278061Y160264D01*
Y161597D01*
X279394Y162930D01*
X283393D01*
X279394D01*
X278061Y164263D01*
Y165596D01*
X279394Y166929D01*
X283393D01*
X275396Y158931D02*
X272730D01*
X274062D01*
Y166929D01*
X275396Y165596D01*
X67695Y221239D02*
Y213241D01*
X63696D01*
X62363Y214574D01*
Y219906D01*
X63696Y221239D01*
X67695D01*
X54366D02*
X59697D01*
Y217240D01*
X57031Y218573D01*
X55698D01*
X54366Y217240D01*
Y214574D01*
X55698Y213241D01*
X58364D01*
X59697Y214574D01*
X291022Y107319D02*
Y99321D01*
X287023D01*
X285690Y100654D01*
Y105986D01*
X287023Y107319D01*
X291022D01*
X283024Y99321D02*
X280358D01*
X281691D01*
Y107319D01*
X283024Y105986D01*
X133619Y176406D02*
X134952Y177739D01*
X137617D01*
X138950Y176406D01*
Y171074D01*
X137617Y169741D01*
X134952D01*
X133619Y171074D01*
X130953Y169741D02*
Y177739D01*
X126954D01*
X125621Y176406D01*
Y173740D01*
X126954Y172407D01*
X130953D01*
X128287D02*
X125621Y169741D01*
X122956D02*
X120290D01*
X121623D01*
Y177739D01*
X122956Y176406D01*
X460385Y433856D02*
X461718Y435189D01*
X464384D01*
X465717Y433856D01*
Y428524D01*
X464384Y427191D01*
X461718D01*
X460385Y428524D01*
X457719Y427191D02*
X455053D01*
X456386D01*
Y435189D01*
X457719Y433856D01*
X445723Y435189D02*
X451055D01*
Y431190D01*
X448389Y432523D01*
X447056D01*
X445723Y431190D01*
Y428524D01*
X447056Y427191D01*
X449722D01*
X451055Y428524D01*
X155726Y83525D02*
X157059Y82192D01*
Y79526D01*
X155726Y78193D01*
X150394D01*
X149061Y79526D01*
Y82192D01*
X150394Y83525D01*
X149061Y86191D02*
Y88856D01*
Y87523D01*
X157059D01*
X155726Y86191D01*
X149061Y96854D02*
X157059D01*
X153060Y92855D01*
Y98187D01*
X135956Y83585D02*
X137289Y82252D01*
Y79586D01*
X135956Y78253D01*
X130624D01*
X129291Y79586D01*
Y82252D01*
X130624Y83585D01*
X129291Y86251D02*
Y88916D01*
Y87584D01*
X137289D01*
X135956Y86251D01*
Y92915D02*
X137289Y94248D01*
Y96914D01*
X135956Y98247D01*
X134623D01*
X133290Y96914D01*
Y95581D01*
Y96914D01*
X131957Y98247D01*
X130624D01*
X129291Y96914D01*
Y94248D01*
X130624Y92915D01*
X117066Y83755D02*
X118399Y82422D01*
Y79756D01*
X117066Y78423D01*
X111734D01*
X110401Y79756D01*
Y82422D01*
X111734Y83755D01*
X110401Y86421D02*
Y89086D01*
Y87753D01*
X118399D01*
X117066Y86421D01*
X110401Y98417D02*
Y93085D01*
X115733Y98417D01*
X117066D01*
X118399Y97084D01*
Y94418D01*
X117066Y93085D01*
X97273Y243906D02*
X98606Y245239D01*
X101272D01*
X102605Y243906D01*
Y238574D01*
X101272Y237241D01*
X98606D01*
X97273Y238574D01*
X94607Y243906D02*
X93274Y245239D01*
X90608D01*
X89276Y243906D01*
Y242573D01*
X90608Y241240D01*
X89276Y239907D01*
Y238574D01*
X90608Y237241D01*
X93274D01*
X94607Y238574D01*
Y239907D01*
X93274Y241240D01*
X94607Y242573D01*
Y243906D01*
X93274Y241240D02*
X90608D01*
X155693Y429996D02*
X157026Y431329D01*
X159692D01*
X161024Y429996D01*
Y424664D01*
X159692Y423331D01*
X157026D01*
X155693Y424664D01*
X153027Y431329D02*
X147696D01*
Y429996D01*
X153027Y424664D01*
Y423331D01*
X103453Y430536D02*
X104786Y431869D01*
X107452D01*
X108785Y430536D01*
Y425204D01*
X107452Y423871D01*
X104786D01*
X103453Y425204D01*
X95456Y431869D02*
X98121Y430536D01*
X100787Y427870D01*
Y425204D01*
X99454Y423871D01*
X96788D01*
X95456Y425204D01*
Y426537D01*
X96788Y427870D01*
X100787D01*
X300973Y477906D02*
X302306Y479239D01*
X304972D01*
X306304Y477906D01*
Y472574D01*
X304972Y471241D01*
X302306D01*
X300973Y472574D01*
X292976Y479239D02*
X298307D01*
Y475240D01*
X295641Y476573D01*
X294308D01*
X292976Y475240D01*
Y472574D01*
X294308Y471241D01*
X296974D01*
X298307Y472574D01*
X197233Y307686D02*
X198566Y309019D01*
X201232D01*
X202565Y307686D01*
Y302354D01*
X201232Y301021D01*
X198566D01*
X197233Y302354D01*
X190568Y301021D02*
Y309019D01*
X194567Y305020D01*
X189235D01*
X241423Y71316D02*
X242756Y72649D01*
X245422D01*
X246754Y71316D01*
Y65984D01*
X245422Y64651D01*
X242756D01*
X241423Y65984D01*
X238757Y71316D02*
X237424Y72649D01*
X234758D01*
X233426Y71316D01*
Y69983D01*
X234758Y68650D01*
X236091D01*
X234758D01*
X233426Y67317D01*
Y65984D01*
X234758Y64651D01*
X237424D01*
X238757Y65984D01*
X188503Y71606D02*
X189836Y72939D01*
X192502D01*
X193834Y71606D01*
Y66274D01*
X192502Y64941D01*
X189836D01*
X188503Y66274D01*
X180506Y64941D02*
X185837D01*
X180506Y70273D01*
Y71606D01*
X181838Y72939D01*
X184504D01*
X185837Y71606D01*
X315710Y116686D02*
X317043Y118019D01*
X319709D01*
X321042Y116686D01*
Y111354D01*
X319709Y110021D01*
X317043D01*
X315710Y111354D01*
X313044Y110021D02*
X310378D01*
X311711D01*
Y118019D01*
X313044Y116686D01*
X420963Y526859D02*
X423629D01*
X422296D01*
Y520194D01*
X423629Y518861D01*
X424962D01*
X426295Y520194D01*
X414298Y518861D02*
Y526859D01*
X418297Y522860D01*
X412966D01*
D110*
X122021Y141731D02*
X138022D01*
Y152401D02*
Y155699D01*
X122021Y166369D02*
X138022D01*
D111*
X186001Y586200D02*
D03*
D112*
X174029Y411253D02*
D03*
X134771Y411247D02*
D03*
X436228Y414449D02*
D03*
X475472Y414451D02*
D03*
X121979Y411153D02*
D03*
X82721Y411147D02*
D03*
X168720Y155548D02*
D03*
X207979Y155551D02*
D03*
X220719Y155850D02*
D03*
X259981Y155850D02*
D03*
M02*
