G04*
G04 #@! TF.GenerationSoftware,Altium Limited,Altium Designer,21.2.2 (38)*
G04*
G04 Layer_Color=16711935*
%FSLAX25Y25*%
%MOIN*%
G70*
G04*
G04 #@! TF.SameCoordinates,3B8D8C8F-B8B0-4305-BFF5-38056C6EFB40*
G04*
G04*
G04 #@! TF.FilePolarity,Positive*
G04*
G01*
G75*
%ADD10C,0.00787*%
%ADD12C,0.01968*%
%ADD13C,0.03937*%
%ADD15C,0.00500*%
%ADD16C,0.00394*%
%ADD17C,0.01000*%
%ADD19C,0.01181*%
%ADD21R,0.07343X0.05965*%
%ADD23C,0.00197*%
%ADD112R,0.04024X0.18110*%
%ADD113R,0.14173X0.02420*%
D10*
X11476Y34685D02*
G03*
X11476Y34685I-394J0D01*
G01*
X134980Y72854D02*
G03*
X134980Y72854I-394J0D01*
G01*
X126496Y21024D02*
Y57146D01*
X29547Y7343D02*
Y22421D01*
X38740D01*
X29547Y7343D02*
X36949D01*
X38740Y22421D02*
Y49665D01*
X36949Y7343D02*
X40295Y3996D01*
X99594D01*
X126496Y21024D02*
X150000D01*
Y3996D02*
Y21024D01*
X99594Y3996D02*
X150000D01*
X137776Y57146D02*
X149862D01*
Y74016D01*
X126496Y57146D02*
X137776D01*
X38622Y49784D02*
X38740Y49665D01*
X28721Y49784D02*
X38622D01*
X28721D02*
Y67677D01*
Y74016D01*
X149862D01*
X1138Y6248D02*
X18461D01*
Y-445D02*
Y6248D01*
X1138Y-445D02*
X18461D01*
X1138D02*
Y6248D01*
X14917Y-445D02*
Y6248D01*
X177382Y180669D02*
X191161D01*
Y173976D02*
Y180669D01*
X177382Y173976D02*
X191161D01*
X177382D02*
Y180669D01*
X177461Y166024D02*
X191240D01*
X177461D02*
Y172716D01*
X191240D01*
Y166024D02*
Y172716D01*
X162815Y165965D02*
X176594D01*
X162815D02*
Y172658D01*
X176594D01*
Y165965D02*
Y172658D01*
X162795Y165020D02*
X176575D01*
Y158327D02*
Y165020D01*
X162795Y158327D02*
X176575D01*
X162795D02*
Y165020D01*
X162874Y157421D02*
X176654D01*
Y150728D02*
Y157421D01*
X162874Y150728D02*
X176654D01*
X162874D02*
Y157421D01*
X173701Y150728D02*
Y157421D01*
X138681Y172776D02*
Y179469D01*
Y172776D02*
X152461D01*
Y179469D01*
X138681D02*
X152461D01*
X152500Y165236D02*
Y171929D01*
X138721D02*
X152500D01*
X138721Y165236D02*
Y171929D01*
Y165236D02*
X152500D01*
X152421Y157697D02*
Y164390D01*
X138642D02*
X152421D01*
X138642Y157697D02*
Y164390D01*
Y157697D02*
X152421D01*
X138779Y151870D02*
X146201D01*
X138779Y147579D02*
Y151870D01*
Y147579D02*
X146201D01*
Y151870D01*
X153524Y142441D02*
Y146732D01*
X146102Y142441D02*
X153524D01*
X146102D02*
Y146732D01*
X153524D01*
X146181Y137264D02*
Y141555D01*
X138760Y137264D02*
X146181D01*
X138760D02*
Y141555D01*
X146181D01*
X162736Y173996D02*
X176516D01*
X162736D02*
Y180689D01*
X176516D01*
Y173996D02*
Y180689D01*
X236221Y190925D02*
Y236221D01*
X0D02*
X236221D01*
Y158150D02*
Y190925D01*
X151358Y20D02*
Y93189D01*
X44587Y20D02*
X151358D01*
Y93189D02*
X236221D01*
X0Y0D02*
X44488D01*
X0Y181791D02*
X0Y0D01*
X236221Y93189D02*
Y158150D01*
X0Y181791D02*
Y236221D01*
D12*
X200044Y164803D02*
G03*
X200044Y164803I-1028J0D01*
G01*
X123031Y192854D02*
X123031Y91102D01*
X15827Y192854D02*
X123031D01*
X15827Y85650D02*
Y192854D01*
Y85650D02*
X117579D01*
X123031Y91102D01*
D13*
X128734Y101713D02*
G03*
X128734Y101713I-230J0D01*
G01*
D15*
X15216Y18150D02*
Y29961D01*
X5374Y18150D02*
Y29961D01*
Y18150D02*
X15216D01*
X5374Y29961D02*
X15216D01*
X130453Y77579D02*
Y89390D01*
X140295Y77579D02*
Y89390D01*
X130453D02*
X140295D01*
X130453Y77579D02*
X140295D01*
X192677Y189488D02*
Y224626D01*
X232677D01*
Y189488D02*
Y224626D01*
X192677Y189488D02*
X232677D01*
D16*
X144862Y128917D02*
Y132638D01*
X139173Y128917D02*
X144862D01*
X139173Y132638D02*
X144862D01*
X139173Y128917D02*
Y132638D01*
X140472Y128927D02*
Y132618D01*
X124114Y74744D02*
Y78435D01*
X125413Y74724D02*
Y78445D01*
X119724Y74724D02*
X125413D01*
X119724Y78445D02*
X125413D01*
X119724Y74724D02*
Y78445D01*
X16594Y34685D02*
X20315D01*
Y28996D02*
Y34685D01*
X16594Y28996D02*
Y34685D01*
Y28996D02*
X20315D01*
X16614Y30295D02*
X20305D01*
X141555Y126713D02*
X147067D01*
X141555Y114902D02*
Y126713D01*
X147067Y114902D02*
Y126713D01*
X141555Y114902D02*
X147067D01*
X141555Y102303D02*
X147067D01*
Y114114D01*
X141555Y102303D02*
Y114114D01*
X147067D01*
X172146Y131634D02*
Y137933D01*
X159154Y131634D02*
Y137933D01*
Y131634D02*
X172146D01*
X159154Y137933D02*
X172146D01*
X194232Y95177D02*
Y113287D01*
X224153Y95177D02*
Y113287D01*
X194232D02*
X224153D01*
X194232Y95177D02*
X224153D01*
X173504Y226220D02*
X187677D01*
X173504Y208228D02*
X187677D01*
Y226220D01*
X173504Y208228D02*
Y226220D01*
D17*
X140866Y147697D02*
Y151752D01*
X148189Y142559D02*
Y146614D01*
X140847Y137382D02*
Y141437D01*
D19*
X230669Y114882D02*
Y162126D01*
X183425D02*
X230669D01*
X183425Y114882D02*
Y162126D01*
Y114882D02*
X230669D01*
D21*
X32392Y26152D02*
D03*
D23*
X14626Y17165D02*
X16201D01*
Y30945D01*
X14626D02*
X16201D01*
X4390D02*
X5965D01*
X4390Y17165D02*
Y30945D01*
Y17165D02*
X5965D01*
Y14803D02*
Y17165D01*
Y14803D02*
X14626D01*
Y17165D01*
Y30945D02*
Y33307D01*
X5965D02*
X14626D01*
X5965Y30945D02*
Y33307D01*
X129469Y90374D02*
X131043D01*
X129469Y76595D02*
Y90374D01*
Y76595D02*
X131043D01*
X139705D02*
X141279D01*
Y90374D01*
X139705D02*
X141279D01*
X139705D02*
Y92736D01*
X131043D02*
X139705D01*
X131043Y90374D02*
Y92736D01*
Y74232D02*
Y76595D01*
Y74232D02*
X139705D01*
Y76595D01*
X-29756Y203508D02*
X32764D01*
X-29756D02*
Y234453D01*
X32764D01*
Y203508D02*
Y234453D01*
D112*
X196245Y104232D02*
D03*
D113*
X180592Y209438D02*
D03*
M02*
