G04*
G04 #@! TF.GenerationSoftware,Altium Limited,Altium Designer,21.2.2 (38)*
G04*
G04 Layer_Physical_Order=2*
G04 Layer_Color=32768*
%FSLAX25Y25*%
%MOIN*%
G70*
G04*
G04 #@! TF.SameCoordinates,3B8D8C8F-B8B0-4305-BFF5-38056C6EFB40*
G04*
G04*
G04 #@! TF.FilePolarity,Negative*
G04*
G01*
G75*
%ADD10C,0.00787*%
%ADD23C,0.00197*%
%ADD81C,0.04000*%
%ADD82C,0.07543*%
%ADD83C,0.08000*%
G04:AMPARAMS|DCode=84|XSize=100mil|YSize=100mil|CornerRadius=0mil|HoleSize=0mil|Usage=FLASHONLY|Rotation=0.000|XOffset=0mil|YOffset=0mil|HoleType=Round|Shape=Relief|Width=10mil|Gap=10mil|Entries=4|*
%AMTHD84*
7,0,0,0.10000,0.08000,0.01000,45*
%
%ADD84THD84*%
G04:AMPARAMS|DCode=85|XSize=119.055mil|YSize=119.055mil|CornerRadius=0mil|HoleSize=0mil|Usage=FLASHONLY|Rotation=0.000|XOffset=0mil|YOffset=0mil|HoleType=Round|Shape=Relief|Width=10mil|Gap=10mil|Entries=4|*
%AMTHD85*
7,0,0,0.11906,0.09906,0.01000,45*
%
%ADD85THD85*%
%ADD86C,0.09512*%
%AMTHOVALD87*
21,1,0.02756,0.07969,0,0,90.0*
1,1,0.07969,0.00000,-0.01378*
1,1,0.07969,0.00000,0.01378*
21,0,0.02756,0.05969,0,0,90.0*
1,0,0.05969,0.00000,-0.01378*
1,0,0.05969,0.00000,0.01378*
4,0,4,0.00354,-0.01024,0.03171,-0.03842,0.02464,-0.04549,-0.00354,-0.01732,0.00354,-0.01024,0.0*
4,0,4,0.00354,0.01732,-0.02464,0.04549,-0.03171,0.03842,-0.00354,0.01024,0.00354,0.01732,0.0*
4,0,4,0.00354,-0.01732,-0.02464,-0.04549,-0.03171,-0.03842,-0.00354,-0.01024,0.00354,-0.01732,0.0*
4,0,4,0.00354,0.01024,0.03171,0.03842,0.02464,0.04549,-0.00354,0.01732,0.00354,0.01024,0.0*
%
%ADD87THOVALD87*%

%ADD88C,0.05181*%
D10*
X236221Y190925D02*
Y236221D01*
X0D02*
X236221D01*
Y158150D02*
Y190925D01*
X151358Y20D02*
Y93189D01*
X44587Y20D02*
X151358D01*
Y93189D02*
X236221D01*
X0Y0D02*
X44488D01*
X0Y181791D02*
X0Y0D01*
X236221Y93189D02*
Y158150D01*
X0Y181791D02*
Y236221D01*
D23*
X14626Y17165D02*
X16201D01*
Y30945D01*
X14626D02*
X16201D01*
X4390D02*
X5965D01*
X4390Y17165D02*
Y30945D01*
Y17165D02*
X5965D01*
Y14803D02*
Y17165D01*
Y14803D02*
X14626D01*
Y17165D01*
Y30945D02*
Y33307D01*
X5965D02*
X14626D01*
X5965Y30945D02*
Y33307D01*
X129469Y90374D02*
X131043D01*
X129469Y76595D02*
Y90374D01*
Y76595D02*
X131043D01*
X139705D02*
X141279D01*
Y90374D01*
X139705D02*
X141279D01*
X139705D02*
Y92736D01*
X131043D02*
X139705D01*
X131043Y90374D02*
Y92736D01*
Y74232D02*
Y76595D01*
Y74232D02*
X139705D01*
Y76595D01*
X-29756Y203508D02*
X32764D01*
X-29756D02*
Y234453D01*
X32764D01*
Y203508D02*
Y234453D01*
D81*
X44587Y20D02*
X151358D01*
Y93189D01*
X236221D01*
Y236221D01*
X0Y0D02*
X44488D01*
X44587Y20D01*
X0Y236221D02*
X236221D01*
X0Y181791D02*
Y236221D01*
Y181791D02*
X0Y0D01*
D82*
X6819Y47972D02*
D03*
Y59784D02*
D03*
D83*
X163110Y215079D02*
D03*
X153110D02*
D03*
X143110D02*
D03*
X133110D02*
D03*
X123110D02*
D03*
X113110D02*
D03*
X103110D02*
D03*
X93110D02*
D03*
X83110D02*
D03*
X73110D02*
D03*
X113110Y225079D02*
D03*
X103110D02*
D03*
X93110D02*
D03*
X83110D02*
D03*
X73110D02*
D03*
D84*
X163110D02*
D03*
X153110D02*
D03*
X143110D02*
D03*
X133110D02*
D03*
X123110D02*
D03*
D85*
X27331Y229020D02*
D03*
X7252D02*
D03*
Y208941D02*
D03*
X27331D02*
D03*
D86*
X17291Y218980D02*
D03*
D87*
X59842Y6752D02*
D03*
X85827D02*
D03*
D88*
X122539Y145618D02*
D03*
Y148728D02*
D03*
X11244Y26421D02*
D03*
X18910Y58661D02*
D03*
X19429Y54409D02*
D03*
X15563Y40425D02*
D03*
X20890Y68677D02*
D03*
X111161Y39626D02*
D03*
X40295Y150965D02*
D03*
X113847Y231327D02*
D03*
X106252Y231264D02*
D03*
X97823D02*
D03*
X68713Y231197D02*
D03*
X78224Y231008D02*
D03*
X87866Y230941D02*
D03*
X191969Y183465D02*
D03*
X143780Y189134D02*
D03*
X199056Y163622D02*
D03*
X197638Y160788D02*
D03*
X194804Y177796D02*
D03*
Y172126D02*
D03*
Y166457D02*
D03*
X193386Y163622D02*
D03*
Y157953D02*
D03*
X186300Y183465D02*
D03*
X187717Y157953D02*
D03*
X157953Y189134D02*
D03*
X149449D02*
D03*
X135276D02*
D03*
X115433Y206142D02*
D03*
X109764D02*
D03*
X106929D02*
D03*
X101260D02*
D03*
X98426Y211811D02*
D03*
X70079Y206142D02*
D03*
X67244D02*
D03*
X176378Y118268D02*
D03*
X186300Y121103D02*
D03*
Y109764D02*
D03*
Y104095D02*
D03*
X183465Y115433D02*
D03*
Y109764D02*
D03*
Y104095D02*
D03*
Y98426D02*
D03*
X182048Y118268D02*
D03*
Y112599D02*
D03*
Y106929D02*
D03*
Y101260D02*
D03*
X177796Y121103D02*
D03*
Y109764D02*
D03*
Y104095D02*
D03*
Y98426D02*
D03*
X174961Y115433D02*
D03*
X176378Y106929D02*
D03*
Y101260D02*
D03*
X172126Y121103D02*
D03*
Y109764D02*
D03*
Y98426D02*
D03*
X170709Y118268D02*
D03*
X4201Y7571D02*
D03*
X152031Y115504D02*
D03*
X153063Y106024D02*
D03*
X59997Y50672D02*
D03*
X32500Y36260D02*
D03*
X60827Y55610D02*
D03*
X144665Y46083D02*
D03*
X149055Y69095D02*
D03*
X32362Y52441D02*
D03*
X165689Y97067D02*
D03*
X20071Y7776D02*
D03*
X75354Y85748D02*
D03*
X122933Y156909D02*
D03*
X51693Y85847D02*
D03*
X9370Y137284D02*
D03*
X111496Y68819D02*
D03*
X67461Y85847D02*
D03*
X55787D02*
D03*
X8819Y93228D02*
D03*
X66555Y73366D02*
D03*
X63543Y85866D02*
D03*
X71398Y73339D02*
D03*
X35925Y86457D02*
D03*
X170236Y161673D02*
D03*
X44279Y223933D02*
D03*
X51228Y223973D02*
D03*
X44469Y211595D02*
D03*
X160709Y192008D02*
D03*
X138878Y187205D02*
D03*
X174646Y192067D02*
D03*
X138878Y192106D02*
D03*
X182027Y191969D02*
D03*
X167421Y187165D02*
D03*
X160709Y187106D02*
D03*
X153484Y192098D02*
D03*
X174646Y187165D02*
D03*
X182027Y187067D02*
D03*
X167421Y192067D02*
D03*
X146102Y192130D02*
D03*
X153496Y187201D02*
D03*
X37795Y104449D02*
D03*
X111594Y63642D02*
D03*
X103032Y61890D02*
D03*
X56024Y72224D02*
D03*
X61831Y68740D02*
D03*
X84460Y61782D02*
D03*
X70000Y68622D02*
D03*
X102835Y68760D02*
D03*
X96142Y68740D02*
D03*
X89547Y68681D02*
D03*
X82835D02*
D03*
X76319Y68622D02*
D03*
X49862Y24468D02*
D03*
X71004Y124646D02*
D03*
X164389Y141791D02*
D03*
X134331Y13268D02*
D03*
X77972Y13307D02*
D03*
X98405Y158898D02*
D03*
X49841Y6058D02*
D03*
X141417Y176142D02*
D03*
X141398Y161240D02*
D03*
X141358Y168720D02*
D03*
X3071Y123228D02*
D03*
X2716Y137126D02*
D03*
X51417Y211634D02*
D03*
X58162Y211638D02*
D03*
X44469Y217815D02*
D03*
X51417Y217854D02*
D03*
X58162Y217858D02*
D03*
X57972Y223976D02*
D03*
X57919Y230086D02*
D03*
X51174Y230083D02*
D03*
X44225Y230043D02*
D03*
X98760Y174114D02*
D03*
X138287Y208130D02*
D03*
X96398Y169567D02*
D03*
M02*
