G04*
G04 #@! TF.GenerationSoftware,Altium Limited,Altium Designer,21.2.0 (30)*
G04*
G04 Layer_Physical_Order=3*
G04 Layer_Color=128*
%FSLAX44Y44*%
%MOMM*%
G71*
G04*
G04 #@! TF.SameCoordinates,3BC8F3D4-7935-4982-82F0-2F2C798F560B*
G04*
G04*
G04 #@! TF.FilePolarity,Negative*
G04*
G01*
G75*
%ADD10C,0.2000*%
%ADD13C,1.0000*%
%ADD82C,1.0160*%
%ADD83C,1.9160*%
%ADD84C,2.4160*%
%ADD86C,2.0320*%
G04:AMPARAMS|DCode=87|XSize=2.54mm|YSize=2.54mm|CornerRadius=0mm|HoleSize=0mm|Usage=FLASHONLY|Rotation=0.000|XOffset=0mm|YOffset=0mm|HoleType=Round|Shape=Relief|Width=0.254mm|Gap=0.254mm|Entries=4|*
%AMTHD87*
7,0,0,2.5400,2.0320,0.2540,45*
%
%ADD87THD87*%
%ADD89C,1.3160*%
%ADD90C,2.5160*%
%ADD91O,1.5160X2.2160*%
D10*
X600000Y484950D02*
Y600000D01*
X0D02*
X600000D01*
Y401700D02*
Y484950D01*
X384450Y50D02*
Y236700D01*
X113250Y50D02*
X384450D01*
Y236700D02*
X600000D01*
X0Y0D02*
X113000D01*
X0Y461750D02*
X0Y0D01*
X600000Y236700D02*
Y401700D01*
X0Y461750D02*
Y600000D01*
D13*
X316300Y950D02*
Y278800D01*
X315850Y437850D02*
Y526800D01*
Y437850D02*
X316000Y437700D01*
X316300Y278800D02*
X316500Y279000D01*
X463650D01*
X463600Y279050D02*
X463650Y279000D01*
X463600Y279050D02*
Y437650D01*
X463550Y437700D02*
X463600Y437650D01*
X316000Y437700D02*
X463550D01*
X163950Y526800D02*
X315850D01*
X163950D02*
Y599750D01*
D82*
X113250Y50D02*
X384450D01*
Y236700D01*
X600000D01*
Y600000D01*
X0Y0D02*
X113000D01*
X113250Y50D01*
X0Y600000D02*
X600000D01*
X0Y461750D02*
Y600000D01*
Y461750D02*
X0Y0D01*
D83*
X17320Y121850D02*
D03*
Y151850D02*
D03*
D84*
X43920Y556210D02*
D03*
D86*
X414300Y546300D02*
D03*
X388900D02*
D03*
X363500D02*
D03*
X338100D02*
D03*
X312700D02*
D03*
X287300D02*
D03*
X261900D02*
D03*
X236500D02*
D03*
X211100D02*
D03*
X185700D02*
D03*
X414300Y571700D02*
D03*
X388900D02*
D03*
X363500D02*
D03*
X338100D02*
D03*
X312700D02*
D03*
D87*
X287300D02*
D03*
X261900D02*
D03*
X236500D02*
D03*
X211100D02*
D03*
X185700D02*
D03*
D89*
X101410Y383400D02*
D03*
X54300Y460640D02*
D03*
X22400Y236800D02*
D03*
X28560Y67110D02*
D03*
X55970Y277960D02*
D03*
X311250Y377770D02*
D03*
Y369870D02*
D03*
X35180Y532980D02*
D03*
X43440Y502130D02*
D03*
X49670Y508300D02*
D03*
X51230Y525180D02*
D03*
X51260Y516710D02*
D03*
Y540830D02*
D03*
Y533270D02*
D03*
X311250Y298650D02*
D03*
X48030Y149000D02*
D03*
X49350Y138200D02*
D03*
X39530Y102680D02*
D03*
X52920Y111140D02*
D03*
X53060Y174440D02*
D03*
X35120Y524460D02*
D03*
Y541040D02*
D03*
X34400Y516580D02*
D03*
X25570Y516410D02*
D03*
X28440Y468510D02*
D03*
X20080Y469140D02*
D03*
X19920Y477020D02*
D03*
X19870Y485430D02*
D03*
X19980Y494050D02*
D03*
X25150Y500060D02*
D03*
X34290Y500160D02*
D03*
X13200Y515400D02*
D03*
X6180Y509990D02*
D03*
X3770Y501070D02*
D03*
Y492780D02*
D03*
X3710Y484370D02*
D03*
X3770Y475420D02*
D03*
X3790Y466220D02*
D03*
X4830Y456490D02*
D03*
X361841Y340612D02*
D03*
X450350Y376700D02*
D03*
X343800Y207300D02*
D03*
X293201Y523601D02*
D03*
X278801D02*
D03*
X271601D02*
D03*
X257201D02*
D03*
X178001D02*
D03*
X170801D02*
D03*
X473201Y307601D02*
D03*
Y278801D02*
D03*
Y264401D02*
D03*
X466001Y293201D02*
D03*
Y278801D02*
D03*
Y264401D02*
D03*
Y250001D02*
D03*
X462401Y300401D02*
D03*
Y286001D02*
D03*
Y271601D02*
D03*
Y257201D02*
D03*
X451601Y278801D02*
D03*
Y264401D02*
D03*
Y250001D02*
D03*
X448001Y271601D02*
D03*
Y257201D02*
D03*
X437201Y278801D02*
D03*
Y250001D02*
D03*
X9450Y448750D02*
D03*
X386159Y293379D02*
D03*
X386650Y280450D02*
D03*
X388779Y269300D02*
D03*
X359600Y66500D02*
D03*
X152394Y128706D02*
D03*
X82550Y92100D02*
D03*
X154500Y141250D02*
D03*
X367450Y117050D02*
D03*
X378600Y175500D02*
D03*
X82200Y133200D02*
D03*
X420850Y246550D02*
D03*
X50980Y19750D02*
D03*
X562750Y496150D02*
D03*
X540150Y473100D02*
D03*
X530950Y496300D02*
D03*
X574500Y473000D02*
D03*
X514550Y496700D02*
D03*
X578850Y496150D02*
D03*
X547150Y496450D02*
D03*
X294000Y194450D02*
D03*
X9400Y260700D02*
D03*
X191400Y217800D02*
D03*
X312250Y398550D02*
D03*
X81100Y485000D02*
D03*
X121200Y184600D02*
D03*
X131300Y218050D02*
D03*
X326300Y247350D02*
D03*
X88900Y169900D02*
D03*
X9550Y432250D02*
D03*
X23800Y348700D02*
D03*
X311000Y348650D02*
D03*
X311850Y388550D02*
D03*
X283200Y174800D02*
D03*
X10150Y288750D02*
D03*
X342361Y465061D02*
D03*
X171350Y218050D02*
D03*
X111200Y184650D02*
D03*
X9850Y278700D02*
D03*
X141700Y218050D02*
D03*
X169050Y186350D02*
D03*
X161400Y218100D02*
D03*
X181350Y186280D02*
D03*
X91250Y219600D02*
D03*
X561100Y281250D02*
D03*
X230600Y405400D02*
D03*
X72450Y398850D02*
D03*
X72200Y416950D02*
D03*
X109500Y276350D02*
D03*
X208450Y366450D02*
D03*
X112468Y568790D02*
D03*
X130118Y568890D02*
D03*
X112950Y537450D02*
D03*
X96000Y265300D02*
D03*
X184600Y336400D02*
D03*
X184700Y361550D02*
D03*
X128200Y359850D02*
D03*
X127900Y341600D02*
D03*
X103550Y142700D02*
D03*
X302600Y105200D02*
D03*
X302850Y90550D02*
D03*
X284500Y84950D02*
D03*
X266600Y90600D02*
D03*
X266950Y105450D02*
D03*
X214050Y105200D02*
D03*
X214450Y91350D02*
D03*
X308750Y458700D02*
D03*
X38350Y206600D02*
D03*
X398250Y452500D02*
D03*
X283450Y161650D02*
D03*
X261700Y157200D02*
D03*
X142300Y183450D02*
D03*
X157050Y174600D02*
D03*
X214529Y156926D02*
D03*
X177800Y174300D02*
D03*
X261200Y174650D02*
D03*
X244200Y174600D02*
D03*
X227450Y174450D02*
D03*
X210400D02*
D03*
X193850Y174300D02*
D03*
X172050Y57700D02*
D03*
X133100Y93400D02*
D03*
X56100Y84450D02*
D03*
X126650Y62150D02*
D03*
X180350Y316600D02*
D03*
X432500Y450450D02*
D03*
X466600Y451175D02*
D03*
X478800Y417150D02*
D03*
X198050Y33800D02*
D03*
X254700Y468500D02*
D03*
X435450Y263900D02*
D03*
X249950Y403600D02*
D03*
X126596Y15387D02*
D03*
X359200Y447400D02*
D03*
X359150Y409550D02*
D03*
X359050Y428550D02*
D03*
X7800Y313000D02*
D03*
X6900Y348300D02*
D03*
X130600Y537550D02*
D03*
X147732Y537560D02*
D03*
X112950Y553250D02*
D03*
X130600Y553350D02*
D03*
X147732Y553360D02*
D03*
X147250Y568900D02*
D03*
X147113Y584420D02*
D03*
X129982Y584410D02*
D03*
X112332Y584310D02*
D03*
X250850Y442250D02*
D03*
X351250Y528650D02*
D03*
X244850Y430700D02*
D03*
D90*
X18420Y530710D02*
D03*
Y581710D02*
D03*
X69420D02*
D03*
Y530710D02*
D03*
D91*
X152000Y17150D02*
D03*
X218000D02*
D03*
M02*
