G04*
G04 #@! TF.GenerationSoftware,Altium Limited,Altium Designer,21.2.2 (38)*
G04*
G04 Layer_Color=16711935*
%FSLAX44Y44*%
%MOMM*%
G71*
G04*
G04 #@! TF.SameCoordinates,5D373D79-2AE2-4A4B-8A42-8ECBCE4D18FA*
G04*
G04*
G04 #@! TF.FilePolarity,Negative*
G04*
G01*
G75*
%ADD10C,0.2000*%
%ADD47R,0.6032X0.8032*%
%ADD51R,1.1032X1.4032*%
%ADD63C,0.5032*%
%ADD64C,2.3032*%
%ADD65C,2.4532*%
%ADD66C,1.7532*%
G04:AMPARAMS|DCode=67|XSize=1.7532mm|YSize=1.7532mm|CornerRadius=0.4891mm|HoleSize=0mm|Usage=FLASHONLY|Rotation=0.000|XOffset=0mm|YOffset=0mm|HoleType=Round|Shape=RoundedRectangle|*
%AMROUNDEDRECTD67*
21,1,1.7532,0.7750,0,0,0.0*
21,1,0.7750,1.7532,0,0,0.0*
1,1,0.9782,0.3875,-0.3875*
1,1,0.9782,-0.3875,-0.3875*
1,1,0.9782,-0.3875,0.3875*
1,1,0.9782,0.3875,0.3875*
%
%ADD67ROUNDEDRECTD67*%
%ADD68O,1.1032X1.8032*%
%ADD69C,0.8032*%
%ADD99R,2.6532X2.7532*%
%ADD100R,1.6032X1.5032*%
%ADD101R,1.4032X1.1032*%
%ADD102R,2.1032X2.0032*%
G04:AMPARAMS|DCode=103|XSize=1.8032mm|YSize=1.6032mm|CornerRadius=0.4516mm|HoleSize=0mm|Usage=FLASHONLY|Rotation=180.000|XOffset=0mm|YOffset=0mm|HoleType=Round|Shape=RoundedRectangle|*
%AMROUNDEDRECTD103*
21,1,1.8032,0.7000,0,0,180.0*
21,1,0.9000,1.6032,0,0,180.0*
1,1,0.9032,-0.4500,0.3500*
1,1,0.9032,0.4500,0.3500*
1,1,0.9032,0.4500,-0.3500*
1,1,0.9032,-0.4500,-0.3500*
%
%ADD103ROUNDEDRECTD103*%
%ADD104O,0.6032X1.5532*%
%ADD105R,1.2827X0.5532*%
%ADD106R,1.0032X1.1032*%
%ADD107R,0.6532X1.2532*%
D10*
X600000Y484950D02*
Y600000D01*
X0D02*
X600000D01*
Y401700D02*
Y484950D01*
X384450Y50D02*
Y236700D01*
X113250Y50D02*
X384450D01*
Y236700D02*
X600000D01*
X0Y0D02*
X113000D01*
X0Y461750D02*
X0Y0D01*
X600000Y236700D02*
Y401700D01*
X0Y461750D02*
Y600000D01*
D47*
X289350Y114150D02*
D03*
X282350D02*
D03*
X58050Y206500D02*
D03*
X65050D02*
D03*
D51*
X142450Y319550D02*
D03*
X121450D02*
D03*
X159350Y305050D02*
D03*
X180350D02*
D03*
X180250Y285450D02*
D03*
X159250D02*
D03*
X85475Y299375D02*
D03*
X106475D02*
D03*
X371300Y447800D02*
D03*
X350300D02*
D03*
X371400Y428650D02*
D03*
X350400D02*
D03*
X371200Y409500D02*
D03*
X350200D02*
D03*
X368450Y325450D02*
D03*
X347450D02*
D03*
X368450Y306400D02*
D03*
X347450D02*
D03*
X368300Y286000D02*
D03*
X347300D02*
D03*
X368400Y266950D02*
D03*
X347400D02*
D03*
D63*
X17320Y121850D02*
D03*
Y151850D02*
D03*
D64*
X43920Y556210D02*
D03*
D65*
X69420Y530710D02*
D03*
X18420D02*
D03*
Y581710D02*
D03*
X69420D02*
D03*
D66*
X414300Y546300D02*
D03*
X388900D02*
D03*
X363500D02*
D03*
X338100D02*
D03*
X312700D02*
D03*
X287300D02*
D03*
X261900D02*
D03*
X236500D02*
D03*
X211100D02*
D03*
X185700D02*
D03*
X414300Y571700D02*
D03*
X388900D02*
D03*
X363500D02*
D03*
X338100D02*
D03*
X312700D02*
D03*
X287300D02*
D03*
X261900D02*
D03*
X236500D02*
D03*
X211100D02*
D03*
D67*
X185700D02*
D03*
D68*
X152000Y17150D02*
D03*
X218000D02*
D03*
D69*
X28560Y67110D02*
D03*
X48030Y149000D02*
D03*
X49350Y138200D02*
D03*
X39530Y102680D02*
D03*
D99*
X154400Y406250D02*
D03*
Y345750D02*
D03*
X455850Y348950D02*
D03*
Y409450D02*
D03*
X102350Y406150D02*
D03*
Y345650D02*
D03*
X188350Y90050D02*
D03*
Y150550D02*
D03*
X240350Y90350D02*
D03*
Y150850D02*
D03*
D100*
X283000Y130950D02*
D03*
Y146950D02*
D03*
D101*
X315600Y127800D02*
D03*
Y148800D02*
D03*
X53300Y162200D02*
D03*
Y183200D02*
D03*
X52900Y123200D02*
D03*
Y102200D02*
D03*
X114200Y128800D02*
D03*
Y107800D02*
D03*
X133300Y128800D02*
D03*
Y107800D02*
D03*
X152300Y128800D02*
D03*
Y107800D02*
D03*
X126600Y47950D02*
D03*
Y26950D02*
D03*
X95950Y276300D02*
D03*
Y255300D02*
D03*
X131950Y266950D02*
D03*
Y245950D02*
D03*
X299650Y460700D02*
D03*
Y439700D02*
D03*
X231300Y447300D02*
D03*
Y468300D02*
D03*
D102*
X173000Y17150D02*
D03*
X197000D02*
D03*
D103*
X153000Y41650D02*
D03*
X217000D02*
D03*
D104*
X185000Y43900D02*
D03*
X191500D02*
D03*
X198000D02*
D03*
X172000D02*
D03*
X178500D02*
D03*
D105*
X142150Y147550D02*
D03*
Y160550D02*
D03*
X117893D02*
D03*
Y154050D02*
D03*
Y147550D02*
D03*
D106*
X132150Y282350D02*
D03*
X141650Y302350D02*
D03*
X122650D02*
D03*
D107*
X289150Y361200D02*
D03*
X282650D02*
D03*
X276150D02*
D03*
X269650D02*
D03*
X263150D02*
D03*
X256650D02*
D03*
X250150D02*
D03*
X243650D02*
D03*
X237150D02*
D03*
X230650D02*
D03*
X289150Y416700D02*
D03*
X282650D02*
D03*
X276150D02*
D03*
X269650D02*
D03*
X263150D02*
D03*
X256650D02*
D03*
X250150D02*
D03*
X243650D02*
D03*
X237150D02*
D03*
X230650D02*
D03*
M02*
