G04*
G04 #@! TF.GenerationSoftware,Altium Limited,Altium Designer,21.2.2 (38)*
G04*
G04 Layer_Color=16711935*
%FSLAX25Y25*%
%MOIN*%
G70*
G04*
G04 #@! TF.SameCoordinates,3B8D8C8F-B8B0-4305-BFF5-38056C6EFB40*
G04*
G04*
G04 #@! TF.FilePolarity,Negative*
G04*
G01*
G75*
%ADD10C,0.00787*%
%ADD23C,0.00197*%
%ADD48R,0.02375X0.03162*%
%ADD52R,0.04343X0.05524*%
%ADD64C,0.01981*%
%ADD65C,0.06902*%
G04:AMPARAMS|DCode=66|XSize=69.02mil|YSize=69.02mil|CornerRadius=19.26mil|HoleSize=0mil|Usage=FLASHONLY|Rotation=0.000|XOffset=0mil|YOffset=0mil|HoleType=Round|Shape=RoundedRectangle|*
%AMROUNDEDRECTD66*
21,1,0.06902,0.03051,0,0,0.0*
21,1,0.03051,0.06902,0,0,0.0*
1,1,0.03851,0.01526,-0.01526*
1,1,0.03851,-0.01526,-0.01526*
1,1,0.03851,-0.01526,0.01526*
1,1,0.03851,0.01526,0.01526*
%
%ADD66ROUNDEDRECTD66*%
%ADD67C,0.09658*%
%ADD68C,0.09068*%
%ADD69O,0.04343X0.07099*%
%ADD70C,0.03162*%
%ADD100R,0.10446X0.10839*%
%ADD101R,0.06312X0.05918*%
%ADD102R,0.05524X0.04343*%
%ADD103R,0.08280X0.07887*%
G04:AMPARAMS|DCode=104|XSize=70.99mil|YSize=63.12mil|CornerRadius=17.78mil|HoleSize=0mil|Usage=FLASHONLY|Rotation=180.000|XOffset=0mil|YOffset=0mil|HoleType=Round|Shape=RoundedRectangle|*
%AMROUNDEDRECTD104*
21,1,0.07099,0.02756,0,0,180.0*
21,1,0.03543,0.06312,0,0,180.0*
1,1,0.03556,-0.01772,0.01378*
1,1,0.03556,0.01772,0.01378*
1,1,0.03556,0.01772,-0.01378*
1,1,0.03556,-0.01772,-0.01378*
%
%ADD104ROUNDEDRECTD104*%
%ADD105O,0.02375X0.06115*%
%ADD106R,0.05050X0.02178*%
%ADD107R,0.03950X0.04343*%
%ADD108R,0.02572X0.04934*%
D10*
X236221Y190925D02*
Y236221D01*
X0D02*
X236221D01*
Y158150D02*
Y190925D01*
X151358Y20D02*
Y93189D01*
X44587Y20D02*
X151358D01*
Y93189D02*
X236221D01*
X0Y0D02*
X44488D01*
X0Y181791D02*
X0Y0D01*
X236221Y93189D02*
Y158150D01*
X0Y181791D02*
Y236221D01*
D23*
X14626Y17165D02*
X16201D01*
Y30945D01*
X14626D02*
X16201D01*
X4390D02*
X5965D01*
X4390Y17165D02*
Y30945D01*
Y17165D02*
X5965D01*
Y14803D02*
Y17165D01*
Y14803D02*
X14626D01*
Y17165D01*
Y30945D02*
Y33307D01*
X5965D02*
X14626D01*
X5965Y30945D02*
Y33307D01*
X129469Y90374D02*
X131043D01*
X129469Y76595D02*
Y90374D01*
Y76595D02*
X131043D01*
X139705D02*
X141279D01*
Y90374D01*
X139705D02*
X141279D01*
X139705D02*
Y92736D01*
X131043D02*
X139705D01*
X131043Y90374D02*
Y92736D01*
Y74232D02*
Y76595D01*
Y74232D02*
X139705D01*
Y76595D01*
X-29756Y203508D02*
X32764D01*
X-29756D02*
Y234453D01*
X32764D01*
Y203508D02*
Y234453D01*
D48*
X113917Y44941D02*
D03*
X111161D02*
D03*
X22854Y81299D02*
D03*
X25610D02*
D03*
D52*
X56083Y125807D02*
D03*
X47815D02*
D03*
X62736Y120098D02*
D03*
X71004D02*
D03*
X70965Y112382D02*
D03*
X62697D02*
D03*
X33652Y117864D02*
D03*
X41919D02*
D03*
X146181Y176299D02*
D03*
X137913D02*
D03*
X146221Y168760D02*
D03*
X137953D02*
D03*
X146142Y161221D02*
D03*
X137874D02*
D03*
X145059Y128130D02*
D03*
X136791D02*
D03*
X145059Y120630D02*
D03*
X136791D02*
D03*
X145000Y112598D02*
D03*
X136732D02*
D03*
X145039Y105098D02*
D03*
X136772D02*
D03*
D64*
X6819Y47972D02*
D03*
Y59784D02*
D03*
D65*
X163110Y215079D02*
D03*
X153110D02*
D03*
X143110D02*
D03*
X133110D02*
D03*
X123110D02*
D03*
X113110D02*
D03*
X103110D02*
D03*
X93110D02*
D03*
X83110D02*
D03*
X73110D02*
D03*
X163110Y225079D02*
D03*
X153110D02*
D03*
X143110D02*
D03*
X133110D02*
D03*
X123110D02*
D03*
X113110D02*
D03*
X103110D02*
D03*
X93110D02*
D03*
X83110D02*
D03*
D66*
X73110D02*
D03*
D67*
X27331Y229020D02*
D03*
X7252D02*
D03*
Y208941D02*
D03*
X27331D02*
D03*
D68*
X17291Y218980D02*
D03*
D69*
X59842Y6752D02*
D03*
X85827D02*
D03*
D70*
X11244Y26421D02*
D03*
X18910Y58661D02*
D03*
X19429Y54409D02*
D03*
X15563Y40425D02*
D03*
D100*
X60787Y159941D02*
D03*
Y136122D02*
D03*
X179469Y137382D02*
D03*
Y161201D02*
D03*
X40295Y159902D02*
D03*
Y136083D02*
D03*
X74154Y35453D02*
D03*
Y59272D02*
D03*
X94626Y35571D02*
D03*
Y59390D02*
D03*
D101*
X111417Y51555D02*
D03*
Y57854D02*
D03*
D102*
X124252Y50315D02*
D03*
Y58583D02*
D03*
X20984Y63858D02*
D03*
Y72126D02*
D03*
X20827Y48504D02*
D03*
Y40236D02*
D03*
X44961Y50709D02*
D03*
Y42441D02*
D03*
X52480Y50709D02*
D03*
Y42441D02*
D03*
X59961Y50709D02*
D03*
Y42441D02*
D03*
X49843Y18878D02*
D03*
Y10610D02*
D03*
X37776Y108780D02*
D03*
Y100512D02*
D03*
X51949Y105098D02*
D03*
Y96831D02*
D03*
X117972Y181378D02*
D03*
Y173110D02*
D03*
X91063Y176102D02*
D03*
Y184370D02*
D03*
D103*
X68110Y6752D02*
D03*
X77559D02*
D03*
D104*
X60236Y16398D02*
D03*
X85433D02*
D03*
D105*
X72835Y17284D02*
D03*
X75394D02*
D03*
X77953D02*
D03*
X67716D02*
D03*
X70276D02*
D03*
D106*
X55965Y58091D02*
D03*
Y63209D02*
D03*
X46415D02*
D03*
Y60650D02*
D03*
Y58091D02*
D03*
D107*
X52028Y111161D02*
D03*
X55768Y119035D02*
D03*
X48287D02*
D03*
D108*
X113839Y142205D02*
D03*
X111279D02*
D03*
X108721D02*
D03*
X106161D02*
D03*
X103602D02*
D03*
X101043D02*
D03*
X98484D02*
D03*
X95925D02*
D03*
X93366D02*
D03*
X90807D02*
D03*
X113839Y164055D02*
D03*
X111279D02*
D03*
X108721D02*
D03*
X106161D02*
D03*
X103602D02*
D03*
X101043D02*
D03*
X98484D02*
D03*
X95925D02*
D03*
X93366D02*
D03*
X90807D02*
D03*
M02*
