M48
;Layer_Color=9474304
;FILE_FORMAT=4:4
METRIC,LZ
;TYPE=PLATED
T1F00S00C0.3000
T3F00S00C0.8128
T4F00S00C0.9906
T5F00S00C1.0160
T6F00S00C1.5240
T7F00S00C1.7780
%
T01
X0001067Y0001923
X0005098Y0001975
X000561Y0008445
X000491Y0011055
X0008255Y000921
X000822Y001332
X0010355Y001427
X001331Y000934
X0012665Y0006215
X00126596Y00015387
X000083Y0008135
X0017205Y000577
X0019805Y000338
X0021445Y0009135
X0021405Y001052
X0026695Y0010545
X002666Y000906
X002845Y0008495
X0028235Y0010065
X003026Y001052
X0030285Y0009055
X003596Y000665
X003412Y000337
X0036745Y0011705
X00152394Y00128706
X001545Y0014125
X005611Y0028125
X005745Y00473
X0057885Y0049615
X0056275
X0054715Y0049645
X0054015Y004731
X0053095Y004963
X0051455Y004967
X00487601Y00466001
X00473201
X0046235Y0047515
Y004876
X004436Y0048785
Y004754
X0042525
Y0048785
X004082Y004877
Y0047525
X00401201Y00480401
X0038988Y0047549
X0038985Y0048793
X00379601Y00480401
X00365201
X003711Y0048801
X0035275Y0048795
Y004755
X00343601Y00480401
X00342361Y00465061
X003592Y004474
X0035905Y0042855
X0035915Y0040955
X0031225Y0039855
X0031185Y0038855
X0031125Y0037687
Y0036987
X00311Y0034865
X0031125Y0029865
X003263Y0024735
X003438Y002073
X00294Y0019445
X002832Y001748
X0028345Y0016165
X002617Y001572
X002612Y0017465
X002442Y001746
X0022745Y0017445
X002104
X0019385Y001743
X001778
X0018135Y0018628
X0016905Y0018635
X0015705Y001746
X001614Y002181
X0017135Y0021805
X001914Y002178
X00214529Y00156926
X003786Y001755
X00388779Y002693
X0038665Y0028045
X00386159Y00293379
X00433601Y00300401
X00437201Y00307601
X00451601
X00448001Y00300401
X00444401Y00293201
X00466001
X00462401Y00300401
Y00286001
X00466001Y00278801
X00473201
Y00264401
X00466001
X00462401Y00271601
Y00257201
X00466001Y00250001
X00451601
X00448001Y00257201
X00451601Y00264401
X00448001Y00271601
X00451601Y00278801
X00437201
X0043545Y002639
X00437201Y00250001
X0042085Y0024655
X00473201Y00307601
X0045035Y003767
X00417548Y0036015
X004324Y0041065
X004325Y0045045
X004666Y00451175
X00494801Y00451601
Y00437201
Y00422801
X00491201Y00415601
X004788Y0041715
X00476801Y00401201
X00491201
X00502001Y00408401
X00505601Y00415601
X0039825Y004525
X0030875Y004587
X002547Y004685
X0025085Y0044225
X0024485Y004307
X0024995Y004036
X002306Y004054
X0020845Y0036645
X001847Y0036155
X001846Y003364
X0018035Y003166
X00361841Y00340612
X0035125Y0052865
X00293201Y00523601
X00278801
X00271601
X00257201
X00250001Y00538001
X00178001Y00523601
X00170801
X00147732Y0053756
X001306Y0053755
X0011295Y0053745
X0005649Y0053925
X0005577Y0053174
X0005572Y0052321
X0005586Y0051446
X0005171Y0050529
X0004179Y0050086
X0003117Y005006
X0002118Y0050056
X0001939Y0049162
Y0048131
X0001957Y0047036
X0002995Y0046892
X0000424Y0046733
X0000423Y0047637
X0000421Y0048502
X0000422Y0049349
X0000425Y0050206
X0000728Y0051015
X0001367Y0051508
X0003428Y0051652
X0003974Y0052327
X0004Y0053152
X0003987Y0053886
X000811Y00485
X000722Y0041695
X0007245Y0039885
X0010235Y0038345
X001282Y0035985
X001279Y003416
X001095Y0027635
X00096Y002653
X0005395Y002731
X0000985Y002787
X0001015Y0028875
X000078Y00313
X000069Y003483
X000238Y003487
X0000955Y0043225
X0000945Y0044875
X000053Y004579
X000094Y002607
X000224Y002368
X0003835Y002066
X000494Y0017385
X000889Y001699
X001112Y0018465
X001212Y001846
X001423Y0018345
X001417Y0021805
X001313
X0009125Y002196
X0011295Y0055325
X00112468Y0056879
X00112332Y0058431
X00129982Y0058441
X00130118Y0056889
X001306Y0055335
X00147732Y0055336
X0014725Y005689
X00147113Y0058442
X0017453Y0058724
X0019869Y0058676
X0022318Y0058659
X0024847Y0058741
X0026988
X0028917Y0058757
T03
X0002285Y0012285
Y0014285
Y0016285
T04
X0002285Y0010285
Y0018285
T05
X001857Y005463
X002111
X002365
X002619
X002873
X003127
X003381
X003635
X003889
X004143
Y005717
X003889
X003635
X003381
X003127
X002873
X002619
X002365
X002111
X001857
T06
X0004787Y0055509
T07
X0002247Y0052969
X0007327
Y0058049
X0002247
M30
