M48
;Layer_Color=9474304
;FILE_FORMAT=4:4
METRIC,LZ
;TYPE=PLATED
T1F00S00C0.3000
T3F00S00C0.8000
T4F00S00C0.8128
T5F00S00C0.9000
T6F00S00C0.9906
T8F00S00C1.0160
T9F00S00C1.5240
T10F00S00C1.7780
T11F00S00C3.1750
%
T01
X00022606Y0001905
X00073152Y00007112
X00109728Y00038608
X00132334Y00066548
X00135246Y00086682
X00102362Y00117094
X0015786Y00129072
X00203734Y00128624
Y001143
X00274828
X00326644Y00117856
X00446786Y00080518
X00425704Y00044958
X0042545Y0002159
X00230378Y00007112
X0016637Y00006096
X0017907Y00025654
X00172212Y00069342
X00522224Y00140462
X00681349Y0008135
X00729149Y0008445
X00722149Y0011055
X00755599Y000921
X00755249Y001332
X00776599Y001427
X00827549Y0014125
X00825443Y00128706
X00806149Y000934
X00799699Y0006215
X00799645Y00015387
X00724029Y0001975
X00683719Y0001923
X00845099Y000577
X00871099Y000338
X00887499Y0009135
X00887099Y001052
X00939999Y0010545
X00939649Y000906
X00957549Y0008495
X00955399Y0010065
X00975649Y001052
X00975899Y0009055
X01032649Y000665
X01014249Y000337
X01040499Y0011705
X01051649Y001755
X01016849Y002073
X00999349Y0024735
X00984299Y0029865
X00984049Y0034865
X00984299Y0036987
Y0037687
X00984899Y0038855
X00985299Y0039855
X01032199Y0040955
X01032099Y0042855
X01032249Y004474
X0101541Y00465061
X0101665Y00480401
X01025799Y004755
Y0048795
X01044149Y0048801
X0103825Y00480401
X0105265
X01062929Y0047549
X01062899Y0048793
X01081249Y004877
Y0047525
X0107425Y00480401
X01098299Y004754
Y0048785
X01116649
Y004754
X01135399Y0047515
Y004876
X0114625Y00466001
X0116065
X0116785Y00451601
Y00437201
Y00422801
X0116425Y00415601
X01151849Y0041715
X0114985Y00401201
X0116425
X0117505Y00408401
X0117865Y00415601
X01139649Y00451175
X01105549Y0045045
X01071299Y004525
X01105449Y0041065
X01123399Y003767
X01090598Y0036015
X0111025Y00307601
X0110665Y00300401
X0112105
X0111745Y00293201
X0113905
X0113545Y00300401
Y00286001
X0113905Y00278801
X0114625
Y00264401
X0113905
X0113545Y00271601
Y00257201
X0113905Y00250001
X0112465
X0112105Y00257201
X0112465Y00264401
X0112105Y00271601
X0112465Y00278801
X0111025
X01108499Y002639
X0111025Y00250001
X01093899Y0024655
X01061829Y002693
X01059699Y0028045
X01059208Y00293379
X0103489Y00340612
X0112465Y00307601
X0114625
X01234149Y0028125
X01247549Y00473
X01251899Y0049615
X01235799
X01220199Y0049645
X01203999Y004963
X01187599Y004967
X01213199Y004731
X01024299Y0052865
X0096625Y00523601
X0095185
X0094465
X00981799Y004587
X00967049Y0019445
X00956249Y001748
X00956499Y0016165
X00934749Y001572
X00934249Y0017465
X00917249Y001746
X00900499Y0017445
X00883449
X00866899Y001743
X00850849
X00854399Y0018628
X00842099Y0018635
X00830099Y001746
X00815349Y0018345
X00794249Y001846
X00784249Y0018465
X00761949Y001699
X00722449Y0017385
X00711399Y002066
X00695449Y002368
X00682449Y002607
X00682899Y002787
X00683199Y0028875
X00680849Y00313
X00679949Y003483
X00696849Y003487
X00682599Y0043225
X00682499Y0044875
X00678349Y004579
X00677289Y0046733
X00677279Y0047637
X00677259Y0048502
X00677269Y0049349
X00677299Y0050206
X00680329Y0051015
X00686719Y0051508
X00694229Y0050056
X00704219Y005006
X00714839Y0050086
X00724759Y0050529
X00728909Y0051446
X00728769Y0052321
X00728819Y0053174
X00729539Y0053925
X00712919Y0053886
X00713049Y0053152
X00712789Y0052327
X00707329Y0051652
X00692439Y0049162
Y0048131
X00692619Y0047036
X00702999Y0046892
X00754149Y00485
X00745249Y0041695
X00745499Y0039885
X00775399Y0038345
X00801249Y0035985
X00800949Y003416
X00857649Y003364
X00853399Y003166
X00857749Y0036155
X00881499Y0036645
X00903649Y004054
X00922999Y004036
X00917899Y004307
X00923899Y0044225
X00927749Y004685
X0093025Y00523601
X0092305Y00538001
X0085105Y00523601
X0084385
X00820781Y0053756
X00803649Y0053755
X00785999Y0053745
X00782549Y0027635
X00769049Y002653
X00726999Y002731
X00764299Y002196
X00804349Y0021805
X00814749
X00834449Y002181
X00844399Y0021805
X00864449Y002178
X00887578Y00156926
X00559308Y00279908
X0056007Y00314706
X005842Y0033147
X00540004Y00398272
X00520192
X00497586Y0046101
X00451Y004615
X00443484Y00487172
X00430643Y00487059
X00400304Y0048514
X00398144Y00475362
X00390398Y00482346
X00354584Y00486918
X00346949Y00436895
X00335788Y00407162
X00321056Y00373126
X00330454Y00362458
X00339598Y0035179
X00341538Y00316992
X00332538Y00308974
X0030353Y00356866
X00305562Y0037846
X00299466Y00393192
X00225296Y00395492
X0024003Y0041529
X0025146Y00361442
X00272932Y00329352
X00237501Y003085
X00226836Y00260618
X00214108
X00249936Y00242316
X0027559Y00241808
X00288077Y00241767
X00300722Y00241568
X00313436Y00241554
X0030861Y00208026
X00288036
X00266446Y00211074
X00272796Y0018415
X00296926
X00245872Y00179578
X0025019Y001615
X00197998Y00150622
X00204Y00216154
X00232156Y00218694
X00326136Y00211836
X0033909Y00203454
X00385572Y00221996
X00377444Y00231902
X0037846Y00253492
X00400812Y00258572
X00400304Y00244602
X00400812Y0027432
X00443317Y0034707
X0045085Y00372618
X00421386Y00374904
X00462788Y0048387
X0045593Y00517034
X00282702Y00502158
X00297688Y00484632
X00159001Y00427245
X0017145Y00364236
X00171704Y00314198
X00143764Y0029718
X00144272Y0027178
Y00245618
X00510032Y00171196
X00138802Y00149736
X00118618Y00167894
X00120396Y00217424
X00117856Y00258318
X0008001Y00268224
X00126492Y00305054
X00113284Y00323088
X00119126Y00377444
X00140911Y00368949
X00117094Y00409448
Y00445385
X0008001Y0039116
X00079756Y00354838
X0007874Y00181356
X00437896Y0054102
X00441198Y00552196
X00467106Y00547624
X00785999Y0055325
X00785517Y0056879
X00785381Y0058431
X00803031Y0058441
X00803167Y0056889
X00803649Y0055335
X00820781Y0055336
X00820299Y005689
X00820163Y0058442
X00847579Y0058724
X00871739Y0058676
X00896229Y0058659
X00921519Y0058741
X00942929
X00962219Y0058757
T03
X002286Y0044323
X00254
Y0051943
X002286
T04
X00695899Y0012285
Y0014285
Y0016285
T05
X00377698Y00065024
Y00090424
Y00115824
Y00141224
X00580898
Y00115824
Y00090424
Y00065024
Y00166624
Y00192024
X00377698
Y00166624
T06
X00695899Y0010285
Y0018285
T08
X00165862Y00444246
X00191262
X00137922Y00485648
X00112522
Y00511048
X00087122Y00511048
Y00485648
X00137922Y00511048
X001857Y005463
X002111
X002365
X002619
X002873
X003127
X003381
X003635
X003889
X004143
Y005717
X003889
X003635
X003381
X003127
X002873
X002619
X002365
X002111
X001857
X00858749Y005717
Y005463
X00884149
X00909549
X00934949
Y005717
X00909549
X00884149
X00960349
Y005463
X00985749
X01011149
X01036549
X01061949
X01087349
Y005717
X01061949
X01036549
X01011149
X00985749
T09
X00720919Y0055509
T10
X00695519Y0052969
X00746319
Y0058049
X00695519
T11
X00030226Y00569722
X00569722
M30
